<?xml version="1.0" encoding="UTF-8"?>
<svg xmlns="http://www.w3.org/2000/svg" width="1056" height="1008" viewBox="0 0 1056 1008">
<path d="M629,278h6v1h-6zM623,279h18v1h-18zM620,280h24v1h-24zM617,281h29v1h-29zM615,282h33v1h-33zM614,283h36v1h-36zM612,284h39v1h-39zM611,285h42v1h-42zM610,286h44v1h-44zM609,287h46v1h-46zM608,288h48v1h-48zM607,289h50v1h-50zM606,290h52v1h-52zM605,291h54v1h-54zM604,292h56v1h-56zM603,293h58v1h-58zM603,294h59v1h-59zM602,295h61v1h-61zM602,296h62v1h-62zM601,297h28v1h-28zM635,297h30v1h-30zM601,298h24v1h-24zM638,298h28v1h-28zM600,299h23v1h-23zM640,299h27v1h-27zM600,300h22v1h-22zM642,300h26v1h-26zM599,301h22v1h-22zM643,301h26v1h-26zM599,302h21v1h-21zM644,302h26v1h-26zM599,303h20v1h-20zM645,303h26v1h-26zM599,304h20v1h-20zM646,304h26v1h-26zM598,305h20v1h-20zM647,305h26v1h-26zM598,306h20v1h-20zM648,306h26v1h-26zM598,307h19v1h-19zM649,307h26v1h-26zM598,308h19v1h-19zM650,308h26v1h-26zM598,309h19v1h-19zM651,309h26v1h-26zM598,310h19v1h-19zM652,310h26v1h-26zM598,311h19v1h-19zM653,311h26v1h-26zM598,312h19v1h-19zM654,312h26v1h-26zM598,313h19v1h-19zM655,313h26v1h-26zM598,314h19v1h-19zM656,314h26v1h-26zM598,315h19v1h-19zM657,315h26v1h-26zM598,316h19v1h-19zM658,316h26v1h-26zM598,317h20v1h-20zM659,317h26v1h-26zM598,318h20v1h-20zM660,318h26v1h-26zM599,319h20v1h-20zM661,319h26v1h-26zM599,320h20v1h-20zM662,320h26v1h-26zM599,321h21v1h-21zM663,321h26v1h-26zM599,322h22v1h-22zM664,322h26v1h-26zM600,323h22v1h-22zM665,323h26v1h-26zM600,324h23v1h-23zM666,324h26v1h-26zM601,325h23v1h-23zM667,325h26v1h-26zM601,326h24v1h-24zM668,326h26v1h-26zM602,327h24v1h-24zM669,327h26v1h-26zM602,328h25v1h-25zM670,328h26v1h-26zM603,329h25v1h-25zM671,329h26v1h-26zM372,330h257v1h-257zM672,330h26v1h-26zM365,331h265v1h-265zM673,331h26v1h-26zM361,332h270v1h-270zM674,332h26v1h-26zM357,333h275v1h-275zM675,333h26v1h-26zM354,334h279v1h-279zM676,334h26v1h-26zM351,335h283v1h-283zM677,335h26v1h-26zM349,336h286v1h-286zM678,336h26v1h-26zM347,337h289v1h-289zM679,337h26v1h-26zM344,338h293v1h-293zM680,338h26v1h-26zM342,339h296v1h-296zM681,339h26v1h-26zM340,340h299v1h-299zM682,340h26v1h-26zM339,341h301v1h-301zM683,341h26v1h-26zM337,342h304v1h-304zM684,342h26v1h-26zM335,343h307v1h-307zM685,343h26v1h-26zM334,344h309v1h-309zM686,344h26v1h-26zM332,345h312v1h-312zM687,345h25v1h-25zM331,346h314v1h-314zM688,346h25v1h-25zM329,347h317v1h-317zM689,347h25v1h-25zM328,348h318v1h-318zM690,348h24v1h-24zM327,349h44v1h-44zM691,349h24v1h-24zM326,350h40v1h-40zM692,350h23v1h-23zM325,351h37v1h-37zM693,351h23v1h-23zM324,352h35v1h-35zM694,352h22v1h-22zM323,353h33v1h-33zM695,353h21v1h-21zM322,354h32v1h-32zM696,354h21v1h-21zM321,355h31v1h-31zM696,355h21v1h-21zM320,356h30v1h-30zM697,356h20v1h-20zM319,357h29v1h-29zM698,357h19v1h-19zM318,358h28v1h-28zM698,358h20v1h-20zM317,359h28v1h-28zM698,359h20v1h-20zM316,360h27v1h-27zM699,360h19v1h-19zM315,361h27v1h-27zM699,361h19v1h-19zM314,362h27v1h-27zM699,362h19v1h-19zM313,363h26v1h-26zM699,363h19v1h-19zM313,364h25v1h-25zM699,364h19v1h-19zM312,365h25v1h-25zM699,365h19v1h-19zM311,366h25v1h-25zM699,366h19v1h-19zM311,367h24v1h-24zM699,367h19v1h-19zM310,368h24v1h-24zM699,368h19v1h-19zM309,369h24v1h-24zM698,369h20v1h-20zM309,370h23v1h-23zM698,370h20v1h-20zM308,371h23v1h-23zM698,371h19v1h-19zM307,372h23v1h-23zM697,372h20v1h-20zM307,373h22v1h-22zM696,373h21v1h-21zM306,374h22v1h-22zM696,374h21v1h-21zM306,375h22v1h-22zM695,375h21v1h-21zM305,376h22v1h-22zM694,376h22v1h-22zM305,377h21v1h-21zM693,377h23v1h-23zM304,378h21v1h-21zM692,378h23v1h-23zM304,379h21v1h-21zM691,379h24v1h-24zM303,380h21v1h-21zM373,380h274v1h-274zM690,380h24v1h-24zM303,381h21v1h-21zM370,381h276v1h-276zM689,381h25v1h-25zM302,382h21v1h-21zM367,382h278v1h-278zM688,382h25v1h-25zM302,383h21v1h-21zM365,383h279v1h-279zM687,383h25v1h-25zM302,384h20v1h-20zM363,384h280v1h-280zM686,384h26v1h-26zM301,385h21v1h-21zM361,385h281v1h-281zM685,385h26v1h-26zM301,386h20v1h-20zM360,386h281v1h-281zM684,386h26v1h-26zM300,387h21v1h-21zM359,387h281v1h-281zM683,387h26v1h-26zM300,388h20v1h-20zM357,388h282v1h-282zM682,388h26v1h-26zM300,389h20v1h-20zM356,389h282v1h-282zM681,389h27v1h-27zM299,390h20v1h-20zM355,390h282v1h-282zM680,390h27v1h-27zM299,391h20v1h-20zM354,391h282v1h-282zM679,391h27v1h-27zM299,392h19v1h-19zM353,392h282v1h-282zM678,392h27v1h-27zM299,393h19v1h-19zM353,393h281v1h-281zM677,393h26v1h-26zM298,394h20v1h-20zM352,394h281v1h-281zM676,394h26v1h-26zM298,395h19v1h-19zM351,395h281v1h-281zM675,395h26v1h-26zM298,396h19v1h-19zM351,396h280v1h-280zM674,396h26v1h-26zM298,397h19v1h-19zM350,397h280v1h-280zM673,397h26v1h-26zM297,398h19v1h-19zM349,398h32v1h-32zM386,398h18v1h-18zM406,398h2v1h-2zM409,398h5v1h-5zM420,398h34v1h-34zM455,398h11v1h-11zM467,398h77v1h-77zM545,398h49v1h-49zM601,398h1v1h-1zM603,398h26v1h-26zM672,398h26v1h-26zM297,399h19v1h-19zM349,399h26v1h-26zM603,399h25v1h-25zM671,399h26v1h-26zM297,400h19v1h-19zM348,400h25v1h-25zM602,400h25v1h-25zM670,400h27v1h-27zM297,401h19v1h-19zM348,401h23v1h-23zM602,401h24v1h-24zM670,401h26v1h-26zM297,402h19v1h-19zM347,402h23v1h-23zM601,402h24v1h-24zM669,402h26v1h-26zM296,403h19v1h-19zM347,403h22v1h-22zM601,403h23v1h-23zM668,403h26v1h-26zM296,404h19v1h-19zM347,404h21v1h-21zM600,404h23v1h-23zM667,404h26v1h-26zM296,405h19v1h-19zM346,405h21v1h-21zM600,405h22v1h-22zM666,405h26v1h-26zM296,406h19v1h-19zM346,406h20v1h-20zM600,406h21v1h-21zM665,406h26v1h-26zM296,407h19v1h-19zM346,407h20v1h-20zM506,407h28v1h-28zM599,407h21v1h-21zM664,407h26v1h-26zM296,408h19v1h-19zM346,408h19v1h-19zM501,408h39v1h-39zM599,408h21v1h-21zM663,408h26v1h-26zM702,408h16v1h-16zM296,409h19v1h-19zM345,409h20v1h-20zM496,409h48v1h-48zM599,409h20v1h-20zM662,409h26v1h-26zM699,409h23v1h-23zM296,410h18v1h-18zM345,410h19v1h-19zM492,410h56v1h-56zM599,410h19v1h-19zM661,410h26v1h-26zM697,410h27v1h-27zM296,411h18v1h-18zM345,411h19v1h-19zM489,411h62v1h-62zM598,411h20v1h-20zM660,411h26v1h-26zM695,411h31v1h-31zM296,412h18v1h-18zM345,412h19v1h-19zM486,412h68v1h-68zM598,412h20v1h-20zM659,412h26v1h-26zM693,412h35v1h-35zM295,413h19v1h-19zM345,413h19v1h-19zM484,413h72v1h-72zM598,413h19v1h-19zM658,413h26v1h-26zM691,413h39v1h-39zM295,414h19v1h-19zM345,414h19v1h-19zM481,414h78v1h-78zM598,414h19v1h-19zM657,414h26v1h-26zM690,414h41v1h-41zM295,415h19v1h-19zM345,415h19v1h-19zM479,415h82v1h-82zM598,415h19v1h-19zM656,415h26v1h-26zM689,415h43v1h-43zM295,416h19v1h-19zM345,416h19v1h-19zM477,416h86v1h-86zM598,416h19v1h-19zM655,416h26v1h-26zM688,416h45v1h-45zM295,417h19v1h-19zM345,417h19v1h-19zM475,417h90v1h-90zM598,417h19v1h-19zM654,417h26v1h-26zM687,417h47v1h-47zM295,418h19v1h-19zM345,418h19v1h-19zM473,418h94v1h-94zM598,418h19v1h-19zM653,418h26v1h-26zM686,418h49v1h-49zM295,419h19v1h-19zM345,419h19v1h-19zM472,419h97v1h-97zM598,419h19v1h-19zM652,419h26v1h-26zM685,419h51v1h-51zM295,420h19v1h-19zM345,420h19v1h-19zM470,420h100v1h-100zM598,420h19v1h-19zM651,420h26v1h-26zM684,420h53v1h-53zM295,421h19v1h-19zM345,421h19v1h-19zM468,421h104v1h-104zM598,421h19v1h-19zM650,421h26v1h-26zM683,421h55v1h-55zM295,422h19v1h-19zM345,422h19v1h-19zM467,422h107v1h-107zM598,422h20v1h-20zM649,422h26v1h-26zM682,422h57v1h-57zM295,423h19v1h-19zM345,423h19v1h-19zM465,423h110v1h-110zM598,423h20v1h-20zM648,423h26v1h-26zM682,423h57v1h-57zM295,424h19v1h-19zM345,424h19v1h-19zM464,424h112v1h-112zM599,424h19v1h-19zM647,424h26v1h-26zM681,424h59v1h-59zM295,425h19v1h-19zM345,425h19v1h-19zM463,425h50v1h-50zM527,425h51v1h-51zM599,425h20v1h-20zM646,425h26v1h-26zM680,425h61v1h-61zM295,426h19v1h-19zM345,426h19v1h-19zM461,426h44v1h-44zM534,426h45v1h-45zM599,426h21v1h-21zM645,426h26v1h-26zM680,426h28v1h-28zM713,426h28v1h-28zM295,427h19v1h-19zM345,427h19v1h-19zM460,427h41v1h-41zM539,427h41v1h-41zM599,427h21v1h-21zM644,427h26v1h-26zM679,427h26v1h-26zM716,427h25v1h-25zM295,428h19v1h-19zM345,428h19v1h-19zM459,428h38v1h-38zM543,428h39v1h-39zM600,428h21v1h-21zM643,428h26v1h-26zM679,428h24v1h-24zM718,428h24v1h-24zM295,429h19v1h-19zM345,429h19v1h-19zM457,429h37v1h-37zM546,429h37v1h-37zM600,429h22v1h-22zM642,429h26v1h-26zM679,429h22v1h-22zM720,429h22v1h-22zM295,430h19v1h-19zM345,430h19v1h-19zM456,430h36v1h-36zM548,430h36v1h-36zM600,430h24v1h-24zM640,430h27v1h-27zM678,430h22v1h-22zM721,430h22v1h-22zM295,431h19v1h-19zM345,431h19v1h-19zM455,431h34v1h-34zM551,431h34v1h-34zM601,431h25v1h-25zM638,431h28v1h-28zM678,431h21v1h-21zM722,431h21v1h-21zM295,432h19v1h-19zM345,432h19v1h-19zM454,432h33v1h-33zM553,432h33v1h-33zM601,432h27v1h-27zM636,432h29v1h-29zM678,432h20v1h-20zM723,432h20v1h-20zM295,433h19v1h-19zM345,433h19v1h-19zM453,433h32v1h-32zM555,433h32v1h-32zM602,433h62v1h-62zM677,433h20v1h-20zM724,433h20v1h-20zM295,434h19v1h-19zM345,434h19v1h-19zM452,434h31v1h-31zM557,434h31v1h-31zM602,434h61v1h-61zM677,434h20v1h-20zM724,434h20v1h-20zM295,435h19v1h-19zM345,435h19v1h-19zM451,435h30v1h-30zM559,435h30v1h-30zM603,435h59v1h-59zM677,435h19v1h-19zM725,435h19v1h-19zM295,436h19v1h-19zM345,436h19v1h-19zM450,436h30v1h-30zM561,436h29v1h-29zM604,436h57v1h-57zM677,436h19v1h-19zM725,436h19v1h-19zM295,437h19v1h-19zM345,437h19v1h-19zM449,437h29v1h-29zM562,437h29v1h-29zM604,437h56v1h-56zM677,437h19v1h-19zM725,437h19v1h-19zM295,438h19v1h-19zM345,438h19v1h-19zM448,438h28v1h-28zM564,438h28v1h-28zM605,438h54v1h-54zM677,438h19v1h-19zM725,438h19v1h-19zM295,439h19v1h-19zM345,439h19v1h-19zM447,439h28v1h-28zM565,439h28v1h-28zM606,439h52v1h-52zM677,439h18v1h-18zM726,439h19v1h-19zM295,440h19v1h-19zM345,440h19v1h-19zM446,440h28v1h-28zM567,440h27v1h-27zM607,440h50v1h-50zM676,440h19v1h-19zM726,440h19v1h-19zM295,441h19v1h-19zM345,441h19v1h-19zM445,441h27v1h-27zM568,441h27v1h-27zM608,441h48v1h-48zM676,441h19v1h-19zM726,441h19v1h-19zM295,442h19v1h-19zM345,442h19v1h-19zM445,442h26v1h-26zM569,442h27v1h-27zM609,442h46v1h-46zM676,442h19v1h-19zM726,442h19v1h-19zM295,443h19v1h-19zM345,443h19v1h-19zM444,443h26v1h-26zM570,443h27v1h-27zM610,443h44v1h-44zM676,443h19v1h-19zM726,443h19v1h-19zM295,444h19v1h-19zM345,444h19v1h-19zM443,444h26v1h-26zM572,444h25v1h-25zM611,444h41v1h-41zM676,444h19v1h-19zM726,444h19v1h-19zM295,445h19v1h-19zM345,445h19v1h-19zM442,445h25v1h-25zM573,445h25v1h-25zM613,445h38v1h-38zM676,445h19v1h-19zM726,445h19v1h-19zM295,446h19v1h-19zM345,446h19v1h-19zM441,446h25v1h-25zM574,446h25v1h-25zM614,446h36v1h-36zM676,446h19v1h-19zM726,446h19v1h-19zM295,447h19v1h-19zM345,447h19v1h-19zM441,447h24v1h-24zM575,447h24v1h-24zM616,447h32v1h-32zM676,447h19v1h-19zM726,447h19v1h-19zM295,448h19v1h-19zM345,448h19v1h-19zM440,448h24v1h-24zM576,448h24v1h-24zM618,448h28v1h-28zM676,448h19v1h-19zM726,448h19v1h-19zM295,449h19v1h-19zM345,449h19v1h-19zM439,449h24v1h-24zM577,449h24v1h-24zM620,449h24v1h-24zM676,449h19v1h-19zM726,449h19v1h-19zM295,450h19v1h-19zM345,450h19v1h-19zM439,450h23v1h-23zM578,450h24v1h-24zM623,450h18v1h-18zM676,450h19v1h-19zM726,450h19v1h-19zM295,451h19v1h-19zM345,451h19v1h-19zM438,451h23v1h-23zM579,451h23v1h-23zM629,451h7v1h-7zM676,451h19v1h-19zM726,451h19v1h-19zM295,452h19v1h-19zM345,452h19v1h-19zM437,452h24v1h-24zM580,452h23v1h-23zM676,452h19v1h-19zM726,452h19v1h-19zM295,453h19v1h-19zM345,453h19v1h-19zM437,453h23v1h-23zM580,453h23v1h-23zM676,453h19v1h-19zM726,453h19v1h-19zM295,454h19v1h-19zM345,454h19v1h-19zM436,454h23v1h-23zM581,454h23v1h-23zM676,454h19v1h-19zM726,454h19v1h-19zM295,455h19v1h-19zM345,455h19v1h-19zM436,455h22v1h-22zM582,455h23v1h-23zM676,455h19v1h-19zM726,455h19v1h-19zM295,456h19v1h-19zM345,456h19v1h-19zM435,456h22v1h-22zM515,456h11v1h-11zM583,456h22v1h-22zM676,456h19v1h-19zM726,456h19v1h-19zM295,457h19v1h-19zM345,457h19v1h-19zM434,457h23v1h-23zM509,457h23v1h-23zM583,457h23v1h-23zM676,457h19v1h-19zM726,457h19v1h-19zM295,458h19v1h-19zM345,458h19v1h-19zM434,458h22v1h-22zM505,458h30v1h-30zM584,458h22v1h-22zM676,458h19v1h-19zM726,458h19v1h-19zM295,459h19v1h-19zM345,459h19v1h-19zM433,459h22v1h-22zM502,459h36v1h-36zM585,459h22v1h-22zM676,459h19v1h-19zM726,459h19v1h-19zM295,460h19v1h-19zM345,460h19v1h-19zM433,460h22v1h-22zM500,460h40v1h-40zM586,460h21v1h-21zM676,460h19v1h-19zM726,460h19v1h-19zM295,461h19v1h-19zM345,461h19v1h-19zM432,461h22v1h-22zM498,461h44v1h-44zM586,461h22v1h-22zM676,461h19v1h-19zM726,461h19v1h-19zM295,462h19v1h-19zM345,462h19v1h-19zM432,462h21v1h-21zM496,462h48v1h-48zM587,462h21v1h-21zM676,462h19v1h-19zM726,462h19v1h-19zM295,463h19v1h-19zM345,463h19v1h-19zM431,463h22v1h-22zM495,463h51v1h-51zM587,463h22v1h-22zM676,463h19v1h-19zM726,463h19v1h-19zM295,464h19v1h-19zM345,464h19v1h-19zM431,464h21v1h-21zM493,464h54v1h-54zM588,464h21v1h-21zM676,464h19v1h-19zM726,464h19v1h-19zM295,465h19v1h-19zM345,465h19v1h-19zM431,465h21v1h-21zM492,465h56v1h-56zM589,465h21v1h-21zM676,465h19v1h-19zM726,465h19v1h-19zM295,466h19v1h-19zM345,466h19v1h-19zM430,466h21v1h-21zM490,466h60v1h-60zM589,466h21v1h-21zM676,466h19v1h-19zM726,466h19v1h-19zM295,467h19v1h-19zM345,467h19v1h-19zM430,467h20v1h-20zM489,467h62v1h-62zM590,467h20v1h-20zM676,467h19v1h-19zM726,467h19v1h-19zM295,468h19v1h-19zM345,468h19v1h-19zM429,468h21v1h-21zM488,468h64v1h-64zM590,468h21v1h-21zM676,468h19v1h-19zM726,468h19v1h-19zM295,469h19v1h-19zM345,469h19v1h-19zM429,469h20v1h-20zM487,469h66v1h-66zM591,469h20v1h-20zM676,469h19v1h-19zM726,469h19v1h-19zM295,470h19v1h-19zM345,470h19v1h-19zM429,470h20v1h-20zM486,470h68v1h-68zM591,470h21v1h-21zM676,470h19v1h-19zM726,470h19v1h-19zM295,471h19v1h-19zM345,471h19v1h-19zM428,471h20v1h-20zM485,471h70v1h-70zM592,471h20v1h-20zM676,471h19v1h-19zM726,471h19v1h-19zM295,472h19v1h-19zM345,472h19v1h-19zM428,472h20v1h-20zM484,472h72v1h-72zM592,472h20v1h-20zM676,472h19v1h-19zM726,472h19v1h-19zM295,473h19v1h-19zM345,473h19v1h-19zM427,473h21v1h-21zM483,473h74v1h-74zM593,473h20v1h-20zM676,473h19v1h-19zM726,473h19v1h-19zM295,474h19v1h-19zM345,474h19v1h-19zM427,474h20v1h-20zM482,474h76v1h-76zM593,474h20v1h-20zM676,474h19v1h-19zM726,474h19v1h-19zM295,475h19v1h-19zM345,475h19v1h-19zM427,475h20v1h-20zM482,475h32v1h-32zM526,475h33v1h-33zM593,475h20v1h-20zM676,475h19v1h-19zM726,475h19v1h-19zM295,476h19v1h-19zM345,476h19v1h-19zM426,476h20v1h-20zM481,476h29v1h-29zM530,476h29v1h-29zM594,476h20v1h-20zM676,476h19v1h-19zM726,476h19v1h-19zM295,477h19v1h-19zM345,477h19v1h-19zM426,477h20v1h-20zM480,477h28v1h-28zM532,477h28v1h-28zM594,477h20v1h-20zM676,477h19v1h-19zM726,477h19v1h-19zM295,478h19v1h-19zM345,478h19v1h-19zM426,478h20v1h-20zM480,478h26v1h-26zM534,478h27v1h-27zM595,478h19v1h-19zM676,478h19v1h-19zM726,478h19v1h-19zM295,479h19v1h-19zM345,479h19v1h-19zM426,479h19v1h-19zM479,479h25v1h-25zM536,479h25v1h-25zM595,479h19v1h-19zM676,479h19v1h-19zM726,479h19v1h-19zM295,480h19v1h-19zM345,480h19v1h-19zM425,480h20v1h-20zM478,480h25v1h-25zM537,480h25v1h-25zM595,480h20v1h-20zM676,480h19v1h-19zM726,480h19v1h-19zM295,481h19v1h-19zM345,481h19v1h-19zM425,481h20v1h-20zM478,481h24v1h-24zM538,481h24v1h-24zM596,481h19v1h-19zM676,481h19v1h-19zM726,481h19v1h-19zM295,482h19v1h-19zM345,482h19v1h-19zM425,482h19v1h-19zM477,482h24v1h-24zM540,482h23v1h-23zM596,482h19v1h-19zM676,482h19v1h-19zM726,482h19v1h-19zM295,483h19v1h-19zM345,483h19v1h-19zM425,483h19v1h-19zM477,483h23v1h-23zM541,483h22v1h-22zM596,483h19v1h-19zM676,483h19v1h-19zM726,483h19v1h-19zM295,484h19v1h-19zM345,484h19v1h-19zM424,484h20v1h-20zM476,484h23v1h-23zM542,484h22v1h-22zM596,484h20v1h-20zM676,484h19v1h-19zM726,484h19v1h-19zM295,485h19v1h-19zM345,485h19v1h-19zM424,485h20v1h-20zM476,485h22v1h-22zM542,485h22v1h-22zM597,485h19v1h-19zM676,485h19v1h-19zM726,485h19v1h-19zM295,486h19v1h-19zM345,486h19v1h-19zM424,486h19v1h-19zM476,486h21v1h-21zM543,486h22v1h-22zM597,486h19v1h-19zM676,486h19v1h-19zM726,486h19v1h-19zM295,487h19v1h-19zM345,487h19v1h-19zM424,487h19v1h-19zM475,487h21v1h-21zM544,487h21v1h-21zM597,487h19v1h-19zM676,487h19v1h-19zM726,487h19v1h-19zM295,488h19v1h-19zM345,488h19v1h-19zM424,488h19v1h-19zM475,488h20v1h-20zM545,488h20v1h-20zM597,488h19v1h-19zM676,488h19v1h-19zM726,488h19v1h-19zM295,489h19v1h-19zM345,489h19v1h-19zM423,489h20v1h-20zM474,489h21v1h-21zM545,489h21v1h-21zM597,489h20v1h-20zM676,489h19v1h-19zM726,489h19v1h-19zM295,490h19v1h-19zM345,490h19v1h-19zM423,490h19v1h-19zM474,490h20v1h-20zM546,490h20v1h-20zM598,490h19v1h-19zM676,490h19v1h-19zM726,490h19v1h-19zM295,491h19v1h-19zM345,491h19v1h-19zM423,491h19v1h-19zM474,491h20v1h-20zM546,491h20v1h-20zM598,491h19v1h-19zM676,491h19v1h-19zM726,491h19v1h-19zM295,492h19v1h-19zM345,492h19v1h-19zM423,492h19v1h-19zM474,492h19v1h-19zM547,492h20v1h-20zM598,492h19v1h-19zM676,492h19v1h-19zM726,492h19v1h-19zM295,493h19v1h-19zM345,493h19v1h-19zM423,493h19v1h-19zM473,493h20v1h-20zM547,493h20v1h-20zM598,493h19v1h-19zM676,493h19v1h-19zM726,493h19v1h-19zM295,494h19v1h-19zM345,494h19v1h-19zM423,494h19v1h-19zM473,494h20v1h-20zM548,494h19v1h-19zM598,494h19v1h-19zM676,494h19v1h-19zM726,494h19v1h-19zM295,495h19v1h-19zM345,495h19v1h-19zM423,495h19v1h-19zM473,495h19v1h-19zM548,495h19v1h-19zM598,495h19v1h-19zM676,495h19v1h-19zM726,495h19v1h-19zM295,496h19v1h-19zM345,496h19v1h-19zM423,496h19v1h-19zM473,496h19v1h-19zM548,496h19v1h-19zM598,496h19v1h-19zM676,496h19v1h-19zM726,496h19v1h-19zM295,497h19v1h-19zM345,497h19v1h-19zM423,497h19v1h-19zM473,497h19v1h-19zM548,497h20v1h-20zM599,497h18v1h-18zM676,497h19v1h-19zM726,497h19v1h-19zM295,498h19v1h-19zM345,498h19v1h-19zM423,498h19v1h-19zM473,498h19v1h-19zM549,498h19v1h-19zM599,498h18v1h-18zM676,498h19v1h-19zM726,498h19v1h-19zM295,499h19v1h-19zM345,499h19v1h-19zM422,499h20v1h-20zM472,499h19v1h-19zM549,499h19v1h-19zM599,499h19v1h-19zM676,499h19v1h-19zM726,499h19v1h-19zM295,500h19v1h-19zM345,500h19v1h-19zM422,500h19v1h-19zM472,500h19v1h-19zM549,500h19v1h-19zM599,500h19v1h-19zM676,500h19v1h-19zM726,500h19v1h-19zM295,501h19v1h-19zM345,501h19v1h-19zM422,501h19v1h-19zM472,501h19v1h-19zM549,501h19v1h-19zM599,501h19v1h-19zM676,501h19v1h-19zM726,501h19v1h-19zM295,502h19v1h-19zM345,502h19v1h-19zM422,502h19v1h-19zM472,502h19v1h-19zM549,502h19v1h-19zM599,502h19v1h-19zM676,502h19v1h-19zM726,502h19v1h-19zM295,503h19v1h-19zM345,503h19v1h-19zM422,503h19v1h-19zM472,503h19v1h-19zM549,503h19v1h-19zM599,503h19v1h-19zM676,503h19v1h-19zM726,503h19v1h-19zM295,504h19v1h-19zM345,504h19v1h-19zM422,504h19v1h-19zM472,504h19v1h-19zM549,504h19v1h-19zM599,504h19v1h-19zM676,504h19v1h-19zM726,504h19v1h-19zM295,505h19v1h-19zM345,505h19v1h-19zM422,505h19v1h-19zM472,505h19v1h-19zM549,505h19v1h-19zM599,505h19v1h-19zM676,505h19v1h-19zM726,505h19v1h-19zM295,506h19v1h-19zM345,506h19v1h-19zM422,506h19v1h-19zM472,506h19v1h-19zM549,506h19v1h-19zM599,506h19v1h-19zM676,506h19v1h-19zM726,506h19v1h-19zM295,507h19v1h-19zM345,507h19v1h-19zM422,507h19v1h-19zM472,507h19v1h-19zM549,507h19v1h-19zM599,507h19v1h-19zM676,507h19v1h-19zM726,507h19v1h-19zM295,508h19v1h-19zM345,508h19v1h-19zM422,508h19v1h-19zM472,508h19v1h-19zM549,508h19v1h-19zM599,508h19v1h-19zM676,508h19v1h-19zM726,508h19v1h-19zM295,509h19v1h-19zM345,509h19v1h-19zM423,509h19v1h-19zM472,509h20v1h-20zM549,509h19v1h-19zM599,509h19v1h-19zM676,509h19v1h-19zM726,509h19v1h-19zM295,510h19v1h-19zM345,510h19v1h-19zM423,510h19v1h-19zM473,510h19v1h-19zM548,510h20v1h-20zM599,510h18v1h-18zM676,510h19v1h-19zM726,510h19v1h-19zM295,511h19v1h-19zM345,511h19v1h-19zM423,511h19v1h-19zM473,511h19v1h-19zM548,511h19v1h-19zM598,511h19v1h-19zM676,511h19v1h-19zM726,511h19v1h-19zM295,512h19v1h-19zM345,512h19v1h-19zM423,512h19v1h-19zM473,512h19v1h-19zM548,512h19v1h-19zM598,512h19v1h-19zM676,512h19v1h-19zM726,512h19v1h-19zM295,513h19v1h-19zM345,513h19v1h-19zM423,513h19v1h-19zM473,513h20v1h-20zM548,513h19v1h-19zM598,513h19v1h-19zM676,513h19v1h-19zM726,513h19v1h-19zM295,514h19v1h-19zM345,514h19v1h-19zM423,514h19v1h-19zM473,514h20v1h-20zM547,514h20v1h-20zM598,514h19v1h-19zM676,514h19v1h-19zM726,514h19v1h-19zM295,515h19v1h-19zM345,515h19v1h-19zM423,515h19v1h-19zM474,515h19v1h-19zM547,515h20v1h-20zM598,515h19v1h-19zM676,515h19v1h-19zM726,515h19v1h-19zM295,516h19v1h-19zM345,516h19v1h-19zM423,516h19v1h-19zM474,516h20v1h-20zM547,516h19v1h-19zM598,516h19v1h-19zM676,516h19v1h-19zM726,516h19v1h-19zM295,517h19v1h-19zM345,517h19v1h-19zM423,517h19v1h-19zM474,517h20v1h-20zM546,517h20v1h-20zM598,517h19v1h-19zM676,517h19v1h-19zM726,517h19v1h-19zM295,518h19v1h-19zM345,518h19v1h-19zM423,518h20v1h-20zM474,518h21v1h-21zM545,518h21v1h-21zM597,518h20v1h-20zM676,518h19v1h-19zM726,518h19v1h-19zM295,519h19v1h-19zM345,519h19v1h-19zM424,519h19v1h-19zM475,519h21v1h-21zM545,519h21v1h-21zM597,519h19v1h-19zM676,519h19v1h-19zM726,519h19v1h-19zM295,520h19v1h-19zM345,520h19v1h-19zM424,520h19v1h-19zM475,520h21v1h-21zM544,520h21v1h-21zM597,520h19v1h-19zM676,520h19v1h-19zM726,520h19v1h-19zM295,521h19v1h-19zM345,521h19v1h-19zM424,521h19v1h-19zM475,521h22v1h-22zM543,521h22v1h-22zM597,521h19v1h-19zM676,521h19v1h-19zM726,521h19v1h-19zM295,522h19v1h-19zM345,522h19v1h-19zM424,522h19v1h-19zM476,522h22v1h-22zM543,522h21v1h-21zM597,522h19v1h-19zM676,522h19v1h-19zM726,522h19v1h-19zM295,523h19v1h-19zM345,523h19v1h-19zM424,523h20v1h-20zM476,523h22v1h-22zM542,523h22v1h-22zM596,523h20v1h-20zM676,523h19v1h-19zM726,523h19v1h-19zM295,524h19v1h-19zM345,524h19v1h-19zM425,524h19v1h-19zM477,524h22v1h-22zM541,524h23v1h-23zM596,524h20v1h-20zM676,524h19v1h-19zM726,524h19v1h-19zM295,525h19v1h-19zM345,525h19v1h-19zM425,525h19v1h-19zM477,525h23v1h-23zM540,525h23v1h-23zM596,525h19v1h-19zM676,525h19v1h-19zM726,525h19v1h-19zM295,526h19v1h-19zM345,526h19v1h-19zM425,526h20v1h-20zM478,526h23v1h-23zM539,526h24v1h-24zM596,526h19v1h-19zM676,526h19v1h-19zM726,526h19v1h-19zM295,527h19v1h-19zM345,527h19v1h-19zM425,527h20v1h-20zM478,527h25v1h-25zM538,527h24v1h-24zM595,527h20v1h-20zM676,527h19v1h-19zM726,527h19v1h-19zM295,528h19v1h-19zM345,528h19v1h-19zM426,528h19v1h-19zM479,528h25v1h-25zM536,528h25v1h-25zM595,528h20v1h-20zM676,528h19v1h-19zM726,528h19v1h-19zM295,529h19v1h-19zM345,529h19v1h-19zM426,529h20v1h-20zM480,529h26v1h-26zM535,529h26v1h-26zM595,529h19v1h-19zM676,529h19v1h-19zM726,529h19v1h-19zM295,530h19v1h-19zM345,530h19v1h-19zM426,530h20v1h-20zM480,530h28v1h-28zM533,530h27v1h-27zM594,530h20v1h-20zM676,530h19v1h-19zM726,530h19v1h-19zM295,531h19v1h-19zM345,531h19v1h-19zM426,531h20v1h-20zM481,531h29v1h-29zM531,531h29v1h-29zM594,531h20v1h-20zM676,531h19v1h-19zM726,531h19v1h-19zM295,532h19v1h-19zM345,532h19v1h-19zM427,532h20v1h-20zM482,532h31v1h-31zM527,532h32v1h-32zM594,532h19v1h-19zM676,532h19v1h-19zM726,532h19v1h-19zM295,533h19v1h-19zM345,533h19v1h-19zM427,533h20v1h-20zM482,533h76v1h-76zM593,533h20v1h-20zM676,533h19v1h-19zM726,533h19v1h-19zM295,534h19v1h-19zM345,534h19v1h-19zM427,534h21v1h-21zM483,534h74v1h-74zM593,534h20v1h-20zM676,534h19v1h-19zM726,534h19v1h-19zM295,535h19v1h-19zM345,535h19v1h-19zM428,535h20v1h-20zM484,535h72v1h-72zM592,535h21v1h-21zM676,535h19v1h-19zM726,535h19v1h-19zM295,536h19v1h-19zM345,536h19v1h-19zM428,536h20v1h-20zM485,536h71v1h-71zM592,536h20v1h-20zM676,536h19v1h-19zM726,536h19v1h-19zM295,537h19v1h-19zM345,537h19v1h-19zM428,537h21v1h-21zM486,537h69v1h-69zM591,537h21v1h-21zM676,537h19v1h-19zM726,537h19v1h-19zM295,538h19v1h-19zM345,538h19v1h-19zM429,538h20v1h-20zM487,538h66v1h-66zM591,538h20v1h-20zM676,538h19v1h-19zM726,538h19v1h-19zM295,539h19v1h-19zM345,539h19v1h-19zM429,539h21v1h-21zM488,539h64v1h-64zM590,539h21v1h-21zM676,539h19v1h-19zM726,539h19v1h-19zM295,540h19v1h-19zM345,540h19v1h-19zM430,540h20v1h-20zM489,540h62v1h-62zM590,540h21v1h-21zM676,540h19v1h-19zM726,540h19v1h-19zM295,541h19v1h-19zM345,541h19v1h-19zM430,541h21v1h-21zM490,541h60v1h-60zM589,541h21v1h-21zM676,541h19v1h-19zM726,541h19v1h-19zM295,542h19v1h-19zM345,542h19v1h-19zM430,542h21v1h-21zM492,542h57v1h-57zM589,542h21v1h-21zM676,542h19v1h-19zM726,542h19v1h-19zM295,543h19v1h-19zM345,543h19v1h-19zM431,543h21v1h-21zM493,543h54v1h-54zM588,543h21v1h-21zM676,543h19v1h-19zM726,543h19v1h-19zM295,544h19v1h-19zM345,544h19v1h-19zM431,544h22v1h-22zM495,544h51v1h-51zM588,544h21v1h-21zM676,544h19v1h-19zM726,544h19v1h-19zM295,545h19v1h-19zM345,545h19v1h-19zM432,545h21v1h-21zM496,545h48v1h-48zM587,545h21v1h-21zM676,545h19v1h-19zM726,545h19v1h-19zM295,546h19v1h-19zM345,546h19v1h-19zM432,546h22v1h-22zM498,546h44v1h-44zM586,546h22v1h-22zM676,546h19v1h-19zM726,546h19v1h-19zM295,547h19v1h-19zM345,547h19v1h-19zM433,547h21v1h-21zM500,547h40v1h-40zM586,547h21v1h-21zM676,547h19v1h-19zM726,547h19v1h-19zM295,548h19v1h-19zM345,548h19v1h-19zM433,548h22v1h-22zM503,548h35v1h-35zM585,548h22v1h-22zM676,548h19v1h-19zM726,548h19v1h-19zM295,549h19v1h-19zM345,549h19v1h-19zM434,549h22v1h-22zM505,549h30v1h-30zM584,549h22v1h-22zM676,549h19v1h-19zM726,549h19v1h-19zM295,550h19v1h-19zM345,550h19v1h-19zM434,550h23v1h-23zM509,550h23v1h-23zM584,550h22v1h-22zM676,550h19v1h-19zM726,550h19v1h-19zM295,551h19v1h-19zM345,551h19v1h-19zM435,551h22v1h-22zM514,551h13v1h-13zM583,551h22v1h-22zM676,551h19v1h-19zM726,551h19v1h-19zM295,552h19v1h-19zM345,552h19v1h-19zM435,552h23v1h-23zM582,552h23v1h-23zM676,552h19v1h-19zM726,552h19v1h-19zM295,553h19v1h-19zM345,553h19v1h-19zM436,553h23v1h-23zM581,553h23v1h-23zM676,553h19v1h-19zM726,553h19v1h-19zM295,554h19v1h-19zM345,554h19v1h-19zM437,554h23v1h-23zM581,554h22v1h-22zM676,554h19v1h-19zM726,554h19v1h-19zM295,555h19v1h-19zM345,555h19v1h-19zM437,555h24v1h-24zM580,555h23v1h-23zM676,555h19v1h-19zM726,555h19v1h-19zM295,556h19v1h-19zM345,556h19v1h-19zM405,556h6v1h-6zM438,556h23v1h-23zM579,556h23v1h-23zM676,556h19v1h-19zM726,556h19v1h-19zM295,557h19v1h-19zM345,557h19v1h-19zM399,557h18v1h-18zM438,557h24v1h-24zM578,557h24v1h-24zM676,557h19v1h-19zM726,557h19v1h-19zM295,558h19v1h-19zM345,558h19v1h-19zM396,558h24v1h-24zM439,558h24v1h-24zM577,558h24v1h-24zM676,558h19v1h-19zM726,558h19v1h-19zM295,559h19v1h-19zM345,559h19v1h-19zM394,559h28v1h-28zM440,559h24v1h-24zM576,559h24v1h-24zM676,559h19v1h-19zM726,559h19v1h-19zM295,560h19v1h-19zM345,560h19v1h-19zM392,560h32v1h-32zM441,560h24v1h-24zM575,560h25v1h-25zM676,560h19v1h-19zM726,560h19v1h-19zM295,561h19v1h-19zM345,561h19v1h-19zM390,561h36v1h-36zM441,561h25v1h-25zM574,561h25v1h-25zM676,561h19v1h-19zM726,561h19v1h-19zM295,562h19v1h-19zM345,562h19v1h-19zM389,562h38v1h-38zM442,562h26v1h-26zM573,562h25v1h-25zM676,562h19v1h-19zM726,562h19v1h-19zM295,563h19v1h-19zM345,563h19v1h-19zM388,563h41v1h-41zM443,563h26v1h-26zM572,563h25v1h-25zM676,563h19v1h-19zM726,563h19v1h-19zM295,564h19v1h-19zM345,564h19v1h-19zM386,564h44v1h-44zM444,564h26v1h-26zM571,564h26v1h-26zM676,564h19v1h-19zM726,564h19v1h-19zM295,565h19v1h-19zM345,565h19v1h-19zM385,565h46v1h-46zM444,565h27v1h-27zM569,565h27v1h-27zM676,565h19v1h-19zM726,565h19v1h-19zM295,566h19v1h-19zM345,566h19v1h-19zM384,566h48v1h-48zM445,566h27v1h-27zM568,566h27v1h-27zM676,566h19v1h-19zM726,566h19v1h-19zM295,567h19v1h-19zM345,567h19v1h-19zM383,567h50v1h-50zM446,567h28v1h-28zM567,567h27v1h-27zM676,567h19v1h-19zM726,567h19v1h-19zM295,568h19v1h-19zM345,568h19v1h-19zM382,568h52v1h-52zM447,568h28v1h-28zM565,568h28v1h-28zM676,568h19v1h-19zM726,568h19v1h-19zM295,569h19v1h-19zM344,569h19v1h-19zM381,569h54v1h-54zM448,569h29v1h-29zM564,569h28v1h-28zM676,569h19v1h-19zM726,569h19v1h-19zM296,570h19v1h-19zM344,570h19v1h-19zM380,570h55v1h-55zM449,570h29v1h-29zM562,570h29v1h-29zM676,570h19v1h-19zM726,570h19v1h-19zM296,571h19v1h-19zM344,571h19v1h-19zM379,571h57v1h-57zM450,571h30v1h-30zM561,571h29v1h-29zM676,571h19v1h-19zM726,571h19v1h-19zM296,572h19v1h-19zM343,572h20v1h-20zM378,572h59v1h-59zM451,572h30v1h-30zM559,572h30v1h-30zM676,572h19v1h-19zM726,572h19v1h-19zM296,573h20v1h-20zM343,573h20v1h-20zM377,573h60v1h-60zM452,573h31v1h-31zM557,573h31v1h-31zM676,573h19v1h-19zM726,573h19v1h-19zM296,574h20v1h-20zM342,574h21v1h-21zM376,574h62v1h-62zM453,574h32v1h-32zM555,574h32v1h-32zM676,574h19v1h-19zM726,574h19v1h-19zM297,575h20v1h-20zM342,575h20v1h-20zM375,575h30v1h-30zM412,575h27v1h-27zM454,575h33v1h-33zM553,575h33v1h-33zM676,575h19v1h-19zM726,575h19v1h-19zM297,576h21v1h-21zM341,576h21v1h-21zM374,576h28v1h-28zM415,576h24v1h-24zM455,576h34v1h-34zM551,576h34v1h-34zM676,576h19v1h-19zM726,576h19v1h-19zM297,577h22v1h-22zM340,577h22v1h-22zM373,577h27v1h-27zM416,577h23v1h-23zM456,577h36v1h-36zM549,577h35v1h-35zM676,577h19v1h-19zM726,577h19v1h-19zM298,578h22v1h-22zM339,578h22v1h-22zM372,578h27v1h-27zM418,578h22v1h-22zM457,578h38v1h-38zM546,578h37v1h-37zM676,578h19v1h-19zM726,578h19v1h-19zM298,579h24v1h-24zM337,579h24v1h-24zM371,579h26v1h-26zM419,579h21v1h-21zM458,579h40v1h-40zM543,579h39v1h-39zM676,579h19v1h-19zM726,579h19v1h-19zM299,580h25v1h-25zM336,580h25v1h-25zM370,580h26v1h-26zM420,580h21v1h-21zM460,580h41v1h-41zM539,580h41v1h-41zM676,580h19v1h-19zM726,580h19v1h-19zM299,581h28v1h-28zM332,581h28v1h-28zM369,581h26v1h-26zM420,581h21v1h-21zM461,581h45v1h-45zM535,581h44v1h-44zM676,581h19v1h-19zM726,581h19v1h-19zM300,582h60v1h-60zM368,582h26v1h-26zM421,582h20v1h-20zM462,582h51v1h-51zM527,582h51v1h-51zM676,582h19v1h-19zM726,582h19v1h-19zM300,583h59v1h-59zM367,583h26v1h-26zM422,583h19v1h-19zM464,583h112v1h-112zM676,583h19v1h-19zM726,583h19v1h-19zM301,584h57v1h-57zM366,584h26v1h-26zM422,584h20v1h-20zM465,584h110v1h-110zM676,584h19v1h-19zM726,584h19v1h-19zM301,585h57v1h-57zM365,585h26v1h-26zM422,585h20v1h-20zM467,585h107v1h-107zM676,585h19v1h-19zM726,585h19v1h-19zM302,586h55v1h-55zM364,586h26v1h-26zM423,586h19v1h-19zM468,586h104v1h-104zM676,586h19v1h-19zM726,586h19v1h-19zM303,587h53v1h-53zM363,587h26v1h-26zM423,587h19v1h-19zM470,587h100v1h-100zM676,587h19v1h-19zM726,587h19v1h-19zM304,588h51v1h-51zM362,588h26v1h-26zM423,588h19v1h-19zM472,588h97v1h-97zM676,588h19v1h-19zM726,588h19v1h-19zM305,589h49v1h-49zM361,589h26v1h-26zM423,589h19v1h-19zM473,589h94v1h-94zM676,589h19v1h-19zM726,589h19v1h-19zM306,590h48v1h-48zM360,590h26v1h-26zM423,590h19v1h-19zM475,590h90v1h-90zM676,590h19v1h-19zM726,590h19v1h-19zM307,591h45v1h-45zM359,591h26v1h-26zM423,591h19v1h-19zM477,591h86v1h-86zM676,591h19v1h-19zM726,591h19v1h-19zM308,592h43v1h-43zM358,592h27v1h-27zM423,592h19v1h-19zM479,592h82v1h-82zM676,592h19v1h-19zM726,592h19v1h-19zM309,593h41v1h-41zM357,593h27v1h-27zM423,593h19v1h-19zM481,593h78v1h-78zM676,593h19v1h-19zM726,593h19v1h-19zM310,594h39v1h-39zM356,594h27v1h-27zM423,594h19v1h-19zM484,594h73v1h-73zM676,594h19v1h-19zM726,594h18v1h-18zM312,595h35v1h-35zM355,595h27v1h-27zM422,595h20v1h-20zM486,595h68v1h-68zM676,595h19v1h-19zM726,595h18v1h-18zM314,596h31v1h-31zM354,596h27v1h-27zM422,596h19v1h-19zM489,596h62v1h-62zM676,596h19v1h-19zM726,596h18v1h-18zM316,597h27v1h-27zM353,597h27v1h-27zM421,597h20v1h-20zM492,597h56v1h-56zM675,597h20v1h-20zM726,597h18v1h-18zM318,598h23v1h-23zM352,598h27v1h-27zM421,598h20v1h-20zM496,598h48v1h-48zM675,598h20v1h-20zM726,598h18v1h-18zM322,599h15v1h-15zM351,599h27v1h-27zM420,599h21v1h-21zM500,599h40v1h-40zM675,599h19v1h-19zM725,599h19v1h-19zM350,600h27v1h-27zM420,600h21v1h-21zM506,600h29v1h-29zM674,600h20v1h-20zM725,600h19v1h-19zM349,601h27v1h-27zM419,601h21v1h-21zM515,601h11v1h-11zM673,601h21v1h-21zM725,601h19v1h-19zM348,602h27v1h-27zM418,602h22v1h-22zM673,602h21v1h-21zM725,602h19v1h-19zM347,603h27v1h-27zM417,603h22v1h-22zM672,603h21v1h-21zM725,603h19v1h-19zM346,604h27v1h-27zM416,604h23v1h-23zM671,604h22v1h-22zM725,604h19v1h-19zM345,605h27v1h-27zM415,605h24v1h-24zM670,605h23v1h-23zM725,605h18v1h-18zM344,606h27v1h-27zM414,606h24v1h-24zM669,606h23v1h-23zM724,606h19v1h-19zM343,607h27v1h-27zM413,607h25v1h-25zM667,607h25v1h-25zM724,607h19v1h-19zM342,608h27v1h-27zM412,608h25v1h-25zM665,608h26v1h-26zM724,608h19v1h-19zM341,609h27v1h-27zM411,609h26v1h-26zM449,609h242v1h-242zM724,609h19v1h-19zM340,610h27v1h-27zM410,610h280v1h-280zM723,610h19v1h-19zM339,611h27v1h-27zM409,611h280v1h-280zM723,611h19v1h-19zM338,612h27v1h-27zM408,612h281v1h-281zM723,612h19v1h-19zM337,613h27v1h-27zM407,613h281v1h-281zM722,613h20v1h-20zM336,614h27v1h-27zM406,614h281v1h-281zM722,614h20v1h-20zM335,615h27v1h-27zM405,615h281v1h-281zM722,615h19v1h-19zM334,616h27v1h-27zM404,616h282v1h-282zM721,616h20v1h-20zM333,617h27v1h-27zM403,617h282v1h-282zM721,617h20v1h-20zM332,618h27v1h-27zM402,618h282v1h-282zM721,618h19v1h-19zM331,619h27v1h-27zM401,619h281v1h-281zM720,619h20v1h-20zM330,620h27v1h-27zM400,620h281v1h-281zM720,620h20v1h-20zM329,621h27v1h-27zM399,621h281v1h-281zM719,621h20v1h-20zM329,622h26v1h-26zM398,622h281v1h-281zM719,622h20v1h-20zM328,623h26v1h-26zM397,623h280v1h-280zM718,623h21v1h-21zM327,624h26v1h-26zM396,624h279v1h-279zM718,624h20v1h-20zM326,625h26v1h-26zM395,625h278v1h-278zM717,625h21v1h-21zM326,626h25v1h-25zM394,626h277v1h-277zM716,626h21v1h-21zM325,627h25v1h-25zM393,627h274v1h-274zM716,627h21v1h-21zM325,628h24v1h-24zM715,628h21v1h-21zM324,629h24v1h-24zM714,629h22v1h-22zM324,630h23v1h-23zM714,630h21v1h-21zM323,631h23v1h-23zM713,631h22v1h-22zM323,632h22v1h-22zM712,632h22v1h-22zM323,633h21v1h-21zM712,633h22v1h-22zM322,634h21v1h-21zM711,634h22v1h-22zM322,635h20v1h-20zM710,635h23v1h-23zM322,636h20v1h-20zM709,636h23v1h-23zM322,637h19v1h-19zM708,637h24v1h-24zM322,638h19v1h-19zM707,638h24v1h-24zM321,639h20v1h-20zM706,639h24v1h-24zM321,640h19v1h-19zM705,640h24v1h-24zM321,641h19v1h-19zM704,641h25v1h-25zM321,642h19v1h-19zM703,642h25v1h-25zM321,643h19v1h-19zM702,643h25v1h-25zM321,644h19v1h-19zM701,644h26v1h-26zM321,645h19v1h-19zM699,645h27v1h-27zM321,646h19v1h-19zM698,646h27v1h-27zM321,647h20v1h-20zM697,647h27v1h-27zM322,648h19v1h-19zM695,648h28v1h-28zM322,649h19v1h-19zM693,649h29v1h-29zM322,650h20v1h-20zM692,650h29v1h-29zM322,651h21v1h-21zM690,651h31v1h-31zM323,652h20v1h-20zM688,652h31v1h-31zM323,653h21v1h-21zM686,653h32v1h-32zM323,654h22v1h-22zM684,654h33v1h-33zM324,655h22v1h-22zM681,655h35v1h-35zM324,656h23v1h-23zM678,656h37v1h-37zM324,657h24v1h-24zM675,657h39v1h-39zM325,658h24v1h-24zM669,658h44v1h-44zM325,659h25v1h-25zM393,659h319v1h-319zM326,660h25v1h-25zM394,660h316v1h-316zM327,661h25v1h-25zM395,661h314v1h-314zM327,662h26v1h-26zM396,662h312v1h-312zM328,663h26v1h-26zM397,663h309v1h-309zM329,664h26v1h-26zM398,664h307v1h-307zM330,665h26v1h-26zM399,665h304v1h-304zM331,666h26v1h-26zM400,666h302v1h-302zM332,667h26v1h-26zM401,667h299v1h-299zM333,668h26v1h-26zM402,668h296v1h-296zM334,669h26v1h-26zM403,669h293v1h-293zM335,670h26v1h-26zM404,670h290v1h-290zM336,671h26v1h-26zM405,671h287v1h-287zM337,672h26v1h-26zM406,672h283v1h-283zM338,673h26v1h-26zM407,673h280v1h-280zM339,674h26v1h-26zM408,674h276v1h-276zM340,675h26v1h-26zM409,675h271v1h-271zM341,676h26v1h-26zM410,676h265v1h-265zM342,677h26v1h-26zM411,677h258v1h-258zM343,678h26v1h-26zM412,678h25v1h-25zM344,679h26v1h-26zM413,679h25v1h-25zM345,680h26v1h-26zM414,680h24v1h-24zM346,681h26v1h-26zM415,681h24v1h-24zM347,682h26v1h-26zM417,682h22v1h-22zM348,683h26v1h-26zM418,683h22v1h-22zM349,684h26v1h-26zM419,684h21v1h-21zM350,685h26v1h-26zM420,685h20v1h-20zM351,686h26v1h-26zM420,686h21v1h-21zM352,687h26v1h-26zM421,687h20v1h-20zM353,688h26v1h-26zM422,688h19v1h-19zM354,689h26v1h-26zM422,689h19v1h-19zM355,690h26v1h-26zM422,690h20v1h-20zM356,691h26v1h-26zM423,691h19v1h-19zM357,692h26v1h-26zM423,692h19v1h-19zM358,693h26v1h-26zM423,693h19v1h-19zM359,694h26v1h-26zM423,694h19v1h-19zM360,695h26v1h-26zM423,695h19v1h-19zM361,696h26v1h-26zM423,696h19v1h-19zM362,697h26v1h-26zM423,697h19v1h-19zM363,698h26v1h-26zM423,698h19v1h-19zM364,699h26v1h-26zM423,699h19v1h-19zM365,700h26v1h-26zM423,700h19v1h-19zM366,701h26v1h-26zM422,701h20v1h-20zM367,702h26v1h-26zM422,702h20v1h-20zM368,703h26v1h-26zM422,703h19v1h-19zM369,704h26v1h-26zM421,704h20v1h-20zM370,705h26v1h-26zM420,705h21v1h-21zM371,706h26v1h-26zM419,706h21v1h-21zM372,707h26v1h-26zM418,707h22v1h-22zM373,708h27v1h-27zM417,708h23v1h-23zM374,709h27v1h-27zM415,709h24v1h-24zM375,710h29v1h-29zM413,710h26v1h-26zM376,711h62v1h-62zM377,712h61v1h-61zM378,713h59v1h-59zM379,714h58v1h-58zM380,715h56v1h-56zM381,716h54v1h-54zM382,717h52v1h-52zM383,718h51v1h-51zM384,719h49v1h-49zM385,720h47v1h-47zM386,721h45v1h-45zM387,722h42v1h-42zM389,723h39v1h-39zM390,724h37v1h-37zM392,725h33v1h-33zM393,726h30v1h-30zM396,727h25v1h-25zM399,728h19v1h-19zM404,729h9v1h-9z" fill="#000"/>
</svg>