<?xml version="1.0" encoding="UTF-8"?>
<svg xmlns="http://www.w3.org/2000/svg" width="512" height="512" viewBox="0 0 512 512">
<path d="M241,0h30v1h-30zM228,1h56v1h-56zM220,2h72v1h-72zM214,3h84v1h-84zM208,4h96v1h-96zM203,5h106v1h-106zM199,6h114v1h-114zM194,7h124v1h-124zM190,8h132v1h-132zM187,9h138v1h-138zM183,10h146v1h-146zM180,11h152v1h-152zM177,12h158v1h-158zM174,13h164v1h-164zM171,14h170v1h-170zM168,15h176v1h-176zM166,16h180v1h-180zM163,17h186v1h-186zM160,18h192v1h-192zM158,19h196v1h-196zM156,20h200v1h-200zM153,21h206v1h-206zM151,22h210v1h-210zM149,23h214v1h-214zM147,24h218v1h-218zM145,25h222v1h-222zM143,26h226v1h-226zM141,27h230v1h-230zM139,28h234v1h-234zM137,29h238v1h-238zM135,30h242v1h-242zM133,31h246v1h-246zM131,32h250v1h-250zM129,33h254v1h-254zM128,34h256v1h-256zM126,35h260v1h-260zM124,36h264v1h-264zM123,37h266v1h-266zM121,38h270v1h-270zM119,39h274v1h-274zM118,40h276v1h-276zM116,41h126v1h-126zM270,41h126v1h-126zM115,42h116v1h-116zM281,42h116v1h-116zM113,43h110v1h-110zM289,43h110v1h-110zM112,44h105v1h-105zM295,44h105v1h-105zM110,45h102v1h-102zM300,45h102v1h-102zM109,46h99v1h-99zM304,46h99v1h-99zM108,47h95v1h-95zM309,47h95v1h-95zM106,48h94v1h-94zM312,48h94v1h-94zM105,49h91v1h-91zM316,49h91v1h-91zM103,50h90v1h-90zM319,50h90v1h-90zM102,51h88v1h-88zM322,51h88v1h-88zM101,52h86v1h-86zM325,52h86v1h-86zM99,53h85v1h-85zM328,53h85v1h-85zM98,54h83v1h-83zM331,54h83v1h-83zM97,55h81v1h-81zM334,55h81v1h-81zM96,56h80v1h-80zM336,56h80v1h-80zM94,57h79v1h-79zM339,57h79v1h-79zM93,58h78v1h-78zM341,58h78v1h-78zM92,59h77v1h-77zM343,59h77v1h-77zM91,60h76v1h-76zM345,60h76v1h-76zM90,61h74v1h-74zM348,61h74v1h-74zM88,62h74v1h-74zM350,62h74v1h-74zM87,63h73v1h-73zM352,63h73v1h-73zM86,64h72v1h-72zM354,64h72v1h-72zM85,65h71v1h-71zM356,65h71v1h-71zM84,66h70v1h-70zM358,66h70v1h-70zM83,67h70v1h-70zM359,67h70v1h-70zM82,68h69v1h-69zM361,68h69v1h-69zM81,69h68v1h-68zM363,69h68v1h-68zM80,70h67v1h-67zM365,70h67v1h-67zM79,71h67v1h-67zM366,71h67v1h-67zM78,72h66v1h-66zM368,72h66v1h-66zM77,73h65v1h-65zM370,73h65v1h-65zM75,74h66v1h-66zM371,74h66v1h-66zM74,75h65v1h-65zM373,75h65v1h-65zM74,76h64v1h-64zM374,76h64v1h-64zM73,77h63v1h-63zM376,77h63v1h-63zM72,78h63v1h-63zM377,78h63v1h-63zM71,79h63v1h-63zM378,79h63v1h-63zM70,80h62v1h-62zM380,80h62v1h-62zM69,81h62v1h-62zM381,81h62v1h-62zM68,82h61v1h-61zM383,82h61v1h-61zM67,83h61v1h-61zM384,83h61v1h-61zM66,84h61v1h-61zM385,84h61v1h-61zM65,85h60v1h-60zM387,85h60v1h-60zM64,86h60v1h-60zM388,86h60v1h-60zM63,87h60v1h-60zM389,87h60v1h-60zM62,88h59v1h-59zM391,88h59v1h-59zM62,89h58v1h-58zM392,89h58v1h-58zM61,90h58v1h-58zM393,90h58v1h-58zM60,91h58v1h-58zM394,91h58v1h-58zM59,92h58v1h-58zM395,92h58v1h-58zM58,93h58v1h-58zM396,93h58v1h-58zM57,94h57v1h-57zM398,94h57v1h-57zM57,95h56v1h-56zM399,95h56v1h-56zM56,96h56v1h-56zM400,96h56v1h-56zM55,97h56v1h-56zM401,97h56v1h-56zM54,98h56v1h-56zM402,98h56v1h-56zM53,99h56v1h-56zM403,99h56v1h-56zM53,100h55v1h-55zM404,100h55v1h-55zM52,101h55v1h-55zM405,101h55v1h-55zM51,102h55v1h-55zM406,102h55v1h-55zM50,103h55v1h-55zM407,103h55v1h-55zM50,104h54v1h-54zM408,104h54v1h-54zM49,105h54v1h-54zM409,105h54v1h-54zM48,106h54v1h-54zM410,106h54v1h-54zM48,107h53v1h-53zM411,107h53v1h-53zM47,108h53v1h-53zM412,108h53v1h-53zM46,109h53v1h-53zM413,109h53v1h-53zM45,110h53v1h-53zM414,110h53v1h-53zM45,111h52v1h-52zM415,111h52v1h-52zM44,112h52v1h-52zM416,112h52v1h-52zM43,113h52v1h-52zM417,113h52v1h-52zM43,114h51v1h-51zM418,114h51v1h-51zM42,115h52v1h-52zM418,115h52v1h-52zM41,116h52v1h-52zM419,116h52v1h-52zM41,117h51v1h-51zM420,117h51v1h-51zM40,118h51v1h-51zM421,118h51v1h-51zM39,119h51v1h-51zM422,119h51v1h-51zM39,120h50v1h-50zM423,120h50v1h-50zM38,121h50v1h-50zM424,121h50v1h-50zM38,122h50v1h-50zM424,122h50v1h-50zM37,123h50v1h-50zM425,123h50v1h-50zM36,124h50v1h-50zM426,124h50v1h-50zM36,125h49v1h-49zM427,125h49v1h-49zM35,126h50v1h-50zM427,126h50v1h-50zM35,127h49v1h-49zM428,127h49v1h-49zM34,128h49v1h-49zM429,128h49v1h-49zM33,129h49v1h-49zM430,129h49v1h-49zM33,130h49v1h-49zM430,130h49v1h-49zM32,131h49v1h-49zM203,131h10v1h-10zM306,131h10v1h-10zM431,131h49v1h-49zM32,132h48v1h-48zM200,132h17v1h-17zM302,132h17v1h-17zM432,132h48v1h-48zM31,133h49v1h-49zM198,133h21v1h-21zM300,133h22v1h-22zM432,133h49v1h-49zM31,134h48v1h-48zM196,134h25v1h-25zM298,134h26v1h-26zM433,134h48v1h-48zM30,135h48v1h-48zM194,135h29v1h-29zM296,135h29v1h-29zM434,135h48v1h-48zM30,136h47v1h-47zM193,136h31v1h-31zM295,136h31v1h-31zM435,136h47v1h-47zM29,137h48v1h-48zM192,137h33v1h-33zM294,137h34v1h-34zM435,137h48v1h-48zM29,138h47v1h-47zM190,138h36v1h-36zM293,138h36v1h-36zM436,138h47v1h-47zM28,139h47v1h-47zM189,139h38v1h-38zM292,139h38v1h-38zM437,139h47v1h-47zM28,140h47v1h-47zM189,140h39v1h-39zM291,140h40v1h-40zM437,140h47v1h-47zM27,141h47v1h-47zM188,141h41v1h-41zM290,141h41v1h-41zM438,141h47v1h-47zM27,142h46v1h-46zM187,142h43v1h-43zM289,142h43v1h-43zM439,142h46v1h-46zM26,143h47v1h-47zM187,143h43v1h-43zM289,143h44v1h-44zM439,143h47v1h-47zM26,144h46v1h-46zM186,144h45v1h-45zM288,144h45v1h-45zM440,144h46v1h-46zM25,145h47v1h-47zM185,145h46v1h-46zM288,145h46v1h-46zM440,145h47v1h-47zM25,146h46v1h-46zM185,146h47v1h-47zM287,146h47v1h-47zM441,146h46v1h-46zM24,147h46v1h-46zM185,147h47v1h-47zM287,147h48v1h-48zM442,147h46v1h-46zM24,148h46v1h-46zM184,148h49v1h-49zM287,148h48v1h-48zM442,148h46v1h-46zM23,149h46v1h-46zM184,149h49v1h-49zM286,149h49v1h-49zM443,149h46v1h-46zM23,150h46v1h-46zM184,150h49v1h-49zM286,150h50v1h-50zM443,150h46v1h-46zM22,151h46v1h-46zM183,151h50v1h-50zM286,151h50v1h-50zM444,151h46v1h-46zM22,152h46v1h-46zM183,152h51v1h-51zM286,152h50v1h-50zM444,152h46v1h-46zM21,153h46v1h-46zM183,153h51v1h-51zM286,153h50v1h-50zM445,153h46v1h-46zM21,154h45v1h-45zM183,154h51v1h-51zM285,154h51v1h-51zM446,154h45v1h-45zM21,155h45v1h-45zM183,155h51v1h-51zM285,155h51v1h-51zM446,155h45v1h-45zM20,156h45v1h-45zM183,156h51v1h-51zM285,156h51v1h-51zM447,156h45v1h-45zM20,157h45v1h-45zM183,157h51v1h-51zM285,157h51v1h-51zM447,157h45v1h-45zM19,158h45v1h-45zM183,158h51v1h-51zM285,158h51v1h-51zM448,158h45v1h-45zM19,159h45v1h-45zM183,159h51v1h-51zM285,159h51v1h-51zM448,159h45v1h-45zM18,160h45v1h-45zM183,160h51v1h-51zM285,160h51v1h-51zM449,160h45v1h-45zM18,161h45v1h-45zM183,161h51v1h-51zM285,161h51v1h-51zM449,161h45v1h-45zM18,162h44v1h-44zM183,162h51v1h-51zM285,162h51v1h-51zM450,162h44v1h-44zM17,163h45v1h-45zM183,163h51v1h-51zM285,163h51v1h-51zM450,163h45v1h-45zM17,164h44v1h-44zM183,164h51v1h-51zM285,164h51v1h-51zM451,164h44v1h-44zM17,165h44v1h-44zM183,165h51v1h-51zM285,165h51v1h-51zM451,165h44v1h-44zM16,166h45v1h-45zM183,166h51v1h-51zM285,166h51v1h-51zM451,166h45v1h-45zM16,167h44v1h-44zM183,167h51v1h-51zM285,167h51v1h-51zM452,167h44v1h-44zM15,168h45v1h-45zM183,168h51v1h-51zM285,168h51v1h-51zM452,168h45v1h-45zM15,169h44v1h-44zM183,169h51v1h-51zM285,169h51v1h-51zM453,169h44v1h-44zM15,170h44v1h-44zM183,170h51v1h-51zM285,170h51v1h-51zM453,170h44v1h-44zM14,171h44v1h-44zM183,171h51v1h-51zM285,171h51v1h-51zM454,171h44v1h-44zM14,172h44v1h-44zM183,172h51v1h-51zM285,172h51v1h-51zM454,172h44v1h-44zM14,173h43v1h-43zM183,173h51v1h-51zM285,173h51v1h-51zM455,173h43v1h-43zM13,174h44v1h-44zM183,174h51v1h-51zM285,174h51v1h-51zM455,174h44v1h-44zM13,175h44v1h-44zM183,175h51v1h-51zM285,175h51v1h-51zM455,175h44v1h-44zM13,176h43v1h-43zM183,176h51v1h-51zM285,176h51v1h-51zM456,176h43v1h-43zM12,177h44v1h-44zM183,177h51v1h-51zM285,177h51v1h-51zM456,177h44v1h-44zM12,178h43v1h-43zM183,178h51v1h-51zM285,178h51v1h-51zM457,178h43v1h-43zM12,179h43v1h-43zM183,179h51v1h-51zM285,179h51v1h-51zM457,179h43v1h-43zM11,180h44v1h-44zM183,180h51v1h-51zM285,180h51v1h-51zM457,180h44v1h-44zM11,181h43v1h-43zM183,181h51v1h-51zM285,181h51v1h-51zM458,181h43v1h-43zM11,182h43v1h-43zM183,182h51v1h-51zM285,182h51v1h-51zM458,182h43v1h-43zM10,183h44v1h-44zM183,183h51v1h-51zM285,183h51v1h-51zM458,183h44v1h-44zM10,184h43v1h-43zM183,184h51v1h-51zM285,184h51v1h-51zM459,184h43v1h-43zM10,185h43v1h-43zM183,185h51v1h-51zM285,185h51v1h-51zM459,185h43v1h-43zM10,186h43v1h-43zM183,186h51v1h-51zM285,186h51v1h-51zM459,186h43v1h-43zM9,187h43v1h-43zM183,187h51v1h-51zM285,187h51v1h-51zM460,187h43v1h-43zM9,188h43v1h-43zM183,188h51v1h-51zM285,188h51v1h-51zM460,188h43v1h-43zM9,189h43v1h-43zM183,189h51v1h-51zM285,189h51v1h-51zM460,189h43v1h-43zM8,190h43v1h-43zM183,190h51v1h-51zM285,190h51v1h-51zM461,190h43v1h-43zM8,191h43v1h-43zM183,191h51v1h-51zM285,191h51v1h-51zM461,191h43v1h-43zM8,192h43v1h-43zM183,192h51v1h-51zM285,192h51v1h-51zM461,192h43v1h-43zM8,193h42v1h-42zM183,193h51v1h-51zM285,193h51v1h-51zM462,193h42v1h-42zM7,194h43v1h-43zM183,194h51v1h-51zM285,194h51v1h-51zM462,194h43v1h-43zM7,195h43v1h-43zM183,195h51v1h-51zM285,195h51v1h-51zM462,195h43v1h-43zM7,196h42v1h-42zM183,196h51v1h-51zM285,196h51v1h-51zM463,196h42v1h-42zM7,197h42v1h-42zM183,197h51v1h-51zM285,197h51v1h-51zM463,197h42v1h-42zM7,198h42v1h-42zM183,198h51v1h-51zM285,198h51v1h-51zM463,198h42v1h-42zM6,199h43v1h-43zM183,199h51v1h-51zM285,199h51v1h-51zM463,199h43v1h-43zM6,200h42v1h-42zM183,200h51v1h-51zM285,200h51v1h-51zM464,200h42v1h-42zM6,201h42v1h-42zM183,201h51v1h-51zM285,201h51v1h-51zM464,201h42v1h-42zM6,202h42v1h-42zM183,202h51v1h-51zM285,202h51v1h-51zM464,202h42v1h-42zM5,203h42v1h-42zM183,203h51v1h-51zM285,203h51v1h-51zM465,203h42v1h-42zM5,204h42v1h-42zM183,204h51v1h-51zM285,204h51v1h-51zM465,204h42v1h-42zM5,205h42v1h-42zM183,205h51v1h-51zM285,205h51v1h-51zM465,205h42v1h-42zM5,206h42v1h-42zM183,206h51v1h-51zM285,206h51v1h-51zM465,206h42v1h-42zM5,207h42v1h-42zM183,207h51v1h-51zM285,207h51v1h-51zM465,207h42v1h-42zM4,208h42v1h-42zM183,208h51v1h-51zM285,208h51v1h-51zM466,208h42v1h-42zM4,209h42v1h-42zM183,209h51v1h-51zM285,209h51v1h-51zM466,209h42v1h-42zM4,210h42v1h-42zM183,210h51v1h-51zM285,210h51v1h-51zM466,210h42v1h-42zM4,211h42v1h-42zM183,211h51v1h-51zM285,211h51v1h-51zM466,211h42v1h-42zM4,212h41v1h-41zM183,212h51v1h-51zM285,212h51v1h-51zM467,212h41v1h-41zM4,213h41v1h-41zM183,213h51v1h-51zM285,213h51v1h-51zM467,213h41v1h-41zM3,214h42v1h-42zM183,214h51v1h-51zM285,214h51v1h-51zM467,214h42v1h-42zM3,215h42v1h-42zM183,215h51v1h-51zM285,215h51v1h-51zM467,215h42v1h-42zM3,216h42v1h-42zM183,216h51v1h-51zM285,216h51v1h-51zM467,216h42v1h-42zM3,217h41v1h-41zM183,217h51v1h-51zM285,217h51v1h-51zM468,217h41v1h-41zM3,218h41v1h-41zM183,218h51v1h-51zM285,218h51v1h-51zM468,218h41v1h-41zM3,219h41v1h-41zM183,219h51v1h-51zM285,219h51v1h-51zM468,219h41v1h-41zM2,220h42v1h-42zM183,220h51v1h-51zM285,220h51v1h-51zM468,220h42v1h-42zM2,221h42v1h-42zM183,221h51v1h-51zM285,221h51v1h-51zM468,221h42v1h-42zM2,222h42v1h-42zM183,222h51v1h-51zM285,222h51v1h-51zM468,222h42v1h-42zM2,223h41v1h-41zM183,223h51v1h-51zM285,223h51v1h-51zM469,223h41v1h-41zM2,224h41v1h-41zM183,224h51v1h-51zM285,224h51v1h-51zM469,224h41v1h-41zM2,225h41v1h-41zM183,225h51v1h-51zM285,225h51v1h-51zM469,225h41v1h-41zM2,226h41v1h-41zM183,226h51v1h-51zM285,226h51v1h-51zM469,226h41v1h-41zM2,227h41v1h-41zM183,227h51v1h-51zM285,227h51v1h-51zM469,227h41v1h-41zM1,228h42v1h-42zM183,228h51v1h-51zM285,228h51v1h-51zM469,228h42v1h-42zM1,229h42v1h-42zM183,229h51v1h-51zM285,229h51v1h-51zM469,229h42v1h-42zM1,230h42v1h-42zM183,230h51v1h-51zM285,230h51v1h-51zM469,230h42v1h-42zM1,231h41v1h-41zM183,231h51v1h-51zM285,231h51v1h-51zM470,231h41v1h-41zM1,232h41v1h-41zM183,232h51v1h-51zM285,232h51v1h-51zM470,232h41v1h-41zM1,233h41v1h-41zM183,233h51v1h-51zM285,233h51v1h-51zM470,233h41v1h-41zM1,234h41v1h-41zM183,234h51v1h-51zM285,234h51v1h-51zM470,234h41v1h-41zM1,235h41v1h-41zM183,235h51v1h-51zM285,235h51v1h-51zM470,235h41v1h-41zM1,236h41v1h-41zM183,236h51v1h-51zM285,236h51v1h-51zM470,236h41v1h-41zM1,237h41v1h-41zM183,237h51v1h-51zM285,237h51v1h-51zM470,237h41v1h-41zM1,238h41v1h-41zM183,238h51v1h-51zM285,238h51v1h-51zM470,238h41v1h-41zM1,239h41v1h-41zM183,239h51v1h-51zM285,239h51v1h-51zM470,239h41v1h-41zM1,240h41v1h-41zM183,240h51v1h-51zM285,240h51v1h-51zM470,240h41v1h-41zM0,241h42v1h-42zM183,241h51v1h-51zM285,241h51v1h-51zM470,241h42v1h-42zM0,242h41v1h-41zM183,242h51v1h-51zM285,242h51v1h-51zM471,242h41v1h-41zM0,243h41v1h-41zM183,243h51v1h-51zM285,243h51v1h-51zM471,243h41v1h-41zM0,244h41v1h-41zM183,244h51v1h-51zM285,244h51v1h-51zM471,244h41v1h-41zM0,245h41v1h-41zM183,245h51v1h-51zM285,245h51v1h-51zM471,245h41v1h-41zM0,246h41v1h-41zM183,246h51v1h-51zM285,246h51v1h-51zM471,246h41v1h-41zM0,247h41v1h-41zM183,247h51v1h-51zM285,247h51v1h-51zM471,247h41v1h-41zM0,248h41v1h-41zM183,248h51v1h-51zM285,248h51v1h-51zM471,248h41v1h-41zM0,249h41v1h-41zM183,249h51v1h-51zM285,249h51v1h-51zM471,249h41v1h-41zM0,250h41v1h-41zM183,250h51v1h-51zM285,250h51v1h-51zM471,250h41v1h-41zM0,251h41v1h-41zM183,251h51v1h-51zM285,251h51v1h-51zM471,251h41v1h-41zM0,252h41v1h-41zM183,252h51v1h-51zM285,252h51v1h-51zM471,252h41v1h-41zM0,253h41v1h-41zM183,253h51v1h-51zM285,253h51v1h-51zM471,253h41v1h-41zM0,254h41v1h-41zM183,254h51v1h-51zM285,254h51v1h-51zM471,254h41v1h-41zM0,255h41v1h-41zM183,255h51v1h-51zM285,255h51v1h-51zM471,255h41v1h-41zM0,256h41v1h-41zM183,256h51v1h-51zM285,256h51v1h-51zM471,256h41v1h-41zM0,257h41v1h-41zM183,257h51v1h-51zM285,257h51v1h-51zM471,257h41v1h-41zM0,258h41v1h-41zM183,258h51v1h-51zM285,258h51v1h-51zM471,258h41v1h-41zM0,259h41v1h-41zM183,259h51v1h-51zM285,259h51v1h-51zM471,259h41v1h-41zM0,260h41v1h-41zM183,260h51v1h-51zM285,260h51v1h-51zM471,260h41v1h-41zM0,261h41v1h-41zM183,261h51v1h-51zM285,261h51v1h-51zM471,261h41v1h-41zM0,262h41v1h-41zM183,262h51v1h-51zM285,262h51v1h-51zM471,262h41v1h-41zM0,263h41v1h-41zM183,263h51v1h-51zM285,263h51v1h-51zM471,263h41v1h-41zM0,264h41v1h-41zM183,264h51v1h-51zM285,264h51v1h-51zM471,264h41v1h-41zM0,265h41v1h-41zM183,265h51v1h-51zM285,265h51v1h-51zM471,265h41v1h-41zM0,266h41v1h-41zM183,266h51v1h-51zM285,266h51v1h-51zM471,266h41v1h-41zM0,267h41v1h-41zM183,267h51v1h-51zM285,267h51v1h-51zM471,267h41v1h-41zM0,268h41v1h-41zM183,268h51v1h-51zM285,268h51v1h-51zM471,268h41v1h-41zM0,269h41v1h-41zM183,269h51v1h-51zM285,269h51v1h-51zM471,269h41v1h-41zM0,270h42v1h-42zM183,270h51v1h-51zM285,270h51v1h-51zM470,270h42v1h-42zM1,271h41v1h-41zM183,271h51v1h-51zM285,271h51v1h-51zM470,271h41v1h-41zM1,272h41v1h-41zM183,272h51v1h-51zM285,272h51v1h-51zM470,272h41v1h-41zM1,273h41v1h-41zM183,273h51v1h-51zM285,273h51v1h-51zM470,273h41v1h-41zM1,274h41v1h-41zM183,274h51v1h-51zM285,274h51v1h-51zM470,274h41v1h-41zM1,275h41v1h-41zM183,275h51v1h-51zM285,275h51v1h-51zM470,275h41v1h-41zM1,276h41v1h-41zM183,276h51v1h-51zM285,276h51v1h-51zM470,276h41v1h-41zM1,277h41v1h-41zM183,277h51v1h-51zM285,277h51v1h-51zM470,277h41v1h-41zM1,278h41v1h-41zM183,278h51v1h-51zM285,278h51v1h-51zM470,278h41v1h-41zM1,279h41v1h-41zM183,279h51v1h-51zM285,279h51v1h-51zM470,279h41v1h-41zM1,280h41v1h-41zM183,280h51v1h-51zM285,280h51v1h-51zM470,280h41v1h-41zM1,281h42v1h-42zM183,281h51v1h-51zM285,281h51v1h-51zM469,281h42v1h-42zM1,282h42v1h-42zM183,282h51v1h-51zM285,282h51v1h-51zM469,282h42v1h-42zM1,283h42v1h-42zM183,283h51v1h-51zM285,283h51v1h-51zM469,283h42v1h-42zM2,284h41v1h-41zM183,284h51v1h-51zM285,284h51v1h-51zM469,284h41v1h-41zM2,285h41v1h-41zM183,285h51v1h-51zM285,285h51v1h-51zM469,285h41v1h-41zM2,286h41v1h-41zM183,286h51v1h-51zM285,286h51v1h-51zM469,286h41v1h-41zM2,287h41v1h-41zM183,287h51v1h-51zM285,287h51v1h-51zM469,287h41v1h-41zM2,288h41v1h-41zM183,288h51v1h-51zM285,288h51v1h-51zM469,288h41v1h-41zM2,289h42v1h-42zM183,289h51v1h-51zM285,289h51v1h-51zM468,289h42v1h-42zM2,290h42v1h-42zM183,290h51v1h-51zM285,290h51v1h-51zM468,290h42v1h-42zM2,291h42v1h-42zM183,291h51v1h-51zM285,291h51v1h-51zM468,291h42v1h-42zM3,292h41v1h-41zM183,292h51v1h-51zM285,292h51v1h-51zM468,292h41v1h-41zM3,293h41v1h-41zM183,293h51v1h-51zM285,293h51v1h-51zM468,293h41v1h-41zM3,294h41v1h-41zM183,294h51v1h-51zM285,294h51v1h-51zM468,294h41v1h-41zM3,295h42v1h-42zM183,295h51v1h-51zM285,295h51v1h-51zM467,295h42v1h-42zM3,296h42v1h-42zM183,296h51v1h-51zM285,296h51v1h-51zM467,296h42v1h-42zM3,297h42v1h-42zM183,297h51v1h-51zM285,297h51v1h-51zM467,297h42v1h-42zM4,298h41v1h-41zM183,298h51v1h-51zM285,298h51v1h-51zM467,298h41v1h-41zM4,299h41v1h-41zM183,299h51v1h-51zM285,299h51v1h-51zM467,299h41v1h-41zM4,300h42v1h-42zM183,300h51v1h-51zM285,300h51v1h-51zM466,300h42v1h-42zM4,301h42v1h-42zM183,301h51v1h-51zM285,301h51v1h-51zM466,301h42v1h-42zM4,302h42v1h-42zM183,302h51v1h-51zM285,302h51v1h-51zM466,302h42v1h-42zM4,303h42v1h-42zM183,303h51v1h-51zM285,303h51v1h-51zM466,303h42v1h-42zM5,304h42v1h-42zM183,304h51v1h-51zM285,304h51v1h-51zM465,304h42v1h-42zM5,305h42v1h-42zM183,305h51v1h-51zM285,305h51v1h-51zM465,305h42v1h-42zM5,306h42v1h-42zM183,306h51v1h-51zM285,306h51v1h-51zM465,306h42v1h-42zM5,307h42v1h-42zM183,307h51v1h-51zM285,307h51v1h-51zM465,307h42v1h-42zM5,308h42v1h-42zM183,308h51v1h-51zM285,308h51v1h-51zM465,308h42v1h-42zM6,309h42v1h-42zM183,309h51v1h-51zM285,309h51v1h-51zM464,309h42v1h-42zM6,310h42v1h-42zM183,310h51v1h-51zM285,310h51v1h-51zM464,310h42v1h-42zM6,311h42v1h-42zM183,311h51v1h-51zM285,311h51v1h-51zM464,311h42v1h-42zM6,312h43v1h-43zM183,312h51v1h-51zM285,312h51v1h-51zM463,312h43v1h-43zM7,313h42v1h-42zM183,313h51v1h-51zM285,313h51v1h-51zM463,313h42v1h-42zM7,314h42v1h-42zM183,314h51v1h-51zM285,314h51v1h-51zM463,314h42v1h-42zM7,315h42v1h-42zM183,315h51v1h-51zM285,315h51v1h-51zM463,315h42v1h-42zM7,316h43v1h-43zM183,316h51v1h-51zM285,316h51v1h-51zM462,316h43v1h-43zM7,317h43v1h-43zM183,317h51v1h-51zM285,317h51v1h-51zM462,317h43v1h-43zM8,318h42v1h-42zM183,318h51v1h-51zM285,318h51v1h-51zM462,318h42v1h-42zM8,319h43v1h-43zM183,319h51v1h-51zM285,319h51v1h-51zM461,319h43v1h-43zM8,320h43v1h-43zM183,320h51v1h-51zM285,320h51v1h-51zM461,320h43v1h-43zM8,321h43v1h-43zM183,321h51v1h-51zM285,321h51v1h-51zM461,321h43v1h-43zM9,322h43v1h-43zM183,322h51v1h-51zM285,322h51v1h-51zM460,322h43v1h-43zM9,323h43v1h-43zM183,323h51v1h-51zM285,323h51v1h-51zM460,323h43v1h-43zM9,324h43v1h-43zM183,324h51v1h-51zM285,324h51v1h-51zM460,324h43v1h-43zM10,325h43v1h-43zM183,325h51v1h-51zM285,325h51v1h-51zM459,325h43v1h-43zM10,326h43v1h-43zM183,326h51v1h-51zM285,326h51v1h-51zM459,326h43v1h-43zM10,327h43v1h-43zM183,327h51v1h-51zM285,327h51v1h-51zM459,327h43v1h-43zM10,328h44v1h-44zM183,328h51v1h-51zM285,328h51v1h-51zM458,328h44v1h-44zM11,329h43v1h-43zM183,329h51v1h-51zM285,329h51v1h-51zM458,329h43v1h-43zM11,330h43v1h-43zM183,330h51v1h-51zM285,330h51v1h-51zM458,330h43v1h-43zM11,331h44v1h-44zM183,331h51v1h-51zM285,331h51v1h-51zM457,331h44v1h-44zM12,332h43v1h-43zM183,332h51v1h-51zM285,332h51v1h-51zM457,332h43v1h-43zM12,333h43v1h-43zM183,333h51v1h-51zM285,333h51v1h-51zM457,333h43v1h-43zM12,334h44v1h-44zM183,334h51v1h-51zM285,334h51v1h-51zM456,334h44v1h-44zM13,335h43v1h-43zM183,335h51v1h-51zM285,335h51v1h-51zM456,335h43v1h-43zM13,336h44v1h-44zM183,336h51v1h-51zM285,336h51v1h-51zM455,336h44v1h-44zM13,337h44v1h-44zM183,337h51v1h-51zM285,337h51v1h-51zM455,337h44v1h-44zM14,338h43v1h-43zM183,338h51v1h-51zM285,338h51v1h-51zM455,338h43v1h-43zM14,339h44v1h-44zM183,339h51v1h-51zM285,339h51v1h-51zM454,339h44v1h-44zM14,340h44v1h-44zM183,340h51v1h-51zM285,340h51v1h-51zM454,340h44v1h-44zM15,341h44v1h-44zM183,341h51v1h-51zM285,341h51v1h-51zM453,341h44v1h-44zM15,342h44v1h-44zM183,342h51v1h-51zM285,342h51v1h-51zM453,342h44v1h-44zM15,343h45v1h-45zM183,343h51v1h-51zM285,343h51v1h-51zM452,343h45v1h-45zM16,344h44v1h-44zM183,344h51v1h-51zM285,344h51v1h-51zM452,344h44v1h-44zM16,345h45v1h-45zM183,345h51v1h-51zM285,345h51v1h-51zM451,345h45v1h-45zM17,346h44v1h-44zM183,346h51v1h-51zM285,346h51v1h-51zM451,346h44v1h-44zM17,347h44v1h-44zM183,347h51v1h-51zM285,347h51v1h-51zM451,347h44v1h-44zM17,348h45v1h-45zM183,348h51v1h-51zM285,348h51v1h-51zM450,348h45v1h-45zM18,349h44v1h-44zM183,349h51v1h-51zM285,349h51v1h-51zM450,349h44v1h-44zM18,350h45v1h-45zM183,350h51v1h-51zM285,350h51v1h-51zM449,350h45v1h-45zM18,351h45v1h-45zM183,351h51v1h-51zM285,351h51v1h-51zM449,351h45v1h-45zM19,352h45v1h-45zM183,352h51v1h-51zM285,352h51v1h-51zM448,352h45v1h-45zM19,353h45v1h-45zM183,353h51v1h-51zM285,353h51v1h-51zM448,353h45v1h-45zM20,354h45v1h-45zM183,354h51v1h-51zM286,354h50v1h-50zM447,354h45v1h-45zM20,355h45v1h-45zM183,355h51v1h-51zM286,355h50v1h-50zM447,355h45v1h-45zM21,356h45v1h-45zM183,356h50v1h-50zM286,356h50v1h-50zM446,356h45v1h-45zM21,357h46v1h-46zM184,357h49v1h-49zM286,357h50v1h-50zM446,357h45v1h-45zM21,358h46v1h-46zM184,358h49v1h-49zM286,358h49v1h-49zM445,358h46v1h-46zM22,359h46v1h-46zM184,359h49v1h-49zM287,359h48v1h-48zM444,359h46v1h-46zM22,360h46v1h-46zM185,360h47v1h-47zM287,360h48v1h-48zM444,360h46v1h-46zM23,361h46v1h-46zM185,361h47v1h-47zM287,361h47v1h-47zM443,361h46v1h-46zM23,362h46v1h-46zM186,362h45v1h-45zM288,362h46v1h-46zM443,362h46v1h-46zM24,363h46v1h-46zM186,363h45v1h-45zM289,363h44v1h-44zM442,363h46v1h-46zM24,364h46v1h-46zM187,364h43v1h-43zM289,364h44v1h-44zM442,364h46v1h-46zM25,365h46v1h-46zM187,365h43v1h-43zM290,365h42v1h-42zM441,365h46v1h-46zM25,366h47v1h-47zM188,366h41v1h-41zM290,366h41v1h-41zM440,366h47v1h-47zM26,367h46v1h-46zM189,367h39v1h-39zM291,367h39v1h-39zM440,367h46v1h-46zM26,368h47v1h-47zM190,368h37v1h-37zM292,368h38v1h-38zM439,368h47v1h-47zM27,369h46v1h-46zM191,369h35v1h-35zM293,369h36v1h-36zM439,369h46v1h-46zM27,370h47v1h-47zM192,370h33v1h-33zM294,370h33v1h-33zM438,370h47v1h-47zM28,371h47v1h-47zM193,371h31v1h-31zM295,371h31v1h-31zM437,371h47v1h-47zM28,372h47v1h-47zM194,372h29v1h-29zM297,372h28v1h-28zM437,372h47v1h-47zM29,373h47v1h-47zM196,373h25v1h-25zM299,373h24v1h-24zM436,373h47v1h-47zM29,374h48v1h-48zM198,374h21v1h-21zM300,374h21v1h-21zM435,374h48v1h-48zM30,375h47v1h-47zM201,375h15v1h-15zM303,375h15v1h-15zM435,375h47v1h-47zM30,376h48v1h-48zM206,376h5v1h-5zM308,376h5v1h-5zM434,376h48v1h-48zM31,377h48v1h-48zM433,377h48v1h-48zM31,378h49v1h-49zM432,378h49v1h-49zM32,379h48v1h-48zM432,379h48v1h-48zM32,380h49v1h-49zM431,380h49v1h-49zM33,381h49v1h-49zM430,381h49v1h-49zM33,382h49v1h-49zM430,382h49v1h-49zM34,383h49v1h-49zM429,383h49v1h-49zM35,384h49v1h-49zM428,384h49v1h-49zM35,385h50v1h-50zM427,385h50v1h-50zM36,386h49v1h-49zM427,386h49v1h-49zM36,387h50v1h-50zM426,387h50v1h-50zM37,388h50v1h-50zM425,388h50v1h-50zM38,389h50v1h-50zM424,389h50v1h-50zM38,390h50v1h-50zM424,390h50v1h-50zM39,391h50v1h-50zM423,391h50v1h-50zM39,392h51v1h-51zM422,392h51v1h-51zM40,393h51v1h-51zM421,393h51v1h-51zM41,394h51v1h-51zM420,394h51v1h-51zM41,395h52v1h-52zM419,395h52v1h-52zM42,396h52v1h-52zM418,396h52v1h-52zM43,397h51v1h-51zM418,397h51v1h-51zM43,398h52v1h-52zM417,398h52v1h-52zM44,399h52v1h-52zM416,399h52v1h-52zM45,400h52v1h-52zM415,400h52v1h-52zM45,401h53v1h-53zM414,401h53v1h-53zM46,402h53v1h-53zM413,402h53v1h-53zM47,403h53v1h-53zM412,403h53v1h-53zM48,404h53v1h-53zM411,404h53v1h-53zM48,405h54v1h-54zM410,405h54v1h-54zM49,406h54v1h-54zM409,406h54v1h-54zM50,407h54v1h-54zM408,407h54v1h-54zM50,408h55v1h-55zM407,408h55v1h-55zM51,409h55v1h-55zM406,409h55v1h-55zM52,410h55v1h-55zM405,410h55v1h-55zM53,411h55v1h-55zM404,411h55v1h-55zM53,412h56v1h-56zM403,412h56v1h-56zM54,413h56v1h-56zM402,413h56v1h-56zM55,414h56v1h-56zM401,414h56v1h-56zM56,415h56v1h-56zM400,415h56v1h-56zM57,416h56v1h-56zM399,416h56v1h-56zM57,417h57v1h-57zM398,417h57v1h-57zM58,418h58v1h-58zM396,418h58v1h-58zM59,419h58v1h-58zM395,419h58v1h-58zM60,420h58v1h-58zM394,420h58v1h-58zM61,421h58v1h-58zM393,421h58v1h-58zM62,422h58v1h-58zM392,422h58v1h-58zM62,423h59v1h-59zM391,423h59v1h-59zM63,424h60v1h-60zM389,424h60v1h-60zM64,425h60v1h-60zM388,425h60v1h-60zM65,426h60v1h-60zM387,426h60v1h-60zM66,427h61v1h-61zM385,427h61v1h-61zM67,428h61v1h-61zM384,428h61v1h-61zM68,429h61v1h-61zM383,429h61v1h-61zM69,430h62v1h-62zM381,430h62v1h-62zM70,431h62v1h-62zM380,431h62v1h-62zM71,432h63v1h-63zM378,432h63v1h-63zM72,433h63v1h-63zM377,433h63v1h-63zM73,434h63v1h-63zM376,434h63v1h-63zM74,435h64v1h-64zM374,435h64v1h-64zM74,436h65v1h-65zM373,436h65v1h-65zM75,437h66v1h-66zM371,437h66v1h-66zM77,438h65v1h-65zM370,438h65v1h-65zM78,439h66v1h-66zM368,439h66v1h-66zM79,440h67v1h-67zM366,440h67v1h-67zM80,441h67v1h-67zM365,441h67v1h-67zM81,442h68v1h-68zM363,442h68v1h-68zM82,443h69v1h-69zM361,443h69v1h-69zM83,444h70v1h-70zM359,444h70v1h-70zM84,445h71v1h-71zM357,445h71v1h-71zM85,446h71v1h-71zM356,446h71v1h-71zM86,447h72v1h-72zM354,447h72v1h-72zM87,448h73v1h-73zM352,448h73v1h-73zM88,449h74v1h-74zM350,449h74v1h-74zM90,450h74v1h-74zM348,450h74v1h-74zM91,451h76v1h-76zM345,451h76v1h-76zM92,452h77v1h-77zM343,452h77v1h-77zM93,453h78v1h-78zM341,453h78v1h-78zM94,454h79v1h-79zM339,454h79v1h-79zM96,455h80v1h-80zM336,455h80v1h-80zM97,456h81v1h-81zM334,456h81v1h-81zM98,457h83v1h-83zM331,457h83v1h-83zM99,458h85v1h-85zM328,458h85v1h-85zM101,459h86v1h-86zM325,459h86v1h-86zM102,460h88v1h-88zM322,460h88v1h-88zM103,461h90v1h-90zM319,461h90v1h-90zM105,462h91v1h-91zM316,462h91v1h-91zM106,463h94v1h-94zM312,463h94v1h-94zM108,464h95v1h-95zM309,464h95v1h-95zM109,465h99v1h-99zM304,465h99v1h-99zM110,466h102v1h-102zM300,466h102v1h-102zM112,467h105v1h-105zM295,467h105v1h-105zM113,468h110v1h-110zM289,468h110v1h-110zM115,469h116v1h-116zM281,469h116v1h-116zM116,470h126v1h-126zM270,470h126v1h-126zM118,471h276v1h-276zM119,472h274v1h-274zM121,473h270v1h-270zM123,474h266v1h-266zM124,475h264v1h-264zM126,476h260v1h-260zM128,477h256v1h-256zM129,478h254v1h-254zM131,479h250v1h-250zM133,480h246v1h-246zM135,481h242v1h-242zM137,482h238v1h-238zM139,483h234v1h-234zM141,484h230v1h-230zM143,485h226v1h-226zM145,486h222v1h-222zM147,487h218v1h-218zM149,488h214v1h-214zM151,489h210v1h-210zM153,490h206v1h-206zM156,491h200v1h-200zM158,492h196v1h-196zM160,493h192v1h-192zM163,494h186v1h-186zM166,495h180v1h-180zM168,496h176v1h-176zM171,497h170v1h-170zM174,498h164v1h-164zM177,499h158v1h-158zM180,500h152v1h-152zM183,501h146v1h-146zM187,502h138v1h-138zM190,503h132v1h-132zM194,504h124v1h-124zM199,505h114v1h-114zM203,506h106v1h-106zM208,507h96v1h-96zM214,508h84v1h-84zM220,509h72v1h-72zM228,510h56v1h-56zM241,511h30v1h-30z" fill="#000"/>
</svg>