<?xml version="1.0" encoding="UTF-8"?>
<svg xmlns="http://www.w3.org/2000/svg" width="512" height="512" viewBox="0 0 512 512">
<path d="M190,51h132v1h-132zM183,52h146v1h-146zM178,53h156v1h-156zM175,54h162v1h-162zM172,55h168v1h-168zM170,56h172v1h-172zM168,57h176v1h-176zM166,58h180v1h-180zM164,59h184v1h-184zM162,60h188v1h-188zM161,61h190v1h-190zM159,62h194v1h-194zM158,63h196v1h-196zM157,64h198v1h-198zM155,65h202v1h-202zM154,66h204v1h-204zM153,67h206v1h-206zM152,68h208v1h-208zM151,69h210v1h-210zM150,70h212v1h-212zM149,71h214v1h-214zM148,72h216v1h-216zM148,73h216v1h-216zM147,74h218v1h-218zM146,75h220v1h-220zM145,76h222v1h-222zM144,77h224v1h-224zM144,78h224v1h-224zM143,79h226v1h-226zM142,80h228v1h-228zM142,81h228v1h-228zM141,82h230v1h-230zM140,83h232v1h-232zM140,84h232v1h-232zM139,85h234v1h-234zM138,86h236v1h-236zM138,87h236v1h-236zM137,88h238v1h-238zM136,89h240v1h-240zM136,90h240v1h-240zM135,91h242v1h-242zM134,92h244v1h-244zM134,93h244v1h-244zM133,94h246v1h-246zM132,95h248v1h-248zM132,96h248v1h-248zM131,97h250v1h-250zM130,98h252v1h-252zM130,99h252v1h-252zM129,100h254v1h-254zM129,101h254v1h-254zM128,102h256v1h-256zM127,103h258v1h-258zM127,104h258v1h-258zM126,105h260v1h-260zM125,106h262v1h-262zM125,107h262v1h-262zM124,108h264v1h-264zM123,109h266v1h-266zM123,110h266v1h-266zM122,111h268v1h-268zM121,112h270v1h-270zM121,113h270v1h-270zM120,114h272v1h-272zM119,115h274v1h-274zM119,116h274v1h-274zM118,117h276v1h-276zM117,118h278v1h-278zM117,119h278v1h-278zM116,120h280v1h-280zM115,121h282v1h-282zM60,122h392v1h-392zM50,123h412v1h-412zM46,124h420v1h-420zM42,125h428v1h-428zM39,126h434v1h-434zM37,127h438v1h-438zM35,128h442v1h-442zM33,129h446v1h-446zM31,130h450v1h-450zM29,131h454v1h-454zM28,132h456v1h-456zM26,133h460v1h-460zM25,134h462v1h-462zM23,135h228v1h-228zM261,135h228v1h-228zM22,136h216v1h-216zM274,136h216v1h-216zM21,137h211v1h-211zM280,137h211v1h-211zM20,138h206v1h-206zM286,138h206v1h-206zM19,139h203v1h-203zM290,139h203v1h-203zM18,140h200v1h-200zM293,140h201v1h-201zM17,141h198v1h-198zM297,141h198v1h-198zM16,142h196v1h-196zM300,142h196v1h-196zM15,143h194v1h-194zM303,143h194v1h-194zM14,144h192v1h-192zM305,144h193v1h-193zM13,145h191v1h-191zM308,145h191v1h-191zM13,146h188v1h-188zM311,146h188v1h-188zM12,147h187v1h-187zM313,147h187v1h-187zM11,148h186v1h-186zM315,148h186v1h-186zM10,149h185v1h-185zM317,149h185v1h-185zM10,150h183v1h-183zM319,150h183v1h-183zM9,151h182v1h-182zM321,151h182v1h-182zM9,152h180v1h-180zM323,152h180v1h-180zM8,153h179v1h-179zM324,153h180v1h-180zM7,154h179v1h-179zM326,154h179v1h-179zM7,155h177v1h-177zM328,155h177v1h-177zM6,156h176v1h-176zM329,156h177v1h-177zM6,157h175v1h-175zM331,157h175v1h-175zM5,158h174v1h-174zM333,158h174v1h-174zM5,159h173v1h-173zM334,159h173v1h-173zM5,160h171v1h-171zM335,160h172v1h-172zM4,161h171v1h-171zM337,161h171v1h-171zM4,162h170v1h-170zM338,162h170v1h-170zM3,163h169v1h-169zM339,163h170v1h-170zM3,164h168v1h-168zM341,164h168v1h-168zM3,165h167v1h-167zM342,165h167v1h-167zM2,166h166v1h-166zM343,166h167v1h-167zM2,167h165v1h-165zM345,167h165v1h-165zM2,168h164v1h-164zM346,168h164v1h-164zM2,169h163v1h-163zM347,169h163v1h-163zM1,170h163v1h-163zM348,170h163v1h-163zM1,171h162v1h-162zM349,171h162v1h-162zM1,172h161v1h-161zM350,172h161v1h-161zM1,173h159v1h-159zM351,173h63v1h-63zM448,173h63v1h-63zM1,174h158v1h-158zM352,174h59v1h-59zM450,174h61v1h-61zM1,175h157v1h-157zM353,175h56v1h-56zM452,175h59v1h-59zM0,176h157v1h-157zM354,176h54v1h-54zM453,176h59v1h-59zM0,177h156v1h-156zM355,177h52v1h-52zM454,177h58v1h-58zM0,178h156v1h-156zM356,178h50v1h-50zM455,178h57v1h-57zM0,179h155v1h-155zM357,179h48v1h-48zM456,179h56v1h-56zM0,180h154v1h-154zM358,180h46v1h-46zM457,180h55v1h-55zM0,181h153v1h-153zM359,181h45v1h-45zM457,181h55v1h-55zM0,182h152v1h-152zM360,182h43v1h-43zM458,182h54v1h-54zM0,183h151v1h-151zM361,183h42v1h-42zM458,183h54v1h-54zM0,184h150v1h-150zM362,184h40v1h-40zM459,184h53v1h-53zM0,185h149v1h-149zM363,185h39v1h-39zM459,185h53v1h-53zM0,186h148v1h-148zM363,186h39v1h-39zM459,186h53v1h-53zM0,187h148v1h-148zM364,187h38v1h-38zM459,187h53v1h-53zM0,188h147v1h-147zM365,188h36v1h-36zM459,188h53v1h-53zM0,189h146v1h-146zM366,189h35v1h-35zM460,189h52v1h-52zM0,190h145v1h-145zM366,190h35v1h-35zM460,190h52v1h-52zM0,191h145v1h-145zM367,191h34v1h-34zM460,191h52v1h-52zM0,192h144v1h-144zM368,192h33v1h-33zM460,192h52v1h-52zM0,193h143v1h-143zM369,193h32v1h-32zM459,193h53v1h-53zM0,194h142v1h-142zM369,194h33v1h-33zM459,194h53v1h-53zM0,195h142v1h-142zM370,195h32v1h-32zM459,195h53v1h-53zM0,196h141v1h-141zM255,196h2v1h-2zM371,196h31v1h-31zM459,196h53v1h-53zM0,197h140v1h-140zM244,197h24v1h-24zM371,197h32v1h-32zM458,197h54v1h-54zM0,198h140v1h-140zM239,198h34v1h-34zM372,198h31v1h-31zM458,198h54v1h-54zM0,199h139v1h-139zM235,199h42v1h-42zM373,199h31v1h-31zM458,199h54v1h-54zM0,200h139v1h-139zM232,200h49v1h-49zM373,200h31v1h-31zM457,200h55v1h-55zM0,201h138v1h-138zM229,201h54v1h-54zM374,201h31v1h-31zM456,201h56v1h-56zM0,202h137v1h-137zM226,202h60v1h-60zM374,202h32v1h-32zM456,202h56v1h-56zM0,203h137v1h-137zM224,203h64v1h-64zM375,203h32v1h-32zM455,203h57v1h-57zM0,204h136v1h-136zM222,204h68v1h-68zM376,204h32v1h-32zM453,204h59v1h-59zM0,205h136v1h-136zM220,205h72v1h-72zM376,205h33v1h-33zM452,205h60v1h-60zM0,206h135v1h-135zM218,206h76v1h-76zM377,206h34v1h-34zM451,206h61v1h-61zM0,207h134v1h-134zM217,207h79v1h-79zM377,207h36v1h-36zM448,207h64v1h-64zM0,208h134v1h-134zM215,208h82v1h-82zM378,208h39v1h-39zM444,208h68v1h-68zM0,209h133v1h-133zM213,209h86v1h-86zM378,209h134v1h-134zM0,210h133v1h-133zM212,210h88v1h-88zM379,210h133v1h-133zM0,211h132v1h-132zM211,211h91v1h-91zM379,211h133v1h-133zM0,212h132v1h-132zM209,212h94v1h-94zM380,212h132v1h-132zM0,213h131v1h-131zM208,213h96v1h-96zM380,213h132v1h-132zM0,214h131v1h-131zM207,214h99v1h-99zM381,214h131v1h-131zM0,215h131v1h-131zM206,215h101v1h-101zM381,215h131v1h-131zM0,216h130v1h-130zM204,216h104v1h-104zM382,216h130v1h-130zM0,217h130v1h-130zM203,217h106v1h-106zM382,217h130v1h-130zM0,218h129v1h-129zM202,218h108v1h-108zM383,218h129v1h-129zM0,219h129v1h-129zM201,219h110v1h-110zM383,219h129v1h-129zM0,220h128v1h-128zM200,220h112v1h-112zM384,220h128v1h-128zM0,221h128v1h-128zM199,221h114v1h-114zM384,221h128v1h-128zM0,222h128v1h-128zM199,222h115v1h-115zM384,222h128v1h-128zM0,223h127v1h-127zM198,223h117v1h-117zM385,223h127v1h-127zM0,224h127v1h-127zM197,224h119v1h-119zM385,224h127v1h-127zM0,225h126v1h-126zM196,225h120v1h-120zM385,225h127v1h-127zM0,226h126v1h-126zM195,226h122v1h-122zM386,226h126v1h-126zM0,227h126v1h-126zM194,227h124v1h-124zM386,227h126v1h-126zM0,228h125v1h-125zM194,228h125v1h-125zM386,228h126v1h-126zM0,229h125v1h-125zM193,229h126v1h-126zM387,229h125v1h-125zM0,230h125v1h-125zM192,230h128v1h-128zM387,230h125v1h-125zM0,231h124v1h-124zM192,231h129v1h-129zM388,231h124v1h-124zM0,232h124v1h-124zM191,232h130v1h-130zM388,232h124v1h-124zM0,233h124v1h-124zM190,233h132v1h-132zM388,233h124v1h-124zM0,234h123v1h-123zM190,234h132v1h-132zM388,234h124v1h-124zM0,235h123v1h-123zM189,235h134v1h-134zM389,235h123v1h-123zM0,236h123v1h-123zM189,236h135v1h-135zM389,236h123v1h-123zM0,237h123v1h-123zM188,237h136v1h-136zM389,237h123v1h-123zM0,238h122v1h-122zM188,238h137v1h-137zM389,238h123v1h-123zM0,239h122v1h-122zM187,239h138v1h-138zM390,239h122v1h-122zM0,240h122v1h-122zM187,240h139v1h-139zM390,240h122v1h-122zM0,241h122v1h-122zM186,241h140v1h-140zM390,241h122v1h-122zM0,242h121v1h-121zM186,242h141v1h-141zM390,242h122v1h-122zM0,243h121v1h-121zM185,243h142v1h-142zM391,243h121v1h-121zM0,244h121v1h-121zM185,244h142v1h-142zM391,244h121v1h-121zM0,245h121v1h-121zM184,245h144v1h-144zM391,245h121v1h-121zM0,246h121v1h-121zM184,246h144v1h-144zM391,246h121v1h-121zM0,247h120v1h-120zM184,247h144v1h-144zM392,247h120v1h-120zM0,248h120v1h-120zM183,248h146v1h-146zM392,248h120v1h-120zM0,249h120v1h-120zM183,249h146v1h-146zM392,249h120v1h-120zM0,250h120v1h-120zM183,250h146v1h-146zM392,250h120v1h-120zM0,251h120v1h-120zM182,251h148v1h-148zM392,251h120v1h-120zM0,252h120v1h-120zM182,252h148v1h-148zM392,252h120v1h-120zM0,253h119v1h-119zM182,253h148v1h-148zM392,253h120v1h-120zM0,254h119v1h-119zM182,254h149v1h-149zM393,254h119v1h-119zM0,255h119v1h-119zM181,255h150v1h-150zM393,255h119v1h-119zM0,256h119v1h-119zM181,256h150v1h-150zM393,256h119v1h-119zM0,257h119v1h-119zM181,257h150v1h-150zM393,257h119v1h-119zM0,258h119v1h-119zM181,258h150v1h-150zM393,258h119v1h-119zM0,259h119v1h-119zM180,259h152v1h-152zM393,259h119v1h-119zM0,260h119v1h-119zM180,260h152v1h-152zM393,260h119v1h-119zM0,261h119v1h-119zM180,261h152v1h-152zM393,261h119v1h-119zM0,262h118v1h-118zM180,262h152v1h-152zM393,262h119v1h-119zM0,263h118v1h-118zM180,263h152v1h-152zM394,263h118v1h-118zM0,264h118v1h-118zM180,264h152v1h-152zM394,264h118v1h-118zM0,265h118v1h-118zM180,265h152v1h-152zM394,265h118v1h-118zM0,266h118v1h-118zM180,266h152v1h-152zM394,266h118v1h-118zM0,267h118v1h-118zM179,267h154v1h-154zM394,267h118v1h-118zM0,268h118v1h-118zM179,268h154v1h-154zM394,268h118v1h-118zM0,269h118v1h-118zM179,269h154v1h-154zM394,269h118v1h-118zM0,270h118v1h-118zM179,270h154v1h-154zM394,270h118v1h-118zM0,271h118v1h-118zM179,271h154v1h-154zM394,271h118v1h-118zM0,272h118v1h-118zM179,272h154v1h-154zM394,272h118v1h-118zM0,273h118v1h-118zM179,273h154v1h-154zM394,273h118v1h-118zM0,274h118v1h-118zM179,274h154v1h-154zM394,274h118v1h-118zM0,275h118v1h-118zM179,275h154v1h-154zM394,275h118v1h-118zM0,276h118v1h-118zM179,276h154v1h-154zM394,276h118v1h-118zM0,277h118v1h-118zM179,277h154v1h-154zM394,277h118v1h-118zM0,278h118v1h-118zM179,278h154v1h-154zM394,278h118v1h-118zM0,279h118v1h-118zM180,279h152v1h-152zM394,279h118v1h-118zM0,280h118v1h-118zM180,280h152v1h-152zM394,280h118v1h-118zM0,281h118v1h-118zM180,281h152v1h-152zM394,281h118v1h-118zM0,282h118v1h-118zM180,282h152v1h-152zM394,282h118v1h-118zM0,283h119v1h-119zM180,283h152v1h-152zM394,283h118v1h-118zM0,284h119v1h-119zM180,284h152v1h-152zM393,284h119v1h-119zM0,285h119v1h-119zM180,285h152v1h-152zM393,285h119v1h-119zM0,286h119v1h-119zM180,286h151v1h-151zM393,286h119v1h-119zM0,287h119v1h-119zM181,287h150v1h-150zM393,287h119v1h-119zM0,288h119v1h-119zM181,288h150v1h-150zM393,288h119v1h-119zM0,289h119v1h-119zM181,289h150v1h-150zM393,289h119v1h-119zM0,290h119v1h-119zM181,290h150v1h-150zM393,290h119v1h-119zM0,291h119v1h-119zM181,291h149v1h-149zM393,291h119v1h-119zM0,292h120v1h-120zM182,292h148v1h-148zM393,292h119v1h-119zM0,293h120v1h-120zM182,293h148v1h-148zM392,293h120v1h-120zM0,294h120v1h-120zM182,294h148v1h-148zM392,294h120v1h-120zM0,295h120v1h-120zM183,295h146v1h-146zM392,295h120v1h-120zM0,296h120v1h-120zM183,296h146v1h-146zM392,296h120v1h-120zM0,297h120v1h-120zM183,297h146v1h-146zM392,297h120v1h-120zM0,298h120v1h-120zM184,298h144v1h-144zM392,298h120v1h-120zM0,299h121v1h-121zM184,299h144v1h-144zM391,299h121v1h-121zM0,300h121v1h-121zM184,300h143v1h-143zM391,300h121v1h-121zM0,301h121v1h-121zM185,301h142v1h-142zM391,301h121v1h-121zM0,302h121v1h-121zM185,302h142v1h-142zM391,302h121v1h-121zM0,303h122v1h-122zM185,303h141v1h-141zM391,303h121v1h-121zM0,304h122v1h-122zM186,304h140v1h-140zM390,304h122v1h-122zM0,305h122v1h-122zM186,305h139v1h-139zM390,305h122v1h-122zM0,306h122v1h-122zM187,306h138v1h-138zM390,306h122v1h-122zM0,307h123v1h-123zM187,307h137v1h-137zM390,307h122v1h-122zM0,308h123v1h-123zM188,308h136v1h-136zM389,308h123v1h-123zM0,309h123v1h-123zM188,309h135v1h-135zM389,309h123v1h-123zM0,310h123v1h-123zM189,310h134v1h-134zM389,310h123v1h-123zM0,311h124v1h-124zM190,311h132v1h-132zM388,311h124v1h-124zM0,312h124v1h-124zM190,312h132v1h-132zM388,312h124v1h-124zM0,313h124v1h-124zM191,313h130v1h-130zM388,313h124v1h-124zM0,314h124v1h-124zM191,314h129v1h-129zM388,314h124v1h-124zM0,315h125v1h-125zM192,315h128v1h-128zM387,315h125v1h-125zM0,316h125v1h-125zM193,316h126v1h-126zM387,316h125v1h-125zM0,317h126v1h-126zM194,317h124v1h-124zM387,317h125v1h-125zM0,318h126v1h-126zM194,318h123v1h-123zM386,318h126v1h-126zM0,319h126v1h-126zM195,319h122v1h-122zM386,319h126v1h-126zM0,320h127v1h-127zM196,320h120v1h-120zM385,320h127v1h-127zM0,321h127v1h-127zM197,321h118v1h-118zM385,321h127v1h-127zM0,322h127v1h-127zM197,322h117v1h-117zM385,322h127v1h-127zM0,323h128v1h-128zM198,323h115v1h-115zM384,323h128v1h-128zM0,324h128v1h-128zM199,324h113v1h-113zM384,324h128v1h-128zM0,325h128v1h-128zM200,325h112v1h-112zM384,325h128v1h-128zM0,326h129v1h-129zM201,326h110v1h-110zM383,326h129v1h-129zM0,327h129v1h-129zM202,327h108v1h-108zM383,327h129v1h-129zM0,328h130v1h-130zM203,328h106v1h-106zM382,328h130v1h-130zM0,329h130v1h-130zM204,329h103v1h-103zM382,329h130v1h-130zM0,330h131v1h-131zM205,330h101v1h-101zM381,330h131v1h-131zM0,331h131v1h-131zM206,331h99v1h-99zM381,331h131v1h-131zM0,332h132v1h-132zM208,332h96v1h-96zM380,332h132v1h-132zM0,333h132v1h-132zM209,333h94v1h-94zM380,333h132v1h-132zM0,334h133v1h-133zM210,334h91v1h-91zM379,334h133v1h-133zM0,335h133v1h-133zM212,335h88v1h-88zM379,335h133v1h-133zM0,336h134v1h-134zM213,336h86v1h-86zM378,336h134v1h-134zM0,337h134v1h-134zM215,337h82v1h-82zM378,337h134v1h-134zM0,338h135v1h-135zM216,338h79v1h-79zM377,338h135v1h-135zM0,339h135v1h-135zM218,339h76v1h-76zM377,339h135v1h-135zM0,340h136v1h-136zM220,340h72v1h-72zM376,340h136v1h-136zM0,341h136v1h-136zM222,341h68v1h-68zM376,341h136v1h-136zM0,342h137v1h-137zM224,342h64v1h-64zM375,342h137v1h-137zM0,343h138v1h-138zM226,343h60v1h-60zM374,343h138v1h-138zM0,344h138v1h-138zM229,344h54v1h-54zM374,344h138v1h-138zM0,345h139v1h-139zM232,345h48v1h-48zM373,345h139v1h-139zM0,346h140v1h-140zM235,346h42v1h-42zM373,346h139v1h-139zM0,347h140v1h-140zM239,347h34v1h-34zM372,347h140v1h-140zM0,348h141v1h-141zM244,348h24v1h-24zM371,348h141v1h-141zM0,349h141v1h-141zM371,349h141v1h-141zM0,350h142v1h-142zM370,350h142v1h-142zM0,351h143v1h-143zM369,351h143v1h-143zM0,352h144v1h-144zM369,352h143v1h-143zM0,353h144v1h-144zM368,353h144v1h-144zM0,354h145v1h-145zM367,354h145v1h-145zM0,355h146v1h-146zM366,355h146v1h-146zM0,356h147v1h-147zM366,356h146v1h-146zM0,357h147v1h-147zM365,357h147v1h-147zM0,358h148v1h-148zM364,358h148v1h-148zM0,359h149v1h-149zM363,359h149v1h-149zM0,360h150v1h-150zM363,360h149v1h-149zM0,361h150v1h-150zM362,361h150v1h-150zM0,362h151v1h-151zM361,362h151v1h-151zM0,363h152v1h-152zM360,363h152v1h-152zM0,364h153v1h-153zM359,364h153v1h-153zM0,365h154v1h-154zM358,365h154v1h-154zM0,366h155v1h-155zM357,366h155v1h-155zM0,367h156v1h-156zM356,367h156v1h-156zM0,368h157v1h-157zM355,368h157v1h-157zM0,369h158v1h-158zM354,369h158v1h-158zM0,370h159v1h-159zM353,370h159v1h-159zM0,371h160v1h-160zM352,371h160v1h-160zM0,372h161v1h-161zM351,372h161v1h-161zM0,373h162v1h-162zM350,373h162v1h-162zM0,374h163v1h-163zM349,374h163v1h-163zM0,375h164v1h-164zM348,375h164v1h-164zM0,376h165v1h-165zM347,376h165v1h-165zM0,377h166v1h-166zM346,377h166v1h-166zM0,378h167v1h-167zM345,378h167v1h-167zM0,379h169v1h-169zM343,379h169v1h-169zM0,380h170v1h-170zM342,380h170v1h-170zM0,381h171v1h-171zM341,381h171v1h-171zM0,382h173v1h-173zM339,382h173v1h-173zM0,383h174v1h-174zM338,383h174v1h-174zM0,384h175v1h-175zM337,384h175v1h-175zM0,385h177v1h-177zM335,385h177v1h-177zM0,386h178v1h-178zM334,386h178v1h-178zM0,387h179v1h-179zM333,387h179v1h-179zM0,388h181v1h-181zM331,388h181v1h-181zM0,389h183v1h-183zM329,389h183v1h-183zM0,390h184v1h-184zM328,390h184v1h-184zM0,391h186v1h-186zM326,391h186v1h-186zM0,392h188v1h-188zM324,392h188v1h-188zM0,393h189v1h-189zM323,393h189v1h-189zM0,394h191v1h-191zM321,394h191v1h-191zM0,395h193v1h-193zM319,395h193v1h-193zM0,396h195v1h-195zM317,396h195v1h-195zM0,397h197v1h-197zM315,397h197v1h-197zM0,398h199v1h-199zM313,398h199v1h-199zM0,399h202v1h-202zM310,399h202v1h-202zM0,400h204v1h-204zM308,400h204v1h-204zM0,401h207v1h-207zM305,401h207v1h-207zM0,402h209v1h-209zM303,402h209v1h-209zM0,403h212v1h-212zM300,403h212v1h-212zM0,404h215v1h-215zM297,404h215v1h-215zM0,405h219v1h-219zM293,405h219v1h-219zM0,406h223v1h-223zM289,406h223v1h-223zM1,407h226v1h-226zM285,407h226v1h-226zM1,408h231v1h-231zM280,408h231v1h-231zM1,409h238v1h-238zM273,409h238v1h-238zM1,410h251v1h-251zM260,410h251v1h-251zM1,411h510v1h-510zM1,412h510v1h-510zM2,413h508v1h-508zM2,414h508v1h-508zM2,415h508v1h-508zM2,416h508v1h-508zM3,417h506v1h-506zM3,418h506v1h-506zM3,419h506v1h-506zM4,420h504v1h-504zM4,421h504v1h-504zM4,422h504v1h-504zM5,423h502v1h-502zM5,424h502v1h-502zM6,425h500v1h-500zM6,426h500v1h-500zM7,427h498v1h-498zM7,428h498v1h-498zM8,429h496v1h-496zM8,430h496v1h-496zM9,431h494v1h-494zM10,432h492v1h-492zM10,433h492v1h-492zM11,434h490v1h-490zM12,435h488v1h-488zM12,436h488v1h-488zM13,437h486v1h-486zM14,438h484v1h-484zM15,439h482v1h-482zM16,440h480v1h-480zM17,441h478v1h-478zM18,442h476v1h-476zM19,443h474v1h-474zM20,444h472v1h-472zM21,445h470v1h-470zM22,446h468v1h-468zM23,447h466v1h-466zM24,448h464v1h-464zM26,449h460v1h-460zM27,450h458v1h-458zM29,451h454v1h-454zM30,452h452v1h-452zM32,453h448v1h-448zM34,454h444v1h-444zM36,455h440v1h-440zM39,456h434v1h-434zM41,457h430v1h-430zM45,458h422v1h-422zM49,459h414v1h-414zM55,460h402v1h-402z" fill="#000"/>
</svg>