<?xml version="1.0" encoding="UTF-8"?>
<svg xmlns="http://www.w3.org/2000/svg" width="512" height="512" viewBox="0 0 512 512">
<path d="M41,112h281v1h-281zM33,113h297v1h-297zM29,114h305v1h-305zM26,115h310v1h-310zM24,116h315v1h-315zM22,117h319v1h-319zM20,118h323v1h-323zM19,119h325v1h-325zM17,120h329v1h-329zM16,121h331v1h-331zM15,122h333v1h-333zM14,123h335v1h-335zM13,124h337v1h-337zM12,125h339v1h-339zM11,126h341v1h-341zM10,127h343v1h-343zM9,128h345v1h-345zM8,129h347v1h-347zM8,130h347v1h-347zM7,131h349v1h-349zM6,132h351v1h-351zM6,133h351v1h-351zM5,134h353v1h-353zM5,135h353v1h-353zM4,136h355v1h-355zM4,137h355v1h-355zM3,138h357v1h-357zM3,139h357v1h-357zM510,139h2v1h-2zM2,140h358v1h-358zM508,140h4v1h-4zM2,141h359v1h-359zM507,141h5v1h-5zM2,142h359v1h-359zM505,142h7v1h-7zM2,143h359v1h-359zM503,143h9v1h-9zM1,144h361v1h-361zM501,144h11v1h-11zM1,145h361v1h-361zM499,145h13v1h-13zM1,146h361v1h-361zM497,146h15v1h-15zM1,147h361v1h-361zM495,147h17v1h-17zM0,148h362v1h-362zM493,148h19v1h-19zM0,149h76v1h-76zM85,149h278v1h-278zM491,149h21v1h-21zM0,150h71v1h-71zM91,150h272v1h-272zM489,150h23v1h-23zM0,151h67v1h-67zM94,151h269v1h-269zM487,151h25v1h-25zM0,152h64v1h-64zM97,152h266v1h-266zM485,152h27v1h-27zM0,153h62v1h-62zM99,153h264v1h-264zM483,153h29v1h-29zM0,154h60v1h-60zM101,154h262v1h-262zM481,154h31v1h-31zM0,155h59v1h-59zM103,155h260v1h-260zM479,155h33v1h-33zM0,156h57v1h-57zM105,156h258v1h-258zM477,156h35v1h-35zM0,157h56v1h-56zM106,157h257v1h-257zM475,157h37v1h-37zM0,158h54v1h-54zM107,158h256v1h-256zM473,158h39v1h-39zM0,159h53v1h-53zM108,159h255v1h-255zM471,159h41v1h-41zM0,160h52v1h-52zM110,160h253v1h-253zM469,160h43v1h-43zM0,161h51v1h-51zM111,161h252v1h-252zM467,161h45v1h-45zM0,162h50v1h-50zM112,162h251v1h-251zM465,162h47v1h-47zM0,163h49v1h-49zM74,163h14v1h-14zM113,163h250v1h-250zM463,163h49v1h-49zM0,164h48v1h-48zM70,164h21v1h-21zM113,164h250v1h-250zM461,164h51v1h-51zM0,165h47v1h-47zM68,165h25v1h-25zM114,165h249v1h-249zM459,165h53v1h-53zM0,166h46v1h-46zM66,166h29v1h-29zM115,166h248v1h-248zM457,166h55v1h-55zM0,167h46v1h-46zM64,167h33v1h-33zM116,167h247v1h-247zM455,167h57v1h-57zM0,168h45v1h-45zM63,168h35v1h-35zM116,168h247v1h-247zM453,168h59v1h-59zM0,169h44v1h-44zM62,169h38v1h-38zM117,169h246v1h-246zM451,169h61v1h-61zM0,170h44v1h-44zM61,170h40v1h-40zM118,170h245v1h-245zM449,170h63v1h-63zM0,171h43v1h-43zM60,171h42v1h-42zM118,171h245v1h-245zM447,171h65v1h-65zM0,172h43v1h-43zM59,172h44v1h-44zM119,172h244v1h-244zM445,172h67v1h-67zM0,173h42v1h-42zM58,173h46v1h-46zM119,173h244v1h-244zM443,173h69v1h-69zM0,174h42v1h-42zM57,174h47v1h-47zM120,174h243v1h-243zM441,174h71v1h-71zM0,175h41v1h-41zM56,175h49v1h-49zM120,175h243v1h-243zM439,175h73v1h-73zM0,176h41v1h-41zM56,176h50v1h-50zM121,176h242v1h-242zM438,176h74v1h-74zM0,177h41v1h-41zM55,177h51v1h-51zM121,177h242v1h-242zM436,177h76v1h-76zM0,178h40v1h-40zM55,178h52v1h-52zM121,178h242v1h-242zM434,178h78v1h-78zM0,179h40v1h-40zM54,179h53v1h-53zM122,179h241v1h-241zM432,179h80v1h-80zM0,180h40v1h-40zM54,180h54v1h-54zM122,180h241v1h-241zM430,180h82v1h-82zM0,181h39v1h-39zM53,181h55v1h-55zM122,181h241v1h-241zM428,181h84v1h-84zM0,182h39v1h-39zM53,182h55v1h-55zM122,182h241v1h-241zM426,182h86v1h-86zM0,183h39v1h-39zM53,183h56v1h-56zM123,183h240v1h-240zM424,183h88v1h-88zM0,184h39v1h-39zM52,184h57v1h-57zM123,184h240v1h-240zM422,184h90v1h-90zM0,185h38v1h-38zM52,185h57v1h-57zM123,185h240v1h-240zM420,185h92v1h-92zM0,186h38v1h-38zM52,186h58v1h-58zM123,186h240v1h-240zM418,186h94v1h-94zM0,187h38v1h-38zM52,187h58v1h-58zM123,187h240v1h-240zM416,187h96v1h-96zM0,188h38v1h-38zM52,188h58v1h-58zM123,188h240v1h-240zM414,188h98v1h-98zM0,189h38v1h-38zM51,189h59v1h-59zM123,189h240v1h-240zM412,189h100v1h-100zM0,190h38v1h-38zM51,190h59v1h-59zM123,190h240v1h-240zM410,190h102v1h-102zM0,191h38v1h-38zM51,191h59v1h-59zM123,191h240v1h-240zM408,191h104v1h-104zM0,192h38v1h-38zM51,192h59v1h-59zM123,192h240v1h-240zM406,192h106v1h-106zM0,193h38v1h-38zM51,193h59v1h-59zM123,193h240v1h-240zM404,193h108v1h-108zM0,194h38v1h-38zM51,194h59v1h-59zM123,194h240v1h-240zM402,194h110v1h-110zM0,195h38v1h-38zM52,195h58v1h-58zM123,195h240v1h-240zM400,195h112v1h-112zM0,196h38v1h-38zM52,196h58v1h-58zM123,196h240v1h-240zM398,196h114v1h-114zM0,197h38v1h-38zM52,197h58v1h-58zM123,197h240v1h-240zM396,197h116v1h-116zM0,198h38v1h-38zM52,198h57v1h-57zM123,198h240v1h-240zM394,198h118v1h-118zM0,199h39v1h-39zM52,199h57v1h-57zM123,199h240v1h-240zM392,199h120v1h-120zM0,200h39v1h-39zM53,200h56v1h-56zM123,200h240v1h-240zM390,200h122v1h-122zM0,201h39v1h-39zM53,201h55v1h-55zM122,201h241v1h-241zM388,201h124v1h-124zM0,202h39v1h-39zM53,202h55v1h-55zM122,202h241v1h-241zM386,202h126v1h-126zM0,203h40v1h-40zM54,203h54v1h-54zM122,203h241v1h-241zM384,203h128v1h-128zM0,204h40v1h-40zM54,204h53v1h-53zM122,204h241v1h-241zM382,204h130v1h-130zM0,205h40v1h-40zM55,205h52v1h-52zM121,205h242v1h-242zM380,205h132v1h-132zM0,206h41v1h-41zM55,206h51v1h-51zM121,206h242v1h-242zM378,206h134v1h-134zM0,207h41v1h-41zM56,207h50v1h-50zM120,207h243v1h-243zM377,207h135v1h-135zM0,208h41v1h-41zM56,208h49v1h-49zM120,208h243v1h-243zM376,208h136v1h-136zM0,209h42v1h-42zM57,209h47v1h-47zM120,209h243v1h-243zM376,209h136v1h-136zM0,210h42v1h-42zM58,210h46v1h-46zM119,210h244v1h-244zM376,210h136v1h-136zM0,211h43v1h-43zM59,211h44v1h-44zM119,211h244v1h-244zM376,211h136v1h-136zM0,212h43v1h-43zM60,212h42v1h-42zM118,212h245v1h-245zM376,212h136v1h-136zM0,213h44v1h-44zM61,213h40v1h-40zM118,213h245v1h-245zM376,213h136v1h-136zM0,214h44v1h-44zM62,214h38v1h-38zM117,214h246v1h-246zM376,214h136v1h-136zM0,215h45v1h-45zM63,215h35v1h-35zM116,215h247v1h-247zM376,215h136v1h-136zM0,216h46v1h-46zM64,216h33v1h-33zM116,216h247v1h-247zM376,216h136v1h-136zM0,217h46v1h-46zM66,217h29v1h-29zM115,217h248v1h-248zM376,217h136v1h-136zM0,218h47v1h-47zM68,218h25v1h-25zM114,218h249v1h-249zM376,218h136v1h-136zM0,219h48v1h-48zM70,219h21v1h-21zM113,219h250v1h-250zM376,219h136v1h-136zM0,220h49v1h-49zM74,220h14v1h-14zM112,220h251v1h-251zM376,220h136v1h-136zM0,221h50v1h-50zM112,221h251v1h-251zM376,221h136v1h-136zM0,222h51v1h-51zM111,222h252v1h-252zM376,222h136v1h-136zM0,223h52v1h-52zM110,223h253v1h-253zM376,223h136v1h-136zM0,224h53v1h-53zM108,224h255v1h-255zM376,224h136v1h-136zM0,225h54v1h-54zM107,225h256v1h-256zM376,225h136v1h-136zM0,226h56v1h-56zM106,226h257v1h-257zM376,226h136v1h-136zM0,227h57v1h-57zM104,227h259v1h-259zM376,227h136v1h-136zM0,228h59v1h-59zM103,228h260v1h-260zM376,228h136v1h-136zM0,229h60v1h-60zM101,229h262v1h-262zM376,229h136v1h-136zM0,230h62v1h-62zM99,230h264v1h-264zM376,230h136v1h-136zM0,231h64v1h-64zM97,231h266v1h-266zM376,231h136v1h-136zM0,232h67v1h-67zM94,232h269v1h-269zM376,232h136v1h-136zM0,233h71v1h-71zM91,233h272v1h-272zM376,233h136v1h-136zM0,234h76v1h-76zM85,234h278v1h-278zM376,234h136v1h-136zM0,235h363v1h-363zM376,235h136v1h-136zM0,236h363v1h-363zM376,236h136v1h-136zM0,237h363v1h-363zM376,237h136v1h-136zM0,238h363v1h-363zM376,238h136v1h-136zM0,239h363v1h-363zM376,239h136v1h-136zM0,240h363v1h-363zM376,240h136v1h-136zM0,241h363v1h-363zM376,241h136v1h-136zM0,242h363v1h-363zM376,242h136v1h-136zM0,243h363v1h-363zM376,243h136v1h-136zM0,244h363v1h-363zM376,244h136v1h-136zM0,245h363v1h-363zM376,245h136v1h-136zM0,246h363v1h-363zM376,246h136v1h-136zM0,247h363v1h-363zM376,247h136v1h-136zM0,248h363v1h-363zM376,248h136v1h-136zM0,249h363v1h-363zM376,249h136v1h-136zM0,250h363v1h-363zM376,250h136v1h-136zM0,251h363v1h-363zM376,251h136v1h-136zM0,252h363v1h-363zM376,252h136v1h-136zM0,253h363v1h-363zM376,253h136v1h-136zM0,254h363v1h-363zM376,254h136v1h-136zM0,255h363v1h-363zM376,255h136v1h-136zM0,256h363v1h-363zM376,256h136v1h-136zM0,257h363v1h-363zM376,257h136v1h-136zM0,258h363v1h-363zM376,258h136v1h-136zM0,259h363v1h-363zM376,259h136v1h-136zM0,260h363v1h-363zM376,260h136v1h-136zM0,261h363v1h-363zM376,261h136v1h-136zM0,262h363v1h-363zM376,262h136v1h-136zM0,263h363v1h-363zM376,263h136v1h-136zM0,264h363v1h-363zM376,264h136v1h-136zM0,265h363v1h-363zM376,265h136v1h-136zM0,266h363v1h-363zM376,266h136v1h-136zM0,267h363v1h-363zM376,267h136v1h-136zM0,268h363v1h-363zM376,268h136v1h-136zM0,269h363v1h-363zM376,269h136v1h-136zM0,270h363v1h-363zM376,270h136v1h-136zM0,271h363v1h-363zM376,271h136v1h-136zM0,272h363v1h-363zM376,272h136v1h-136zM0,273h363v1h-363zM376,273h136v1h-136zM0,274h363v1h-363zM376,274h136v1h-136zM0,275h363v1h-363zM376,275h136v1h-136zM0,276h363v1h-363zM376,276h136v1h-136zM0,277h363v1h-363zM376,277h136v1h-136zM0,278h363v1h-363zM376,278h136v1h-136zM0,279h363v1h-363zM376,279h136v1h-136zM0,280h363v1h-363zM376,280h136v1h-136zM0,281h363v1h-363zM376,281h136v1h-136zM0,282h363v1h-363zM376,282h136v1h-136zM0,283h363v1h-363zM376,283h136v1h-136zM0,284h363v1h-363zM376,284h136v1h-136zM0,285h363v1h-363zM376,285h136v1h-136zM0,286h363v1h-363zM376,286h136v1h-136zM0,287h363v1h-363zM376,287h136v1h-136zM0,288h363v1h-363zM377,288h135v1h-135zM0,289h363v1h-363zM379,289h133v1h-133zM0,290h363v1h-363zM380,290h132v1h-132zM0,291h363v1h-363zM382,291h130v1h-130zM0,292h363v1h-363zM384,292h128v1h-128zM0,293h363v1h-363zM385,293h127v1h-127zM0,294h363v1h-363zM387,294h125v1h-125zM0,295h363v1h-363zM388,295h124v1h-124zM0,296h363v1h-363zM390,296h122v1h-122zM0,297h363v1h-363zM392,297h120v1h-120zM0,298h363v1h-363zM393,298h119v1h-119zM0,299h363v1h-363zM395,299h117v1h-117zM0,300h363v1h-363zM396,300h116v1h-116zM0,301h363v1h-363zM398,301h114v1h-114zM0,302h363v1h-363zM400,302h112v1h-112zM0,303h363v1h-363zM401,303h111v1h-111zM0,304h363v1h-363zM403,304h109v1h-109zM0,305h363v1h-363zM404,305h108v1h-108zM0,306h363v1h-363zM406,306h106v1h-106zM0,307h363v1h-363zM408,307h104v1h-104zM0,308h363v1h-363zM409,308h103v1h-103zM0,309h363v1h-363zM411,309h101v1h-101zM0,310h363v1h-363zM412,310h100v1h-100zM0,311h363v1h-363zM414,311h98v1h-98zM0,312h363v1h-363zM416,312h96v1h-96zM0,313h363v1h-363zM417,313h95v1h-95zM0,314h363v1h-363zM419,314h93v1h-93zM0,315h363v1h-363zM420,315h92v1h-92zM0,316h363v1h-363zM422,316h90v1h-90zM0,317h363v1h-363zM424,317h88v1h-88zM0,318h363v1h-363zM425,318h87v1h-87zM0,319h363v1h-363zM427,319h85v1h-85zM0,320h363v1h-363zM428,320h84v1h-84zM0,321h363v1h-363zM430,321h82v1h-82zM0,322h363v1h-363zM432,322h80v1h-80zM0,323h363v1h-363zM433,323h79v1h-79zM0,324h363v1h-363zM435,324h77v1h-77zM0,325h363v1h-363zM436,325h76v1h-76zM0,326h363v1h-363zM438,326h74v1h-74zM0,327h363v1h-363zM439,327h73v1h-73zM0,328h363v1h-363zM441,328h71v1h-71zM0,329h363v1h-363zM443,329h69v1h-69zM0,330h363v1h-363zM444,330h68v1h-68zM0,331h363v1h-363zM446,331h66v1h-66zM0,332h363v1h-363zM447,332h65v1h-65zM0,333h363v1h-363zM449,333h63v1h-63zM0,334h363v1h-363zM451,334h61v1h-61zM0,335h363v1h-363zM452,335h60v1h-60zM0,336h363v1h-363zM454,336h58v1h-58zM0,337h363v1h-363zM455,337h57v1h-57zM0,338h363v1h-363zM457,338h55v1h-55zM0,339h363v1h-363zM459,339h53v1h-53zM0,340h363v1h-363zM460,340h52v1h-52zM0,341h363v1h-363zM462,341h50v1h-50zM0,342h363v1h-363zM463,342h49v1h-49zM0,343h363v1h-363zM465,343h47v1h-47zM0,344h363v1h-363zM467,344h45v1h-45zM0,345h363v1h-363zM468,345h44v1h-44zM0,346h363v1h-363zM470,346h42v1h-42zM0,347h363v1h-363zM471,347h41v1h-41zM0,348h363v1h-363zM473,348h39v1h-39zM0,349h363v1h-363zM475,349h37v1h-37zM0,350h363v1h-363zM476,350h36v1h-36zM0,351h363v1h-363zM478,351h34v1h-34zM0,352h363v1h-363zM479,352h33v1h-33zM0,353h363v1h-363zM481,353h31v1h-31zM0,354h363v1h-363zM483,354h29v1h-29zM0,355h363v1h-363zM484,355h28v1h-28zM0,356h363v1h-363zM486,356h26v1h-26zM0,357h363v1h-363zM487,357h25v1h-25zM0,358h363v1h-363zM489,358h23v1h-23zM0,359h363v1h-363zM491,359h21v1h-21zM0,360h363v1h-363zM492,360h20v1h-20zM0,361h363v1h-363zM494,361h18v1h-18zM0,362h363v1h-363zM495,362h17v1h-17zM0,363h362v1h-362zM497,363h15v1h-15zM1,364h361v1h-361zM499,364h13v1h-13zM1,365h361v1h-361zM500,365h12v1h-12zM1,366h361v1h-361zM502,366h10v1h-10zM1,367h361v1h-361zM503,367h9v1h-9zM2,368h359v1h-359zM505,368h7v1h-7zM2,369h359v1h-359zM506,369h6v1h-6zM2,370h359v1h-359zM508,370h4v1h-4zM2,371h358v1h-358zM510,371h2v1h-2zM3,372h357v1h-357zM511,372h1v1h-1zM3,373h357v1h-357zM4,374h355v1h-355zM4,375h355v1h-355zM5,376h353v1h-353zM5,377h353v1h-353zM6,378h351v1h-351zM6,379h351v1h-351zM7,380h349v1h-349zM8,381h347v1h-347zM8,382h347v1h-347zM9,383h345v1h-345zM10,384h343v1h-343zM11,385h341v1h-341zM12,386h339v1h-339zM13,387h337v1h-337zM14,388h335v1h-335zM15,389h333v1h-333zM16,390h331v1h-331zM17,391h328v1h-328zM19,392h325v1h-325zM20,393h323v1h-323zM22,394h319v1h-319zM24,395h315v1h-315zM26,396h310v1h-310zM29,397h305v1h-305zM33,398h297v1h-297zM41,399h281v1h-281z" fill="#000"/>
</svg>