%TF.GenerationSoftware,KiCad,Pcbnew,9.0.7*%
%TF.CreationDate,2026-03-16T20:57:37+07:00*%
%TF.ProjectId,machin_nghiem1,6d616368-696e-45f6-9e67-6869656d312e,rev?*%
%TF.SameCoordinates,Original*%
%TF.FileFunction,Soldermask,Top*%
%TF.FilePolarity,Negative*%
%FSLAX46Y46*%
G04 Gerber Fmt 4.6, Leading zero omitted, Abs format (unit mm)*
G04 Created by KiCad (PCBNEW 9.0.7) date 2026-03-16 20:57:37*
%MOMM*%
%LPD*%
G01*
G04 APERTURE LIST*
%ADD10C,0.100000*%
G04 APERTURE END LIST*
D10*
X152635000Y-125770000D02*
X142809000Y-125770000D01*
X142809000Y-122891000D01*
X152635000Y-122891000D01*
X152635000Y-125770000D01*
G36*
X152635000Y-125770000D02*
G01*
X142809000Y-125770000D01*
X142809000Y-122891000D01*
X152635000Y-122891000D01*
X152635000Y-125770000D01*
G37*
X142809000Y-156149000D02*
X139930000Y-156149000D01*
X139930000Y-125770000D01*
X142809000Y-125770000D01*
X142809000Y-156149000D01*
G36*
X142809000Y-156149000D02*
G01*
X139930000Y-156149000D01*
X139930000Y-125770000D01*
X142809000Y-125770000D01*
X142809000Y-156149000D01*
G37*
X142809000Y-125770000D02*
X139930000Y-125770000D01*
X139930000Y-122891000D01*
X142809000Y-122891000D01*
X142809000Y-125770000D01*
G36*
X142809000Y-125770000D02*
G01*
X139930000Y-125770000D01*
X139930000Y-122891000D01*
X142809000Y-122891000D01*
X142809000Y-125770000D01*
G37*
X139930000Y-125770000D02*
X122707000Y-125770000D01*
X122707000Y-122891000D01*
X139930000Y-122891000D01*
X139930000Y-125770000D01*
G36*
X139930000Y-125770000D02*
G01*
X122707000Y-125770000D01*
X122707000Y-122891000D01*
X139930000Y-122891000D01*
X139930000Y-125770000D01*
G37*
M02*
