<?xml version="1.0" encoding="UTF-8"?>
<svg xmlns="http://www.w3.org/2000/svg" width="512" height="512" viewBox="0 0 512 512">
<path d="M27,0h128v1h-128zM357,0h128v1h-128zM22,1h137v1h-137zM353,1h137v1h-137zM20,2h142v1h-142zM350,2h142v1h-142zM17,3h147v1h-147zM348,3h147v1h-147zM16,4h150v1h-150zM346,4h150v1h-150zM14,5h153v1h-153zM345,5h153v1h-153zM13,6h156v1h-156zM344,6h155v1h-155zM11,7h159v1h-159zM342,7h159v1h-159zM10,8h161v1h-161zM341,8h161v1h-161zM9,9h163v1h-163zM340,9h163v1h-163zM8,10h165v1h-165zM339,10h165v1h-165zM7,11h167v1h-167zM338,11h167v1h-167zM7,12h168v1h-168zM337,12h168v1h-168zM6,13h169v1h-169zM337,13h169v1h-169zM5,14h171v1h-171zM336,14h171v1h-171zM5,15h172v1h-172zM335,15h172v1h-172zM4,16h173v1h-173zM335,16h173v1h-173zM3,17h175v1h-175zM334,17h174v1h-174zM3,18h175v1h-175zM334,18h175v1h-175zM3,19h176v1h-176zM333,19h176v1h-176zM2,20h177v1h-177zM333,20h177v1h-177zM2,21h177v1h-177zM333,21h177v1h-177zM1,22h179v1h-179zM332,22h179v1h-179zM1,23h179v1h-179zM332,23h179v1h-179zM1,24h179v1h-179zM332,24h179v1h-179zM1,25h180v1h-180zM331,25h180v1h-180zM0,26h181v1h-181zM331,26h180v1h-180zM0,27h181v1h-181zM331,27h181v1h-181zM0,28h181v1h-181zM331,28h181v1h-181zM0,29h181v1h-181zM331,29h181v1h-181zM0,30h181v1h-181zM331,30h181v1h-181zM0,31h181v1h-181zM331,31h181v1h-181zM0,32h181v1h-181zM331,32h181v1h-181zM0,33h181v1h-181zM331,33h181v1h-181zM0,34h181v1h-181zM331,34h181v1h-181zM0,35h181v1h-181zM331,35h181v1h-181zM0,36h181v1h-181zM331,36h181v1h-181zM0,37h181v1h-181zM331,37h181v1h-181zM0,38h181v1h-181zM331,38h181v1h-181zM0,39h180v1h-180zM332,39h180v1h-180zM0,40h180v1h-180zM332,40h180v1h-180zM0,41h180v1h-180zM332,41h180v1h-180zM0,42h179v1h-179zM333,42h179v1h-179zM0,43h179v1h-179zM333,43h179v1h-179zM0,44h179v1h-179zM333,44h179v1h-179zM0,45h178v1h-178zM334,45h178v1h-178zM0,46h178v1h-178zM334,46h178v1h-178zM0,47h177v1h-177zM335,47h177v1h-177zM0,48h177v1h-177zM335,48h177v1h-177zM0,49h176v1h-176zM336,49h176v1h-176zM0,50h175v1h-175zM337,50h175v1h-175zM0,51h175v1h-175zM337,51h175v1h-175zM0,52h174v1h-174zM338,52h174v1h-174zM0,53h173v1h-173zM339,53h173v1h-173zM0,54h172v1h-172zM340,54h172v1h-172zM0,55h171v1h-171zM341,55h171v1h-171zM0,56h170v1h-170zM342,56h170v1h-170zM0,57h169v1h-169zM344,57h168v1h-168zM0,58h167v1h-167zM345,58h167v1h-167zM0,59h166v1h-166zM347,59h165v1h-165zM0,60h164v1h-164zM348,60h164v1h-164zM0,61h162v1h-162zM350,61h162v1h-162zM0,62h159v1h-159zM353,62h159v1h-159zM0,63h155v1h-155zM357,63h155v1h-155zM0,64h64v1h-64zM448,64h64v1h-64zM0,65h64v1h-64zM448,65h64v1h-64zM0,66h64v1h-64zM448,66h64v1h-64zM0,67h64v1h-64zM448,67h64v1h-64zM0,68h64v1h-64zM448,68h64v1h-64zM0,69h64v1h-64zM448,69h64v1h-64zM0,70h64v1h-64zM448,70h64v1h-64zM0,71h64v1h-64zM448,71h64v1h-64zM0,72h64v1h-64zM448,72h64v1h-64zM0,73h64v1h-64zM448,73h64v1h-64zM0,74h64v1h-64zM448,74h64v1h-64zM0,75h64v1h-64zM448,75h64v1h-64zM0,76h64v1h-64zM448,76h64v1h-64zM0,77h64v1h-64zM448,77h64v1h-64zM0,78h64v1h-64zM448,78h64v1h-64zM0,79h64v1h-64zM448,79h64v1h-64zM0,80h64v1h-64zM448,80h64v1h-64zM0,81h64v1h-64zM448,81h64v1h-64zM0,82h64v1h-64zM448,82h64v1h-64zM0,83h64v1h-64zM448,83h64v1h-64zM0,84h64v1h-64zM448,84h64v1h-64zM0,85h64v1h-64zM448,85h64v1h-64zM0,86h64v1h-64zM448,86h64v1h-64zM0,87h64v1h-64zM448,87h64v1h-64zM0,88h64v1h-64zM448,88h64v1h-64zM0,89h64v1h-64zM448,89h64v1h-64zM0,90h64v1h-64zM448,90h64v1h-64zM0,91h64v1h-64zM448,91h64v1h-64zM0,92h64v1h-64zM448,92h64v1h-64zM0,93h64v1h-64zM448,93h64v1h-64zM0,94h64v1h-64zM448,94h64v1h-64zM0,95h64v1h-64zM448,95h64v1h-64zM0,96h64v1h-64zM448,96h64v1h-64zM0,97h64v1h-64zM448,97h64v1h-64zM0,98h64v1h-64zM448,98h64v1h-64zM0,99h64v1h-64zM448,99h64v1h-64zM0,100h64v1h-64zM448,100h64v1h-64zM0,101h64v1h-64zM448,101h64v1h-64zM0,102h64v1h-64zM448,102h64v1h-64zM0,103h64v1h-64zM448,103h64v1h-64zM0,104h64v1h-64zM448,104h64v1h-64zM0,105h64v1h-64zM448,105h64v1h-64zM0,106h64v1h-64zM448,106h64v1h-64zM0,107h64v1h-64zM448,107h64v1h-64zM0,108h64v1h-64zM448,108h64v1h-64zM0,109h64v1h-64zM448,109h64v1h-64zM0,110h64v1h-64zM448,110h64v1h-64zM0,111h64v1h-64zM448,111h64v1h-64zM0,112h64v1h-64zM448,112h64v1h-64zM0,113h64v1h-64zM448,113h64v1h-64zM0,114h64v1h-64zM448,114h64v1h-64zM0,115h64v1h-64zM448,115h64v1h-64zM0,116h64v1h-64zM448,116h64v1h-64zM0,117h64v1h-64zM448,117h64v1h-64zM0,118h64v1h-64zM448,118h64v1h-64zM0,119h64v1h-64zM448,119h64v1h-64zM0,120h64v1h-64zM448,120h64v1h-64zM0,121h64v1h-64zM448,121h64v1h-64zM0,122h64v1h-64zM448,122h64v1h-64zM0,123h64v1h-64zM448,123h64v1h-64zM0,124h64v1h-64zM448,124h64v1h-64zM0,125h64v1h-64zM448,125h64v1h-64zM0,126h64v1h-64zM448,126h64v1h-64zM0,127h64v1h-64zM448,127h64v1h-64zM0,128h64v1h-64zM448,128h64v1h-64zM0,129h64v1h-64zM448,129h64v1h-64zM0,130h64v1h-64zM448,130h64v1h-64zM0,131h64v1h-64zM448,131h64v1h-64zM0,132h64v1h-64zM448,132h64v1h-64zM0,133h64v1h-64zM448,133h64v1h-64zM0,134h64v1h-64zM448,134h64v1h-64zM0,135h64v1h-64zM448,135h64v1h-64zM0,136h64v1h-64zM448,136h64v1h-64zM0,137h64v1h-64zM448,137h64v1h-64zM0,138h64v1h-64zM448,138h64v1h-64zM0,139h64v1h-64zM448,139h64v1h-64zM0,140h64v1h-64zM448,140h64v1h-64zM0,141h64v1h-64zM448,141h64v1h-64zM0,142h64v1h-64zM448,142h64v1h-64zM0,143h64v1h-64zM448,143h64v1h-64zM0,144h64v1h-64zM448,144h64v1h-64zM0,145h64v1h-64zM448,145h64v1h-64zM0,146h64v1h-64zM448,146h64v1h-64zM0,147h64v1h-64zM448,147h64v1h-64zM0,148h64v1h-64zM448,148h64v1h-64zM0,149h64v1h-64zM448,149h64v1h-64zM0,150h64v1h-64zM448,150h64v1h-64zM0,151h64v1h-64zM448,151h64v1h-64zM0,152h64v1h-64zM448,152h64v1h-64zM0,153h64v1h-64zM448,153h64v1h-64zM0,154h64v1h-64zM448,154h64v1h-64zM1,155h62v1h-62zM449,155h62v1h-62zM1,156h62v1h-62zM449,156h62v1h-62zM1,157h62v1h-62zM449,157h62v1h-62zM1,158h62v1h-62zM449,158h62v1h-62zM2,159h60v1h-60zM450,159h60v1h-60zM2,160h60v1h-60zM450,160h60v1h-60zM2,161h60v1h-60zM450,161h60v1h-60zM3,162h58v1h-58zM451,162h58v1h-58zM3,163h58v1h-58zM451,163h58v1h-58zM4,164h56v1h-56zM452,164h56v1h-56zM4,165h55v1h-55zM452,165h55v1h-55zM5,166h54v1h-54zM453,166h54v1h-54zM6,167h52v1h-52zM454,167h52v1h-52zM7,168h50v1h-50zM455,168h50v1h-50zM7,169h50v1h-50zM455,169h50v1h-50zM8,170h48v1h-48zM456,170h48v1h-48zM9,171h46v1h-46zM457,171h46v1h-46zM10,172h44v1h-44zM458,172h44v1h-44zM11,173h42v1h-42zM459,173h42v1h-42zM12,174h40v1h-40zM460,174h40v1h-40zM14,175h36v1h-36zM462,175h36v1h-36zM15,176h34v1h-34zM463,176h34v1h-34zM17,177h30v1h-30zM465,177h30v1h-30zM19,178h26v1h-26zM467,178h26v1h-26zM22,179h20v1h-20zM470,179h20v1h-20zM25,180h14v1h-14zM473,180h14v1h-14zM25,331h14v1h-14zM473,331h14v1h-14zM22,332h20v1h-20zM470,332h20v1h-20zM19,333h26v1h-26zM467,333h26v1h-26zM17,334h30v1h-30zM465,334h30v1h-30zM15,335h34v1h-34zM463,335h34v1h-34zM14,336h36v1h-36zM462,336h36v1h-36zM12,337h40v1h-40zM460,337h40v1h-40zM11,338h42v1h-42zM459,338h42v1h-42zM10,339h44v1h-44zM458,339h44v1h-44zM9,340h46v1h-46zM457,340h46v1h-46zM8,341h48v1h-48zM456,341h48v1h-48zM7,342h50v1h-50zM455,342h50v1h-50zM7,343h50v1h-50zM455,343h50v1h-50zM6,344h52v1h-52zM454,344h52v1h-52zM5,345h54v1h-54zM453,345h54v1h-54zM4,346h55v1h-55zM452,346h55v1h-55zM4,347h56v1h-56zM452,347h56v1h-56zM3,348h58v1h-58zM451,348h58v1h-58zM3,349h58v1h-58zM451,349h58v1h-58zM2,350h60v1h-60zM450,350h60v1h-60zM2,351h60v1h-60zM450,351h60v1h-60zM2,352h60v1h-60zM450,352h60v1h-60zM1,353h62v1h-62zM449,353h62v1h-62zM1,354h62v1h-62zM449,354h62v1h-62zM1,355h62v1h-62zM449,355h62v1h-62zM1,356h62v1h-62zM449,356h62v1h-62zM0,357h64v1h-64zM448,357h64v1h-64zM0,358h64v1h-64zM448,358h64v1h-64zM0,359h64v1h-64zM448,359h64v1h-64zM0,360h64v1h-64zM448,360h64v1h-64zM0,361h64v1h-64zM448,361h64v1h-64zM0,362h64v1h-64zM448,362h64v1h-64zM0,363h64v1h-64zM448,363h64v1h-64zM0,364h64v1h-64zM448,364h64v1h-64zM0,365h64v1h-64zM448,365h64v1h-64zM0,366h64v1h-64zM448,366h64v1h-64zM0,367h64v1h-64zM448,367h64v1h-64zM0,368h64v1h-64zM448,368h64v1h-64zM0,369h64v1h-64zM448,369h64v1h-64zM0,370h64v1h-64zM448,370h64v1h-64zM0,371h64v1h-64zM448,371h64v1h-64zM0,372h64v1h-64zM448,372h64v1h-64zM0,373h64v1h-64zM448,373h64v1h-64zM0,374h64v1h-64zM448,374h64v1h-64zM0,375h64v1h-64zM448,375h64v1h-64zM0,376h64v1h-64zM448,376h64v1h-64zM0,377h64v1h-64zM448,377h64v1h-64zM0,378h64v1h-64zM448,378h64v1h-64zM0,379h64v1h-64zM448,379h64v1h-64zM0,380h64v1h-64zM448,380h64v1h-64zM0,381h64v1h-64zM448,381h64v1h-64zM0,382h64v1h-64zM448,382h64v1h-64zM0,383h64v1h-64zM448,383h64v1h-64zM0,384h64v1h-64zM448,384h64v1h-64zM0,385h64v1h-64zM448,385h64v1h-64zM0,386h64v1h-64zM448,386h64v1h-64zM0,387h64v1h-64zM448,387h64v1h-64zM0,388h64v1h-64zM448,388h64v1h-64zM0,389h64v1h-64zM448,389h64v1h-64zM0,390h64v1h-64zM448,390h64v1h-64zM0,391h64v1h-64zM448,391h64v1h-64zM0,392h64v1h-64zM448,392h64v1h-64zM0,393h64v1h-64zM448,393h64v1h-64zM0,394h64v1h-64zM448,394h64v1h-64zM0,395h64v1h-64zM448,395h64v1h-64zM0,396h64v1h-64zM448,396h64v1h-64zM0,397h64v1h-64zM448,397h64v1h-64zM0,398h64v1h-64zM448,398h64v1h-64zM0,399h64v1h-64zM448,399h64v1h-64zM0,400h64v1h-64zM448,400h64v1h-64zM0,401h64v1h-64zM448,401h64v1h-64zM0,402h64v1h-64zM448,402h64v1h-64zM0,403h64v1h-64zM448,403h64v1h-64zM0,404h64v1h-64zM448,404h64v1h-64zM0,405h64v1h-64zM448,405h64v1h-64zM0,406h64v1h-64zM448,406h64v1h-64zM0,407h64v1h-64zM448,407h64v1h-64zM0,408h64v1h-64zM448,408h64v1h-64zM0,409h64v1h-64zM448,409h64v1h-64zM0,410h64v1h-64zM448,410h64v1h-64zM0,411h64v1h-64zM448,411h64v1h-64zM0,412h64v1h-64zM448,412h64v1h-64zM0,413h64v1h-64zM448,413h64v1h-64zM0,414h64v1h-64zM448,414h64v1h-64zM0,415h64v1h-64zM448,415h64v1h-64zM0,416h64v1h-64zM448,416h64v1h-64zM0,417h64v1h-64zM448,417h64v1h-64zM0,418h64v1h-64zM448,418h64v1h-64zM0,419h64v1h-64zM448,419h64v1h-64zM0,420h64v1h-64zM448,420h64v1h-64zM0,421h64v1h-64zM448,421h64v1h-64zM0,422h64v1h-64zM448,422h64v1h-64zM0,423h64v1h-64zM448,423h64v1h-64zM0,424h64v1h-64zM448,424h64v1h-64zM0,425h64v1h-64zM448,425h64v1h-64zM0,426h64v1h-64zM448,426h64v1h-64zM0,427h64v1h-64zM448,427h64v1h-64zM0,428h64v1h-64zM448,428h64v1h-64zM0,429h64v1h-64zM448,429h64v1h-64zM0,430h64v1h-64zM448,430h64v1h-64zM0,431h64v1h-64zM448,431h64v1h-64zM0,432h64v1h-64zM448,432h64v1h-64zM0,433h64v1h-64zM448,433h64v1h-64zM0,434h64v1h-64zM448,434h64v1h-64zM0,435h64v1h-64zM448,435h64v1h-64zM0,436h64v1h-64zM448,436h64v1h-64zM0,437h64v1h-64zM448,437h64v1h-64zM0,438h64v1h-64zM448,438h64v1h-64zM0,439h64v1h-64zM448,439h64v1h-64zM0,440h64v1h-64zM448,440h64v1h-64zM0,441h64v1h-64zM448,441h64v1h-64zM0,442h64v1h-64zM448,442h64v1h-64zM0,443h64v1h-64zM448,443h64v1h-64zM0,444h64v1h-64zM448,444h64v1h-64zM0,445h64v1h-64zM448,445h64v1h-64zM0,446h64v1h-64zM448,446h64v1h-64zM0,447h64v1h-64zM448,447h64v1h-64zM0,448h155v1h-155zM357,448h155v1h-155zM0,449h159v1h-159zM353,449h159v1h-159zM0,450h162v1h-162zM350,450h162v1h-162zM0,451h164v1h-164zM348,451h164v1h-164zM0,452h166v1h-166zM346,452h166v1h-166zM0,453h167v1h-167zM345,453h167v1h-167zM0,454h169v1h-169zM344,454h168v1h-168zM0,455h170v1h-170zM342,455h170v1h-170zM0,456h171v1h-171zM341,456h171v1h-171zM0,457h172v1h-172zM340,457h172v1h-172zM0,458h173v1h-173zM339,458h173v1h-173zM0,459h174v1h-174zM338,459h174v1h-174zM0,460h175v1h-175zM337,460h175v1h-175zM0,461h175v1h-175zM337,461h175v1h-175zM0,462h176v1h-176zM336,462h176v1h-176zM0,463h177v1h-177zM335,463h177v1h-177zM0,464h177v1h-177zM335,464h177v1h-177zM0,465h178v1h-178zM334,465h178v1h-178zM0,466h178v1h-178zM334,466h178v1h-178zM0,467h179v1h-179zM333,467h179v1h-179zM0,468h179v1h-179zM333,468h179v1h-179zM0,469h179v1h-179zM333,469h179v1h-179zM0,470h180v1h-180zM332,470h180v1h-180zM0,471h180v1h-180zM332,471h180v1h-180zM0,472h180v1h-180zM332,472h180v1h-180zM0,473h181v1h-181zM331,473h181v1h-181zM0,474h181v1h-181zM331,474h181v1h-181zM0,475h181v1h-181zM331,475h181v1h-181zM0,476h181v1h-181zM331,476h181v1h-181zM0,477h181v1h-181zM331,477h181v1h-181zM0,478h181v1h-181zM331,478h181v1h-181zM0,479h181v1h-181zM331,479h181v1h-181zM0,480h181v1h-181zM331,480h181v1h-181zM0,481h181v1h-181zM331,481h181v1h-181zM0,482h181v1h-181zM331,482h181v1h-181zM0,483h181v1h-181zM331,483h181v1h-181zM0,484h181v1h-181zM331,484h181v1h-181zM1,485h180v1h-180zM331,485h180v1h-180zM1,486h180v1h-180zM331,486h180v1h-180zM1,487h179v1h-179zM332,487h179v1h-179zM1,488h179v1h-179zM332,488h179v1h-179zM1,489h179v1h-179zM332,489h179v1h-179zM2,490h177v1h-177zM333,490h177v1h-177zM2,491h177v1h-177zM333,491h177v1h-177zM3,492h176v1h-176zM333,492h176v1h-176zM3,493h175v1h-175zM334,493h175v1h-175zM3,494h175v1h-175zM334,494h174v1h-174zM4,495h173v1h-173zM335,495h173v1h-173zM5,496h172v1h-172zM335,496h172v1h-172zM5,497h171v1h-171zM336,497h171v1h-171zM6,498h169v1h-169zM337,498h169v1h-169zM7,499h168v1h-168zM337,499h168v1h-168zM7,500h167v1h-167zM338,500h167v1h-167zM8,501h165v1h-165zM339,501h165v1h-165zM9,502h163v1h-163zM340,502h163v1h-163zM10,503h161v1h-161zM341,503h161v1h-161zM11,504h159v1h-159zM342,504h159v1h-159zM13,505h156v1h-156zM344,505h155v1h-155zM14,506h153v1h-153zM345,506h153v1h-153zM16,507h150v1h-150zM347,507h149v1h-149zM18,508h146v1h-146zM348,508h146v1h-146zM20,509h142v1h-142zM350,509h142v1h-142zM22,510h137v1h-137zM353,510h137v1h-137zM27,511h128v1h-128zM357,511h128v1h-128z" fill="#000"/>
</svg>