<?xml version="1.0" encoding="UTF-8"?>
<svg xmlns="http://www.w3.org/2000/svg" width="512" height="512" viewBox="0 0 512 512">
<path d="M100,0h5v1h-5zM98,1h9v1h-9zM96,2h12v1h-12zM96,3h13v1h-13zM95,4h15v1h-15zM94,5h16v1h-16zM94,6h17v1h-17zM94,7h17v1h-17zM94,8h17v1h-17zM94,9h17v1h-17zM94,10h17v1h-17zM94,11h17v1h-17zM94,12h17v1h-17zM94,13h17v1h-17zM94,14h17v1h-17zM94,15h17v1h-17zM94,16h17v1h-17zM94,17h17v1h-17zM94,18h17v1h-17zM94,19h17v1h-17zM94,20h17v1h-17zM94,21h17v1h-17zM94,22h17v1h-17zM94,23h17v1h-17zM94,24h17v1h-17zM94,25h17v1h-17zM94,26h17v1h-17zM94,27h17v1h-17zM32,28h8v1h-8zM94,28h17v1h-17zM165,28h8v1h-8zM31,29h10v1h-10zM94,29h17v1h-17zM163,29h11v1h-11zM30,30h13v1h-13zM94,30h17v1h-17zM162,30h13v1h-13zM29,31h15v1h-15zM94,31h17v1h-17zM161,31h15v1h-15zM28,32h17v1h-17zM94,32h17v1h-17zM160,32h16v1h-16zM28,33h18v1h-18zM94,33h17v1h-17zM159,33h18v1h-18zM28,34h19v1h-19zM94,34h17v1h-17zM158,34h19v1h-19zM28,35h20v1h-20zM94,35h17v1h-17zM157,35h20v1h-20zM28,36h21v1h-21zM94,36h17v1h-17zM156,36h21v1h-21zM28,37h22v1h-22zM94,37h17v1h-17zM155,37h22v1h-22zM28,38h23v1h-23zM94,38h17v1h-17zM154,38h23v1h-23zM28,39h24v1h-24zM94,39h17v1h-17zM153,39h24v1h-24zM29,40h24v1h-24zM94,40h17v1h-17zM152,40h24v1h-24zM30,41h24v1h-24zM94,41h17v1h-17zM151,41h24v1h-24zM30,42h25v1h-25zM94,42h17v1h-17zM150,42h24v1h-24zM31,43h25v1h-25zM94,43h17v1h-17zM149,43h24v1h-24zM32,44h25v1h-25zM94,44h17v1h-17zM148,44h24v1h-24zM33,45h25v1h-25zM94,45h16v1h-16zM147,45h24v1h-24zM34,46h25v1h-25zM95,46h15v1h-15zM146,46h24v1h-24zM35,47h25v1h-25zM96,47h13v1h-13zM145,47h24v1h-24zM36,48h25v1h-25zM96,48h13v1h-13zM144,48h24v1h-24zM37,49h25v1h-25zM98,49h9v1h-9zM143,49h24v1h-24zM38,50h25v1h-25zM99,50h7v1h-7zM142,50h24v1h-24zM39,51h25v1h-25zM141,51h24v1h-24zM40,52h25v1h-25zM140,52h24v1h-24zM41,53h25v1h-25zM139,53h24v1h-24zM42,54h24v1h-24zM138,54h24v1h-24zM43,55h24v1h-24zM138,55h23v1h-23zM44,56h24v1h-24zM137,56h23v1h-23zM45,57h23v1h-23zM137,57h22v1h-22zM46,58h22v1h-22zM136,58h22v1h-22zM47,59h22v1h-22zM136,59h21v1h-21zM48,60h21v1h-21zM136,60h20v1h-20zM49,61h19v1h-19zM136,61h19v1h-19zM50,62h18v1h-18zM137,62h17v1h-17zM51,63h17v1h-17zM137,63h16v1h-16zM52,64h15v1h-15zM137,64h15v1h-15zM53,65h14v1h-14zM138,65h13v1h-13zM55,66h11v1h-11zM139,66h11v1h-11zM56,67h8v1h-8zM141,67h8v1h-8zM59,68h2v1h-2zM144,68h2v1h-2zM99,71h13v1h-13zM95,72h20v1h-20zM92,73h26v1h-26zM90,74h30v1h-30zM88,75h34v1h-34zM86,76h38v1h-38zM85,77h41v1h-41zM84,78h43v1h-43zM82,79h46v1h-46zM81,80h48v1h-48zM80,81h50v1h-50zM79,82h53v1h-53zM78,83h55v1h-55zM77,84h57v1h-57zM76,85h59v1h-59zM75,86h61v1h-61zM75,87h61v1h-61zM74,88h27v1h-27zM109,88h28v1h-28zM74,89h24v1h-24zM112,89h26v1h-26zM73,90h23v1h-23zM114,90h25v1h-25zM72,91h23v1h-23zM116,91h24v1h-24zM72,92h21v1h-21zM117,92h23v1h-23zM71,93h21v1h-21zM118,93h23v1h-23zM5,94h41v1h-41zM71,94h20v1h-20zM119,94h23v1h-23zM4,95h43v1h-43zM71,95h19v1h-19zM120,95h23v1h-23zM2,96h47v1h-47zM70,96h19v1h-19zM122,96h21v1h-21zM2,97h47v1h-47zM70,97h19v1h-19zM122,97h22v1h-22zM1,98h49v1h-49zM70,98h18v1h-18zM123,98h22v1h-22zM1,99h50v1h-50zM70,99h17v1h-17zM124,99h21v1h-21zM0,100h51v1h-51zM69,100h18v1h-18zM125,100h21v1h-21zM0,101h51v1h-51zM69,101h18v1h-18zM126,101h21v1h-21zM0,102h51v1h-51zM69,102h17v1h-17zM127,102h21v1h-21zM0,103h51v1h-51zM69,103h17v1h-17zM127,103h21v1h-21zM0,104h51v1h-51zM69,104h17v1h-17zM128,104h21v1h-21zM1,105h50v1h-50zM69,105h17v1h-17zM129,105h21v1h-21zM1,106h49v1h-49zM68,106h18v1h-18zM130,106h20v1h-20zM2,107h47v1h-47zM68,107h17v1h-17zM130,107h21v1h-21zM3,108h46v1h-46zM68,108h17v1h-17zM131,108h21v1h-21zM4,109h43v1h-43zM68,109h17v1h-17zM132,109h21v1h-21zM6,110h39v1h-39zM68,110h17v1h-17zM132,110h21v1h-21zM69,111h17v1h-17zM133,111h21v1h-21zM69,112h17v1h-17zM134,112h21v1h-21zM69,113h17v1h-17zM134,113h21v1h-21zM69,114h17v1h-17zM135,114h21v1h-21zM69,115h17v1h-17zM136,115h21v1h-21zM69,116h18v1h-18zM137,116h21v1h-21zM69,117h18v1h-18zM137,117h21v1h-21zM70,118h17v1h-17zM138,118h21v1h-21zM70,119h18v1h-18zM139,119h21v1h-21zM70,120h18v1h-18zM139,120h21v1h-21zM70,121h19v1h-19zM140,121h21v1h-21zM71,122h18v1h-18zM141,122h21v1h-21zM71,123h19v1h-19zM142,123h21v1h-21zM71,124h19v1h-19zM142,124h21v1h-21zM72,125h19v1h-19zM143,125h21v1h-21zM72,126h19v1h-19zM144,126h21v1h-21zM73,127h19v1h-19zM144,127h21v1h-21zM73,128h20v1h-20zM145,128h21v1h-21zM74,129h19v1h-19zM146,129h21v1h-21zM74,130h20v1h-20zM147,130h21v1h-21zM75,131h19v1h-19zM147,131h21v1h-21zM75,132h20v1h-20zM148,132h21v1h-21zM76,133h20v1h-20zM149,133h21v1h-21zM76,134h20v1h-20zM149,134h21v1h-21zM77,135h20v1h-20zM150,135h21v1h-21zM58,136h4v1h-4zM78,136h20v1h-20zM151,136h21v1h-21zM56,137h8v1h-8zM78,137h20v1h-20zM152,137h21v1h-21zM54,138h12v1h-12zM79,138h20v1h-20zM152,138h21v1h-21zM53,139h14v1h-14zM79,139h20v1h-20zM153,139h21v1h-21zM52,140h15v1h-15zM80,140h20v1h-20zM154,140h21v1h-21zM51,141h17v1h-17zM81,141h20v1h-20zM154,141h21v1h-21zM50,142h18v1h-18zM81,142h20v1h-20zM155,142h21v1h-21zM49,143h19v1h-19zM82,143h20v1h-20zM156,143h21v1h-21zM48,144h21v1h-21zM82,144h20v1h-20zM157,144h20v1h-20zM47,145h22v1h-22zM83,145h20v1h-20zM157,145h21v1h-21zM46,146h22v1h-22zM84,146h20v1h-20zM158,146h21v1h-21zM45,147h23v1h-23zM84,147h20v1h-20zM159,147h21v1h-21zM44,148h24v1h-24zM85,148h20v1h-20zM159,148h21v1h-21zM314,148h17v1h-17zM43,149h24v1h-24zM86,149h20v1h-20zM160,149h21v1h-21zM310,149h25v1h-25zM380,149h13v1h-13zM42,150h24v1h-24zM86,150h20v1h-20zM161,150h21v1h-21zM307,150h31v1h-31zM376,150h21v1h-21zM41,151h24v1h-24zM87,151h20v1h-20zM162,151h20v1h-20zM305,151h36v1h-36zM373,151h27v1h-27zM40,152h24v1h-24zM87,152h20v1h-20zM162,152h21v1h-21zM303,152h39v1h-39zM371,152h31v1h-31zM39,153h24v1h-24zM88,153h20v1h-20zM163,153h21v1h-21zM301,153h43v1h-43zM369,153h35v1h-35zM38,154h24v1h-24zM89,154h20v1h-20zM164,154h21v1h-21zM299,154h47v1h-47zM368,154h38v1h-38zM37,155h24v1h-24zM89,155h20v1h-20zM164,155h21v1h-21zM298,155h49v1h-49zM366,155h41v1h-41zM36,156h24v1h-24zM90,156h20v1h-20zM165,156h21v1h-21zM297,156h52v1h-52zM365,156h44v1h-44zM35,157h24v1h-24zM90,157h20v1h-20zM166,157h21v1h-21zM295,157h55v1h-55zM364,157h46v1h-46zM34,158h24v1h-24zM91,158h20v1h-20zM166,158h21v1h-21zM294,158h57v1h-57zM363,158h48v1h-48zM33,159h24v1h-24zM92,159h20v1h-20zM167,159h21v1h-21zM293,159h59v1h-59zM362,159h50v1h-50zM32,160h24v1h-24zM92,160h20v1h-20zM168,160h21v1h-21zM292,160h61v1h-61zM361,160h52v1h-52zM31,161h24v1h-24zM93,161h20v1h-20zM169,161h21v1h-21zM291,161h63v1h-63zM360,161h54v1h-54zM30,162h24v1h-24zM94,162h20v1h-20zM169,162h21v1h-21zM290,162h65v1h-65zM360,162h55v1h-55zM29,163h24v1h-24zM94,163h20v1h-20zM170,163h21v1h-21zM289,163h67v1h-67zM359,163h56v1h-56zM29,164h23v1h-23zM95,164h20v1h-20zM171,164h21v1h-21zM289,164h68v1h-68zM358,164h58v1h-58zM28,165h23v1h-23zM95,165h20v1h-20zM171,165h21v1h-21zM288,165h28v1h-28zM329,165h88v1h-88zM28,166h22v1h-22zM96,166h20v1h-20zM172,166h21v1h-21zM287,166h26v1h-26zM332,166h49v1h-49zM392,166h25v1h-25zM28,167h21v1h-21zM97,167h20v1h-20zM173,167h21v1h-21zM248,167h13v1h-13zM287,167h24v1h-24zM334,167h45v1h-45zM394,167h24v1h-24zM28,168h20v1h-20zM97,168h20v1h-20zM174,168h21v1h-21zM244,168h22v1h-22zM286,168h23v1h-23zM336,168h42v1h-42zM396,168h22v1h-22zM28,169h19v1h-19zM98,169h20v1h-20zM174,169h21v1h-21zM240,169h29v1h-29zM285,169h23v1h-23zM338,169h38v1h-38zM398,169h21v1h-21zM28,170h18v1h-18zM98,170h20v1h-20zM175,170h21v1h-21zM238,170h34v1h-34zM285,170h21v1h-21zM339,170h36v1h-36zM399,170h21v1h-21zM28,171h17v1h-17zM99,171h20v1h-20zM176,171h21v1h-21zM236,171h38v1h-38zM284,171h21v1h-21zM340,171h34v1h-34zM400,171h20v1h-20zM28,172h16v1h-16zM100,172h20v1h-20zM176,172h21v1h-21zM234,172h42v1h-42zM284,172h20v1h-20zM341,172h33v1h-33zM401,172h20v1h-20zM29,173h14v1h-14zM100,173h20v1h-20zM177,173h21v1h-21zM232,173h46v1h-46zM284,173h19v1h-19zM342,173h31v1h-31zM402,173h19v1h-19zM30,174h12v1h-12zM101,174h20v1h-20zM178,174h21v1h-21zM231,174h48v1h-48zM283,174h19v1h-19zM343,174h29v1h-29zM402,174h20v1h-20zM31,175h10v1h-10zM102,175h20v1h-20zM179,175h21v1h-21zM229,175h52v1h-52zM283,175h19v1h-19zM343,175h29v1h-29zM403,175h19v1h-19zM33,176h7v1h-7zM102,176h20v1h-20zM179,176h21v1h-21zM228,176h73v1h-73zM344,176h27v1h-27zM403,176h20v1h-20zM103,177h20v1h-20zM180,177h21v1h-21zM227,177h73v1h-73zM345,177h26v1h-26zM404,177h20v1h-20zM103,178h20v1h-20zM181,178h21v1h-21zM226,178h74v1h-74zM345,178h26v1h-26zM405,178h19v1h-19zM104,179h20v1h-20zM181,179h21v1h-21zM225,179h74v1h-74zM346,179h25v1h-25zM405,179h20v1h-20zM105,180h20v1h-20zM182,180h21v1h-21zM224,180h75v1h-75zM347,180h23v1h-23zM406,180h19v1h-19zM105,181h20v1h-20zM183,181h21v1h-21zM223,181h76v1h-76zM347,181h23v1h-23zM406,181h20v1h-20zM106,182h20v1h-20zM184,182h21v1h-21zM222,182h76v1h-76zM348,182h22v1h-22zM407,182h20v1h-20zM106,183h21v1h-21zM184,183h21v1h-21zM221,183h77v1h-77zM348,183h22v1h-22zM407,183h20v1h-20zM107,184h20v1h-20zM185,184h21v1h-21zM221,184h29v1h-29zM260,184h38v1h-38zM349,184h21v1h-21zM408,184h20v1h-20zM108,185h20v1h-20zM186,185h21v1h-21zM220,185h26v1h-26zM263,185h35v1h-35zM349,185h21v1h-21zM409,185h19v1h-19zM108,186h20v1h-20zM186,186h21v1h-21zM219,186h25v1h-25zM266,186h31v1h-31zM350,186h21v1h-21zM409,186h20v1h-20zM109,187h20v1h-20zM187,187h21v1h-21zM219,187h23v1h-23zM268,187h29v1h-29zM351,187h20v1h-20zM410,187h19v1h-19zM110,188h20v1h-20zM188,188h21v1h-21zM218,188h23v1h-23zM269,188h28v1h-28zM351,188h20v1h-20zM410,188h20v1h-20zM110,189h20v1h-20zM189,189h20v1h-20zM217,189h22v1h-22zM271,189h26v1h-26zM352,189h20v1h-20zM411,189h20v1h-20zM111,190h20v1h-20zM189,190h21v1h-21zM217,190h21v1h-21zM272,190h25v1h-25zM352,190h20v1h-20zM411,190h20v1h-20zM111,191h20v1h-20zM190,191h21v1h-21zM216,191h21v1h-21zM273,191h24v1h-24zM353,191h20v1h-20zM412,191h20v1h-20zM112,192h20v1h-20zM191,192h21v1h-21zM216,192h20v1h-20zM274,192h23v1h-23zM353,192h20v1h-20zM413,192h19v1h-19zM113,193h20v1h-20zM191,193h21v1h-21zM216,193h19v1h-19zM275,193h22v1h-22zM354,193h19v1h-19zM413,193h20v1h-20zM113,194h20v1h-20zM192,194h21v1h-21zM215,194h19v1h-19zM276,194h21v1h-21zM355,194h18v1h-18zM414,194h19v1h-19zM114,195h20v1h-20zM193,195h21v1h-21zM215,195h19v1h-19zM276,195h22v1h-22zM355,195h18v1h-18zM414,195h20v1h-20zM114,196h21v1h-21zM194,196h39v1h-39zM277,196h21v1h-21zM356,196h17v1h-17zM415,196h20v1h-20zM115,197h20v1h-20zM194,197h38v1h-38zM278,197h20v1h-20zM356,197h17v1h-17zM415,197h20v1h-20zM116,198h20v1h-20zM195,198h37v1h-37zM278,198h20v1h-20zM357,198h16v1h-16zM416,198h20v1h-20zM116,199h20v1h-20zM196,199h36v1h-36zM279,199h20v1h-20zM358,199h14v1h-14zM417,199h19v1h-19zM117,200h20v1h-20zM196,200h35v1h-35zM279,200h20v1h-20zM358,200h14v1h-14zM417,200h20v1h-20zM118,201h20v1h-20zM197,201h34v1h-34zM280,201h20v1h-20zM359,201h12v1h-12zM418,201h20v1h-20zM118,202h20v1h-20zM198,202h32v1h-32zM280,202h20v1h-20zM361,202h8v1h-8zM418,202h20v1h-20zM119,203h20v1h-20zM198,203h32v1h-32zM281,203h20v1h-20zM363,203h4v1h-4zM419,203h20v1h-20zM119,204h20v1h-20zM199,204h31v1h-31zM282,204h19v1h-19zM420,204h19v1h-19zM120,205h20v1h-20zM200,205h30v1h-30zM282,205h19v1h-19zM420,205h20v1h-20zM121,206h20v1h-20zM201,206h29v1h-29zM283,206h18v1h-18zM421,206h19v1h-19zM121,207h20v1h-20zM201,207h28v1h-28zM283,207h18v1h-18zM421,207h20v1h-20zM122,208h20v1h-20zM202,208h27v1h-27zM284,208h17v1h-17zM422,208h20v1h-20zM122,209h21v1h-21zM203,209h26v1h-26zM284,209h17v1h-17zM422,209h20v1h-20zM123,210h20v1h-20zM203,210h26v1h-26zM285,210h16v1h-16zM423,210h20v1h-20zM124,211h20v1h-20zM204,211h26v1h-26zM286,211h14v1h-14zM424,211h19v1h-19zM124,212h20v1h-20zM205,212h25v1h-25zM287,212h13v1h-13zM424,212h20v1h-20zM125,213h20v1h-20zM206,213h24v1h-24zM287,213h12v1h-12zM425,213h19v1h-19zM126,214h20v1h-20zM206,214h24v1h-24zM289,214h8v1h-8zM425,214h20v1h-20zM126,215h20v1h-20zM207,215h23v1h-23zM291,215h4v1h-4zM426,215h20v1h-20zM127,216h20v1h-20zM208,216h22v1h-22zM426,216h20v1h-20zM127,217h20v1h-20zM208,217h23v1h-23zM427,217h20v1h-20zM128,218h20v1h-20zM209,218h22v1h-22zM428,218h19v1h-19zM129,219h20v1h-20zM210,219h21v1h-21zM428,219h20v1h-20zM129,220h20v1h-20zM211,220h21v1h-21zM429,220h19v1h-19zM130,221h20v1h-20zM211,221h21v1h-21zM429,221h20v1h-20zM130,222h21v1h-21zM212,222h21v1h-21zM430,222h20v1h-20zM131,223h20v1h-20zM213,223h20v1h-20zM431,223h19v1h-19zM132,224h20v1h-20zM213,224h21v1h-21zM431,224h20v1h-20zM132,225h20v1h-20zM214,225h20v1h-20zM432,225h19v1h-19zM133,226h20v1h-20zM215,226h19v1h-19zM432,226h20v1h-20zM134,227h20v1h-20zM216,227h18v1h-18zM433,227h20v1h-20zM134,228h20v1h-20zM216,228h18v1h-18zM433,228h20v1h-20zM135,229h20v1h-20zM217,229h16v1h-16zM434,229h20v1h-20zM135,230h20v1h-20zM218,230h15v1h-15zM435,230h19v1h-19zM136,231h20v1h-20zM218,231h14v1h-14zM435,231h20v1h-20zM137,232h20v1h-20zM219,232h12v1h-12zM436,232h19v1h-19zM137,233h20v1h-20zM220,233h10v1h-10zM436,233h20v1h-20zM138,234h20v1h-20zM223,234h5v1h-5zM437,234h20v1h-20zM138,235h21v1h-21zM437,235h20v1h-20zM139,236h20v1h-20zM438,236h20v1h-20zM140,237h20v1h-20zM439,237h19v1h-19zM140,238h20v1h-20zM439,238h20v1h-20zM141,239h20v1h-20zM440,239h19v1h-19zM142,240h20v1h-20zM440,240h20v1h-20zM142,241h20v1h-20zM441,241h20v1h-20zM143,242h20v1h-20zM441,242h20v1h-20zM143,243h20v1h-20zM442,243h20v1h-20zM144,244h20v1h-20zM443,244h19v1h-19zM145,245h20v1h-20zM443,245h20v1h-20zM145,246h20v1h-20zM444,246h19v1h-19zM146,247h20v1h-20zM444,247h20v1h-20zM146,248h21v1h-21zM445,248h20v1h-20zM147,249h20v1h-20zM446,249h19v1h-19zM148,250h20v1h-20zM446,250h20v1h-20zM148,251h20v1h-20zM447,251h19v1h-19zM149,252h20v1h-20zM447,252h20v1h-20zM150,253h20v1h-20zM448,253h20v1h-20zM150,254h20v1h-20zM448,254h20v1h-20zM151,255h20v1h-20zM449,255h20v1h-20zM151,256h20v1h-20zM450,256h19v1h-19zM152,257h20v1h-20zM450,257h20v1h-20zM153,258h20v1h-20zM451,258h19v1h-19zM153,259h20v1h-20zM451,259h20v1h-20zM154,260h20v1h-20zM452,260h20v1h-20zM154,261h21v1h-21zM452,261h20v1h-20zM155,262h20v1h-20zM453,262h20v1h-20zM156,263h20v1h-20zM454,263h19v1h-19zM156,264h20v1h-20zM454,264h20v1h-20zM157,265h20v1h-20zM455,265h19v1h-19zM158,266h20v1h-20zM455,266h20v1h-20zM158,267h20v1h-20zM456,267h19v1h-19zM159,268h20v1h-20zM456,268h20v1h-20zM159,269h20v1h-20zM457,269h19v1h-19zM160,270h20v1h-20zM458,270h19v1h-19zM161,271h20v1h-20zM458,271h20v1h-20zM161,272h20v1h-20zM459,272h19v1h-19zM162,273h20v1h-20zM459,273h20v1h-20zM162,274h21v1h-21zM460,274h19v1h-19zM163,275h20v1h-20zM460,275h20v1h-20zM164,276h20v1h-20zM461,276h19v1h-19zM164,277h20v1h-20zM461,277h20v1h-20zM165,278h20v1h-20zM462,278h19v1h-19zM166,279h20v1h-20zM462,279h19v1h-19zM166,280h20v1h-20zM463,280h19v1h-19zM167,281h20v1h-20zM464,281h18v1h-18zM167,282h20v1h-20zM464,282h19v1h-19zM168,283h20v1h-20zM465,283h18v1h-18zM169,284h20v1h-20zM465,284h19v1h-19zM169,285h20v1h-20zM465,285h19v1h-19zM170,286h20v1h-20zM466,286h19v1h-19zM170,287h21v1h-21zM466,287h19v1h-19zM171,288h20v1h-20zM467,288h18v1h-18zM172,289h20v1h-20zM467,289h19v1h-19zM172,290h20v1h-20zM468,290h18v1h-18zM173,291h20v1h-20zM468,291h19v1h-19zM174,292h20v1h-20zM469,292h18v1h-18zM174,293h20v1h-20zM469,293h18v1h-18zM175,294h20v1h-20zM469,294h19v1h-19zM175,295h20v1h-20zM470,295h18v1h-18zM176,296h20v1h-20zM470,296h19v1h-19zM177,297h20v1h-20zM471,297h18v1h-18zM177,298h20v1h-20zM471,298h18v1h-18zM178,299h20v1h-20zM471,299h18v1h-18zM178,300h21v1h-21zM472,300h18v1h-18zM179,301h20v1h-20zM472,301h18v1h-18zM180,302h20v1h-20zM473,302h17v1h-17zM180,303h20v1h-20zM473,303h18v1h-18zM181,304h20v1h-20zM473,304h18v1h-18zM158,305h6v1h-6zM182,305h20v1h-20zM473,305h18v1h-18zM155,306h11v1h-11zM182,306h20v1h-20zM474,306h18v1h-18zM154,307h13v1h-13zM183,307h20v1h-20zM474,307h18v1h-18zM152,308h16v1h-16zM183,308h20v1h-20zM474,308h18v1h-18zM151,309h17v1h-17zM184,309h20v1h-20zM475,309h17v1h-17zM150,310h18v1h-18zM185,310h20v1h-20zM475,310h18v1h-18zM149,311h20v1h-20zM185,311h20v1h-20zM475,311h18v1h-18zM147,312h22v1h-22zM186,312h20v1h-20zM476,312h17v1h-17zM146,313h23v1h-23zM187,313h20v1h-20zM476,313h17v1h-17zM146,314h23v1h-23zM187,314h20v1h-20zM476,314h18v1h-18zM145,315h24v1h-24zM188,315h20v1h-20zM476,315h18v1h-18zM144,316h24v1h-24zM188,316h20v1h-20zM477,316h17v1h-17zM143,317h25v1h-25zM189,317h19v1h-19zM477,317h17v1h-17zM142,318h25v1h-25zM190,318h19v1h-19zM477,318h17v1h-17zM142,319h24v1h-24zM190,319h19v1h-19zM477,319h18v1h-18zM141,320h24v1h-24zM191,320h18v1h-18zM477,320h18v1h-18zM140,321h24v1h-24zM191,321h18v1h-18zM478,321h17v1h-17zM140,322h22v1h-22zM192,322h16v1h-16zM478,322h17v1h-17zM139,323h22v1h-22zM193,323h15v1h-15zM478,323h17v1h-17zM139,324h21v1h-21zM193,324h14v1h-14zM478,324h18v1h-18zM138,325h21v1h-21zM194,325h13v1h-13zM478,325h18v1h-18zM138,326h20v1h-20zM195,326h11v1h-11zM479,326h17v1h-17zM137,327h20v1h-20zM197,327h7v1h-7zM479,327h17v1h-17zM137,328h19v1h-19zM479,328h17v1h-17zM137,329h18v1h-18zM479,329h17v1h-17zM136,330h19v1h-19zM479,330h17v1h-17zM136,331h18v1h-18zM479,331h18v1h-18zM136,332h18v1h-18zM479,332h18v1h-18zM136,333h17v1h-17zM480,333h17v1h-17zM135,334h18v1h-18zM480,334h17v1h-17zM135,335h18v1h-18zM480,335h17v1h-17zM135,336h18v1h-18zM480,336h17v1h-17zM135,337h17v1h-17zM480,337h17v1h-17zM135,338h17v1h-17zM480,338h18v1h-18zM135,339h17v1h-17zM480,339h18v1h-18zM135,340h17v1h-17zM481,340h17v1h-17zM135,341h17v1h-17zM481,341h17v1h-17zM134,342h18v1h-18zM481,342h17v1h-17zM134,343h17v1h-17zM481,343h17v1h-17zM134,344h17v1h-17zM481,344h17v1h-17zM134,345h18v1h-18zM481,345h18v1h-18zM135,346h17v1h-17zM481,346h18v1h-18zM135,347h17v1h-17zM482,347h17v1h-17zM135,348h17v1h-17zM482,348h17v1h-17zM135,349h17v1h-17zM482,349h17v1h-17zM135,350h17v1h-17zM482,350h17v1h-17zM135,351h17v1h-17zM482,351h17v1h-17zM135,352h18v1h-18zM482,352h17v1h-17zM135,353h18v1h-18zM482,353h18v1h-18zM136,354h17v1h-17zM482,354h18v1h-18zM136,355h17v1h-17zM483,355h17v1h-17zM136,356h18v1h-18zM483,356h17v1h-17zM136,357h18v1h-18zM483,357h17v1h-17zM137,358h18v1h-18zM483,358h17v1h-17zM137,359h18v1h-18zM483,359h18v1h-18zM137,360h18v1h-18zM483,360h18v1h-18zM137,361h19v1h-19zM484,361h17v1h-17zM138,362h18v1h-18zM484,362h17v1h-17zM138,363h19v1h-19zM484,363h17v1h-17zM139,364h18v1h-18zM484,364h17v1h-17zM139,365h19v1h-19zM484,365h18v1h-18zM139,366h20v1h-20zM484,366h18v1h-18zM140,367h19v1h-19zM485,367h17v1h-17zM140,368h20v1h-20zM485,368h17v1h-17zM141,369h20v1h-20zM485,369h18v1h-18zM141,370h20v1h-20zM485,370h18v1h-18zM142,371h20v1h-20zM486,371h17v1h-17zM142,372h21v1h-21zM486,372h17v1h-17zM143,373h21v1h-21zM486,373h18v1h-18zM143,374h22v1h-22zM486,374h18v1h-18zM144,375h22v1h-22zM486,375h18v1h-18zM145,376h21v1h-21zM487,376h17v1h-17zM145,377h22v1h-22zM487,377h18v1h-18zM146,378h23v1h-23zM487,378h18v1h-18zM147,379h23v1h-23zM487,379h18v1h-18zM147,380h24v1h-24zM488,380h17v1h-17zM148,381h24v1h-24zM488,381h18v1h-18zM149,382h25v1h-25zM488,382h18v1h-18zM150,383h25v1h-25zM488,383h18v1h-18zM151,384h26v1h-26zM489,384h18v1h-18zM152,385h26v1h-26zM489,385h18v1h-18zM152,386h28v1h-28zM489,386h18v1h-18zM153,387h29v1h-29zM490,387h18v1h-18zM154,388h30v1h-30zM490,388h18v1h-18zM155,389h30v1h-30zM490,389h18v1h-18zM156,390h31v1h-31zM491,390h18v1h-18zM158,391h31v1h-31zM491,391h18v1h-18zM159,392h32v1h-32zM491,392h18v1h-18zM160,393h33v1h-33zM492,393h18v1h-18zM161,394h33v1h-33zM492,394h18v1h-18zM162,395h34v1h-34zM492,395h19v1h-19zM164,396h34v1h-34zM493,396h18v1h-18zM165,397h35v1h-35zM493,397h18v1h-18zM167,398h34v1h-34zM491,398h21v1h-21zM169,399h34v1h-34zM489,399h23v1h-23zM170,400h35v1h-35zM487,400h25v1h-25zM172,401h34v1h-34zM486,401h26v1h-26zM174,402h34v1h-34zM484,402h28v1h-28zM176,403h34v1h-34zM482,403h30v1h-30zM177,404h35v1h-35zM480,404h31v1h-31zM179,405h34v1h-34zM479,405h32v1h-32zM181,406h34v1h-34zM477,406h33v1h-33zM183,407h34v1h-34zM475,407h34v1h-34zM184,408h34v1h-34zM474,408h34v1h-34zM186,409h34v1h-34zM472,409h34v1h-34zM188,410h34v1h-34zM470,410h34v1h-34zM190,411h33v1h-33zM468,411h34v1h-34zM191,412h34v1h-34zM467,412h34v1h-34zM193,413h33v1h-33zM465,413h34v1h-34zM195,414h33v1h-33zM463,414h34v1h-34zM197,415h33v1h-33zM461,415h35v1h-35zM198,416h33v1h-33zM460,416h34v1h-34zM200,417h33v1h-33zM458,417h34v1h-34zM202,418h32v1h-32zM456,418h34v1h-34zM203,419h33v1h-33zM454,419h35v1h-35zM205,420h33v1h-33zM453,420h34v1h-34zM207,421h32v1h-32zM451,421h34v1h-34zM208,422h33v1h-33zM449,422h34v1h-34zM210,423h32v1h-32zM448,423h34v1h-34zM212,424h32v1h-32zM446,424h34v1h-34zM213,425h32v1h-32zM444,425h34v1h-34zM215,426h32v1h-32zM442,426h34v1h-34zM217,427h31v1h-31zM441,427h34v1h-34zM218,428h32v1h-32zM439,428h34v1h-34zM220,429h31v1h-31zM437,429h34v1h-34zM221,430h32v1h-32zM435,430h35v1h-35zM223,431h31v1h-31zM434,431h34v1h-34zM225,432h31v1h-31zM432,432h34v1h-34zM226,433h31v1h-31zM430,433h34v1h-34zM228,434h30v1h-30zM428,434h35v1h-35zM229,435h31v1h-31zM427,435h34v1h-34zM231,436h30v1h-30zM425,436h34v1h-34zM232,437h31v1h-31zM423,437h34v1h-34zM234,438h30v1h-30zM422,438h34v1h-34zM235,439h31v1h-31zM420,439h34v1h-34zM237,440h30v1h-30zM418,440h34v1h-34zM238,441h30v1h-30zM416,441h34v1h-34zM240,442h30v1h-30zM415,442h34v1h-34zM241,443h30v1h-30zM413,443h34v1h-34zM243,444h30v1h-30zM411,444h34v1h-34zM244,445h30v1h-30zM409,445h35v1h-35zM246,446h29v1h-29zM408,446h34v1h-34zM247,447h30v1h-30zM406,447h34v1h-34zM249,448h29v1h-29zM404,448h34v1h-34zM250,449h29v1h-29zM403,449h34v1h-34zM252,450h28v1h-28zM401,450h34v1h-34zM253,451h29v1h-29zM399,451h34v1h-34zM254,452h29v1h-29zM397,452h34v1h-34zM256,453h28v1h-28zM396,453h34v1h-34zM257,454h29v1h-29zM394,454h34v1h-34zM259,455h28v1h-28zM392,455h34v1h-34zM260,456h28v1h-28zM390,456h35v1h-35zM261,457h28v1h-28zM389,457h34v1h-34zM263,458h28v1h-28zM387,458h34v1h-34zM264,459h28v1h-28zM385,459h34v1h-34zM265,460h28v1h-28zM383,460h35v1h-35zM267,461h27v1h-27zM382,461h34v1h-34zM268,462h27v1h-27zM380,462h34v1h-34zM269,463h28v1h-28zM378,463h34v1h-34zM271,464h27v1h-27zM377,464h34v1h-34zM272,465h27v1h-27zM375,465h34v1h-34zM273,466h27v1h-27zM373,466h34v1h-34zM275,467h26v1h-26zM371,467h34v1h-34zM276,468h27v1h-27zM370,468h34v1h-34zM277,469h27v1h-27zM368,469h34v1h-34zM278,470h27v1h-27zM366,470h34v1h-34zM280,471h26v1h-26zM364,471h35v1h-35zM281,472h26v1h-26zM363,472h34v1h-34zM282,473h26v1h-26zM361,473h34v1h-34zM283,474h26v1h-26zM359,474h34v1h-34zM284,475h26v1h-26zM357,475h35v1h-35zM286,476h25v1h-25zM356,476h34v1h-34zM287,477h26v1h-26zM354,477h34v1h-34zM288,478h26v1h-26zM352,478h34v1h-34zM289,479h26v1h-26zM351,479h34v1h-34zM290,480h26v1h-26zM349,480h34v1h-34zM292,481h25v1h-25zM347,481h34v1h-34zM293,482h25v1h-25zM345,482h34v1h-34zM294,483h25v1h-25zM344,483h34v1h-34zM295,484h25v1h-25zM342,484h34v1h-34zM296,485h25v1h-25zM340,485h34v1h-34zM297,486h25v1h-25zM338,486h35v1h-35zM298,487h25v1h-25zM337,487h34v1h-34zM299,488h25v1h-25zM335,488h34v1h-34zM300,489h25v1h-25zM333,489h34v1h-34zM301,490h25v1h-25zM331,490h35v1h-35zM303,491h24v1h-24zM330,491h34v1h-34zM304,492h58v1h-58zM305,493h55v1h-55zM306,494h53v1h-53zM307,495h50v1h-50zM308,496h47v1h-47zM309,497h44v1h-44zM310,498h42v1h-42zM311,499h39v1h-39zM312,500h36v1h-36zM313,501h34v1h-34zM314,502h31v1h-31zM314,503h29v1h-29zM315,504h26v1h-26zM316,505h24v1h-24zM317,506h21v1h-21zM318,507h18v1h-18zM319,508h15v1h-15zM320,509h13v1h-13zM322,510h9v1h-9zM324,511h5v1h-5z" fill="#000"/>
</svg>