<?xml version="1.0" encoding="UTF-8"?>
<svg xmlns="http://www.w3.org/2000/svg" width="512" height="512" viewBox="0 0 512 512">
<path d="M250,43h12v1h-12zM247,44h18v1h-18zM245,45h22v1h-22zM244,46h24v1h-24zM242,47h27v1h-27zM241,48h30v1h-30zM240,49h32v1h-32zM239,50h33v1h-33zM239,51h34v1h-34zM238,52h36v1h-36zM237,53h38v1h-38zM237,54h38v1h-38zM236,55h40v1h-40zM236,56h40v1h-40zM236,57h40v1h-40zM235,58h42v1h-42zM235,59h42v1h-42zM235,60h42v1h-42zM235,61h42v1h-42zM235,62h42v1h-42zM235,63h42v1h-42zM235,64h42v1h-42zM235,65h42v1h-42zM235,66h42v1h-42zM235,67h42v1h-42zM235,68h42v1h-42zM235,69h42v1h-42zM235,70h42v1h-42zM235,71h42v1h-42zM235,72h42v1h-42zM235,73h42v1h-42zM235,74h42v1h-42zM235,75h42v1h-42zM235,76h42v1h-42zM235,77h42v1h-42zM235,78h42v1h-42zM235,79h42v1h-42zM235,80h42v1h-42zM235,81h42v1h-42zM235,82h42v1h-42zM235,83h42v1h-42zM235,84h42v1h-42zM235,85h42v1h-42zM130,86h3v1h-3zM235,86h42v1h-42zM374,86h12v1h-12zM125,87h13v1h-13zM235,87h42v1h-42zM371,87h18v1h-18zM122,88h18v1h-18zM235,88h42v1h-42zM369,88h21v1h-21zM120,89h22v1h-22zM235,89h42v1h-42zM368,89h24v1h-24zM119,90h25v1h-25zM235,90h42v1h-42zM366,90h27v1h-27zM117,91h28v1h-28zM235,91h42v1h-42zM365,91h30v1h-30zM116,92h30v1h-30zM235,92h42v1h-42zM364,92h32v1h-32zM115,93h32v1h-32zM235,93h42v1h-42zM363,93h34v1h-34zM114,94h34v1h-34zM235,94h42v1h-42zM363,94h35v1h-35zM113,95h36v1h-36zM235,95h42v1h-42zM362,95h37v1h-37zM112,96h37v1h-37zM235,96h42v1h-42zM361,96h39v1h-39zM111,97h39v1h-39zM235,97h42v1h-42zM361,97h40v1h-40zM110,98h40v1h-40zM235,98h42v1h-42zM360,98h42v1h-42zM109,99h42v1h-42zM235,99h42v1h-42zM360,99h43v1h-43zM108,100h43v1h-43zM235,100h42v1h-42zM360,100h44v1h-44zM107,101h45v1h-45zM235,101h42v1h-42zM359,101h46v1h-46zM106,102h46v1h-46zM235,102h42v1h-42zM359,102h47v1h-47zM105,103h47v1h-47zM235,103h42v1h-42zM359,103h48v1h-48zM104,104h48v1h-48zM235,104h42v1h-42zM359,104h49v1h-49zM103,105h49v1h-49zM235,105h42v1h-42zM359,105h50v1h-50zM102,106h50v1h-50zM235,106h42v1h-42zM359,106h51v1h-51zM101,107h52v1h-52zM235,107h42v1h-42zM359,107h52v1h-52zM100,108h52v1h-52zM235,108h42v1h-42zM359,108h53v1h-53zM99,109h53v1h-53zM235,109h42v1h-42zM359,109h54v1h-54zM98,110h54v1h-54zM235,110h42v1h-42zM359,110h55v1h-55zM97,111h55v1h-55zM235,111h42v1h-42zM359,111h56v1h-56zM96,112h56v1h-56zM235,112h42v1h-42zM359,112h57v1h-57zM95,113h57v1h-57zM235,113h42v1h-42zM360,113h57v1h-57zM94,114h57v1h-57zM235,114h42v1h-42zM360,114h58v1h-58zM94,115h57v1h-57zM235,115h42v1h-42zM360,115h58v1h-58zM93,116h58v1h-58zM235,116h42v1h-42zM361,116h58v1h-58zM92,117h58v1h-58zM235,117h42v1h-42zM361,117h59v1h-59zM91,118h59v1h-59zM235,118h42v1h-42zM362,118h59v1h-59zM90,119h59v1h-59zM235,119h42v1h-42zM363,119h59v1h-59zM90,120h58v1h-58zM235,120h42v1h-42zM363,120h59v1h-59zM89,121h59v1h-59zM235,121h42v1h-42zM364,121h59v1h-59zM88,122h59v1h-59zM235,122h42v1h-42zM365,122h59v1h-59zM87,123h59v1h-59zM235,123h42v1h-42zM366,123h59v1h-59zM86,124h59v1h-59zM235,124h42v1h-42zM367,124h59v1h-59zM86,125h58v1h-58zM235,125h42v1h-42zM369,125h57v1h-57zM85,126h58v1h-58zM235,126h42v1h-42zM370,126h57v1h-57zM84,127h57v1h-57zM235,127h42v1h-42zM371,127h57v1h-57zM84,128h56v1h-56zM235,128h42v1h-42zM372,128h57v1h-57zM83,129h56v1h-56zM235,129h42v1h-42zM373,129h56v1h-56zM82,130h56v1h-56zM235,130h42v1h-42zM374,130h56v1h-56zM81,131h56v1h-56zM235,131h42v1h-42zM375,131h56v1h-56zM81,132h55v1h-55zM235,132h42v1h-42zM376,132h55v1h-55zM80,133h55v1h-55zM235,133h42v1h-42zM377,133h55v1h-55zM79,134h55v1h-55zM235,134h42v1h-42zM378,134h55v1h-55zM79,135h54v1h-54zM235,135h42v1h-42zM379,135h54v1h-54zM78,136h54v1h-54zM235,136h42v1h-42zM380,136h54v1h-54zM77,137h54v1h-54zM235,137h42v1h-42zM381,137h54v1h-54zM77,138h53v1h-53zM235,138h42v1h-42zM382,138h53v1h-53zM76,139h53v1h-53zM235,139h42v1h-42zM383,139h53v1h-53zM75,140h54v1h-54zM235,140h42v1h-42zM384,140h53v1h-53zM75,141h53v1h-53zM235,141h42v1h-42zM384,141h53v1h-53zM74,142h53v1h-53zM235,142h42v1h-42zM385,142h53v1h-53zM74,143h52v1h-52zM235,143h42v1h-42zM386,143h52v1h-52zM73,144h52v1h-52zM235,144h42v1h-42zM387,144h52v1h-52zM72,145h52v1h-52zM235,145h42v1h-42zM388,145h52v1h-52zM72,146h51v1h-51zM235,146h42v1h-42zM389,146h51v1h-51zM71,147h52v1h-52zM235,147h42v1h-42zM389,147h52v1h-52zM71,148h51v1h-51zM235,148h42v1h-42zM390,148h51v1h-51zM70,149h51v1h-51zM235,149h42v1h-42zM391,149h51v1h-51zM69,150h51v1h-51zM235,150h42v1h-42zM392,150h51v1h-51zM69,151h51v1h-51zM235,151h42v1h-42zM392,151h51v1h-51zM68,152h51v1h-51zM235,152h42v1h-42zM393,152h51v1h-51zM68,153h50v1h-50zM235,153h42v1h-42zM394,153h50v1h-50zM67,154h50v1h-50zM235,154h42v1h-42zM395,154h50v1h-50zM67,155h50v1h-50zM235,155h42v1h-42zM395,155h50v1h-50zM66,156h50v1h-50zM235,156h42v1h-42zM396,156h50v1h-50zM66,157h49v1h-49zM235,157h42v1h-42zM397,157h49v1h-49zM65,158h50v1h-50zM235,158h42v1h-42zM397,158h50v1h-50zM65,159h49v1h-49zM235,159h42v1h-42zM398,159h49v1h-49zM64,160h49v1h-49zM235,160h42v1h-42zM399,160h49v1h-49zM64,161h49v1h-49zM235,161h42v1h-42zM399,161h49v1h-49zM63,162h49v1h-49zM235,162h42v1h-42zM400,162h49v1h-49zM63,163h48v1h-48zM235,163h42v1h-42zM401,163h48v1h-48zM62,164h49v1h-49zM235,164h42v1h-42zM401,164h49v1h-49zM62,165h48v1h-48zM235,165h42v1h-42zM402,165h48v1h-48zM61,166h49v1h-49zM235,166h42v1h-42zM403,166h48v1h-48zM61,167h48v1h-48zM235,167h42v1h-42zM403,167h48v1h-48zM61,168h47v1h-47zM235,168h42v1h-42zM404,168h47v1h-47zM60,169h48v1h-48zM235,169h42v1h-42zM404,169h48v1h-48zM60,170h47v1h-47zM235,170h42v1h-42zM405,170h47v1h-47zM59,171h48v1h-48zM235,171h42v1h-42zM405,171h48v1h-48zM59,172h47v1h-47zM235,172h42v1h-42zM406,172h47v1h-47zM58,173h48v1h-48zM235,173h42v1h-42zM406,173h48v1h-48zM58,174h47v1h-47zM235,174h42v1h-42zM407,174h47v1h-47zM58,175h47v1h-47zM235,175h42v1h-42zM407,175h47v1h-47zM57,176h47v1h-47zM235,176h42v1h-42zM408,176h47v1h-47zM57,177h47v1h-47zM235,177h42v1h-42zM409,177h46v1h-46zM57,178h46v1h-46zM235,178h42v1h-42zM409,178h46v1h-46zM56,179h47v1h-47zM235,179h42v1h-42zM410,179h46v1h-46zM56,180h46v1h-46zM235,180h42v1h-42zM410,180h46v1h-46zM55,181h47v1h-47zM235,181h42v1h-42zM411,181h46v1h-46zM55,182h46v1h-46zM235,182h42v1h-42zM411,182h46v1h-46zM55,183h46v1h-46zM235,183h42v1h-42zM411,183h46v1h-46zM54,184h46v1h-46zM235,184h42v1h-42zM412,184h46v1h-46zM54,185h46v1h-46zM235,185h42v1h-42zM412,185h46v1h-46zM54,186h45v1h-45zM235,186h42v1h-42zM413,186h45v1h-45zM53,187h46v1h-46zM235,187h42v1h-42zM413,187h46v1h-46zM53,188h45v1h-45zM235,188h42v1h-42zM414,188h45v1h-45zM53,189h45v1h-45zM235,189h42v1h-42zM414,189h45v1h-45zM52,190h46v1h-46zM235,190h42v1h-42zM414,190h46v1h-46zM52,191h45v1h-45zM235,191h42v1h-42zM415,191h45v1h-45zM52,192h45v1h-45zM235,192h42v1h-42zM415,192h45v1h-45zM51,193h46v1h-46zM235,193h42v1h-42zM416,193h44v1h-44zM51,194h45v1h-45zM235,194h42v1h-42zM416,194h45v1h-45zM51,195h45v1h-45zM235,195h42v1h-42zM416,195h45v1h-45zM51,196h44v1h-44zM235,196h42v1h-42zM417,196h44v1h-44zM50,197h45v1h-45zM235,197h42v1h-42zM417,197h45v1h-45zM50,198h45v1h-45zM235,198h42v1h-42zM417,198h45v1h-45zM50,199h44v1h-44zM235,199h42v1h-42zM418,199h44v1h-44zM50,200h44v1h-44zM235,200h42v1h-42zM418,200h44v1h-44zM49,201h45v1h-45zM235,201h42v1h-42zM418,201h45v1h-45zM49,202h44v1h-44zM235,202h42v1h-42zM419,202h44v1h-44zM49,203h44v1h-44zM235,203h42v1h-42zM419,203h44v1h-44zM49,204h44v1h-44zM235,204h42v1h-42zM419,204h44v1h-44zM48,205h44v1h-44zM235,205h42v1h-42zM420,205h44v1h-44zM48,206h44v1h-44zM235,206h42v1h-42zM420,206h44v1h-44zM48,207h44v1h-44zM235,207h42v1h-42zM420,207h44v1h-44zM48,208h44v1h-44zM235,208h42v1h-42zM420,208h44v1h-44zM47,209h44v1h-44zM235,209h42v1h-42zM421,209h44v1h-44zM47,210h44v1h-44zM235,210h42v1h-42zM421,210h44v1h-44zM47,211h44v1h-44zM235,211h42v1h-42zM421,211h44v1h-44zM47,212h44v1h-44zM235,212h42v1h-42zM421,212h44v1h-44zM47,213h43v1h-43zM235,213h42v1h-42zM422,213h43v1h-43zM46,214h44v1h-44zM235,214h42v1h-42zM422,214h44v1h-44zM46,215h44v1h-44zM235,215h42v1h-42zM422,215h44v1h-44zM46,216h44v1h-44zM235,216h42v1h-42zM422,216h44v1h-44zM46,217h43v1h-43zM235,217h42v1h-42zM423,217h43v1h-43zM46,218h43v1h-43zM235,218h42v1h-42zM423,218h43v1h-43zM46,219h43v1h-43zM235,219h42v1h-42zM423,219h43v1h-43zM45,220h44v1h-44zM235,220h42v1h-42zM423,220h44v1h-44zM45,221h44v1h-44zM235,221h42v1h-42zM423,221h44v1h-44zM45,222h43v1h-43zM235,222h42v1h-42zM424,222h43v1h-43zM45,223h43v1h-43zM235,223h42v1h-42zM424,223h43v1h-43zM45,224h43v1h-43zM235,224h42v1h-42zM424,224h43v1h-43zM45,225h43v1h-43zM235,225h42v1h-42zM424,225h43v1h-43zM45,226h43v1h-43zM235,226h42v1h-42zM424,226h43v1h-43zM44,227h44v1h-44zM235,227h42v1h-42zM425,227h43v1h-43zM44,228h43v1h-43zM235,228h42v1h-42zM425,228h43v1h-43zM44,229h43v1h-43zM235,229h42v1h-42zM425,229h43v1h-43zM44,230h43v1h-43zM235,230h42v1h-42zM425,230h43v1h-43zM44,231h43v1h-43zM235,231h42v1h-42zM425,231h43v1h-43zM44,232h43v1h-43zM235,232h42v1h-42zM425,232h43v1h-43zM44,233h43v1h-43zM235,233h42v1h-42zM425,233h43v1h-43zM44,234h43v1h-43zM235,234h42v1h-42zM425,234h43v1h-43zM44,235h42v1h-42zM235,235h42v1h-42zM426,235h42v1h-42zM43,236h43v1h-43zM235,236h42v1h-42zM426,236h43v1h-43zM43,237h43v1h-43zM235,237h42v1h-42zM426,237h43v1h-43zM43,238h43v1h-43zM235,238h42v1h-42zM426,238h43v1h-43zM43,239h43v1h-43zM235,239h42v1h-42zM426,239h43v1h-43zM43,240h43v1h-43zM235,240h42v1h-42zM426,240h43v1h-43zM43,241h43v1h-43zM235,241h42v1h-42zM426,241h43v1h-43zM43,242h43v1h-43zM236,242h40v1h-40zM426,242h43v1h-43zM43,243h43v1h-43zM236,243h40v1h-40zM426,243h43v1h-43zM43,244h43v1h-43zM236,244h40v1h-40zM426,244h43v1h-43zM43,245h43v1h-43zM237,245h38v1h-38zM426,245h43v1h-43zM43,246h43v1h-43zM237,246h37v1h-37zM426,246h43v1h-43zM43,247h43v1h-43zM238,247h36v1h-36zM426,247h43v1h-43zM43,248h43v1h-43zM239,248h34v1h-34zM426,248h43v1h-43zM43,249h43v1h-43zM240,249h32v1h-32zM427,249h42v1h-42zM43,250h42v1h-42zM240,250h32v1h-32zM427,250h42v1h-42zM43,251h42v1h-42zM241,251h30v1h-30zM427,251h42v1h-42zM43,252h42v1h-42zM243,252h26v1h-26zM427,252h42v1h-42zM43,253h42v1h-42zM244,253h24v1h-24zM427,253h42v1h-42zM43,254h42v1h-42zM246,254h20v1h-20zM427,254h42v1h-42zM43,255h42v1h-42zM248,255h16v1h-16zM427,255h42v1h-42zM43,256h42v1h-42zM250,256h12v1h-12zM427,256h42v1h-42zM43,257h42v1h-42zM427,257h42v1h-42zM43,258h42v1h-42zM427,258h42v1h-42zM43,259h42v1h-42zM427,259h42v1h-42zM43,260h43v1h-43zM427,260h42v1h-42zM43,261h43v1h-43zM426,261h43v1h-43zM43,262h43v1h-43zM426,262h43v1h-43zM43,263h43v1h-43zM426,263h43v1h-43zM43,264h43v1h-43zM426,264h43v1h-43zM43,265h43v1h-43zM426,265h43v1h-43zM43,266h43v1h-43zM426,266h43v1h-43zM43,267h43v1h-43zM426,267h43v1h-43zM43,268h43v1h-43zM426,268h43v1h-43zM43,269h43v1h-43zM426,269h43v1h-43zM43,270h43v1h-43zM426,270h43v1h-43zM43,271h43v1h-43zM426,271h43v1h-43zM43,272h43v1h-43zM426,272h43v1h-43zM44,273h42v1h-42zM426,273h42v1h-42zM44,274h43v1h-43zM425,274h43v1h-43zM44,275h43v1h-43zM425,275h43v1h-43zM44,276h43v1h-43zM425,276h43v1h-43zM44,277h43v1h-43zM425,277h43v1h-43zM44,278h43v1h-43zM425,278h43v1h-43zM44,279h43v1h-43zM425,279h43v1h-43zM44,280h43v1h-43zM425,280h43v1h-43zM44,281h43v1h-43zM425,281h43v1h-43zM45,282h43v1h-43zM424,282h43v1h-43zM45,283h43v1h-43zM424,283h43v1h-43zM45,284h43v1h-43zM424,284h43v1h-43zM45,285h43v1h-43zM424,285h43v1h-43zM45,286h43v1h-43zM424,286h43v1h-43zM45,287h44v1h-44zM424,287h43v1h-43zM45,288h44v1h-44zM423,288h44v1h-44zM46,289h43v1h-43zM423,289h43v1h-43zM46,290h43v1h-43zM423,290h43v1h-43zM46,291h43v1h-43zM423,291h43v1h-43zM46,292h44v1h-44zM422,292h44v1h-44zM46,293h44v1h-44zM422,293h44v1h-44zM46,294h44v1h-44zM422,294h44v1h-44zM47,295h43v1h-43zM422,295h43v1h-43zM47,296h43v1h-43zM422,296h43v1h-43zM47,297h44v1h-44zM421,297h44v1h-44zM47,298h44v1h-44zM421,298h44v1h-44zM47,299h44v1h-44zM421,299h44v1h-44zM48,300h44v1h-44zM421,300h43v1h-43zM48,301h44v1h-44zM420,301h44v1h-44zM48,302h44v1h-44zM420,302h44v1h-44zM48,303h44v1h-44zM420,303h44v1h-44zM49,304h44v1h-44zM419,304h44v1h-44zM49,305h44v1h-44zM419,305h44v1h-44zM49,306h44v1h-44zM419,306h44v1h-44zM49,307h45v1h-45zM418,307h45v1h-45zM49,308h45v1h-45zM418,308h45v1h-45zM50,309h44v1h-44zM418,309h44v1h-44zM50,310h45v1h-45zM417,310h45v1h-45zM50,311h45v1h-45zM417,311h45v1h-45zM51,312h44v1h-44zM417,312h44v1h-44zM51,313h45v1h-45zM416,313h45v1h-45zM51,314h45v1h-45zM416,314h45v1h-45zM51,315h45v1h-45zM416,315h45v1h-45zM52,316h45v1h-45zM415,316h45v1h-45zM52,317h45v1h-45zM415,317h45v1h-45zM52,318h46v1h-46zM415,318h45v1h-45zM53,319h45v1h-45zM414,319h45v1h-45zM53,320h45v1h-45zM414,320h45v1h-45zM53,321h46v1h-46zM413,321h46v1h-46zM54,322h45v1h-45zM413,322h45v1h-45zM54,323h46v1h-46zM412,323h46v1h-46zM54,324h46v1h-46zM412,324h46v1h-46zM55,325h45v1h-45zM412,325h45v1h-45zM55,326h46v1h-46zM411,326h46v1h-46zM55,327h46v1h-46zM411,327h46v1h-46zM56,328h46v1h-46zM410,328h46v1h-46zM56,329h46v1h-46zM410,329h46v1h-46zM56,330h47v1h-47zM409,330h47v1h-47zM57,331h46v1h-46zM409,331h46v1h-46zM57,332h47v1h-47zM408,332h47v1h-47zM58,333h46v1h-46zM408,333h46v1h-46zM58,334h47v1h-47zM407,334h47v1h-47zM58,335h47v1h-47zM407,335h47v1h-47zM59,336h47v1h-47zM406,336h47v1h-47zM59,337h47v1h-47zM406,337h47v1h-47zM60,338h47v1h-47zM405,338h47v1h-47zM60,339h48v1h-48zM405,339h47v1h-47zM61,340h47v1h-47zM404,340h47v1h-47zM61,341h48v1h-48zM403,341h48v1h-48zM61,342h48v1h-48zM403,342h48v1h-48zM62,343h48v1h-48zM402,343h48v1h-48zM62,344h48v1h-48zM402,344h48v1h-48zM63,345h48v1h-48zM401,345h48v1h-48zM63,346h49v1h-49zM400,346h49v1h-49zM64,347h48v1h-48zM400,347h48v1h-48zM64,348h49v1h-49zM399,348h49v1h-49zM65,349h49v1h-49zM398,349h49v1h-49zM65,350h49v1h-49zM398,350h49v1h-49zM66,351h49v1h-49zM397,351h49v1h-49zM66,352h50v1h-50zM396,352h50v1h-50zM67,353h49v1h-49zM396,353h49v1h-49zM67,354h50v1h-50zM395,354h50v1h-50zM68,355h50v1h-50zM394,355h50v1h-50zM68,356h50v1h-50zM394,356h50v1h-50zM69,357h50v1h-50zM393,357h50v1h-50zM69,358h51v1h-51zM392,358h51v1h-51zM70,359h51v1h-51zM391,359h51v1h-51zM71,360h51v1h-51zM391,360h50v1h-50zM71,361h51v1h-51zM390,361h51v1h-51zM72,362h51v1h-51zM389,362h51v1h-51zM72,363h52v1h-52zM388,363h52v1h-52zM73,364h52v1h-52zM387,364h52v1h-52zM73,365h53v1h-53zM387,365h52v1h-52zM74,366h52v1h-52zM386,366h52v1h-52zM75,367h52v1h-52zM385,367h52v1h-52zM75,368h53v1h-53zM384,368h53v1h-53zM76,369h53v1h-53zM383,369h53v1h-53zM77,370h53v1h-53zM382,370h53v1h-53zM77,371h54v1h-54zM381,371h54v1h-54zM78,372h54v1h-54zM380,372h54v1h-54zM79,373h54v1h-54zM379,373h55v1h-55zM79,374h55v1h-55zM378,374h55v1h-55zM80,375h55v1h-55zM378,375h54v1h-54zM81,376h55v1h-55zM377,376h54v1h-54zM81,377h56v1h-56zM376,377h55v1h-55zM82,378h56v1h-56zM374,378h56v1h-56zM83,379h56v1h-56zM373,379h56v1h-56zM83,380h57v1h-57zM372,380h57v1h-57zM84,381h57v1h-57zM371,381h57v1h-57zM85,382h57v1h-57zM370,382h57v1h-57zM86,383h57v1h-57zM369,383h57v1h-57zM86,384h58v1h-58zM368,384h58v1h-58zM87,385h58v1h-58zM367,385h58v1h-58zM88,386h59v1h-59zM366,386h58v1h-58zM89,387h59v1h-59zM364,387h59v1h-59zM89,388h60v1h-60zM363,388h60v1h-60zM90,389h60v1h-60zM362,389h60v1h-60zM91,390h60v1h-60zM361,390h60v1h-60zM92,391h61v1h-61zM359,391h61v1h-61zM93,392h61v1h-61zM358,392h61v1h-61zM94,393h61v1h-61zM357,393h61v1h-61zM94,394h63v1h-63zM355,394h63v1h-63zM95,395h63v1h-63zM354,395h63v1h-63zM96,396h64v1h-64zM353,396h63v1h-63zM97,397h64v1h-64zM351,397h64v1h-64zM98,398h65v1h-65zM350,398h64v1h-64zM99,399h65v1h-65zM348,399h65v1h-65zM100,400h66v1h-66zM346,400h66v1h-66zM101,401h66v1h-66zM345,401h66v1h-66zM102,402h67v1h-67zM343,402h67v1h-67zM103,403h68v1h-68zM341,403h69v1h-69zM104,404h69v1h-69zM340,404h69v1h-69zM104,405h70v1h-70zM338,405h70v1h-70zM105,406h71v1h-71zM336,406h71v1h-71zM107,407h71v1h-71zM334,407h72v1h-72zM108,408h72v1h-72zM332,408h73v1h-73zM109,409h73v1h-73zM330,409h74v1h-74zM110,410h74v1h-74zM328,410h74v1h-74zM111,411h75v1h-75zM326,411h75v1h-75zM112,412h77v1h-77zM324,412h76v1h-76zM113,413h78v1h-78zM321,413h78v1h-78zM114,414h79v1h-79zM319,414h79v1h-79zM115,415h81v1h-81zM316,415h81v1h-81zM116,416h83v1h-83zM314,416h82v1h-82zM117,417h85v1h-85zM311,417h84v1h-84zM118,418h86v1h-86zM308,418h86v1h-86zM120,419h88v1h-88zM304,419h89v1h-89zM121,420h90v1h-90zM301,420h90v1h-90zM122,421h93v1h-93zM297,421h93v1h-93zM123,422h97v1h-97zM293,422h96v1h-96zM125,423h100v1h-100zM288,423h100v1h-100zM126,424h104v1h-104zM282,424h104v1h-104zM127,425h111v1h-111zM274,425h111v1h-111zM128,426h256v1h-256zM130,427h252v1h-252zM131,428h250v1h-250zM133,429h247v1h-247zM134,430h244v1h-244zM135,431h242v1h-242zM137,432h238v1h-238zM138,433h236v1h-236zM140,434h232v1h-232zM141,435h230v1h-230zM143,436h226v1h-226zM145,437h223v1h-223zM146,438h220v1h-220zM148,439h216v1h-216zM150,440h213v1h-213zM151,441h210v1h-210zM153,442h206v1h-206zM155,443h202v1h-202zM157,444h199v1h-199zM159,445h195v1h-195zM161,446h191v1h-191zM163,447h187v1h-187zM165,448h183v1h-183zM167,449h179v1h-179zM169,450h174v1h-174zM171,451h170v1h-170zM173,452h166v1h-166zM176,453h160v1h-160zM178,454h156v1h-156zM181,455h150v1h-150zM184,456h145v1h-145zM186,457h140v1h-140zM189,458h134v1h-134zM192,459h128v1h-128zM196,460h121v1h-121zM199,461h114v1h-114zM203,462h106v1h-106zM207,463h98v1h-98zM211,464h90v1h-90zM216,465h80v1h-80zM222,466h68v1h-68zM229,467h55v1h-55zM238,468h36v1h-36z" fill="#000"/>
</svg>