<?xml version="1.0" encoding="UTF-8"?>
<svg xmlns="http://www.w3.org/2000/svg" width="512" height="512" viewBox="0 0 512 512">
<path d="M11,0h241v1h-241zM9,1h245v1h-245zM7,2h249v1h-249zM5,3h252v1h-252zM4,4h255v1h-255zM3,5h257v1h-257zM3,6h258v1h-258zM2,7h260v1h-260zM2,8h261v1h-261zM1,9h263v1h-263zM1,10h264v1h-264zM0,11h266v1h-266zM0,12h267v1h-267zM0,13h268v1h-268zM0,14h269v1h-269zM0,15h270v1h-270zM0,16h271v1h-271zM0,17h272v1h-272zM0,18h273v1h-273zM0,19h274v1h-274zM0,20h275v1h-275zM0,21h276v1h-276zM0,22h277v1h-277zM0,23h278v1h-278zM0,24h279v1h-279zM0,25h280v1h-280zM0,26h281v1h-281zM0,27h282v1h-282zM0,28h283v1h-283zM0,29h284v1h-284zM0,30h30v1h-30zM233,30h52v1h-52zM0,31h30v1h-30zM233,31h53v1h-53zM0,32h30v1h-30zM233,32h54v1h-54zM0,33h30v1h-30zM233,33h55v1h-55zM0,34h30v1h-30zM233,34h56v1h-56zM0,35h30v1h-30zM233,35h57v1h-57zM0,36h30v1h-30zM233,36h58v1h-58zM0,37h30v1h-30zM233,37h59v1h-59zM0,38h30v1h-30zM233,38h60v1h-60zM0,39h30v1h-30zM233,39h61v1h-61zM0,40h30v1h-30zM233,40h62v1h-62zM0,41h30v1h-30zM233,41h63v1h-63zM0,42h30v1h-30zM233,42h64v1h-64zM0,43h30v1h-30zM233,43h65v1h-65zM0,44h30v1h-30zM233,44h66v1h-66zM0,45h30v1h-30zM233,45h67v1h-67zM0,46h30v1h-30zM233,46h68v1h-68zM0,47h30v1h-30zM233,47h69v1h-69zM0,48h30v1h-30zM233,48h70v1h-70zM0,49h30v1h-30zM233,49h71v1h-71zM0,50h30v1h-30zM233,50h72v1h-72zM0,51h30v1h-30zM233,51h73v1h-73zM0,52h30v1h-30zM233,52h30v1h-30zM264,52h43v1h-43zM0,53h30v1h-30zM233,53h30v1h-30zM265,53h43v1h-43zM0,54h30v1h-30zM233,54h30v1h-30zM266,54h43v1h-43zM0,55h30v1h-30zM233,55h30v1h-30zM267,55h43v1h-43zM0,56h30v1h-30zM233,56h30v1h-30zM268,56h43v1h-43zM0,57h30v1h-30zM233,57h30v1h-30zM269,57h43v1h-43zM0,58h30v1h-30zM233,58h30v1h-30zM270,58h43v1h-43zM0,59h30v1h-30zM233,59h30v1h-30zM271,59h43v1h-43zM0,60h30v1h-30zM233,60h30v1h-30zM272,60h43v1h-43zM0,61h30v1h-30zM233,61h30v1h-30zM273,61h43v1h-43zM0,62h30v1h-30zM233,62h30v1h-30zM274,62h43v1h-43zM0,63h30v1h-30zM233,63h30v1h-30zM275,63h43v1h-43zM0,64h30v1h-30zM233,64h30v1h-30zM276,64h43v1h-43zM0,65h30v1h-30zM233,65h30v1h-30zM277,65h43v1h-43zM0,66h30v1h-30zM233,66h30v1h-30zM278,66h43v1h-43zM0,67h30v1h-30zM233,67h30v1h-30zM279,67h43v1h-43zM0,68h30v1h-30zM233,68h30v1h-30zM280,68h43v1h-43zM0,69h30v1h-30zM233,69h30v1h-30zM281,69h43v1h-43zM0,70h30v1h-30zM233,70h30v1h-30zM282,70h43v1h-43zM0,71h30v1h-30zM233,71h30v1h-30zM283,71h43v1h-43zM0,72h30v1h-30zM233,72h30v1h-30zM284,72h43v1h-43zM0,73h30v1h-30zM233,73h30v1h-30zM285,73h43v1h-43zM0,74h30v1h-30zM233,74h30v1h-30zM286,74h43v1h-43zM0,75h30v1h-30zM233,75h30v1h-30zM287,75h43v1h-43zM0,76h30v1h-30zM233,76h30v1h-30zM288,76h43v1h-43zM0,77h30v1h-30zM233,77h30v1h-30zM289,77h43v1h-43zM0,78h30v1h-30zM233,78h30v1h-30zM290,78h43v1h-43zM0,79h30v1h-30zM233,79h30v1h-30zM291,79h43v1h-43zM0,80h30v1h-30zM233,80h30v1h-30zM292,80h43v1h-43zM0,81h30v1h-30zM233,81h30v1h-30zM293,81h43v1h-43zM0,82h30v1h-30zM233,82h30v1h-30zM294,82h43v1h-43zM0,83h30v1h-30zM233,83h30v1h-30zM295,83h43v1h-43zM0,84h30v1h-30zM233,84h30v1h-30zM296,84h43v1h-43zM0,85h30v1h-30zM233,85h30v1h-30zM297,85h43v1h-43zM0,86h30v1h-30zM233,86h30v1h-30zM298,86h43v1h-43zM0,87h30v1h-30zM233,87h30v1h-30zM299,87h43v1h-43zM0,88h30v1h-30zM233,88h30v1h-30zM300,88h43v1h-43zM0,89h30v1h-30zM233,89h30v1h-30zM301,89h43v1h-43zM0,90h30v1h-30zM233,90h30v1h-30zM302,90h43v1h-43zM0,91h30v1h-30zM233,91h30v1h-30zM303,91h43v1h-43zM0,92h30v1h-30zM233,92h30v1h-30zM304,92h43v1h-43zM0,93h30v1h-30zM233,93h30v1h-30zM305,93h43v1h-43zM0,94h30v1h-30zM233,94h30v1h-30zM306,94h43v1h-43zM0,95h30v1h-30zM233,95h30v1h-30zM307,95h43v1h-43zM0,96h30v1h-30zM233,96h30v1h-30zM308,96h43v1h-43zM0,97h30v1h-30zM233,97h30v1h-30zM309,97h43v1h-43zM0,98h30v1h-30zM233,98h30v1h-30zM310,98h43v1h-43zM0,99h30v1h-30zM233,99h30v1h-30zM311,99h43v1h-43zM0,100h30v1h-30zM233,100h30v1h-30zM312,100h43v1h-43zM0,101h30v1h-30zM233,101h30v1h-30zM313,101h43v1h-43zM0,102h30v1h-30zM233,102h30v1h-30zM314,102h43v1h-43zM0,103h30v1h-30zM233,103h30v1h-30zM315,103h43v1h-43zM0,104h30v1h-30zM233,104h30v1h-30zM316,104h43v1h-43zM0,105h30v1h-30zM233,105h30v1h-30zM317,105h43v1h-43zM0,106h30v1h-30zM233,106h30v1h-30zM318,106h43v1h-43zM0,107h30v1h-30zM233,107h30v1h-30zM319,107h43v1h-43zM0,108h30v1h-30zM233,108h30v1h-30zM320,108h43v1h-43zM0,109h30v1h-30zM233,109h30v1h-30zM321,109h43v1h-43zM0,110h30v1h-30zM233,110h30v1h-30zM322,110h43v1h-43zM0,111h30v1h-30zM233,111h30v1h-30zM323,111h43v1h-43zM0,112h30v1h-30zM233,112h30v1h-30zM324,112h43v1h-43zM0,113h30v1h-30zM233,113h30v1h-30zM325,113h43v1h-43zM0,114h30v1h-30zM233,114h30v1h-30zM326,114h43v1h-43zM0,115h30v1h-30zM233,115h30v1h-30zM327,115h43v1h-43zM0,116h30v1h-30zM233,116h30v1h-30zM328,116h43v1h-43zM0,117h30v1h-30zM233,117h30v1h-30zM329,117h43v1h-43zM0,118h30v1h-30zM233,118h30v1h-30zM330,118h43v1h-43zM0,119h30v1h-30zM233,119h30v1h-30zM331,119h43v1h-43zM0,120h30v1h-30zM233,120h30v1h-30zM332,120h43v1h-43zM0,121h30v1h-30zM233,121h30v1h-30zM333,121h43v1h-43zM0,122h30v1h-30zM233,122h30v1h-30zM334,122h43v1h-43zM0,123h30v1h-30zM233,123h30v1h-30zM335,123h43v1h-43zM0,124h30v1h-30zM233,124h30v1h-30zM336,124h43v1h-43zM0,125h30v1h-30zM233,125h30v1h-30zM337,125h43v1h-43zM0,126h30v1h-30zM233,126h30v1h-30zM338,126h43v1h-43zM0,127h30v1h-30zM233,127h30v1h-30zM339,127h43v1h-43zM0,128h30v1h-30zM233,128h30v1h-30zM339,128h44v1h-44zM0,129h30v1h-30zM233,129h151v1h-151zM0,130h30v1h-30zM233,130h152v1h-152zM0,131h30v1h-30zM233,131h153v1h-153zM0,132h30v1h-30zM233,132h154v1h-154zM0,133h30v1h-30zM233,133h155v1h-155zM0,134h30v1h-30zM233,134h155v1h-155zM0,135h30v1h-30zM233,135h156v1h-156zM0,136h30v1h-30zM233,136h157v1h-157zM0,137h30v1h-30zM233,137h157v1h-157zM0,138h30v1h-30zM233,138h158v1h-158zM0,139h30v1h-30zM233,139h158v1h-158zM0,140h30v1h-30zM233,140h158v1h-158zM0,141h30v1h-30zM233,141h158v1h-158zM0,142h30v1h-30zM233,142h158v1h-158zM0,143h30v1h-30zM233,143h158v1h-158zM0,144h30v1h-30zM233,144h159v1h-159zM0,145h30v1h-30zM233,145h159v1h-159zM0,146h30v1h-30zM233,146h159v1h-159zM0,147h30v1h-30zM234,147h158v1h-158zM0,148h30v1h-30zM234,148h158v1h-158zM0,149h30v1h-30zM234,149h158v1h-158zM0,150h30v1h-30zM235,150h157v1h-157zM0,151h30v1h-30zM235,151h157v1h-157zM0,152h30v1h-30zM236,152h156v1h-156zM0,153h30v1h-30zM237,153h155v1h-155zM0,154h30v1h-30zM238,154h154v1h-154zM0,155h30v1h-30zM239,155h153v1h-153zM0,156h30v1h-30zM241,156h151v1h-151zM0,157h30v1h-30zM243,157h149v1h-149zM0,158h30v1h-30zM248,158h144v1h-144zM0,159h30v1h-30zM361,159h31v1h-31zM0,160h30v1h-30zM361,160h31v1h-31zM0,161h30v1h-30zM361,161h31v1h-31zM0,162h30v1h-30zM361,162h31v1h-31zM0,163h30v1h-30zM361,163h31v1h-31zM0,164h30v1h-30zM361,164h31v1h-31zM0,165h30v1h-30zM361,165h31v1h-31zM0,166h30v1h-30zM361,166h31v1h-31zM0,167h30v1h-30zM361,167h31v1h-31zM0,168h30v1h-30zM361,168h31v1h-31zM0,169h30v1h-30zM361,169h31v1h-31zM0,170h30v1h-30zM361,170h31v1h-31zM0,171h30v1h-30zM361,171h31v1h-31zM0,172h30v1h-30zM361,172h31v1h-31zM0,173h30v1h-30zM361,173h31v1h-31zM0,174h30v1h-30zM361,174h31v1h-31zM0,175h30v1h-30zM361,175h31v1h-31zM0,176h30v1h-30zM361,176h31v1h-31zM0,177h30v1h-30zM361,177h31v1h-31zM0,178h30v1h-30zM361,178h31v1h-31zM0,179h30v1h-30zM361,179h31v1h-31zM0,180h30v1h-30zM361,180h31v1h-31zM0,181h30v1h-30zM361,181h31v1h-31zM0,182h30v1h-30zM361,182h31v1h-31zM0,183h30v1h-30zM361,183h31v1h-31zM0,184h30v1h-30zM361,184h31v1h-31zM0,185h30v1h-30zM361,185h31v1h-31zM0,186h30v1h-30zM361,186h31v1h-31zM0,187h30v1h-30zM361,187h31v1h-31zM0,188h30v1h-30zM361,188h31v1h-31zM0,189h30v1h-30zM361,189h31v1h-31zM0,190h30v1h-30zM361,190h31v1h-31zM0,191h30v1h-30zM361,191h31v1h-31zM0,192h30v1h-30zM361,192h31v1h-31zM0,193h30v1h-30zM361,193h31v1h-31zM0,194h30v1h-30zM361,194h31v1h-31zM0,195h30v1h-30zM361,195h31v1h-31zM0,196h30v1h-30zM361,196h31v1h-31zM0,197h30v1h-30zM361,197h31v1h-31zM0,198h30v1h-30zM361,198h31v1h-31zM0,199h30v1h-30zM361,199h31v1h-31zM0,200h30v1h-30zM361,200h31v1h-31zM0,201h30v1h-30zM361,201h31v1h-31zM0,202h30v1h-30zM361,202h31v1h-31zM0,203h30v1h-30zM361,203h31v1h-31zM0,204h30v1h-30zM361,204h31v1h-31zM0,205h30v1h-30zM361,205h31v1h-31zM0,206h30v1h-30zM361,206h31v1h-31zM0,207h30v1h-30zM361,207h31v1h-31zM0,208h30v1h-30zM361,208h31v1h-31zM0,209h30v1h-30zM361,209h31v1h-31zM0,210h30v1h-30zM361,210h31v1h-31zM0,211h30v1h-30zM361,211h31v1h-31zM0,212h30v1h-30zM361,212h31v1h-31zM0,213h30v1h-30zM361,213h31v1h-31zM0,214h30v1h-30zM361,214h31v1h-31zM0,215h30v1h-30zM361,215h31v1h-31zM0,216h30v1h-30zM361,216h31v1h-31zM0,217h30v1h-30zM361,217h31v1h-31zM0,218h30v1h-30zM361,218h31v1h-31zM0,219h30v1h-30zM361,219h31v1h-31zM0,220h30v1h-30zM361,220h31v1h-31zM0,221h30v1h-30zM361,221h31v1h-31zM0,222h30v1h-30zM361,222h31v1h-31zM0,223h30v1h-30zM361,223h31v1h-31zM0,224h30v1h-30zM361,224h31v1h-31zM0,225h30v1h-30zM361,225h31v1h-31zM0,226h30v1h-30zM361,226h31v1h-31zM0,227h30v1h-30zM361,227h31v1h-31zM0,228h30v1h-30zM361,228h31v1h-31zM0,229h30v1h-30zM361,229h31v1h-31zM0,230h30v1h-30zM361,230h31v1h-31zM0,231h30v1h-30zM361,231h31v1h-31zM0,232h30v1h-30zM361,232h31v1h-31zM0,233h30v1h-30zM361,233h31v1h-31zM0,234h30v1h-30zM361,234h31v1h-31zM0,235h30v1h-30zM361,235h31v1h-31zM0,236h30v1h-30zM361,236h31v1h-31zM0,237h30v1h-30zM361,237h31v1h-31zM0,238h30v1h-30zM361,238h31v1h-31zM0,239h30v1h-30zM361,239h31v1h-31zM0,240h30v1h-30zM361,240h31v1h-31zM0,241h30v1h-30zM361,241h31v1h-31zM0,242h30v1h-30zM357,242h39v1h-39zM0,243h30v1h-30zM351,243h51v1h-51zM0,244h30v1h-30zM346,244h61v1h-61zM0,245h30v1h-30zM342,245h69v1h-69zM0,246h30v1h-30zM338,246h77v1h-77zM0,247h30v1h-30zM335,247h83v1h-83zM0,248h30v1h-30zM332,248h89v1h-89zM0,249h30v1h-30zM330,249h93v1h-93zM0,250h30v1h-30zM327,250h99v1h-99zM0,251h30v1h-30zM324,251h105v1h-105zM0,252h30v1h-30zM322,252h109v1h-109zM0,253h30v1h-30zM320,253h113v1h-113zM0,254h30v1h-30zM318,254h117v1h-117zM0,255h30v1h-30zM316,255h121v1h-121zM0,256h30v1h-30zM314,256h125v1h-125zM0,257h30v1h-30zM312,257h129v1h-129zM0,258h30v1h-30zM310,258h133v1h-133zM0,259h30v1h-30zM309,259h135v1h-135zM0,260h30v1h-30zM307,260h139v1h-139zM0,261h30v1h-30zM305,261h143v1h-143zM0,262h30v1h-30zM303,262h147v1h-147zM0,263h30v1h-30zM302,263h149v1h-149zM0,264h30v1h-30zM301,264h151v1h-151zM0,265h30v1h-30zM299,265h155v1h-155zM0,266h30v1h-30zM298,266h157v1h-157zM0,267h30v1h-30zM296,267h161v1h-161zM0,268h30v1h-30zM295,268h163v1h-163zM0,269h30v1h-30zM293,269h167v1h-167zM0,270h30v1h-30zM292,270h169v1h-169zM0,271h30v1h-30zM291,271h75v1h-75zM387,271h75v1h-75zM0,272h30v1h-30zM290,272h69v1h-69zM394,272h69v1h-69zM0,273h30v1h-30zM289,273h65v1h-65zM399,273h65v1h-65zM0,274h30v1h-30zM288,274h62v1h-62zM403,274h62v1h-62zM0,275h30v1h-30zM286,275h60v1h-60zM407,275h60v1h-60zM0,276h30v1h-30zM285,276h58v1h-58zM410,276h58v1h-58zM0,277h30v1h-30zM284,277h56v1h-56zM413,277h56v1h-56zM0,278h30v1h-30zM283,278h55v1h-55zM415,278h55v1h-55zM0,279h30v1h-30zM282,279h53v1h-53zM418,279h53v1h-53zM0,280h30v1h-30zM281,280h52v1h-52zM420,280h52v1h-52zM0,281h30v1h-30zM280,281h51v1h-51zM422,281h51v1h-51zM0,282h30v1h-30zM279,282h50v1h-50zM424,282h50v1h-50zM0,283h30v1h-30zM278,283h49v1h-49zM426,283h49v1h-49zM0,284h30v1h-30zM277,284h48v1h-48zM428,284h48v1h-48zM0,285h30v1h-30zM276,285h47v1h-47zM430,285h47v1h-47zM0,286h30v1h-30zM275,286h47v1h-47zM431,286h47v1h-47zM0,287h30v1h-30zM275,287h45v1h-45zM433,287h45v1h-45zM0,288h30v1h-30zM274,288h44v1h-44zM435,288h44v1h-44zM0,289h30v1h-30zM273,289h44v1h-44zM436,289h44v1h-44zM0,290h30v1h-30zM272,290h44v1h-44zM437,290h44v1h-44zM0,291h30v1h-30zM271,291h43v1h-43zM439,291h43v1h-43zM0,292h30v1h-30zM270,292h43v1h-43zM440,292h43v1h-43zM0,293h30v1h-30zM270,293h42v1h-42zM441,293h42v1h-42zM0,294h30v1h-30zM269,294h41v1h-41zM443,294h41v1h-41zM0,295h30v1h-30zM268,295h41v1h-41zM444,295h41v1h-41zM0,296h30v1h-30zM267,296h41v1h-41zM445,296h41v1h-41zM0,297h30v1h-30zM267,297h40v1h-40zM446,297h40v1h-40zM0,298h30v1h-30zM266,298h40v1h-40zM447,298h40v1h-40zM0,299h30v1h-30zM265,299h40v1h-40zM448,299h40v1h-40zM0,300h30v1h-30zM265,300h39v1h-39zM449,300h39v1h-39zM0,301h30v1h-30zM264,301h38v1h-38zM451,301h38v1h-38zM0,302h30v1h-30zM263,302h38v1h-38zM452,302h38v1h-38zM0,303h30v1h-30zM262,303h39v1h-39zM452,303h39v1h-39zM0,304h30v1h-30zM262,304h38v1h-38zM453,304h38v1h-38zM0,305h30v1h-30zM261,305h38v1h-38zM454,305h38v1h-38zM0,306h30v1h-30zM261,306h37v1h-37zM455,306h37v1h-37zM0,307h30v1h-30zM260,307h37v1h-37zM456,307h37v1h-37zM0,308h30v1h-30zM259,308h37v1h-37zM457,308h37v1h-37zM0,309h30v1h-30zM259,309h36v1h-36zM458,309h36v1h-36zM0,310h30v1h-30zM258,310h36v1h-36zM459,310h36v1h-36zM0,311h30v1h-30zM258,311h36v1h-36zM459,311h36v1h-36zM0,312h30v1h-30zM257,312h36v1h-36zM460,312h36v1h-36zM0,313h30v1h-30zM257,313h35v1h-35zM461,313h35v1h-35zM0,314h30v1h-30zM256,314h35v1h-35zM462,314h35v1h-35zM0,315h30v1h-30zM256,315h35v1h-35zM462,315h35v1h-35zM0,316h30v1h-30zM255,316h35v1h-35zM463,316h35v1h-35zM0,317h30v1h-30zM255,317h34v1h-34zM464,317h34v1h-34zM0,318h30v1h-30zM254,318h34v1h-34zM465,318h34v1h-34zM0,319h30v1h-30zM254,319h34v1h-34zM465,319h34v1h-34zM0,320h30v1h-30zM253,320h34v1h-34zM466,320h34v1h-34zM0,321h30v1h-30zM253,321h34v1h-34zM375,321h3v1h-3zM466,321h34v1h-34zM0,322h30v1h-30zM252,322h34v1h-34zM371,322h11v1h-11zM467,322h34v1h-34zM0,323h30v1h-30zM252,323h33v1h-33zM369,323h15v1h-15zM468,323h33v1h-33zM0,324h30v1h-30zM251,324h34v1h-34zM367,324h19v1h-19zM468,324h34v1h-34zM0,325h30v1h-30zM251,325h33v1h-33zM366,325h21v1h-21zM469,325h33v1h-33zM0,326h30v1h-30zM251,326h33v1h-33zM365,326h23v1h-23zM469,326h33v1h-33zM0,327h30v1h-30zM250,327h33v1h-33zM364,327h25v1h-25zM470,327h33v1h-33zM0,328h30v1h-30zM250,328h33v1h-33zM364,328h25v1h-25zM470,328h33v1h-33zM0,329h30v1h-30zM250,329h32v1h-32zM363,329h27v1h-27zM471,329h32v1h-32zM0,330h30v1h-30zM249,330h33v1h-33zM363,330h27v1h-27zM471,330h33v1h-33zM0,331h30v1h-30zM249,331h32v1h-32zM362,331h29v1h-29zM472,331h32v1h-32zM0,332h30v1h-30zM248,332h33v1h-33zM362,332h29v1h-29zM472,332h33v1h-33zM0,333h30v1h-30zM248,333h32v1h-32zM362,333h29v1h-29zM473,333h32v1h-32zM0,334h30v1h-30zM248,334h32v1h-32zM362,334h29v1h-29zM473,334h32v1h-32zM0,335h30v1h-30zM247,335h32v1h-32zM362,335h29v1h-29zM474,335h32v1h-32zM0,336h30v1h-30zM247,336h32v1h-32zM362,336h29v1h-29zM474,336h32v1h-32zM0,337h30v1h-30zM247,337h32v1h-32zM361,337h31v1h-31zM474,337h32v1h-32zM0,338h30v1h-30zM246,338h32v1h-32zM361,338h31v1h-31zM475,338h32v1h-32zM0,339h30v1h-30zM246,339h32v1h-32zM361,339h31v1h-31zM475,339h32v1h-32zM0,340h30v1h-30zM246,340h31v1h-31zM361,340h31v1h-31zM476,340h31v1h-31zM0,341h30v1h-30zM246,341h31v1h-31zM361,341h31v1h-31zM476,341h31v1h-31zM0,342h30v1h-30zM245,342h32v1h-32zM361,342h31v1h-31zM476,342h32v1h-32zM0,343h30v1h-30zM245,343h31v1h-31zM361,343h31v1h-31zM477,343h31v1h-31zM0,344h30v1h-30zM245,344h31v1h-31zM361,344h31v1h-31zM477,344h31v1h-31zM0,345h30v1h-30zM245,345h31v1h-31zM361,345h31v1h-31zM477,345h31v1h-31zM0,346h30v1h-30zM244,346h31v1h-31zM361,346h31v1h-31zM478,346h31v1h-31zM0,347h30v1h-30zM244,347h31v1h-31zM361,347h31v1h-31zM478,347h31v1h-31zM0,348h30v1h-30zM244,348h31v1h-31zM361,348h31v1h-31zM478,348h31v1h-31zM0,349h30v1h-30zM244,349h31v1h-31zM361,349h31v1h-31zM478,349h31v1h-31zM0,350h30v1h-30zM244,350h30v1h-30zM361,350h31v1h-31zM479,350h30v1h-30zM0,351h30v1h-30zM243,351h31v1h-31zM361,351h31v1h-31zM479,351h31v1h-31zM0,352h30v1h-30zM243,352h31v1h-31zM361,352h31v1h-31zM479,352h31v1h-31zM0,353h30v1h-30zM243,353h31v1h-31zM361,353h31v1h-31zM479,353h31v1h-31zM0,354h30v1h-30zM243,354h30v1h-30zM361,354h31v1h-31zM480,354h30v1h-30zM0,355h30v1h-30zM243,355h30v1h-30zM361,355h31v1h-31zM480,355h30v1h-30zM0,356h30v1h-30zM243,356h30v1h-30zM361,356h31v1h-31zM480,356h30v1h-30zM0,357h30v1h-30zM242,357h31v1h-31zM361,357h31v1h-31zM480,357h31v1h-31zM0,358h30v1h-30zM242,358h31v1h-31zM361,358h31v1h-31zM480,358h31v1h-31zM0,359h30v1h-30zM242,359h30v1h-30zM361,359h31v1h-31zM481,359h30v1h-30zM0,360h30v1h-30zM242,360h30v1h-30zM361,360h31v1h-31zM481,360h30v1h-30zM0,361h30v1h-30zM242,361h30v1h-30zM337,361h79v1h-79zM481,361h30v1h-30zM0,362h30v1h-30zM242,362h30v1h-30zM331,362h91v1h-91zM481,362h30v1h-30zM0,363h30v1h-30zM242,363h30v1h-30zM329,363h95v1h-95zM481,363h30v1h-30zM0,364h30v1h-30zM242,364h30v1h-30zM327,364h99v1h-99zM481,364h30v1h-30zM0,365h30v1h-30zM242,365h30v1h-30zM326,365h101v1h-101zM481,365h30v1h-30zM0,366h30v1h-30zM241,366h30v1h-30zM325,366h103v1h-103zM482,366h30v1h-30zM0,367h30v1h-30zM241,367h30v1h-30zM324,367h105v1h-105zM482,367h30v1h-30zM0,368h30v1h-30zM241,368h30v1h-30zM324,368h105v1h-105zM482,368h30v1h-30zM0,369h30v1h-30zM241,369h30v1h-30zM323,369h107v1h-107zM482,369h30v1h-30zM0,370h30v1h-30zM241,370h30v1h-30zM323,370h107v1h-107zM482,370h30v1h-30zM0,371h30v1h-30zM241,371h30v1h-30zM322,371h109v1h-109zM482,371h30v1h-30zM0,372h30v1h-30zM241,372h30v1h-30zM322,372h109v1h-109zM482,372h30v1h-30zM0,373h30v1h-30zM241,373h30v1h-30zM322,373h109v1h-109zM482,373h30v1h-30zM0,374h30v1h-30zM241,374h30v1h-30zM322,374h109v1h-109zM482,374h30v1h-30zM0,375h30v1h-30zM241,375h30v1h-30zM321,375h111v1h-111zM482,375h30v1h-30zM0,376h30v1h-30zM241,376h30v1h-30zM321,376h111v1h-111zM482,376h30v1h-30zM0,377h30v1h-30zM241,377h30v1h-30zM321,377h111v1h-111zM482,377h30v1h-30zM0,378h30v1h-30zM241,378h30v1h-30zM322,378h109v1h-109zM482,378h30v1h-30zM0,379h30v1h-30zM241,379h30v1h-30zM322,379h109v1h-109zM482,379h30v1h-30zM0,380h30v1h-30zM241,380h30v1h-30zM322,380h109v1h-109zM482,380h30v1h-30zM0,381h30v1h-30zM241,381h30v1h-30zM322,381h109v1h-109zM482,381h30v1h-30zM0,382h30v1h-30zM241,382h30v1h-30zM323,382h107v1h-107zM482,382h30v1h-30zM0,383h30v1h-30zM241,383h30v1h-30zM323,383h107v1h-107zM482,383h30v1h-30zM0,384h30v1h-30zM241,384h30v1h-30zM324,384h105v1h-105zM482,384h30v1h-30zM0,385h30v1h-30zM242,385h29v1h-29zM324,385h105v1h-105zM482,385h30v1h-30zM0,386h30v1h-30zM242,386h29v1h-29zM325,386h103v1h-103zM482,386h30v1h-30zM0,387h30v1h-30zM242,387h30v1h-30zM326,387h101v1h-101zM481,387h30v1h-30zM0,388h30v1h-30zM242,388h30v1h-30zM327,388h99v1h-99zM481,388h30v1h-30zM0,389h30v1h-30zM242,389h30v1h-30zM329,389h95v1h-95zM481,389h30v1h-30zM0,390h30v1h-30zM242,390h30v1h-30zM331,390h91v1h-91zM481,390h30v1h-30zM0,391h30v1h-30zM242,391h30v1h-30zM337,391h79v1h-79zM481,391h30v1h-30zM0,392h30v1h-30zM242,392h30v1h-30zM361,392h31v1h-31zM481,392h30v1h-30zM0,393h30v1h-30zM242,393h30v1h-30zM361,393h31v1h-31zM481,393h30v1h-30zM0,394h30v1h-30zM242,394h31v1h-31zM361,394h31v1h-31zM480,394h31v1h-31zM0,395h30v1h-30zM242,395h31v1h-31zM361,395h31v1h-31zM480,395h31v1h-31zM0,396h30v1h-30zM243,396h30v1h-30zM361,396h31v1h-31zM480,396h30v1h-30zM0,397h30v1h-30zM243,397h30v1h-30zM361,397h31v1h-31zM480,397h30v1h-30zM0,398h30v1h-30zM243,398h30v1h-30zM361,398h31v1h-31zM480,398h30v1h-30zM0,399h30v1h-30zM243,399h31v1h-31zM361,399h31v1h-31zM479,399h31v1h-31zM0,400h30v1h-30zM243,400h31v1h-31zM361,400h31v1h-31zM479,400h31v1h-31zM0,401h30v1h-30zM244,401h30v1h-30zM361,401h31v1h-31zM479,401h31v1h-31zM0,402h30v1h-30zM244,402h30v1h-30zM361,402h31v1h-31zM479,402h30v1h-30zM0,403h30v1h-30zM244,403h31v1h-31zM361,403h31v1h-31zM478,403h31v1h-31zM0,404h30v1h-30zM244,404h31v1h-31zM361,404h31v1h-31zM478,404h31v1h-31zM0,405h30v1h-30zM244,405h31v1h-31zM361,405h31v1h-31zM478,405h31v1h-31zM0,406h30v1h-30zM244,406h31v1h-31zM361,406h31v1h-31zM478,406h31v1h-31zM0,407h30v1h-30zM245,407h31v1h-31zM361,407h31v1h-31zM477,407h31v1h-31zM0,408h30v1h-30zM245,408h31v1h-31zM361,408h31v1h-31zM477,408h31v1h-31zM0,409h30v1h-30zM245,409h31v1h-31zM361,409h31v1h-31zM477,409h31v1h-31zM0,410h30v1h-30zM245,410h32v1h-32zM361,410h31v1h-31zM476,410h32v1h-32zM0,411h30v1h-30zM246,411h31v1h-31zM361,411h31v1h-31zM476,411h31v1h-31zM0,412h30v1h-30zM246,412h31v1h-31zM361,412h31v1h-31zM476,412h31v1h-31zM0,413h30v1h-30zM246,413h32v1h-32zM361,413h31v1h-31zM475,413h32v1h-32zM0,414h30v1h-30zM247,414h31v1h-31zM361,414h31v1h-31zM475,414h31v1h-31zM0,415h30v1h-30zM247,415h32v1h-32zM361,415h31v1h-31zM474,415h32v1h-32zM0,416h30v1h-30zM247,416h32v1h-32zM362,416h29v1h-29zM474,416h32v1h-32zM0,417h30v1h-30zM248,417h31v1h-31zM362,417h29v1h-29zM474,417h32v1h-32zM0,418h30v1h-30zM248,418h32v1h-32zM362,418h29v1h-29zM473,418h32v1h-32zM0,419h30v1h-30zM248,419h32v1h-32zM362,419h29v1h-29zM473,419h32v1h-32zM0,420h30v1h-30zM248,420h33v1h-33zM362,420h29v1h-29zM472,420h33v1h-33zM0,421h30v1h-30zM249,421h32v1h-32zM362,421h29v1h-29zM472,421h32v1h-32zM0,422h30v1h-30zM249,422h33v1h-33zM363,422h27v1h-27zM471,422h33v1h-33zM0,423h30v1h-30zM249,423h33v1h-33zM363,423h27v1h-27zM471,423h32v1h-32zM0,424h30v1h-30zM250,424h33v1h-33zM364,424h25v1h-25zM470,424h33v1h-33zM0,425h30v1h-30zM250,425h33v1h-33zM364,425h25v1h-25zM470,425h33v1h-33zM0,426h30v1h-30zM251,426h33v1h-33zM365,426h23v1h-23zM469,426h33v1h-33zM0,427h30v1h-30zM251,427h33v1h-33zM366,427h21v1h-21zM469,427h33v1h-33zM0,428h30v1h-30zM252,428h33v1h-33zM367,428h19v1h-19zM468,428h34v1h-34zM0,429h30v1h-30zM252,429h33v1h-33zM369,429h15v1h-15zM468,429h33v1h-33zM0,430h30v1h-30zM252,430h34v1h-34zM371,430h11v1h-11zM467,430h34v1h-34zM0,431h30v1h-30zM253,431h34v1h-34zM375,431h3v1h-3zM466,431h34v1h-34zM0,432h30v1h-30zM253,432h34v1h-34zM466,432h34v1h-34zM0,433h30v1h-30zM254,433h34v1h-34zM465,433h34v1h-34zM0,434h30v1h-30zM254,434h34v1h-34zM465,434h34v1h-34zM0,435h30v1h-30zM255,435h34v1h-34zM464,435h34v1h-34zM0,436h30v1h-30zM255,436h35v1h-35zM463,436h35v1h-35zM0,437h30v1h-30zM256,437h35v1h-35zM462,437h35v1h-35zM0,438h30v1h-30zM256,438h35v1h-35zM462,438h35v1h-35zM0,439h30v1h-30zM257,439h35v1h-35zM461,439h35v1h-35zM0,440h30v1h-30zM257,440h36v1h-36zM460,440h36v1h-36zM0,441h30v1h-30zM258,441h36v1h-36zM459,441h36v1h-36zM0,442h30v1h-30zM258,442h36v1h-36zM459,442h36v1h-36zM0,443h30v1h-30zM259,443h36v1h-36zM458,443h36v1h-36zM0,444h30v1h-30zM260,444h36v1h-36zM457,444h37v1h-37zM0,445h30v1h-30zM260,445h37v1h-37zM456,445h37v1h-37zM0,446h30v1h-30zM261,446h37v1h-37zM455,446h37v1h-37zM0,447h30v1h-30zM261,447h38v1h-38zM454,447h38v1h-38zM0,448h30v1h-30zM262,448h38v1h-38zM453,448h38v1h-38zM0,449h30v1h-30zM262,449h39v1h-39zM452,449h38v1h-38zM0,450h30v1h-30zM263,450h38v1h-38zM452,450h38v1h-38zM0,451h30v1h-30zM264,451h38v1h-38zM451,451h38v1h-38zM0,452h30v1h-30zM265,452h39v1h-39zM449,452h40v1h-40zM0,453h30v1h-30zM265,453h40v1h-40zM448,453h40v1h-40zM0,454h30v1h-30zM266,454h40v1h-40zM447,454h40v1h-40zM0,455h30v1h-30zM267,455h40v1h-40zM446,455h40v1h-40zM0,456h30v1h-30zM267,456h41v1h-41zM445,456h41v1h-41zM0,457h30v1h-30zM268,457h41v1h-41zM444,457h41v1h-41zM0,458h30v1h-30zM269,458h41v1h-41zM443,458h41v1h-41zM0,459h30v1h-30zM270,459h42v1h-42zM441,459h42v1h-42zM0,460h30v1h-30zM270,460h43v1h-43zM440,460h43v1h-43zM0,461h30v1h-30zM271,461h43v1h-43zM439,461h43v1h-43zM0,462h30v1h-30zM272,462h44v1h-44zM437,462h44v1h-44zM0,463h30v1h-30zM273,463h44v1h-44zM436,463h44v1h-44zM0,464h30v1h-30zM274,464h44v1h-44zM435,464h44v1h-44zM0,465h30v1h-30zM275,465h45v1h-45zM433,465h45v1h-45zM0,466h30v1h-30zM276,466h46v1h-46zM431,466h47v1h-47zM0,467h30v1h-30zM276,467h47v1h-47zM430,467h47v1h-47zM0,468h30v1h-30zM277,468h48v1h-48zM428,468h48v1h-48zM0,469h30v1h-30zM278,469h49v1h-49zM426,469h49v1h-49zM0,470h30v1h-30zM279,470h50v1h-50zM424,470h50v1h-50zM0,471h30v1h-30zM280,471h51v1h-51zM422,471h51v1h-51zM0,472h30v1h-30zM281,472h52v1h-52zM420,472h52v1h-52zM0,473h30v1h-30zM282,473h53v1h-53zM418,473h53v1h-53zM0,474h30v1h-30zM283,474h55v1h-55zM415,474h55v1h-55zM0,475h30v1h-30zM284,475h56v1h-56zM413,475h56v1h-56zM0,476h30v1h-30zM285,476h58v1h-58zM410,476h58v1h-58zM0,477h30v1h-30zM287,477h59v1h-59zM407,477h60v1h-60zM0,478h30v1h-30zM288,478h62v1h-62zM403,478h62v1h-62zM0,479h30v1h-30zM289,479h65v1h-65zM399,479h65v1h-65zM0,480h30v1h-30zM290,480h69v1h-69zM394,480h69v1h-69zM0,481h30v1h-30zM291,481h75v1h-75zM387,481h75v1h-75zM0,482h461v1h-461zM0,483h459v1h-459zM0,484h458v1h-458zM0,485h457v1h-457zM0,486h455v1h-455zM0,487h454v1h-454zM0,488h453v1h-453zM0,489h451v1h-451zM0,490h449v1h-449zM0,491h448v1h-448zM0,492h446v1h-446zM0,493h445v1h-445zM0,494h443v1h-443zM0,495h441v1h-441zM0,496h439v1h-439zM0,497h437v1h-437zM0,498h435v1h-435zM0,499h433v1h-433zM0,500h431v1h-431zM1,501h428v1h-428zM1,502h425v1h-425zM2,503h421v1h-421zM2,504h419v1h-419zM3,505h415v1h-415zM3,506h411v1h-411zM4,507h407v1h-407zM5,508h402v1h-402zM7,509h395v1h-395zM9,510h387v1h-387zM11,511h376v1h-376z" fill="#000"/>
</svg>