<?xml version="1.0" encoding="UTF-8"?>
<svg xmlns="http://www.w3.org/2000/svg" width="512" height="512" viewBox="0 0 512 512">
<path d="M215,10h176v1h-176zM211,11h184v1h-184zM208,12h190v1h-190zM206,13h194v1h-194zM204,14h198v1h-198zM202,15h202v1h-202zM200,16h206v1h-206zM199,17h208v1h-208zM198,18h211v1h-211zM197,19h213v1h-213zM196,20h215v1h-215zM195,21h217v1h-217zM194,22h219v1h-219zM193,23h221v1h-221zM192,24h223v1h-223zM191,25h27v1h-27zM388,25h27v1h-27zM191,26h23v1h-23zM392,26h24v1h-24zM190,27h22v1h-22zM394,27h23v1h-23zM190,28h20v1h-20zM396,28h21v1h-21zM189,29h20v1h-20zM398,29h20v1h-20zM189,30h18v1h-18zM399,30h19v1h-19zM188,31h18v1h-18zM400,31h19v1h-19zM188,32h17v1h-17zM401,32h18v1h-18zM187,33h17v1h-17zM402,33h18v1h-18zM187,34h17v1h-17zM403,34h17v1h-17zM187,35h16v1h-16zM404,35h16v1h-16zM187,36h16v1h-16zM404,36h17v1h-17zM186,37h16v1h-16zM405,37h16v1h-16zM186,38h172v1h-172zM405,38h16v1h-16zM181,39h182v1h-182zM405,39h16v1h-16zM178,40h188v1h-188zM406,40h15v1h-15zM175,41h194v1h-194zM406,41h15v1h-15zM173,42h198v1h-198zM406,42h15v1h-15zM171,43h202v1h-202zM406,43h15v1h-15zM170,44h204v1h-204zM406,44h15v1h-15zM168,45h208v1h-208zM406,45h15v1h-15zM167,46h210v1h-210zM406,46h15v1h-15zM166,47h212v1h-212zM406,47h15v1h-15zM165,48h214v1h-214zM406,48h15v1h-15zM163,49h218v1h-218zM406,49h15v1h-15zM163,50h218v1h-218zM406,50h15v1h-15zM162,51h220v1h-220zM406,51h15v1h-15zM161,52h222v1h-222zM406,52h15v1h-15zM160,53h224v1h-224zM406,53h15v1h-15zM159,54h26v1h-26zM358,54h27v1h-27zM406,54h15v1h-15zM159,55h23v1h-23zM362,55h23v1h-23zM406,55h15v1h-15zM158,56h21v1h-21zM364,56h22v1h-22zM406,56h15v1h-15zM158,57h20v1h-20zM366,57h20v1h-20zM406,57h15v1h-15zM157,58h19v1h-19zM367,58h20v1h-20zM406,58h15v1h-15zM157,59h18v1h-18zM368,59h19v1h-19zM406,59h15v1h-15zM156,60h18v1h-18zM369,60h19v1h-19zM406,60h15v1h-15zM156,61h17v1h-17zM370,61h18v1h-18zM406,61h15v1h-15zM156,62h17v1h-17zM371,62h17v1h-17zM406,62h15v1h-15zM155,63h17v1h-17zM372,63h17v1h-17zM406,63h15v1h-15zM155,64h16v1h-16zM372,64h17v1h-17zM406,64h15v1h-15zM155,65h16v1h-16zM373,65h16v1h-16zM406,65h15v1h-15zM153,66h176v1h-176zM373,66h16v1h-16zM406,66h15v1h-15zM148,67h185v1h-185zM373,67h17v1h-17zM406,67h15v1h-15zM145,68h191v1h-191zM374,68h16v1h-16zM406,68h15v1h-15zM143,69h195v1h-195zM374,69h16v1h-16zM406,69h15v1h-15zM141,70h199v1h-199zM374,70h16v1h-16zM406,70h15v1h-15zM139,71h203v1h-203zM374,71h16v1h-16zM406,71h15v1h-15zM137,72h206v1h-206zM374,72h16v1h-16zM406,72h15v1h-15zM136,73h209v1h-209zM374,73h16v1h-16zM406,73h15v1h-15zM135,74h211v1h-211zM374,74h16v1h-16zM406,74h15v1h-15zM133,75h214v1h-214zM374,75h16v1h-16zM406,75h15v1h-15zM132,76h216v1h-216zM374,76h16v1h-16zM406,76h15v1h-15zM131,77h218v1h-218zM374,77h16v1h-16zM406,77h15v1h-15zM130,78h220v1h-220zM374,78h16v1h-16zM406,78h15v1h-15zM130,79h221v1h-221zM374,79h16v1h-16zM406,79h15v1h-15zM129,80h223v1h-223zM374,80h16v1h-16zM406,80h15v1h-15zM128,81h29v1h-29zM160,81h192v1h-192zM374,81h16v1h-16zM406,81h15v1h-15zM127,82h25v1h-25zM328,82h25v1h-25zM374,82h16v1h-16zM406,82h15v1h-15zM127,83h22v1h-22zM331,83h23v1h-23zM374,83h16v1h-16zM406,83h15v1h-15zM126,84h21v1h-21zM333,84h21v1h-21zM374,84h16v1h-16zM406,84h15v1h-15zM126,85h20v1h-20zM334,85h21v1h-21zM374,85h16v1h-16zM406,85h15v1h-15zM125,86h19v1h-19zM336,86h19v1h-19zM374,86h16v1h-16zM406,86h15v1h-15zM125,87h18v1h-18zM337,87h19v1h-19zM374,87h16v1h-16zM406,87h15v1h-15zM124,88h18v1h-18zM338,88h18v1h-18zM374,88h16v1h-16zM406,88h15v1h-15zM124,89h17v1h-17zM339,89h17v1h-17zM374,89h16v1h-16zM406,89h15v1h-15zM124,90h17v1h-17zM340,90h17v1h-17zM374,90h16v1h-16zM406,90h15v1h-15zM123,91h17v1h-17zM340,91h17v1h-17zM374,91h16v1h-16zM406,91h15v1h-15zM123,92h16v1h-16zM341,92h16v1h-16zM374,92h16v1h-16zM406,92h15v1h-15zM123,93h16v1h-16zM341,93h16v1h-16zM374,93h16v1h-16zM406,93h15v1h-15zM123,94h16v1h-16zM342,94h16v1h-16zM374,94h16v1h-16zM406,94h15v1h-15zM123,95h15v1h-15zM342,95h16v1h-16zM374,95h16v1h-16zM406,95h15v1h-15zM123,96h15v1h-15zM165,96h152v1h-152zM342,96h16v1h-16zM374,96h16v1h-16zM406,96h15v1h-15zM122,97h16v1h-16zM163,97h155v1h-155zM342,97h16v1h-16zM374,97h16v1h-16zM406,97h15v1h-15zM122,98h16v1h-16zM162,98h157v1h-157zM342,98h16v1h-16zM374,98h16v1h-16zM406,98h15v1h-15zM122,99h16v1h-16zM161,99h159v1h-159zM342,99h16v1h-16zM374,99h16v1h-16zM406,99h15v1h-15zM122,100h16v1h-16zM161,100h159v1h-159zM342,100h16v1h-16zM374,100h16v1h-16zM406,100h15v1h-15zM122,101h16v1h-16zM161,101h160v1h-160zM342,101h16v1h-16zM374,101h16v1h-16zM406,101h15v1h-15zM122,102h16v1h-16zM160,102h161v1h-161zM342,102h16v1h-16zM374,102h16v1h-16zM406,102h15v1h-15zM122,103h16v1h-16zM160,103h161v1h-161zM342,103h16v1h-16zM374,103h16v1h-16zM406,103h15v1h-15zM122,104h16v1h-16zM160,104h161v1h-161zM342,104h16v1h-16zM374,104h16v1h-16zM406,104h15v1h-15zM122,105h16v1h-16zM161,105h160v1h-160zM342,105h16v1h-16zM374,105h16v1h-16zM406,105h15v1h-15zM122,106h16v1h-16zM161,106h159v1h-159zM342,106h16v1h-16zM374,106h16v1h-16zM406,106h15v1h-15zM122,107h16v1h-16zM161,107h159v1h-159zM342,107h16v1h-16zM374,107h16v1h-16zM406,107h15v1h-15zM122,108h16v1h-16zM162,108h157v1h-157zM342,108h16v1h-16zM374,108h16v1h-16zM406,108h15v1h-15zM122,109h16v1h-16zM163,109h155v1h-155zM342,109h16v1h-16zM374,109h16v1h-16zM406,109h15v1h-15zM122,110h16v1h-16zM165,110h151v1h-151zM342,110h16v1h-16zM374,110h16v1h-16zM406,110h15v1h-15zM122,111h16v1h-16zM342,111h16v1h-16zM374,111h16v1h-16zM406,111h15v1h-15zM122,112h16v1h-16zM342,112h16v1h-16zM374,112h16v1h-16zM406,112h15v1h-15zM122,113h16v1h-16zM342,113h16v1h-16zM374,113h16v1h-16zM406,113h15v1h-15zM122,114h16v1h-16zM342,114h16v1h-16zM374,114h16v1h-16zM406,114h15v1h-15zM122,115h16v1h-16zM342,115h16v1h-16zM374,115h16v1h-16zM406,115h15v1h-15zM122,116h16v1h-16zM342,116h16v1h-16zM374,116h16v1h-16zM406,116h15v1h-15zM122,117h16v1h-16zM342,117h16v1h-16zM374,117h16v1h-16zM406,117h15v1h-15zM122,118h16v1h-16zM342,118h16v1h-16zM374,118h16v1h-16zM406,118h15v1h-15zM122,119h16v1h-16zM342,119h16v1h-16zM374,119h16v1h-16zM406,119h15v1h-15zM122,120h16v1h-16zM342,120h16v1h-16zM374,120h16v1h-16zM406,120h15v1h-15zM122,121h16v1h-16zM342,121h16v1h-16zM374,121h16v1h-16zM406,121h15v1h-15zM122,122h16v1h-16zM342,122h16v1h-16zM374,122h16v1h-16zM406,122h15v1h-15zM122,123h16v1h-16zM167,123h78v1h-78zM274,123h41v1h-41zM342,123h16v1h-16zM374,123h16v1h-16zM406,123h15v1h-15zM122,124h16v1h-16zM164,124h84v1h-84zM272,124h45v1h-45zM342,124h16v1h-16zM374,124h16v1h-16zM406,124h15v1h-15zM122,125h16v1h-16zM163,125h86v1h-86zM270,125h49v1h-49zM342,125h16v1h-16zM374,125h16v1h-16zM406,125h15v1h-15zM122,126h16v1h-16zM162,126h88v1h-88zM269,126h50v1h-50zM342,126h16v1h-16zM374,126h16v1h-16zM406,126h15v1h-15zM122,127h16v1h-16zM161,127h89v1h-89zM269,127h51v1h-51zM342,127h16v1h-16zM374,127h16v1h-16zM406,127h15v1h-15zM122,128h16v1h-16zM161,128h90v1h-90zM268,128h53v1h-53zM342,128h16v1h-16zM374,128h16v1h-16zM406,128h15v1h-15zM122,129h16v1h-16zM160,129h91v1h-91zM268,129h53v1h-53zM342,129h16v1h-16zM374,129h16v1h-16zM406,129h15v1h-15zM122,130h16v1h-16zM160,130h91v1h-91zM268,130h53v1h-53zM342,130h16v1h-16zM374,130h16v1h-16zM406,130h15v1h-15zM122,131h16v1h-16zM160,131h91v1h-91zM268,131h53v1h-53zM342,131h16v1h-16zM374,131h16v1h-16zM406,131h15v1h-15zM122,132h16v1h-16zM160,132h91v1h-91zM268,132h53v1h-53zM342,132h16v1h-16zM374,132h16v1h-16zM406,132h15v1h-15zM122,133h16v1h-16zM161,133h90v1h-90zM268,133h53v1h-53zM342,133h16v1h-16zM374,133h16v1h-16zM406,133h15v1h-15zM122,134h16v1h-16zM161,134h90v1h-90zM269,134h51v1h-51zM342,134h16v1h-16zM374,134h16v1h-16zM406,134h15v1h-15zM122,135h16v1h-16zM162,135h88v1h-88zM269,135h51v1h-51zM342,135h16v1h-16zM374,135h16v1h-16zM406,135h15v1h-15zM122,136h16v1h-16zM163,136h86v1h-86zM270,136h49v1h-49zM342,136h16v1h-16zM374,136h16v1h-16zM406,136h15v1h-15zM122,137h16v1h-16zM164,137h84v1h-84zM271,137h47v1h-47zM342,137h16v1h-16zM374,137h16v1h-16zM406,137h15v1h-15zM122,138h16v1h-16zM166,138h80v1h-80zM274,138h41v1h-41zM342,138h16v1h-16zM374,138h16v1h-16zM406,138h15v1h-15zM122,139h16v1h-16zM342,139h16v1h-16zM374,139h16v1h-16zM406,139h15v1h-15zM122,140h16v1h-16zM342,140h16v1h-16zM374,140h16v1h-16zM406,140h15v1h-15zM122,141h16v1h-16zM342,141h16v1h-16zM374,141h16v1h-16zM406,141h15v1h-15zM122,142h16v1h-16zM342,142h16v1h-16zM374,142h16v1h-16zM406,142h15v1h-15zM122,143h16v1h-16zM342,143h16v1h-16zM374,143h16v1h-16zM406,143h15v1h-15zM122,144h16v1h-16zM342,144h16v1h-16zM374,144h16v1h-16zM406,144h15v1h-15zM122,145h16v1h-16zM342,145h16v1h-16zM374,145h16v1h-16zM406,145h15v1h-15zM122,146h16v1h-16zM342,146h16v1h-16zM374,146h16v1h-16zM406,146h15v1h-15zM122,147h16v1h-16zM342,147h16v1h-16zM374,147h16v1h-16zM406,147h15v1h-15zM122,148h16v1h-16zM342,148h16v1h-16zM374,148h16v1h-16zM406,148h15v1h-15zM122,149h16v1h-16zM342,149h16v1h-16zM374,149h16v1h-16zM406,149h15v1h-15zM122,150h16v1h-16zM342,150h16v1h-16zM374,150h16v1h-16zM406,150h15v1h-15zM122,151h16v1h-16zM342,151h16v1h-16zM374,151h16v1h-16zM406,151h15v1h-15zM122,152h16v1h-16zM165,152h24v1h-24zM212,152h104v1h-104zM342,152h16v1h-16zM374,152h16v1h-16zM406,152h15v1h-15zM122,153h16v1h-16zM164,153h27v1h-27zM210,153h108v1h-108zM342,153h16v1h-16zM374,153h16v1h-16zM406,153h15v1h-15zM122,154h16v1h-16zM162,154h30v1h-30zM208,154h111v1h-111zM342,154h16v1h-16zM374,154h16v1h-16zM406,154h15v1h-15zM122,155h16v1h-16zM162,155h31v1h-31zM208,155h112v1h-112zM342,155h16v1h-16zM374,155h16v1h-16zM406,155h15v1h-15zM122,156h16v1h-16zM161,156h32v1h-32zM207,156h113v1h-113zM342,156h16v1h-16zM374,156h16v1h-16zM406,156h15v1h-15zM122,157h16v1h-16zM161,157h33v1h-33zM207,157h114v1h-114zM342,157h16v1h-16zM374,157h16v1h-16zM406,157h15v1h-15zM122,158h16v1h-16zM160,158h34v1h-34zM206,158h115v1h-115zM342,158h16v1h-16zM374,158h16v1h-16zM406,158h15v1h-15zM122,159h16v1h-16zM160,159h34v1h-34zM206,159h115v1h-115zM342,159h16v1h-16zM374,159h16v1h-16zM406,159h15v1h-15zM122,160h16v1h-16zM160,160h34v1h-34zM206,160h115v1h-115zM342,160h16v1h-16zM374,160h16v1h-16zM406,160h15v1h-15zM122,161h16v1h-16zM160,161h34v1h-34zM207,161h114v1h-114zM342,161h16v1h-16zM374,161h16v1h-16zM406,161h15v1h-15zM122,162h16v1h-16zM161,162h33v1h-33zM207,162h113v1h-113zM342,162h16v1h-16zM374,162h16v1h-16zM406,162h15v1h-15zM122,163h16v1h-16zM161,163h32v1h-32zM207,163h113v1h-113zM342,163h16v1h-16zM374,163h16v1h-16zM406,163h15v1h-15zM122,164h16v1h-16zM162,164h30v1h-30zM208,164h111v1h-111zM342,164h16v1h-16zM374,164h16v1h-16zM406,164h15v1h-15zM122,165h16v1h-16zM163,165h28v1h-28zM209,165h109v1h-109zM342,165h16v1h-16zM374,165h16v1h-16zM406,165h15v1h-15zM122,166h16v1h-16zM164,166h26v1h-26zM210,166h107v1h-107zM342,166h16v1h-16zM374,166h16v1h-16zM406,166h15v1h-15zM122,167h16v1h-16zM342,167h16v1h-16zM374,167h16v1h-16zM406,167h15v1h-15zM122,168h16v1h-16zM342,168h16v1h-16zM374,168h16v1h-16zM406,168h15v1h-15zM122,169h16v1h-16zM342,169h16v1h-16zM374,169h16v1h-16zM406,169h15v1h-15zM122,170h16v1h-16zM342,170h16v1h-16zM374,170h16v1h-16zM406,170h15v1h-15zM122,171h16v1h-16zM342,171h16v1h-16zM374,171h16v1h-16zM406,171h15v1h-15zM122,172h16v1h-16zM342,172h16v1h-16zM374,172h16v1h-16zM406,172h15v1h-15zM122,173h16v1h-16zM342,173h16v1h-16zM374,173h16v1h-16zM406,173h15v1h-15zM122,174h16v1h-16zM342,174h16v1h-16zM374,174h16v1h-16zM406,174h15v1h-15zM122,175h16v1h-16zM342,175h16v1h-16zM374,175h16v1h-16zM406,175h15v1h-15zM122,176h16v1h-16zM342,176h16v1h-16zM374,176h16v1h-16zM406,176h15v1h-15zM122,177h16v1h-16zM342,177h16v1h-16zM374,177h16v1h-16zM406,177h15v1h-15zM122,178h16v1h-16zM342,178h16v1h-16zM374,178h16v1h-16zM406,178h15v1h-15zM122,179h16v1h-16zM342,179h16v1h-16zM374,179h16v1h-16zM406,179h15v1h-15zM122,180h16v1h-16zM183,180h71v1h-71zM275,180h42v1h-42zM342,180h16v1h-16zM374,180h16v1h-16zM406,180h15v1h-15zM57,181h89v1h-89zM181,181h75v1h-75zM274,181h44v1h-44zM342,181h16v1h-16zM374,181h16v1h-16zM406,181h15v1h-15zM54,182h95v1h-95zM180,182h77v1h-77zM273,182h46v1h-46zM342,182h16v1h-16zM374,182h16v1h-16zM406,182h15v1h-15zM51,183h101v1h-101zM180,183h77v1h-77zM272,183h48v1h-48zM342,183h16v1h-16zM374,183h16v1h-16zM406,183h15v1h-15zM49,184h104v1h-104zM179,184h79v1h-79zM271,184h49v1h-49zM342,184h16v1h-16zM374,184h16v1h-16zM406,184h15v1h-15zM48,185h107v1h-107zM179,185h79v1h-79zM271,185h50v1h-50zM342,185h16v1h-16zM374,185h16v1h-16zM406,185h15v1h-15zM46,186h110v1h-110zM179,186h79v1h-79zM271,186h50v1h-50zM342,186h16v1h-16zM374,186h16v1h-16zM406,186h15v1h-15zM45,187h113v1h-113zM179,187h80v1h-80zM271,187h50v1h-50zM342,187h16v1h-16zM374,187h16v1h-16zM406,187h15v1h-15zM44,188h115v1h-115zM179,188h79v1h-79zM271,188h50v1h-50zM342,188h16v1h-16zM374,188h16v1h-16zM406,188h15v1h-15zM43,189h117v1h-117zM179,189h79v1h-79zM271,189h50v1h-50zM342,189h16v1h-16zM374,189h16v1h-16zM406,189h15v1h-15zM42,190h119v1h-119zM179,190h79v1h-79zM272,190h48v1h-48zM342,190h16v1h-16zM374,190h16v1h-16zM406,190h15v1h-15zM41,191h120v1h-120zM180,191h77v1h-77zM272,191h48v1h-48zM342,191h16v1h-16zM374,191h16v1h-16zM406,191h15v1h-15zM41,192h121v1h-121zM181,192h76v1h-76zM273,192h46v1h-46zM342,192h16v1h-16zM374,192h16v1h-16zM406,192h15v1h-15zM40,193h123v1h-123zM182,193h73v1h-73zM274,193h44v1h-44zM342,193h16v1h-16zM374,193h16v1h-16zM406,193h15v1h-15zM40,194h123v1h-123zM184,194h70v1h-70zM276,194h40v1h-40zM342,194h16v1h-16zM374,194h16v1h-16zM406,194h15v1h-15zM39,195h125v1h-125zM342,195h16v1h-16zM374,195h16v1h-16zM406,195h15v1h-15zM39,196h21v1h-21zM140,196h24v1h-24zM342,196h16v1h-16zM374,196h16v1h-16zM406,196h15v1h-15zM38,197h19v1h-19zM143,197h21v1h-21zM342,197h16v1h-16zM374,197h16v1h-16zM406,197h15v1h-15zM38,198h18v1h-18zM145,198h20v1h-20zM342,198h16v1h-16zM374,198h16v1h-16zM406,198h15v1h-15zM38,199h17v1h-17zM146,199h19v1h-19zM342,199h16v1h-16zM374,199h16v1h-16zM406,199h15v1h-15zM38,200h16v1h-16zM147,200h18v1h-18zM342,200h16v1h-16zM374,200h16v1h-16zM406,200h15v1h-15zM38,201h15v1h-15zM147,201h18v1h-18zM342,201h16v1h-16zM374,201h16v1h-16zM406,201h15v1h-15zM37,202h16v1h-16zM148,202h17v1h-17zM342,202h16v1h-16zM374,202h16v1h-16zM406,202h15v1h-15zM37,203h16v1h-16zM148,203h17v1h-17zM342,203h16v1h-16zM374,203h16v1h-16zM406,203h15v1h-15zM37,204h16v1h-16zM148,204h17v1h-17zM342,204h16v1h-16zM374,204h16v1h-16zM406,204h15v1h-15zM37,205h16v1h-16zM148,205h18v1h-18zM342,205h16v1h-16zM374,205h16v1h-16zM406,205h15v1h-15zM37,206h16v1h-16zM148,206h18v1h-18zM342,206h16v1h-16zM374,206h16v1h-16zM406,206h15v1h-15zM37,207h16v1h-16zM148,207h18v1h-18zM342,207h16v1h-16zM374,207h16v1h-16zM406,207h15v1h-15zM37,208h16v1h-16zM148,208h19v1h-19zM342,208h16v1h-16zM374,208h16v1h-16zM406,208h15v1h-15zM37,209h16v1h-16zM149,209h19v1h-19zM342,209h16v1h-16zM374,209h16v1h-16zM406,209h15v1h-15zM37,210h16v1h-16zM149,210h19v1h-19zM342,210h16v1h-16zM374,210h16v1h-16zM406,210h15v1h-15zM37,211h16v1h-16zM149,211h21v1h-21zM342,211h16v1h-16zM374,211h16v1h-16zM406,211h15v1h-15zM37,212h16v1h-16zM150,212h21v1h-21zM342,212h16v1h-16zM374,212h47v1h-47zM37,213h16v1h-16zM150,213h272v1h-272zM37,214h16v1h-16zM151,214h288v1h-288zM37,215h16v1h-16zM151,215h292v1h-292zM37,216h16v1h-16zM152,216h294v1h-294zM37,217h16v1h-16zM152,217h297v1h-297zM37,218h16v1h-16zM153,218h298v1h-298zM37,219h16v1h-16zM154,219h299v1h-299zM37,220h16v1h-16zM155,220h300v1h-300zM37,221h16v1h-16zM156,221h300v1h-300zM37,222h16v1h-16zM157,222h301v1h-301zM37,223h16v1h-16zM158,223h301v1h-301zM37,224h16v1h-16zM159,224h301v1h-301zM37,225h16v1h-16zM161,225h300v1h-300zM37,226h16v1h-16zM163,226h300v1h-300zM37,227h16v1h-16zM165,227h299v1h-299zM37,228h16v1h-16zM169,228h296v1h-296zM37,229h16v1h-16zM436,229h29v1h-29zM37,230h16v1h-16zM440,230h26v1h-26zM37,231h16v1h-16zM443,231h24v1h-24zM37,232h16v1h-16zM445,232h23v1h-23zM37,233h16v1h-16zM446,233h23v1h-23zM37,234h16v1h-16zM448,234h21v1h-21zM37,235h16v1h-16zM449,235h21v1h-21zM37,236h16v1h-16zM451,236h20v1h-20zM37,237h16v1h-16zM452,237h19v1h-19zM37,238h16v1h-16zM453,238h19v1h-19zM37,239h16v1h-16zM454,239h18v1h-18zM37,240h16v1h-16zM455,240h18v1h-18zM37,241h16v1h-16zM455,241h18v1h-18zM37,242h16v1h-16zM456,242h17v1h-17zM37,243h16v1h-16zM457,243h17v1h-17zM37,244h16v1h-16zM457,244h17v1h-17zM37,245h16v1h-16zM458,245h16v1h-16zM37,246h16v1h-16zM458,246h17v1h-17zM37,247h16v1h-16zM459,247h16v1h-16zM37,248h16v1h-16zM459,248h16v1h-16zM37,249h16v1h-16zM460,249h15v1h-15zM37,250h16v1h-16zM460,250h15v1h-15zM37,251h16v1h-16zM460,251h15v1h-15zM37,252h16v1h-16zM460,252h15v1h-15zM37,253h16v1h-16zM460,253h16v1h-16zM37,254h16v1h-16zM93,254h28v1h-28zM154,254h29v1h-29zM216,254h28v1h-28zM460,254h16v1h-16zM37,255h16v1h-16zM89,255h36v1h-36zM151,255h35v1h-35zM212,255h36v1h-36zM460,255h16v1h-16zM37,256h16v1h-16zM88,256h38v1h-38zM149,256h38v1h-38zM211,256h38v1h-38zM460,256h16v1h-16zM37,257h16v1h-16zM87,257h40v1h-40zM149,257h39v1h-39zM210,257h40v1h-40zM460,257h16v1h-16zM37,258h16v1h-16zM86,258h42v1h-42zM148,258h41v1h-41zM209,258h41v1h-41zM460,258h16v1h-16zM37,259h16v1h-16zM86,259h42v1h-42zM147,259h42v1h-42zM209,259h42v1h-42zM460,259h16v1h-16zM37,260h16v1h-16zM86,260h42v1h-42zM147,260h43v1h-43zM209,260h42v1h-42zM460,260h16v1h-16zM37,261h16v1h-16zM86,261h42v1h-42zM147,261h43v1h-43zM208,261h43v1h-43zM460,261h16v1h-16zM37,262h16v1h-16zM86,262h43v1h-43zM147,262h43v1h-43zM208,262h43v1h-43zM460,262h16v1h-16zM37,263h16v1h-16zM86,263h43v1h-43zM147,263h43v1h-43zM208,263h43v1h-43zM460,263h16v1h-16zM37,264h16v1h-16zM86,264h43v1h-43zM147,264h43v1h-43zM208,264h43v1h-43zM460,264h16v1h-16zM37,265h16v1h-16zM86,265h43v1h-43zM147,265h43v1h-43zM208,265h43v1h-43zM460,265h16v1h-16zM37,266h16v1h-16zM86,266h43v1h-43zM147,266h43v1h-43zM208,266h43v1h-43zM460,266h16v1h-16zM37,267h16v1h-16zM86,267h43v1h-43zM147,267h43v1h-43zM208,267h43v1h-43zM460,267h16v1h-16zM37,268h16v1h-16zM86,268h43v1h-43zM147,268h43v1h-43zM208,268h43v1h-43zM460,268h16v1h-16zM37,269h16v1h-16zM86,269h43v1h-43zM147,269h43v1h-43zM208,269h43v1h-43zM460,269h16v1h-16zM37,270h16v1h-16zM86,270h15v1h-15zM113,270h16v1h-16zM147,270h15v1h-15zM175,270h15v1h-15zM208,270h16v1h-16zM236,270h15v1h-15zM460,270h16v1h-16zM37,271h16v1h-16zM86,271h15v1h-15zM113,271h16v1h-16zM147,271h15v1h-15zM175,271h15v1h-15zM208,271h16v1h-16zM236,271h15v1h-15zM460,271h16v1h-16zM37,272h16v1h-16zM86,272h15v1h-15zM113,272h16v1h-16zM147,272h15v1h-15zM175,272h15v1h-15zM208,272h16v1h-16zM236,272h15v1h-15zM460,272h16v1h-16zM37,273h16v1h-16zM86,273h15v1h-15zM113,273h16v1h-16zM147,273h15v1h-15zM175,273h15v1h-15zM208,273h16v1h-16zM236,273h15v1h-15zM460,273h16v1h-16zM37,274h16v1h-16zM86,274h15v1h-15zM113,274h16v1h-16zM147,274h15v1h-15zM175,274h15v1h-15zM208,274h16v1h-16zM236,274h15v1h-15zM460,274h16v1h-16zM37,275h16v1h-16zM86,275h15v1h-15zM113,275h16v1h-16zM147,275h15v1h-15zM175,275h15v1h-15zM208,275h16v1h-16zM236,275h15v1h-15zM460,275h16v1h-16zM37,276h16v1h-16zM86,276h15v1h-15zM113,276h16v1h-16zM147,276h15v1h-15zM175,276h15v1h-15zM208,276h16v1h-16zM236,276h15v1h-15zM460,276h16v1h-16zM37,277h16v1h-16zM86,277h15v1h-15zM113,277h16v1h-16zM147,277h15v1h-15zM175,277h15v1h-15zM208,277h16v1h-16zM236,277h15v1h-15zM460,277h16v1h-16zM37,278h16v1h-16zM86,278h15v1h-15zM113,278h16v1h-16zM147,278h15v1h-15zM175,278h15v1h-15zM208,278h16v1h-16zM236,278h15v1h-15zM460,278h16v1h-16zM37,279h16v1h-16zM86,279h15v1h-15zM113,279h16v1h-16zM147,279h15v1h-15zM175,279h15v1h-15zM208,279h16v1h-16zM236,279h15v1h-15zM460,279h16v1h-16zM37,280h16v1h-16zM86,280h15v1h-15zM113,280h16v1h-16zM147,280h15v1h-15zM175,280h15v1h-15zM208,280h16v1h-16zM236,280h15v1h-15zM460,280h16v1h-16zM37,281h16v1h-16zM86,281h15v1h-15zM113,281h16v1h-16zM147,281h15v1h-15zM175,281h15v1h-15zM208,281h16v1h-16zM236,281h15v1h-15zM460,281h16v1h-16zM37,282h16v1h-16zM86,282h43v1h-43zM147,282h43v1h-43zM208,282h43v1h-43zM460,282h16v1h-16zM37,283h16v1h-16zM86,283h43v1h-43zM147,283h43v1h-43zM208,283h43v1h-43zM460,283h16v1h-16zM37,284h16v1h-16zM86,284h43v1h-43zM147,284h43v1h-43zM208,284h43v1h-43zM460,284h16v1h-16zM37,285h16v1h-16zM86,285h43v1h-43zM147,285h43v1h-43zM208,285h43v1h-43zM460,285h16v1h-16zM37,286h16v1h-16zM86,286h43v1h-43zM147,286h43v1h-43zM208,286h43v1h-43zM460,286h16v1h-16zM37,287h16v1h-16zM86,287h43v1h-43zM147,287h43v1h-43zM208,287h43v1h-43zM460,287h16v1h-16zM37,288h16v1h-16zM86,288h43v1h-43zM147,288h43v1h-43zM208,288h43v1h-43zM460,288h16v1h-16zM37,289h16v1h-16zM86,289h43v1h-43zM147,289h43v1h-43zM208,289h43v1h-43zM460,289h16v1h-16zM37,290h16v1h-16zM86,290h42v1h-42zM147,290h43v1h-43zM208,290h43v1h-43zM460,290h16v1h-16zM37,291h16v1h-16zM86,291h42v1h-42zM147,291h43v1h-43zM209,291h42v1h-42zM460,291h16v1h-16zM37,292h16v1h-16zM86,292h42v1h-42zM147,292h42v1h-42zM209,292h42v1h-42zM460,292h16v1h-16zM37,293h16v1h-16zM86,293h42v1h-42zM148,293h41v1h-41zM209,293h41v1h-41zM460,293h16v1h-16zM37,294h16v1h-16zM87,294h40v1h-40zM149,294h39v1h-39zM210,294h40v1h-40zM460,294h16v1h-16zM37,295h16v1h-16zM88,295h38v1h-38zM150,295h37v1h-37zM211,295h38v1h-38zM460,295h16v1h-16zM37,296h16v1h-16zM89,296h36v1h-36zM151,296h35v1h-35zM212,296h35v1h-35zM460,296h16v1h-16zM37,297h16v1h-16zM460,297h16v1h-16zM37,298h16v1h-16zM460,298h16v1h-16zM37,299h16v1h-16zM460,299h16v1h-16zM37,300h16v1h-16zM460,300h16v1h-16zM37,301h16v1h-16zM460,301h16v1h-16zM37,302h16v1h-16zM460,302h16v1h-16zM37,303h16v1h-16zM460,303h16v1h-16zM37,304h16v1h-16zM460,304h16v1h-16zM37,305h16v1h-16zM460,305h16v1h-16zM37,306h16v1h-16zM460,306h16v1h-16zM37,307h16v1h-16zM460,307h16v1h-16zM37,308h16v1h-16zM460,308h16v1h-16zM37,309h16v1h-16zM460,309h16v1h-16zM37,310h16v1h-16zM460,310h16v1h-16zM37,311h16v1h-16zM460,311h16v1h-16zM37,312h16v1h-16zM460,312h16v1h-16zM37,313h16v1h-16zM460,313h16v1h-16zM37,314h16v1h-16zM460,314h16v1h-16zM37,315h16v1h-16zM460,315h16v1h-16zM37,316h16v1h-16zM460,316h16v1h-16zM37,317h16v1h-16zM460,317h16v1h-16zM37,318h16v1h-16zM460,318h16v1h-16zM37,319h16v1h-16zM460,319h16v1h-16zM37,320h16v1h-16zM460,320h16v1h-16zM37,321h16v1h-16zM460,321h16v1h-16zM37,322h16v1h-16zM460,322h16v1h-16zM37,323h16v1h-16zM460,323h16v1h-16zM37,324h16v1h-16zM460,324h16v1h-16zM37,325h16v1h-16zM460,325h16v1h-16zM37,326h16v1h-16zM460,326h16v1h-16zM37,327h16v1h-16zM460,327h16v1h-16zM37,328h16v1h-16zM460,328h16v1h-16zM37,329h16v1h-16zM460,329h16v1h-16zM37,330h16v1h-16zM460,330h16v1h-16zM37,331h16v1h-16zM460,331h16v1h-16zM37,332h16v1h-16zM460,332h16v1h-16zM37,333h16v1h-16zM460,333h16v1h-16zM37,334h16v1h-16zM460,334h16v1h-16zM37,335h16v1h-16zM460,335h16v1h-16zM37,336h16v1h-16zM460,336h16v1h-16zM37,337h16v1h-16zM460,337h16v1h-16zM37,338h16v1h-16zM460,338h16v1h-16zM37,339h16v1h-16zM460,339h16v1h-16zM37,340h16v1h-16zM460,340h16v1h-16zM37,341h16v1h-16zM460,341h16v1h-16zM37,342h16v1h-16zM460,342h16v1h-16zM37,343h16v1h-16zM460,343h16v1h-16zM37,344h16v1h-16zM460,344h16v1h-16zM37,345h16v1h-16zM460,345h16v1h-16zM37,346h16v1h-16zM460,346h16v1h-16zM37,347h16v1h-16zM460,347h16v1h-16zM37,348h16v1h-16zM460,348h16v1h-16zM37,349h16v1h-16zM460,349h16v1h-16zM37,350h16v1h-16zM460,350h16v1h-16zM37,351h16v1h-16zM460,351h16v1h-16zM37,352h16v1h-16zM460,352h16v1h-16zM37,353h16v1h-16zM460,353h16v1h-16zM37,354h16v1h-16zM460,354h16v1h-16zM37,355h16v1h-16zM460,355h16v1h-16zM37,356h16v1h-16zM460,356h16v1h-16zM37,357h16v1h-16zM460,357h16v1h-16zM37,358h16v1h-16zM460,358h16v1h-16zM37,359h16v1h-16zM460,359h16v1h-16zM37,360h16v1h-16zM460,360h16v1h-16zM37,361h16v1h-16zM460,361h16v1h-16zM37,362h16v1h-16zM291,362h144v1h-144zM460,362h16v1h-16zM37,363h16v1h-16zM289,363h148v1h-148zM460,363h16v1h-16zM37,364h16v1h-16zM288,364h150v1h-150zM460,364h16v1h-16zM37,365h16v1h-16zM287,365h152v1h-152zM460,365h16v1h-16zM37,366h16v1h-16zM287,366h152v1h-152zM460,366h16v1h-16zM37,367h16v1h-16zM287,367h152v1h-152zM460,367h16v1h-16zM37,368h16v1h-16zM286,368h154v1h-154zM460,368h16v1h-16zM37,369h16v1h-16zM286,369h154v1h-154zM460,369h16v1h-16zM37,370h16v1h-16zM286,370h154v1h-154zM460,370h16v1h-16zM37,371h16v1h-16zM286,371h154v1h-154zM460,371h16v1h-16zM37,372h16v1h-16zM287,372h152v1h-152zM460,372h16v1h-16zM37,373h16v1h-16zM287,373h152v1h-152zM460,373h16v1h-16zM37,374h16v1h-16zM288,374h150v1h-150zM460,374h16v1h-16zM37,375h16v1h-16zM289,375h148v1h-148zM460,375h16v1h-16zM37,376h16v1h-16zM290,376h146v1h-146zM460,376h16v1h-16zM37,377h16v1h-16zM460,377h16v1h-16zM37,378h16v1h-16zM460,378h16v1h-16zM37,379h16v1h-16zM460,379h16v1h-16zM37,380h16v1h-16zM460,380h16v1h-16zM37,381h16v1h-16zM460,381h16v1h-16zM37,382h16v1h-16zM460,382h16v1h-16zM37,383h16v1h-16zM460,383h16v1h-16zM37,384h16v1h-16zM460,384h16v1h-16zM37,385h16v1h-16zM460,385h16v1h-16zM37,386h16v1h-16zM460,386h16v1h-16zM37,387h16v1h-16zM460,387h16v1h-16zM37,388h16v1h-16zM460,388h16v1h-16zM37,389h16v1h-16zM460,389h16v1h-16zM37,390h16v1h-16zM460,390h16v1h-16zM37,391h16v1h-16zM460,391h16v1h-16zM37,392h16v1h-16zM460,392h16v1h-16zM37,393h16v1h-16zM460,393h16v1h-16zM37,394h16v1h-16zM460,394h16v1h-16zM37,395h16v1h-16zM460,395h16v1h-16zM37,396h16v1h-16zM460,396h16v1h-16zM37,397h16v1h-16zM460,397h16v1h-16zM37,398h16v1h-16zM460,398h16v1h-16zM37,399h16v1h-16zM460,399h16v1h-16zM37,400h16v1h-16zM460,400h16v1h-16zM37,401h16v1h-16zM291,401h116v1h-116zM460,401h16v1h-16zM37,402h16v1h-16zM289,402h120v1h-120zM460,402h16v1h-16zM37,403h16v1h-16zM288,403h122v1h-122zM460,403h16v1h-16zM37,404h16v1h-16zM287,404h124v1h-124zM460,404h16v1h-16zM37,405h16v1h-16zM287,405h124v1h-124zM460,405h16v1h-16zM37,406h16v1h-16zM287,406h125v1h-125zM460,406h16v1h-16zM37,407h16v1h-16zM286,407h126v1h-126zM460,407h16v1h-16zM37,408h16v1h-16zM286,408h126v1h-126zM460,408h16v1h-16zM37,409h16v1h-16zM286,409h126v1h-126zM460,409h16v1h-16zM37,410h16v1h-16zM286,410h126v1h-126zM460,410h16v1h-16zM37,411h16v1h-16zM287,411h125v1h-125zM460,411h16v1h-16zM37,412h16v1h-16zM287,412h124v1h-124zM460,412h16v1h-16zM37,413h16v1h-16zM288,413h122v1h-122zM460,413h16v1h-16zM37,414h16v1h-16zM289,414h120v1h-120zM460,414h16v1h-16zM37,415h16v1h-16zM291,415h117v1h-117zM460,415h16v1h-16zM37,416h16v1h-16zM460,416h16v1h-16zM37,417h16v1h-16zM460,417h16v1h-16zM37,418h16v1h-16zM460,418h16v1h-16zM37,419h16v1h-16zM460,419h16v1h-16zM37,420h16v1h-16zM460,420h16v1h-16zM37,421h16v1h-16zM460,421h16v1h-16zM37,422h16v1h-16zM460,422h16v1h-16zM37,423h16v1h-16zM460,423h16v1h-16zM37,424h16v1h-16zM460,424h16v1h-16zM37,425h16v1h-16zM460,425h16v1h-16zM37,426h16v1h-16zM460,426h16v1h-16zM37,427h16v1h-16zM460,427h16v1h-16zM37,428h16v1h-16zM460,428h16v1h-16zM37,429h16v1h-16zM460,429h16v1h-16zM37,430h16v1h-16zM460,430h16v1h-16zM37,431h16v1h-16zM460,431h16v1h-16zM37,432h16v1h-16zM460,432h16v1h-16zM37,433h16v1h-16zM460,433h16v1h-16zM37,434h16v1h-16zM460,434h16v1h-16zM37,435h16v1h-16zM460,435h16v1h-16zM37,436h16v1h-16zM460,436h16v1h-16zM37,437h16v1h-16zM460,437h16v1h-16zM37,438h16v1h-16zM460,438h16v1h-16zM37,439h16v1h-16zM460,439h16v1h-16zM37,440h16v1h-16zM460,440h16v1h-16zM37,441h16v1h-16zM291,441h93v1h-93zM404,441h31v1h-31zM460,441h16v1h-16zM37,442h16v1h-16zM289,442h97v1h-97zM403,442h34v1h-34zM460,442h16v1h-16zM37,443h16v1h-16zM288,443h99v1h-99zM402,443h36v1h-36zM460,443h16v1h-16zM37,444h16v1h-16zM287,444h100v1h-100zM401,444h38v1h-38zM460,444h16v1h-16zM37,445h16v1h-16zM287,445h101v1h-101zM401,445h38v1h-38zM460,445h16v1h-16zM37,446h16v1h-16zM286,446h102v1h-102zM400,446h40v1h-40zM460,446h16v1h-16zM37,447h16v1h-16zM286,447h103v1h-103zM400,447h40v1h-40zM460,447h16v1h-16zM37,448h16v1h-16zM286,448h103v1h-103zM400,448h40v1h-40zM460,448h16v1h-16zM37,449h16v1h-16zM286,449h103v1h-103zM400,449h40v1h-40zM460,449h16v1h-16zM37,450h16v1h-16zM286,450h102v1h-102zM400,450h40v1h-40zM460,450h16v1h-16zM37,451h16v1h-16zM287,451h101v1h-101zM400,451h39v1h-39zM460,451h16v1h-16zM37,452h16v1h-16zM287,452h100v1h-100zM401,452h38v1h-38zM460,452h16v1h-16zM37,453h16v1h-16zM288,453h99v1h-99zM402,453h36v1h-36zM460,453h16v1h-16zM37,454h16v1h-16zM289,454h97v1h-97zM403,454h34v1h-34zM460,454h16v1h-16zM37,455h16v1h-16zM291,455h93v1h-93zM404,455h31v1h-31zM460,455h16v1h-16zM37,456h16v1h-16zM460,456h16v1h-16zM37,457h16v1h-16zM460,457h16v1h-16zM37,458h16v1h-16zM460,458h16v1h-16zM37,459h16v1h-16zM460,459h16v1h-16zM37,460h16v1h-16zM460,460h16v1h-16zM37,461h16v1h-16zM460,461h16v1h-16zM37,462h16v1h-16zM460,462h16v1h-16zM37,463h16v1h-16zM460,463h16v1h-16zM37,464h16v1h-16zM460,464h16v1h-16zM37,465h16v1h-16zM460,465h16v1h-16zM37,466h16v1h-16zM460,466h16v1h-16zM37,467h16v1h-16zM460,467h16v1h-16zM37,468h16v1h-16zM460,468h16v1h-16zM37,469h16v1h-16zM460,469h16v1h-16zM37,470h16v1h-16zM460,470h16v1h-16zM37,471h16v1h-16zM460,471h16v1h-16zM38,472h15v1h-15zM460,472h16v1h-16zM38,473h15v1h-15zM460,473h15v1h-15zM38,474h15v1h-15zM459,474h16v1h-16zM38,475h16v1h-16zM459,475h16v1h-16zM38,476h16v1h-16zM459,476h16v1h-16zM38,477h17v1h-17zM458,477h17v1h-17zM39,478h16v1h-16zM457,478h17v1h-17zM39,479h17v1h-17zM456,479h18v1h-18zM39,480h18v1h-18zM456,480h18v1h-18zM40,481h18v1h-18zM454,481h19v1h-19zM40,482h20v1h-20zM453,482h20v1h-20zM41,483h20v1h-20zM451,483h21v1h-21zM41,484h23v1h-23zM449,484h23v1h-23zM42,485h25v1h-25zM445,485h26v1h-26zM42,486h428v1h-428zM43,487h427v1h-427zM44,488h425v1h-425zM45,489h423v1h-423zM45,490h422v1h-422zM46,491h420v1h-420zM48,492h417v1h-417zM49,493h415v1h-415zM50,494h413v1h-413zM52,495h409v1h-409zM53,496h406v1h-406zM55,497h403v1h-403zM57,498h398v1h-398zM60,499h393v1h-393zM64,500h385v1h-385z" fill="#000"/>
</svg>