<?xml version="1.0" encoding="UTF-8"?>
<svg xmlns="http://www.w3.org/2000/svg" width="512" height="512" viewBox="0 0 512 512">
<path d="M254,16h9v1h-9zM250,17h16v1h-16zM248,18h20v1h-20zM246,19h24v1h-24zM245,20h27v1h-27zM244,21h29v1h-29zM242,22h32v1h-32zM242,23h33v1h-33zM241,24h35v1h-35zM240,25h36v1h-36zM239,26h38v1h-38zM239,27h39v1h-39zM59,28h9v1h-9zM238,28h40v1h-40zM56,29h19v1h-19zM238,29h41v1h-41zM53,30h28v1h-28zM237,30h42v1h-42zM52,31h35v1h-35zM237,31h42v1h-42zM50,32h44v1h-44zM237,32h43v1h-43zM49,33h51v1h-51zM236,33h44v1h-44zM48,34h59v1h-59zM236,34h44v1h-44zM47,35h66v1h-66zM236,35h44v1h-44zM46,36h73v1h-73zM236,36h44v1h-44zM45,37h81v1h-81zM236,37h45v1h-45zM45,38h87v1h-87zM236,38h45v1h-45zM44,39h94v1h-94zM236,39h45v1h-45zM44,40h100v1h-100zM236,40h45v1h-45zM43,41h108v1h-108zM236,41h45v1h-45zM43,42h114v1h-114zM236,42h45v1h-45zM42,43h122v1h-122zM236,43h45v1h-45zM42,44h128v1h-128zM236,44h45v1h-45zM42,45h134v1h-134zM236,45h45v1h-45zM336,45h6v1h-6zM42,46h138v1h-138zM236,46h45v1h-45zM332,46h14v1h-14zM42,47h141v1h-141zM236,47h45v1h-45zM329,47h20v1h-20zM41,48h143v1h-143zM236,48h45v1h-45zM328,48h23v1h-23zM41,49h145v1h-145zM236,49h45v1h-45zM326,49h27v1h-27zM41,50h146v1h-146zM236,50h45v1h-45zM325,50h31v1h-31zM41,51h147v1h-147zM236,51h45v1h-45zM324,51h34v1h-34zM41,52h148v1h-148zM236,52h45v1h-45zM323,52h37v1h-37zM42,53h148v1h-148zM236,53h45v1h-45zM322,53h40v1h-40zM42,54h149v1h-149zM236,54h45v1h-45zM321,54h43v1h-43zM42,55h150v1h-150zM236,55h45v1h-45zM320,55h46v1h-46zM42,56h150v1h-150zM236,56h45v1h-45zM320,56h47v1h-47zM43,57h150v1h-150zM236,57h45v1h-45zM319,57h50v1h-50zM43,58h150v1h-150zM236,58h45v1h-45zM319,58h52v1h-52zM43,59h151v1h-151zM236,59h45v1h-45zM318,59h55v1h-55zM44,60h150v1h-150zM236,60h45v1h-45zM318,60h56v1h-56zM44,61h150v1h-150zM236,61h45v1h-45zM318,61h58v1h-58zM45,62h150v1h-150zM236,62h45v1h-45zM317,62h61v1h-61zM46,63h149v1h-149zM236,63h45v1h-45zM317,63h62v1h-62zM46,64h149v1h-149zM236,64h45v1h-45zM317,64h64v1h-64zM47,65h148v1h-148zM236,65h45v1h-45zM317,65h66v1h-66zM48,66h147v1h-147zM236,66h45v1h-45zM317,66h67v1h-67zM49,67h146v1h-146zM236,67h45v1h-45zM317,67h69v1h-69zM51,68h144v1h-144zM236,68h45v1h-45zM317,68h70v1h-70zM52,69h143v1h-143zM236,69h45v1h-45zM317,69h72v1h-72zM54,70h141v1h-141zM236,70h45v1h-45zM317,70h73v1h-73zM57,71h138v1h-138zM236,71h45v1h-45zM317,71h74v1h-74zM61,72h134v1h-134zM236,72h45v1h-45zM317,72h76v1h-76zM68,73h126v1h-126zM236,73h45v1h-45zM318,73h76v1h-76zM74,74h120v1h-120zM236,74h45v1h-45zM318,74h78v1h-78zM80,75h114v1h-114zM236,75h45v1h-45zM318,75h79v1h-79zM87,76h107v1h-107zM236,76h45v1h-45zM319,76h79v1h-79zM93,77h101v1h-101zM236,77h45v1h-45zM319,77h81v1h-81zM99,78h95v1h-95zM236,78h45v1h-45zM320,78h81v1h-81zM106,79h88v1h-88zM236,79h45v1h-45zM320,79h82v1h-82zM109,80h84v1h-84zM236,80h45v1h-45zM321,80h82v1h-82zM108,81h85v1h-85zM236,81h45v1h-45zM322,81h82v1h-82zM106,82h87v1h-87zM236,82h45v1h-45zM323,82h83v1h-83zM105,83h88v1h-88zM236,83h45v1h-45zM324,83h83v1h-83zM104,84h89v1h-89zM236,84h45v1h-45zM325,84h83v1h-83zM103,85h90v1h-90zM236,85h45v1h-45zM326,85h83v1h-83zM102,86h90v1h-90zM236,86h45v1h-45zM327,86h83v1h-83zM101,87h91v1h-91zM236,87h45v1h-45zM329,87h83v1h-83zM99,88h93v1h-93zM236,88h45v1h-45zM331,88h82v1h-82zM98,89h94v1h-94zM236,89h45v1h-45zM334,89h80v1h-80zM97,90h95v1h-95zM236,90h45v1h-45zM336,90h79v1h-79zM96,91h96v1h-96zM236,91h45v1h-45zM338,91h78v1h-78zM95,92h96v1h-96zM236,92h45v1h-45zM340,92h77v1h-77zM94,93h97v1h-97zM236,93h45v1h-45zM342,93h76v1h-76zM93,94h98v1h-98zM236,94h45v1h-45zM344,94h75v1h-75zM92,95h99v1h-99zM236,95h45v1h-45zM346,95h74v1h-74zM91,96h100v1h-100zM236,96h45v1h-45zM348,96h73v1h-73zM90,97h101v1h-101zM236,97h45v1h-45zM349,97h73v1h-73zM89,98h102v1h-102zM236,98h45v1h-45zM351,98h72v1h-72zM88,99h102v1h-102zM236,99h45v1h-45zM353,99h71v1h-71zM87,100h103v1h-103zM236,100h45v1h-45zM354,100h71v1h-71zM86,101h104v1h-104zM236,101h45v1h-45zM356,101h70v1h-70zM85,102h105v1h-105zM236,102h45v1h-45zM358,102h69v1h-69zM84,103h106v1h-106zM236,103h45v1h-45zM359,103h69v1h-69zM83,104h107v1h-107zM236,104h45v1h-45zM361,104h68v1h-68zM82,105h107v1h-107zM236,105h45v1h-45zM362,105h68v1h-68zM81,106h108v1h-108zM236,106h45v1h-45zM364,106h67v1h-67zM81,107h108v1h-108zM236,107h45v1h-45zM365,107h66v1h-66zM80,108h109v1h-109zM236,108h45v1h-45zM367,108h65v1h-65zM79,109h110v1h-110zM236,109h45v1h-45zM368,109h65v1h-65zM78,110h111v1h-111zM236,110h45v1h-45zM369,110h65v1h-65zM77,111h65v1h-65zM143,111h45v1h-45zM236,111h45v1h-45zM371,111h64v1h-64zM76,112h64v1h-64zM143,112h45v1h-45zM236,112h45v1h-45zM372,112h64v1h-64zM76,113h63v1h-63zM143,113h45v1h-45zM236,113h45v1h-45zM373,113h64v1h-64zM75,114h63v1h-63zM143,114h45v1h-45zM236,114h45v1h-45zM374,114h63v1h-63zM74,115h62v1h-62zM143,115h45v1h-45zM236,115h45v1h-45zM376,115h62v1h-62zM73,116h62v1h-62zM143,116h45v1h-45zM236,116h45v1h-45zM377,116h62v1h-62zM72,117h62v1h-62zM142,117h46v1h-46zM236,117h45v1h-45zM378,117h62v1h-62zM71,118h62v1h-62zM142,118h45v1h-45zM236,118h45v1h-45zM379,118h61v1h-61zM71,119h61v1h-61zM142,119h45v1h-45zM236,119h45v1h-45zM380,119h61v1h-61zM70,120h60v1h-60zM142,120h45v1h-45zM236,120h45v1h-45zM382,120h60v1h-60zM69,121h60v1h-60zM142,121h45v1h-45zM236,121h45v1h-45zM383,121h60v1h-60zM68,122h60v1h-60zM142,122h45v1h-45zM236,122h45v1h-45zM384,122h60v1h-60zM68,123h59v1h-59zM141,123h46v1h-46zM236,123h45v1h-45zM385,123h59v1h-59zM67,124h59v1h-59zM141,124h45v1h-45zM236,124h45v1h-45zM386,124h59v1h-59zM66,125h59v1h-59zM141,125h45v1h-45zM236,125h45v1h-45zM387,125h59v1h-59zM66,126h58v1h-58zM141,126h45v1h-45zM236,126h45v1h-45zM388,126h58v1h-58zM65,127h58v1h-58zM141,127h45v1h-45zM236,127h45v1h-45zM389,127h58v1h-58zM64,128h58v1h-58zM141,128h45v1h-45zM236,128h45v1h-45zM390,128h58v1h-58zM63,129h58v1h-58zM141,129h45v1h-45zM236,129h45v1h-45zM391,129h58v1h-58zM63,130h57v1h-57zM140,130h45v1h-45zM236,130h45v1h-45zM392,130h57v1h-57zM62,131h57v1h-57zM140,131h45v1h-45zM236,131h45v1h-45zM393,131h57v1h-57zM61,132h57v1h-57zM140,132h45v1h-45zM236,132h45v1h-45zM394,132h57v1h-57zM61,133h56v1h-56zM140,133h45v1h-45zM236,133h45v1h-45zM395,133h56v1h-56zM60,134h56v1h-56zM140,134h45v1h-45zM236,134h45v1h-45zM396,134h56v1h-56zM59,135h56v1h-56zM140,135h45v1h-45zM236,135h45v1h-45zM397,135h56v1h-56zM59,136h55v1h-55zM139,136h46v1h-46zM236,136h45v1h-45zM398,136h55v1h-55zM58,137h56v1h-56zM139,137h45v1h-45zM236,137h45v1h-45zM398,137h56v1h-56zM57,138h56v1h-56zM139,138h45v1h-45zM236,138h45v1h-45zM399,138h55v1h-55zM57,139h55v1h-55zM139,139h45v1h-45zM236,139h45v1h-45zM400,139h55v1h-55zM56,140h55v1h-55zM139,140h45v1h-45zM236,140h45v1h-45zM401,140h55v1h-55zM56,141h54v1h-54zM139,141h45v1h-45zM236,141h45v1h-45zM402,141h54v1h-54zM55,142h54v1h-54zM138,142h46v1h-46zM236,142h45v1h-45zM403,142h54v1h-54zM54,143h55v1h-55zM138,143h45v1h-45zM236,143h45v1h-45zM403,143h54v1h-54zM54,144h54v1h-54zM138,144h45v1h-45zM236,144h45v1h-45zM404,144h54v1h-54zM53,145h54v1h-54zM138,145h45v1h-45zM236,145h45v1h-45zM405,145h54v1h-54zM53,146h53v1h-53zM138,146h45v1h-45zM236,146h45v1h-45zM406,146h53v1h-53zM52,147h53v1h-53zM138,147h45v1h-45zM236,147h45v1h-45zM407,147h53v1h-53zM52,148h53v1h-53zM138,148h45v1h-45zM236,148h45v1h-45zM407,148h53v1h-53zM51,149h53v1h-53zM137,149h45v1h-45zM236,149h45v1h-45zM408,149h53v1h-53zM50,150h53v1h-53zM137,150h45v1h-45zM236,150h45v1h-45zM409,150h52v1h-52zM50,151h52v1h-52zM137,151h45v1h-45zM236,151h45v1h-45zM410,151h52v1h-52zM49,152h53v1h-53zM137,152h45v1h-45zM236,152h45v1h-45zM410,152h53v1h-53zM49,153h52v1h-52zM137,153h45v1h-45zM236,153h45v1h-45zM411,153h52v1h-52zM48,154h52v1h-52zM137,154h45v1h-45zM236,154h45v1h-45zM412,154h52v1h-52zM48,155h52v1h-52zM136,155h46v1h-46zM236,155h45v1h-45zM412,155h52v1h-52zM47,156h52v1h-52zM136,156h45v1h-45zM236,156h45v1h-45zM413,156h52v1h-52zM47,157h51v1h-51zM136,157h45v1h-45zM236,157h45v1h-45zM414,157h51v1h-51zM46,158h52v1h-52zM136,158h45v1h-45zM236,158h45v1h-45zM414,158h52v1h-52zM46,159h51v1h-51zM136,159h45v1h-45zM236,159h45v1h-45zM415,159h51v1h-51zM45,160h51v1h-51zM136,160h45v1h-45zM236,160h45v1h-45zM416,160h51v1h-51zM45,161h51v1h-51zM135,161h46v1h-46zM236,161h45v1h-45zM416,161h51v1h-51zM44,162h51v1h-51zM135,162h45v1h-45zM236,162h45v1h-45zM417,162h51v1h-51zM44,163h50v1h-50zM135,163h45v1h-45zM236,163h45v1h-45zM418,163h50v1h-50zM43,164h51v1h-51zM135,164h45v1h-45zM236,164h45v1h-45zM418,164h50v1h-50zM43,165h50v1h-50zM135,165h45v1h-45zM236,165h45v1h-45zM419,165h50v1h-50zM43,166h50v1h-50zM135,166h45v1h-45zM236,166h45v1h-45zM419,166h50v1h-50zM42,167h50v1h-50zM135,167h45v1h-45zM236,167h45v1h-45zM420,167h50v1h-50zM42,168h50v1h-50zM134,168h45v1h-45zM236,168h45v1h-45zM420,168h50v1h-50zM41,169h50v1h-50zM134,169h45v1h-45zM236,169h45v1h-45zM421,169h50v1h-50zM41,170h49v1h-49zM134,170h45v1h-45zM236,170h45v1h-45zM422,170h49v1h-49zM40,171h50v1h-50zM134,171h45v1h-45zM236,171h45v1h-45zM422,171h50v1h-50zM40,172h49v1h-49zM134,172h45v1h-45zM236,172h45v1h-45zM423,172h49v1h-49zM40,173h49v1h-49zM134,173h45v1h-45zM236,173h45v1h-45zM423,173h49v1h-49zM39,174h49v1h-49zM133,174h46v1h-46zM236,174h45v1h-45zM424,174h49v1h-49zM39,175h49v1h-49zM133,175h45v1h-45zM236,175h45v1h-45zM424,175h49v1h-49zM38,176h49v1h-49zM133,176h45v1h-45zM236,176h45v1h-45zM425,176h49v1h-49zM38,177h49v1h-49zM133,177h45v1h-45zM236,177h45v1h-45zM425,177h49v1h-49zM38,178h48v1h-48zM133,178h45v1h-45zM236,178h45v1h-45zM426,178h48v1h-48zM37,179h49v1h-49zM133,179h45v1h-45zM236,179h45v1h-45zM426,179h49v1h-49zM37,180h48v1h-48zM134,180h44v1h-44zM236,180h45v1h-45zM427,180h48v1h-48zM36,181h49v1h-49zM134,181h43v1h-43zM236,181h45v1h-45zM427,181h48v1h-48zM36,182h48v1h-48zM134,182h43v1h-43zM236,182h45v1h-45zM428,182h48v1h-48zM36,183h48v1h-48zM134,183h43v1h-43zM236,183h45v1h-45zM428,183h48v1h-48zM35,184h48v1h-48zM135,184h41v1h-41zM236,184h45v1h-45zM429,184h48v1h-48zM35,185h48v1h-48zM135,185h41v1h-41zM236,185h45v1h-45zM429,185h48v1h-48zM35,186h47v1h-47zM136,186h40v1h-40zM236,186h45v1h-45zM429,186h48v1h-48zM34,187h48v1h-48zM136,187h39v1h-39zM236,187h45v1h-45zM430,187h48v1h-48zM34,188h48v1h-48zM137,188h38v1h-38zM236,188h45v1h-45zM430,188h48v1h-48zM34,189h47v1h-47zM137,189h37v1h-37zM236,189h45v1h-45zM431,189h47v1h-47zM33,190h48v1h-48zM138,190h35v1h-35zM236,190h45v1h-45zM431,190h48v1h-48zM33,191h47v1h-47zM139,191h33v1h-33zM236,191h45v1h-45zM432,191h47v1h-47zM33,192h47v1h-47zM140,192h31v1h-31zM236,192h45v1h-45zM432,192h47v1h-47zM32,193h48v1h-48zM141,193h29v1h-29zM236,193h45v1h-45zM432,193h48v1h-48zM32,194h47v1h-47zM142,194h27v1h-27zM236,194h45v1h-45zM433,194h47v1h-47zM32,195h47v1h-47zM143,195h25v1h-25zM236,195h45v1h-45zM433,195h47v1h-47zM32,196h46v1h-46zM145,196h21v1h-21zM236,196h45v1h-45zM433,196h47v1h-47zM31,197h47v1h-47zM147,197h17v1h-17zM236,197h45v1h-45zM434,197h47v1h-47zM31,198h47v1h-47zM151,198h10v1h-10zM236,198h45v1h-45zM434,198h47v1h-47zM31,199h46v1h-46zM236,199h45v1h-45zM435,199h46v1h-46zM30,200h47v1h-47zM236,200h45v1h-45zM435,200h47v1h-47zM30,201h47v1h-47zM236,201h45v1h-45zM435,201h47v1h-47zM30,202h46v1h-46zM236,202h45v1h-45zM436,202h46v1h-46zM30,203h46v1h-46zM236,203h45v1h-45zM436,203h46v1h-46zM29,204h47v1h-47zM236,204h45v1h-45zM436,204h47v1h-47zM29,205h46v1h-46zM236,205h45v1h-45zM437,205h46v1h-46zM29,206h46v1h-46zM236,206h45v1h-45zM437,206h46v1h-46zM29,207h46v1h-46zM236,207h45v1h-45zM437,207h46v1h-46zM28,208h47v1h-47zM236,208h45v1h-45zM437,208h47v1h-47zM28,209h46v1h-46zM236,209h45v1h-45zM438,209h46v1h-46zM28,210h46v1h-46zM236,210h45v1h-45zM438,210h46v1h-46zM28,211h46v1h-46zM236,211h45v1h-45zM438,211h46v1h-46zM27,212h46v1h-46zM236,212h45v1h-45zM439,212h46v1h-46zM27,213h46v1h-46zM236,213h45v1h-45zM439,213h46v1h-46zM27,214h46v1h-46zM236,214h45v1h-45zM439,214h46v1h-46zM27,215h46v1h-46zM236,215h45v1h-45zM439,215h46v1h-46zM27,216h45v1h-45zM236,216h45v1h-45zM440,216h45v1h-45zM26,217h46v1h-46zM236,217h45v1h-45zM440,217h46v1h-46zM26,218h46v1h-46zM236,218h45v1h-45zM440,218h46v1h-46zM26,219h46v1h-46zM236,219h45v1h-45zM440,219h46v1h-46zM26,220h45v1h-45zM236,220h45v1h-45zM441,220h45v1h-45zM26,221h45v1h-45zM236,221h45v1h-45zM441,221h45v1h-45zM25,222h46v1h-46zM236,222h45v1h-45zM441,222h45v1h-45zM25,223h46v1h-46zM236,223h45v1h-45zM441,223h46v1h-46zM25,224h46v1h-46zM236,224h45v1h-45zM441,224h46v1h-46zM25,225h45v1h-45zM236,225h45v1h-45zM442,225h45v1h-45zM25,226h45v1h-45zM236,226h45v1h-45zM442,226h45v1h-45zM25,227h45v1h-45zM236,227h45v1h-45zM442,227h45v1h-45zM25,228h45v1h-45zM236,228h45v1h-45zM442,228h45v1h-45zM24,229h46v1h-46zM236,229h45v1h-45zM442,229h46v1h-46zM24,230h45v1h-45zM236,230h45v1h-45zM442,230h46v1h-46zM24,231h45v1h-45zM236,231h45v1h-45zM443,231h45v1h-45zM24,232h45v1h-45zM236,232h45v1h-45zM443,232h45v1h-45zM24,233h45v1h-45zM236,233h45v1h-45zM443,233h45v1h-45zM24,234h45v1h-45zM236,234h45v1h-45zM443,234h45v1h-45zM24,235h45v1h-45zM236,235h45v1h-45zM443,235h45v1h-45zM24,236h45v1h-45zM236,236h45v1h-45zM443,236h45v1h-45zM23,237h45v1h-45zM236,237h45v1h-45zM444,237h45v1h-45zM23,238h45v1h-45zM236,238h45v1h-45zM444,238h45v1h-45zM23,239h45v1h-45zM236,239h45v1h-45zM444,239h45v1h-45zM23,240h45v1h-45zM236,240h45v1h-45zM444,240h45v1h-45zM23,241h45v1h-45zM236,241h45v1h-45zM444,241h45v1h-45zM23,242h45v1h-45zM236,242h45v1h-45zM444,242h45v1h-45zM23,243h45v1h-45zM236,243h45v1h-45zM444,243h45v1h-45zM23,244h45v1h-45zM236,244h45v1h-45zM444,244h45v1h-45zM23,245h45v1h-45zM236,245h44v1h-44zM444,245h45v1h-45zM23,246h44v1h-44zM236,246h44v1h-44zM444,246h45v1h-45zM23,247h44v1h-44zM236,247h44v1h-44zM445,247h44v1h-44zM23,248h44v1h-44zM237,248h43v1h-43zM445,248h44v1h-44zM22,249h45v1h-45zM237,249h43v1h-43zM445,249h45v1h-45zM22,250h45v1h-45zM237,250h42v1h-42zM445,250h45v1h-45zM22,251h45v1h-45zM238,251h41v1h-41zM445,251h45v1h-45zM22,252h45v1h-45zM238,252h40v1h-40zM445,252h45v1h-45zM22,253h45v1h-45zM239,253h39v1h-39zM445,253h45v1h-45zM22,254h45v1h-45zM239,254h38v1h-38zM445,254h45v1h-45zM22,255h45v1h-45zM240,255h37v1h-37zM445,255h45v1h-45zM22,256h45v1h-45zM240,256h36v1h-36zM445,256h45v1h-45zM22,257h45v1h-45zM241,257h34v1h-34zM445,257h45v1h-45zM22,258h45v1h-45zM242,258h32v1h-32zM445,258h45v1h-45zM22,259h45v1h-45zM243,259h30v1h-30zM445,259h45v1h-45zM22,260h45v1h-45zM244,260h28v1h-28zM445,260h45v1h-45zM22,261h45v1h-45zM246,261h25v1h-25zM445,261h45v1h-45zM22,262h45v1h-45zM247,262h22v1h-22zM445,262h45v1h-45zM22,263h45v1h-45zM249,263h18v1h-18zM445,263h45v1h-45zM22,264h45v1h-45zM252,264h12v1h-12zM445,264h45v1h-45zM22,265h45v1h-45zM445,265h45v1h-45zM22,266h45v1h-45zM445,266h45v1h-45zM22,267h45v1h-45zM445,267h45v1h-45zM22,268h45v1h-45zM445,268h45v1h-45zM22,269h45v1h-45zM445,269h45v1h-45zM22,270h45v1h-45zM445,270h45v1h-45zM22,271h45v1h-45zM445,271h45v1h-45zM22,272h45v1h-45zM445,272h45v1h-45zM22,273h45v1h-45zM445,273h45v1h-45zM22,274h45v1h-45zM445,274h45v1h-45zM23,275h44v1h-44zM445,275h44v1h-44zM23,276h44v1h-44zM445,276h44v1h-44zM23,277h45v1h-45zM444,277h45v1h-45zM23,278h45v1h-45zM444,278h45v1h-45zM23,279h45v1h-45zM444,279h45v1h-45zM23,280h45v1h-45zM444,280h45v1h-45zM23,281h45v1h-45zM444,281h45v1h-45zM23,282h45v1h-45zM444,282h45v1h-45zM23,283h45v1h-45zM444,283h45v1h-45zM23,284h45v1h-45zM444,284h45v1h-45zM23,285h45v1h-45zM444,285h45v1h-45zM23,286h45v1h-45zM444,286h45v1h-45zM23,287h46v1h-46zM443,287h46v1h-46zM24,288h45v1h-45zM443,288h45v1h-45zM24,289h45v1h-45zM443,289h45v1h-45zM24,290h45v1h-45zM443,290h45v1h-45zM24,291h45v1h-45zM443,291h45v1h-45zM24,292h45v1h-45zM443,292h45v1h-45zM24,293h45v1h-45zM442,293h46v1h-46zM24,294h46v1h-46zM442,294h46v1h-46zM25,295h45v1h-45zM442,295h46v1h-46zM25,296h45v1h-45zM442,296h45v1h-45zM25,297h45v1h-45zM442,297h45v1h-45zM25,298h45v1h-45zM442,298h45v1h-45zM25,299h46v1h-46zM441,299h46v1h-46zM25,300h46v1h-46zM441,300h46v1h-46zM25,301h46v1h-46zM441,301h46v1h-46zM26,302h45v1h-45zM441,302h45v1h-45zM26,303h45v1h-45zM441,303h45v1h-45zM26,304h46v1h-46zM440,304h46v1h-46zM26,305h46v1h-46zM440,305h46v1h-46zM26,306h46v1h-46zM440,306h46v1h-46zM27,307h45v1h-45zM440,307h45v1h-45zM27,308h46v1h-46zM439,308h46v1h-46zM27,309h46v1h-46zM439,309h46v1h-46zM27,310h46v1h-46zM439,310h46v1h-46zM27,311h46v1h-46zM439,311h46v1h-46zM28,312h46v1h-46zM438,312h46v1h-46zM28,313h46v1h-46zM438,313h46v1h-46zM28,314h46v1h-46zM438,314h46v1h-46zM28,315h47v1h-47zM437,315h47v1h-47zM29,316h46v1h-46zM437,316h46v1h-46zM29,317h46v1h-46zM437,317h46v1h-46zM29,318h46v1h-46zM437,318h46v1h-46zM29,319h47v1h-47zM436,319h47v1h-47zM29,320h47v1h-47zM436,320h47v1h-47zM30,321h46v1h-46zM436,321h46v1h-46zM30,322h47v1h-47zM435,322h47v1h-47zM30,323h47v1h-47zM435,323h47v1h-47zM31,324h46v1h-46zM435,324h46v1h-46zM31,325h47v1h-47zM434,325h47v1h-47zM31,326h47v1h-47zM434,326h47v1h-47zM31,327h47v1h-47zM434,327h47v1h-47zM32,328h47v1h-47zM433,328h47v1h-47zM32,329h47v1h-47zM433,329h47v1h-47zM32,330h48v1h-48zM432,330h48v1h-48zM33,331h47v1h-47zM432,331h47v1h-47zM33,332h47v1h-47zM432,332h47v1h-47zM33,333h48v1h-48zM431,333h48v1h-48zM34,334h47v1h-47zM431,334h47v1h-47zM34,335h48v1h-48zM430,335h48v1h-48zM34,336h48v1h-48zM430,336h48v1h-48zM35,337h48v1h-48zM429,337h48v1h-48zM35,338h48v1h-48zM429,338h48v1h-48zM35,339h48v1h-48zM429,339h48v1h-48zM36,340h48v1h-48zM428,340h48v1h-48zM36,341h48v1h-48zM428,341h48v1h-48zM36,342h49v1h-49zM427,342h49v1h-49zM37,343h48v1h-48zM427,343h48v1h-48zM37,344h49v1h-49zM426,344h49v1h-49zM37,345h49v1h-49zM426,345h49v1h-49zM38,346h49v1h-49zM425,346h49v1h-49zM38,347h49v1h-49zM425,347h49v1h-49zM39,348h49v1h-49zM424,348h49v1h-49zM39,349h49v1h-49zM424,349h49v1h-49zM39,350h50v1h-50zM423,350h50v1h-50zM40,351h49v1h-49zM423,351h49v1h-49zM40,352h50v1h-50zM422,352h50v1h-50zM41,353h49v1h-49zM422,353h49v1h-49zM41,354h50v1h-50zM421,354h50v1h-50zM42,355h50v1h-50zM420,355h50v1h-50zM42,356h50v1h-50zM420,356h50v1h-50zM42,357h51v1h-51zM419,357h51v1h-51zM43,358h50v1h-50zM419,358h50v1h-50zM43,359h51v1h-51zM418,359h51v1h-51zM44,360h50v1h-50zM418,360h50v1h-50zM44,361h51v1h-51zM417,361h51v1h-51zM45,362h51v1h-51zM416,362h51v1h-51zM45,363h51v1h-51zM416,363h51v1h-51zM46,364h51v1h-51zM415,364h51v1h-51zM46,365h52v1h-52zM414,365h52v1h-52zM47,366h51v1h-51zM414,366h51v1h-51zM47,367h52v1h-52zM413,367h52v1h-52zM48,368h52v1h-52zM412,368h52v1h-52zM48,369h52v1h-52zM412,369h52v1h-52zM49,370h52v1h-52zM411,370h52v1h-52zM49,371h53v1h-53zM410,371h53v1h-53zM50,372h52v1h-52zM410,372h52v1h-52zM50,373h53v1h-53zM409,373h53v1h-53zM51,374h53v1h-53zM408,374h53v1h-53zM51,375h54v1h-54zM407,375h54v1h-54zM52,376h53v1h-53zM407,376h53v1h-53zM53,377h53v1h-53zM406,377h53v1h-53zM53,378h54v1h-54zM405,378h54v1h-54zM54,379h54v1h-54zM404,379h54v1h-54zM54,380h55v1h-55zM403,380h55v1h-55zM55,381h54v1h-54zM403,381h54v1h-54zM55,382h55v1h-55zM402,382h55v1h-55zM56,383h55v1h-55zM401,383h55v1h-55zM57,384h55v1h-55zM400,384h55v1h-55zM57,385h56v1h-56zM399,385h56v1h-56zM58,386h56v1h-56zM398,386h56v1h-56zM59,387h55v1h-55zM398,387h55v1h-55zM59,388h56v1h-56zM397,388h56v1h-56zM60,389h56v1h-56zM396,389h56v1h-56zM61,390h56v1h-56zM395,390h56v1h-56zM61,391h57v1h-57zM394,391h57v1h-57zM62,392h57v1h-57zM393,392h57v1h-57zM62,393h58v1h-58zM392,393h57v1h-57zM63,394h58v1h-58zM391,394h58v1h-58zM64,395h58v1h-58zM390,395h58v1h-58zM65,396h58v1h-58zM389,396h58v1h-58zM65,397h59v1h-59zM388,397h59v1h-59zM66,398h59v1h-59zM387,398h59v1h-59zM67,399h59v1h-59zM386,399h59v1h-59zM67,400h60v1h-60zM385,400h60v1h-60zM68,401h60v1h-60zM384,401h60v1h-60zM69,402h60v1h-60zM383,402h60v1h-60zM70,403h60v1h-60zM382,403h60v1h-60zM71,404h61v1h-61zM380,404h61v1h-61zM71,405h62v1h-62zM379,405h62v1h-62zM72,406h62v1h-62zM378,406h62v1h-62zM73,407h62v1h-62zM377,407h62v1h-62zM74,408h62v1h-62zM376,408h62v1h-62zM74,409h64v1h-64zM375,409h63v1h-63zM75,410h64v1h-64zM373,410h64v1h-64zM76,411h64v1h-64zM372,411h64v1h-64zM77,412h64v1h-64zM371,412h64v1h-64zM78,413h65v1h-65zM369,413h65v1h-65zM79,414h65v1h-65zM368,414h65v1h-65zM80,415h65v1h-65zM367,415h65v1h-65zM80,416h67v1h-67zM365,416h67v1h-67zM81,417h67v1h-67zM364,417h67v1h-67zM82,418h68v1h-68zM362,418h68v1h-68zM83,419h68v1h-68zM361,419h68v1h-68zM84,420h69v1h-69zM359,420h69v1h-69zM85,421h69v1h-69zM358,421h69v1h-69zM86,422h70v1h-70zM356,422h70v1h-70zM87,423h70v1h-70zM355,423h70v1h-70zM88,424h71v1h-71zM353,424h71v1h-71zM89,425h72v1h-72zM351,425h72v1h-72zM90,426h73v1h-73zM350,426h72v1h-72zM91,427h73v1h-73zM348,427h73v1h-73zM92,428h74v1h-74zM346,428h74v1h-74zM93,429h75v1h-75zM344,429h75v1h-75zM94,430h76v1h-76zM342,430h76v1h-76zM95,431h77v1h-77zM340,431h77v1h-77zM96,432h78v1h-78zM338,432h78v1h-78zM97,433h79v1h-79zM336,433h79v1h-79zM98,434h80v1h-80zM334,434h80v1h-80zM99,435h81v1h-81zM332,435h81v1h-81zM100,436h83v1h-83zM329,436h83v1h-83zM101,437h84v1h-84zM327,437h84v1h-84zM103,438h85v1h-85zM324,438h86v1h-86zM104,439h86v1h-86zM322,439h86v1h-86zM105,440h88v1h-88zM319,440h88v1h-88zM106,441h90v1h-90zM316,441h90v1h-90zM107,442h92v1h-92zM313,442h92v1h-92zM108,443h95v1h-95zM310,443h94v1h-94zM110,444h96v1h-96zM306,444h96v1h-96zM111,445h99v1h-99zM302,445h99v1h-99zM112,446h102v1h-102zM298,446h102v1h-102zM113,447h105v1h-105zM294,447h105v1h-105zM115,448h109v1h-109zM288,448h109v1h-109zM116,449h115v1h-115zM281,449h115v1h-115zM117,450h123v1h-123zM272,450h123v1h-123zM119,451h274v1h-274zM120,452h272v1h-272zM122,453h268v1h-268zM123,454h266v1h-266zM124,455h264v1h-264zM126,456h260v1h-260zM128,457h257v1h-257zM129,458h254v1h-254zM131,459h250v1h-250zM132,460h248v1h-248zM134,461h244v1h-244zM135,462h242v1h-242zM137,463h238v1h-238zM139,464h234v1h-234zM141,465h231v1h-231zM142,466h228v1h-228zM144,467h224v1h-224zM146,468h220v1h-220zM148,469h216v1h-216zM150,470h212v1h-212zM152,471h208v1h-208zM154,472h204v1h-204zM156,473h200v1h-200zM158,474h196v1h-196zM160,475h192v1h-192zM163,476h187v1h-187zM165,477h182v1h-182zM167,478h178v1h-178zM170,479h172v1h-172zM172,480h168v1h-168zM175,481h162v1h-162zM178,482h157v1h-157zM181,483h151v1h-151zM184,484h145v1h-145zM187,485h138v1h-138zM190,486h132v1h-132zM194,487h125v1h-125zM197,488h118v1h-118zM201,489h110v1h-110zM206,490h101v1h-101zM210,491h92v1h-92zM216,492h80v1h-80zM222,493h68v1h-68zM230,494h52v1h-52zM241,495h30v1h-30z" fill="#000"/>
</svg>