<?xml version="1.0" encoding="UTF-8"?>
<svg xmlns="http://www.w3.org/2000/svg" width="512" height="512" viewBox="0 0 512 512">
<path d="M200,0h24v1h-24zM191,1h45v1h-45zM182,2h62v1h-62zM175,3h75v1h-75zM170,4h85v1h-85zM166,5h95v1h-95zM161,6h104v1h-104zM158,7h110v1h-110zM154,8h118v1h-118zM151,9h124v1h-124zM147,10h132v1h-132zM145,11h137v1h-137zM142,12h143v1h-143zM139,13h148v1h-148zM136,14h154v1h-154zM134,15h158v1h-158zM131,16h164v1h-164zM129,17h67v1h-67zM231,17h66v1h-66zM424,17h6v1h-6zM127,18h59v1h-59zM239,18h61v1h-61zM418,18h18v1h-18zM124,19h56v1h-56zM247,19h55v1h-55zM415,19h24v1h-24zM122,20h53v1h-53zM251,20h53v1h-53zM412,20h29v1h-29zM120,21h49v1h-49zM256,21h50v1h-50zM410,21h33v1h-33zM118,22h48v1h-48zM261,22h47v1h-47zM409,22h36v1h-36zM116,23h46v1h-46zM265,23h45v1h-45zM407,23h39v1h-39zM114,24h44v1h-44zM268,24h44v1h-44zM406,24h42v1h-42zM112,25h43v1h-43zM271,25h43v1h-43zM405,25h44v1h-44zM110,26h41v1h-41zM274,26h42v1h-42zM403,26h47v1h-47zM109,27h40v1h-40zM277,27h41v1h-41zM402,27h49v1h-49zM107,28h39v1h-39zM280,28h40v1h-40zM401,28h51v1h-51zM105,29h39v1h-39zM283,29h38v1h-38zM401,29h52v1h-52zM104,30h37v1h-37zM285,30h38v1h-38zM400,30h53v1h-53zM102,31h36v1h-36zM288,31h37v1h-37zM399,31h55v1h-55zM100,32h36v1h-36zM290,32h36v1h-36zM398,32h57v1h-57zM99,33h34v1h-34zM292,33h36v1h-36zM398,33h58v1h-58zM97,34h34v1h-34zM208,34h11v1h-11zM295,34h34v1h-34zM397,34h27v1h-27zM429,34h27v1h-27zM96,35h33v1h-33zM193,35h41v1h-41zM297,35h34v1h-34zM397,35h23v1h-23zM433,35h24v1h-24zM94,36h33v1h-33zM186,36h54v1h-54zM299,36h33v1h-33zM396,36h22v1h-22zM435,36h22v1h-22zM93,37h32v1h-32zM180,37h67v1h-67zM301,37h33v1h-33zM396,37h21v1h-21zM437,37h21v1h-21zM91,38h32v1h-32zM175,38h77v1h-77zM303,38h32v1h-32zM395,38h21v1h-21zM438,38h20v1h-20zM90,39h31v1h-31zM171,39h85v1h-85zM305,39h32v1h-32zM395,39h19v1h-19zM439,39h19v1h-19zM88,40h31v1h-31zM167,40h93v1h-93zM307,40h31v1h-31zM394,40h20v1h-20zM440,40h19v1h-19zM87,41h30v1h-30zM163,41h100v1h-100zM309,41h31v1h-31zM394,41h19v1h-19zM441,41h18v1h-18zM86,42h30v1h-30zM160,42h107v1h-107zM310,42h31v1h-31zM394,42h18v1h-18zM441,42h19v1h-19zM84,43h30v1h-30zM157,43h113v1h-113zM312,43h30v1h-30zM394,43h18v1h-18zM442,43h70v1h-70zM83,44h29v1h-29zM154,44h119v1h-119zM314,44h30v1h-30zM393,44h18v1h-18zM442,44h70v1h-70zM82,45h29v1h-29zM151,45h124v1h-124zM316,45h29v1h-29zM393,45h18v1h-18zM443,45h69v1h-69zM81,46h28v1h-28zM149,46h129v1h-129zM317,46h29v1h-29zM393,46h17v1h-17zM443,46h69v1h-69zM79,47h28v1h-28zM146,47h135v1h-135zM319,47h28v1h-28zM393,47h17v1h-17zM443,47h69v1h-69zM78,48h28v1h-28zM143,48h140v1h-140zM320,48h29v1h-29zM393,48h17v1h-17zM443,48h69v1h-69zM77,49h27v1h-27zM141,49h144v1h-144zM322,49h28v1h-28zM393,49h17v1h-17zM444,49h68v1h-68zM76,50h27v1h-27zM139,50h149v1h-149zM323,50h28v1h-28zM393,50h17v1h-17zM444,50h68v1h-68zM74,51h27v1h-27zM137,51h72v1h-72zM220,51h70v1h-70zM325,51h27v1h-27zM393,51h17v1h-17zM444,51h68v1h-68zM73,52h27v1h-27zM135,52h60v1h-60zM233,52h59v1h-59zM326,52h27v1h-27zM393,52h17v1h-17zM444,52h68v1h-68zM72,53h26v1h-26zM133,53h54v1h-54zM240,53h54v1h-54zM328,53h26v1h-26zM393,53h17v1h-17zM444,53h68v1h-68zM71,54h26v1h-26zM131,54h51v1h-51zM245,54h51v1h-51zM329,54h26v1h-26zM393,54h17v1h-17zM443,54h69v1h-69zM70,55h26v1h-26zM129,55h49v1h-49zM250,55h48v1h-48zM331,55h26v1h-26zM393,55h17v1h-17zM443,55h69v1h-69zM69,56h25v1h-25zM127,56h46v1h-46zM254,56h46v1h-46zM332,56h26v1h-26zM393,56h18v1h-18zM443,56h69v1h-69zM68,57h25v1h-25zM125,57h44v1h-44zM257,57h44v1h-44zM333,57h26v1h-26zM393,57h18v1h-18zM443,57h69v1h-69zM67,58h25v1h-25zM124,58h42v1h-42zM261,58h42v1h-42zM334,58h26v1h-26zM393,58h18v1h-18zM442,58h70v1h-70zM66,59h25v1h-25zM122,59h41v1h-41zM264,59h41v1h-41zM336,59h25v1h-25zM394,59h18v1h-18zM442,59h70v1h-70zM65,60h24v1h-24zM120,60h40v1h-40zM267,60h39v1h-39zM337,60h25v1h-25zM394,60h18v1h-18zM441,60h18v1h-18zM64,61h24v1h-24zM119,61h38v1h-38zM270,61h38v1h-38zM338,61h25v1h-25zM394,61h19v1h-19zM440,61h19v1h-19zM63,62h24v1h-24zM117,62h38v1h-38zM272,62h38v1h-38zM339,62h25v1h-25zM395,62h19v1h-19zM439,62h20v1h-20zM62,63h24v1h-24zM115,63h37v1h-37zM275,63h36v1h-36zM340,63h25v1h-25zM395,63h20v1h-20zM439,63h19v1h-19zM61,64h24v1h-24zM114,64h36v1h-36zM277,64h36v1h-36zM341,64h25v1h-25zM395,64h21v1h-21zM437,64h21v1h-21zM60,65h23v1h-23zM112,65h35v1h-35zM280,65h34v1h-34zM343,65h24v1h-24zM396,65h21v1h-21zM436,65h22v1h-22zM59,66h23v1h-23zM111,66h34v1h-34zM282,66h34v1h-34zM344,66h24v1h-24zM396,66h23v1h-23zM434,66h23v1h-23zM58,67h23v1h-23zM110,67h33v1h-33zM284,67h33v1h-33zM345,67h24v1h-24zM397,67h25v1h-25zM432,67h24v1h-24zM57,68h23v1h-23zM108,68h33v1h-33zM286,68h32v1h-32zM346,68h24v1h-24zM397,68h59v1h-59zM56,69h23v1h-23zM107,69h32v1h-32zM288,69h32v1h-32zM347,69h24v1h-24zM396,69h59v1h-59zM55,70h23v1h-23zM106,70h31v1h-31zM290,70h31v1h-31zM348,70h24v1h-24zM395,70h60v1h-60zM54,71h23v1h-23zM104,71h31v1h-31zM291,71h31v1h-31zM349,71h23v1h-23zM394,71h60v1h-60zM53,72h23v1h-23zM103,72h31v1h-31zM293,72h31v1h-31zM350,72h23v1h-23zM393,72h60v1h-60zM52,73h23v1h-23zM102,73h30v1h-30zM295,73h30v1h-30zM351,73h23v1h-23zM392,73h60v1h-60zM51,74h23v1h-23zM100,74h30v1h-30zM297,74h29v1h-29zM352,74h23v1h-23zM391,74h61v1h-61zM51,75h22v1h-22zM99,75h30v1h-30zM298,75h30v1h-30zM353,75h23v1h-23zM390,75h61v1h-61zM50,76h22v1h-22zM98,76h29v1h-29zM300,76h29v1h-29zM354,76h23v1h-23zM389,76h60v1h-60zM49,77h22v1h-22zM97,77h28v1h-28zM302,77h28v1h-28zM355,77h23v1h-23zM388,77h60v1h-60zM48,78h22v1h-22zM96,78h28v1h-28zM303,78h28v1h-28zM356,78h22v1h-22zM387,78h60v1h-60zM47,79h22v1h-22zM95,79h27v1h-27zM305,79h27v1h-27zM357,79h22v1h-22zM386,79h60v1h-60zM46,80h22v1h-22zM94,80h27v1h-27zM306,80h27v1h-27zM358,80h22v1h-22zM385,80h59v1h-59zM46,81h21v1h-21zM92,81h28v1h-28zM307,81h27v1h-27zM359,81h22v1h-22zM384,81h25v1h-25zM411,81h31v1h-31zM45,82h21v1h-21zM91,82h27v1h-27zM309,82h26v1h-26zM360,82h22v1h-22zM383,82h25v1h-25zM413,82h27v1h-27zM44,83h22v1h-22zM90,83h27v1h-27zM310,83h26v1h-26zM361,83h46v1h-46zM416,83h22v1h-22zM43,84h22v1h-22zM89,84h27v1h-27zM312,84h26v1h-26zM362,84h44v1h-44zM419,84h15v1h-15zM43,85h21v1h-21zM88,85h26v1h-26zM313,85h26v1h-26zM363,85h42v1h-42zM42,86h21v1h-21zM87,86h26v1h-26zM314,86h26v1h-26zM363,86h41v1h-41zM41,87h21v1h-21zM86,87h26v1h-26zM315,87h26v1h-26zM364,87h39v1h-39zM40,88h21v1h-21zM85,88h25v1h-25zM316,88h26v1h-26zM365,88h37v1h-37zM40,89h21v1h-21zM84,89h25v1h-25zM318,89h25v1h-25zM366,89h35v1h-35zM39,90h21v1h-21zM83,90h25v1h-25zM319,90h24v1h-24zM367,90h33v1h-33zM38,91h21v1h-21zM82,91h25v1h-25zM320,91h24v1h-24zM368,91h31v1h-31zM38,92h20v1h-20zM81,92h25v1h-25zM321,92h24v1h-24zM368,92h30v1h-30zM37,93h20v1h-20zM81,93h24v1h-24zM322,93h24v1h-24zM369,93h28v1h-28zM36,94h20v1h-20zM80,94h24v1h-24zM323,94h24v1h-24zM370,94h26v1h-26zM36,95h20v1h-20zM79,95h23v1h-23zM324,95h24v1h-24zM371,95h24v1h-24zM35,96h20v1h-20zM78,96h23v1h-23zM325,96h24v1h-24zM371,96h23v1h-23zM34,97h20v1h-20zM77,97h23v1h-23zM327,97h23v1h-23zM372,97h21v1h-21zM34,98h20v1h-20zM76,98h23v1h-23zM328,98h23v1h-23zM373,98h20v1h-20zM33,99h20v1h-20zM75,99h23v1h-23zM328,99h24v1h-24zM373,99h21v1h-21zM32,100h20v1h-20zM74,100h23v1h-23zM329,100h23v1h-23zM374,100h20v1h-20zM32,101h20v1h-20zM74,101h22v1h-22zM330,101h23v1h-23zM375,101h20v1h-20zM31,102h20v1h-20zM73,102h23v1h-23zM331,102h23v1h-23zM375,102h20v1h-20zM30,103h20v1h-20zM72,103h23v1h-23zM332,103h23v1h-23zM376,103h20v1h-20zM30,104h20v1h-20zM71,104h23v1h-23zM333,104h22v1h-22zM377,104h20v1h-20zM29,105h20v1h-20zM71,105h22v1h-22zM334,105h22v1h-22zM377,105h20v1h-20zM29,106h19v1h-19zM70,106h22v1h-22zM335,106h22v1h-22zM378,106h20v1h-20zM28,107h19v1h-19zM69,107h22v1h-22zM336,107h22v1h-22zM379,107h19v1h-19zM28,108h19v1h-19zM68,108h22v1h-22zM337,108h21v1h-21zM379,108h20v1h-20zM27,109h19v1h-19zM68,109h21v1h-21zM338,109h21v1h-21zM380,109h20v1h-20zM26,110h19v1h-19zM67,110h21v1h-21zM338,110h22v1h-22zM381,110h19v1h-19zM26,111h19v1h-19zM66,111h22v1h-22zM339,111h22v1h-22zM381,111h20v1h-20zM25,112h19v1h-19zM65,112h22v1h-22zM340,112h21v1h-21zM382,112h19v1h-19zM25,113h19v1h-19zM65,113h21v1h-21zM341,113h21v1h-21zM382,113h20v1h-20zM24,114h19v1h-19zM64,114h21v1h-21zM342,114h21v1h-21zM383,114h19v1h-19zM24,115h19v1h-19zM64,115h20v1h-20zM342,115h21v1h-21zM384,115h19v1h-19zM23,116h19v1h-19zM63,116h21v1h-21zM343,116h21v1h-21zM384,116h19v1h-19zM23,117h19v1h-19zM62,117h21v1h-21zM344,117h21v1h-21zM385,117h19v1h-19zM22,118h19v1h-19zM62,118h20v1h-20zM345,118h20v1h-20zM385,118h19v1h-19zM22,119h19v1h-19zM61,119h21v1h-21zM345,119h21v1h-21zM386,119h19v1h-19zM21,120h19v1h-19zM60,120h21v1h-21zM345,120h21v1h-21zM386,120h19v1h-19zM21,121h18v1h-18zM60,121h20v1h-20zM344,121h23v1h-23zM387,121h19v1h-19zM20,122h19v1h-19zM59,122h21v1h-21zM343,122h25v1h-25zM387,122h19v1h-19zM20,123h18v1h-18zM59,123h20v1h-20zM342,123h26v1h-26zM388,123h19v1h-19zM19,124h19v1h-19zM58,124h20v1h-20zM341,124h28v1h-28zM388,124h19v1h-19zM19,125h18v1h-18zM57,125h20v1h-20zM340,125h29v1h-29zM389,125h19v1h-19zM18,126h19v1h-19zM57,126h20v1h-20zM339,126h31v1h-31zM389,126h19v1h-19zM18,127h18v1h-18zM56,127h20v1h-20zM338,127h33v1h-33zM390,127h18v1h-18zM18,128h18v1h-18zM56,128h19v1h-19zM337,128h34v1h-34zM390,128h19v1h-19zM17,129h18v1h-18zM55,129h20v1h-20zM336,129h36v1h-36zM391,129h18v1h-18zM17,130h18v1h-18zM55,130h19v1h-19zM335,130h37v1h-37zM391,130h19v1h-19zM17,131h18v1h-18zM54,131h20v1h-20zM334,131h39v1h-39zM392,131h18v1h-18zM16,132h18v1h-18zM54,132h19v1h-19zM333,132h40v1h-40zM392,132h19v1h-19zM16,133h18v1h-18zM53,133h20v1h-20zM332,133h42v1h-42zM393,133h18v1h-18zM15,134h18v1h-18zM53,134h19v1h-19zM331,134h43v1h-43zM393,134h18v1h-18zM15,135h18v1h-18zM52,135h20v1h-20zM330,135h44v1h-44zM394,135h18v1h-18zM15,136h17v1h-17zM52,136h19v1h-19zM329,136h25v1h-25zM356,136h19v1h-19zM394,136h18v1h-18zM14,137h18v1h-18zM51,137h19v1h-19zM300,137h14v1h-14zM328,137h25v1h-25zM356,137h19v1h-19zM394,137h19v1h-19zM14,138h18v1h-18zM51,138h19v1h-19zM297,138h21v1h-21zM327,138h25v1h-25zM357,138h19v1h-19zM395,138h18v1h-18zM13,139h18v1h-18zM50,139h19v1h-19zM294,139h27v1h-27zM326,139h25v1h-25zM357,139h19v1h-19zM395,139h18v1h-18zM13,140h18v1h-18zM50,140h19v1h-19zM292,140h31v1h-31zM325,140h25v1h-25zM358,140h19v1h-19zM396,140h18v1h-18zM13,141h17v1h-17zM49,141h19v1h-19zM290,141h59v1h-59zM358,141h19v1h-19zM396,141h18v1h-18zM12,142h18v1h-18zM49,142h19v1h-19zM288,142h60v1h-60zM359,142h19v1h-19zM396,142h18v1h-18zM12,143h17v1h-17zM48,143h19v1h-19zM287,143h60v1h-60zM359,143h19v1h-19zM397,143h18v1h-18zM11,144h18v1h-18zM48,144h19v1h-19zM286,144h60v1h-60zM360,144h19v1h-19zM397,144h18v1h-18zM11,145h18v1h-18zM48,145h18v1h-18zM284,145h61v1h-61zM360,145h19v1h-19zM398,145h17v1h-17zM11,146h17v1h-17zM47,146h19v1h-19zM283,146h61v1h-61zM361,146h18v1h-18zM398,146h18v1h-18zM10,147h18v1h-18zM47,147h19v1h-19zM282,147h61v1h-61zM361,147h19v1h-19zM398,147h18v1h-18zM10,148h18v1h-18zM47,148h18v1h-18zM282,148h60v1h-60zM362,148h18v1h-18zM399,148h17v1h-17zM10,149h17v1h-17zM46,149h19v1h-19zM281,149h60v1h-60zM362,149h19v1h-19zM399,149h18v1h-18zM10,150h17v1h-17zM46,150h18v1h-18zM280,150h60v1h-60zM363,150h18v1h-18zM399,150h18v1h-18zM9,151h18v1h-18zM46,151h18v1h-18zM279,151h60v1h-60zM363,151h18v1h-18zM400,151h17v1h-17zM9,152h17v1h-17zM45,152h18v1h-18zM279,152h59v1h-59zM363,152h19v1h-19zM400,152h18v1h-18zM9,153h17v1h-17zM45,153h18v1h-18zM278,153h59v1h-59zM364,153h18v1h-18zM400,153h18v1h-18zM9,154h17v1h-17zM44,154h19v1h-19zM113,154h14v1h-14zM277,154h25v1h-25zM312,154h25v1h-25zM364,154h18v1h-18zM401,154h17v1h-17zM8,155h17v1h-17zM44,155h18v1h-18zM109,155h21v1h-21zM277,155h23v1h-23zM315,155h23v1h-23zM365,155h18v1h-18zM401,155h18v1h-18zM8,156h17v1h-17zM44,156h18v1h-18zM106,156h27v1h-27zM276,156h22v1h-22zM317,156h21v1h-21zM365,156h18v1h-18zM401,156h18v1h-18zM8,157h17v1h-17zM43,157h19v1h-19zM104,157h31v1h-31zM276,157h21v1h-21zM318,157h21v1h-21zM365,157h19v1h-19zM402,157h17v1h-17zM7,158h18v1h-18zM43,158h18v1h-18zM102,158h35v1h-35zM276,158h19v1h-19zM319,158h20v1h-20zM366,158h18v1h-18zM402,158h17v1h-17zM7,159h17v1h-17zM43,159h18v1h-18zM101,159h38v1h-38zM275,159h20v1h-20zM320,159h19v1h-19zM366,159h18v1h-18zM402,159h18v1h-18zM7,160h17v1h-17zM42,160h18v1h-18zM99,160h41v1h-41zM275,160h19v1h-19zM321,160h19v1h-19zM366,160h19v1h-19zM402,160h18v1h-18zM7,161h17v1h-17zM42,161h18v1h-18zM98,161h43v1h-43zM275,161h18v1h-18zM322,161h18v1h-18zM367,161h18v1h-18zM403,161h17v1h-17zM6,162h17v1h-17zM42,162h18v1h-18zM97,162h45v1h-45zM274,162h18v1h-18zM322,162h18v1h-18zM367,162h18v1h-18zM403,162h17v1h-17zM6,163h17v1h-17zM42,163h17v1h-17zM96,163h48v1h-48zM274,163h18v1h-18zM323,163h18v1h-18zM368,163h17v1h-17zM403,163h18v1h-18zM6,164h17v1h-17zM41,164h18v1h-18zM95,164h49v1h-49zM274,164h17v1h-17zM323,164h18v1h-18zM368,164h18v1h-18zM403,164h18v1h-18zM5,165h18v1h-18zM41,165h18v1h-18zM94,165h51v1h-51zM274,165h17v1h-17zM323,165h18v1h-18zM368,165h18v1h-18zM404,165h17v1h-17zM5,166h17v1h-17zM41,166h17v1h-17zM93,166h53v1h-53zM274,166h17v1h-17zM324,166h17v1h-17zM369,166h17v1h-17zM404,166h17v1h-17zM5,167h17v1h-17zM40,167h18v1h-18zM92,167h55v1h-55zM273,167h18v1h-18zM324,167h17v1h-17zM369,167h17v1h-17zM404,167h18v1h-18zM5,168h17v1h-17zM40,168h18v1h-18zM92,168h56v1h-56zM273,168h17v1h-17zM324,168h17v1h-17zM369,168h18v1h-18zM405,168h17v1h-17zM5,169h17v1h-17zM40,169h18v1h-18zM91,169h57v1h-57zM273,169h17v1h-17zM324,169h17v1h-17zM369,169h18v1h-18zM405,169h17v1h-17zM5,170h17v1h-17zM40,170h17v1h-17zM90,170h59v1h-59zM273,170h17v1h-17zM324,170h17v1h-17zM370,170h17v1h-17zM405,170h17v1h-17zM4,171h17v1h-17zM39,171h18v1h-18zM90,171h25v1h-25zM124,171h25v1h-25zM273,171h17v1h-17zM324,171h17v1h-17zM370,171h17v1h-17zM405,171h17v1h-17zM4,172h17v1h-17zM39,172h18v1h-18zM89,172h23v1h-23zM127,172h23v1h-23zM273,172h17v1h-17zM324,172h17v1h-17zM370,172h18v1h-18zM405,172h18v1h-18zM4,173h17v1h-17zM39,173h18v1h-18zM89,173h21v1h-21zM129,173h22v1h-22zM273,173h17v1h-17zM324,173h17v1h-17zM370,173h18v1h-18zM405,173h18v1h-18zM4,174h17v1h-17zM39,174h17v1h-17zM88,174h21v1h-21zM130,174h21v1h-21zM273,174h18v1h-18zM324,174h17v1h-17zM371,174h17v1h-17zM406,174h17v1h-17zM4,175h16v1h-16zM38,175h18v1h-18zM88,175h20v1h-20zM131,175h20v1h-20zM274,175h17v1h-17zM324,175h17v1h-17zM371,175h17v1h-17zM406,175h17v1h-17zM3,176h17v1h-17zM38,176h18v1h-18zM88,176h19v1h-19zM132,176h20v1h-20zM274,176h17v1h-17zM323,176h18v1h-18zM371,176h18v1h-18zM406,176h17v1h-17zM3,177h17v1h-17zM38,177h18v1h-18zM87,177h19v1h-19zM133,177h19v1h-19zM274,177h18v1h-18zM323,177h18v1h-18zM371,177h18v1h-18zM406,177h18v1h-18zM3,178h17v1h-17zM38,178h17v1h-17zM87,178h18v1h-18zM134,178h18v1h-18zM274,178h18v1h-18zM322,178h18v1h-18zM372,178h17v1h-17zM406,178h18v1h-18zM3,179h17v1h-17zM38,179h67v1h-67zM134,179h19v1h-19zM274,179h19v1h-19zM322,179h18v1h-18zM372,179h17v1h-17zM407,179h17v1h-17zM3,180h16v1h-16zM37,180h67v1h-67zM135,180h18v1h-18zM275,180h18v1h-18zM321,180h19v1h-19zM372,180h17v1h-17zM407,180h17v1h-17zM3,181h16v1h-16zM37,181h67v1h-67zM135,181h18v1h-18zM275,181h19v1h-19zM320,181h19v1h-19zM372,181h18v1h-18zM407,181h17v1h-17zM2,182h17v1h-17zM37,182h66v1h-66zM136,182h17v1h-17zM275,182h20v1h-20zM320,182h19v1h-19zM372,182h18v1h-18zM407,182h17v1h-17zM2,183h17v1h-17zM37,183h66v1h-66zM136,183h17v1h-17zM276,183h20v1h-20zM318,183h21v1h-21zM373,183h17v1h-17zM407,183h18v1h-18zM2,184h17v1h-17zM37,184h66v1h-66zM136,184h17v1h-17zM276,184h21v1h-21zM317,184h21v1h-21zM373,184h17v1h-17zM408,184h17v1h-17zM2,185h17v1h-17zM37,185h66v1h-66zM136,185h18v1h-18zM277,185h22v1h-22zM316,185h22v1h-22zM373,185h17v1h-17zM408,185h17v1h-17zM2,186h17v1h-17zM37,186h66v1h-66zM137,186h17v1h-17zM277,186h24v1h-24zM314,186h23v1h-23zM373,186h17v1h-17zM408,186h17v1h-17zM2,187h17v1h-17zM36,187h67v1h-67zM137,187h17v1h-17zM278,187h26v1h-26zM310,187h27v1h-27zM373,187h17v1h-17zM408,187h17v1h-17zM2,188h16v1h-16zM36,188h67v1h-67zM137,188h17v1h-17zM277,188h59v1h-59zM373,188h18v1h-18zM408,188h17v1h-17zM2,189h16v1h-16zM36,189h67v1h-67zM137,189h17v1h-17zM276,189h60v1h-60zM374,189h17v1h-17zM408,189h17v1h-17zM1,190h17v1h-17zM36,190h67v1h-67zM136,190h18v1h-18zM275,190h60v1h-60zM374,190h17v1h-17zM408,190h17v1h-17zM1,191h17v1h-17zM36,191h67v1h-67zM136,191h17v1h-17zM274,191h60v1h-60zM374,191h17v1h-17zM408,191h17v1h-17zM1,192h17v1h-17zM36,192h67v1h-67zM136,192h17v1h-17zM273,192h60v1h-60zM374,192h17v1h-17zM408,192h18v1h-18zM1,193h17v1h-17zM35,193h69v1h-69zM136,193h17v1h-17zM272,193h61v1h-61zM374,193h17v1h-17zM409,193h17v1h-17zM1,194h17v1h-17zM35,194h69v1h-69zM135,194h18v1h-18zM271,194h61v1h-61zM374,194h18v1h-18zM409,194h17v1h-17zM1,195h17v1h-17zM35,195h69v1h-69zM135,195h18v1h-18zM270,195h61v1h-61zM375,195h17v1h-17zM409,195h17v1h-17zM1,196h16v1h-16zM35,196h17v1h-17zM87,196h18v1h-18zM134,196h19v1h-19zM269,196h60v1h-60zM375,196h17v1h-17zM409,196h17v1h-17zM1,197h16v1h-16zM35,197h17v1h-17zM87,197h19v1h-19zM134,197h18v1h-18zM268,197h60v1h-60zM375,197h17v1h-17zM409,197h17v1h-17zM1,198h16v1h-16zM35,198h17v1h-17zM87,198h19v1h-19zM133,198h19v1h-19zM267,198h60v1h-60zM375,198h17v1h-17zM409,198h17v1h-17zM1,199h16v1h-16zM35,199h17v1h-17zM88,199h19v1h-19zM132,199h19v1h-19zM266,199h59v1h-59zM375,199h17v1h-17zM409,199h17v1h-17zM1,200h16v1h-16zM35,200h17v1h-17zM88,200h20v1h-20zM131,200h20v1h-20zM265,200h25v1h-25zM291,200h33v1h-33zM375,200h17v1h-17zM409,200h17v1h-17zM0,201h17v1h-17zM35,201h17v1h-17zM89,201h21v1h-21zM130,201h21v1h-21zM264,201h25v1h-25zM293,201h29v1h-29zM375,201h17v1h-17zM409,201h17v1h-17zM0,202h17v1h-17zM35,202h17v1h-17zM89,202h22v1h-22zM128,202h22v1h-22zM263,202h25v1h-25zM295,202h24v1h-24zM375,202h17v1h-17zM409,202h17v1h-17zM0,203h17v1h-17zM35,203h17v1h-17zM90,203h23v1h-23zM126,203h24v1h-24zM262,203h25v1h-25zM298,203h18v1h-18zM375,203h17v1h-17zM409,203h17v1h-17zM0,204h17v1h-17zM35,204h17v1h-17zM90,204h26v1h-26zM123,204h26v1h-26zM261,204h25v1h-25zM303,204h8v1h-8zM375,204h17v1h-17zM409,204h17v1h-17zM0,205h17v1h-17zM35,205h17v1h-17zM91,205h58v1h-58zM260,205h25v1h-25zM375,205h17v1h-17zM409,205h17v1h-17zM0,206h17v1h-17zM35,206h17v1h-17zM91,206h59v1h-59zM259,206h25v1h-25zM375,206h17v1h-17zM409,206h17v1h-17zM0,207h17v1h-17zM35,207h17v1h-17zM92,207h59v1h-59zM258,207h25v1h-25zM375,207h17v1h-17zM409,207h17v1h-17zM0,208h17v1h-17zM35,208h17v1h-17zM93,208h59v1h-59zM257,208h25v1h-25zM375,208h17v1h-17zM409,208h18v1h-18zM0,209h17v1h-17zM35,209h17v1h-17zM94,209h59v1h-59zM256,209h25v1h-25zM375,209h17v1h-17zM409,209h18v1h-18zM0,210h17v1h-17zM34,210h18v1h-18zM94,210h60v1h-60zM255,210h25v1h-25zM375,210h17v1h-17zM410,210h17v1h-17zM0,211h17v1h-17zM34,211h17v1h-17zM95,211h60v1h-60zM254,211h25v1h-25zM376,211h16v1h-16zM410,211h17v1h-17zM0,212h17v1h-17zM34,212h17v1h-17zM96,212h60v1h-60zM253,212h25v1h-25zM376,212h17v1h-17zM410,212h17v1h-17zM0,213h17v1h-17zM34,213h17v1h-17zM97,213h60v1h-60zM252,213h25v1h-25zM375,213h18v1h-18zM410,213h17v1h-17zM0,214h17v1h-17zM34,214h17v1h-17zM99,214h59v1h-59zM251,214h25v1h-25zM375,214h18v1h-18zM410,214h17v1h-17zM0,215h17v1h-17zM34,215h17v1h-17zM100,215h59v1h-59zM250,215h25v1h-25zM375,215h17v1h-17zM410,215h17v1h-17zM0,216h17v1h-17zM34,216h18v1h-18zM102,216h58v1h-58zM249,216h25v1h-25zM375,216h17v1h-17zM409,216h18v1h-18zM0,217h17v1h-17zM35,217h17v1h-17zM103,217h33v1h-33zM137,217h24v1h-24zM248,217h25v1h-25zM375,217h17v1h-17zM409,217h18v1h-18zM0,218h17v1h-17zM35,218h17v1h-17zM105,218h29v1h-29zM138,218h24v1h-24zM247,218h25v1h-25zM375,218h17v1h-17zM409,218h18v1h-18zM0,219h17v1h-17zM35,219h17v1h-17zM107,219h25v1h-25zM139,219h24v1h-24zM246,219h25v1h-25zM375,219h17v1h-17zM409,219h17v1h-17zM0,220h17v1h-17zM35,220h17v1h-17zM110,220h19v1h-19zM140,220h24v1h-24zM245,220h25v1h-25zM375,220h17v1h-17zM409,220h17v1h-17zM0,221h17v1h-17zM35,221h17v1h-17zM115,221h9v1h-9zM141,221h24v1h-24zM244,221h25v1h-25zM375,221h17v1h-17zM409,221h17v1h-17zM0,222h17v1h-17zM35,222h17v1h-17zM142,222h24v1h-24zM243,222h25v1h-25zM375,222h17v1h-17zM409,222h17v1h-17zM0,223h17v1h-17zM35,223h17v1h-17zM143,223h24v1h-24zM242,223h25v1h-25zM375,223h17v1h-17zM409,223h17v1h-17zM0,224h17v1h-17zM35,224h17v1h-17zM144,224h24v1h-24zM241,224h25v1h-25zM375,224h17v1h-17zM409,224h17v1h-17zM0,225h17v1h-17zM35,225h17v1h-17zM145,225h24v1h-24zM240,225h25v1h-25zM375,225h17v1h-17zM409,225h17v1h-17zM0,226h17v1h-17zM35,226h17v1h-17zM146,226h24v1h-24zM239,226h25v1h-25zM375,226h17v1h-17zM409,226h17v1h-17zM1,227h16v1h-16zM35,227h17v1h-17zM147,227h24v1h-24zM238,227h25v1h-25zM375,227h17v1h-17zM409,227h17v1h-17zM1,228h16v1h-16zM35,228h17v1h-17zM148,228h24v1h-24zM237,228h25v1h-25zM375,228h17v1h-17zM409,228h17v1h-17zM1,229h17v1h-17zM35,229h17v1h-17zM149,229h24v1h-24zM236,229h25v1h-25zM375,229h17v1h-17zM409,229h17v1h-17zM1,230h17v1h-17zM35,230h17v1h-17zM150,230h24v1h-24zM235,230h25v1h-25zM375,230h17v1h-17zM409,230h17v1h-17zM1,231h17v1h-17zM35,231h17v1h-17zM151,231h24v1h-24zM234,231h25v1h-25zM374,231h18v1h-18zM409,231h17v1h-17zM1,232h17v1h-17zM35,232h18v1h-18zM152,232h24v1h-24zM233,232h25v1h-25zM374,232h18v1h-18zM409,232h17v1h-17zM1,233h17v1h-17zM36,233h17v1h-17zM153,233h24v1h-24zM232,233h25v1h-25zM374,233h17v1h-17zM408,233h18v1h-18zM1,234h17v1h-17zM36,234h17v1h-17zM154,234h24v1h-24zM231,234h25v1h-25zM374,234h17v1h-17zM408,234h18v1h-18zM1,235h17v1h-17zM36,235h17v1h-17zM155,235h24v1h-24zM230,235h25v1h-25zM374,235h17v1h-17zM408,235h17v1h-17zM1,236h17v1h-17zM36,236h17v1h-17zM156,236h24v1h-24zM229,236h25v1h-25zM374,236h17v1h-17zM408,236h17v1h-17zM2,237h16v1h-16zM36,237h17v1h-17zM157,237h24v1h-24zM228,237h25v1h-25zM374,237h17v1h-17zM408,237h17v1h-17zM2,238h16v1h-16zM36,238h18v1h-18zM158,238h24v1h-24zM227,238h25v1h-25zM373,238h18v1h-18zM408,238h17v1h-17zM2,239h16v1h-16zM36,239h18v1h-18zM159,239h24v1h-24zM199,239h12v1h-12zM226,239h25v1h-25zM373,239h17v1h-17zM408,239h17v1h-17zM2,240h17v1h-17zM37,240h17v1h-17zM160,240h24v1h-24zM195,240h20v1h-20zM225,240h25v1h-25zM373,240h17v1h-17zM408,240h17v1h-17zM2,241h17v1h-17zM37,241h17v1h-17zM161,241h24v1h-24zM192,241h26v1h-26zM224,241h25v1h-25zM373,241h17v1h-17zM408,241h17v1h-17zM2,242h17v1h-17zM37,242h17v1h-17zM162,242h24v1h-24zM190,242h30v1h-30zM223,242h25v1h-25zM373,242h17v1h-17zM407,242h18v1h-18zM2,243h17v1h-17zM37,243h17v1h-17zM163,243h24v1h-24zM188,243h59v1h-59zM373,243h17v1h-17zM407,243h18v1h-18zM2,244h17v1h-17zM37,244h17v1h-17zM164,244h82v1h-82zM372,244h18v1h-18zM407,244h17v1h-17zM2,245h18v1h-18zM37,245h18v1h-18zM165,245h80v1h-80zM372,245h18v1h-18zM407,245h17v1h-17zM3,246h17v1h-17zM38,246h17v1h-17zM166,246h78v1h-78zM372,246h17v1h-17zM407,246h17v1h-17zM3,247h17v1h-17zM38,247h17v1h-17zM167,247h76v1h-76zM372,247h17v1h-17zM406,247h18v1h-18zM3,248h17v1h-17zM38,248h17v1h-17zM168,248h74v1h-74zM372,248h17v1h-17zM406,248h18v1h-18zM3,249h17v1h-17zM38,249h18v1h-18zM169,249h72v1h-72zM371,249h18v1h-18zM406,249h17v1h-17zM3,250h17v1h-17zM38,250h18v1h-18zM170,250h70v1h-70zM371,250h18v1h-18zM406,250h17v1h-17zM3,251h18v1h-18zM38,251h18v1h-18zM171,251h68v1h-68zM371,251h17v1h-17zM406,251h17v1h-17zM4,252h17v1h-17zM39,252h17v1h-17zM172,252h66v1h-66zM371,252h17v1h-17zM406,252h17v1h-17zM4,253h17v1h-17zM39,253h18v1h-18zM173,253h64v1h-64zM370,253h18v1h-18zM405,253h18v1h-18zM4,254h17v1h-17zM39,254h18v1h-18zM174,254h62v1h-62zM370,254h18v1h-18zM405,254h18v1h-18zM4,255h17v1h-17zM40,255h17v1h-17zM175,255h60v1h-60zM370,255h17v1h-17zM405,255h17v1h-17zM4,256h17v1h-17zM40,256h17v1h-17zM175,256h26v1h-26zM209,256h26v1h-26zM370,256h17v1h-17zM405,256h17v1h-17zM5,257h17v1h-17zM40,257h18v1h-18zM175,257h23v1h-23zM212,257h23v1h-23zM369,257h18v1h-18zM405,257h17v1h-17zM5,258h17v1h-17zM40,258h18v1h-18zM174,258h22v1h-22zM214,258h22v1h-22zM369,258h18v1h-18zM404,258h18v1h-18zM5,259h17v1h-17zM41,259h17v1h-17zM174,259h21v1h-21zM215,259h21v1h-21zM369,259h17v1h-17zM404,259h18v1h-18zM5,260h18v1h-18zM41,260h17v1h-17zM173,260h20v1h-20zM216,260h21v1h-21zM368,260h18v1h-18zM404,260h17v1h-17zM6,261h17v1h-17zM41,261h18v1h-18zM173,261h19v1h-19zM217,261h20v1h-20zM368,261h18v1h-18zM403,261h18v1h-18zM6,262h17v1h-17zM41,262h18v1h-18zM173,262h19v1h-19zM218,262h19v1h-19zM368,262h18v1h-18zM403,262h18v1h-18zM6,263h17v1h-17zM42,263h17v1h-17zM172,263h19v1h-19zM219,263h19v1h-19zM367,263h18v1h-18zM403,263h18v1h-18zM6,264h18v1h-18zM42,264h18v1h-18zM172,264h18v1h-18zM220,264h18v1h-18zM367,264h18v1h-18zM403,264h17v1h-17zM6,265h18v1h-18zM42,265h18v1h-18zM172,265h18v1h-18zM220,265h18v1h-18zM367,265h18v1h-18zM402,265h18v1h-18zM7,266h17v1h-17zM42,266h18v1h-18zM172,266h17v1h-17zM221,266h17v1h-17zM366,266h19v1h-19zM402,266h18v1h-18zM7,267h18v1h-18zM43,267h18v1h-18zM171,267h18v1h-18zM221,267h17v1h-17zM366,267h18v1h-18zM402,267h18v1h-18zM7,268h18v1h-18zM43,268h18v1h-18zM171,268h18v1h-18zM221,268h18v1h-18zM366,268h18v1h-18zM402,268h17v1h-17zM8,269h17v1h-17zM43,269h19v1h-19zM171,269h17v1h-17zM222,269h17v1h-17zM365,269h18v1h-18zM401,269h18v1h-18zM8,270h17v1h-17zM44,270h18v1h-18zM171,270h17v1h-17zM222,270h17v1h-17zM365,270h18v1h-18zM401,270h18v1h-18zM8,271h18v1h-18zM44,271h18v1h-18zM171,271h17v1h-17zM222,271h17v1h-17zM365,271h18v1h-18zM401,271h18v1h-18zM8,272h18v1h-18zM45,272h18v1h-18zM171,272h17v1h-17zM222,272h17v1h-17zM364,272h18v1h-18zM400,272h18v1h-18zM9,273h17v1h-17zM45,273h18v1h-18zM171,273h17v1h-17zM222,273h17v1h-17zM364,273h18v1h-18zM400,273h18v1h-18zM9,274h17v1h-17zM45,274h18v1h-18zM171,274h17v1h-17zM222,274h17v1h-17zM363,274h19v1h-19zM400,274h18v1h-18zM9,275h18v1h-18zM46,275h18v1h-18zM171,275h17v1h-17zM222,275h17v1h-17zM363,275h18v1h-18zM399,275h18v1h-18zM10,276h17v1h-17zM46,276h18v1h-18zM171,276h17v1h-17zM222,276h17v1h-17zM363,276h18v1h-18zM399,276h18v1h-18zM10,277h18v1h-18zM46,277h19v1h-19zM171,277h17v1h-17zM221,277h18v1h-18zM362,277h19v1h-19zM399,277h18v1h-18zM10,278h18v1h-18zM47,278h18v1h-18zM171,278h18v1h-18zM221,278h17v1h-17zM362,278h18v1h-18zM398,278h18v1h-18zM11,279h17v1h-17zM47,279h19v1h-19zM171,279h18v1h-18zM221,279h17v1h-17zM361,279h19v1h-19zM398,279h18v1h-18zM11,280h18v1h-18zM47,280h19v1h-19zM172,280h18v1h-18zM220,280h18v1h-18zM361,280h18v1h-18zM398,280h18v1h-18zM11,281h18v1h-18zM48,281h19v1h-19zM172,281h18v1h-18zM220,281h18v1h-18zM360,281h19v1h-19zM397,281h18v1h-18zM12,282h18v1h-18zM48,282h19v1h-19zM172,282h19v1h-19zM219,282h19v1h-19zM360,282h19v1h-19zM397,282h18v1h-18zM12,283h18v1h-18zM49,283h18v1h-18zM173,283h19v1h-19zM218,283h19v1h-19zM359,283h19v1h-19zM396,283h19v1h-19zM12,284h18v1h-18zM49,284h19v1h-19zM173,284h19v1h-19zM217,284h20v1h-20zM359,284h19v1h-19zM396,284h18v1h-18zM13,285h18v1h-18zM50,285h18v1h-18zM173,285h20v1h-20zM217,285h20v1h-20zM359,285h18v1h-18zM396,285h18v1h-18zM13,286h18v1h-18zM50,286h19v1h-19zM174,286h21v1h-21zM215,286h21v1h-21zM358,286h19v1h-19zM395,286h19v1h-19zM13,287h18v1h-18zM51,287h18v1h-18zM174,287h22v1h-22zM214,287h22v1h-22zM358,287h18v1h-18zM395,287h18v1h-18zM14,288h18v1h-18zM51,288h19v1h-19zM175,288h23v1h-23zM212,288h23v1h-23zM357,288h19v1h-19zM395,288h18v1h-18zM14,289h18v1h-18zM51,289h19v1h-19zM175,289h26v1h-26zM209,289h26v1h-26zM356,289h19v1h-19zM394,289h19v1h-19zM14,290h19v1h-19zM52,290h19v1h-19zM176,290h58v1h-58zM356,290h19v1h-19zM394,290h18v1h-18zM15,291h18v1h-18zM52,291h19v1h-19zM176,291h58v1h-58zM355,291h19v1h-19zM393,291h19v1h-19zM15,292h18v1h-18zM53,292h19v1h-19zM177,292h56v1h-56zM355,292h19v1h-19zM393,292h18v1h-18zM16,293h18v1h-18zM53,293h20v1h-20zM178,293h54v1h-54zM354,293h19v1h-19zM392,293h19v1h-19zM16,294h18v1h-18zM54,294h19v1h-19zM179,294h52v1h-52zM354,294h19v1h-19zM392,294h18v1h-18zM16,295h19v1h-19zM54,295h20v1h-20zM179,295h51v1h-51zM353,295h20v1h-20zM391,295h19v1h-19zM17,296h18v1h-18zM55,296h19v1h-19zM180,296h50v1h-50zM352,296h20v1h-20zM391,296h19v1h-19zM17,297h19v1h-19zM55,297h20v1h-20zM181,297h48v1h-48zM352,297h20v1h-20zM390,297h19v1h-19zM18,298h18v1h-18zM56,298h20v1h-20zM182,298h45v1h-45zM351,298h20v1h-20zM390,298h19v1h-19zM18,299h19v1h-19zM56,299h20v1h-20zM184,299h42v1h-42zM351,299h20v1h-20zM390,299h18v1h-18zM19,300h18v1h-18zM57,300h20v1h-20zM185,300h40v1h-40zM350,300h20v1h-20zM389,300h19v1h-19zM19,301h19v1h-19zM58,301h19v1h-19zM186,301h38v1h-38zM350,301h19v1h-19zM389,301h19v1h-19zM20,302h18v1h-18zM58,302h20v1h-20zM188,302h34v1h-34zM349,302h20v1h-20zM388,302h19v1h-19zM20,303h19v1h-19zM59,303h20v1h-20zM190,303h30v1h-30zM348,303h20v1h-20zM387,303h20v1h-20zM20,304h19v1h-19zM59,304h20v1h-20zM192,304h26v1h-26zM347,304h20v1h-20zM387,304h19v1h-19zM21,305h19v1h-19zM60,305h20v1h-20zM195,305h20v1h-20zM347,305h20v1h-20zM386,305h20v1h-20zM21,306h19v1h-19zM61,306h20v1h-20zM198,306h14v1h-14zM346,306h20v1h-20zM386,306h19v1h-19zM22,307h19v1h-19zM61,307h21v1h-21zM345,307h21v1h-21zM385,307h20v1h-20zM22,308h19v1h-19zM62,308h20v1h-20zM345,308h20v1h-20zM385,308h19v1h-19zM23,309h19v1h-19zM62,309h21v1h-21zM344,309h20v1h-20zM384,309h20v1h-20zM23,310h20v1h-20zM63,310h21v1h-21zM343,310h21v1h-21zM384,310h19v1h-19zM24,311h19v1h-19zM64,311h21v1h-21zM342,311h21v1h-21zM383,311h20v1h-20zM25,312h19v1h-19zM64,312h21v1h-21zM342,312h21v1h-21zM383,312h19v1h-19zM25,313h19v1h-19zM65,313h21v1h-21zM341,313h21v1h-21zM382,313h20v1h-20zM26,314h19v1h-19zM66,314h21v1h-21zM340,314h21v1h-21zM381,314h20v1h-20zM26,315h20v1h-20zM66,315h22v1h-22zM339,315h22v1h-22zM381,315h20v1h-20zM27,316h19v1h-19zM67,316h21v1h-21zM338,316h22v1h-22zM380,316h20v1h-20zM27,317h20v1h-20zM68,317h21v1h-21zM338,317h21v1h-21zM379,317h20v1h-20zM28,318h19v1h-19zM69,318h21v1h-21zM337,318h21v1h-21zM379,318h20v1h-20zM28,319h20v1h-20zM69,319h22v1h-22zM336,319h22v1h-22zM378,319h20v1h-20zM29,320h20v1h-20zM70,320h22v1h-22zM335,320h22v1h-22zM377,320h21v1h-21zM30,321h19v1h-19zM71,321h22v1h-22zM334,321h22v1h-22zM377,321h20v1h-20zM30,322h20v1h-20zM72,322h22v1h-22zM333,322h22v1h-22zM376,322h20v1h-20zM31,323h20v1h-20zM72,323h23v1h-23zM332,323h23v1h-23zM376,323h20v1h-20zM31,324h20v1h-20zM73,324h23v1h-23zM331,324h23v1h-23zM375,324h20v1h-20zM32,325h20v1h-20zM74,325h23v1h-23zM331,325h22v1h-22zM374,325h21v1h-21zM33,326h20v1h-20zM75,326h22v1h-22zM330,326h22v1h-22zM374,326h20v1h-20zM33,327h20v1h-20zM75,327h23v1h-23zM328,327h24v1h-24zM373,327h20v1h-20zM34,328h20v1h-20zM76,328h23v1h-23zM327,328h24v1h-24zM372,328h21v1h-21zM34,329h21v1h-21zM77,329h23v1h-23zM326,329h24v1h-24zM371,329h22v1h-22zM35,330h21v1h-21zM78,330h24v1h-24zM325,330h24v1h-24zM371,330h23v1h-23zM36,331h20v1h-20zM79,331h24v1h-24zM324,331h24v1h-24zM370,331h25v1h-25zM36,332h21v1h-21zM80,332h24v1h-24zM323,332h24v1h-24zM369,332h27v1h-27zM37,333h21v1h-21zM81,333h24v1h-24zM322,333h24v1h-24zM368,333h29v1h-29zM38,334h21v1h-21zM82,334h24v1h-24zM321,334h24v1h-24zM368,334h30v1h-30zM38,335h21v1h-21zM83,335h24v1h-24zM320,335h24v1h-24zM367,335h32v1h-32zM39,336h21v1h-21zM84,336h24v1h-24zM319,336h24v1h-24zM366,336h34v1h-34zM40,337h21v1h-21zM84,337h25v1h-25zM318,337h24v1h-24zM365,337h36v1h-36zM41,338h21v1h-21zM85,338h25v1h-25zM316,338h26v1h-26zM364,338h38v1h-38zM41,339h22v1h-22zM86,339h26v1h-26zM315,339h26v1h-26zM364,339h39v1h-39zM42,340h22v1h-22zM87,340h26v1h-26zM314,340h26v1h-26zM363,340h41v1h-41zM43,341h21v1h-21zM88,341h26v1h-26zM312,341h27v1h-27zM362,341h43v1h-43zM44,342h21v1h-21zM89,342h27v1h-27zM311,342h26v1h-26zM361,342h45v1h-45zM44,343h22v1h-22zM91,343h26v1h-26zM310,343h26v1h-26zM360,343h47v1h-47zM45,344h22v1h-22zM92,344h26v1h-26zM309,344h26v1h-26zM359,344h23v1h-23zM384,344h24v1h-24zM46,345h22v1h-22zM93,345h27v1h-27zM307,345h27v1h-27zM358,345h23v1h-23zM385,345h24v1h-24zM47,346h22v1h-22zM94,346h27v1h-27zM306,346h27v1h-27zM357,346h23v1h-23zM386,346h24v1h-24zM48,347h22v1h-22zM95,347h27v1h-27zM304,347h28v1h-28zM356,347h23v1h-23zM387,347h24v1h-24zM49,348h22v1h-22zM96,348h28v1h-28zM303,348h28v1h-28zM355,348h23v1h-23zM388,348h24v1h-24zM49,349h23v1h-23zM97,349h29v1h-29zM301,349h29v1h-29zM354,349h23v1h-23zM389,349h24v1h-24zM50,350h23v1h-23zM98,350h29v1h-29zM300,350h29v1h-29zM354,350h23v1h-23zM390,350h24v1h-24zM51,351h23v1h-23zM99,351h30v1h-30zM298,351h29v1h-29zM353,351h23v1h-23zM391,351h24v1h-24zM52,352h23v1h-23zM101,352h30v1h-30zM296,352h30v1h-30zM352,352h23v1h-23zM392,352h24v1h-24zM53,353h23v1h-23zM102,353h30v1h-30zM295,353h30v1h-30zM351,353h23v1h-23zM393,353h24v1h-24zM54,354h23v1h-23zM103,354h31v1h-31zM293,354h31v1h-31zM349,354h24v1h-24zM394,354h24v1h-24zM55,355h23v1h-23zM105,355h30v1h-30zM291,355h31v1h-31zM348,355h24v1h-24zM395,355h24v1h-24zM55,356h24v1h-24zM106,356h31v1h-31zM289,356h32v1h-32zM347,356h24v1h-24zM396,356h24v1h-24zM56,357h24v1h-24zM107,357h32v1h-32zM287,357h32v1h-32zM346,357h24v1h-24zM397,357h24v1h-24zM57,358h24v1h-24zM109,358h33v1h-33zM286,358h32v1h-32zM345,358h24v1h-24zM398,358h24v1h-24zM58,359h24v1h-24zM110,359h34v1h-34zM284,359h33v1h-33zM344,359h25v1h-25zM399,359h24v1h-24zM59,360h24v1h-24zM111,360h35v1h-35zM281,360h34v1h-34zM343,360h25v1h-25zM400,360h24v1h-24zM60,361h25v1h-25zM113,361h35v1h-35zM279,361h35v1h-35zM342,361h25v1h-25zM401,361h24v1h-24zM61,362h25v1h-25zM114,362h36v1h-36zM277,362h36v1h-36zM341,362h25v1h-25zM402,362h24v1h-24zM62,363h25v1h-25zM116,363h36v1h-36zM275,363h36v1h-36zM340,363h25v1h-25zM403,363h24v1h-24zM63,364h25v1h-25zM118,364h37v1h-37zM272,364h37v1h-37zM338,364h26v1h-26zM404,364h24v1h-24zM64,365h25v1h-25zM119,365h39v1h-39zM269,365h39v1h-39zM337,365h26v1h-26zM405,365h24v1h-24zM65,366h26v1h-26zM121,366h40v1h-40zM266,366h40v1h-40zM336,366h26v1h-26zM406,366h24v1h-24zM66,367h26v1h-26zM123,367h40v1h-40zM264,367h40v1h-40zM334,367h27v1h-27zM406,367h25v1h-25zM67,368h26v1h-26zM124,368h43v1h-43zM260,368h43v1h-43zM333,368h27v1h-27zM405,368h27v1h-27zM68,369h26v1h-26zM126,369h44v1h-44zM257,369h44v1h-44zM332,369h26v1h-26zM404,369h29v1h-29zM69,370h27v1h-27zM127,370h47v1h-47zM253,370h46v1h-46zM331,370h26v1h-26zM403,370h31v1h-31zM70,371h27v1h-27zM129,371h49v1h-49zM249,371h49v1h-49zM329,371h27v1h-27zM402,371h33v1h-33zM71,372h28v1h-28zM131,372h52v1h-52zM244,372h51v1h-51zM328,372h27v1h-27zM401,372h35v1h-35zM72,373h28v1h-28zM134,373h56v1h-56zM238,373h55v1h-55zM327,373h27v1h-27zM400,373h37v1h-37zM74,374h27v1h-27zM136,374h60v1h-60zM230,374h61v1h-61zM325,374h28v1h-28zM399,374h39v1h-39zM75,375h28v1h-28zM138,375h151v1h-151zM324,375h28v1h-28zM398,375h41v1h-41zM76,376h28v1h-28zM140,376h147v1h-147zM322,376h29v1h-29zM397,376h43v1h-43zM77,377h29v1h-29zM142,377h143v1h-143zM321,377h28v1h-28zM396,377h45v1h-45zM79,378h28v1h-28zM144,378h139v1h-139zM319,378h29v1h-29zM395,378h47v1h-47zM80,379h29v1h-29zM147,379h133v1h-133zM318,379h29v1h-29zM394,379h24v1h-24zM419,379h24v1h-24zM81,380h29v1h-29zM149,380h128v1h-128zM316,380h30v1h-30zM393,380h24v1h-24zM420,380h24v1h-24zM82,381h30v1h-30zM152,381h123v1h-123zM314,381h30v1h-30zM392,381h24v1h-24zM421,381h24v1h-24zM84,382h30v1h-30zM155,382h117v1h-117zM313,382h31v1h-31zM391,382h24v1h-24zM422,382h24v1h-24zM85,383h31v1h-31zM158,383h111v1h-111zM311,383h33v1h-33zM390,383h24v1h-24zM423,383h24v1h-24zM86,384h32v1h-32zM160,384h106v1h-106zM309,384h36v1h-36zM389,384h24v1h-24zM424,384h24v1h-24zM87,385h32v1h-32zM164,385h99v1h-99zM307,385h39v1h-39zM388,385h24v1h-24zM425,385h24v1h-24zM89,386h32v1h-32zM168,386h91v1h-91zM305,386h42v1h-42zM387,386h24v1h-24zM426,386h24v1h-24zM90,387h33v1h-33zM172,387h83v1h-83zM304,387h44v1h-44zM386,387h24v1h-24zM427,387h24v1h-24zM92,388h33v1h-33zM176,388h75v1h-75zM302,388h47v1h-47zM385,388h24v1h-24zM428,388h24v1h-24zM93,389h34v1h-34zM182,389h63v1h-63zM300,389h50v1h-50zM384,389h24v1h-24zM429,389h24v1h-24zM95,390h34v1h-34zM188,390h51v1h-51zM297,390h54v1h-54zM383,390h24v1h-24zM430,390h24v1h-24zM96,391h35v1h-35zM195,391h37v1h-37zM295,391h57v1h-57zM382,391h24v1h-24zM431,391h24v1h-24zM98,392h36v1h-36zM293,392h60v1h-60zM381,392h24v1h-24zM432,392h24v1h-24zM99,393h37v1h-37zM291,393h36v1h-36zM330,393h24v1h-24zM380,393h24v1h-24zM433,393h24v1h-24zM101,394h37v1h-37zM288,394h37v1h-37zM331,394h24v1h-24zM379,394h24v1h-24zM434,394h24v1h-24zM102,395h39v1h-39zM286,395h38v1h-38zM332,395h24v1h-24zM378,395h24v1h-24zM435,395h24v1h-24zM104,396h39v1h-39zM283,396h39v1h-39zM333,396h24v1h-24zM377,396h24v1h-24zM436,396h24v1h-24zM106,397h40v1h-40zM280,397h40v1h-40zM334,397h24v1h-24zM376,397h24v1h-24zM437,397h24v1h-24zM108,398h41v1h-41zM278,398h41v1h-41zM335,398h24v1h-24zM375,398h24v1h-24zM438,398h24v1h-24zM110,399h42v1h-42zM275,399h42v1h-42zM336,399h24v1h-24zM374,399h24v1h-24zM439,399h24v1h-24zM111,400h44v1h-44zM272,400h43v1h-43zM337,400h24v1h-24zM373,400h24v1h-24zM440,400h24v1h-24zM113,401h45v1h-45zM268,401h45v1h-45zM338,401h24v1h-24zM372,401h24v1h-24zM441,401h24v1h-24zM115,402h46v1h-46zM265,402h47v1h-47zM339,402h24v1h-24zM371,402h24v1h-24zM442,402h24v1h-24zM117,403h48v1h-48zM261,403h49v1h-49zM340,403h24v1h-24zM370,403h24v1h-24zM443,403h24v1h-24zM119,404h51v1h-51zM257,404h50v1h-50zM341,404h24v1h-24zM369,404h24v1h-24zM444,404h24v1h-24zM121,405h53v1h-53zM252,405h53v1h-53zM342,405h24v1h-24zM368,405h24v1h-24zM445,405h24v1h-24zM123,406h56v1h-56zM247,406h56v1h-56zM343,406h48v1h-48zM446,406h24v1h-24zM125,407h61v1h-61zM241,407h60v1h-60zM344,407h46v1h-46zM447,407h24v1h-24zM128,408h67v1h-67zM232,408h67v1h-67zM345,408h44v1h-44zM448,408h24v1h-24zM130,409h167v1h-167zM346,409h42v1h-42zM449,409h24v1h-24zM132,410h162v1h-162zM347,410h40v1h-40zM450,410h24v1h-24zM135,411h157v1h-157zM348,411h38v1h-38zM451,411h24v1h-24zM137,412h152v1h-152zM349,412h36v1h-36zM452,412h24v1h-24zM140,413h146v1h-146zM350,413h34v1h-34zM453,413h24v1h-24zM143,414h140v1h-140zM351,414h32v1h-32zM454,414h24v1h-24zM146,415h135v1h-135zM352,415h30v1h-30zM455,415h24v1h-24zM149,416h129v1h-129zM353,416h28v1h-28zM456,416h24v1h-24zM152,417h123v1h-123zM354,417h26v1h-26zM457,417h24v1h-24zM155,418h116v1h-116zM355,418h24v1h-24zM458,418h24v1h-24zM159,419h108v1h-108zM356,419h24v1h-24zM459,419h24v1h-24zM163,420h100v1h-100zM357,420h24v1h-24zM460,420h24v1h-24zM168,421h91v1h-91zM358,421h24v1h-24zM461,421h24v1h-24zM172,422h83v1h-83zM359,422h24v1h-24zM462,422h24v1h-24zM177,423h72v1h-72zM360,423h24v1h-24zM463,423h24v1h-24zM185,424h57v1h-57zM361,424h24v1h-24zM464,424h24v1h-24zM193,425h42v1h-42zM362,425h24v1h-24zM465,425h24v1h-24zM213,426h4v1h-4zM363,426h24v1h-24zM466,426h24v1h-24zM364,427h24v1h-24zM467,427h24v1h-24zM365,428h24v1h-24zM468,428h24v1h-24zM366,429h24v1h-24zM469,429h24v1h-24zM367,430h24v1h-24zM470,430h24v1h-24zM368,431h24v1h-24zM471,431h24v1h-24zM369,432h24v1h-24zM472,432h24v1h-24zM370,433h24v1h-24zM473,433h24v1h-24zM371,434h24v1h-24zM474,434h24v1h-24zM372,435h24v1h-24zM475,435h24v1h-24zM373,436h24v1h-24zM476,436h24v1h-24zM374,437h24v1h-24zM477,437h23v1h-23zM375,438h24v1h-24zM478,438h23v1h-23zM376,439h24v1h-24zM479,439h23v1h-23zM377,440h24v1h-24zM480,440h23v1h-23zM378,441h24v1h-24zM481,441h23v1h-23zM379,442h24v1h-24zM482,442h23v1h-23zM380,443h24v1h-24zM483,443h22v1h-22zM381,444h24v1h-24zM484,444h22v1h-22zM382,445h24v1h-24zM485,445h21v1h-21zM383,446h24v1h-24zM486,446h21v1h-21zM384,447h24v1h-24zM487,447h20v1h-20zM385,448h24v1h-24zM488,448h20v1h-20zM386,449h24v1h-24zM488,449h20v1h-20zM387,450h24v1h-24zM489,450h20v1h-20zM388,451h24v1h-24zM490,451h19v1h-19zM389,452h24v1h-24zM491,452h18v1h-18zM390,453h24v1h-24zM491,453h19v1h-19zM391,454h24v1h-24zM492,454h18v1h-18zM392,455h24v1h-24zM492,455h18v1h-18zM393,456h24v1h-24zM493,456h18v1h-18zM394,457h24v1h-24zM493,457h18v1h-18zM395,458h24v1h-24zM494,458h17v1h-17zM396,459h24v1h-24zM494,459h17v1h-17zM397,460h24v1h-24zM494,460h17v1h-17zM398,461h24v1h-24zM494,461h17v1h-17zM399,462h24v1h-24zM495,462h17v1h-17zM400,463h24v1h-24zM495,463h17v1h-17zM401,464h24v1h-24zM495,464h17v1h-17zM402,465h24v1h-24zM495,465h17v1h-17zM403,466h24v1h-24zM495,466h17v1h-17zM404,467h24v1h-24zM495,467h17v1h-17zM405,468h24v1h-24zM495,468h17v1h-17zM406,469h24v1h-24zM495,469h17v1h-17zM407,470h24v1h-24zM495,470h17v1h-17zM408,471h24v1h-24zM495,471h17v1h-17zM409,472h24v1h-24zM495,472h16v1h-16zM410,473h24v1h-24zM494,473h17v1h-17zM411,474h24v1h-24zM494,474h17v1h-17zM412,475h24v1h-24zM494,475h17v1h-17zM413,476h24v1h-24zM494,476h17v1h-17zM414,477h24v1h-24zM493,477h18v1h-18zM415,478h24v1h-24zM493,478h17v1h-17zM416,479h24v1h-24zM492,479h18v1h-18zM417,480h24v1h-24zM492,480h18v1h-18zM418,481h24v1h-24zM491,481h18v1h-18zM419,482h24v1h-24zM491,482h18v1h-18zM420,483h24v1h-24zM490,483h19v1h-19zM421,484h24v1h-24zM489,484h19v1h-19zM422,485h24v1h-24zM488,485h20v1h-20zM423,486h24v1h-24zM487,486h20v1h-20zM424,487h25v1h-25zM486,487h21v1h-21zM425,488h25v1h-25zM485,488h21v1h-21zM426,489h25v1h-25zM484,489h22v1h-22zM427,490h25v1h-25zM483,490h22v1h-22zM428,491h26v1h-26zM481,491h24v1h-24zM429,492h27v1h-27zM479,492h25v1h-25zM430,493h28v1h-28zM476,493h27v1h-27zM431,494h31v1h-31zM473,494h29v1h-29zM432,495h70v1h-70zM433,496h68v1h-68zM434,497h66v1h-66zM435,498h64v1h-64zM436,499h62v1h-62zM438,500h59v1h-59zM439,501h57v1h-57zM440,502h54v1h-54zM441,503h52v1h-52zM443,504h49v1h-49zM444,505h46v1h-46zM446,506h42v1h-42zM448,507h38v1h-38zM450,508h34v1h-34zM453,509h28v1h-28zM457,510h21v1h-21zM463,511h9v1h-9z" fill="#000"/>
</svg>