<?xml version="1.0" encoding="UTF-8"?>
<svg xmlns="http://www.w3.org/2000/svg" width="512" height="512" viewBox="0 0 512 512">
<path d="M241,0h31v1h-31zM228,1h56v1h-56zM220,2h72v1h-72zM214,3h85v1h-85zM208,4h96v1h-96zM203,5h106v1h-106zM199,6h115v1h-115zM195,7h123v1h-123zM191,8h131v1h-131zM187,9h138v1h-138zM184,10h145v1h-145zM180,11h152v1h-152zM177,12h158v1h-158zM174,13h164v1h-164zM171,14h170v1h-170zM168,15h176v1h-176zM166,16h181v1h-181zM163,17h186v1h-186zM161,18h191v1h-191zM158,19h196v1h-196zM156,20h201v1h-201zM153,21h95v1h-95zM264,21h95v1h-95zM151,22h82v1h-82zM279,22h82v1h-82zM149,23h75v1h-75zM288,23h75v1h-75zM147,24h71v1h-71zM294,24h71v1h-71zM145,25h67v1h-67zM300,25h68v1h-68zM143,26h64v1h-64zM305,26h65v1h-65zM141,27h62v1h-62zM309,27h63v1h-63zM139,28h60v1h-60zM314,28h59v1h-59zM137,29h58v1h-58zM317,29h58v1h-58zM135,30h56v1h-56zM321,30h56v1h-56zM133,31h55v1h-55zM324,31h55v1h-55zM131,32h53v1h-53zM327,32h54v1h-54zM129,33h52v1h-52zM331,33h52v1h-52zM128,34h51v1h-51zM333,34h51v1h-51zM126,35h50v1h-50zM336,35h50v1h-50zM124,36h49v1h-49zM339,36h49v1h-49zM123,37h47v1h-47zM341,37h48v1h-48zM121,38h47v1h-47zM344,38h47v1h-47zM119,39h47v1h-47zM347,39h46v1h-46zM118,40h45v1h-45zM349,40h45v1h-45zM116,41h45v1h-45zM351,41h45v1h-45zM115,42h44v1h-44zM353,42h44v1h-44zM113,43h43v1h-43zM356,43h43v1h-43zM112,44h42v1h-42zM358,44h42v1h-42zM110,45h42v1h-42zM360,45h42v1h-42zM109,46h41v1h-41zM362,46h41v1h-41zM108,47h40v1h-40zM364,47h41v1h-41zM106,48h40v1h-40zM366,48h40v1h-40zM105,49h40v1h-40zM367,49h40v1h-40zM103,50h40v1h-40zM369,50h40v1h-40zM102,51h39v1h-39zM371,51h39v1h-39zM101,52h38v1h-38zM373,52h38v1h-38zM99,53h39v1h-39zM375,53h38v1h-38zM98,54h38v1h-38zM376,54h38v1h-38zM97,55h37v1h-37zM378,55h37v1h-37zM96,56h37v1h-37zM380,56h36v1h-36zM94,57h37v1h-37zM381,57h37v1h-37zM93,58h36v1h-36zM383,58h36v1h-36zM92,59h36v1h-36zM384,59h36v1h-36zM91,60h35v1h-35zM386,60h35v1h-35zM90,61h35v1h-35zM387,61h35v1h-35zM88,62h35v1h-35zM389,62h35v1h-35zM87,63h35v1h-35zM390,63h35v1h-35zM86,64h34v1h-34zM392,64h34v1h-34zM85,65h34v1h-34zM393,65h34v1h-34zM84,66h34v1h-34zM394,66h34v1h-34zM83,67h33v1h-33zM396,67h33v1h-33zM82,68h33v1h-33zM397,68h33v1h-33zM81,69h33v1h-33zM398,69h33v1h-33zM80,70h32v1h-32zM400,70h32v1h-32zM79,71h32v1h-32zM401,71h32v1h-32zM77,72h33v1h-33zM402,72h32v1h-32zM76,73h33v1h-33zM404,73h31v1h-31zM75,74h32v1h-32zM405,74h32v1h-32zM74,75h32v1h-32zM406,75h32v1h-32zM73,76h32v1h-32zM407,76h31v1h-31zM73,77h31v1h-31zM408,77h31v1h-31zM72,78h31v1h-31zM409,78h31v1h-31zM71,79h30v1h-30zM411,79h30v1h-30zM70,80h30v1h-30zM412,80h30v1h-30zM69,81h30v1h-30zM413,81h30v1h-30zM68,82h30v1h-30zM414,82h30v1h-30zM67,83h30v1h-30zM415,83h30v1h-30zM66,84h30v1h-30zM416,84h30v1h-30zM65,85h30v1h-30zM417,85h30v1h-30zM64,86h30v1h-30zM418,86h30v1h-30zM63,87h30v1h-30zM419,87h30v1h-30zM62,88h30v1h-30zM420,88h30v1h-30zM62,89h29v1h-29zM421,89h29v1h-29zM61,90h29v1h-29zM422,90h29v1h-29zM60,91h29v1h-29zM423,91h29v1h-29zM59,92h29v1h-29zM424,92h29v1h-29zM58,93h29v1h-29zM425,93h29v1h-29zM57,94h29v1h-29zM426,94h29v1h-29zM57,95h28v1h-28zM427,95h28v1h-28zM56,96h28v1h-28zM142,96h164v1h-164zM428,96h28v1h-28zM55,97h28v1h-28zM137,97h174v1h-174zM429,97h28v1h-28zM54,98h28v1h-28zM133,98h182v1h-182zM430,98h28v1h-28zM53,99h28v1h-28zM131,99h187v1h-187zM431,99h28v1h-28zM53,100h27v1h-27zM128,100h192v1h-192zM432,100h27v1h-27zM52,101h27v1h-27zM126,101h196v1h-196zM433,101h27v1h-27zM51,102h28v1h-28zM124,102h200v1h-200zM433,102h28v1h-28zM50,103h28v1h-28zM122,103h204v1h-204zM434,103h28v1h-28zM50,104h27v1h-27zM121,104h207v1h-207zM435,104h27v1h-27zM49,105h27v1h-27zM119,105h210v1h-210zM436,105h27v1h-27zM48,106h27v1h-27zM118,106h212v1h-212zM437,106h27v1h-27zM47,107h27v1h-27zM116,107h216v1h-216zM438,107h26v1h-26zM47,108h26v1h-26zM115,108h218v1h-218zM438,108h27v1h-27zM46,109h27v1h-27zM114,109h220v1h-220zM439,109h27v1h-27zM45,110h27v1h-27zM113,110h222v1h-222zM440,110h27v1h-27zM45,111h26v1h-26zM112,111h224v1h-224zM441,111h26v1h-26zM44,112h26v1h-26zM111,112h226v1h-226zM442,112h26v1h-26zM43,113h27v1h-27zM110,113h228v1h-228zM442,113h27v1h-27zM43,114h26v1h-26zM109,114h230v1h-230zM443,114h26v1h-26zM42,115h26v1h-26zM108,115h232v1h-232zM444,115h26v1h-26zM41,116h26v1h-26zM107,116h234v1h-234zM445,116h26v1h-26zM41,117h26v1h-26zM107,117h39v1h-39zM302,117h39v1h-39zM445,117h26v1h-26zM40,118h26v1h-26zM106,118h35v1h-35zM307,118h35v1h-35zM446,118h26v1h-26zM39,119h26v1h-26zM105,119h33v1h-33zM310,119h33v1h-33zM447,119h26v1h-26zM39,120h25v1h-25zM105,120h31v1h-31zM312,120h31v1h-31zM448,120h25v1h-25zM38,121h26v1h-26zM104,121h30v1h-30zM314,121h30v1h-30zM448,121h26v1h-26zM38,122h25v1h-25zM103,122h29v1h-29zM316,122h29v1h-29zM449,122h25v1h-25zM37,123h25v1h-25zM103,123h28v1h-28zM317,123h28v1h-28zM450,123h25v1h-25zM36,124h26v1h-26zM102,124h27v1h-27zM319,124h27v1h-27zM450,124h26v1h-26zM36,125h25v1h-25zM102,125h26v1h-26zM320,125h26v1h-26zM451,125h25v1h-25zM35,126h25v1h-25zM101,126h26v1h-26zM321,126h26v1h-26zM452,126h25v1h-25zM35,127h25v1h-25zM101,127h25v1h-25zM322,127h25v1h-25zM452,127h25v1h-25zM34,128h25v1h-25zM100,128h25v1h-25zM323,128h25v1h-25zM453,128h25v1h-25zM33,129h25v1h-25zM100,129h24v1h-24zM324,129h24v1h-24zM454,129h25v1h-25zM33,130h25v1h-25zM99,130h25v1h-25zM324,130h24v1h-24zM454,130h25v1h-25zM32,131h25v1h-25zM99,131h24v1h-24zM325,131h24v1h-24zM455,131h25v1h-25zM32,132h24v1h-24zM99,132h23v1h-23zM326,132h23v1h-23zM456,132h24v1h-24zM31,133h25v1h-25zM98,133h24v1h-24zM326,133h24v1h-24zM456,133h25v1h-25zM31,134h24v1h-24zM98,134h23v1h-23zM327,134h23v1h-23zM457,134h24v1h-24zM30,135h25v1h-25zM98,135h23v1h-23zM327,135h23v1h-23zM457,135h25v1h-25zM30,136h24v1h-24zM98,136h22v1h-22zM328,136h22v1h-22zM458,136h24v1h-24zM29,137h24v1h-24zM97,137h23v1h-23zM328,137h23v1h-23zM459,137h24v1h-24zM29,138h24v1h-24zM97,138h22v1h-22zM329,138h22v1h-22zM459,138h24v1h-24zM28,139h24v1h-24zM97,139h22v1h-22zM329,139h22v1h-22zM460,139h24v1h-24zM28,140h24v1h-24zM97,140h22v1h-22zM329,140h22v1h-22zM460,140h25v1h-25zM27,141h24v1h-24zM97,141h21v1h-21zM330,141h21v1h-21zM461,141h24v1h-24zM27,142h24v1h-24zM96,142h22v1h-22zM330,142h22v1h-22zM461,142h25v1h-25zM26,143h24v1h-24zM96,143h22v1h-22zM330,143h22v1h-22zM462,143h24v1h-24zM26,144h24v1h-24zM96,144h22v1h-22zM330,144h22v1h-22zM462,144h24v1h-24zM25,145h24v1h-24zM96,145h22v1h-22zM330,145h22v1h-22zM463,145h24v1h-24zM25,146h23v1h-23zM96,146h21v1h-21zM331,146h21v1h-21zM464,146h23v1h-23zM24,147h24v1h-24zM96,147h21v1h-21zM331,147h21v1h-21zM464,147h24v1h-24zM24,148h23v1h-23zM96,148h21v1h-21zM331,148h21v1h-21zM465,148h23v1h-23zM23,149h24v1h-24zM96,149h21v1h-21zM331,149h21v1h-21zM465,149h24v1h-24zM23,150h23v1h-23zM96,150h21v1h-21zM331,150h21v1h-21zM466,150h23v1h-23zM22,151h24v1h-24zM96,151h21v1h-21zM331,151h21v1h-21zM466,151h24v1h-24zM22,152h23v1h-23zM96,152h21v1h-21zM331,152h21v1h-21zM467,152h23v1h-23zM21,153h24v1h-24zM96,153h21v1h-21zM331,153h21v1h-21zM467,153h24v1h-24zM21,154h23v1h-23zM96,154h21v1h-21zM331,154h21v1h-21zM468,154h23v1h-23zM21,155h23v1h-23zM96,155h21v1h-21zM331,155h21v1h-21zM468,155h23v1h-23zM20,156h23v1h-23zM96,156h21v1h-21zM331,156h21v1h-21zM469,156h23v1h-23zM20,157h23v1h-23zM96,157h21v1h-21zM331,157h21v1h-21zM469,157h23v1h-23zM19,158h24v1h-24zM96,158h21v1h-21zM331,158h21v1h-21zM469,158h24v1h-24zM19,159h23v1h-23zM96,159h21v1h-21zM331,159h21v1h-21zM470,159h23v1h-23zM19,160h23v1h-23zM96,160h21v1h-21zM218,160h12v1h-12zM331,160h39v1h-39zM470,160h24v1h-24zM18,161h23v1h-23zM96,161h21v1h-21zM213,161h22v1h-22zM331,161h44v1h-44zM471,161h23v1h-23zM18,162h23v1h-23zM96,162h21v1h-21zM210,162h28v1h-28zM331,162h48v1h-48zM471,162h23v1h-23zM17,163h23v1h-23zM96,163h21v1h-21zM207,163h34v1h-34zM331,163h51v1h-51zM472,163h23v1h-23zM17,164h23v1h-23zM96,164h21v1h-21zM205,164h38v1h-38zM331,164h53v1h-53zM472,164h23v1h-23zM17,165h23v1h-23zM96,165h21v1h-21zM203,165h42v1h-42zM331,165h55v1h-55zM472,165h24v1h-24zM16,166h23v1h-23zM96,166h21v1h-21zM201,166h46v1h-46zM331,166h57v1h-57zM473,166h23v1h-23zM16,167h23v1h-23zM96,167h21v1h-21zM200,167h48v1h-48zM331,167h59v1h-59zM473,167h23v1h-23zM15,168h23v1h-23zM96,168h21v1h-21zM199,168h51v1h-51zM331,168h61v1h-61zM474,168h23v1h-23zM15,169h23v1h-23zM96,169h21v1h-21zM197,169h54v1h-54zM331,169h62v1h-62zM474,169h23v1h-23zM15,170h22v1h-22zM96,170h21v1h-21zM196,170h56v1h-56zM331,170h63v1h-63zM475,170h22v1h-22zM14,171h23v1h-23zM96,171h21v1h-21zM195,171h58v1h-58zM331,171h65v1h-65zM475,171h23v1h-23zM14,172h23v1h-23zM96,172h21v1h-21zM194,172h60v1h-60zM331,172h66v1h-66zM475,172h23v1h-23zM14,173h22v1h-22zM96,173h21v1h-21zM193,173h62v1h-62zM331,173h67v1h-67zM476,173h22v1h-22zM13,174h23v1h-23zM96,174h21v1h-21zM192,174h64v1h-64zM331,174h68v1h-68zM476,174h23v1h-23zM13,175h23v1h-23zM96,175h21v1h-21zM191,175h66v1h-66zM331,175h69v1h-69zM476,175h23v1h-23zM13,176h22v1h-22zM96,176h21v1h-21zM190,176h68v1h-68zM331,176h70v1h-70zM477,176h22v1h-22zM12,177h23v1h-23zM96,177h21v1h-21zM190,177h68v1h-68zM331,177h71v1h-71zM477,177h23v1h-23zM12,178h23v1h-23zM96,178h21v1h-21zM189,178h70v1h-70zM331,178h72v1h-72zM477,178h23v1h-23zM12,179h22v1h-22zM96,179h21v1h-21zM188,179h72v1h-72zM331,179h73v1h-73zM478,179h22v1h-22zM11,180h23v1h-23zM96,180h21v1h-21zM188,180h72v1h-72zM331,180h74v1h-74zM478,180h23v1h-23zM11,181h22v1h-22zM96,181h21v1h-21zM187,181h34v1h-34zM227,181h34v1h-34zM331,181h21v1h-21zM366,181h39v1h-39zM478,181h23v1h-23zM11,182h22v1h-22zM96,182h21v1h-21zM186,182h31v1h-31zM231,182h31v1h-31zM331,182h21v1h-21zM371,182h35v1h-35zM479,182h22v1h-22zM10,183h23v1h-23zM96,183h21v1h-21zM186,183h29v1h-29zM233,183h29v1h-29zM331,183h21v1h-21zM374,183h33v1h-33zM479,183h23v1h-23zM10,184h22v1h-22zM96,184h21v1h-21zM185,184h28v1h-28zM235,184h28v1h-28zM331,184h21v1h-21zM376,184h31v1h-31zM479,184h23v1h-23zM10,185h22v1h-22zM96,185h21v1h-21zM185,185h26v1h-26zM237,185h26v1h-26zM331,185h21v1h-21zM378,185h30v1h-30zM480,185h22v1h-22zM10,186h22v1h-22zM96,186h21v1h-21zM185,186h25v1h-25zM238,186h25v1h-25zM331,186h21v1h-21zM380,186h29v1h-29zM480,186h22v1h-22zM9,187h23v1h-23zM96,187h21v1h-21zM184,187h25v1h-25zM239,187h25v1h-25zM331,187h21v1h-21zM381,187h28v1h-28zM480,187h23v1h-23zM9,188h22v1h-22zM96,188h21v1h-21zM184,188h24v1h-24zM240,188h24v1h-24zM331,188h21v1h-21zM383,188h27v1h-27zM481,188h22v1h-22zM9,189h22v1h-22zM96,189h21v1h-21zM183,189h24v1h-24zM241,189h24v1h-24zM331,189h21v1h-21zM384,189h26v1h-26zM481,189h22v1h-22zM9,190h22v1h-22zM96,190h21v1h-21zM183,190h23v1h-23zM241,190h24v1h-24zM331,190h21v1h-21zM385,190h26v1h-26zM481,190h23v1h-23zM8,191h22v1h-22zM96,191h21v1h-21zM183,191h23v1h-23zM242,191h23v1h-23zM331,191h21v1h-21zM386,191h25v1h-25zM482,191h22v1h-22zM8,192h22v1h-22zM96,192h21v1h-21zM183,192h22v1h-22zM243,192h22v1h-22zM331,192h21v1h-21zM387,192h25v1h-25zM482,192h22v1h-22zM8,193h22v1h-22zM96,193h21v1h-21zM182,193h23v1h-23zM243,193h23v1h-23zM331,193h21v1h-21zM388,193h24v1h-24zM482,193h22v1h-22zM7,194h23v1h-23zM96,194h21v1h-21zM182,194h22v1h-22zM244,194h22v1h-22zM331,194h21v1h-21zM388,194h24v1h-24zM482,194h23v1h-23zM7,195h22v1h-22zM96,195h21v1h-21zM182,195h22v1h-22zM244,195h22v1h-22zM331,195h21v1h-21zM389,195h24v1h-24zM483,195h22v1h-22zM7,196h22v1h-22zM96,196h21v1h-21zM182,196h22v1h-22zM244,196h22v1h-22zM331,196h21v1h-21zM390,196h23v1h-23zM483,196h22v1h-22zM7,197h22v1h-22zM96,197h21v1h-21zM182,197h21v1h-21zM245,197h21v1h-21zM331,197h21v1h-21zM390,197h24v1h-24zM483,197h22v1h-22zM7,198h22v1h-22zM96,198h21v1h-21zM182,198h21v1h-21zM245,198h21v1h-21zM331,198h21v1h-21zM391,198h23v1h-23zM483,198h23v1h-23zM6,199h22v1h-22zM96,199h21v1h-21zM181,199h22v1h-22zM245,199h22v1h-22zM331,199h21v1h-21zM391,199h23v1h-23zM484,199h22v1h-22zM6,200h22v1h-22zM96,200h21v1h-21zM181,200h22v1h-22zM245,200h22v1h-22zM331,200h21v1h-21zM392,200h22v1h-22zM484,200h22v1h-22zM6,201h22v1h-22zM96,201h21v1h-21zM181,201h22v1h-22zM245,201h22v1h-22zM331,201h21v1h-21zM392,201h23v1h-23zM484,201h22v1h-22zM6,202h22v1h-22zM96,202h21v1h-21zM181,202h22v1h-22zM245,202h22v1h-22zM331,202h21v1h-21zM393,202h22v1h-22zM484,202h22v1h-22zM5,203h22v1h-22zM96,203h21v1h-21zM181,203h22v1h-22zM245,203h22v1h-22zM331,203h21v1h-21zM393,203h22v1h-22zM485,203h22v1h-22zM5,204h22v1h-22zM96,204h21v1h-21zM181,204h22v1h-22zM245,204h22v1h-22zM331,204h21v1h-21zM393,204h22v1h-22zM485,204h22v1h-22zM5,205h22v1h-22zM96,205h21v1h-21zM181,205h22v1h-22zM245,205h22v1h-22zM331,205h21v1h-21zM394,205h21v1h-21zM485,205h22v1h-22zM5,206h22v1h-22zM96,206h21v1h-21zM181,206h22v1h-22zM245,206h22v1h-22zM331,206h21v1h-21zM394,206h22v1h-22zM485,206h22v1h-22zM5,207h21v1h-21zM96,207h21v1h-21zM181,207h22v1h-22zM245,207h22v1h-22zM331,207h21v1h-21zM394,207h22v1h-22zM486,207h21v1h-21zM4,208h22v1h-22zM96,208h21v1h-21zM181,208h22v1h-22zM245,208h22v1h-22zM331,208h21v1h-21zM394,208h22v1h-22zM486,208h22v1h-22zM4,209h22v1h-22zM96,209h21v1h-21zM181,209h22v1h-22zM245,209h22v1h-22zM331,209h21v1h-21zM394,209h22v1h-22zM486,209h22v1h-22zM4,210h22v1h-22zM96,210h21v1h-21zM181,210h22v1h-22zM245,210h22v1h-22zM331,210h21v1h-21zM395,210h21v1h-21zM486,210h22v1h-22zM4,211h22v1h-22zM96,211h21v1h-21zM181,211h22v1h-22zM245,211h22v1h-22zM331,211h21v1h-21zM395,211h21v1h-21zM486,211h22v1h-22zM4,212h21v1h-21zM96,212h21v1h-21zM181,212h22v1h-22zM245,212h22v1h-22zM331,212h21v1h-21zM395,212h21v1h-21zM487,212h21v1h-21zM4,213h21v1h-21zM96,213h21v1h-21zM181,213h22v1h-22zM245,213h22v1h-22zM331,213h21v1h-21zM395,213h21v1h-21zM487,213h21v1h-21zM3,214h22v1h-22zM96,214h21v1h-21zM181,214h22v1h-22zM245,214h22v1h-22zM331,214h21v1h-21zM395,214h21v1h-21zM487,214h22v1h-22zM3,215h22v1h-22zM96,215h21v1h-21zM181,215h22v1h-22zM245,215h22v1h-22zM331,215h21v1h-21zM395,215h21v1h-21zM487,215h22v1h-22zM3,216h22v1h-22zM96,216h21v1h-21zM181,216h22v1h-22zM245,216h22v1h-22zM331,216h21v1h-21zM395,216h21v1h-21zM487,216h22v1h-22zM3,217h22v1h-22zM96,217h21v1h-21zM181,217h22v1h-22zM245,217h22v1h-22zM331,217h21v1h-21zM395,217h21v1h-21zM487,217h22v1h-22zM3,218h21v1h-21zM96,218h21v1h-21zM181,218h22v1h-22zM245,218h22v1h-22zM331,218h21v1h-21zM395,218h21v1h-21zM488,218h21v1h-21zM3,219h21v1h-21zM96,219h21v1h-21zM181,219h22v1h-22zM245,219h22v1h-22zM331,219h21v1h-21zM395,219h21v1h-21zM488,219h21v1h-21zM2,220h22v1h-22zM96,220h21v1h-21zM181,220h22v1h-22zM245,220h22v1h-22zM331,220h21v1h-21zM395,220h21v1h-21zM488,220h22v1h-22zM2,221h22v1h-22zM96,221h21v1h-21zM181,221h22v1h-22zM245,221h22v1h-22zM331,221h21v1h-21zM395,221h21v1h-21zM488,221h22v1h-22zM2,222h22v1h-22zM96,222h21v1h-21zM181,222h22v1h-22zM245,222h22v1h-22zM331,222h21v1h-21zM395,222h21v1h-21zM488,222h22v1h-22zM2,223h22v1h-22zM96,223h21v1h-21zM181,223h22v1h-22zM245,223h22v1h-22zM331,223h21v1h-21zM395,223h21v1h-21zM488,223h22v1h-22zM2,224h21v1h-21zM96,224h21v1h-21zM181,224h86v1h-86zM331,224h21v1h-21zM395,224h21v1h-21zM489,224h21v1h-21zM2,225h21v1h-21zM96,225h21v1h-21zM181,225h86v1h-86zM331,225h21v1h-21zM395,225h21v1h-21zM489,225h21v1h-21zM2,226h21v1h-21zM96,226h21v1h-21zM181,226h86v1h-86zM331,226h21v1h-21zM395,226h21v1h-21zM489,226h21v1h-21zM2,227h21v1h-21zM96,227h21v1h-21zM181,227h86v1h-86zM331,227h21v1h-21zM395,227h21v1h-21zM489,227h21v1h-21zM1,228h22v1h-22zM96,228h21v1h-21zM181,228h86v1h-86zM331,228h21v1h-21zM395,228h21v1h-21zM489,228h22v1h-22zM1,229h22v1h-22zM96,229h21v1h-21zM181,229h86v1h-86zM331,229h21v1h-21zM395,229h21v1h-21zM489,229h22v1h-22zM1,230h22v1h-22zM96,230h21v1h-21zM181,230h86v1h-86zM331,230h21v1h-21zM395,230h21v1h-21zM489,230h22v1h-22zM1,231h22v1h-22zM96,231h21v1h-21zM181,231h86v1h-86zM331,231h21v1h-21zM395,231h21v1h-21zM489,231h22v1h-22zM1,232h22v1h-22zM96,232h21v1h-21zM181,232h86v1h-86zM331,232h21v1h-21zM395,232h21v1h-21zM489,232h22v1h-22zM1,233h21v1h-21zM96,233h21v1h-21zM181,233h86v1h-86zM331,233h21v1h-21zM395,233h21v1h-21zM490,233h21v1h-21zM1,234h21v1h-21zM96,234h21v1h-21zM181,234h86v1h-86zM331,234h21v1h-21zM395,234h21v1h-21zM490,234h21v1h-21zM1,235h21v1h-21zM96,235h21v1h-21zM181,235h86v1h-86zM331,235h21v1h-21zM395,235h21v1h-21zM490,235h21v1h-21zM1,236h21v1h-21zM96,236h21v1h-21zM181,236h86v1h-86zM331,236h21v1h-21zM395,236h21v1h-21zM490,236h21v1h-21zM1,237h21v1h-21zM96,237h21v1h-21zM181,237h86v1h-86zM331,237h21v1h-21zM395,237h21v1h-21zM490,237h21v1h-21zM1,238h21v1h-21zM96,238h21v1h-21zM181,238h86v1h-86zM331,238h21v1h-21zM395,238h21v1h-21zM490,238h21v1h-21zM1,239h21v1h-21zM96,239h21v1h-21zM181,239h86v1h-86zM331,239h21v1h-21zM395,239h21v1h-21zM490,239h21v1h-21zM0,240h22v1h-22zM96,240h21v1h-21zM181,240h86v1h-86zM331,240h21v1h-21zM395,240h21v1h-21zM490,240h22v1h-22zM0,241h22v1h-22zM96,241h21v1h-21zM181,241h86v1h-86zM331,241h21v1h-21zM395,241h21v1h-21zM490,241h22v1h-22zM0,242h22v1h-22zM96,242h21v1h-21zM181,242h86v1h-86zM331,242h21v1h-21zM395,242h21v1h-21zM490,242h22v1h-22zM0,243h22v1h-22zM96,243h21v1h-21zM181,243h86v1h-86zM331,243h21v1h-21zM395,243h21v1h-21zM490,243h22v1h-22zM0,244h22v1h-22zM96,244h21v1h-21zM181,244h86v1h-86zM331,244h21v1h-21zM395,244h21v1h-21zM490,244h22v1h-22zM0,245h22v1h-22zM96,245h21v1h-21zM181,245h22v1h-22zM245,245h22v1h-22zM331,245h21v1h-21zM395,245h21v1h-21zM490,245h22v1h-22zM0,246h22v1h-22zM96,246h21v1h-21zM181,246h22v1h-22zM245,246h22v1h-22zM331,246h21v1h-21zM395,246h21v1h-21zM490,246h22v1h-22zM0,247h22v1h-22zM96,247h21v1h-21zM181,247h22v1h-22zM245,247h22v1h-22zM331,247h21v1h-21zM395,247h21v1h-21zM491,247h21v1h-21zM0,248h21v1h-21zM96,248h21v1h-21zM181,248h22v1h-22zM245,248h22v1h-22zM331,248h21v1h-21zM395,248h21v1h-21zM491,248h21v1h-21zM0,249h21v1h-21zM96,249h21v1h-21zM181,249h22v1h-22zM245,249h22v1h-22zM331,249h21v1h-21zM395,249h21v1h-21zM491,249h21v1h-21zM0,250h21v1h-21zM96,250h21v1h-21zM181,250h22v1h-22zM245,250h22v1h-22zM331,250h21v1h-21zM395,250h21v1h-21zM491,250h21v1h-21zM0,251h21v1h-21zM96,251h21v1h-21zM181,251h22v1h-22zM245,251h22v1h-22zM331,251h21v1h-21zM395,251h21v1h-21zM491,251h21v1h-21zM0,252h21v1h-21zM96,252h21v1h-21zM181,252h22v1h-22zM245,252h22v1h-22zM331,252h21v1h-21zM395,252h21v1h-21zM491,252h21v1h-21zM0,253h21v1h-21zM96,253h21v1h-21zM181,253h22v1h-22zM245,253h22v1h-22zM331,253h21v1h-21zM395,253h21v1h-21zM491,253h21v1h-21zM0,254h21v1h-21zM96,254h21v1h-21zM181,254h22v1h-22zM245,254h22v1h-22zM331,254h21v1h-21zM395,254h21v1h-21zM491,254h21v1h-21zM0,255h21v1h-21zM96,255h21v1h-21zM181,255h22v1h-22zM245,255h22v1h-22zM331,255h21v1h-21zM395,255h21v1h-21zM491,255h21v1h-21zM0,256h21v1h-21zM96,256h21v1h-21zM181,256h22v1h-22zM245,256h22v1h-22zM331,256h21v1h-21zM395,256h21v1h-21zM491,256h21v1h-21zM0,257h21v1h-21zM96,257h21v1h-21zM181,257h22v1h-22zM245,257h22v1h-22zM331,257h21v1h-21zM395,257h21v1h-21zM491,257h21v1h-21zM0,258h21v1h-21zM96,258h21v1h-21zM181,258h22v1h-22zM245,258h22v1h-22zM331,258h21v1h-21zM395,258h21v1h-21zM491,258h21v1h-21zM0,259h21v1h-21zM96,259h21v1h-21zM181,259h22v1h-22zM245,259h22v1h-22zM331,259h21v1h-21zM395,259h21v1h-21zM491,259h21v1h-21zM0,260h21v1h-21zM96,260h21v1h-21zM181,260h22v1h-22zM245,260h22v1h-22zM331,260h21v1h-21zM395,260h21v1h-21zM491,260h21v1h-21zM0,261h21v1h-21zM96,261h21v1h-21zM181,261h22v1h-22zM245,261h22v1h-22zM331,261h21v1h-21zM395,261h21v1h-21zM491,261h21v1h-21zM0,262h21v1h-21zM96,262h21v1h-21zM181,262h22v1h-22zM245,262h22v1h-22zM331,262h21v1h-21zM395,262h21v1h-21zM491,262h21v1h-21zM0,263h21v1h-21zM96,263h21v1h-21zM181,263h22v1h-22zM245,263h22v1h-22zM331,263h21v1h-21zM395,263h21v1h-21zM491,263h21v1h-21zM0,264h22v1h-22zM96,264h21v1h-21zM181,264h22v1h-22zM245,264h22v1h-22zM331,264h21v1h-21zM395,264h21v1h-21zM490,264h22v1h-22zM0,265h22v1h-22zM96,265h21v1h-21zM181,265h22v1h-22zM245,265h22v1h-22zM331,265h21v1h-21zM395,265h21v1h-21zM490,265h22v1h-22zM0,266h22v1h-22zM96,266h21v1h-21zM181,266h22v1h-22zM245,266h22v1h-22zM331,266h21v1h-21zM395,266h21v1h-21zM490,266h22v1h-22zM0,267h22v1h-22zM96,267h21v1h-21zM181,267h22v1h-22zM245,267h22v1h-22zM331,267h21v1h-21zM395,267h21v1h-21zM490,267h22v1h-22zM0,268h22v1h-22zM96,268h21v1h-21zM181,268h22v1h-22zM245,268h22v1h-22zM331,268h21v1h-21zM395,268h21v1h-21zM490,268h22v1h-22zM0,269h22v1h-22zM96,269h21v1h-21zM181,269h22v1h-22zM245,269h22v1h-22zM331,269h21v1h-21zM395,269h21v1h-21zM490,269h22v1h-22zM0,270h22v1h-22zM96,270h21v1h-21zM181,270h22v1h-22zM245,270h22v1h-22zM331,270h21v1h-21zM395,270h21v1h-21zM490,270h22v1h-22zM0,271h22v1h-22zM96,271h21v1h-21zM181,271h22v1h-22zM245,271h22v1h-22zM331,271h21v1h-21zM395,271h21v1h-21zM490,271h21v1h-21zM1,272h21v1h-21zM96,272h21v1h-21zM181,272h22v1h-22zM245,272h22v1h-22zM331,272h21v1h-21zM395,272h21v1h-21zM490,272h21v1h-21zM1,273h21v1h-21zM96,273h21v1h-21zM181,273h22v1h-22zM245,273h22v1h-22zM331,273h21v1h-21zM395,273h21v1h-21zM490,273h21v1h-21zM1,274h21v1h-21zM96,274h21v1h-21zM181,274h22v1h-22zM245,274h22v1h-22zM331,274h21v1h-21zM395,274h21v1h-21zM490,274h21v1h-21zM1,275h21v1h-21zM96,275h21v1h-21zM181,275h22v1h-22zM245,275h22v1h-22zM331,275h21v1h-21zM395,275h21v1h-21zM490,275h21v1h-21zM1,276h21v1h-21zM96,276h21v1h-21zM181,276h22v1h-22zM245,276h22v1h-22zM331,276h21v1h-21zM395,276h21v1h-21zM490,276h21v1h-21zM1,277h21v1h-21zM96,277h21v1h-21zM181,277h22v1h-22zM245,277h22v1h-22zM331,277h21v1h-21zM395,277h21v1h-21zM490,277h21v1h-21zM1,278h21v1h-21zM96,278h21v1h-21zM181,278h22v1h-22zM245,278h22v1h-22zM331,278h21v1h-21zM395,278h21v1h-21zM490,278h21v1h-21zM1,279h22v1h-22zM96,279h21v1h-21zM182,279h20v1h-20zM246,279h20v1h-20zM331,279h21v1h-21zM395,279h21v1h-21zM489,279h22v1h-22zM1,280h22v1h-22zM96,280h21v1h-21zM182,280h20v1h-20zM246,280h20v1h-20zM331,280h21v1h-21zM395,280h21v1h-21zM489,280h22v1h-22zM1,281h22v1h-22zM96,281h21v1h-21zM182,281h20v1h-20zM246,281h20v1h-20zM331,281h21v1h-21zM395,281h21v1h-21zM489,281h22v1h-22zM1,282h22v1h-22zM96,282h21v1h-21zM183,282h18v1h-18zM247,282h18v1h-18zM331,282h21v1h-21zM395,282h21v1h-21zM489,282h22v1h-22zM2,283h21v1h-21zM96,283h21v1h-21zM183,283h18v1h-18zM247,283h18v1h-18zM331,283h21v1h-21zM395,283h21v1h-21zM489,283h21v1h-21zM2,284h21v1h-21zM96,284h21v1h-21zM184,284h16v1h-16zM248,284h16v1h-16zM331,284h21v1h-21zM395,284h21v1h-21zM489,284h21v1h-21zM2,285h21v1h-21zM96,285h21v1h-21zM185,285h14v1h-14zM249,285h14v1h-14zM331,285h21v1h-21zM395,285h21v1h-21zM489,285h21v1h-21zM2,286h21v1h-21zM96,286h21v1h-21zM187,286h10v1h-10zM251,286h10v1h-10zM331,286h21v1h-21zM395,286h21v1h-21zM489,286h21v1h-21zM2,287h21v1h-21zM96,287h21v1h-21zM189,287h6v1h-6zM253,287h6v1h-6zM331,287h21v1h-21zM395,287h21v1h-21zM488,287h22v1h-22zM2,288h22v1h-22zM96,288h21v1h-21zM331,288h21v1h-21zM395,288h21v1h-21zM488,288h22v1h-22zM2,289h22v1h-22zM96,289h21v1h-21zM331,289h21v1h-21zM395,289h21v1h-21zM488,289h22v1h-22zM2,290h22v1h-22zM96,290h21v1h-21zM331,290h21v1h-21zM395,290h21v1h-21zM488,290h22v1h-22zM3,291h21v1h-21zM96,291h21v1h-21zM331,291h21v1h-21zM395,291h21v1h-21zM488,291h21v1h-21zM3,292h21v1h-21zM96,292h21v1h-21zM331,292h21v1h-21zM395,292h21v1h-21zM488,292h21v1h-21zM3,293h21v1h-21zM96,293h21v1h-21zM331,293h21v1h-21zM395,293h21v1h-21zM488,293h21v1h-21zM3,294h22v1h-22zM96,294h21v1h-21zM331,294h21v1h-21zM395,294h21v1h-21zM487,294h22v1h-22zM3,295h22v1h-22zM96,295h21v1h-21zM331,295h21v1h-21zM395,295h21v1h-21zM487,295h22v1h-22zM3,296h22v1h-22zM96,296h21v1h-21zM331,296h21v1h-21zM395,296h21v1h-21zM487,296h22v1h-22zM3,297h22v1h-22zM96,297h21v1h-21zM331,297h21v1h-21zM395,297h21v1h-21zM487,297h22v1h-22zM4,298h21v1h-21zM96,298h21v1h-21zM331,298h21v1h-21zM395,298h21v1h-21zM487,298h21v1h-21zM4,299h21v1h-21zM96,299h21v1h-21zM331,299h21v1h-21zM395,299h21v1h-21zM487,299h21v1h-21zM4,300h22v1h-22zM96,300h21v1h-21zM331,300h21v1h-21zM395,300h21v1h-21zM486,300h22v1h-22zM4,301h22v1h-22zM96,301h21v1h-21zM331,301h21v1h-21zM395,301h21v1h-21zM486,301h22v1h-22zM4,302h22v1h-22zM96,302h22v1h-22zM330,302h22v1h-22zM395,302h21v1h-21zM486,302h22v1h-22zM4,303h22v1h-22zM96,303h22v1h-22zM330,303h22v1h-22zM395,303h21v1h-21zM486,303h22v1h-22zM5,304h21v1h-21zM96,304h22v1h-22zM330,304h22v1h-22zM395,304h21v1h-21zM486,304h21v1h-21zM5,305h22v1h-22zM96,305h22v1h-22zM330,305h22v1h-22zM395,305h21v1h-21zM485,305h22v1h-22zM5,306h22v1h-22zM97,306h21v1h-21zM330,306h21v1h-21zM395,306h21v1h-21zM485,306h22v1h-22zM5,307h22v1h-22zM97,307h22v1h-22zM329,307h22v1h-22zM395,307h21v1h-21zM485,307h22v1h-22zM5,308h22v1h-22zM97,308h22v1h-22zM329,308h22v1h-22zM395,308h21v1h-21zM485,308h22v1h-22zM6,309h22v1h-22zM97,309h22v1h-22zM329,309h22v1h-22zM395,309h21v1h-21zM484,309h22v1h-22zM6,310h22v1h-22zM97,310h23v1h-23zM328,310h23v1h-23zM395,310h21v1h-21zM484,310h22v1h-22zM6,311h22v1h-22zM98,311h22v1h-22zM328,311h22v1h-22zM395,311h21v1h-21zM484,311h22v1h-22zM6,312h22v1h-22zM98,312h23v1h-23zM327,312h23v1h-23zM395,312h21v1h-21zM484,312h22v1h-22zM7,313h21v1h-21zM98,313h23v1h-23zM327,313h23v1h-23zM395,313h21v1h-21zM483,313h22v1h-22zM7,314h22v1h-22zM98,314h24v1h-24zM326,314h24v1h-24zM395,314h21v1h-21zM483,314h22v1h-22zM7,315h22v1h-22zM99,315h23v1h-23zM326,315h23v1h-23zM395,315h21v1h-21zM483,315h22v1h-22zM7,316h22v1h-22zM99,316h24v1h-24zM325,316h24v1h-24zM395,316h21v1h-21zM483,316h22v1h-22zM8,317h22v1h-22zM99,317h25v1h-25zM324,317h24v1h-24zM395,317h21v1h-21zM482,317h22v1h-22zM8,318h22v1h-22zM100,318h24v1h-24zM324,318h24v1h-24zM395,318h21v1h-21zM482,318h22v1h-22zM8,319h22v1h-22zM100,319h25v1h-25zM323,319h25v1h-25zM395,319h21v1h-21zM482,319h22v1h-22zM8,320h22v1h-22zM101,320h25v1h-25zM322,320h25v1h-25zM395,320h21v1h-21zM482,320h22v1h-22zM9,321h22v1h-22zM101,321h26v1h-26zM321,321h26v1h-26zM395,321h21v1h-21zM481,321h22v1h-22zM9,322h22v1h-22zM102,322h26v1h-26zM320,322h26v1h-26zM395,322h21v1h-21zM481,322h22v1h-22zM9,323h22v1h-22zM102,323h27v1h-27zM319,323h27v1h-27zM395,323h21v1h-21zM481,323h22v1h-22zM9,324h23v1h-23zM103,324h28v1h-28zM317,324h28v1h-28zM395,324h21v1h-21zM480,324h23v1h-23zM10,325h22v1h-22zM103,325h29v1h-29zM316,325h29v1h-29zM395,325h21v1h-21zM480,325h22v1h-22zM10,326h22v1h-22zM104,326h30v1h-30zM314,326h30v1h-30zM395,326h21v1h-21zM480,326h22v1h-22zM10,327h23v1h-23zM105,327h31v1h-31zM312,327h31v1h-31zM395,327h21v1h-21zM479,327h23v1h-23zM11,328h22v1h-22zM105,328h33v1h-33zM310,328h33v1h-33zM395,328h21v1h-21zM479,328h22v1h-22zM11,329h22v1h-22zM106,329h35v1h-35zM307,329h35v1h-35zM395,329h21v1h-21zM479,329h22v1h-22zM11,330h22v1h-22zM107,330h39v1h-39zM302,330h39v1h-39zM395,330h21v1h-21zM478,330h23v1h-23zM11,331h23v1h-23zM107,331h234v1h-234zM395,331h21v1h-21zM478,331h23v1h-23zM12,332h22v1h-22zM108,332h232v1h-232zM395,332h21v1h-21zM478,332h22v1h-22zM12,333h23v1h-23zM109,333h230v1h-230zM395,333h21v1h-21zM477,333h23v1h-23zM12,334h23v1h-23zM110,334h228v1h-228zM395,334h21v1h-21zM477,334h23v1h-23zM13,335h22v1h-22zM111,335h226v1h-226zM395,335h21v1h-21zM477,335h22v1h-22zM13,336h23v1h-23zM112,336h224v1h-224zM395,336h21v1h-21zM476,336h23v1h-23zM13,337h23v1h-23zM113,337h222v1h-222zM395,337h21v1h-21zM476,337h23v1h-23zM14,338h22v1h-22zM114,338h220v1h-220zM395,338h21v1h-21zM476,338h22v1h-22zM14,339h23v1h-23zM115,339h218v1h-218zM395,339h21v1h-21zM475,339h23v1h-23zM14,340h23v1h-23zM116,340h216v1h-216zM395,340h21v1h-21zM475,340h23v1h-23zM15,341h23v1h-23zM118,341h212v1h-212zM395,341h21v1h-21zM474,341h23v1h-23zM15,342h23v1h-23zM119,342h210v1h-210zM395,342h21v1h-21zM474,342h23v1h-23zM15,343h23v1h-23zM121,343h207v1h-207zM395,343h21v1h-21zM474,343h23v1h-23zM16,344h23v1h-23zM122,344h204v1h-204zM395,344h21v1h-21zM473,344h23v1h-23zM16,345h23v1h-23zM124,345h200v1h-200zM395,345h21v1h-21zM473,345h23v1h-23zM17,346h22v1h-22zM126,346h196v1h-196zM395,346h21v1h-21zM472,346h23v1h-23zM17,347h23v1h-23zM128,347h192v1h-192zM395,347h21v1h-21zM472,347h23v1h-23zM17,348h23v1h-23zM131,348h187v1h-187zM395,348h21v1h-21zM472,348h23v1h-23zM18,349h23v1h-23zM133,349h182v1h-182zM395,349h21v1h-21zM471,349h23v1h-23zM18,350h23v1h-23zM137,350h174v1h-174zM395,350h21v1h-21zM471,350h23v1h-23zM18,351h24v1h-24zM142,351h164v1h-164zM395,351h21v1h-21zM470,351h23v1h-23zM19,352h23v1h-23zM160,352h21v1h-21zM395,352h21v1h-21zM470,352h23v1h-23zM19,353h24v1h-24zM160,353h21v1h-21zM395,353h21v1h-21zM469,353h24v1h-24zM20,354h23v1h-23zM160,354h21v1h-21zM395,354h21v1h-21zM469,354h23v1h-23zM20,355h23v1h-23zM160,355h21v1h-21zM395,355h21v1h-21zM468,355h24v1h-24zM21,356h23v1h-23zM160,356h21v1h-21zM395,356h21v1h-21zM468,356h23v1h-23zM21,357h23v1h-23zM160,357h21v1h-21zM395,357h21v1h-21zM468,357h23v1h-23zM21,358h24v1h-24zM160,358h21v1h-21zM395,358h21v1h-21zM467,358h24v1h-24zM22,359h23v1h-23zM160,359h21v1h-21zM395,359h21v1h-21zM467,359h23v1h-23zM22,360h24v1h-24zM160,360h21v1h-21zM395,360h21v1h-21zM466,360h24v1h-24zM23,361h23v1h-23zM160,361h21v1h-21zM395,361h21v1h-21zM465,361h24v1h-24zM23,362h24v1h-24zM160,362h21v1h-21zM395,362h21v1h-21zM465,362h24v1h-24zM24,363h23v1h-23zM160,363h21v1h-21zM395,363h21v1h-21zM464,363h24v1h-24zM24,364h24v1h-24zM160,364h21v1h-21zM395,364h21v1h-21zM464,364h24v1h-24zM25,365h23v1h-23zM160,365h21v1h-21zM395,365h21v1h-21zM463,365h24v1h-24zM25,366h24v1h-24zM160,366h22v1h-22zM394,366h22v1h-22zM463,366h24v1h-24zM26,367h24v1h-24zM160,367h22v1h-22zM394,367h22v1h-22zM462,367h24v1h-24zM26,368h24v1h-24zM160,368h22v1h-22zM394,368h22v1h-22zM462,368h24v1h-24zM27,369h24v1h-24zM160,369h22v1h-22zM394,369h22v1h-22zM461,369h24v1h-24zM27,370h24v1h-24zM161,370h21v1h-21zM394,370h21v1h-21zM461,370h24v1h-24zM28,371h24v1h-24zM161,371h22v1h-22zM393,371h22v1h-22zM460,371h24v1h-24zM28,372h24v1h-24zM161,372h22v1h-22zM393,372h22v1h-22zM460,372h24v1h-24zM29,373h24v1h-24zM161,373h22v1h-22zM393,373h22v1h-22zM459,373h24v1h-24zM29,374h24v1h-24zM161,374h23v1h-23zM392,374h23v1h-23zM458,374h25v1h-25zM30,375h24v1h-24zM162,375h22v1h-22zM392,375h22v1h-22zM458,375h24v1h-24zM30,376h25v1h-25zM162,376h23v1h-23zM391,376h23v1h-23zM457,376h25v1h-25zM31,377h24v1h-24zM162,377h23v1h-23zM391,377h23v1h-23zM457,377h24v1h-24zM31,378h25v1h-25zM162,378h24v1h-24zM390,378h24v1h-24zM456,378h25v1h-25zM32,379h24v1h-24zM163,379h23v1h-23zM390,379h23v1h-23zM455,379h25v1h-25zM32,380h25v1h-25zM163,380h24v1h-24zM389,380h24v1h-24zM455,380h25v1h-25zM33,381h25v1h-25zM163,381h25v1h-25zM388,381h24v1h-24zM454,381h25v1h-25zM33,382h25v1h-25zM164,382h24v1h-24zM388,382h24v1h-24zM453,382h26v1h-26zM34,383h25v1h-25zM164,383h25v1h-25zM387,383h25v1h-25zM453,383h25v1h-25zM35,384h25v1h-25zM165,384h25v1h-25zM386,384h25v1h-25zM452,384h25v1h-25zM35,385h25v1h-25zM165,385h26v1h-26zM385,385h26v1h-26zM452,385h25v1h-25zM36,386h25v1h-25zM166,386h26v1h-26zM384,386h26v1h-26zM451,386h25v1h-25zM36,387h26v1h-26zM166,387h27v1h-27zM383,387h27v1h-27zM450,387h26v1h-26zM37,388h25v1h-25zM167,388h28v1h-28zM381,388h28v1h-28zM450,388h25v1h-25zM38,389h25v1h-25zM167,389h29v1h-29zM380,389h29v1h-29zM449,389h25v1h-25zM38,390h26v1h-26zM168,390h30v1h-30zM378,390h30v1h-30zM448,390h26v1h-26zM39,391h25v1h-25zM169,391h31v1h-31zM376,391h31v1h-31zM447,391h26v1h-26zM39,392h26v1h-26zM169,392h33v1h-33zM374,392h33v1h-33zM447,392h26v1h-26zM40,393h26v1h-26zM170,393h35v1h-35zM371,393h35v1h-35zM446,393h26v1h-26zM41,394h26v1h-26zM171,394h39v1h-39zM366,394h39v1h-39zM445,394h26v1h-26zM41,395h26v1h-26zM171,395h234v1h-234zM445,395h26v1h-26zM42,396h26v1h-26zM172,396h232v1h-232zM444,396h26v1h-26zM43,397h26v1h-26zM173,397h230v1h-230zM443,397h26v1h-26zM43,398h27v1h-27zM174,398h228v1h-228zM442,398h27v1h-27zM44,399h26v1h-26zM175,399h226v1h-226zM441,399h27v1h-27zM45,400h26v1h-26zM176,400h224v1h-224zM441,400h26v1h-26zM45,401h27v1h-27zM177,401h222v1h-222zM440,401h27v1h-27zM46,402h27v1h-27zM178,402h220v1h-220zM439,402h27v1h-27zM47,403h27v1h-27zM179,403h218v1h-218zM438,403h27v1h-27zM48,404h26v1h-26zM180,404h216v1h-216zM438,404h26v1h-26zM48,405h27v1h-27zM182,405h212v1h-212zM437,405h27v1h-27zM49,406h27v1h-27zM183,406h210v1h-210zM436,406h27v1h-27zM50,407h27v1h-27zM185,407h207v1h-207zM435,407h27v1h-27zM50,408h28v1h-28zM186,408h204v1h-204zM434,408h28v1h-28zM51,409h28v1h-28zM188,409h200v1h-200zM433,409h28v1h-28zM52,410h27v1h-27zM190,410h196v1h-196zM432,410h28v1h-28zM53,411h27v1h-27zM192,411h192v1h-192zM432,411h27v1h-27zM53,412h28v1h-28zM195,412h187v1h-187zM431,412h28v1h-28zM54,413h28v1h-28zM197,413h182v1h-182zM430,413h28v1h-28zM55,414h28v1h-28zM201,414h174v1h-174zM429,414h28v1h-28zM56,415h28v1h-28zM206,415h164v1h-164zM428,415h28v1h-28zM57,416h28v1h-28zM427,416h28v1h-28zM57,417h29v1h-29zM426,417h29v1h-29zM58,418h29v1h-29zM425,418h29v1h-29zM59,419h29v1h-29zM424,419h29v1h-29zM60,420h29v1h-29zM423,420h29v1h-29zM61,421h29v1h-29zM422,421h29v1h-29zM62,422h29v1h-29zM421,422h29v1h-29zM62,423h30v1h-30zM420,423h30v1h-30zM63,424h30v1h-30zM419,424h30v1h-30zM64,425h30v1h-30zM418,425h30v1h-30zM65,426h30v1h-30zM417,426h30v1h-30zM66,427h30v1h-30zM416,427h30v1h-30zM67,428h30v1h-30zM415,428h30v1h-30zM68,429h30v1h-30zM414,429h30v1h-30zM69,430h30v1h-30zM413,430h30v1h-30zM70,431h30v1h-30zM412,431h30v1h-30zM71,432h30v1h-30zM410,432h31v1h-31zM72,433h31v1h-31zM409,433h31v1h-31zM73,434h31v1h-31zM408,434h31v1h-31zM74,435h31v1h-31zM407,435h31v1h-31zM74,436h32v1h-32zM406,436h31v1h-31zM76,437h31v1h-31zM405,437h31v1h-31zM77,438h32v1h-32zM403,438h32v1h-32zM78,439h32v1h-32zM402,439h32v1h-32zM79,440h32v1h-32zM401,440h32v1h-32zM80,441h32v1h-32zM399,441h33v1h-33zM81,442h33v1h-33zM398,442h33v1h-33zM82,443h33v1h-33zM397,443h33v1h-33zM83,444h33v1h-33zM396,444h33v1h-33zM84,445h34v1h-34zM394,445h34v1h-34zM85,446h34v1h-34zM393,446h34v1h-34zM86,447h34v1h-34zM391,447h35v1h-35zM87,448h35v1h-35zM390,448h35v1h-35zM88,449h35v1h-35zM389,449h35v1h-35zM90,450h35v1h-35zM387,450h35v1h-35zM91,451h35v1h-35zM386,451h35v1h-35zM92,452h36v1h-36zM384,452h36v1h-36zM93,453h36v1h-36zM382,453h37v1h-37zM94,454h37v1h-37zM381,454h37v1h-37zM96,455h36v1h-36zM379,455h37v1h-37zM97,456h37v1h-37zM378,456h37v1h-37zM98,457h38v1h-38zM376,457h38v1h-38zM99,458h39v1h-39zM374,458h39v1h-39zM101,459h38v1h-38zM373,459h38v1h-38zM102,460h39v1h-39zM371,460h39v1h-39zM103,461h40v1h-40zM369,461h40v1h-40zM105,462h40v1h-40zM367,462h40v1h-40zM106,463h41v1h-41zM365,463h41v1h-41zM108,464h40v1h-40zM363,464h42v1h-42zM109,465h41v1h-41zM362,465h41v1h-41zM110,466h42v1h-42zM360,466h42v1h-42zM112,467h42v1h-42zM358,467h42v1h-42zM113,468h44v1h-44zM355,468h44v1h-44zM115,469h44v1h-44zM353,469h44v1h-44zM116,470h45v1h-45zM351,470h45v1h-45zM118,471h45v1h-45zM349,471h45v1h-45zM119,472h47v1h-47zM346,472h47v1h-47zM121,473h47v1h-47zM344,473h47v1h-47zM123,474h47v1h-47zM341,474h48v1h-48zM124,475h49v1h-49zM339,475h49v1h-49zM126,476h50v1h-50zM336,476h50v1h-50zM128,477h51v1h-51zM333,477h51v1h-51zM129,478h53v1h-53zM330,478h53v1h-53zM131,479h54v1h-54zM327,479h54v1h-54zM133,480h55v1h-55zM324,480h55v1h-55zM135,481h56v1h-56zM321,481h56v1h-56zM137,482h58v1h-58zM317,482h58v1h-58zM139,483h60v1h-60zM313,483h60v1h-60zM141,484h62v1h-62zM309,484h62v1h-62zM143,485h64v1h-64zM305,485h64v1h-64zM145,486h67v1h-67zM300,486h67v1h-67zM147,487h71v1h-71zM294,487h71v1h-71zM149,488h75v1h-75zM287,488h76v1h-76zM151,489h82v1h-82zM279,489h82v1h-82zM153,490h94v1h-94zM264,490h95v1h-95zM156,491h200v1h-200zM158,492h196v1h-196zM160,493h191v1h-191zM163,494h186v1h-186zM166,495h180v1h-180zM168,496h176v1h-176zM171,497h170v1h-170zM174,498h164v1h-164zM177,499h158v1h-158zM180,500h152v1h-152zM184,501h145v1h-145zM187,502h138v1h-138zM191,503h130v1h-130zM195,504h123v1h-123zM199,505h114v1h-114zM203,506h106v1h-106zM208,507h96v1h-96zM214,508h84v1h-84zM221,509h71v1h-71zM229,510h54v1h-54zM241,511h31v1h-31z" fill="#000"/>
</svg>