<?xml version="1.0" encoding="UTF-8"?>
<svg xmlns="http://www.w3.org/2000/svg" width="512" height="512" viewBox="0 0 512 512">
<path d="M452,0h14v1h-14zM446,1h25v1h-25zM443,2h32v1h-32zM440,3h38v1h-38zM437,4h43v1h-43zM435,5h47v1h-47zM433,6h51v1h-51zM432,7h54v1h-54zM430,8h57v1h-57zM428,9h61v1h-61zM427,10h63v1h-63zM426,11h65v1h-65zM425,12h68v1h-68zM424,13h70v1h-70zM422,14h73v1h-73zM421,15h75v1h-75zM420,16h77v1h-77zM419,17h79v1h-79zM419,18h80v1h-80zM418,19h82v1h-82zM417,20h83v1h-83zM416,21h41v1h-41zM460,21h41v1h-41zM415,22h36v1h-36zM467,22h35v1h-35zM414,23h33v1h-33zM470,23h33v1h-33zM414,24h31v1h-31zM472,24h31v1h-31zM413,25h30v1h-30zM474,25h30v1h-30zM413,26h28v1h-28zM476,26h29v1h-29zM412,27h28v1h-28zM477,27h28v1h-28zM412,28h27v1h-27zM479,28h27v1h-27zM411,29h27v1h-27zM480,29h26v1h-26zM411,30h25v1h-25zM481,30h26v1h-26zM410,31h25v1h-25zM482,31h25v1h-25zM410,32h25v1h-25zM483,32h25v1h-25zM409,33h25v1h-25zM484,33h24v1h-24zM409,34h24v1h-24zM484,34h25v1h-25zM408,35h24v1h-24zM485,35h24v1h-24zM408,36h24v1h-24zM486,36h23v1h-23zM408,37h23v1h-23zM486,37h24v1h-24zM407,38h23v1h-23zM487,38h23v1h-23zM407,39h23v1h-23zM487,39h23v1h-23zM407,40h22v1h-22zM488,40h22v1h-22zM407,41h22v1h-22zM488,41h23v1h-23zM406,42h23v1h-23zM489,42h22v1h-22zM406,43h22v1h-22zM489,43h22v1h-22zM406,44h22v1h-22zM489,44h22v1h-22zM406,45h22v1h-22zM490,45h21v1h-21zM406,46h21v1h-21zM490,46h22v1h-22zM406,47h21v1h-21zM490,47h22v1h-22zM406,48h21v1h-21zM490,48h22v1h-22zM406,49h21v1h-21zM490,49h22v1h-22zM405,50h22v1h-22zM490,50h22v1h-22zM405,51h22v1h-22zM490,51h22v1h-22zM405,52h22v1h-22zM491,52h21v1h-21zM405,53h22v1h-22zM491,53h21v1h-21zM405,54h22v1h-22zM491,54h21v1h-21zM406,55h21v1h-21zM490,55h22v1h-22zM406,56h21v1h-21zM490,56h22v1h-22zM406,57h21v1h-21zM490,57h22v1h-22zM406,58h21v1h-21zM490,58h22v1h-22zM406,59h21v1h-21zM490,59h22v1h-22zM406,60h22v1h-22zM490,60h21v1h-21zM406,61h22v1h-22zM489,61h22v1h-22zM406,62h22v1h-22zM489,62h22v1h-22zM406,63h22v1h-22zM489,63h22v1h-22zM407,64h22v1h-22zM489,64h22v1h-22zM407,65h22v1h-22zM488,65h23v1h-23zM407,66h23v1h-23zM488,66h22v1h-22zM407,67h23v1h-23zM487,67h23v1h-23zM408,68h23v1h-23zM487,68h23v1h-23zM408,69h23v1h-23zM486,69h23v1h-23zM408,70h24v1h-24zM486,70h23v1h-23zM409,71h23v1h-23zM485,71h24v1h-24zM409,72h24v1h-24zM484,72h24v1h-24zM409,73h25v1h-25zM483,73h25v1h-25zM410,74h25v1h-25zM482,74h26v1h-26zM410,75h26v1h-26zM482,75h25v1h-25zM411,76h26v1h-26zM481,76h26v1h-26zM411,77h27v1h-27zM479,77h27v1h-27zM412,78h27v1h-27zM478,78h28v1h-28zM412,79h28v1h-28zM477,79h28v1h-28zM413,80h29v1h-29zM475,80h29v1h-29zM414,81h30v1h-30zM474,81h30v1h-30zM414,82h32v1h-32zM472,82h31v1h-31zM413,83h35v1h-35zM469,83h34v1h-34zM412,84h40v1h-40zM466,84h36v1h-36zM411,85h90v1h-90zM410,86h90v1h-90zM409,87h90v1h-90zM408,88h90v1h-90zM407,89h91v1h-91zM406,90h91v1h-91zM405,91h91v1h-91zM404,92h91v1h-91zM403,93h90v1h-90zM402,94h90v1h-90zM401,95h90v1h-90zM400,96h90v1h-90zM399,97h89v1h-89zM398,98h31v1h-31zM431,98h56v1h-56zM397,99h31v1h-31zM432,99h53v1h-53zM396,100h31v1h-31zM434,100h49v1h-49zM395,101h31v1h-31zM436,101h45v1h-45zM394,102h31v1h-31zM438,102h41v1h-41zM393,103h31v1h-31zM441,103h36v1h-36zM392,104h31v1h-31zM444,104h30v1h-30zM391,105h31v1h-31zM448,105h22v1h-22zM390,106h31v1h-31zM457,106h5v1h-5zM389,107h31v1h-31zM388,108h31v1h-31zM387,109h31v1h-31zM386,110h31v1h-31zM385,111h31v1h-31zM384,112h31v1h-31zM383,113h31v1h-31zM382,114h31v1h-31zM381,115h31v1h-31zM380,116h31v1h-31zM379,117h31v1h-31zM378,118h31v1h-31zM377,119h31v1h-31zM376,120h31v1h-31zM375,121h31v1h-31zM374,122h31v1h-31zM373,123h31v1h-31zM372,124h31v1h-31zM371,125h31v1h-31zM370,126h31v1h-31zM369,127h31v1h-31zM368,128h31v1h-31zM367,129h31v1h-31zM366,130h31v1h-31zM365,131h31v1h-31zM364,132h31v1h-31zM363,133h31v1h-31zM362,134h31v1h-31zM361,135h31v1h-31zM360,136h31v1h-31zM359,137h31v1h-31zM358,138h31v1h-31zM357,139h31v1h-31zM356,140h31v1h-31zM355,141h31v1h-31zM354,142h31v1h-31zM353,143h31v1h-31zM352,144h31v1h-31zM351,145h31v1h-31zM350,146h31v1h-31zM349,147h31v1h-31zM348,148h31v1h-31zM347,149h31v1h-31zM346,150h31v1h-31zM345,151h31v1h-31zM344,152h31v1h-31zM343,153h31v1h-31zM342,154h31v1h-31zM341,155h31v1h-31zM340,156h31v1h-31zM339,157h31v1h-31zM338,158h31v1h-31zM337,159h31v1h-31zM336,160h31v1h-31zM335,161h31v1h-31zM334,162h31v1h-31zM333,163h31v1h-31zM332,164h31v1h-31zM331,165h31v1h-31zM330,166h31v1h-31zM329,167h31v1h-31zM328,168h31v1h-31zM327,169h31v1h-31zM326,170h31v1h-31zM325,171h31v1h-31zM324,172h31v1h-31zM323,173h31v1h-31zM322,174h31v1h-31zM321,175h31v1h-31zM320,176h31v1h-31zM319,177h31v1h-31zM318,178h31v1h-31zM317,179h31v1h-31zM316,180h31v1h-31zM315,181h31v1h-31zM314,182h31v1h-31zM313,183h31v1h-31zM312,184h31v1h-31zM311,185h31v1h-31zM310,186h31v1h-31zM309,187h31v1h-31zM308,188h31v1h-31zM307,189h31v1h-31zM306,190h31v1h-31zM305,191h31v1h-31zM304,192h31v1h-31zM303,193h31v1h-31zM302,194h31v1h-31zM301,195h31v1h-31zM300,196h31v1h-31zM299,197h31v1h-31zM298,198h31v1h-31zM297,199h31v1h-31zM296,200h31v1h-31zM295,201h31v1h-31zM294,202h31v1h-31zM293,203h31v1h-31zM292,204h31v1h-31zM291,205h31v1h-31zM290,206h31v1h-31zM289,207h31v1h-31zM288,208h31v1h-31zM287,209h31v1h-31zM286,210h31v1h-31zM285,211h31v1h-31zM284,212h31v1h-31zM283,213h31v1h-31zM282,214h31v1h-31zM281,215h31v1h-31zM280,216h31v1h-31zM279,217h31v1h-31zM278,218h31v1h-31zM277,219h31v1h-31zM276,220h31v1h-31zM275,221h31v1h-31zM274,222h31v1h-31zM273,223h31v1h-31zM272,224h31v1h-31zM271,225h31v1h-31zM270,226h31v1h-31zM269,227h31v1h-31zM268,228h31v1h-31zM267,229h31v1h-31zM266,230h31v1h-31zM265,231h31v1h-31zM264,232h31v1h-31zM263,233h31v1h-31zM262,234h31v1h-31zM261,235h31v1h-31zM260,236h31v1h-31zM259,237h31v1h-31zM258,238h31v1h-31zM257,239h31v1h-31zM256,240h31v1h-31zM255,241h31v1h-31zM254,242h31v1h-31zM253,243h31v1h-31zM252,244h31v1h-31zM251,245h31v1h-31zM250,246h31v1h-31zM249,247h31v1h-31zM248,248h31v1h-31zM247,249h31v1h-31zM246,250h31v1h-31zM245,251h31v1h-31zM244,252h31v1h-31zM243,253h31v1h-31zM242,254h31v1h-31zM241,255h31v1h-31zM240,256h31v1h-31zM239,257h31v1h-31zM238,258h31v1h-31zM237,259h31v1h-31zM236,260h31v1h-31zM235,261h31v1h-31zM234,262h31v1h-31zM233,263h31v1h-31zM232,264h31v1h-31zM231,265h31v1h-31zM230,266h31v1h-31zM229,267h31v1h-31zM228,268h31v1h-31zM227,269h31v1h-31zM226,270h31v1h-31zM225,271h31v1h-31zM224,272h31v1h-31zM223,273h31v1h-31zM222,274h31v1h-31zM221,275h31v1h-31zM220,276h31v1h-31zM219,277h31v1h-31zM218,278h31v1h-31zM217,279h31v1h-31zM216,280h31v1h-31zM215,281h31v1h-31zM214,282h31v1h-31zM213,283h31v1h-31zM212,284h31v1h-31zM211,285h31v1h-31zM210,286h31v1h-31zM209,287h31v1h-31zM208,288h31v1h-31zM207,289h31v1h-31zM206,290h31v1h-31zM205,291h31v1h-31zM204,292h31v1h-31zM203,293h31v1h-31zM202,294h31v1h-31zM201,295h31v1h-31zM200,296h31v1h-31zM199,297h31v1h-31zM198,298h31v1h-31zM197,299h31v1h-31zM196,300h31v1h-31zM195,301h31v1h-31zM194,302h31v1h-31zM193,303h31v1h-31zM192,304h31v1h-31zM191,305h31v1h-31zM190,306h31v1h-31zM189,307h31v1h-31zM188,308h31v1h-31zM187,309h31v1h-31zM186,310h31v1h-31zM185,311h31v1h-31zM184,312h31v1h-31zM183,313h31v1h-31zM182,314h31v1h-31zM181,315h31v1h-31zM180,316h31v1h-31zM179,317h31v1h-31zM178,318h31v1h-31zM177,319h31v1h-31zM176,320h31v1h-31zM175,321h31v1h-31zM174,322h31v1h-31zM173,323h31v1h-31zM172,324h31v1h-31zM171,325h31v1h-31zM170,326h31v1h-31zM169,327h31v1h-31zM168,328h31v1h-31zM167,329h31v1h-31zM166,330h31v1h-31zM165,331h31v1h-31zM164,332h31v1h-31zM163,333h31v1h-31zM162,334h31v1h-31zM161,335h31v1h-31zM160,336h31v1h-31zM159,337h31v1h-31zM158,338h31v1h-31zM157,339h31v1h-31zM156,340h31v1h-31zM155,341h31v1h-31zM154,342h31v1h-31zM153,343h31v1h-31zM152,344h31v1h-31zM151,345h31v1h-31zM150,346h31v1h-31zM149,347h31v1h-31zM148,348h31v1h-31zM147,349h31v1h-31zM146,350h31v1h-31zM145,351h31v1h-31zM144,352h31v1h-31zM143,353h31v1h-31zM142,354h31v1h-31zM141,355h31v1h-31zM140,356h31v1h-31zM139,357h31v1h-31zM138,358h31v1h-31zM137,359h31v1h-31zM136,360h31v1h-31zM135,361h31v1h-31zM134,362h31v1h-31zM133,363h31v1h-31zM132,364h31v1h-31zM131,365h31v1h-31zM130,366h31v1h-31zM129,367h31v1h-31zM128,368h31v1h-31zM127,369h31v1h-31zM126,370h31v1h-31zM125,371h31v1h-31zM124,372h31v1h-31zM123,373h31v1h-31zM122,374h31v1h-31zM121,375h31v1h-31zM120,376h31v1h-31zM119,377h31v1h-31zM118,378h31v1h-31zM117,379h31v1h-31zM116,380h31v1h-31zM115,381h31v1h-31zM114,382h31v1h-31zM113,383h31v1h-31zM112,384h31v1h-31zM111,385h31v1h-31zM110,386h31v1h-31zM109,387h31v1h-31zM108,388h31v1h-31zM107,389h31v1h-31zM106,390h31v1h-31zM105,391h31v1h-31zM104,392h31v1h-31zM103,393h31v1h-31zM102,394h31v1h-31zM101,395h31v1h-31zM100,396h31v1h-31zM99,397h31v1h-31zM98,398h31v1h-31zM97,399h31v1h-31zM96,400h31v1h-31zM95,401h31v1h-31zM94,402h31v1h-31zM93,403h31v1h-31zM92,404h31v1h-31zM50,405h5v1h-5zM91,405h31v1h-31zM42,406h22v1h-22zM90,406h31v1h-31zM38,407h30v1h-30zM89,407h31v1h-31zM35,408h36v1h-36zM88,408h31v1h-31zM33,409h41v1h-41zM87,409h31v1h-31zM31,410h45v1h-45zM86,410h31v1h-31zM29,411h49v1h-49zM85,411h31v1h-31zM27,412h53v1h-53zM84,412h31v1h-31zM25,413h56v1h-56zM83,413h31v1h-31zM24,414h89v1h-89zM22,415h90v1h-90zM21,416h90v1h-90zM20,417h90v1h-90zM19,418h90v1h-90zM17,419h91v1h-91zM16,420h91v1h-91zM15,421h91v1h-91zM14,422h91v1h-91zM14,423h90v1h-90zM13,424h90v1h-90zM12,425h90v1h-90zM11,426h90v1h-90zM10,427h36v1h-36zM60,427h40v1h-40zM9,428h34v1h-34zM64,428h35v1h-35zM9,429h31v1h-31zM66,429h32v1h-32zM8,430h30v1h-30zM68,430h30v1h-30zM8,431h29v1h-29zM70,431h29v1h-29zM7,432h28v1h-28zM72,432h28v1h-28zM6,433h28v1h-28zM73,433h27v1h-27zM6,434h27v1h-27zM74,434h27v1h-27zM5,435h26v1h-26zM75,435h26v1h-26zM5,436h25v1h-25zM76,436h26v1h-26zM4,437h26v1h-26zM77,437h25v1h-25zM4,438h25v1h-25zM78,438h25v1h-25zM4,439h24v1h-24zM79,439h24v1h-24zM3,440h24v1h-24zM80,440h23v1h-23zM3,441h23v1h-23zM80,441h24v1h-24zM3,442h23v1h-23zM81,442h23v1h-23zM2,443h23v1h-23zM81,443h23v1h-23zM2,444h23v1h-23zM82,444h23v1h-23zM2,445h22v1h-22zM82,445h23v1h-23zM1,446h23v1h-23zM83,446h22v1h-22zM1,447h22v1h-22zM83,447h22v1h-22zM1,448h22v1h-22zM84,448h22v1h-22zM1,449h22v1h-22zM84,449h22v1h-22zM1,450h22v1h-22zM84,450h22v1h-22zM1,451h21v1h-21zM84,451h22v1h-22zM0,452h22v1h-22zM85,452h21v1h-21zM0,453h22v1h-22zM85,453h21v1h-21zM0,454h22v1h-22zM85,454h21v1h-21zM0,455h22v1h-22zM85,455h21v1h-21zM0,456h22v1h-22zM85,456h21v1h-21zM0,457h21v1h-21zM85,457h22v1h-22zM0,458h21v1h-21zM85,458h22v1h-22zM0,459h21v1h-21zM85,459h22v1h-22zM0,460h22v1h-22zM85,460h22v1h-22zM0,461h22v1h-22zM85,461h22v1h-22zM0,462h22v1h-22zM85,462h21v1h-21zM0,463h22v1h-22zM85,463h21v1h-21zM0,464h22v1h-22zM85,464h21v1h-21zM0,465h22v1h-22zM85,465h21v1h-21zM1,466h21v1h-21zM84,466h22v1h-22zM1,467h22v1h-22zM84,467h22v1h-22zM1,468h22v1h-22zM84,468h22v1h-22zM1,469h22v1h-22zM83,469h23v1h-23zM1,470h23v1h-23zM83,470h22v1h-22zM2,471h22v1h-22zM83,471h22v1h-22zM2,472h23v1h-23zM82,472h23v1h-23zM2,473h23v1h-23zM82,473h23v1h-23zM2,474h24v1h-24zM81,474h23v1h-23zM3,475h23v1h-23zM80,475h24v1h-24zM3,476h24v1h-24zM80,476h24v1h-24zM3,477h25v1h-25zM79,477h24v1h-24zM4,478h24v1h-24zM78,478h25v1h-25zM4,479h25v1h-25zM77,479h25v1h-25zM5,480h25v1h-25zM77,480h25v1h-25zM5,481h26v1h-26zM76,481h25v1h-25zM6,482h26v1h-26zM74,482h27v1h-27zM6,483h27v1h-27zM73,483h27v1h-27zM7,484h28v1h-28zM72,484h28v1h-28zM7,485h29v1h-29zM71,485h28v1h-28zM8,486h30v1h-30zM69,486h30v1h-30zM9,487h31v1h-31zM67,487h31v1h-31zM9,488h33v1h-33zM65,488h33v1h-33zM10,489h35v1h-35zM61,489h36v1h-36zM11,490h41v1h-41zM55,490h41v1h-41zM12,491h83v1h-83zM12,492h82v1h-82zM13,493h80v1h-80zM14,494h79v1h-79zM15,495h77v1h-77zM16,496h75v1h-75zM17,497h73v1h-73zM18,498h70v1h-70zM19,499h68v1h-68zM21,500h65v1h-65zM22,501h63v1h-63zM23,502h61v1h-61zM25,503h57v1h-57zM26,504h54v1h-54zM28,505h51v1h-51zM30,506h47v1h-47zM32,507h43v1h-43zM34,508h38v1h-38zM37,509h32v1h-32zM41,510h25v1h-25zM46,511h14v1h-14z" fill="#000"/>
</svg>