<?xml version="1.0" encoding="UTF-8"?>
<svg xmlns="http://www.w3.org/2000/svg" width="512" height="512" viewBox="0 0 512 512">
<path d="M28,28h456v1h-456zM21,29h470v1h-470zM18,30h476v1h-476zM16,31h480v1h-480zM14,32h484v1h-484zM12,33h488v1h-488zM11,34h490v1h-490zM10,35h492v1h-492zM9,36h494v1h-494zM8,37h496v1h-496zM7,38h498v1h-498zM6,39h500v1h-500zM5,40h502v1h-502zM5,41h502v1h-502zM4,42h504v1h-504zM3,43h25v1h-25zM484,43h25v1h-25zM3,44h20v1h-20zM489,44h20v1h-20zM2,45h20v1h-20zM490,45h20v1h-20zM2,46h18v1h-18zM492,46h18v1h-18zM2,47h17v1h-17zM493,47h17v1h-17zM1,48h17v1h-17zM494,48h17v1h-17zM1,49h16v1h-16zM495,49h16v1h-16zM1,50h16v1h-16zM495,50h16v1h-16zM1,51h15v1h-15zM496,51h15v1h-15zM0,52h16v1h-16zM496,52h16v1h-16zM0,53h16v1h-16zM496,53h16v1h-16zM0,54h15v1h-15zM497,54h15v1h-15zM0,55h15v1h-15zM361,55h8v1h-8zM434,55h8v1h-8zM497,55h15v1h-15zM0,56h15v1h-15zM357,56h16v1h-16zM430,56h16v1h-16zM497,56h15v1h-15zM0,57h15v1h-15zM354,57h22v1h-22zM427,57h22v1h-22zM497,57h15v1h-15zM0,58h15v1h-15zM352,58h26v1h-26zM425,58h26v1h-26zM497,58h15v1h-15zM0,59h15v1h-15zM351,59h28v1h-28zM424,59h28v1h-28zM497,59h15v1h-15zM0,60h15v1h-15zM349,60h32v1h-32zM422,60h32v1h-32zM497,60h15v1h-15zM0,61h15v1h-15zM348,61h34v1h-34zM421,61h34v1h-34zM497,61h15v1h-15zM0,62h15v1h-15zM347,62h36v1h-36zM420,62h36v1h-36zM497,62h15v1h-15zM0,63h15v1h-15zM346,63h38v1h-38zM419,63h38v1h-38zM497,63h15v1h-15zM0,64h15v1h-15zM345,64h40v1h-40zM418,64h40v1h-40zM497,64h15v1h-15zM0,65h15v1h-15zM344,65h41v1h-41zM417,65h41v1h-41zM497,65h15v1h-15zM0,66h15v1h-15zM344,66h42v1h-42zM417,66h42v1h-42zM497,66h15v1h-15zM0,67h15v1h-15zM343,67h44v1h-44zM416,67h44v1h-44zM497,67h15v1h-15zM0,68h15v1h-15zM342,68h45v1h-45zM415,68h45v1h-45zM497,68h15v1h-15zM0,69h15v1h-15zM342,69h46v1h-46zM415,69h46v1h-46zM497,69h15v1h-15zM0,70h15v1h-15zM341,70h21v1h-21zM368,70h20v1h-20zM414,70h21v1h-21zM441,70h20v1h-20zM497,70h15v1h-15zM0,71h15v1h-15zM341,71h19v1h-19zM370,71h19v1h-19zM414,71h19v1h-19zM443,71h19v1h-19zM497,71h15v1h-15zM0,72h15v1h-15zM341,72h17v1h-17zM372,72h17v1h-17zM414,72h17v1h-17zM445,72h17v1h-17zM497,72h15v1h-15zM0,73h15v1h-15zM53,73h253v1h-253zM340,73h17v1h-17zM373,73h17v1h-17zM413,73h17v1h-17zM446,73h17v1h-17zM497,73h15v1h-15zM0,74h15v1h-15zM50,74h259v1h-259zM340,74h16v1h-16zM373,74h17v1h-17zM413,74h16v1h-16zM446,74h17v1h-17zM497,74h15v1h-15zM0,75h15v1h-15zM49,75h261v1h-261zM340,75h16v1h-16zM374,75h16v1h-16zM413,75h16v1h-16zM447,75h16v1h-16zM497,75h15v1h-15zM0,76h15v1h-15zM48,76h263v1h-263zM340,76h15v1h-15zM375,76h15v1h-15zM413,76h15v1h-15zM448,76h15v1h-15zM497,76h15v1h-15zM0,77h15v1h-15zM48,77h264v1h-264zM339,77h16v1h-16zM375,77h15v1h-15zM412,77h16v1h-16zM448,77h15v1h-15zM497,77h15v1h-15zM0,78h15v1h-15zM47,78h265v1h-265zM339,78h15v1h-15zM375,78h15v1h-15zM412,78h15v1h-15zM448,78h15v1h-15zM497,78h15v1h-15zM0,79h15v1h-15zM47,79h265v1h-265zM339,79h15v1h-15zM375,79h16v1h-16zM412,79h15v1h-15zM448,79h16v1h-16zM497,79h15v1h-15zM0,80h15v1h-15zM47,80h265v1h-265zM339,80h15v1h-15zM376,80h15v1h-15zM412,80h15v1h-15zM449,80h15v1h-15zM497,80h15v1h-15zM0,81h15v1h-15zM47,81h265v1h-265zM339,81h15v1h-15zM376,81h15v1h-15zM412,81h15v1h-15zM449,81h15v1h-15zM497,81h15v1h-15zM0,82h15v1h-15zM47,82h265v1h-265zM339,82h15v1h-15zM375,82h16v1h-16zM412,82h15v1h-15zM448,82h16v1h-16zM497,82h15v1h-15zM0,83h15v1h-15zM47,83h265v1h-265zM339,83h16v1h-16zM375,83h15v1h-15zM412,83h16v1h-16zM448,83h15v1h-15zM497,83h15v1h-15zM0,84h15v1h-15zM48,84h263v1h-263zM339,84h16v1h-16zM375,84h15v1h-15zM412,84h16v1h-16zM448,84h15v1h-15zM497,84h15v1h-15zM0,85h15v1h-15zM49,85h262v1h-262zM340,85h15v1h-15zM374,85h16v1h-16zM413,85h15v1h-15zM448,85h15v1h-15zM497,85h15v1h-15zM0,86h15v1h-15zM49,86h261v1h-261zM340,86h16v1h-16zM374,86h16v1h-16zM413,86h16v1h-16zM447,86h16v1h-16zM497,86h15v1h-15zM0,87h15v1h-15zM51,87h257v1h-257zM340,87h17v1h-17zM373,87h17v1h-17zM413,87h17v1h-17zM446,87h17v1h-17zM497,87h15v1h-15zM0,88h15v1h-15zM340,88h17v1h-17zM372,88h17v1h-17zM413,88h17v1h-17zM445,88h17v1h-17zM497,88h15v1h-15zM0,89h15v1h-15zM341,89h18v1h-18zM371,89h18v1h-18zM414,89h18v1h-18zM444,89h18v1h-18zM497,89h15v1h-15zM0,90h15v1h-15zM341,90h19v1h-19zM369,90h20v1h-20zM414,90h19v1h-19zM442,90h20v1h-20zM497,90h15v1h-15zM0,91h15v1h-15zM342,91h22v1h-22zM365,91h23v1h-23zM415,91h22v1h-22zM438,91h23v1h-23zM497,91h15v1h-15zM0,92h15v1h-15zM342,92h46v1h-46zM415,92h46v1h-46zM497,92h15v1h-15zM0,93h15v1h-15zM343,93h44v1h-44zM416,93h44v1h-44zM497,93h15v1h-15zM0,94h15v1h-15zM343,94h44v1h-44zM416,94h44v1h-44zM497,94h15v1h-15zM0,95h15v1h-15zM344,95h42v1h-42zM417,95h42v1h-42zM497,95h15v1h-15zM0,96h15v1h-15zM345,96h40v1h-40zM418,96h40v1h-40zM497,96h15v1h-15zM0,97h15v1h-15zM345,97h39v1h-39zM418,97h39v1h-39zM497,97h15v1h-15zM0,98h15v1h-15zM346,98h38v1h-38zM419,98h38v1h-38zM497,98h15v1h-15zM0,99h15v1h-15zM347,99h36v1h-36zM420,99h36v1h-36zM497,99h15v1h-15zM0,100h15v1h-15zM348,100h33v1h-33zM421,100h33v1h-33zM497,100h15v1h-15zM0,101h15v1h-15zM350,101h30v1h-30zM423,101h30v1h-30zM497,101h15v1h-15zM0,102h15v1h-15zM351,102h28v1h-28zM424,102h28v1h-28zM497,102h15v1h-15zM0,103h15v1h-15zM353,103h24v1h-24zM426,103h24v1h-24zM497,103h15v1h-15zM0,104h15v1h-15zM355,104h20v1h-20zM428,104h20v1h-20zM497,104h15v1h-15zM0,105h15v1h-15zM358,105h14v1h-14zM431,105h14v1h-14zM497,105h15v1h-15zM0,106h15v1h-15zM364,106h2v1h-2zM437,106h2v1h-2zM497,106h15v1h-15zM0,107h15v1h-15zM497,107h15v1h-15zM0,108h15v1h-15zM497,108h15v1h-15zM0,109h15v1h-15zM497,109h15v1h-15zM0,110h15v1h-15zM497,110h15v1h-15zM0,111h15v1h-15zM497,111h15v1h-15zM0,112h15v1h-15zM497,112h15v1h-15zM0,113h15v1h-15zM497,113h15v1h-15zM0,114h15v1h-15zM497,114h15v1h-15zM0,115h15v1h-15zM497,115h15v1h-15zM0,116h15v1h-15zM497,116h15v1h-15zM0,117h15v1h-15zM497,117h15v1h-15zM0,118h37v1h-37zM68,118h444v1h-444zM0,119h39v1h-39zM66,119h446v1h-446zM0,120h40v1h-40zM64,120h448v1h-448zM0,121h41v1h-41zM64,121h448v1h-448zM0,122h41v1h-41zM63,122h449v1h-449zM0,123h42v1h-42zM63,123h449v1h-449zM0,124h42v1h-42zM62,124h450v1h-450zM0,125h42v1h-42zM62,125h450v1h-450zM0,126h42v1h-42zM62,126h450v1h-450zM0,127h42v1h-42zM63,127h449v1h-449zM0,128h42v1h-42zM63,128h449v1h-449zM0,129h41v1h-41zM63,129h449v1h-449zM0,130h40v1h-40zM64,130h448v1h-448zM0,131h39v1h-39zM65,131h447v1h-447zM0,132h38v1h-38zM67,132h445v1h-445zM0,133h15v1h-15zM497,133h15v1h-15zM0,134h15v1h-15zM497,134h15v1h-15zM0,135h15v1h-15zM497,135h15v1h-15zM0,136h15v1h-15zM497,136h15v1h-15zM0,137h15v1h-15zM497,137h15v1h-15zM0,138h15v1h-15zM497,138h15v1h-15zM0,139h15v1h-15zM497,139h15v1h-15zM0,140h15v1h-15zM497,140h15v1h-15zM0,141h15v1h-15zM497,141h15v1h-15zM0,142h15v1h-15zM497,142h15v1h-15zM0,143h15v1h-15zM497,143h15v1h-15zM0,144h15v1h-15zM497,144h15v1h-15zM0,145h15v1h-15zM497,145h15v1h-15zM0,146h15v1h-15zM497,146h15v1h-15zM0,147h15v1h-15zM497,147h15v1h-15zM0,148h15v1h-15zM497,148h15v1h-15zM0,149h15v1h-15zM497,149h15v1h-15zM0,150h15v1h-15zM497,150h15v1h-15zM0,151h15v1h-15zM497,151h15v1h-15zM0,152h15v1h-15zM497,152h15v1h-15zM0,153h15v1h-15zM497,153h15v1h-15zM0,154h15v1h-15zM497,154h15v1h-15zM0,155h15v1h-15zM497,155h15v1h-15zM0,156h15v1h-15zM497,156h15v1h-15zM0,157h15v1h-15zM497,157h15v1h-15zM0,158h15v1h-15zM497,158h15v1h-15zM0,159h15v1h-15zM497,159h15v1h-15zM0,160h15v1h-15zM497,160h15v1h-15zM0,161h15v1h-15zM497,161h15v1h-15zM0,162h15v1h-15zM497,162h15v1h-15zM0,163h15v1h-15zM497,163h15v1h-15zM0,164h15v1h-15zM497,164h15v1h-15zM0,165h15v1h-15zM497,165h15v1h-15zM0,166h15v1h-15zM497,166h15v1h-15zM0,167h15v1h-15zM497,167h15v1h-15zM0,168h15v1h-15zM497,168h15v1h-15zM0,169h15v1h-15zM497,169h15v1h-15zM0,170h15v1h-15zM497,170h15v1h-15zM0,171h15v1h-15zM497,171h15v1h-15zM0,172h15v1h-15zM497,172h15v1h-15zM0,173h15v1h-15zM497,173h15v1h-15zM0,174h15v1h-15zM497,174h15v1h-15zM0,175h15v1h-15zM497,175h15v1h-15zM0,176h15v1h-15zM497,176h15v1h-15zM0,177h15v1h-15zM497,177h15v1h-15zM0,178h15v1h-15zM497,178h15v1h-15zM0,179h15v1h-15zM497,179h15v1h-15zM0,180h15v1h-15zM497,180h15v1h-15zM0,181h15v1h-15zM497,181h15v1h-15zM0,182h15v1h-15zM497,182h15v1h-15zM0,183h15v1h-15zM497,183h15v1h-15zM0,184h15v1h-15zM497,184h15v1h-15zM0,185h15v1h-15zM497,185h15v1h-15zM0,186h15v1h-15zM497,186h15v1h-15zM0,187h15v1h-15zM497,187h15v1h-15zM0,188h15v1h-15zM497,188h15v1h-15zM0,189h15v1h-15zM497,189h15v1h-15zM0,190h15v1h-15zM497,190h15v1h-15zM0,191h15v1h-15zM497,191h15v1h-15zM0,192h15v1h-15zM497,192h15v1h-15zM0,193h15v1h-15zM138,193h26v1h-26zM331,193h11v1h-11zM497,193h15v1h-15zM0,194h15v1h-15zM135,194h32v1h-32zM328,194h17v1h-17zM497,194h15v1h-15zM0,195h15v1h-15zM134,195h34v1h-34zM326,195h21v1h-21zM497,195h15v1h-15zM0,196h15v1h-15zM132,196h37v1h-37zM324,196h25v1h-25zM497,196h15v1h-15zM0,197h15v1h-15zM132,197h38v1h-38zM323,197h27v1h-27zM497,197h15v1h-15zM0,198h15v1h-15zM131,198h40v1h-40zM322,198h30v1h-30zM497,198h15v1h-15zM0,199h15v1h-15zM130,199h42v1h-42zM321,199h32v1h-32zM497,199h15v1h-15zM0,200h15v1h-15zM130,200h42v1h-42zM320,200h34v1h-34zM497,200h15v1h-15zM0,201h15v1h-15zM129,201h44v1h-44zM319,201h35v1h-35zM497,201h15v1h-15zM0,202h15v1h-15zM129,202h44v1h-44zM318,202h37v1h-37zM497,202h15v1h-15zM0,203h15v1h-15zM128,203h45v1h-45zM318,203h38v1h-38zM497,203h15v1h-15zM0,204h15v1h-15zM128,204h46v1h-46zM317,204h39v1h-39zM497,204h15v1h-15zM0,205h15v1h-15zM128,205h46v1h-46zM317,205h40v1h-40zM497,205h15v1h-15zM0,206h15v1h-15zM128,206h46v1h-46zM316,206h41v1h-41zM497,206h15v1h-15zM0,207h15v1h-15zM128,207h46v1h-46zM316,207h42v1h-42zM497,207h15v1h-15zM0,208h15v1h-15zM128,208h15v1h-15zM159,208h15v1h-15zM316,208h18v1h-18zM340,208h18v1h-18zM497,208h15v1h-15zM0,209h15v1h-15zM128,209h15v1h-15zM159,209h15v1h-15zM315,209h17v1h-17zM341,209h17v1h-17zM497,209h15v1h-15zM0,210h15v1h-15zM128,210h15v1h-15zM159,210h15v1h-15zM315,210h16v1h-16zM342,210h16v1h-16zM497,210h15v1h-15zM0,211h15v1h-15zM126,211h17v1h-17zM159,211h17v1h-17zM315,211h16v1h-16zM343,211h16v1h-16zM497,211h15v1h-15zM0,212h15v1h-15zM123,212h20v1h-20zM159,212h20v1h-20zM315,212h15v1h-15zM343,212h16v1h-16zM497,212h15v1h-15zM0,213h15v1h-15zM91,213h2v1h-2zM120,213h23v1h-23zM159,213h23v1h-23zM209,213h2v1h-2zM315,213h15v1h-15zM344,213h15v1h-15zM497,213h15v1h-15zM0,214h15v1h-15zM87,214h10v1h-10zM117,214h26v1h-26zM159,214h26v1h-26zM205,214h10v1h-10zM315,214h15v1h-15zM344,214h15v1h-15zM497,214h15v1h-15zM0,215h15v1h-15zM85,215h14v1h-14zM115,215h28v1h-28zM159,215h28v1h-28zM203,215h14v1h-14zM298,215h32v1h-32zM344,215h118v1h-118zM497,215h15v1h-15zM0,216h15v1h-15zM83,216h18v1h-18zM113,216h29v1h-29zM160,216h29v1h-29zM201,216h18v1h-18zM297,216h33v1h-33zM344,216h120v1h-120zM497,216h15v1h-15zM0,217h15v1h-15zM82,217h20v1h-20zM111,217h31v1h-31zM160,217h31v1h-31zM200,217h20v1h-20zM296,217h34v1h-34zM344,217h121v1h-121zM497,217h15v1h-15zM0,218h15v1h-15zM81,218h22v1h-22zM109,218h32v1h-32zM161,218h32v1h-32zM199,218h22v1h-22zM295,218h35v1h-35zM344,218h122v1h-122zM497,218h15v1h-15zM0,219h15v1h-15zM80,219h24v1h-24zM107,219h34v1h-34zM161,219h34v1h-34zM198,219h24v1h-24zM294,219h36v1h-36zM344,219h123v1h-123zM497,219h15v1h-15zM0,220h15v1h-15zM79,220h61v1h-61zM162,220h61v1h-61zM294,220h36v1h-36zM344,220h123v1h-123zM497,220h15v1h-15zM0,221h15v1h-15zM78,221h61v1h-61zM163,221h61v1h-61zM294,221h36v1h-36zM344,221h123v1h-123zM497,221h15v1h-15zM0,222h15v1h-15zM77,222h61v1h-61zM164,222h61v1h-61zM294,222h36v1h-36zM344,222h123v1h-123zM497,222h15v1h-15zM0,223h15v1h-15zM76,223h61v1h-61zM165,223h61v1h-61zM294,223h36v1h-36zM344,223h123v1h-123zM497,223h15v1h-15zM0,224h15v1h-15zM75,224h60v1h-60zM167,224h60v1h-60zM294,224h36v1h-36zM344,224h123v1h-123zM497,224h15v1h-15zM0,225h15v1h-15zM74,225h58v1h-58zM170,225h58v1h-58zM294,225h36v1h-36zM344,225h123v1h-123zM497,225h15v1h-15zM0,226h15v1h-15zM73,226h55v1h-55zM174,226h55v1h-55zM295,226h35v1h-35zM344,226h122v1h-122zM497,226h15v1h-15zM0,227h15v1h-15zM72,227h54v1h-54zM177,227h53v1h-53zM296,227h34v1h-34zM344,227h121v1h-121zM497,227h15v1h-15zM0,228h15v1h-15zM71,228h52v1h-52zM179,228h52v1h-52zM297,228h33v1h-33zM344,228h120v1h-120zM497,228h15v1h-15zM0,229h15v1h-15zM70,229h21v1h-21zM93,229h27v1h-27zM182,229h27v1h-27zM211,229h21v1h-21zM299,229h31v1h-31zM344,229h118v1h-118zM497,229h15v1h-15zM0,230h15v1h-15zM69,230h21v1h-21zM94,230h24v1h-24zM184,230h24v1h-24zM212,230h21v1h-21zM315,230h15v1h-15zM344,230h15v1h-15zM497,230h15v1h-15zM0,231h15v1h-15zM68,231h21v1h-21zM95,231h21v1h-21zM186,231h21v1h-21zM213,231h21v1h-21zM315,231h15v1h-15zM344,231h15v1h-15zM497,231h15v1h-15zM0,232h15v1h-15zM68,232h20v1h-20zM96,232h18v1h-18zM188,232h18v1h-18zM214,232h20v1h-20zM315,232h15v1h-15zM343,232h16v1h-16zM497,232h15v1h-15zM0,233h15v1h-15zM67,233h20v1h-20zM97,233h16v1h-16zM189,233h16v1h-16zM215,233h20v1h-20zM315,233h16v1h-16zM342,233h16v1h-16zM497,233h15v1h-15zM0,234h15v1h-15zM67,234h19v1h-19zM99,234h12v1h-12zM191,234h12v1h-12zM216,234h19v1h-19zM315,234h17v1h-17zM342,234h16v1h-16zM497,234h15v1h-15zM0,235h15v1h-15zM66,235h19v1h-19zM102,235h6v1h-6zM194,235h6v1h-6zM217,235h19v1h-19zM316,235h17v1h-17zM340,235h18v1h-18zM497,235h15v1h-15zM0,236h15v1h-15zM66,236h18v1h-18zM218,236h18v1h-18zM316,236h42v1h-42zM497,236h15v1h-15zM0,237h15v1h-15zM66,237h17v1h-17zM219,237h17v1h-17zM316,237h41v1h-41zM497,237h15v1h-15zM0,238h15v1h-15zM66,238h16v1h-16zM220,238h16v1h-16zM317,238h40v1h-40zM497,238h15v1h-15zM0,239h15v1h-15zM65,239h16v1h-16zM221,239h16v1h-16zM317,239h39v1h-39zM497,239h15v1h-15zM0,240h15v1h-15zM65,240h16v1h-16zM221,240h16v1h-16zM318,240h38v1h-38zM497,240h15v1h-15zM0,241h15v1h-15zM66,241h16v1h-16zM220,241h16v1h-16zM318,241h37v1h-37zM497,241h15v1h-15zM0,242h15v1h-15zM66,242h17v1h-17zM219,242h17v1h-17zM319,242h35v1h-35zM497,242h15v1h-15zM0,243h15v1h-15zM66,243h18v1h-18zM218,243h18v1h-18zM320,243h34v1h-34zM497,243h15v1h-15zM0,244h15v1h-15zM66,244h19v1h-19zM145,244h12v1h-12zM217,244h19v1h-19zM321,244h32v1h-32zM497,244h15v1h-15zM0,245h15v1h-15zM67,245h19v1h-19zM139,245h24v1h-24zM216,245h19v1h-19zM322,245h30v1h-30zM497,245h15v1h-15zM0,246h15v1h-15zM67,246h19v1h-19zM135,246h32v1h-32zM216,246h19v1h-19zM323,246h28v1h-28zM497,246h15v1h-15zM0,247h15v1h-15zM68,247h19v1h-19zM132,247h38v1h-38zM215,247h19v1h-19zM324,247h25v1h-25zM497,247h15v1h-15zM0,248h15v1h-15zM68,248h19v1h-19zM130,248h42v1h-42zM215,248h19v1h-19zM326,248h22v1h-22zM497,248h15v1h-15zM0,249h15v1h-15zM69,249h18v1h-18zM127,249h48v1h-48zM214,249h19v1h-19zM328,249h18v1h-18zM497,249h15v1h-15zM0,250h15v1h-15zM70,250h18v1h-18zM125,250h52v1h-52zM214,250h18v1h-18zM331,250h12v1h-12zM497,250h15v1h-15zM0,251h15v1h-15zM71,251h17v1h-17zM124,251h54v1h-54zM214,251h17v1h-17zM497,251h15v1h-15zM0,252h15v1h-15zM72,252h16v1h-16zM122,252h58v1h-58zM214,252h16v1h-16zM497,252h15v1h-15zM0,253h15v1h-15zM72,253h16v1h-16zM120,253h62v1h-62zM214,253h16v1h-16zM497,253h15v1h-15zM0,254h15v1h-15zM72,254h16v1h-16zM119,254h64v1h-64zM214,254h16v1h-16zM497,254h15v1h-15zM0,255h15v1h-15zM71,255h17v1h-17zM118,255h66v1h-66zM214,255h17v1h-17zM497,255h15v1h-15zM0,256h15v1h-15zM71,256h16v1h-16zM116,256h70v1h-70zM215,256h16v1h-16zM497,256h15v1h-15zM0,257h15v1h-15zM70,257h17v1h-17zM115,257h72v1h-72zM215,257h17v1h-17zM497,257h15v1h-15zM0,258h15v1h-15zM70,258h17v1h-17zM114,258h74v1h-74zM215,258h17v1h-17zM497,258h15v1h-15zM0,259h15v1h-15zM69,259h17v1h-17zM113,259h33v1h-33zM156,259h33v1h-33zM216,259h17v1h-17zM497,259h15v1h-15zM0,260h15v1h-15zM69,260h17v1h-17zM112,260h29v1h-29zM161,260h29v1h-29zM216,260h17v1h-17zM497,260h15v1h-15zM0,261h15v1h-15zM68,261h17v1h-17zM111,261h27v1h-27zM164,261h27v1h-27zM217,261h17v1h-17zM497,261h15v1h-15zM0,262h15v1h-15zM68,262h16v1h-16zM110,262h25v1h-25zM167,262h25v1h-25zM218,262h16v1h-16zM497,262h15v1h-15zM0,263h15v1h-15zM67,263h17v1h-17zM109,263h24v1h-24zM169,263h24v1h-24zM218,263h17v1h-17zM497,263h15v1h-15zM0,264h15v1h-15zM67,264h16v1h-16zM108,264h23v1h-23zM171,264h23v1h-23zM219,264h16v1h-16zM497,264h15v1h-15zM0,265h15v1h-15zM66,265h17v1h-17zM108,265h21v1h-21zM173,265h21v1h-21zM219,265h17v1h-17zM497,265h15v1h-15zM0,266h15v1h-15zM66,266h16v1h-16zM107,266h21v1h-21zM174,266h21v1h-21zM220,266h16v1h-16zM497,266h15v1h-15zM0,267h15v1h-15zM66,267h16v1h-16zM106,267h21v1h-21zM175,267h21v1h-21zM220,267h16v1h-16zM497,267h15v1h-15zM0,268h15v1h-15zM65,268h16v1h-16zM105,268h20v1h-20zM177,268h20v1h-20zM221,268h16v1h-16zM497,268h15v1h-15zM0,269h15v1h-15zM65,269h16v1h-16zM105,269h19v1h-19zM178,269h19v1h-19zM221,269h16v1h-16zM497,269h15v1h-15zM0,270h15v1h-15zM65,270h16v1h-16zM104,270h19v1h-19zM179,270h19v1h-19zM221,270h16v1h-16zM419,270h10v1h-10zM497,270h15v1h-15zM0,271h15v1h-15zM64,271h16v1h-16zM104,271h18v1h-18zM180,271h18v1h-18zM222,271h16v1h-16zM416,271h16v1h-16zM497,271h15v1h-15zM0,272h15v1h-15zM64,272h16v1h-16zM103,272h18v1h-18zM181,272h18v1h-18zM222,272h16v1h-16zM414,272h20v1h-20zM497,272h15v1h-15zM0,273h15v1h-15zM64,273h15v1h-15zM102,273h18v1h-18zM182,273h18v1h-18zM223,273h15v1h-15zM412,273h24v1h-24zM497,273h15v1h-15zM0,274h15v1h-15zM63,274h16v1h-16zM102,274h18v1h-18zM182,274h18v1h-18zM223,274h16v1h-16zM411,274h27v1h-27zM497,274h15v1h-15zM0,275h15v1h-15zM63,275h16v1h-16zM101,275h18v1h-18zM183,275h17v1h-17zM223,275h16v1h-16zM409,275h30v1h-30zM497,275h15v1h-15zM0,276h15v1h-15zM55,276h23v1h-23zM101,276h17v1h-17zM184,276h17v1h-17zM224,276h23v1h-23zM408,276h32v1h-32zM497,276h15v1h-15zM0,277h15v1h-15zM53,277h25v1h-25zM101,277h16v1h-16zM184,277h17v1h-17zM224,277h25v1h-25zM407,277h34v1h-34zM497,277h15v1h-15zM0,278h15v1h-15zM51,278h27v1h-27zM100,278h17v1h-17zM185,278h17v1h-17zM224,278h27v1h-27zM407,278h35v1h-35zM497,278h15v1h-15zM0,279h15v1h-15zM50,279h28v1h-28zM100,279h16v1h-16zM186,279h16v1h-16zM224,279h28v1h-28zM406,279h36v1h-36zM497,279h15v1h-15zM0,280h15v1h-15zM48,280h29v1h-29zM99,280h17v1h-17zM186,280h17v1h-17zM225,280h28v1h-28zM405,280h38v1h-38zM497,280h15v1h-15zM0,281h15v1h-15zM48,281h29v1h-29zM99,281h16v1h-16zM187,281h16v1h-16zM225,281h29v1h-29zM405,281h39v1h-39zM497,281h15v1h-15zM0,282h15v1h-15zM47,282h30v1h-30zM99,282h16v1h-16zM187,282h16v1h-16zM225,282h30v1h-30zM404,282h40v1h-40zM497,282h15v1h-15zM0,283h15v1h-15zM46,283h30v1h-30zM98,283h16v1h-16zM188,283h16v1h-16zM226,283h30v1h-30zM404,283h40v1h-40zM497,283h15v1h-15zM0,284h15v1h-15zM46,284h30v1h-30zM98,284h16v1h-16zM188,284h16v1h-16zM226,284h30v1h-30zM403,284h42v1h-42zM497,284h15v1h-15zM0,285h15v1h-15zM45,285h30v1h-30zM98,285h16v1h-16zM188,285h16v1h-16zM227,285h29v1h-29zM403,285h18v1h-18zM427,285h18v1h-18zM497,285h15v1h-15zM0,286h15v1h-15zM45,286h29v1h-29zM98,286h15v1h-15zM189,286h15v1h-15zM228,286h29v1h-29zM403,286h17v1h-17zM429,286h16v1h-16zM497,286h15v1h-15zM0,287h15v1h-15zM45,287h28v1h-28zM97,287h16v1h-16zM189,287h16v1h-16zM229,287h28v1h-28zM402,287h17v1h-17zM430,287h16v1h-16zM497,287h15v1h-15zM0,288h15v1h-15zM45,288h27v1h-27zM97,288h16v1h-16zM189,288h16v1h-16zM230,288h27v1h-27zM402,288h16v1h-16zM430,288h16v1h-16zM497,288h15v1h-15zM0,289h15v1h-15zM45,289h25v1h-25zM97,289h15v1h-15zM190,289h15v1h-15zM232,289h25v1h-25zM402,289h15v1h-15zM431,289h15v1h-15zM497,289h15v1h-15zM0,290h15v1h-15zM45,290h23v1h-23zM97,290h15v1h-15zM190,290h15v1h-15zM234,290h23v1h-23zM402,290h15v1h-15zM431,290h15v1h-15zM497,290h15v1h-15zM0,291h15v1h-15zM45,291h15v1h-15zM97,291h15v1h-15zM190,291h15v1h-15zM242,291h15v1h-15zM402,291h15v1h-15zM431,291h15v1h-15zM497,291h15v1h-15zM0,292h15v1h-15zM45,292h15v1h-15zM97,292h15v1h-15zM190,292h15v1h-15zM242,292h15v1h-15zM298,292h119v1h-119zM431,292h32v1h-32zM497,292h15v1h-15zM0,293h15v1h-15zM45,293h15v1h-15zM96,293h16v1h-16zM190,293h16v1h-16zM242,293h15v1h-15zM296,293h121v1h-121zM431,293h34v1h-34zM497,293h15v1h-15zM0,294h15v1h-15zM45,294h15v1h-15zM96,294h15v1h-15zM191,294h15v1h-15zM242,294h15v1h-15zM295,294h122v1h-122zM431,294h35v1h-35zM497,294h15v1h-15zM0,295h15v1h-15zM45,295h15v1h-15zM96,295h15v1h-15zM191,295h15v1h-15zM242,295h15v1h-15zM295,295h122v1h-122zM431,295h35v1h-35zM497,295h15v1h-15zM0,296h15v1h-15zM45,296h15v1h-15zM96,296h15v1h-15zM191,296h15v1h-15zM242,296h15v1h-15zM294,296h123v1h-123zM431,296h36v1h-36zM497,296h15v1h-15zM0,297h15v1h-15zM45,297h15v1h-15zM96,297h15v1h-15zM191,297h15v1h-15zM242,297h15v1h-15zM294,297h123v1h-123zM431,297h36v1h-36zM497,297h15v1h-15zM0,298h15v1h-15zM45,298h15v1h-15zM96,298h15v1h-15zM191,298h15v1h-15zM242,298h15v1h-15zM294,298h123v1h-123zM431,298h36v1h-36zM497,298h15v1h-15zM0,299h15v1h-15zM45,299h15v1h-15zM96,299h15v1h-15zM191,299h15v1h-15zM242,299h15v1h-15zM294,299h123v1h-123zM431,299h36v1h-36zM497,299h15v1h-15zM0,300h15v1h-15zM45,300h15v1h-15zM96,300h15v1h-15zM191,300h15v1h-15zM242,300h15v1h-15zM294,300h123v1h-123zM431,300h36v1h-36zM497,300h15v1h-15zM0,301h15v1h-15zM45,301h15v1h-15zM96,301h15v1h-15zM191,301h15v1h-15zM242,301h15v1h-15zM294,301h123v1h-123zM431,301h36v1h-36zM497,301h15v1h-15zM0,302h15v1h-15zM45,302h15v1h-15zM96,302h15v1h-15zM191,302h15v1h-15zM242,302h15v1h-15zM294,302h123v1h-123zM431,302h35v1h-35zM497,302h15v1h-15zM0,303h15v1h-15zM45,303h15v1h-15zM96,303h15v1h-15zM191,303h15v1h-15zM242,303h15v1h-15zM295,303h122v1h-122zM431,303h35v1h-35zM497,303h15v1h-15zM0,304h15v1h-15zM45,304h15v1h-15zM96,304h16v1h-16zM190,304h16v1h-16zM242,304h15v1h-15zM296,304h121v1h-121zM431,304h34v1h-34zM497,304h15v1h-15zM0,305h15v1h-15zM45,305h15v1h-15zM97,305h15v1h-15zM190,305h15v1h-15zM242,305h15v1h-15zM297,305h120v1h-120zM431,305h33v1h-33zM497,305h15v1h-15zM0,306h15v1h-15zM45,306h15v1h-15zM97,306h15v1h-15zM190,306h15v1h-15zM242,306h15v1h-15zM299,306h118v1h-118zM431,306h30v1h-30zM497,306h15v1h-15zM0,307h15v1h-15zM45,307h23v1h-23zM97,307h15v1h-15zM190,307h15v1h-15zM234,307h23v1h-23zM402,307h15v1h-15zM431,307h15v1h-15zM497,307h15v1h-15zM0,308h15v1h-15zM45,308h25v1h-25zM97,308h15v1h-15zM190,308h15v1h-15zM232,308h25v1h-25zM402,308h15v1h-15zM431,308h15v1h-15zM497,308h15v1h-15zM0,309h15v1h-15zM45,309h27v1h-27zM97,309h16v1h-16zM189,309h16v1h-16zM230,309h27v1h-27zM402,309h16v1h-16zM430,309h16v1h-16zM497,309h15v1h-15zM0,310h15v1h-15zM45,310h28v1h-28zM97,310h16v1h-16zM189,310h16v1h-16zM229,310h28v1h-28zM402,310h16v1h-16zM430,310h16v1h-16zM497,310h15v1h-15zM0,311h15v1h-15zM45,311h29v1h-29zM98,311h15v1h-15zM189,311h15v1h-15zM228,311h29v1h-29zM403,311h16v1h-16zM429,311h17v1h-17zM497,311h15v1h-15zM0,312h15v1h-15zM46,312h29v1h-29zM98,312h16v1h-16zM188,312h16v1h-16zM227,312h29v1h-29zM403,312h17v1h-17zM428,312h17v1h-17zM497,312h15v1h-15zM0,313h15v1h-15zM46,313h30v1h-30zM98,313h16v1h-16zM188,313h16v1h-16zM226,313h30v1h-30zM403,313h42v1h-42zM497,313h15v1h-15zM0,314h15v1h-15zM46,314h30v1h-30zM98,314h16v1h-16zM188,314h16v1h-16zM226,314h30v1h-30zM403,314h42v1h-42zM497,314h15v1h-15zM0,315h15v1h-15zM47,315h30v1h-30zM99,315h16v1h-16zM187,315h16v1h-16zM225,315h30v1h-30zM404,315h40v1h-40zM497,315h15v1h-15zM0,316h15v1h-15zM48,316h29v1h-29zM99,316h16v1h-16zM187,316h16v1h-16zM225,316h29v1h-29zM404,316h40v1h-40zM497,316h15v1h-15zM0,317h15v1h-15zM48,317h29v1h-29zM99,317h17v1h-17zM186,317h17v1h-17zM225,317h28v1h-28zM405,317h38v1h-38zM497,317h15v1h-15zM0,318h15v1h-15zM50,318h28v1h-28zM100,318h16v1h-16zM186,318h16v1h-16zM224,318h28v1h-28zM406,318h37v1h-37zM497,318h15v1h-15zM0,319h15v1h-15zM51,319h27v1h-27zM100,319h17v1h-17zM185,319h17v1h-17zM224,319h27v1h-27zM406,319h36v1h-36zM497,319h15v1h-15zM0,320h15v1h-15zM53,320h25v1h-25zM101,320h16v1h-16zM184,320h17v1h-17zM224,320h25v1h-25zM407,320h34v1h-34zM497,320h15v1h-15zM0,321h15v1h-15zM55,321h23v1h-23zM101,321h17v1h-17zM184,321h17v1h-17zM224,321h23v1h-23zM408,321h32v1h-32zM497,321h15v1h-15zM0,322h15v1h-15zM63,322h16v1h-16zM101,322h18v1h-18zM183,322h17v1h-17zM223,322h16v1h-16zM409,322h30v1h-30zM497,322h15v1h-15zM0,323h15v1h-15zM63,323h16v1h-16zM102,323h18v1h-18zM182,323h18v1h-18zM223,323h16v1h-16zM410,323h28v1h-28zM497,323h15v1h-15zM0,324h15v1h-15zM64,324h15v1h-15zM102,324h18v1h-18zM182,324h18v1h-18zM223,324h15v1h-15zM411,324h26v1h-26zM498,324h13v1h-13zM0,325h15v1h-15zM64,325h16v1h-16zM103,325h18v1h-18zM181,325h18v1h-18zM222,325h16v1h-16zM413,325h22v1h-22zM499,325h11v1h-11zM0,326h15v1h-15zM64,326h16v1h-16zM104,326h18v1h-18zM180,326h18v1h-18zM222,326h16v1h-16zM415,326h18v1h-18zM499,326h11v1h-11zM0,327h15v1h-15zM65,327h16v1h-16zM104,327h19v1h-19zM179,327h19v1h-19zM221,327h16v1h-16zM418,327h13v1h-13zM501,327h7v1h-7zM0,328h15v1h-15zM65,328h16v1h-16zM105,328h19v1h-19zM178,328h19v1h-19zM221,328h16v1h-16zM0,329h15v1h-15zM65,329h16v1h-16zM105,329h20v1h-20zM177,329h20v1h-20zM221,329h16v1h-16zM0,330h15v1h-15zM66,330h16v1h-16zM106,330h21v1h-21zM175,330h21v1h-21zM220,330h16v1h-16zM0,331h15v1h-15zM66,331h16v1h-16zM107,331h21v1h-21zM174,331h21v1h-21zM220,331h16v1h-16zM0,332h15v1h-15zM66,332h17v1h-17zM108,332h21v1h-21zM172,332h22v1h-22zM219,332h17v1h-17zM0,333h15v1h-15zM67,333h16v1h-16zM108,333h23v1h-23zM171,333h23v1h-23zM219,333h16v1h-16zM0,334h15v1h-15zM67,334h17v1h-17zM109,334h24v1h-24zM169,334h24v1h-24zM218,334h17v1h-17zM0,335h15v1h-15zM68,335h16v1h-16zM110,335h25v1h-25zM167,335h25v1h-25zM218,335h16v1h-16zM0,336h15v1h-15zM68,336h17v1h-17zM111,336h27v1h-27zM164,336h27v1h-27zM217,336h17v1h-17zM0,337h15v1h-15zM69,337h17v1h-17zM112,337h29v1h-29zM161,337h29v1h-29zM216,337h17v1h-17zM0,338h15v1h-15zM69,338h17v1h-17zM113,338h33v1h-33zM156,338h33v1h-33zM216,338h17v1h-17zM0,339h15v1h-15zM70,339h17v1h-17zM114,339h74v1h-74zM215,339h17v1h-17zM0,340h15v1h-15zM70,340h17v1h-17zM115,340h72v1h-72zM215,340h17v1h-17zM0,341h15v1h-15zM71,341h16v1h-16zM116,341h70v1h-70zM215,341h16v1h-16zM0,342h15v1h-15zM71,342h17v1h-17zM118,342h66v1h-66zM214,342h17v1h-17zM0,343h15v1h-15zM72,343h16v1h-16zM119,343h64v1h-64zM214,343h16v1h-16zM0,344h15v1h-15zM72,344h16v1h-16zM120,344h62v1h-62zM214,344h16v1h-16zM0,345h15v1h-15zM72,345h16v1h-16zM122,345h58v1h-58zM214,345h16v1h-16zM0,346h15v1h-15zM71,346h17v1h-17zM124,346h54v1h-54zM214,346h17v1h-17zM0,347h15v1h-15zM70,347h18v1h-18zM125,347h52v1h-52zM214,347h18v1h-18zM331,347h12v1h-12zM0,348h15v1h-15zM69,348h18v1h-18zM128,348h47v1h-47zM214,348h19v1h-19zM328,348h18v1h-18zM0,349h15v1h-15zM68,349h19v1h-19zM130,349h42v1h-42zM215,349h19v1h-19zM326,349h22v1h-22zM501,349h7v1h-7zM0,350h15v1h-15zM68,350h19v1h-19zM132,350h38v1h-38zM215,350h19v1h-19zM324,350h25v1h-25zM500,350h9v1h-9zM0,351h15v1h-15zM67,351h19v1h-19zM135,351h32v1h-32zM216,351h19v1h-19zM323,351h28v1h-28zM499,351h11v1h-11zM0,352h15v1h-15zM67,352h19v1h-19zM139,352h24v1h-24zM216,352h19v1h-19zM322,352h30v1h-30zM498,352h13v1h-13zM0,353h15v1h-15zM66,353h19v1h-19zM145,353h12v1h-12zM217,353h19v1h-19zM321,353h32v1h-32zM497,353h15v1h-15zM0,354h15v1h-15zM66,354h18v1h-18zM218,354h18v1h-18zM320,354h34v1h-34zM497,354h15v1h-15zM0,355h15v1h-15zM66,355h17v1h-17zM219,355h17v1h-17zM319,355h35v1h-35zM497,355h15v1h-15zM0,356h15v1h-15zM66,356h16v1h-16zM220,356h16v1h-16zM318,356h37v1h-37zM497,356h15v1h-15zM0,357h15v1h-15zM65,357h16v1h-16zM221,357h16v1h-16zM318,357h38v1h-38zM497,357h15v1h-15zM0,358h15v1h-15zM65,358h16v1h-16zM221,358h16v1h-16zM317,358h39v1h-39zM497,358h15v1h-15zM0,359h15v1h-15zM66,359h16v1h-16zM220,359h16v1h-16zM317,359h40v1h-40zM497,359h15v1h-15zM0,360h15v1h-15zM66,360h17v1h-17zM219,360h17v1h-17zM316,360h41v1h-41zM497,360h15v1h-15zM0,361h15v1h-15zM66,361h18v1h-18zM218,361h18v1h-18zM316,361h42v1h-42zM497,361h15v1h-15zM0,362h15v1h-15zM66,362h19v1h-19zM102,362h6v1h-6zM194,362h6v1h-6zM217,362h19v1h-19zM316,362h17v1h-17zM340,362h18v1h-18zM497,362h15v1h-15zM0,363h15v1h-15zM67,363h19v1h-19zM99,363h12v1h-12zM191,363h12v1h-12zM216,363h19v1h-19zM315,363h17v1h-17zM342,363h16v1h-16zM497,363h15v1h-15zM0,364h15v1h-15zM67,364h20v1h-20zM97,364h16v1h-16zM189,364h16v1h-16zM215,364h20v1h-20zM315,364h16v1h-16zM342,364h16v1h-16zM497,364h15v1h-15zM0,365h15v1h-15zM68,365h20v1h-20zM96,365h18v1h-18zM188,365h18v1h-18zM214,365h20v1h-20zM315,365h15v1h-15zM343,365h16v1h-16zM497,365h15v1h-15zM0,366h15v1h-15zM68,366h21v1h-21zM95,366h21v1h-21zM186,366h21v1h-21zM213,366h21v1h-21zM315,366h15v1h-15zM344,366h15v1h-15zM497,366h15v1h-15zM0,367h15v1h-15zM69,367h21v1h-21zM94,367h24v1h-24zM184,367h24v1h-24zM212,367h21v1h-21zM315,367h15v1h-15zM344,367h15v1h-15zM497,367h15v1h-15zM0,368h15v1h-15zM70,368h21v1h-21zM93,368h28v1h-28zM182,368h27v1h-27zM211,368h21v1h-21zM301,368h29v1h-29zM344,368h116v1h-116zM497,368h15v1h-15zM0,369h15v1h-15zM71,369h52v1h-52zM179,369h52v1h-52zM297,369h33v1h-33zM344,369h120v1h-120zM497,369h15v1h-15zM0,370h15v1h-15zM72,370h54v1h-54zM177,370h53v1h-53zM296,370h34v1h-34zM344,370h121v1h-121zM497,370h15v1h-15zM0,371h15v1h-15zM73,371h55v1h-55zM174,371h55v1h-55zM295,371h35v1h-35zM344,371h122v1h-122zM497,371h15v1h-15zM0,372h15v1h-15zM74,372h58v1h-58zM170,372h58v1h-58zM294,372h36v1h-36zM344,372h122v1h-122zM497,372h15v1h-15zM0,373h15v1h-15zM75,373h60v1h-60zM167,373h60v1h-60zM294,373h36v1h-36zM344,373h123v1h-123zM497,373h15v1h-15zM0,374h15v1h-15zM76,374h61v1h-61zM165,374h61v1h-61zM294,374h36v1h-36zM344,374h123v1h-123zM497,374h15v1h-15zM0,375h15v1h-15zM77,375h61v1h-61zM164,375h61v1h-61zM294,375h36v1h-36zM344,375h123v1h-123zM497,375h15v1h-15zM0,376h15v1h-15zM78,376h61v1h-61zM163,376h61v1h-61zM294,376h36v1h-36zM344,376h123v1h-123zM497,376h15v1h-15zM0,377h15v1h-15zM79,377h61v1h-61zM162,377h61v1h-61zM294,377h36v1h-36zM344,377h123v1h-123zM497,377h15v1h-15zM0,378h15v1h-15zM80,378h24v1h-24zM107,378h34v1h-34zM161,378h34v1h-34zM198,378h24v1h-24zM294,378h36v1h-36zM344,378h123v1h-123zM497,378h15v1h-15zM0,379h15v1h-15zM81,379h22v1h-22zM109,379h32v1h-32zM161,379h32v1h-32zM199,379h22v1h-22zM295,379h35v1h-35zM344,379h122v1h-122zM497,379h15v1h-15zM0,380h15v1h-15zM82,380h20v1h-20zM111,380h31v1h-31zM160,380h31v1h-31zM200,380h20v1h-20zM295,380h35v1h-35zM344,380h122v1h-122zM497,380h15v1h-15zM0,381h15v1h-15zM83,381h18v1h-18zM113,381h29v1h-29zM160,381h29v1h-29zM201,381h18v1h-18zM296,381h34v1h-34zM344,381h121v1h-121zM497,381h15v1h-15zM0,382h15v1h-15zM85,382h14v1h-14zM115,382h28v1h-28zM159,382h28v1h-28zM203,382h14v1h-14zM298,382h32v1h-32zM344,382h119v1h-119zM497,382h15v1h-15zM0,383h15v1h-15zM87,383h10v1h-10zM117,383h26v1h-26zM159,383h26v1h-26zM205,383h10v1h-10zM314,383h16v1h-16zM344,383h15v1h-15zM497,383h15v1h-15zM0,384h15v1h-15zM91,384h2v1h-2zM120,384h23v1h-23zM159,384h23v1h-23zM209,384h2v1h-2zM315,384h15v1h-15zM344,384h15v1h-15zM497,384h15v1h-15zM0,385h15v1h-15zM123,385h20v1h-20zM159,385h20v1h-20zM315,385h15v1h-15zM343,385h16v1h-16zM497,385h15v1h-15zM0,386h15v1h-15zM126,386h17v1h-17zM159,386h17v1h-17zM315,386h16v1h-16zM343,386h16v1h-16zM497,386h15v1h-15zM0,387h15v1h-15zM128,387h15v1h-15zM159,387h15v1h-15zM315,387h16v1h-16zM342,387h16v1h-16zM497,387h15v1h-15zM0,388h15v1h-15zM128,388h15v1h-15zM159,388h15v1h-15zM315,388h17v1h-17zM341,388h17v1h-17zM497,388h15v1h-15zM0,389h15v1h-15zM128,389h15v1h-15zM159,389h15v1h-15zM316,389h18v1h-18zM340,389h18v1h-18zM497,389h15v1h-15zM0,390h15v1h-15zM128,390h46v1h-46zM316,390h42v1h-42zM497,390h15v1h-15zM0,391h15v1h-15zM128,391h46v1h-46zM316,391h41v1h-41zM497,391h15v1h-15zM0,392h15v1h-15zM128,392h46v1h-46zM317,392h40v1h-40zM497,392h15v1h-15zM0,393h15v1h-15zM128,393h46v1h-46zM317,393h39v1h-39zM497,393h15v1h-15zM0,394h15v1h-15zM128,394h45v1h-45zM318,394h38v1h-38zM497,394h15v1h-15zM0,395h15v1h-15zM129,395h44v1h-44zM318,395h37v1h-37zM497,395h15v1h-15zM0,396h15v1h-15zM129,396h44v1h-44zM319,396h35v1h-35zM497,396h15v1h-15zM0,397h15v1h-15zM130,397h42v1h-42zM320,397h34v1h-34zM497,397h15v1h-15zM0,398h15v1h-15zM130,398h42v1h-42zM321,398h32v1h-32zM497,398h15v1h-15zM0,399h15v1h-15zM131,399h40v1h-40zM322,399h30v1h-30zM497,399h15v1h-15zM0,400h15v1h-15zM132,400h38v1h-38zM323,400h27v1h-27zM497,400h15v1h-15zM0,401h15v1h-15zM132,401h37v1h-37zM325,401h24v1h-24zM497,401h15v1h-15zM0,402h15v1h-15zM134,402h34v1h-34zM326,402h21v1h-21zM497,402h15v1h-15zM0,403h15v1h-15zM135,403h32v1h-32zM328,403h17v1h-17zM497,403h15v1h-15zM0,404h15v1h-15zM138,404h26v1h-26zM331,404h11v1h-11zM497,404h15v1h-15zM0,405h15v1h-15zM497,405h15v1h-15zM0,406h15v1h-15zM497,406h15v1h-15zM0,407h15v1h-15zM497,407h15v1h-15zM0,408h15v1h-15zM497,408h15v1h-15zM0,409h15v1h-15zM497,409h15v1h-15zM0,410h15v1h-15zM497,410h15v1h-15zM0,411h15v1h-15zM497,411h15v1h-15zM0,412h15v1h-15zM497,412h15v1h-15zM0,413h15v1h-15zM497,413h15v1h-15zM0,414h15v1h-15zM497,414h15v1h-15zM0,415h15v1h-15zM497,415h15v1h-15zM0,416h15v1h-15zM497,416h15v1h-15zM0,417h15v1h-15zM497,417h15v1h-15zM0,418h15v1h-15zM497,418h15v1h-15zM0,419h15v1h-15zM497,419h15v1h-15zM0,420h15v1h-15zM497,420h15v1h-15zM0,421h15v1h-15zM497,421h15v1h-15zM0,422h15v1h-15zM497,422h15v1h-15zM0,423h15v1h-15zM497,423h15v1h-15zM0,424h15v1h-15zM497,424h15v1h-15zM0,425h15v1h-15zM497,425h15v1h-15zM0,426h15v1h-15zM497,426h15v1h-15zM0,427h15v1h-15zM497,427h15v1h-15zM0,428h15v1h-15zM497,428h15v1h-15zM0,429h15v1h-15zM497,429h15v1h-15zM0,430h15v1h-15zM497,430h15v1h-15zM0,431h15v1h-15zM497,431h15v1h-15zM0,432h15v1h-15zM497,432h15v1h-15zM0,433h15v1h-15zM497,433h15v1h-15zM0,434h15v1h-15zM497,434h15v1h-15zM0,435h15v1h-15zM497,435h15v1h-15zM0,436h15v1h-15zM497,436h15v1h-15zM0,437h15v1h-15zM497,437h15v1h-15zM0,438h15v1h-15zM497,438h15v1h-15zM0,439h15v1h-15zM497,439h15v1h-15zM0,440h15v1h-15zM497,440h15v1h-15zM0,441h15v1h-15zM497,441h15v1h-15zM0,442h15v1h-15zM497,442h15v1h-15zM0,443h15v1h-15zM497,443h15v1h-15zM0,444h15v1h-15zM497,444h15v1h-15zM0,445h15v1h-15zM497,445h15v1h-15zM0,446h15v1h-15zM497,446h15v1h-15zM0,447h15v1h-15zM497,447h15v1h-15zM0,448h15v1h-15zM497,448h15v1h-15zM0,449h15v1h-15zM497,449h15v1h-15zM0,450h15v1h-15zM497,450h15v1h-15zM0,451h15v1h-15zM497,451h15v1h-15zM0,452h15v1h-15zM497,452h15v1h-15zM0,453h15v1h-15zM497,453h15v1h-15zM0,454h15v1h-15zM497,454h15v1h-15zM0,455h15v1h-15zM497,455h15v1h-15zM0,456h15v1h-15zM497,456h15v1h-15zM0,457h15v1h-15zM497,457h15v1h-15zM0,458h16v1h-16zM496,458h16v1h-16zM0,459h16v1h-16zM496,459h16v1h-16zM1,460h15v1h-15zM496,460h15v1h-15zM1,461h16v1h-16zM495,461h16v1h-16zM1,462h16v1h-16zM495,462h16v1h-16zM1,463h17v1h-17zM494,463h17v1h-17zM2,464h17v1h-17zM493,464h17v1h-17zM2,465h18v1h-18zM492,465h18v1h-18zM2,466h20v1h-20zM490,466h20v1h-20zM3,467h20v1h-20zM489,467h20v1h-20zM3,468h25v1h-25zM484,468h25v1h-25zM4,469h504v1h-504zM5,470h502v1h-502zM5,471h502v1h-502zM6,472h500v1h-500zM7,473h498v1h-498zM8,474h496v1h-496zM9,475h494v1h-494zM10,476h492v1h-492zM11,477h490v1h-490zM12,478h488v1h-488zM14,479h484v1h-484zM16,480h480v1h-480zM18,481h476v1h-476zM21,482h470v1h-470zM28,483h456v1h-456z" fill="#000"/>
</svg>