<?xml version="1.0" encoding="UTF-8"?>
<svg xmlns="http://www.w3.org/2000/svg" width="512" height="512" viewBox="0 0 512 512">
<path d="M191,0h130v1h-130zM185,1h142v1h-142zM182,2h148v1h-148zM179,3h154v1h-154zM177,4h158v1h-158zM175,5h162v1h-162zM173,6h166v1h-166zM171,7h170v1h-170zM170,8h172v1h-172zM169,9h174v1h-174zM167,10h178v1h-178zM166,11h180v1h-180zM165,12h182v1h-182zM164,13h184v1h-184zM163,14h186v1h-186zM162,15h188v1h-188zM161,16h190v1h-190zM161,17h190v1h-190zM160,18h192v1h-192zM159,19h194v1h-194zM158,20h196v1h-196zM158,21h196v1h-196zM157,22h198v1h-198zM157,23h198v1h-198zM156,24h200v1h-200zM156,25h200v1h-200zM155,26h202v1h-202zM155,27h202v1h-202zM154,28h204v1h-204zM154,29h204v1h-204zM154,30h38v1h-38zM320,30h38v1h-38zM153,31h37v1h-37zM322,31h37v1h-37zM153,32h35v1h-35zM324,32h35v1h-35zM153,33h33v1h-33zM326,33h33v1h-33zM152,34h33v1h-33zM327,34h33v1h-33zM152,35h32v1h-32zM328,35h32v1h-32zM152,36h32v1h-32zM328,36h32v1h-32zM152,37h31v1h-31zM329,37h31v1h-31zM152,38h31v1h-31zM329,38h31v1h-31zM152,39h30v1h-30zM330,39h30v1h-30zM151,40h31v1h-31zM330,40h31v1h-31zM151,41h30v1h-30zM331,41h30v1h-30zM151,42h30v1h-30zM331,42h30v1h-30zM151,43h30v1h-30zM331,43h30v1h-30zM151,44h30v1h-30zM331,44h30v1h-30zM151,45h30v1h-30zM331,45h30v1h-30zM151,46h30v1h-30zM331,46h30v1h-30zM151,47h30v1h-30zM331,47h30v1h-30zM151,48h30v1h-30zM331,48h30v1h-30zM151,49h30v1h-30zM331,49h30v1h-30zM151,50h30v1h-30zM331,50h30v1h-30zM151,51h30v1h-30zM331,51h30v1h-30zM151,52h30v1h-30zM331,52h30v1h-30zM151,53h30v1h-30zM331,53h30v1h-30zM151,54h30v1h-30zM331,54h30v1h-30zM151,55h30v1h-30zM331,55h30v1h-30zM151,56h30v1h-30zM331,56h30v1h-30zM151,57h30v1h-30zM331,57h30v1h-30zM151,58h30v1h-30zM331,58h30v1h-30zM151,59h30v1h-30zM331,59h30v1h-30zM71,60h370v1h-370zM65,61h382v1h-382zM62,62h388v1h-388zM59,63h394v1h-394zM57,64h398v1h-398zM55,65h402v1h-402zM53,66h406v1h-406zM51,67h410v1h-410zM50,68h412v1h-412zM49,69h414v1h-414zM47,70h418v1h-418zM46,71h420v1h-420zM45,72h422v1h-422zM44,73h424v1h-424zM43,74h426v1h-426zM42,75h428v1h-428zM41,76h430v1h-430zM41,77h430v1h-430zM40,78h432v1h-432zM39,79h434v1h-434zM38,80h436v1h-436zM38,81h436v1h-436zM37,82h438v1h-438zM37,83h438v1h-438zM36,84h440v1h-440zM36,85h440v1h-440zM35,86h442v1h-442zM35,87h442v1h-442zM34,88h444v1h-444zM34,89h444v1h-444zM34,90h38v1h-38zM440,90h38v1h-38zM33,91h37v1h-37zM442,91h37v1h-37zM33,92h35v1h-35zM444,92h35v1h-35zM33,93h33v1h-33zM446,93h33v1h-33zM32,94h33v1h-33zM447,94h33v1h-33zM32,95h32v1h-32zM448,95h32v1h-32zM32,96h32v1h-32zM448,96h32v1h-32zM32,97h31v1h-31zM449,97h31v1h-31zM32,98h31v1h-31zM449,98h31v1h-31zM32,99h30v1h-30zM450,99h30v1h-30zM31,100h31v1h-31zM450,100h31v1h-31zM31,101h30v1h-30zM451,101h30v1h-30zM31,102h30v1h-30zM451,102h30v1h-30zM31,103h30v1h-30zM451,103h30v1h-30zM31,104h30v1h-30zM451,104h30v1h-30zM31,105h30v1h-30zM451,105h30v1h-30zM31,106h30v1h-30zM451,106h30v1h-30zM31,107h30v1h-30zM451,107h30v1h-30zM31,108h30v1h-30zM451,108h30v1h-30zM31,109h31v1h-31zM450,109h31v1h-31zM31,110h31v1h-31zM450,110h31v1h-31zM32,111h31v1h-31zM449,111h31v1h-31zM32,112h31v1h-31zM449,112h31v1h-31zM32,113h32v1h-32zM448,113h32v1h-32zM32,114h32v1h-32zM448,114h32v1h-32zM32,115h33v1h-33zM447,115h33v1h-33zM33,116h33v1h-33zM446,116h33v1h-33zM33,117h35v1h-35zM444,117h35v1h-35zM33,118h37v1h-37zM442,118h37v1h-37zM33,119h39v1h-39zM440,119h39v1h-39zM34,120h444v1h-444zM34,121h444v1h-444zM35,122h442v1h-442zM35,123h442v1h-442zM36,124h440v1h-440zM36,125h440v1h-440zM37,126h438v1h-438zM37,127h438v1h-438zM38,128h436v1h-436zM38,129h436v1h-436zM39,130h434v1h-434zM40,131h432v1h-432zM40,132h432v1h-432zM41,133h430v1h-430zM42,134h428v1h-428zM43,135h426v1h-426zM44,136h424v1h-424zM45,137h422v1h-422zM46,138h420v1h-420zM47,139h418v1h-418zM48,140h416v1h-416zM50,141h412v1h-412zM51,142h410v1h-410zM53,143h406v1h-406zM55,144h402v1h-402zM57,145h398v1h-398zM59,146h394v1h-394zM61,147h390v1h-390zM62,148h388v1h-388zM62,149h388v1h-388zM62,150h30v1h-30zM420,150h30v1h-30zM62,151h30v1h-30zM420,151h30v1h-30zM62,152h30v1h-30zM420,152h30v1h-30zM62,153h31v1h-31zM419,153h31v1h-31zM63,154h30v1h-30zM419,154h30v1h-30zM63,155h30v1h-30zM419,155h30v1h-30zM63,156h30v1h-30zM419,156h30v1h-30zM63,157h30v1h-30zM419,157h30v1h-30zM63,158h30v1h-30zM419,158h30v1h-30zM63,159h30v1h-30zM419,159h30v1h-30zM63,160h30v1h-30zM419,160h30v1h-30zM63,161h30v1h-30zM419,161h30v1h-30zM63,162h30v1h-30zM419,162h30v1h-30zM63,163h30v1h-30zM419,163h30v1h-30zM63,164h30v1h-30zM419,164h30v1h-30zM63,165h31v1h-31zM418,165h31v1h-31zM64,166h30v1h-30zM418,166h30v1h-30zM64,167h30v1h-30zM418,167h30v1h-30zM64,168h30v1h-30zM418,168h30v1h-30zM64,169h30v1h-30zM418,169h30v1h-30zM64,170h30v1h-30zM418,170h30v1h-30zM64,171h30v1h-30zM418,171h30v1h-30zM64,172h30v1h-30zM418,172h30v1h-30zM64,173h30v1h-30zM418,173h30v1h-30zM64,174h30v1h-30zM418,174h30v1h-30zM64,175h30v1h-30zM418,175h30v1h-30zM64,176h30v1h-30zM418,176h30v1h-30zM64,177h31v1h-31zM417,177h31v1h-31zM65,178h30v1h-30zM417,178h30v1h-30zM65,179h30v1h-30zM417,179h30v1h-30zM65,180h30v1h-30zM162,180h8v1h-8zM252,180h8v1h-8zM342,180h8v1h-8zM417,180h30v1h-30zM65,181h30v1h-30zM160,181h12v1h-12zM250,181h12v1h-12zM340,181h12v1h-12zM417,181h30v1h-30zM65,182h30v1h-30zM158,182h16v1h-16zM248,182h16v1h-16zM338,182h16v1h-16zM417,182h30v1h-30zM65,183h30v1h-30zM156,183h20v1h-20zM246,183h20v1h-20zM336,183h20v1h-20zM417,183h30v1h-30zM65,184h30v1h-30zM155,184h22v1h-22zM245,184h22v1h-22zM335,184h22v1h-22zM417,184h30v1h-30zM65,185h30v1h-30zM154,185h24v1h-24zM244,185h24v1h-24zM334,185h24v1h-24zM417,185h30v1h-30zM65,186h30v1h-30zM154,186h24v1h-24zM244,186h24v1h-24zM334,186h24v1h-24zM417,186h30v1h-30zM65,187h30v1h-30zM153,187h26v1h-26zM243,187h26v1h-26zM333,187h26v1h-26zM417,187h30v1h-30zM65,188h30v1h-30zM153,188h26v1h-26zM243,188h26v1h-26zM333,188h26v1h-26zM417,188h30v1h-30zM65,189h31v1h-31zM152,189h28v1h-28zM242,189h28v1h-28zM332,189h28v1h-28zM416,189h31v1h-31zM66,190h30v1h-30zM152,190h28v1h-28zM242,190h28v1h-28zM332,190h28v1h-28zM416,190h30v1h-30zM66,191h30v1h-30zM151,191h30v1h-30zM241,191h30v1h-30zM331,191h30v1h-30zM416,191h30v1h-30zM66,192h30v1h-30zM151,192h30v1h-30zM241,192h30v1h-30zM331,192h30v1h-30zM416,192h30v1h-30zM66,193h30v1h-30zM151,193h30v1h-30zM241,193h30v1h-30zM331,193h30v1h-30zM416,193h30v1h-30zM66,194h30v1h-30zM151,194h30v1h-30zM241,194h30v1h-30zM331,194h30v1h-30zM416,194h30v1h-30zM66,195h30v1h-30zM151,195h30v1h-30zM241,195h30v1h-30zM331,195h30v1h-30zM416,195h30v1h-30zM66,196h30v1h-30zM151,196h30v1h-30zM241,196h30v1h-30zM331,196h30v1h-30zM416,196h30v1h-30zM66,197h30v1h-30zM151,197h30v1h-30zM241,197h30v1h-30zM331,197h30v1h-30zM416,197h30v1h-30zM66,198h30v1h-30zM151,198h30v1h-30zM241,198h30v1h-30zM331,198h30v1h-30zM416,198h30v1h-30zM66,199h30v1h-30zM151,199h30v1h-30zM241,199h30v1h-30zM331,199h30v1h-30zM416,199h30v1h-30zM66,200h30v1h-30zM151,200h30v1h-30zM241,200h30v1h-30zM331,200h30v1h-30zM416,200h30v1h-30zM66,201h31v1h-31zM151,201h30v1h-30zM241,201h30v1h-30zM331,201h30v1h-30zM415,201h31v1h-31zM67,202h30v1h-30zM151,202h30v1h-30zM241,202h30v1h-30zM331,202h30v1h-30zM415,202h30v1h-30zM67,203h30v1h-30zM152,203h30v1h-30zM241,203h30v1h-30zM330,203h30v1h-30zM415,203h30v1h-30zM67,204h30v1h-30zM152,204h30v1h-30zM241,204h30v1h-30zM330,204h30v1h-30zM415,204h30v1h-30zM67,205h30v1h-30zM152,205h30v1h-30zM241,205h30v1h-30zM330,205h30v1h-30zM415,205h30v1h-30zM67,206h30v1h-30zM152,206h30v1h-30zM241,206h30v1h-30zM330,206h30v1h-30zM415,206h30v1h-30zM67,207h30v1h-30zM152,207h30v1h-30zM241,207h30v1h-30zM330,207h30v1h-30zM415,207h30v1h-30zM67,208h30v1h-30zM152,208h30v1h-30zM241,208h30v1h-30zM330,208h30v1h-30zM415,208h30v1h-30zM67,209h30v1h-30zM152,209h30v1h-30zM241,209h30v1h-30zM330,209h30v1h-30zM415,209h30v1h-30zM67,210h30v1h-30zM152,210h30v1h-30zM241,210h30v1h-30zM330,210h30v1h-30zM415,210h30v1h-30zM67,211h30v1h-30zM152,211h30v1h-30zM241,211h30v1h-30zM330,211h30v1h-30zM415,211h30v1h-30zM67,212h30v1h-30zM152,212h30v1h-30zM241,212h30v1h-30zM330,212h30v1h-30zM415,212h30v1h-30zM67,213h31v1h-31zM152,213h30v1h-30zM241,213h30v1h-30zM330,213h30v1h-30zM414,213h31v1h-31zM68,214h30v1h-30zM152,214h30v1h-30zM241,214h30v1h-30zM330,214h30v1h-30zM414,214h30v1h-30zM68,215h30v1h-30zM152,215h30v1h-30zM241,215h30v1h-30zM330,215h30v1h-30zM414,215h30v1h-30zM68,216h30v1h-30zM152,216h30v1h-30zM241,216h30v1h-30zM330,216h30v1h-30zM414,216h30v1h-30zM68,217h30v1h-30zM152,217h30v1h-30zM241,217h30v1h-30zM330,217h30v1h-30zM414,217h30v1h-30zM68,218h30v1h-30zM152,218h30v1h-30zM241,218h30v1h-30zM330,218h30v1h-30zM414,218h30v1h-30zM68,219h30v1h-30zM152,219h31v1h-31zM241,219h30v1h-30zM329,219h31v1h-31zM414,219h30v1h-30zM68,220h30v1h-30zM153,220h30v1h-30zM241,220h30v1h-30zM329,220h30v1h-30zM414,220h30v1h-30zM68,221h30v1h-30zM153,221h30v1h-30zM241,221h30v1h-30zM329,221h30v1h-30zM414,221h30v1h-30zM68,222h30v1h-30zM153,222h30v1h-30zM241,222h30v1h-30zM329,222h30v1h-30zM414,222h30v1h-30zM68,223h30v1h-30zM153,223h30v1h-30zM241,223h30v1h-30zM329,223h30v1h-30zM414,223h30v1h-30zM68,224h30v1h-30zM153,224h30v1h-30zM241,224h30v1h-30zM329,224h30v1h-30zM414,224h30v1h-30zM68,225h31v1h-31zM153,225h30v1h-30zM241,225h30v1h-30zM329,225h30v1h-30zM413,225h31v1h-31zM69,226h30v1h-30zM153,226h30v1h-30zM241,226h30v1h-30zM329,226h30v1h-30zM413,226h30v1h-30zM69,227h30v1h-30zM153,227h30v1h-30zM241,227h30v1h-30zM329,227h30v1h-30zM413,227h30v1h-30zM69,228h30v1h-30zM153,228h30v1h-30zM241,228h30v1h-30zM329,228h30v1h-30zM413,228h30v1h-30zM69,229h30v1h-30zM153,229h30v1h-30zM241,229h30v1h-30zM329,229h30v1h-30zM413,229h30v1h-30zM69,230h30v1h-30zM153,230h30v1h-30zM241,230h30v1h-30zM329,230h30v1h-30zM413,230h30v1h-30zM69,231h30v1h-30zM153,231h30v1h-30zM241,231h30v1h-30zM329,231h30v1h-30zM413,231h30v1h-30zM69,232h30v1h-30zM153,232h30v1h-30zM241,232h30v1h-30zM329,232h30v1h-30zM413,232h30v1h-30zM69,233h30v1h-30zM153,233h30v1h-30zM241,233h30v1h-30zM329,233h30v1h-30zM413,233h30v1h-30zM69,234h30v1h-30zM153,234h30v1h-30zM241,234h30v1h-30zM329,234h30v1h-30zM413,234h30v1h-30zM69,235h30v1h-30zM153,235h31v1h-31zM241,235h30v1h-30zM328,235h31v1h-31zM413,235h30v1h-30zM69,236h30v1h-30zM154,236h30v1h-30zM241,236h30v1h-30zM328,236h30v1h-30zM413,236h30v1h-30zM69,237h31v1h-31zM154,237h30v1h-30zM241,237h30v1h-30zM328,237h30v1h-30zM412,237h31v1h-31zM70,238h30v1h-30zM154,238h30v1h-30zM241,238h30v1h-30zM328,238h30v1h-30zM412,238h30v1h-30zM70,239h30v1h-30zM154,239h30v1h-30zM241,239h30v1h-30zM328,239h30v1h-30zM412,239h30v1h-30zM70,240h30v1h-30zM154,240h30v1h-30zM241,240h30v1h-30zM328,240h30v1h-30zM412,240h30v1h-30zM70,241h30v1h-30zM154,241h30v1h-30zM241,241h30v1h-30zM328,241h30v1h-30zM412,241h30v1h-30zM70,242h30v1h-30zM154,242h30v1h-30zM241,242h30v1h-30zM328,242h30v1h-30zM412,242h30v1h-30zM70,243h30v1h-30zM154,243h30v1h-30zM241,243h30v1h-30zM328,243h30v1h-30zM412,243h30v1h-30zM70,244h30v1h-30zM154,244h30v1h-30zM241,244h30v1h-30zM328,244h30v1h-30zM412,244h30v1h-30zM70,245h30v1h-30zM154,245h30v1h-30zM241,245h30v1h-30zM328,245h30v1h-30zM412,245h30v1h-30zM70,246h30v1h-30zM154,246h30v1h-30zM241,246h30v1h-30zM328,246h30v1h-30zM412,246h30v1h-30zM70,247h30v1h-30zM154,247h30v1h-30zM241,247h30v1h-30zM328,247h30v1h-30zM412,247h30v1h-30zM70,248h30v1h-30zM154,248h30v1h-30zM241,248h30v1h-30zM328,248h30v1h-30zM412,248h30v1h-30zM70,249h31v1h-31zM154,249h30v1h-30zM241,249h30v1h-30zM328,249h30v1h-30zM411,249h31v1h-31zM71,250h30v1h-30zM154,250h30v1h-30zM241,250h30v1h-30zM328,250h30v1h-30zM411,250h30v1h-30zM71,251h30v1h-30zM154,251h31v1h-31zM241,251h30v1h-30zM327,251h31v1h-31zM411,251h30v1h-30zM71,252h30v1h-30zM155,252h30v1h-30zM241,252h30v1h-30zM327,252h30v1h-30zM411,252h30v1h-30zM71,253h30v1h-30zM155,253h30v1h-30zM241,253h30v1h-30zM327,253h30v1h-30zM411,253h30v1h-30zM71,254h30v1h-30zM155,254h30v1h-30zM241,254h30v1h-30zM327,254h30v1h-30zM411,254h30v1h-30zM71,255h30v1h-30zM155,255h30v1h-30zM241,255h30v1h-30zM327,255h30v1h-30zM411,255h30v1h-30zM71,256h30v1h-30zM155,256h30v1h-30zM241,256h30v1h-30zM327,256h30v1h-30zM411,256h30v1h-30zM71,257h30v1h-30zM155,257h30v1h-30zM241,257h30v1h-30zM327,257h30v1h-30zM411,257h30v1h-30zM71,258h30v1h-30zM155,258h30v1h-30zM241,258h30v1h-30zM327,258h30v1h-30zM411,258h30v1h-30zM71,259h30v1h-30zM155,259h30v1h-30zM241,259h30v1h-30zM327,259h30v1h-30zM411,259h30v1h-30zM71,260h30v1h-30zM155,260h30v1h-30zM241,260h30v1h-30zM327,260h30v1h-30zM411,260h30v1h-30zM71,261h31v1h-31zM155,261h30v1h-30zM241,261h30v1h-30zM327,261h30v1h-30zM410,261h31v1h-31zM72,262h30v1h-30zM155,262h30v1h-30zM241,262h30v1h-30zM327,262h30v1h-30zM410,262h30v1h-30zM72,263h30v1h-30zM155,263h30v1h-30zM241,263h30v1h-30zM327,263h30v1h-30zM410,263h30v1h-30zM72,264h30v1h-30zM155,264h30v1h-30zM241,264h30v1h-30zM327,264h30v1h-30zM410,264h30v1h-30zM72,265h30v1h-30zM155,265h30v1h-30zM241,265h30v1h-30zM327,265h30v1h-30zM410,265h30v1h-30zM72,266h30v1h-30zM155,266h30v1h-30zM241,266h30v1h-30zM327,266h30v1h-30zM410,266h30v1h-30zM72,267h30v1h-30zM155,267h31v1h-31zM241,267h30v1h-30zM326,267h31v1h-31zM410,267h30v1h-30zM72,268h30v1h-30zM156,268h30v1h-30zM241,268h30v1h-30zM326,268h30v1h-30zM410,268h30v1h-30zM72,269h30v1h-30zM156,269h30v1h-30zM241,269h30v1h-30zM326,269h30v1h-30zM410,269h30v1h-30zM72,270h30v1h-30zM156,270h30v1h-30zM241,270h30v1h-30zM326,270h30v1h-30zM410,270h30v1h-30zM72,271h30v1h-30zM156,271h30v1h-30zM241,271h30v1h-30zM326,271h30v1h-30zM410,271h30v1h-30zM72,272h30v1h-30zM156,272h30v1h-30zM241,272h30v1h-30zM326,272h30v1h-30zM410,272h30v1h-30zM72,273h31v1h-31zM156,273h30v1h-30zM241,273h30v1h-30zM326,273h30v1h-30zM409,273h31v1h-31zM72,274h31v1h-31zM156,274h30v1h-30zM241,274h30v1h-30zM326,274h30v1h-30zM409,274h31v1h-31zM73,275h30v1h-30zM156,275h30v1h-30zM241,275h30v1h-30zM326,275h30v1h-30zM409,275h30v1h-30zM73,276h30v1h-30zM156,276h30v1h-30zM241,276h30v1h-30zM326,276h30v1h-30zM409,276h30v1h-30zM73,277h30v1h-30zM156,277h30v1h-30zM241,277h30v1h-30zM326,277h30v1h-30zM409,277h30v1h-30zM73,278h30v1h-30zM156,278h30v1h-30zM241,278h30v1h-30zM326,278h30v1h-30zM409,278h30v1h-30zM73,279h30v1h-30zM156,279h30v1h-30zM241,279h30v1h-30zM326,279h30v1h-30zM409,279h30v1h-30zM73,280h30v1h-30zM156,280h30v1h-30zM241,280h30v1h-30zM326,280h30v1h-30zM409,280h30v1h-30zM73,281h30v1h-30zM156,281h30v1h-30zM241,281h30v1h-30zM326,281h30v1h-30zM409,281h30v1h-30zM73,282h30v1h-30zM156,282h30v1h-30zM241,282h30v1h-30zM326,282h30v1h-30zM409,282h30v1h-30zM73,283h30v1h-30zM156,283h31v1h-31zM241,283h30v1h-30zM325,283h31v1h-31zM409,283h30v1h-30zM73,284h30v1h-30zM157,284h30v1h-30zM241,284h30v1h-30zM325,284h30v1h-30zM409,284h30v1h-30zM73,285h31v1h-31zM157,285h30v1h-30zM241,285h30v1h-30zM325,285h30v1h-30zM408,285h31v1h-31zM73,286h31v1h-31zM157,286h30v1h-30zM241,286h30v1h-30zM325,286h30v1h-30zM408,286h31v1h-31zM74,287h30v1h-30zM157,287h30v1h-30zM241,287h30v1h-30zM325,287h30v1h-30zM408,287h30v1h-30zM74,288h30v1h-30zM157,288h30v1h-30zM241,288h30v1h-30zM325,288h30v1h-30zM408,288h30v1h-30zM74,289h30v1h-30zM157,289h30v1h-30zM241,289h30v1h-30zM325,289h30v1h-30zM408,289h30v1h-30zM74,290h30v1h-30zM157,290h30v1h-30zM241,290h30v1h-30zM325,290h30v1h-30zM408,290h30v1h-30zM74,291h30v1h-30zM157,291h30v1h-30zM241,291h30v1h-30zM325,291h30v1h-30zM408,291h30v1h-30zM74,292h30v1h-30zM157,292h30v1h-30zM241,292h30v1h-30zM325,292h30v1h-30zM408,292h30v1h-30zM74,293h30v1h-30zM157,293h30v1h-30zM241,293h30v1h-30zM325,293h30v1h-30zM408,293h30v1h-30zM74,294h30v1h-30zM157,294h30v1h-30zM241,294h30v1h-30zM325,294h30v1h-30zM408,294h30v1h-30zM74,295h30v1h-30zM157,295h30v1h-30zM241,295h30v1h-30zM325,295h30v1h-30zM408,295h30v1h-30zM74,296h30v1h-30zM157,296h30v1h-30zM241,296h30v1h-30zM325,296h30v1h-30zM408,296h30v1h-30zM74,297h31v1h-31zM157,297h30v1h-30zM241,297h30v1h-30zM325,297h30v1h-30zM407,297h31v1h-31zM74,298h31v1h-31zM157,298h30v1h-30zM241,298h30v1h-30zM325,298h30v1h-30zM407,298h31v1h-31zM75,299h30v1h-30zM157,299h31v1h-31zM241,299h30v1h-30zM324,299h31v1h-31zM407,299h30v1h-30zM75,300h30v1h-30zM158,300h30v1h-30zM241,300h30v1h-30zM324,300h30v1h-30zM407,300h30v1h-30zM75,301h30v1h-30zM158,301h30v1h-30zM241,301h30v1h-30zM324,301h30v1h-30zM407,301h30v1h-30zM75,302h30v1h-30zM158,302h30v1h-30zM241,302h30v1h-30zM324,302h30v1h-30zM407,302h30v1h-30zM75,303h30v1h-30zM158,303h30v1h-30zM241,303h30v1h-30zM324,303h30v1h-30zM407,303h30v1h-30zM75,304h30v1h-30zM158,304h30v1h-30zM241,304h30v1h-30zM324,304h30v1h-30zM407,304h30v1h-30zM75,305h30v1h-30zM158,305h30v1h-30zM241,305h30v1h-30zM324,305h30v1h-30zM407,305h30v1h-30zM75,306h30v1h-30zM158,306h30v1h-30zM241,306h30v1h-30zM324,306h30v1h-30zM407,306h30v1h-30zM75,307h30v1h-30zM158,307h30v1h-30zM241,307h30v1h-30zM324,307h30v1h-30zM407,307h30v1h-30zM75,308h30v1h-30zM158,308h30v1h-30zM241,308h30v1h-30zM324,308h30v1h-30zM407,308h30v1h-30zM75,309h30v1h-30zM158,309h30v1h-30zM241,309h30v1h-30zM324,309h30v1h-30zM407,309h30v1h-30zM75,310h31v1h-31zM158,310h30v1h-30zM241,310h30v1h-30zM324,310h30v1h-30zM406,310h31v1h-31zM76,311h30v1h-30zM158,311h30v1h-30zM241,311h30v1h-30zM324,311h30v1h-30zM406,311h30v1h-30zM76,312h30v1h-30zM158,312h30v1h-30zM241,312h30v1h-30zM324,312h30v1h-30zM406,312h30v1h-30zM76,313h30v1h-30zM158,313h30v1h-30zM241,313h30v1h-30zM324,313h30v1h-30zM406,313h30v1h-30zM76,314h30v1h-30zM158,314h30v1h-30zM241,314h30v1h-30zM324,314h30v1h-30zM406,314h30v1h-30zM76,315h30v1h-30zM158,315h30v1h-30zM241,315h30v1h-30zM324,315h30v1h-30zM406,315h30v1h-30zM76,316h30v1h-30zM159,316h30v1h-30zM241,316h30v1h-30zM323,316h30v1h-30zM406,316h30v1h-30zM76,317h30v1h-30zM159,317h30v1h-30zM241,317h30v1h-30zM323,317h30v1h-30zM406,317h30v1h-30zM76,318h30v1h-30zM159,318h30v1h-30zM241,318h30v1h-30zM323,318h30v1h-30zM406,318h30v1h-30zM76,319h30v1h-30zM159,319h30v1h-30zM241,319h30v1h-30zM323,319h30v1h-30zM406,319h30v1h-30zM76,320h30v1h-30zM159,320h30v1h-30zM241,320h30v1h-30zM323,320h30v1h-30zM406,320h30v1h-30zM76,321h30v1h-30zM159,321h30v1h-30zM241,321h30v1h-30zM323,321h30v1h-30zM406,321h30v1h-30zM76,322h31v1h-31zM159,322h30v1h-30zM241,322h30v1h-30zM323,322h30v1h-30zM405,322h31v1h-31zM77,323h30v1h-30zM159,323h30v1h-30zM241,323h30v1h-30zM323,323h30v1h-30zM405,323h30v1h-30zM77,324h30v1h-30zM159,324h30v1h-30zM241,324h30v1h-30zM323,324h30v1h-30zM405,324h30v1h-30zM77,325h30v1h-30zM159,325h30v1h-30zM241,325h30v1h-30zM323,325h30v1h-30zM405,325h30v1h-30zM77,326h30v1h-30zM159,326h30v1h-30zM241,326h30v1h-30zM323,326h30v1h-30zM405,326h30v1h-30zM77,327h30v1h-30zM159,327h30v1h-30zM241,327h30v1h-30zM323,327h30v1h-30zM405,327h30v1h-30zM77,328h30v1h-30zM159,328h30v1h-30zM241,328h30v1h-30zM323,328h30v1h-30zM405,328h30v1h-30zM77,329h30v1h-30zM159,329h30v1h-30zM241,329h30v1h-30zM323,329h30v1h-30zM405,329h30v1h-30zM77,330h30v1h-30zM159,330h30v1h-30zM241,330h30v1h-30zM323,330h30v1h-30zM405,330h30v1h-30zM77,331h30v1h-30zM159,331h30v1h-30zM241,331h30v1h-30zM323,331h30v1h-30zM405,331h30v1h-30zM77,332h30v1h-30zM159,332h31v1h-31zM241,332h30v1h-30zM322,332h31v1h-31zM405,332h30v1h-30zM77,333h30v1h-30zM160,333h30v1h-30zM241,333h30v1h-30zM322,333h30v1h-30zM405,333h30v1h-30zM77,334h31v1h-31zM160,334h30v1h-30zM241,334h30v1h-30zM322,334h30v1h-30zM404,334h31v1h-31zM78,335h30v1h-30zM160,335h30v1h-30zM241,335h30v1h-30zM322,335h30v1h-30zM404,335h30v1h-30zM78,336h30v1h-30zM160,336h30v1h-30zM241,336h30v1h-30zM322,336h30v1h-30zM404,336h30v1h-30zM78,337h30v1h-30zM160,337h30v1h-30zM241,337h30v1h-30zM322,337h30v1h-30zM404,337h30v1h-30zM78,338h30v1h-30zM160,338h30v1h-30zM241,338h30v1h-30zM322,338h30v1h-30zM404,338h30v1h-30zM78,339h30v1h-30zM160,339h30v1h-30zM241,339h30v1h-30zM322,339h30v1h-30zM404,339h30v1h-30zM78,340h30v1h-30zM160,340h30v1h-30zM241,340h30v1h-30zM322,340h30v1h-30zM404,340h30v1h-30zM78,341h30v1h-30zM160,341h30v1h-30zM241,341h30v1h-30zM322,341h30v1h-30zM404,341h30v1h-30zM78,342h30v1h-30zM160,342h30v1h-30zM241,342h30v1h-30zM322,342h30v1h-30zM404,342h30v1h-30zM78,343h30v1h-30zM160,343h30v1h-30zM241,343h30v1h-30zM322,343h30v1h-30zM404,343h30v1h-30zM78,344h30v1h-30zM160,344h30v1h-30zM241,344h30v1h-30zM322,344h30v1h-30zM404,344h30v1h-30zM78,345h30v1h-30zM160,345h30v1h-30zM241,345h30v1h-30zM322,345h30v1h-30zM404,345h30v1h-30zM78,346h31v1h-31zM160,346h30v1h-30zM241,346h30v1h-30zM322,346h30v1h-30zM403,346h31v1h-31zM79,347h30v1h-30zM160,347h30v1h-30zM241,347h30v1h-30zM322,347h30v1h-30zM403,347h30v1h-30zM79,348h30v1h-30zM160,348h31v1h-31zM241,348h30v1h-30zM321,348h31v1h-31zM403,348h30v1h-30zM79,349h30v1h-30zM161,349h30v1h-30zM241,349h30v1h-30zM321,349h30v1h-30zM403,349h30v1h-30zM79,350h30v1h-30zM161,350h30v1h-30zM241,350h30v1h-30zM321,350h30v1h-30zM403,350h30v1h-30zM79,351h30v1h-30zM161,351h30v1h-30zM241,351h30v1h-30zM321,351h30v1h-30zM403,351h30v1h-30zM79,352h30v1h-30zM161,352h30v1h-30zM241,352h30v1h-30zM321,352h30v1h-30zM403,352h30v1h-30zM79,353h30v1h-30zM161,353h30v1h-30zM241,353h30v1h-30zM321,353h30v1h-30zM403,353h30v1h-30zM79,354h30v1h-30zM161,354h30v1h-30zM241,354h30v1h-30zM321,354h30v1h-30zM403,354h30v1h-30zM79,355h30v1h-30zM161,355h30v1h-30zM241,355h30v1h-30zM321,355h30v1h-30zM403,355h30v1h-30zM79,356h30v1h-30zM161,356h30v1h-30zM241,356h30v1h-30zM321,356h30v1h-30zM403,356h30v1h-30zM79,357h30v1h-30zM161,357h30v1h-30zM241,357h30v1h-30zM321,357h30v1h-30zM403,357h30v1h-30zM79,358h31v1h-31zM161,358h30v1h-30zM241,358h30v1h-30zM321,358h30v1h-30zM402,358h31v1h-31zM80,359h30v1h-30zM161,359h30v1h-30zM241,359h30v1h-30zM321,359h30v1h-30zM402,359h30v1h-30zM80,360h30v1h-30zM161,360h30v1h-30zM241,360h30v1h-30zM321,360h30v1h-30zM402,360h30v1h-30zM80,361h30v1h-30zM161,361h30v1h-30zM241,361h30v1h-30zM321,361h30v1h-30zM402,361h30v1h-30zM80,362h30v1h-30zM161,362h30v1h-30zM241,362h30v1h-30zM321,362h30v1h-30zM402,362h30v1h-30zM80,363h30v1h-30zM161,363h30v1h-30zM241,363h30v1h-30zM321,363h30v1h-30zM402,363h30v1h-30zM80,364h30v1h-30zM161,364h31v1h-31zM241,364h30v1h-30zM320,364h31v1h-31zM402,364h30v1h-30zM80,365h30v1h-30zM162,365h30v1h-30zM241,365h30v1h-30zM320,365h30v1h-30zM402,365h30v1h-30zM80,366h30v1h-30zM162,366h30v1h-30zM241,366h30v1h-30zM320,366h30v1h-30zM402,366h30v1h-30zM80,367h30v1h-30zM162,367h30v1h-30zM241,367h30v1h-30zM320,367h30v1h-30zM402,367h30v1h-30zM80,368h30v1h-30zM162,368h30v1h-30zM241,368h30v1h-30zM320,368h30v1h-30zM402,368h30v1h-30zM80,369h30v1h-30zM162,369h30v1h-30zM241,369h30v1h-30zM320,369h30v1h-30zM402,369h30v1h-30zM80,370h31v1h-31zM162,370h30v1h-30zM241,370h30v1h-30zM320,370h30v1h-30zM401,370h31v1h-31zM81,371h30v1h-30zM162,371h30v1h-30zM241,371h30v1h-30zM320,371h30v1h-30zM401,371h30v1h-30zM81,372h30v1h-30zM162,372h30v1h-30zM241,372h30v1h-30zM320,372h30v1h-30zM401,372h30v1h-30zM81,373h30v1h-30zM162,373h30v1h-30zM241,373h30v1h-30zM320,373h30v1h-30zM401,373h30v1h-30zM81,374h30v1h-30zM162,374h30v1h-30zM241,374h30v1h-30zM320,374h30v1h-30zM401,374h30v1h-30zM81,375h30v1h-30zM162,375h30v1h-30zM241,375h30v1h-30zM320,375h30v1h-30zM401,375h30v1h-30zM81,376h30v1h-30zM162,376h30v1h-30zM241,376h30v1h-30zM320,376h30v1h-30zM401,376h30v1h-30zM81,377h30v1h-30zM162,377h30v1h-30zM241,377h30v1h-30zM320,377h30v1h-30zM401,377h30v1h-30zM81,378h30v1h-30zM162,378h30v1h-30zM241,378h30v1h-30zM320,378h30v1h-30zM401,378h30v1h-30zM81,379h30v1h-30zM162,379h30v1h-30zM241,379h30v1h-30zM320,379h30v1h-30zM401,379h30v1h-30zM81,380h30v1h-30zM162,380h31v1h-31zM241,380h30v1h-30zM319,380h31v1h-31zM401,380h30v1h-30zM81,381h30v1h-30zM163,381h30v1h-30zM241,381h30v1h-30zM319,381h30v1h-30zM401,381h30v1h-30zM81,382h31v1h-31zM163,382h30v1h-30zM241,382h30v1h-30zM319,382h30v1h-30zM400,382h31v1h-31zM82,383h30v1h-30zM163,383h30v1h-30zM241,383h30v1h-30zM319,383h30v1h-30zM400,383h30v1h-30zM82,384h30v1h-30zM163,384h30v1h-30zM241,384h30v1h-30zM319,384h30v1h-30zM400,384h30v1h-30zM82,385h30v1h-30zM163,385h30v1h-30zM241,385h30v1h-30zM319,385h30v1h-30zM400,385h30v1h-30zM82,386h30v1h-30zM163,386h30v1h-30zM241,386h30v1h-30zM319,386h30v1h-30zM400,386h30v1h-30zM82,387h30v1h-30zM163,387h30v1h-30zM241,387h30v1h-30zM319,387h30v1h-30zM400,387h30v1h-30zM82,388h30v1h-30zM163,388h30v1h-30zM241,388h30v1h-30zM319,388h30v1h-30zM400,388h30v1h-30zM82,389h30v1h-30zM163,389h30v1h-30zM241,389h30v1h-30zM319,389h30v1h-30zM400,389h30v1h-30zM82,390h30v1h-30zM163,390h30v1h-30zM241,390h30v1h-30zM319,390h30v1h-30zM400,390h30v1h-30zM82,391h30v1h-30zM163,391h30v1h-30zM241,391h30v1h-30zM319,391h30v1h-30zM400,391h30v1h-30zM82,392h30v1h-30zM163,392h30v1h-30zM241,392h30v1h-30zM319,392h30v1h-30zM400,392h30v1h-30zM82,393h30v1h-30zM163,393h30v1h-30zM241,393h30v1h-30zM319,393h30v1h-30zM400,393h30v1h-30zM82,394h31v1h-31zM163,394h30v1h-30zM241,394h30v1h-30zM319,394h30v1h-30zM399,394h31v1h-31zM83,395h30v1h-30zM163,395h30v1h-30zM241,395h30v1h-30zM319,395h30v1h-30zM399,395h30v1h-30zM83,396h30v1h-30zM163,396h31v1h-31zM241,396h30v1h-30zM318,396h31v1h-31zM399,396h30v1h-30zM83,397h30v1h-30zM164,397h30v1h-30zM241,397h30v1h-30zM318,397h30v1h-30zM399,397h30v1h-30zM83,398h30v1h-30zM164,398h30v1h-30zM241,398h30v1h-30zM318,398h30v1h-30zM399,398h30v1h-30zM83,399h30v1h-30zM164,399h30v1h-30zM241,399h30v1h-30zM318,399h30v1h-30zM399,399h30v1h-30zM83,400h30v1h-30zM164,400h30v1h-30zM241,400h30v1h-30zM318,400h30v1h-30zM399,400h30v1h-30zM83,401h30v1h-30zM164,401h30v1h-30zM241,401h30v1h-30zM318,401h30v1h-30zM399,401h30v1h-30zM83,402h30v1h-30zM164,402h30v1h-30zM241,402h30v1h-30zM318,402h30v1h-30zM399,402h30v1h-30zM83,403h30v1h-30zM164,403h30v1h-30zM241,403h30v1h-30zM318,403h30v1h-30zM399,403h30v1h-30zM83,404h30v1h-30zM164,404h30v1h-30zM241,404h30v1h-30zM318,404h30v1h-30zM399,404h30v1h-30zM83,405h30v1h-30zM164,405h30v1h-30zM241,405h30v1h-30zM318,405h30v1h-30zM399,405h30v1h-30zM83,406h31v1h-31zM164,406h30v1h-30zM241,406h30v1h-30zM318,406h30v1h-30zM398,406h31v1h-31zM84,407h30v1h-30zM164,407h30v1h-30zM241,407h30v1h-30zM318,407h30v1h-30zM398,407h30v1h-30zM84,408h30v1h-30zM164,408h30v1h-30zM241,408h30v1h-30zM318,408h30v1h-30zM398,408h30v1h-30zM84,409h30v1h-30zM164,409h30v1h-30zM241,409h30v1h-30zM318,409h30v1h-30zM398,409h30v1h-30zM84,410h30v1h-30zM164,410h30v1h-30zM241,410h30v1h-30zM318,410h30v1h-30zM398,410h30v1h-30zM84,411h30v1h-30zM164,411h30v1h-30zM241,411h30v1h-30zM318,411h30v1h-30zM398,411h30v1h-30zM84,412h30v1h-30zM164,412h31v1h-31zM241,412h30v1h-30zM317,412h31v1h-31zM398,412h30v1h-30zM84,413h30v1h-30zM165,413h30v1h-30zM241,413h30v1h-30zM317,413h30v1h-30zM398,413h30v1h-30zM84,414h30v1h-30zM165,414h30v1h-30zM241,414h30v1h-30zM317,414h30v1h-30zM398,414h30v1h-30zM84,415h30v1h-30zM165,415h30v1h-30zM241,415h30v1h-30zM317,415h30v1h-30zM398,415h30v1h-30zM84,416h30v1h-30zM165,416h30v1h-30zM241,416h30v1h-30zM317,416h30v1h-30zM398,416h30v1h-30zM84,417h30v1h-30zM165,417h30v1h-30zM241,417h30v1h-30zM317,417h30v1h-30zM398,417h30v1h-30zM84,418h31v1h-31zM165,418h30v1h-30zM241,418h30v1h-30zM317,418h30v1h-30zM397,418h31v1h-31zM85,419h30v1h-30zM165,419h30v1h-30zM241,419h30v1h-30zM317,419h30v1h-30zM397,419h30v1h-30zM85,420h30v1h-30zM165,420h30v1h-30zM241,420h30v1h-30zM317,420h30v1h-30zM397,420h30v1h-30zM85,421h30v1h-30zM165,421h30v1h-30zM241,421h30v1h-30zM317,421h30v1h-30zM397,421h30v1h-30zM85,422h30v1h-30zM165,422h30v1h-30zM241,422h30v1h-30zM317,422h30v1h-30zM397,422h30v1h-30zM85,423h30v1h-30zM165,423h30v1h-30zM241,423h30v1h-30zM317,423h30v1h-30zM397,423h30v1h-30zM85,424h30v1h-30zM165,424h30v1h-30zM241,424h30v1h-30zM317,424h30v1h-30zM397,424h30v1h-30zM85,425h30v1h-30zM165,425h30v1h-30zM241,425h30v1h-30zM317,425h30v1h-30zM397,425h30v1h-30zM85,426h30v1h-30zM165,426h30v1h-30zM241,426h30v1h-30zM317,426h30v1h-30zM397,426h30v1h-30zM85,427h30v1h-30zM165,427h30v1h-30zM241,427h30v1h-30zM317,427h30v1h-30zM397,427h30v1h-30zM85,428h30v1h-30zM165,428h31v1h-31zM241,428h30v1h-30zM316,428h31v1h-31zM397,428h30v1h-30zM85,429h30v1h-30zM166,429h30v1h-30zM241,429h30v1h-30zM316,429h30v1h-30zM397,429h30v1h-30zM85,430h31v1h-31zM166,430h30v1h-30zM241,430h30v1h-30zM316,430h30v1h-30zM396,430h31v1h-31zM85,431h31v1h-31zM166,431h30v1h-30zM241,431h30v1h-30zM316,431h30v1h-30zM396,431h30v1h-30zM86,432h30v1h-30zM166,432h30v1h-30zM241,432h30v1h-30zM316,432h30v1h-30zM396,432h30v1h-30zM86,433h30v1h-30zM166,433h30v1h-30zM241,433h30v1h-30zM316,433h30v1h-30zM396,433h30v1h-30zM86,434h30v1h-30zM166,434h30v1h-30zM241,434h30v1h-30zM316,434h30v1h-30zM396,434h30v1h-30zM86,435h30v1h-30zM166,435h30v1h-30zM241,435h30v1h-30zM316,435h30v1h-30zM396,435h30v1h-30zM86,436h30v1h-30zM166,436h30v1h-30zM241,436h30v1h-30zM316,436h30v1h-30zM396,436h30v1h-30zM86,437h30v1h-30zM166,437h30v1h-30zM241,437h30v1h-30zM316,437h30v1h-30zM396,437h30v1h-30zM86,438h30v1h-30zM166,438h30v1h-30zM241,438h30v1h-30zM316,438h30v1h-30zM396,438h30v1h-30zM86,439h30v1h-30zM166,439h30v1h-30zM241,439h30v1h-30zM316,439h30v1h-30zM396,439h30v1h-30zM86,440h30v1h-30zM166,440h30v1h-30zM241,440h30v1h-30zM316,440h30v1h-30zM396,440h30v1h-30zM86,441h30v1h-30zM167,441h28v1h-28zM242,441h28v1h-28zM317,441h28v1h-28zM396,441h30v1h-30zM86,442h31v1h-31zM167,442h28v1h-28zM242,442h28v1h-28zM317,442h28v1h-28zM395,442h31v1h-31zM86,443h31v1h-31zM168,443h26v1h-26zM243,443h26v1h-26zM318,443h26v1h-26zM395,443h31v1h-31zM87,444h30v1h-30zM168,444h26v1h-26zM243,444h26v1h-26zM318,444h26v1h-26zM395,444h30v1h-30zM87,445h30v1h-30zM169,445h24v1h-24zM244,445h24v1h-24zM319,445h24v1h-24zM395,445h30v1h-30zM87,446h30v1h-30zM169,446h24v1h-24zM244,446h24v1h-24zM319,446h24v1h-24zM395,446h30v1h-30zM87,447h30v1h-30zM170,447h22v1h-22zM245,447h22v1h-22zM320,447h22v1h-22zM395,447h30v1h-30zM87,448h30v1h-30zM171,448h20v1h-20zM246,448h20v1h-20zM321,448h20v1h-20zM395,448h30v1h-30zM87,449h30v1h-30zM173,449h16v1h-16zM248,449h16v1h-16zM323,449h16v1h-16zM395,449h30v1h-30zM87,450h30v1h-30zM175,450h12v1h-12zM250,450h12v1h-12zM325,450h12v1h-12zM395,450h30v1h-30zM87,451h30v1h-30zM177,451h8v1h-8zM252,451h8v1h-8zM327,451h8v1h-8zM395,451h30v1h-30zM87,452h30v1h-30zM395,452h30v1h-30zM87,453h30v1h-30zM395,453h30v1h-30zM87,454h31v1h-31zM394,454h31v1h-31zM87,455h31v1h-31zM394,455h31v1h-31zM88,456h30v1h-30zM394,456h30v1h-30zM88,457h30v1h-30zM394,457h30v1h-30zM88,458h30v1h-30zM394,458h30v1h-30zM88,459h30v1h-30zM394,459h30v1h-30zM88,460h30v1h-30zM394,460h30v1h-30zM88,461h30v1h-30zM394,461h30v1h-30zM88,462h30v1h-30zM394,462h30v1h-30zM88,463h30v1h-30zM394,463h30v1h-30zM88,464h30v1h-30zM394,464h30v1h-30zM88,465h30v1h-30zM394,465h30v1h-30zM88,466h31v1h-31zM393,466h31v1h-31zM88,467h31v1h-31zM393,467h31v1h-31zM89,468h30v1h-30zM393,468h30v1h-30zM89,469h30v1h-30zM393,469h30v1h-30zM89,470h30v1h-30zM393,470h30v1h-30zM89,471h30v1h-30zM393,471h30v1h-30zM89,472h31v1h-31zM392,472h31v1h-31zM89,473h31v1h-31zM392,473h31v1h-31zM89,474h32v1h-32zM391,474h32v1h-32zM90,475h31v1h-31zM391,475h31v1h-31zM90,476h32v1h-32zM390,476h32v1h-32zM90,477h33v1h-33zM389,477h33v1h-33zM90,478h34v1h-34zM388,478h34v1h-34zM90,479h35v1h-35zM387,479h35v1h-35zM91,480h36v1h-36zM385,480h36v1h-36zM91,481h39v1h-39zM382,481h39v1h-39zM92,482h328v1h-328zM92,483h328v1h-328zM92,484h328v1h-328zM93,485h326v1h-326zM93,486h326v1h-326zM94,487h324v1h-324zM94,488h324v1h-324zM95,489h322v1h-322zM96,490h320v1h-320zM96,491h320v1h-320zM97,492h318v1h-318zM97,493h318v1h-318zM98,494h316v1h-316zM99,495h314v1h-314zM100,496h312v1h-312zM101,497h310v1h-310zM102,498h308v1h-308zM103,499h306v1h-306zM104,500h304v1h-304zM105,501h302v1h-302zM106,502h300v1h-300zM108,503h296v1h-296zM109,504h294v1h-294zM111,505h290v1h-290zM113,506h286v1h-286zM115,507h282v1h-282zM116,508h280v1h-280zM119,509h274v1h-274zM123,510h266v1h-266zM128,511h256v1h-256z" fill="#000"/>
</svg>