<?xml version="1.0" encoding="UTF-8"?>
<svg xmlns="http://www.w3.org/2000/svg" width="512" height="512" viewBox="0 0 512 512">
<path d="M196,2h242v1h-242zM191,3h252v1h-252zM189,4h255v1h-255zM188,5h258v1h-258zM187,6h260v1h-260zM186,7h262v1h-262zM185,8h264v1h-264zM185,9h265v1h-265zM184,10h267v1h-267zM184,11h268v1h-268zM184,12h269v1h-269zM183,13h271v1h-271zM183,14h272v1h-272zM183,15h273v1h-273zM183,16h274v1h-274zM183,17h16v1h-16zM426,17h32v1h-32zM183,18h15v1h-15zM427,18h32v1h-32zM183,19h15v1h-15zM427,19h33v1h-33zM183,20h15v1h-15zM427,20h35v1h-35zM183,21h15v1h-15zM427,21h36v1h-36zM183,22h15v1h-15zM427,22h37v1h-37zM183,23h15v1h-15zM427,23h15v1h-15zM443,23h22v1h-22zM183,24h15v1h-15zM427,24h15v1h-15zM444,24h22v1h-22zM183,25h15v1h-15zM427,25h15v1h-15zM445,25h22v1h-22zM183,26h15v1h-15zM427,26h15v1h-15zM446,26h22v1h-22zM183,27h15v1h-15zM427,27h15v1h-15zM447,27h22v1h-22zM183,28h15v1h-15zM427,28h15v1h-15zM448,28h22v1h-22zM183,29h15v1h-15zM427,29h15v1h-15zM449,29h22v1h-22zM183,30h15v1h-15zM427,30h15v1h-15zM450,30h22v1h-22zM183,31h15v1h-15zM427,31h15v1h-15zM451,31h22v1h-22zM183,32h15v1h-15zM427,32h15v1h-15zM452,32h22v1h-22zM183,33h15v1h-15zM427,33h15v1h-15zM453,33h22v1h-22zM183,34h15v1h-15zM427,34h15v1h-15zM454,34h22v1h-22zM183,35h15v1h-15zM427,35h15v1h-15zM456,35h21v1h-21zM183,36h15v1h-15zM427,36h15v1h-15zM457,36h21v1h-21zM183,37h15v1h-15zM427,37h15v1h-15zM458,37h21v1h-21zM183,38h15v1h-15zM427,38h15v1h-15zM459,38h21v1h-21zM183,39h15v1h-15zM427,39h15v1h-15zM460,39h21v1h-21zM183,40h15v1h-15zM427,40h15v1h-15zM461,40h22v1h-22zM183,41h15v1h-15zM427,41h15v1h-15zM462,41h22v1h-22zM183,42h15v1h-15zM427,42h15v1h-15zM463,42h22v1h-22zM183,43h15v1h-15zM427,43h15v1h-15zM464,43h22v1h-22zM183,44h15v1h-15zM427,44h15v1h-15zM465,44h22v1h-22zM183,45h15v1h-15zM427,45h15v1h-15zM466,45h22v1h-22zM183,46h15v1h-15zM427,46h15v1h-15zM467,46h22v1h-22zM183,47h15v1h-15zM427,47h15v1h-15zM468,47h22v1h-22zM183,48h15v1h-15zM427,48h15v1h-15zM469,48h22v1h-22zM183,49h15v1h-15zM427,49h15v1h-15zM470,49h22v1h-22zM183,50h15v1h-15zM427,50h15v1h-15zM471,50h22v1h-22zM183,51h15v1h-15zM427,51h15v1h-15zM472,51h22v1h-22zM183,52h15v1h-15zM427,52h15v1h-15zM473,52h22v1h-22zM183,53h15v1h-15zM427,53h15v1h-15zM474,53h22v1h-22zM183,54h15v1h-15zM427,54h15v1h-15zM475,54h22v1h-22zM179,55h19v1h-19zM427,55h15v1h-15zM477,55h21v1h-21zM173,56h25v1h-25zM427,56h15v1h-15zM478,56h21v1h-21zM167,57h31v1h-31zM427,57h15v1h-15zM479,57h21v1h-21zM161,58h37v1h-37zM427,58h15v1h-15zM480,58h21v1h-21zM155,59h43v1h-43zM427,59h15v1h-15zM481,59h21v1h-21zM150,60h48v1h-48zM427,60h15v1h-15zM482,60h21v1h-21zM144,61h54v1h-54zM427,61h15v1h-15zM483,61h22v1h-22zM138,62h60v1h-60zM427,62h15v1h-15zM484,62h22v1h-22zM132,63h66v1h-66zM427,63h15v1h-15zM485,63h22v1h-22zM126,64h72v1h-72zM427,64h15v1h-15zM486,64h22v1h-22zM120,65h78v1h-78zM427,65h16v1h-16zM487,65h22v1h-22zM114,66h84v1h-84zM427,66h83v1h-83zM109,67h89v1h-89zM427,67h83v1h-83zM103,68h95v1h-95zM428,68h83v1h-83zM97,69h101v1h-101zM428,69h83v1h-83zM95,70h85v1h-85zM183,70h15v1h-15zM428,70h84v1h-84zM93,71h81v1h-81zM183,71h15v1h-15zM429,71h83v1h-83zM92,72h76v1h-76zM183,72h15v1h-15zM429,72h83v1h-83zM91,73h71v1h-71zM183,73h15v1h-15zM430,73h82v1h-82zM90,74h67v1h-67zM183,74h15v1h-15zM430,74h82v1h-82zM89,75h62v1h-62zM183,75h15v1h-15zM431,75h81v1h-81zM89,76h56v1h-56zM183,76h15v1h-15zM432,76h80v1h-80zM88,77h51v1h-51zM183,77h15v1h-15zM434,77h78v1h-78zM88,78h45v1h-45zM183,78h15v1h-15zM435,78h77v1h-77zM88,79h39v1h-39zM183,79h15v1h-15zM437,79h75v1h-75zM88,80h34v1h-34zM183,80h15v1h-15zM440,80h72v1h-72zM88,81h28v1h-28zM183,81h15v1h-15zM497,81h15v1h-15zM88,82h22v1h-22zM183,82h15v1h-15zM497,82h15v1h-15zM88,83h16v1h-16zM183,83h15v1h-15zM497,83h15v1h-15zM88,84h15v1h-15zM183,84h15v1h-15zM497,84h15v1h-15zM88,85h15v1h-15zM183,85h15v1h-15zM497,85h15v1h-15zM88,86h15v1h-15zM183,86h15v1h-15zM497,86h15v1h-15zM88,87h16v1h-16zM183,87h15v1h-15zM497,87h15v1h-15zM88,88h16v1h-16zM183,88h15v1h-15zM497,88h15v1h-15zM89,89h15v1h-15zM183,89h15v1h-15zM497,89h15v1h-15zM89,90h15v1h-15zM183,90h15v1h-15zM497,90h15v1h-15zM89,91h15v1h-15zM183,91h15v1h-15zM497,91h15v1h-15zM89,92h15v1h-15zM183,92h15v1h-15zM497,92h15v1h-15zM89,93h16v1h-16zM183,93h15v1h-15zM497,93h15v1h-15zM90,94h15v1h-15zM183,94h15v1h-15zM497,94h15v1h-15zM90,95h15v1h-15zM183,95h15v1h-15zM497,95h15v1h-15zM90,96h15v1h-15zM183,96h15v1h-15zM497,96h15v1h-15zM90,97h15v1h-15zM183,97h15v1h-15zM497,97h15v1h-15zM90,98h15v1h-15zM183,98h15v1h-15zM497,98h15v1h-15zM90,99h16v1h-16zM183,99h15v1h-15zM497,99h15v1h-15zM91,100h15v1h-15zM183,100h15v1h-15zM497,100h15v1h-15zM91,101h15v1h-15zM183,101h15v1h-15zM497,101h15v1h-15zM91,102h15v1h-15zM183,102h15v1h-15zM497,102h15v1h-15zM91,103h15v1h-15zM183,103h15v1h-15zM497,103h15v1h-15zM91,104h15v1h-15zM183,104h15v1h-15zM497,104h15v1h-15zM91,105h16v1h-16zM183,105h15v1h-15zM497,105h15v1h-15zM92,106h15v1h-15zM183,106h15v1h-15zM497,106h15v1h-15zM92,107h15v1h-15zM183,107h15v1h-15zM497,107h15v1h-15zM92,108h15v1h-15zM183,108h15v1h-15zM497,108h15v1h-15zM91,109h16v1h-16zM183,109h15v1h-15zM497,109h15v1h-15zM88,110h19v1h-19zM183,110h15v1h-15zM497,110h15v1h-15zM85,111h23v1h-23zM183,111h15v1h-15zM241,111h216v1h-216zM497,111h15v1h-15zM82,112h26v1h-26zM183,112h15v1h-15zM238,112h222v1h-222zM497,112h15v1h-15zM79,113h29v1h-29zM183,113h15v1h-15zM237,113h224v1h-224zM497,113h15v1h-15zM76,114h32v1h-32zM183,114h15v1h-15zM236,114h226v1h-226zM497,114h15v1h-15zM73,115h35v1h-35zM183,115h15v1h-15zM235,115h228v1h-228zM497,115h15v1h-15zM70,116h38v1h-38zM183,116h15v1h-15zM235,116h228v1h-228zM497,116h15v1h-15zM67,117h42v1h-42zM183,117h15v1h-15zM235,117h229v1h-229zM497,117h15v1h-15zM64,118h45v1h-45zM183,118h15v1h-15zM234,118h230v1h-230zM497,118h15v1h-15zM62,119h47v1h-47zM183,119h15v1h-15zM234,119h230v1h-230zM497,119h15v1h-15zM59,120h50v1h-50zM183,120h15v1h-15zM235,120h229v1h-229zM497,120h15v1h-15zM56,121h53v1h-53zM183,121h15v1h-15zM235,121h228v1h-228zM497,121h15v1h-15zM53,122h57v1h-57zM183,122h15v1h-15zM235,122h228v1h-228zM497,122h15v1h-15zM50,123h60v1h-60zM183,123h15v1h-15zM236,123h226v1h-226zM497,123h15v1h-15zM47,124h46v1h-46zM95,124h15v1h-15zM183,124h15v1h-15zM237,124h224v1h-224zM497,124h15v1h-15zM44,125h47v1h-47zM95,125h15v1h-15zM183,125h15v1h-15zM238,125h222v1h-222zM497,125h15v1h-15zM41,126h47v1h-47zM95,126h15v1h-15zM183,126h15v1h-15zM497,126h15v1h-15zM38,127h47v1h-47zM95,127h15v1h-15zM183,127h15v1h-15zM497,127h15v1h-15zM35,128h47v1h-47zM95,128h16v1h-16zM183,128h15v1h-15zM497,128h15v1h-15zM32,129h47v1h-47zM96,129h15v1h-15zM183,129h15v1h-15zM497,129h15v1h-15zM29,130h47v1h-47zM96,130h15v1h-15zM183,130h15v1h-15zM497,130h15v1h-15zM27,131h46v1h-46zM96,131h15v1h-15zM183,131h15v1h-15zM497,131h15v1h-15zM24,132h46v1h-46zM96,132h15v1h-15zM183,132h15v1h-15zM497,132h15v1h-15zM21,133h46v1h-46zM96,133h15v1h-15zM183,133h15v1h-15zM497,133h15v1h-15zM18,134h46v1h-46zM96,134h16v1h-16zM183,134h15v1h-15zM497,134h15v1h-15zM15,135h46v1h-46zM97,135h15v1h-15zM183,135h15v1h-15zM497,135h15v1h-15zM13,136h45v1h-45zM97,136h15v1h-15zM183,136h15v1h-15zM497,136h15v1h-15zM10,137h45v1h-45zM97,137h15v1h-15zM183,137h15v1h-15zM497,137h15v1h-15zM7,138h45v1h-45zM97,138h15v1h-15zM183,138h15v1h-15zM497,138h15v1h-15zM5,139h44v1h-44zM97,139h15v1h-15zM183,139h15v1h-15zM497,139h15v1h-15zM4,140h42v1h-42zM97,140h16v1h-16zM183,140h15v1h-15zM497,140h15v1h-15zM3,141h41v1h-41zM98,141h15v1h-15zM183,141h15v1h-15zM497,141h15v1h-15zM2,142h39v1h-39zM98,142h15v1h-15zM183,142h15v1h-15zM497,142h15v1h-15zM2,143h36v1h-36zM98,143h15v1h-15zM183,143h15v1h-15zM497,143h15v1h-15zM1,144h34v1h-34zM98,144h15v1h-15zM183,144h15v1h-15zM497,144h15v1h-15zM1,145h31v1h-31zM98,145h15v1h-15zM183,145h15v1h-15zM497,145h15v1h-15zM0,146h29v1h-29zM98,146h16v1h-16zM183,146h15v1h-15zM497,146h15v1h-15zM0,147h27v1h-27zM99,147h15v1h-15zM183,147h15v1h-15zM497,147h15v1h-15zM0,148h24v1h-24zM99,148h15v1h-15zM183,148h15v1h-15zM497,148h15v1h-15zM0,149h21v1h-21zM99,149h15v1h-15zM183,149h15v1h-15zM497,149h15v1h-15zM0,150h18v1h-18zM99,150h15v1h-15zM183,150h15v1h-15zM497,150h15v1h-15zM0,151h16v1h-16zM99,151h16v1h-16zM183,151h15v1h-15zM497,151h15v1h-15zM0,152h16v1h-16zM99,152h16v1h-16zM183,152h15v1h-15zM497,152h15v1h-15zM1,153h15v1h-15zM100,153h15v1h-15zM183,153h15v1h-15zM497,153h15v1h-15zM1,154h16v1h-16zM100,154h15v1h-15zM183,154h15v1h-15zM497,154h15v1h-15zM1,155h16v1h-16zM100,155h15v1h-15zM183,155h15v1h-15zM497,155h15v1h-15zM2,156h16v1h-16zM100,156h15v1h-15zM183,156h15v1h-15zM497,156h15v1h-15zM2,157h16v1h-16zM100,157h16v1h-16zM183,157h15v1h-15zM497,157h15v1h-15zM2,158h16v1h-16zM100,158h16v1h-16zM183,158h15v1h-15zM497,158h15v1h-15zM3,159h16v1h-16zM101,159h15v1h-15zM183,159h15v1h-15zM497,159h15v1h-15zM3,160h16v1h-16zM101,160h15v1h-15zM183,160h15v1h-15zM497,160h15v1h-15zM3,161h16v1h-16zM101,161h15v1h-15zM183,161h15v1h-15zM497,161h15v1h-15zM4,162h16v1h-16zM101,162h15v1h-15zM183,162h15v1h-15zM497,162h15v1h-15zM4,163h16v1h-16zM101,163h16v1h-16zM183,163h15v1h-15zM497,163h15v1h-15zM4,164h16v1h-16zM102,164h15v1h-15zM183,164h15v1h-15zM497,164h15v1h-15zM5,165h16v1h-16zM102,165h15v1h-15zM183,165h15v1h-15zM239,165h221v1h-221zM497,165h15v1h-15zM5,166h16v1h-16zM102,166h15v1h-15zM183,166h15v1h-15zM237,166h224v1h-224zM497,166h15v1h-15zM6,167h15v1h-15zM102,167h15v1h-15zM183,167h15v1h-15zM236,167h226v1h-226zM497,167h15v1h-15zM6,168h16v1h-16zM102,168h15v1h-15zM183,168h15v1h-15zM235,168h228v1h-228zM497,168h15v1h-15zM6,169h16v1h-16zM102,169h16v1h-16zM183,169h15v1h-15zM235,169h228v1h-228zM497,169h15v1h-15zM7,170h16v1h-16zM103,170h15v1h-15zM183,170h15v1h-15zM235,170h229v1h-229zM497,170h15v1h-15zM7,171h16v1h-16zM103,171h15v1h-15zM183,171h15v1h-15zM234,171h230v1h-230zM497,171h15v1h-15zM7,172h16v1h-16zM103,172h15v1h-15zM183,172h15v1h-15zM234,172h230v1h-230zM497,172h15v1h-15zM8,173h16v1h-16zM103,173h15v1h-15zM183,173h15v1h-15zM235,173h229v1h-229zM497,173h15v1h-15zM8,174h16v1h-16zM103,174h15v1h-15zM183,174h15v1h-15zM235,174h228v1h-228zM497,174h15v1h-15zM8,175h16v1h-16zM103,175h16v1h-16zM183,175h15v1h-15zM235,175h228v1h-228zM497,175h15v1h-15zM9,176h16v1h-16zM104,176h15v1h-15zM183,176h15v1h-15zM236,176h226v1h-226zM497,176h15v1h-15zM9,177h16v1h-16zM104,177h15v1h-15zM183,177h15v1h-15zM237,177h225v1h-225zM497,177h15v1h-15zM9,178h16v1h-16zM104,178h15v1h-15zM183,178h15v1h-15zM238,178h222v1h-222zM497,178h15v1h-15zM10,179h16v1h-16zM104,179h15v1h-15zM183,179h15v1h-15zM240,179h218v1h-218zM497,179h15v1h-15zM10,180h16v1h-16zM104,180h15v1h-15zM183,180h15v1h-15zM497,180h15v1h-15zM11,181h16v1h-16zM104,181h16v1h-16zM183,181h15v1h-15zM497,181h15v1h-15zM11,182h16v1h-16zM105,182h15v1h-15zM183,182h15v1h-15zM497,182h15v1h-15zM11,183h16v1h-16zM105,183h15v1h-15zM183,183h15v1h-15zM497,183h15v1h-15zM12,184h16v1h-16zM105,184h15v1h-15zM183,184h15v1h-15zM497,184h15v1h-15zM12,185h16v1h-16zM105,185h15v1h-15zM183,185h15v1h-15zM497,185h15v1h-15zM12,186h16v1h-16zM105,186h16v1h-16zM183,186h15v1h-15zM497,186h15v1h-15zM13,187h16v1h-16zM105,187h16v1h-16zM183,187h15v1h-15zM497,187h15v1h-15zM13,188h16v1h-16zM106,188h15v1h-15zM183,188h15v1h-15zM497,188h15v1h-15zM13,189h16v1h-16zM106,189h15v1h-15zM183,189h15v1h-15zM497,189h15v1h-15zM14,190h16v1h-16zM106,190h15v1h-15zM183,190h15v1h-15zM497,190h15v1h-15zM14,191h16v1h-16zM106,191h15v1h-15zM183,191h15v1h-15zM497,191h15v1h-15zM15,192h15v1h-15zM106,192h16v1h-16zM183,192h15v1h-15zM497,192h15v1h-15zM15,193h16v1h-16zM106,193h16v1h-16zM183,193h15v1h-15zM497,193h15v1h-15zM15,194h16v1h-16zM107,194h15v1h-15zM183,194h15v1h-15zM497,194h15v1h-15zM16,195h16v1h-16zM107,195h15v1h-15zM183,195h15v1h-15zM497,195h15v1h-15zM16,196h16v1h-16zM107,196h15v1h-15zM183,196h15v1h-15zM497,196h15v1h-15zM16,197h16v1h-16zM107,197h15v1h-15zM183,197h15v1h-15zM497,197h15v1h-15zM17,198h16v1h-16zM107,198h16v1h-16zM183,198h15v1h-15zM497,198h15v1h-15zM17,199h16v1h-16zM108,199h15v1h-15zM183,199h15v1h-15zM497,199h15v1h-15zM17,200h16v1h-16zM108,200h15v1h-15zM183,200h15v1h-15zM497,200h15v1h-15zM18,201h16v1h-16zM108,201h15v1h-15zM183,201h15v1h-15zM497,201h15v1h-15zM18,202h16v1h-16zM108,202h15v1h-15zM183,202h15v1h-15zM497,202h15v1h-15zM18,203h16v1h-16zM108,203h15v1h-15zM183,203h15v1h-15zM497,203h15v1h-15zM19,204h16v1h-16zM108,204h16v1h-16zM183,204h15v1h-15zM497,204h15v1h-15zM19,205h16v1h-16zM109,205h15v1h-15zM183,205h15v1h-15zM497,205h15v1h-15zM20,206h16v1h-16zM109,206h15v1h-15zM183,206h15v1h-15zM497,206h15v1h-15zM20,207h16v1h-16zM109,207h15v1h-15zM183,207h15v1h-15zM497,207h15v1h-15zM20,208h16v1h-16zM109,208h15v1h-15zM183,208h15v1h-15zM497,208h15v1h-15zM21,209h16v1h-16zM109,209h15v1h-15zM183,209h15v1h-15zM497,209h15v1h-15zM21,210h16v1h-16zM109,210h16v1h-16zM183,210h15v1h-15zM497,210h15v1h-15zM21,211h16v1h-16zM110,211h15v1h-15zM183,211h15v1h-15zM497,211h15v1h-15zM22,212h16v1h-16zM110,212h15v1h-15zM183,212h15v1h-15zM497,212h15v1h-15zM22,213h16v1h-16zM110,213h15v1h-15zM183,213h15v1h-15zM497,213h15v1h-15zM22,214h16v1h-16zM110,214h15v1h-15zM183,214h15v1h-15zM497,214h15v1h-15zM23,215h16v1h-16zM110,215h15v1h-15zM183,215h15v1h-15zM497,215h15v1h-15zM23,216h16v1h-16zM110,216h16v1h-16zM183,216h15v1h-15zM497,216h15v1h-15zM24,217h15v1h-15zM111,217h15v1h-15zM183,217h15v1h-15zM497,217h15v1h-15zM24,218h16v1h-16zM111,218h15v1h-15zM183,218h15v1h-15zM239,218h220v1h-220zM497,218h15v1h-15zM24,219h16v1h-16zM111,219h15v1h-15zM184,219h14v1h-14zM237,219h224v1h-224zM497,219h15v1h-15zM25,220h16v1h-16zM111,220h15v1h-15zM184,220h13v1h-13zM236,220h226v1h-226zM497,220h15v1h-15zM25,221h16v1h-16zM111,221h16v1h-16zM185,221h12v1h-12zM236,221h227v1h-227zM497,221h15v1h-15zM25,222h16v1h-16zM111,222h16v1h-16zM186,222h10v1h-10zM235,222h228v1h-228zM497,222h15v1h-15zM26,223h16v1h-16zM112,223h15v1h-15zM187,223h7v1h-7zM235,223h229v1h-229zM497,223h15v1h-15zM26,224h16v1h-16zM112,224h15v1h-15zM235,224h229v1h-229zM497,224h15v1h-15zM26,225h16v1h-16zM112,225h15v1h-15zM234,225h230v1h-230zM497,225h15v1h-15zM27,226h16v1h-16zM112,226h15v1h-15zM235,226h229v1h-229zM497,226h15v1h-15zM27,227h16v1h-16zM112,227h16v1h-16zM235,227h229v1h-229zM497,227h15v1h-15zM27,228h16v1h-16zM112,228h16v1h-16zM235,228h228v1h-228zM497,228h15v1h-15zM28,229h16v1h-16zM113,229h15v1h-15zM236,229h227v1h-227zM497,229h15v1h-15zM28,230h16v1h-16zM113,230h15v1h-15zM236,230h226v1h-226zM497,230h15v1h-15zM29,231h16v1h-16zM113,231h15v1h-15zM237,231h224v1h-224zM497,231h15v1h-15zM29,232h16v1h-16zM113,232h15v1h-15zM239,232h220v1h-220zM497,232h15v1h-15zM29,233h16v1h-16zM113,233h16v1h-16zM497,233h15v1h-15zM30,234h16v1h-16zM114,234h15v1h-15zM497,234h15v1h-15zM30,235h16v1h-16zM114,235h15v1h-15zM497,235h15v1h-15zM30,236h16v1h-16zM114,236h15v1h-15zM497,236h15v1h-15zM31,237h16v1h-16zM114,237h15v1h-15zM497,237h15v1h-15zM31,238h16v1h-16zM114,238h15v1h-15zM497,238h15v1h-15zM31,239h16v1h-16zM114,239h16v1h-16zM497,239h15v1h-15zM32,240h16v1h-16zM115,240h15v1h-15zM497,240h15v1h-15zM32,241h16v1h-16zM115,241h15v1h-15zM497,241h15v1h-15zM33,242h15v1h-15zM115,242h15v1h-15zM497,242h15v1h-15zM33,243h16v1h-16zM115,243h15v1h-15zM497,243h15v1h-15zM33,244h16v1h-16zM115,244h15v1h-15zM189,244h4v1h-4zM497,244h15v1h-15zM34,245h16v1h-16zM115,245h16v1h-16zM187,245h8v1h-8zM497,245h15v1h-15zM34,246h16v1h-16zM116,246h15v1h-15zM185,246h11v1h-11zM497,246h15v1h-15zM34,247h16v1h-16zM116,247h15v1h-15zM185,247h12v1h-12zM497,247h15v1h-15zM35,248h16v1h-16zM116,248h15v1h-15zM184,248h14v1h-14zM497,248h15v1h-15zM35,249h16v1h-16zM116,249h15v1h-15zM184,249h14v1h-14zM497,249h15v1h-15zM35,250h16v1h-16zM116,250h15v1h-15zM183,250h15v1h-15zM497,250h15v1h-15zM36,251h16v1h-16zM116,251h16v1h-16zM183,251h15v1h-15zM497,251h15v1h-15zM36,252h16v1h-16zM117,252h15v1h-15zM183,252h15v1h-15zM497,252h15v1h-15zM36,253h16v1h-16zM117,253h15v1h-15zM183,253h15v1h-15zM497,253h15v1h-15zM37,254h16v1h-16zM117,254h15v1h-15zM183,254h15v1h-15zM497,254h15v1h-15zM37,255h16v1h-16zM117,255h15v1h-15zM183,255h15v1h-15zM497,255h15v1h-15zM38,256h15v1h-15zM117,256h16v1h-16zM183,256h15v1h-15zM497,256h15v1h-15zM38,257h16v1h-16zM117,257h16v1h-16zM183,257h15v1h-15zM497,257h15v1h-15zM38,258h16v1h-16zM118,258h15v1h-15zM183,258h15v1h-15zM497,258h15v1h-15zM39,259h16v1h-16zM118,259h15v1h-15zM183,259h15v1h-15zM497,259h15v1h-15zM39,260h16v1h-16zM118,260h15v1h-15zM183,260h15v1h-15zM497,260h15v1h-15zM39,261h16v1h-16zM118,261h15v1h-15zM183,261h15v1h-15zM497,261h15v1h-15zM40,262h16v1h-16zM118,262h16v1h-16zM183,262h15v1h-15zM497,262h15v1h-15zM40,263h16v1h-16zM118,263h16v1h-16zM183,263h15v1h-15zM497,263h15v1h-15zM40,264h16v1h-16zM119,264h15v1h-15zM183,264h15v1h-15zM497,264h15v1h-15zM41,265h16v1h-16zM119,265h15v1h-15zM183,265h15v1h-15zM497,265h15v1h-15zM41,266h16v1h-16zM119,266h15v1h-15zM183,266h15v1h-15zM497,266h15v1h-15zM42,267h15v1h-15zM119,267h15v1h-15zM183,267h15v1h-15zM497,267h15v1h-15zM42,268h16v1h-16zM119,268h16v1h-16zM183,268h15v1h-15zM497,268h15v1h-15zM42,269h16v1h-16zM120,269h15v1h-15zM183,269h15v1h-15zM497,269h15v1h-15zM43,270h16v1h-16zM120,270h15v1h-15zM183,270h15v1h-15zM497,270h15v1h-15zM43,271h16v1h-16zM120,271h15v1h-15zM183,271h15v1h-15zM240,271h218v1h-218zM497,271h15v1h-15zM43,272h16v1h-16zM120,272h15v1h-15zM183,272h15v1h-15zM238,272h222v1h-222zM497,272h15v1h-15zM44,273h16v1h-16zM120,273h15v1h-15zM183,273h15v1h-15zM237,273h225v1h-225zM497,273h15v1h-15zM44,274h16v1h-16zM120,274h16v1h-16zM183,274h15v1h-15zM236,274h226v1h-226zM497,274h15v1h-15zM44,275h16v1h-16zM121,275h15v1h-15zM183,275h15v1h-15zM235,275h228v1h-228zM497,275h15v1h-15zM45,276h16v1h-16zM121,276h15v1h-15zM183,276h15v1h-15zM235,276h228v1h-228zM497,276h15v1h-15zM45,277h16v1h-16zM121,277h15v1h-15zM183,277h15v1h-15zM235,277h229v1h-229zM497,277h15v1h-15zM45,278h16v1h-16zM121,278h15v1h-15zM183,278h15v1h-15zM234,278h230v1h-230zM497,278h15v1h-15zM46,279h16v1h-16zM121,279h15v1h-15zM183,279h15v1h-15zM234,279h230v1h-230zM497,279h15v1h-15zM46,280h16v1h-16zM121,280h16v1h-16zM183,280h15v1h-15zM235,280h229v1h-229zM497,280h15v1h-15zM47,281h15v1h-15zM122,281h15v1h-15zM183,281h15v1h-15zM235,281h228v1h-228zM497,281h15v1h-15zM47,282h16v1h-16zM122,282h15v1h-15zM183,282h15v1h-15zM235,282h228v1h-228zM497,282h15v1h-15zM47,283h16v1h-16zM122,283h15v1h-15zM183,283h15v1h-15zM236,283h226v1h-226zM497,283h15v1h-15zM48,284h16v1h-16zM122,284h15v1h-15zM183,284h15v1h-15zM237,284h224v1h-224zM497,284h15v1h-15zM48,285h16v1h-16zM122,285h15v1h-15zM183,285h15v1h-15zM239,285h221v1h-221zM497,285h15v1h-15zM48,286h16v1h-16zM122,286h16v1h-16zM183,286h15v1h-15zM497,286h15v1h-15zM49,287h16v1h-16zM123,287h15v1h-15zM183,287h15v1h-15zM497,287h15v1h-15zM49,288h16v1h-16zM123,288h15v1h-15zM183,288h15v1h-15zM497,288h15v1h-15zM49,289h16v1h-16zM123,289h15v1h-15zM183,289h15v1h-15zM497,289h15v1h-15zM50,290h16v1h-16zM123,290h15v1h-15zM183,290h15v1h-15zM497,290h15v1h-15zM50,291h16v1h-16zM123,291h16v1h-16zM183,291h15v1h-15zM497,291h15v1h-15zM50,292h16v1h-16zM123,292h16v1h-16zM183,292h15v1h-15zM497,292h15v1h-15zM51,293h16v1h-16zM124,293h15v1h-15zM183,293h15v1h-15zM497,293h15v1h-15zM51,294h16v1h-16zM124,294h15v1h-15zM183,294h15v1h-15zM497,294h15v1h-15zM52,295h16v1h-16zM124,295h15v1h-15zM183,295h15v1h-15zM497,295h15v1h-15zM52,296h16v1h-16zM124,296h15v1h-15zM183,296h15v1h-15zM497,296h15v1h-15zM52,297h16v1h-16zM124,297h16v1h-16zM183,297h15v1h-15zM497,297h15v1h-15zM53,298h16v1h-16zM124,298h16v1h-16zM183,298h15v1h-15zM497,298h15v1h-15zM53,299h16v1h-16zM125,299h15v1h-15zM183,299h15v1h-15zM497,299h15v1h-15zM53,300h16v1h-16zM125,300h15v1h-15zM183,300h15v1h-15zM497,300h15v1h-15zM54,301h16v1h-16zM125,301h15v1h-15zM183,301h15v1h-15zM497,301h15v1h-15zM54,302h16v1h-16zM125,302h15v1h-15zM183,302h15v1h-15zM497,302h15v1h-15zM54,303h16v1h-16zM125,303h16v1h-16zM183,303h15v1h-15zM497,303h15v1h-15zM55,304h15v1h-15zM126,304h15v1h-15zM183,304h15v1h-15zM497,304h15v1h-15zM55,305h15v1h-15zM126,305h15v1h-15zM183,305h15v1h-15zM497,305h15v1h-15zM56,306h13v1h-13zM126,306h15v1h-15zM183,306h15v1h-15zM497,306h15v1h-15zM56,307h13v1h-13zM126,307h15v1h-15zM183,307h15v1h-15zM497,307h15v1h-15zM57,308h11v1h-11zM126,308h15v1h-15zM183,308h15v1h-15zM497,308h15v1h-15zM58,309h9v1h-9zM126,309h16v1h-16zM183,309h15v1h-15zM497,309h15v1h-15zM60,310h5v1h-5zM127,310h15v1h-15zM183,310h15v1h-15zM497,310h15v1h-15zM127,311h15v1h-15zM183,311h15v1h-15zM497,311h15v1h-15zM127,312h15v1h-15zM183,312h15v1h-15zM497,312h15v1h-15zM127,313h15v1h-15zM183,313h15v1h-15zM497,313h15v1h-15zM127,314h15v1h-15zM183,314h15v1h-15zM497,314h15v1h-15zM127,315h16v1h-16zM183,315h15v1h-15zM497,315h15v1h-15zM128,316h15v1h-15zM183,316h15v1h-15zM497,316h15v1h-15zM128,317h15v1h-15zM183,317h15v1h-15zM497,317h15v1h-15zM128,318h15v1h-15zM183,318h15v1h-15zM497,318h15v1h-15zM128,319h15v1h-15zM183,319h15v1h-15zM497,319h15v1h-15zM128,320h15v1h-15zM183,320h15v1h-15zM497,320h15v1h-15zM128,321h16v1h-16zM183,321h15v1h-15zM497,321h15v1h-15zM129,322h15v1h-15zM183,322h15v1h-15zM497,322h15v1h-15zM129,323h15v1h-15zM183,323h15v1h-15zM497,323h15v1h-15zM129,324h15v1h-15zM183,324h15v1h-15zM497,324h15v1h-15zM129,325h15v1h-15zM183,325h15v1h-15zM238,325h222v1h-222zM497,325h15v1h-15zM129,326h16v1h-16zM183,326h15v1h-15zM237,326h224v1h-224zM497,326h15v1h-15zM129,327h16v1h-16zM183,327h15v1h-15zM236,327h226v1h-226zM497,327h15v1h-15zM72,328h4v1h-4zM130,328h15v1h-15zM183,328h15v1h-15zM235,328h228v1h-228zM497,328h15v1h-15zM70,329h8v1h-8zM130,329h15v1h-15zM183,329h15v1h-15zM235,329h228v1h-228zM497,329h15v1h-15zM68,330h11v1h-11zM130,330h15v1h-15zM183,330h15v1h-15zM235,330h229v1h-229zM497,330h15v1h-15zM68,331h12v1h-12zM130,331h15v1h-15zM183,331h15v1h-15zM234,331h230v1h-230zM497,331h15v1h-15zM67,332h14v1h-14zM130,332h16v1h-16zM183,332h15v1h-15zM234,332h230v1h-230zM497,332h15v1h-15zM67,333h14v1h-14zM130,333h16v1h-16zM183,333h15v1h-15zM235,333h229v1h-229zM497,333h15v1h-15zM67,334h15v1h-15zM131,334h15v1h-15zM183,334h15v1h-15zM235,334h228v1h-228zM497,334h15v1h-15zM66,335h16v1h-16zM131,335h15v1h-15zM183,335h15v1h-15zM235,335h228v1h-228zM497,335h15v1h-15zM67,336h15v1h-15zM131,336h15v1h-15zM183,336h15v1h-15zM236,336h226v1h-226zM497,336h15v1h-15zM67,337h16v1h-16zM131,337h15v1h-15zM183,337h15v1h-15zM237,337h224v1h-224zM497,337h15v1h-15zM67,338h16v1h-16zM131,338h16v1h-16zM183,338h15v1h-15zM238,338h222v1h-222zM497,338h15v1h-15zM67,339h16v1h-16zM132,339h15v1h-15zM183,339h15v1h-15zM241,339h216v1h-216zM497,339h15v1h-15zM68,340h16v1h-16zM132,340h15v1h-15zM183,340h15v1h-15zM497,340h15v1h-15zM68,341h16v1h-16zM132,341h15v1h-15zM183,341h15v1h-15zM497,341h15v1h-15zM68,342h16v1h-16zM132,342h15v1h-15zM183,342h15v1h-15zM497,342h15v1h-15zM69,343h16v1h-16zM132,343h15v1h-15zM183,343h15v1h-15zM497,343h15v1h-15zM69,344h16v1h-16zM132,344h16v1h-16zM183,344h15v1h-15zM497,344h15v1h-15zM70,345h16v1h-16zM133,345h15v1h-15zM183,345h15v1h-15zM497,345h15v1h-15zM70,346h16v1h-16zM133,346h15v1h-15zM183,346h15v1h-15zM497,346h15v1h-15zM70,347h16v1h-16zM133,347h15v1h-15zM183,347h15v1h-15zM497,347h15v1h-15zM71,348h16v1h-16zM133,348h15v1h-15zM183,348h15v1h-15zM497,348h15v1h-15zM71,349h16v1h-16zM133,349h15v1h-15zM183,349h15v1h-15zM497,349h15v1h-15zM71,350h16v1h-16zM133,350h16v1h-16zM183,350h15v1h-15zM497,350h15v1h-15zM72,351h16v1h-16zM134,351h15v1h-15zM183,351h15v1h-15zM497,351h15v1h-15zM72,352h16v1h-16zM134,352h15v1h-15zM183,352h15v1h-15zM497,352h15v1h-15zM72,353h16v1h-16zM134,353h15v1h-15zM183,353h15v1h-15zM497,353h15v1h-15zM73,354h16v1h-16zM134,354h15v1h-15zM183,354h15v1h-15zM497,354h15v1h-15zM73,355h16v1h-16zM134,355h15v1h-15zM183,355h15v1h-15zM497,355h15v1h-15zM74,356h15v1h-15zM134,356h16v1h-16zM183,356h15v1h-15zM497,356h15v1h-15zM74,357h16v1h-16zM135,357h15v1h-15zM183,357h15v1h-15zM497,357h15v1h-15zM74,358h16v1h-16zM135,358h15v1h-15zM183,358h15v1h-15zM497,358h15v1h-15zM75,359h16v1h-16zM135,359h15v1h-15zM183,359h15v1h-15zM497,359h15v1h-15zM75,360h16v1h-16zM135,360h15v1h-15zM183,360h15v1h-15zM497,360h15v1h-15zM75,361h16v1h-16zM135,361h16v1h-16zM183,361h15v1h-15zM497,361h15v1h-15zM76,362h16v1h-16zM135,362h16v1h-16zM183,362h15v1h-15zM497,362h15v1h-15zM76,363h16v1h-16zM136,363h15v1h-15zM183,363h15v1h-15zM497,363h15v1h-15zM76,364h16v1h-16zM136,364h15v1h-15zM183,364h15v1h-15zM497,364h15v1h-15zM77,365h16v1h-16zM136,365h15v1h-15zM183,365h15v1h-15zM497,365h15v1h-15zM77,366h16v1h-16zM136,366h15v1h-15zM183,366h15v1h-15zM497,366h15v1h-15zM77,367h16v1h-16zM136,367h16v1h-16zM183,367h15v1h-15zM497,367h15v1h-15zM78,368h16v1h-16zM136,368h16v1h-16zM183,368h15v1h-15zM497,368h15v1h-15zM78,369h16v1h-16zM137,369h15v1h-15zM183,369h15v1h-15zM497,369h15v1h-15zM79,370h15v1h-15zM137,370h15v1h-15zM183,370h15v1h-15zM497,370h15v1h-15zM79,371h16v1h-16zM137,371h15v1h-15zM183,371h15v1h-15zM497,371h15v1h-15zM79,372h16v1h-16zM137,372h15v1h-15zM183,372h15v1h-15zM497,372h15v1h-15zM80,373h16v1h-16zM137,373h16v1h-16zM183,373h15v1h-15zM497,373h15v1h-15zM80,374h16v1h-16zM138,374h15v1h-15zM183,374h15v1h-15zM497,374h15v1h-15zM80,375h16v1h-16zM138,375h15v1h-15zM183,375h15v1h-15zM497,375h15v1h-15zM81,376h16v1h-16zM138,376h15v1h-15zM183,376h15v1h-15zM497,376h15v1h-15zM81,377h16v1h-16zM138,377h15v1h-15zM183,377h15v1h-15zM497,377h15v1h-15zM81,378h16v1h-16zM138,378h15v1h-15zM183,378h15v1h-15zM497,378h15v1h-15zM82,379h16v1h-16zM138,379h16v1h-16zM183,379h15v1h-15zM497,379h15v1h-15zM82,380h16v1h-16zM139,380h15v1h-15zM183,380h15v1h-15zM497,380h15v1h-15zM83,381h15v1h-15zM139,381h15v1h-15zM183,381h15v1h-15zM497,381h15v1h-15zM83,382h16v1h-16zM139,382h15v1h-15zM183,382h15v1h-15zM497,382h15v1h-15zM83,383h16v1h-16zM139,383h15v1h-15zM183,383h15v1h-15zM497,383h15v1h-15zM84,384h16v1h-16zM139,384h15v1h-15zM183,384h15v1h-15zM497,384h15v1h-15zM84,385h16v1h-16zM139,385h16v1h-16zM183,385h15v1h-15zM497,385h15v1h-15zM84,386h16v1h-16zM140,386h15v1h-15zM183,386h15v1h-15zM497,386h15v1h-15zM85,387h16v1h-16zM140,387h15v1h-15zM183,387h15v1h-15zM497,387h15v1h-15zM85,388h16v1h-16zM140,388h15v1h-15zM183,388h15v1h-15zM497,388h15v1h-15zM85,389h16v1h-16zM140,389h15v1h-15zM183,389h15v1h-15zM497,389h15v1h-15zM86,390h16v1h-16zM140,390h15v1h-15zM183,390h15v1h-15zM497,390h15v1h-15zM86,391h16v1h-16zM140,391h16v1h-16zM183,391h15v1h-15zM497,391h15v1h-15zM86,392h16v1h-16zM141,392h15v1h-15zM183,392h15v1h-15zM497,392h15v1h-15zM87,393h16v1h-16zM141,393h15v1h-15zM183,393h15v1h-15zM497,393h15v1h-15zM87,394h16v1h-16zM141,394h15v1h-15zM183,394h15v1h-15zM497,394h15v1h-15zM88,395h15v1h-15zM141,395h15v1h-15zM183,395h15v1h-15zM497,395h15v1h-15zM88,396h16v1h-16zM141,396h16v1h-16zM183,396h15v1h-15zM497,396h15v1h-15zM88,397h16v1h-16zM141,397h16v1h-16zM183,397h15v1h-15zM497,397h15v1h-15zM89,398h16v1h-16zM142,398h15v1h-15zM183,398h329v1h-329zM89,399h16v1h-16zM142,399h15v1h-15zM183,399h329v1h-329zM89,400h16v1h-16zM142,400h15v1h-15zM183,400h329v1h-329zM90,401h16v1h-16zM142,401h15v1h-15zM183,401h329v1h-329zM90,402h16v1h-16zM142,402h16v1h-16zM184,402h328v1h-328zM90,403h16v1h-16zM142,403h16v1h-16zM184,403h327v1h-327zM91,404h16v1h-16zM143,404h15v1h-15zM184,404h327v1h-327zM91,405h16v1h-16zM143,405h15v1h-15zM185,405h326v1h-326zM91,406h16v1h-16zM143,406h15v1h-15zM185,406h325v1h-325zM92,407h16v1h-16zM143,407h15v1h-15zM186,407h324v1h-324zM92,408h16v1h-16zM143,408h16v1h-16zM187,408h322v1h-322zM93,409h16v1h-16zM144,409h15v1h-15zM187,409h321v1h-321zM93,410h16v1h-16zM144,410h15v1h-15zM189,410h318v1h-318zM93,411h16v1h-16zM144,411h15v1h-15zM190,411h315v1h-315zM94,412h16v1h-16zM144,412h15v1h-15zM193,412h309v1h-309zM94,413h16v1h-16zM144,413h15v1h-15zM334,413h89v1h-89zM94,414h16v1h-16zM144,414h16v1h-16zM328,414h89v1h-89zM95,415h16v1h-16zM145,415h15v1h-15zM322,415h89v1h-89zM95,416h16v1h-16zM145,416h15v1h-15zM316,416h89v1h-89zM95,417h16v1h-16zM145,417h15v1h-15zM310,417h89v1h-89zM96,418h16v1h-16zM145,418h15v1h-15zM304,418h89v1h-89zM96,419h16v1h-16zM145,419h15v1h-15zM299,419h91v1h-91zM97,420h15v1h-15zM145,420h16v1h-16zM293,420h94v1h-94zM97,421h16v1h-16zM146,421h15v1h-15zM287,421h98v1h-98zM97,422h16v1h-16zM146,422h15v1h-15zM281,422h101v1h-101zM98,423h16v1h-16zM146,423h15v1h-15zM275,423h104v1h-104zM98,424h16v1h-16zM146,424h15v1h-15zM269,424h107v1h-107zM98,425h16v1h-16zM146,425h15v1h-15zM264,425h109v1h-109zM99,426h16v1h-16zM146,426h16v1h-16zM258,426h113v1h-113zM99,427h16v1h-16zM147,427h15v1h-15zM252,427h116v1h-116zM99,428h16v1h-16zM147,428h15v1h-15zM246,428h119v1h-119zM100,429h16v1h-16zM147,429h15v1h-15zM240,429h122v1h-122zM100,430h16v1h-16zM147,430h15v1h-15zM234,430h126v1h-126zM100,431h16v1h-16zM147,431h16v1h-16zM229,431h128v1h-128zM101,432h16v1h-16zM147,432h16v1h-16zM223,432h131v1h-131zM101,433h16v1h-16zM148,433h15v1h-15zM217,433h134v1h-134zM102,434h16v1h-16zM148,434h15v1h-15zM211,434h89v1h-89zM304,434h44v1h-44zM102,435h16v1h-16zM148,435h15v1h-15zM205,435h89v1h-89zM301,435h45v1h-45zM102,436h16v1h-16zM148,436h15v1h-15zM199,436h89v1h-89zM298,436h45v1h-45zM103,437h16v1h-16zM148,437h16v1h-16zM194,437h89v1h-89zM296,437h44v1h-44zM103,438h16v1h-16zM148,438h16v1h-16zM188,438h89v1h-89zM293,438h44v1h-44zM103,439h16v1h-16zM149,439h15v1h-15zM182,439h89v1h-89zM290,439h44v1h-44zM104,440h16v1h-16zM149,440h15v1h-15zM176,440h89v1h-89zM287,440h45v1h-45zM104,441h16v1h-16zM149,441h15v1h-15zM170,441h89v1h-89zM284,441h45v1h-45zM104,442h16v1h-16zM149,442h104v1h-104zM282,442h44v1h-44zM105,443h16v1h-16zM149,443h98v1h-98zM279,443h44v1h-44zM105,444h16v1h-16zM150,444h92v1h-92zM276,444h45v1h-45zM106,445h15v1h-15zM150,445h86v1h-86zM273,445h45v1h-45zM106,446h16v1h-16zM150,446h80v1h-80zM271,446h44v1h-44zM106,447h16v1h-16zM150,447h74v1h-74zM268,447h44v1h-44zM107,448h16v1h-16zM150,448h68v1h-68zM265,448h44v1h-44zM107,449h16v1h-16zM151,449h61v1h-61zM262,449h44v1h-44zM107,450h16v1h-16zM151,450h56v1h-56zM259,450h45v1h-45zM108,451h16v1h-16zM152,451h49v1h-49zM257,451h44v1h-44zM108,452h16v1h-16zM152,452h43v1h-43zM254,452h44v1h-44zM108,453h16v1h-16zM153,453h36v1h-36zM251,453h44v1h-44zM109,454h16v1h-16zM154,454h29v1h-29zM248,454h45v1h-45zM109,455h16v1h-16zM155,455h23v1h-23zM245,455h45v1h-45zM109,456h16v1h-16zM157,456h14v1h-14zM243,456h44v1h-44zM110,457h16v1h-16zM160,457h6v1h-6zM240,457h44v1h-44zM110,458h16v1h-16zM237,458h45v1h-45zM111,459h15v1h-15zM234,459h45v1h-45zM111,460h16v1h-16zM232,460h44v1h-44zM111,461h16v1h-16zM229,461h44v1h-44zM112,462h16v1h-16zM226,462h44v1h-44zM112,463h16v1h-16zM223,463h45v1h-45zM112,464h16v1h-16zM220,464h45v1h-45zM113,465h16v1h-16zM218,465h44v1h-44zM113,466h16v1h-16zM215,466h44v1h-44zM113,467h16v1h-16zM212,467h44v1h-44zM114,468h16v1h-16zM209,468h45v1h-45zM114,469h16v1h-16zM207,469h44v1h-44zM115,470h15v1h-15zM204,470h44v1h-44zM115,471h16v1h-16zM201,471h44v1h-44zM115,472h16v1h-16zM198,472h45v1h-45zM116,473h16v1h-16zM195,473h45v1h-45zM116,474h16v1h-16zM193,474h44v1h-44zM116,475h16v1h-16zM190,475h44v1h-44zM117,476h16v1h-16zM187,476h45v1h-45zM117,477h16v1h-16zM184,477h45v1h-45zM117,478h16v1h-16zM182,478h44v1h-44zM118,479h16v1h-16zM179,479h44v1h-44zM118,480h16v1h-16zM176,480h44v1h-44zM118,481h16v1h-16zM173,481h44v1h-44zM119,482h16v1h-16zM170,482h45v1h-45zM119,483h16v1h-16zM168,483h44v1h-44zM120,484h15v1h-15zM165,484h44v1h-44zM120,485h16v1h-16zM162,485h44v1h-44zM120,486h16v1h-16zM159,486h45v1h-45zM121,487h16v1h-16zM156,487h45v1h-45zM121,488h16v1h-16zM154,488h44v1h-44zM121,489h16v1h-16zM151,489h44v1h-44zM122,490h16v1h-16zM148,490h45v1h-45zM122,491h16v1h-16zM145,491h45v1h-45zM122,492h16v1h-16zM143,492h44v1h-44zM123,493h16v1h-16zM140,493h44v1h-44zM123,494h58v1h-58zM123,495h56v1h-56zM124,496h52v1h-52zM124,497h49v1h-49zM125,498h45v1h-45zM125,499h43v1h-43zM125,500h40v1h-40zM126,501h36v1h-36zM126,502h33v1h-33zM127,503h29v1h-29zM127,504h26v1h-26zM128,505h23v1h-23zM129,506h19v1h-19zM131,507h14v1h-14zM133,508h9v1h-9z" fill="#000"/>
</svg>