<?xml version="1.0" encoding="UTF-8"?>
<svg xmlns="http://www.w3.org/2000/svg" width="512" height="512" viewBox="0 0 512 512">
<path d="M100,0h220v1h-220zM95,1h227v1h-227zM91,2h233v1h-233zM89,3h237v1h-237zM87,4h240v1h-240zM84,5h244v1h-244zM83,6h246v1h-246zM81,7h249v1h-249zM80,8h251v1h-251zM78,9h254v1h-254zM77,10h256v1h-256zM76,11h258v1h-258zM75,12h260v1h-260zM74,13h262v1h-262zM73,14h264v1h-264zM72,15h266v1h-266zM71,16h268v1h-268zM70,17h270v1h-270zM70,18h271v1h-271zM69,19h273v1h-273zM68,20h275v1h-275zM68,21h276v1h-276zM67,22h278v1h-278zM66,23h280v1h-280zM66,24h281v1h-281zM65,25h283v1h-283zM65,26h284v1h-284zM65,27h285v1h-285zM64,28h287v1h-287zM64,29h288v1h-288zM63,30h39v1h-39zM301,30h52v1h-52zM63,31h37v1h-37zM301,31h53v1h-53zM63,32h35v1h-35zM301,32h54v1h-54zM63,33h34v1h-34zM301,33h55v1h-55zM62,34h33v1h-33zM301,34h56v1h-56zM62,35h32v1h-32zM301,35h57v1h-57zM62,36h32v1h-32zM301,36h58v1h-58zM62,37h31v1h-31zM301,37h59v1h-59zM62,38h31v1h-31zM301,38h60v1h-60zM61,39h31v1h-31zM301,39h61v1h-61zM61,40h31v1h-31zM301,40h62v1h-62zM61,41h30v1h-30zM301,41h63v1h-63zM61,42h30v1h-30zM301,42h64v1h-64zM61,43h30v1h-30zM301,43h65v1h-65zM61,44h30v1h-30zM301,44h66v1h-66zM61,45h30v1h-30zM301,45h67v1h-67zM61,46h30v1h-30zM301,46h68v1h-68zM61,47h30v1h-30zM301,47h69v1h-69zM61,48h30v1h-30zM301,48h70v1h-70zM61,49h30v1h-30zM301,49h71v1h-71zM61,50h30v1h-30zM301,50h72v1h-72zM61,51h30v1h-30zM301,51h73v1h-73zM61,52h30v1h-30zM301,52h30v1h-30zM332,52h43v1h-43zM61,53h30v1h-30zM301,53h30v1h-30zM333,53h43v1h-43zM61,54h30v1h-30zM301,54h30v1h-30zM334,54h43v1h-43zM61,55h30v1h-30zM301,55h30v1h-30zM335,55h43v1h-43zM61,56h30v1h-30zM301,56h30v1h-30zM336,56h43v1h-43zM61,57h30v1h-30zM301,57h30v1h-30zM337,57h43v1h-43zM61,58h30v1h-30zM301,58h30v1h-30zM338,58h43v1h-43zM61,59h30v1h-30zM301,59h30v1h-30zM339,59h43v1h-43zM61,60h30v1h-30zM301,60h30v1h-30zM340,60h43v1h-43zM61,61h30v1h-30zM301,61h30v1h-30zM341,61h43v1h-43zM61,62h30v1h-30zM301,62h30v1h-30zM342,62h43v1h-43zM61,63h30v1h-30zM301,63h30v1h-30zM343,63h43v1h-43zM61,64h30v1h-30zM301,64h30v1h-30zM344,64h43v1h-43zM61,65h30v1h-30zM301,65h30v1h-30zM345,65h43v1h-43zM61,66h30v1h-30zM301,66h30v1h-30zM346,66h43v1h-43zM61,67h30v1h-30zM301,67h30v1h-30zM347,67h43v1h-43zM61,68h30v1h-30zM301,68h30v1h-30zM348,68h43v1h-43zM61,69h30v1h-30zM301,69h30v1h-30zM349,69h43v1h-43zM61,70h30v1h-30zM301,70h30v1h-30zM350,70h43v1h-43zM61,71h30v1h-30zM301,71h30v1h-30zM351,71h43v1h-43zM61,72h30v1h-30zM301,72h30v1h-30zM352,72h43v1h-43zM61,73h30v1h-30zM301,73h30v1h-30zM353,73h43v1h-43zM61,74h30v1h-30zM301,74h30v1h-30zM354,74h43v1h-43zM61,75h30v1h-30zM301,75h30v1h-30zM355,75h43v1h-43zM61,76h30v1h-30zM301,76h30v1h-30zM356,76h43v1h-43zM61,77h30v1h-30zM301,77h30v1h-30zM357,77h43v1h-43zM61,78h30v1h-30zM301,78h30v1h-30zM358,78h43v1h-43zM61,79h30v1h-30zM301,79h30v1h-30zM359,79h43v1h-43zM61,80h30v1h-30zM301,80h30v1h-30zM360,80h43v1h-43zM61,81h30v1h-30zM301,81h30v1h-30zM361,81h43v1h-43zM61,82h30v1h-30zM301,82h30v1h-30zM362,82h43v1h-43zM61,83h30v1h-30zM301,83h30v1h-30zM363,83h43v1h-43zM61,84h30v1h-30zM301,84h30v1h-30zM364,84h43v1h-43zM61,85h30v1h-30zM301,85h30v1h-30zM365,85h43v1h-43zM61,86h30v1h-30zM301,86h30v1h-30zM366,86h43v1h-43zM61,87h30v1h-30zM301,87h30v1h-30zM367,87h43v1h-43zM61,88h30v1h-30zM301,88h30v1h-30zM368,88h43v1h-43zM61,89h30v1h-30zM301,89h30v1h-30zM369,89h43v1h-43zM61,90h30v1h-30zM301,90h30v1h-30zM370,90h43v1h-43zM61,91h30v1h-30zM301,91h30v1h-30zM371,91h43v1h-43zM61,92h30v1h-30zM301,92h30v1h-30zM372,92h43v1h-43zM61,93h30v1h-30zM301,93h30v1h-30zM373,93h43v1h-43zM61,94h30v1h-30zM301,94h30v1h-30zM374,94h43v1h-43zM61,95h30v1h-30zM301,95h30v1h-30zM375,95h43v1h-43zM61,96h30v1h-30zM301,96h30v1h-30zM376,96h43v1h-43zM61,97h30v1h-30zM301,97h30v1h-30zM377,97h43v1h-43zM61,98h30v1h-30zM301,98h30v1h-30zM378,98h43v1h-43zM61,99h30v1h-30zM301,99h30v1h-30zM379,99h43v1h-43zM61,100h30v1h-30zM301,100h30v1h-30zM380,100h43v1h-43zM61,101h30v1h-30zM301,101h30v1h-30zM381,101h43v1h-43zM61,102h30v1h-30zM301,102h30v1h-30zM382,102h43v1h-43zM61,103h30v1h-30zM301,103h30v1h-30zM383,103h43v1h-43zM61,104h30v1h-30zM301,104h30v1h-30zM384,104h43v1h-43zM61,105h30v1h-30zM301,105h30v1h-30zM385,105h43v1h-43zM61,106h30v1h-30zM301,106h30v1h-30zM386,106h43v1h-43zM61,107h30v1h-30zM301,107h30v1h-30zM387,107h43v1h-43zM61,108h30v1h-30zM301,108h30v1h-30zM388,108h43v1h-43zM61,109h30v1h-30zM301,109h31v1h-31zM389,109h43v1h-43zM61,110h30v1h-30zM301,110h31v1h-31zM390,110h43v1h-43zM61,111h30v1h-30zM302,111h31v1h-31zM391,111h43v1h-43zM61,112h30v1h-30zM302,112h31v1h-31zM392,112h43v1h-43zM61,113h30v1h-30zM302,113h32v1h-32zM393,113h43v1h-43zM61,114h30v1h-30zM302,114h32v1h-32zM394,114h43v1h-43zM61,115h30v1h-30zM302,115h33v1h-33zM395,115h43v1h-43zM61,116h30v1h-30zM303,116h34v1h-34zM396,116h43v1h-43zM61,117h30v1h-30zM303,117h35v1h-35zM397,117h43v1h-43zM61,118h30v1h-30zM303,118h37v1h-37zM398,118h43v1h-43zM61,119h30v1h-30zM303,119h39v1h-39zM399,119h43v1h-43zM61,120h30v1h-30zM304,120h139v1h-139zM61,121h30v1h-30zM304,121h140v1h-140zM61,122h30v1h-30zM305,122h140v1h-140zM61,123h30v1h-30zM305,123h141v1h-141zM61,124h30v1h-30zM306,124h141v1h-141zM61,125h30v1h-30zM306,125h142v1h-142zM61,126h30v1h-30zM306,126h142v1h-142zM61,127h30v1h-30zM307,127h142v1h-142zM61,128h30v1h-30zM308,128h141v1h-141zM61,129h30v1h-30zM308,129h142v1h-142zM61,130h30v1h-30zM309,130h141v1h-141zM61,131h30v1h-30zM310,131h141v1h-141zM61,132h30v1h-30zM310,132h141v1h-141zM61,133h30v1h-30zM311,133h140v1h-140zM61,134h30v1h-30zM312,134h139v1h-139zM61,135h30v1h-30zM313,135h138v1h-138zM61,136h30v1h-30zM314,136h137v1h-137zM61,137h30v1h-30zM315,137h136v1h-136zM61,138h30v1h-30zM316,138h135v1h-135zM61,139h30v1h-30zM317,139h134v1h-134zM61,140h30v1h-30zM318,140h133v1h-133zM61,141h30v1h-30zM320,141h131v1h-131zM61,142h30v1h-30zM321,142h130v1h-130zM61,143h30v1h-30zM323,143h128v1h-128zM61,144h30v1h-30zM324,144h127v1h-127zM61,145h30v1h-30zM327,145h124v1h-124zM61,146h30v1h-30zM329,146h122v1h-122zM61,147h30v1h-30zM331,147h120v1h-120zM61,148h30v1h-30zM335,148h116v1h-116zM61,149h30v1h-30zM340,149h111v1h-111zM61,150h30v1h-30zM421,150h30v1h-30zM61,151h30v1h-30zM421,151h30v1h-30zM61,152h30v1h-30zM421,152h30v1h-30zM61,153h30v1h-30zM421,153h30v1h-30zM61,154h30v1h-30zM421,154h30v1h-30zM61,155h30v1h-30zM421,155h30v1h-30zM61,156h30v1h-30zM421,156h30v1h-30zM61,157h30v1h-30zM421,157h30v1h-30zM61,158h30v1h-30zM421,158h30v1h-30zM61,159h30v1h-30zM421,159h30v1h-30zM61,160h30v1h-30zM421,160h30v1h-30zM61,161h30v1h-30zM421,161h30v1h-30zM61,162h30v1h-30zM421,162h30v1h-30zM61,163h30v1h-30zM421,163h30v1h-30zM61,164h30v1h-30zM421,164h30v1h-30zM61,165h30v1h-30zM421,165h30v1h-30zM61,166h30v1h-30zM421,166h30v1h-30zM61,167h30v1h-30zM421,167h30v1h-30zM61,168h30v1h-30zM421,168h30v1h-30zM61,169h30v1h-30zM421,169h30v1h-30zM61,170h30v1h-30zM421,170h30v1h-30zM61,171h30v1h-30zM421,171h30v1h-30zM61,172h30v1h-30zM421,172h30v1h-30zM61,173h30v1h-30zM421,173h30v1h-30zM61,174h30v1h-30zM421,174h30v1h-30zM61,175h30v1h-30zM421,175h30v1h-30zM61,176h30v1h-30zM421,176h30v1h-30zM61,177h30v1h-30zM421,177h30v1h-30zM61,178h30v1h-30zM421,178h30v1h-30zM61,179h30v1h-30zM421,179h30v1h-30zM61,180h30v1h-30zM421,180h30v1h-30zM61,181h30v1h-30zM421,181h30v1h-30zM61,182h30v1h-30zM421,182h30v1h-30zM61,183h30v1h-30zM421,183h30v1h-30zM61,184h30v1h-30zM421,184h30v1h-30zM61,185h30v1h-30zM421,185h30v1h-30zM61,186h30v1h-30zM421,186h30v1h-30zM61,187h30v1h-30zM421,187h30v1h-30zM61,188h30v1h-30zM421,188h30v1h-30zM61,189h30v1h-30zM421,189h30v1h-30zM61,190h30v1h-30zM421,190h30v1h-30zM61,191h30v1h-30zM421,191h30v1h-30zM61,192h30v1h-30zM421,192h30v1h-30zM61,193h30v1h-30zM421,193h30v1h-30zM61,194h30v1h-30zM421,194h30v1h-30zM61,195h30v1h-30zM421,195h30v1h-30zM61,196h30v1h-30zM421,196h30v1h-30zM61,197h30v1h-30zM421,197h30v1h-30zM61,198h30v1h-30zM421,198h30v1h-30zM61,199h30v1h-30zM421,199h30v1h-30zM61,200h30v1h-30zM421,200h30v1h-30zM61,201h30v1h-30zM421,201h30v1h-30zM61,202h30v1h-30zM421,202h30v1h-30zM61,203h30v1h-30zM421,203h30v1h-30zM61,204h30v1h-30zM421,204h30v1h-30zM61,205h30v1h-30zM421,205h30v1h-30zM61,206h30v1h-30zM421,206h30v1h-30zM61,207h30v1h-30zM421,207h30v1h-30zM61,208h30v1h-30zM421,208h30v1h-30zM61,209h30v1h-30zM421,209h30v1h-30zM61,210h30v1h-30zM421,210h30v1h-30zM61,211h30v1h-30zM421,211h30v1h-30zM61,212h30v1h-30zM162,212h188v1h-188zM421,212h30v1h-30zM61,213h30v1h-30zM160,213h192v1h-192zM421,213h30v1h-30zM61,214h30v1h-30zM158,214h196v1h-196zM421,214h30v1h-30zM61,215h30v1h-30zM156,215h200v1h-200zM421,215h30v1h-30zM61,216h30v1h-30zM155,216h202v1h-202zM421,216h30v1h-30zM61,217h30v1h-30zM154,217h204v1h-204zM421,217h30v1h-30zM61,218h30v1h-30zM154,218h204v1h-204zM421,218h30v1h-30zM61,219h30v1h-30zM153,219h206v1h-206zM421,219h30v1h-30zM61,220h30v1h-30zM153,220h206v1h-206zM421,220h30v1h-30zM61,221h30v1h-30zM152,221h208v1h-208zM421,221h30v1h-30zM61,222h30v1h-30zM152,222h208v1h-208zM421,222h30v1h-30zM61,223h30v1h-30zM151,223h210v1h-210zM421,223h30v1h-30zM61,224h30v1h-30zM151,224h210v1h-210zM421,224h30v1h-30zM61,225h30v1h-30zM151,225h210v1h-210zM421,225h30v1h-30zM61,226h30v1h-30zM151,226h210v1h-210zM421,226h30v1h-30zM61,227h30v1h-30zM151,227h210v1h-210zM421,227h30v1h-30zM61,228h30v1h-30zM151,228h210v1h-210zM421,228h30v1h-30zM61,229h30v1h-30zM151,229h210v1h-210zM421,229h30v1h-30zM61,230h30v1h-30zM151,230h210v1h-210zM421,230h30v1h-30zM61,231h30v1h-30zM152,231h208v1h-208zM421,231h30v1h-30zM61,232h30v1h-30zM152,232h208v1h-208zM421,232h30v1h-30zM61,233h30v1h-30zM153,233h206v1h-206zM421,233h30v1h-30zM61,234h30v1h-30zM153,234h206v1h-206zM421,234h30v1h-30zM61,235h30v1h-30zM154,235h204v1h-204zM421,235h30v1h-30zM61,236h30v1h-30zM154,236h204v1h-204zM421,236h30v1h-30zM61,237h30v1h-30zM155,237h202v1h-202zM421,237h30v1h-30zM61,238h30v1h-30zM156,238h200v1h-200zM421,238h30v1h-30zM61,239h30v1h-30zM158,239h196v1h-196zM421,239h30v1h-30zM61,240h30v1h-30zM160,240h192v1h-192zM421,240h30v1h-30zM61,241h30v1h-30zM162,241h188v1h-188zM421,241h30v1h-30zM61,242h30v1h-30zM421,242h30v1h-30zM61,243h30v1h-30zM421,243h30v1h-30zM61,244h30v1h-30zM421,244h30v1h-30zM61,245h30v1h-30zM421,245h30v1h-30zM61,246h30v1h-30zM421,246h30v1h-30zM61,247h30v1h-30zM421,247h30v1h-30zM61,248h30v1h-30zM421,248h30v1h-30zM61,249h30v1h-30zM421,249h30v1h-30zM61,250h30v1h-30zM421,250h30v1h-30zM61,251h30v1h-30zM421,251h30v1h-30zM61,252h30v1h-30zM421,252h30v1h-30zM61,253h30v1h-30zM421,253h30v1h-30zM61,254h30v1h-30zM421,254h30v1h-30zM61,255h30v1h-30zM421,255h30v1h-30zM61,256h30v1h-30zM421,256h30v1h-30zM61,257h30v1h-30zM421,257h30v1h-30zM61,258h30v1h-30zM421,258h30v1h-30zM61,259h30v1h-30zM421,259h30v1h-30zM61,260h30v1h-30zM421,260h30v1h-30zM61,261h30v1h-30zM421,261h30v1h-30zM61,262h30v1h-30zM421,262h30v1h-30zM61,263h30v1h-30zM421,263h30v1h-30zM61,264h30v1h-30zM421,264h30v1h-30zM61,265h30v1h-30zM421,265h30v1h-30zM61,266h30v1h-30zM421,266h30v1h-30zM61,267h30v1h-30zM421,267h30v1h-30zM61,268h30v1h-30zM421,268h30v1h-30zM61,269h30v1h-30zM421,269h30v1h-30zM61,270h30v1h-30zM421,270h30v1h-30zM61,271h30v1h-30zM421,271h30v1h-30zM61,272h30v1h-30zM162,272h188v1h-188zM421,272h30v1h-30zM61,273h30v1h-30zM160,273h192v1h-192zM421,273h30v1h-30zM61,274h30v1h-30zM158,274h196v1h-196zM421,274h30v1h-30zM61,275h30v1h-30zM156,275h200v1h-200zM421,275h30v1h-30zM61,276h30v1h-30zM155,276h202v1h-202zM421,276h30v1h-30zM61,277h30v1h-30zM154,277h204v1h-204zM421,277h30v1h-30zM61,278h30v1h-30zM154,278h204v1h-204zM421,278h30v1h-30zM61,279h30v1h-30zM153,279h206v1h-206zM421,279h30v1h-30zM61,280h30v1h-30zM153,280h206v1h-206zM421,280h30v1h-30zM61,281h30v1h-30zM152,281h208v1h-208zM421,281h30v1h-30zM61,282h30v1h-30zM152,282h208v1h-208zM421,282h30v1h-30zM61,283h30v1h-30zM151,283h210v1h-210zM421,283h30v1h-30zM61,284h30v1h-30zM151,284h210v1h-210zM421,284h30v1h-30zM61,285h30v1h-30zM151,285h210v1h-210zM421,285h30v1h-30zM61,286h30v1h-30zM151,286h210v1h-210zM421,286h30v1h-30zM61,287h30v1h-30zM151,287h210v1h-210zM421,287h30v1h-30zM61,288h30v1h-30zM151,288h210v1h-210zM421,288h30v1h-30zM61,289h30v1h-30zM151,289h210v1h-210zM421,289h30v1h-30zM61,290h30v1h-30zM151,290h210v1h-210zM421,290h30v1h-30zM61,291h30v1h-30zM152,291h208v1h-208zM421,291h30v1h-30zM61,292h30v1h-30zM152,292h208v1h-208zM421,292h30v1h-30zM61,293h30v1h-30zM153,293h206v1h-206zM421,293h30v1h-30zM61,294h30v1h-30zM153,294h206v1h-206zM421,294h30v1h-30zM61,295h30v1h-30zM154,295h204v1h-204zM421,295h30v1h-30zM61,296h30v1h-30zM154,296h204v1h-204zM421,296h30v1h-30zM61,297h30v1h-30zM155,297h202v1h-202zM421,297h30v1h-30zM61,298h30v1h-30zM156,298h200v1h-200zM421,298h30v1h-30zM61,299h30v1h-30zM158,299h196v1h-196zM421,299h30v1h-30zM61,300h30v1h-30zM160,300h192v1h-192zM421,300h30v1h-30zM61,301h30v1h-30zM162,301h188v1h-188zM421,301h30v1h-30zM61,302h30v1h-30zM421,302h30v1h-30zM61,303h30v1h-30zM421,303h30v1h-30zM61,304h30v1h-30zM421,304h30v1h-30zM61,305h30v1h-30zM421,305h30v1h-30zM61,306h30v1h-30zM421,306h30v1h-30zM61,307h30v1h-30zM421,307h30v1h-30zM61,308h30v1h-30zM421,308h30v1h-30zM61,309h30v1h-30zM421,309h30v1h-30zM61,310h30v1h-30zM421,310h30v1h-30zM61,311h30v1h-30zM421,311h30v1h-30zM61,312h30v1h-30zM421,312h30v1h-30zM61,313h30v1h-30zM421,313h30v1h-30zM61,314h30v1h-30zM421,314h30v1h-30zM61,315h30v1h-30zM421,315h30v1h-30zM61,316h30v1h-30zM421,316h30v1h-30zM61,317h30v1h-30zM421,317h30v1h-30zM61,318h30v1h-30zM421,318h30v1h-30zM61,319h30v1h-30zM421,319h30v1h-30zM61,320h30v1h-30zM421,320h30v1h-30zM61,321h30v1h-30zM421,321h30v1h-30zM61,322h30v1h-30zM421,322h30v1h-30zM61,323h30v1h-30zM421,323h30v1h-30zM61,324h30v1h-30zM421,324h30v1h-30zM61,325h30v1h-30zM421,325h30v1h-30zM61,326h30v1h-30zM421,326h30v1h-30zM61,327h30v1h-30zM421,327h30v1h-30zM61,328h30v1h-30zM421,328h30v1h-30zM61,329h30v1h-30zM421,329h30v1h-30zM61,330h30v1h-30zM421,330h30v1h-30zM61,331h30v1h-30zM421,331h30v1h-30zM61,332h30v1h-30zM162,332h188v1h-188zM421,332h30v1h-30zM61,333h30v1h-30zM160,333h192v1h-192zM421,333h30v1h-30zM61,334h30v1h-30zM158,334h196v1h-196zM421,334h30v1h-30zM61,335h30v1h-30zM156,335h200v1h-200zM421,335h30v1h-30zM61,336h30v1h-30zM155,336h202v1h-202zM421,336h30v1h-30zM61,337h30v1h-30zM154,337h204v1h-204zM421,337h30v1h-30zM61,338h30v1h-30zM154,338h204v1h-204zM421,338h30v1h-30zM61,339h30v1h-30zM153,339h206v1h-206zM421,339h30v1h-30zM61,340h30v1h-30zM153,340h206v1h-206zM421,340h30v1h-30zM61,341h30v1h-30zM152,341h208v1h-208zM421,341h30v1h-30zM61,342h30v1h-30zM152,342h208v1h-208zM421,342h30v1h-30zM61,343h30v1h-30zM151,343h210v1h-210zM421,343h30v1h-30zM61,344h30v1h-30zM151,344h210v1h-210zM421,344h30v1h-30zM61,345h30v1h-30zM151,345h210v1h-210zM421,345h30v1h-30zM61,346h30v1h-30zM151,346h210v1h-210zM421,346h30v1h-30zM61,347h30v1h-30zM151,347h210v1h-210zM421,347h30v1h-30zM61,348h30v1h-30zM151,348h210v1h-210zM421,348h30v1h-30zM61,349h30v1h-30zM151,349h210v1h-210zM421,349h30v1h-30zM61,350h30v1h-30zM151,350h210v1h-210zM421,350h30v1h-30zM61,351h30v1h-30zM152,351h208v1h-208zM421,351h30v1h-30zM61,352h30v1h-30zM152,352h208v1h-208zM421,352h30v1h-30zM61,353h30v1h-30zM153,353h206v1h-206zM421,353h30v1h-30zM61,354h30v1h-30zM153,354h206v1h-206zM421,354h30v1h-30zM61,355h30v1h-30zM154,355h204v1h-204zM421,355h30v1h-30zM61,356h30v1h-30zM154,356h204v1h-204zM421,356h30v1h-30zM61,357h30v1h-30zM155,357h202v1h-202zM421,357h30v1h-30zM61,358h30v1h-30zM156,358h200v1h-200zM421,358h30v1h-30zM61,359h30v1h-30zM158,359h196v1h-196zM421,359h30v1h-30zM61,360h30v1h-30zM160,360h192v1h-192zM421,360h30v1h-30zM61,361h30v1h-30zM162,361h188v1h-188zM421,361h30v1h-30zM61,362h30v1h-30zM421,362h30v1h-30zM61,363h30v1h-30zM421,363h30v1h-30zM61,364h30v1h-30zM421,364h30v1h-30zM61,365h30v1h-30zM421,365h30v1h-30zM61,366h30v1h-30zM421,366h30v1h-30zM61,367h30v1h-30zM421,367h30v1h-30zM61,368h30v1h-30zM421,368h30v1h-30zM61,369h30v1h-30zM421,369h30v1h-30zM61,370h30v1h-30zM421,370h30v1h-30zM61,371h30v1h-30zM421,371h30v1h-30zM61,372h30v1h-30zM421,372h30v1h-30zM61,373h30v1h-30zM421,373h30v1h-30zM61,374h30v1h-30zM421,374h30v1h-30zM61,375h30v1h-30zM421,375h30v1h-30zM61,376h30v1h-30zM421,376h30v1h-30zM61,377h30v1h-30zM421,377h30v1h-30zM61,378h30v1h-30zM421,378h30v1h-30zM61,379h30v1h-30zM421,379h30v1h-30zM61,380h30v1h-30zM421,380h30v1h-30zM61,381h30v1h-30zM421,381h30v1h-30zM61,382h30v1h-30zM421,382h30v1h-30zM61,383h30v1h-30zM421,383h30v1h-30zM61,384h30v1h-30zM421,384h30v1h-30zM61,385h30v1h-30zM421,385h30v1h-30zM61,386h30v1h-30zM421,386h30v1h-30zM61,387h30v1h-30zM421,387h30v1h-30zM61,388h30v1h-30zM421,388h30v1h-30zM61,389h30v1h-30zM421,389h30v1h-30zM61,390h30v1h-30zM421,390h30v1h-30zM61,391h30v1h-30zM421,391h30v1h-30zM61,392h30v1h-30zM162,392h128v1h-128zM421,392h30v1h-30zM61,393h30v1h-30zM160,393h132v1h-132zM421,393h30v1h-30zM61,394h30v1h-30zM158,394h136v1h-136zM421,394h30v1h-30zM61,395h30v1h-30zM156,395h140v1h-140zM421,395h30v1h-30zM61,396h30v1h-30zM155,396h142v1h-142zM421,396h30v1h-30zM61,397h30v1h-30zM154,397h144v1h-144zM421,397h30v1h-30zM61,398h30v1h-30zM154,398h144v1h-144zM421,398h30v1h-30zM61,399h30v1h-30zM153,399h146v1h-146zM421,399h30v1h-30zM61,400h30v1h-30zM153,400h146v1h-146zM421,400h30v1h-30zM61,401h30v1h-30zM152,401h148v1h-148zM421,401h30v1h-30zM61,402h30v1h-30zM152,402h148v1h-148zM421,402h30v1h-30zM61,403h30v1h-30zM151,403h150v1h-150zM421,403h30v1h-30zM61,404h30v1h-30zM151,404h150v1h-150zM421,404h30v1h-30zM61,405h30v1h-30zM151,405h150v1h-150zM421,405h30v1h-30zM61,406h30v1h-30zM151,406h150v1h-150zM421,406h30v1h-30zM61,407h30v1h-30zM151,407h150v1h-150zM421,407h30v1h-30zM61,408h30v1h-30zM151,408h150v1h-150zM421,408h30v1h-30zM61,409h30v1h-30zM151,409h150v1h-150zM421,409h30v1h-30zM61,410h30v1h-30zM151,410h150v1h-150zM421,410h30v1h-30zM61,411h30v1h-30zM152,411h148v1h-148zM421,411h30v1h-30zM61,412h30v1h-30zM152,412h148v1h-148zM421,412h30v1h-30zM61,413h30v1h-30zM153,413h146v1h-146zM421,413h30v1h-30zM61,414h30v1h-30zM153,414h146v1h-146zM421,414h30v1h-30zM61,415h30v1h-30zM154,415h144v1h-144zM421,415h30v1h-30zM61,416h30v1h-30zM154,416h144v1h-144zM421,416h30v1h-30zM61,417h30v1h-30zM155,417h142v1h-142zM421,417h30v1h-30zM61,418h30v1h-30zM156,418h140v1h-140zM421,418h30v1h-30zM61,419h30v1h-30zM158,419h136v1h-136zM421,419h30v1h-30zM61,420h30v1h-30zM160,420h132v1h-132zM421,420h30v1h-30zM61,421h30v1h-30zM162,421h128v1h-128zM421,421h30v1h-30zM61,422h30v1h-30zM421,422h30v1h-30zM61,423h30v1h-30zM421,423h30v1h-30zM61,424h30v1h-30zM421,424h30v1h-30zM61,425h30v1h-30zM421,425h30v1h-30zM61,426h30v1h-30zM421,426h30v1h-30zM61,427h30v1h-30zM421,427h30v1h-30zM61,428h30v1h-30zM421,428h30v1h-30zM61,429h30v1h-30zM421,429h30v1h-30zM61,430h30v1h-30zM421,430h30v1h-30zM61,431h30v1h-30zM421,431h30v1h-30zM61,432h30v1h-30zM421,432h30v1h-30zM61,433h30v1h-30zM421,433h30v1h-30zM61,434h30v1h-30zM421,434h30v1h-30zM61,435h30v1h-30zM421,435h30v1h-30zM61,436h30v1h-30zM421,436h30v1h-30zM61,437h30v1h-30zM421,437h30v1h-30zM61,438h30v1h-30zM421,438h30v1h-30zM61,439h30v1h-30zM421,439h30v1h-30zM61,440h30v1h-30zM421,440h30v1h-30zM61,441h30v1h-30zM421,441h30v1h-30zM61,442h30v1h-30zM421,442h30v1h-30zM61,443h30v1h-30zM421,443h30v1h-30zM61,444h30v1h-30zM421,444h30v1h-30zM61,445h30v1h-30zM421,445h30v1h-30zM61,446h30v1h-30zM421,446h30v1h-30zM61,447h30v1h-30zM421,447h30v1h-30zM61,448h30v1h-30zM421,448h30v1h-30zM61,449h30v1h-30zM421,449h30v1h-30zM61,450h30v1h-30zM421,450h30v1h-30zM61,451h30v1h-30zM421,451h30v1h-30zM61,452h30v1h-30zM421,452h30v1h-30zM61,453h30v1h-30zM421,453h30v1h-30zM61,454h30v1h-30zM421,454h30v1h-30zM61,455h30v1h-30zM421,455h30v1h-30zM61,456h30v1h-30zM421,456h30v1h-30zM61,457h30v1h-30zM421,457h30v1h-30zM61,458h30v1h-30zM421,458h30v1h-30zM61,459h30v1h-30zM421,459h30v1h-30zM61,460h30v1h-30zM421,460h30v1h-30zM61,461h30v1h-30zM421,461h30v1h-30zM61,462h30v1h-30zM421,462h30v1h-30zM61,463h30v1h-30zM421,463h30v1h-30zM61,464h30v1h-30zM421,464h30v1h-30zM61,465h30v1h-30zM421,465h30v1h-30zM61,466h30v1h-30zM421,466h30v1h-30zM61,467h30v1h-30zM421,467h30v1h-30zM61,468h30v1h-30zM421,468h30v1h-30zM61,469h30v1h-30zM421,469h30v1h-30zM61,470h30v1h-30zM421,470h30v1h-30zM61,471h31v1h-31zM420,471h31v1h-31zM61,472h31v1h-31zM420,472h31v1h-31zM62,473h31v1h-31zM419,473h31v1h-31zM62,474h31v1h-31zM419,474h31v1h-31zM62,475h32v1h-32zM418,475h32v1h-32zM62,476h32v1h-32zM418,476h32v1h-32zM62,477h33v1h-33zM417,477h33v1h-33zM63,478h34v1h-34zM416,478h33v1h-33zM63,479h35v1h-35zM414,479h35v1h-35zM63,480h37v1h-37zM412,480h37v1h-37zM63,481h39v1h-39zM410,481h39v1h-39zM64,482h384v1h-384zM64,483h384v1h-384zM65,484h382v1h-382zM65,485h382v1h-382zM66,486h380v1h-380zM66,487h380v1h-380zM66,488h379v1h-379zM67,489h378v1h-378zM68,490h376v1h-376zM68,491h376v1h-376zM69,492h374v1h-374zM70,493h372v1h-372zM70,494h372v1h-372zM71,495h370v1h-370zM72,496h368v1h-368zM73,497h366v1h-366zM74,498h364v1h-364zM75,499h362v1h-362zM76,500h360v1h-360zM77,501h358v1h-358zM78,502h356v1h-356zM80,503h352v1h-352zM81,504h350v1h-350zM83,505h346v1h-346zM84,506h343v1h-343zM87,507h339v1h-339zM89,508h334v1h-334zM91,509h330v1h-330zM95,510h322v1h-322zM100,511h312v1h-312z" fill="#000"/>
</svg>