<?xml version="1.0" encoding="UTF-8"?>
<svg xmlns="http://www.w3.org/2000/svg" width="512" height="512" viewBox="0 0 512 512">
<path d="M127,22h344v1h-344zM122,23h354v1h-354zM118,24h361v1h-361zM115,25h367v1h-367zM113,26h371v1h-371zM111,27h375v1h-375zM109,28h379v1h-379zM108,29h382v1h-382zM106,30h385v1h-385zM105,31h388v1h-388zM103,32h391v1h-391zM102,33h393v1h-393zM101,34h395v1h-395zM100,35h397v1h-397zM99,36h399v1h-399zM98,37h401v1h-401zM97,38h403v1h-403zM96,39h405v1h-405zM96,40h406v1h-406zM95,41h408v1h-408zM94,42h409v1h-409zM93,43h411v1h-411zM93,44h412v1h-412zM92,45h413v1h-413zM91,46h415v1h-415zM91,47h415v1h-415zM90,48h417v1h-417zM90,49h417v1h-417zM89,50h419v1h-419zM89,51h419v1h-419zM89,52h420v1h-420zM88,53h421v1h-421zM88,54h41v1h-41zM468,54h41v1h-41zM88,55h39v1h-39zM471,55h39v1h-39zM87,56h38v1h-38zM473,56h37v1h-37zM87,57h36v1h-36zM474,57h36v1h-36zM87,58h35v1h-35zM475,58h36v1h-36zM87,59h34v1h-34zM476,59h35v1h-35zM86,60h34v1h-34zM477,60h34v1h-34zM86,61h34v1h-34zM478,61h33v1h-33zM86,62h33v1h-33zM478,62h33v1h-33zM86,63h33v1h-33zM479,63h33v1h-33zM86,64h32v1h-32zM479,64h33v1h-33zM86,65h32v1h-32zM479,65h33v1h-33zM85,66h33v1h-33zM480,66h32v1h-32zM85,67h33v1h-33zM480,67h32v1h-32zM85,68h32v1h-32zM480,68h32v1h-32zM85,69h32v1h-32zM480,69h32v1h-32zM85,70h32v1h-32zM480,70h32v1h-32zM85,71h32v1h-32zM480,71h32v1h-32zM85,72h32v1h-32zM480,72h32v1h-32zM85,73h32v1h-32zM480,73h32v1h-32zM85,74h32v1h-32zM480,74h32v1h-32zM85,75h32v1h-32zM480,75h32v1h-32zM85,76h32v1h-32zM480,76h32v1h-32zM85,77h32v1h-32zM480,77h32v1h-32zM85,78h32v1h-32zM480,78h32v1h-32zM85,79h32v1h-32zM480,79h32v1h-32zM85,80h32v1h-32zM480,80h32v1h-32zM85,81h32v1h-32zM480,81h32v1h-32zM85,82h32v1h-32zM480,82h32v1h-32zM85,83h32v1h-32zM480,83h32v1h-32zM85,84h32v1h-32zM480,84h32v1h-32zM85,85h32v1h-32zM480,85h32v1h-32zM85,86h32v1h-32zM186,86h12v1h-12zM480,86h32v1h-32zM85,87h32v1h-32zM181,87h22v1h-22zM480,87h32v1h-32zM85,88h32v1h-32zM178,88h28v1h-28zM480,88h32v1h-32zM85,89h32v1h-32zM175,89h34v1h-34zM480,89h32v1h-32zM85,90h32v1h-32zM173,90h38v1h-38zM480,90h32v1h-32zM85,91h32v1h-32zM171,91h42v1h-42zM480,91h32v1h-32zM85,92h32v1h-32zM169,92h46v1h-46zM480,92h32v1h-32zM85,93h32v1h-32zM168,93h48v1h-48zM480,93h32v1h-32zM85,94h32v1h-32zM167,94h51v1h-51zM480,94h32v1h-32zM85,95h32v1h-32zM165,95h54v1h-54zM480,95h32v1h-32zM85,96h32v1h-32zM164,96h56v1h-56zM480,96h32v1h-32zM85,97h32v1h-32zM163,97h58v1h-58zM480,97h32v1h-32zM85,98h32v1h-32zM162,98h60v1h-60zM480,98h32v1h-32zM85,99h32v1h-32zM161,99h62v1h-62zM480,99h32v1h-32zM85,100h32v1h-32zM160,100h64v1h-64zM480,100h32v1h-32zM85,101h32v1h-32zM159,101h66v1h-66zM480,101h32v1h-32zM85,102h32v1h-32zM158,102h68v1h-68zM480,102h32v1h-32zM85,103h32v1h-32zM158,103h68v1h-68zM480,103h32v1h-32zM85,104h32v1h-32zM157,104h70v1h-70zM480,104h32v1h-32zM85,105h32v1h-32zM156,105h72v1h-72zM480,105h32v1h-32zM85,106h32v1h-32zM156,106h72v1h-72zM480,106h32v1h-32zM85,107h32v1h-32zM155,107h74v1h-74zM480,107h32v1h-32zM85,108h32v1h-32zM154,108h76v1h-76zM480,108h32v1h-32zM85,109h32v1h-32zM154,109h76v1h-76zM480,109h32v1h-32zM85,110h32v1h-32zM153,110h78v1h-78zM480,110h32v1h-32zM85,111h32v1h-32zM153,111h78v1h-78zM480,111h32v1h-32zM85,112h32v1h-32zM153,112h78v1h-78zM480,112h32v1h-32zM85,113h32v1h-32zM152,113h80v1h-80zM480,113h32v1h-32zM85,114h32v1h-32zM152,114h80v1h-80zM480,114h32v1h-32zM85,115h32v1h-32zM151,115h82v1h-82zM480,115h32v1h-32zM85,116h32v1h-32zM151,116h82v1h-82zM480,116h32v1h-32zM85,117h32v1h-32zM151,117h82v1h-82zM480,117h32v1h-32zM85,118h32v1h-32zM151,118h38v1h-38zM195,118h38v1h-38zM480,118h32v1h-32zM85,119h32v1h-32zM150,119h37v1h-37zM197,119h37v1h-37zM480,119h32v1h-32zM85,120h32v1h-32zM150,120h35v1h-35zM199,120h35v1h-35zM480,120h32v1h-32zM85,121h32v1h-32zM150,121h34v1h-34zM200,121h34v1h-34zM480,121h32v1h-32zM85,122h32v1h-32zM150,122h33v1h-33zM201,122h33v1h-33zM480,122h32v1h-32zM85,123h32v1h-32zM150,123h33v1h-33zM201,123h33v1h-33zM480,123h32v1h-32zM85,124h32v1h-32zM150,124h32v1h-32zM202,124h32v1h-32zM480,124h32v1h-32zM85,125h32v1h-32zM149,125h33v1h-33zM202,125h32v1h-32zM480,125h32v1h-32zM85,126h32v1h-32zM149,126h33v1h-33zM202,126h33v1h-33zM480,126h32v1h-32zM85,127h32v1h-32zM149,127h32v1h-32zM203,127h32v1h-32zM480,127h32v1h-32zM85,128h32v1h-32zM149,128h32v1h-32zM203,128h32v1h-32zM480,128h32v1h-32zM85,129h32v1h-32zM149,129h32v1h-32zM203,129h32v1h-32zM480,129h32v1h-32zM85,130h32v1h-32zM149,130h33v1h-33zM202,130h33v1h-33zM480,130h32v1h-32zM85,131h32v1h-32zM149,131h33v1h-33zM202,131h33v1h-33zM480,131h32v1h-32zM85,132h32v1h-32zM150,132h32v1h-32zM202,132h32v1h-32zM480,132h32v1h-32zM85,133h32v1h-32zM150,133h33v1h-33zM201,133h33v1h-33zM480,133h32v1h-32zM85,134h32v1h-32zM150,134h33v1h-33zM201,134h33v1h-33zM480,134h32v1h-32zM85,135h32v1h-32zM150,135h34v1h-34zM200,135h34v1h-34zM368,135h13v1h-13zM480,135h32v1h-32zM85,136h32v1h-32zM150,136h35v1h-35zM199,136h35v1h-35zM363,136h22v1h-22zM480,136h32v1h-32zM85,137h32v1h-32zM150,137h36v1h-36zM198,137h36v1h-36zM360,137h28v1h-28zM480,137h32v1h-32zM85,138h32v1h-32zM151,138h37v1h-37zM196,138h37v1h-37zM358,138h32v1h-32zM480,138h32v1h-32zM85,139h32v1h-32zM151,139h82v1h-82zM356,139h36v1h-36zM480,139h32v1h-32zM85,140h32v1h-32zM151,140h82v1h-82zM354,140h39v1h-39zM480,140h32v1h-32zM85,141h32v1h-32zM151,141h82v1h-82zM353,141h42v1h-42zM480,141h32v1h-32zM85,142h32v1h-32zM152,142h80v1h-80zM351,142h45v1h-45zM480,142h32v1h-32zM85,143h32v1h-32zM152,143h80v1h-80zM350,143h47v1h-47zM480,143h32v1h-32zM85,144h32v1h-32zM152,144h80v1h-80zM349,144h49v1h-49zM480,144h32v1h-32zM85,145h32v1h-32zM153,145h78v1h-78zM348,145h51v1h-51zM480,145h32v1h-32zM85,146h32v1h-32zM153,146h78v1h-78zM347,146h53v1h-53zM480,146h32v1h-32zM85,147h32v1h-32zM154,147h76v1h-76zM346,147h55v1h-55zM480,147h32v1h-32zM85,148h32v1h-32zM154,148h76v1h-76zM345,148h57v1h-57zM480,148h32v1h-32zM85,149h32v1h-32zM155,149h74v1h-74zM344,149h59v1h-59zM480,149h32v1h-32zM85,150h32v1h-32zM155,150h74v1h-74zM343,150h61v1h-61zM480,150h32v1h-32zM85,151h32v1h-32zM156,151h72v1h-72zM342,151h63v1h-63zM480,151h32v1h-32zM85,152h32v1h-32zM157,152h70v1h-70zM341,152h65v1h-65zM480,152h32v1h-32zM85,153h32v1h-32zM157,153h70v1h-70zM341,153h65v1h-65zM480,153h32v1h-32zM85,154h32v1h-32zM158,154h68v1h-68zM340,154h67v1h-67zM480,154h32v1h-32zM85,155h32v1h-32zM159,155h66v1h-66zM339,155h69v1h-69zM480,155h32v1h-32zM85,156h32v1h-32zM160,156h64v1h-64zM338,156h71v1h-71zM480,156h32v1h-32zM85,157h32v1h-32zM161,157h62v1h-62zM337,157h73v1h-73zM480,157h32v1h-32zM85,158h32v1h-32zM162,158h60v1h-60zM336,158h75v1h-75zM480,158h32v1h-32zM85,159h32v1h-32zM163,159h58v1h-58zM336,159h76v1h-76zM480,159h32v1h-32zM85,160h32v1h-32zM164,160h56v1h-56zM335,160h77v1h-77zM480,160h32v1h-32zM85,161h32v1h-32zM165,161h54v1h-54zM334,161h79v1h-79zM480,161h32v1h-32zM85,162h32v1h-32zM166,162h52v1h-52zM333,162h81v1h-81zM480,162h32v1h-32zM85,163h32v1h-32zM167,163h50v1h-50zM332,163h83v1h-83zM480,163h32v1h-32zM85,164h32v1h-32zM169,164h46v1h-46zM331,164h85v1h-85zM480,164h32v1h-32zM85,165h32v1h-32zM171,165h42v1h-42zM331,165h86v1h-86zM480,165h32v1h-32zM85,166h32v1h-32zM172,166h40v1h-40zM330,166h88v1h-88zM480,166h32v1h-32zM85,167h32v1h-32zM174,167h36v1h-36zM329,167h42v1h-42zM375,167h43v1h-43zM480,167h32v1h-32zM85,168h32v1h-32zM177,168h30v1h-30zM328,168h42v1h-42zM377,168h42v1h-42zM480,168h32v1h-32zM85,169h32v1h-32zM180,169h24v1h-24zM327,169h42v1h-42zM378,169h42v1h-42zM480,169h32v1h-32zM85,170h32v1h-32zM184,170h16v1h-16zM326,170h42v1h-42zM379,170h42v1h-42zM480,170h32v1h-32zM85,171h32v1h-32zM326,171h41v1h-41zM380,171h42v1h-42zM480,171h32v1h-32zM85,172h32v1h-32zM325,172h41v1h-41zM381,172h42v1h-42zM480,172h32v1h-32zM85,173h32v1h-32zM324,173h42v1h-42zM381,173h43v1h-43zM480,173h32v1h-32zM85,174h32v1h-32zM323,174h42v1h-42zM382,174h42v1h-42zM480,174h32v1h-32zM85,175h32v1h-32zM322,175h42v1h-42zM383,175h42v1h-42zM480,175h32v1h-32zM85,176h32v1h-32zM321,176h42v1h-42zM384,176h42v1h-42zM480,176h32v1h-32zM85,177h32v1h-32zM321,177h41v1h-41zM385,177h42v1h-42zM480,177h32v1h-32zM85,178h32v1h-32zM320,178h41v1h-41zM386,178h42v1h-42zM480,178h32v1h-32zM85,179h32v1h-32zM319,179h42v1h-42zM387,179h42v1h-42zM480,179h32v1h-32zM85,180h32v1h-32zM318,180h42v1h-42zM387,180h43v1h-43zM480,180h32v1h-32zM85,181h32v1h-32zM317,181h42v1h-42zM388,181h42v1h-42zM480,181h32v1h-32zM85,182h32v1h-32zM316,182h42v1h-42zM389,182h42v1h-42zM480,182h32v1h-32zM85,183h32v1h-32zM316,183h41v1h-41zM390,183h42v1h-42zM480,183h32v1h-32zM85,184h32v1h-32zM315,184h41v1h-41zM391,184h42v1h-42zM480,184h32v1h-32zM85,185h32v1h-32zM314,185h42v1h-42zM392,185h42v1h-42zM480,185h32v1h-32zM85,186h32v1h-32zM313,186h42v1h-42zM393,186h42v1h-42zM480,186h32v1h-32zM85,187h32v1h-32zM312,187h42v1h-42zM393,187h43v1h-43zM480,187h32v1h-32zM85,188h32v1h-32zM311,188h42v1h-42zM394,188h42v1h-42zM480,188h32v1h-32zM85,189h32v1h-32zM311,189h41v1h-41zM395,189h42v1h-42zM480,189h32v1h-32zM85,190h32v1h-32zM310,190h41v1h-41zM396,190h42v1h-42zM480,190h32v1h-32zM85,191h32v1h-32zM309,191h42v1h-42zM397,191h42v1h-42zM480,191h32v1h-32zM48,192h11v1h-11zM85,192h32v1h-32zM308,192h42v1h-42zM398,192h42v1h-42zM480,192h32v1h-32zM46,193h15v1h-15zM85,193h32v1h-32zM307,193h42v1h-42zM399,193h42v1h-42zM480,193h32v1h-32zM44,194h18v1h-18zM85,194h32v1h-32zM306,194h42v1h-42zM399,194h43v1h-43zM480,194h32v1h-32zM43,195h21v1h-21zM85,195h32v1h-32zM306,195h41v1h-41zM400,195h42v1h-42zM480,195h32v1h-32zM42,196h23v1h-23zM85,196h32v1h-32zM305,196h41v1h-41zM401,196h42v1h-42zM480,196h32v1h-32zM41,197h25v1h-25zM85,197h32v1h-32zM304,197h42v1h-42zM402,197h42v1h-42zM480,197h32v1h-32zM40,198h26v1h-26zM85,198h32v1h-32zM303,198h42v1h-42zM403,198h42v1h-42zM480,198h32v1h-32zM40,199h27v1h-27zM85,199h32v1h-32zM302,199h42v1h-42zM404,199h42v1h-42zM480,199h32v1h-32zM39,200h29v1h-29zM85,200h32v1h-32zM301,200h42v1h-42zM405,200h42v1h-42zM480,200h32v1h-32zM39,201h29v1h-29zM85,201h32v1h-32zM301,201h41v1h-41zM405,201h43v1h-43zM480,201h32v1h-32zM38,202h30v1h-30zM85,202h32v1h-32zM300,202h41v1h-41zM406,202h42v1h-42zM480,202h32v1h-32zM38,203h31v1h-31zM85,203h32v1h-32zM299,203h42v1h-42zM407,203h42v1h-42zM480,203h32v1h-32zM38,204h31v1h-31zM85,204h32v1h-32zM298,204h42v1h-42zM408,204h42v1h-42zM480,204h32v1h-32zM37,205h32v1h-32zM85,205h32v1h-32zM297,205h42v1h-42zM409,205h42v1h-42zM480,205h32v1h-32zM37,206h32v1h-32zM85,206h32v1h-32zM296,206h42v1h-42zM410,206h42v1h-42zM480,206h32v1h-32zM37,207h32v1h-32zM85,207h32v1h-32zM207,207h13v1h-13zM296,207h41v1h-41zM411,207h42v1h-42zM480,207h32v1h-32zM37,208h32v1h-32zM85,208h32v1h-32zM202,208h22v1h-22zM295,208h41v1h-41zM411,208h43v1h-43zM480,208h32v1h-32zM36,209h33v1h-33zM85,209h32v1h-32zM200,209h27v1h-27zM294,209h42v1h-42zM412,209h42v1h-42zM480,209h32v1h-32zM36,210h33v1h-33zM85,210h32v1h-32zM197,210h32v1h-32zM293,210h42v1h-42zM413,210h42v1h-42zM480,210h32v1h-32zM36,211h33v1h-33zM85,211h32v1h-32zM195,211h36v1h-36zM292,211h42v1h-42zM414,211h42v1h-42zM480,211h32v1h-32zM35,212h34v1h-34zM85,212h32v1h-32zM194,212h39v1h-39zM291,212h42v1h-42zM415,212h42v1h-42zM480,212h32v1h-32zM35,213h33v1h-33zM85,213h32v1h-32zM192,213h43v1h-43zM291,213h41v1h-41zM416,213h42v1h-42zM480,213h32v1h-32zM35,214h33v1h-33zM85,214h32v1h-32zM191,214h45v1h-45zM290,214h41v1h-41zM417,214h42v1h-42zM480,214h32v1h-32zM35,215h33v1h-33zM85,215h32v1h-32zM189,215h48v1h-48zM289,215h42v1h-42zM417,215h43v1h-43zM480,215h32v1h-32zM34,216h34v1h-34zM85,216h32v1h-32zM188,216h50v1h-50zM288,216h42v1h-42zM418,216h42v1h-42zM480,216h32v1h-32zM34,217h33v1h-33zM85,217h32v1h-32zM187,217h52v1h-52zM287,217h42v1h-42zM419,217h42v1h-42zM480,217h32v1h-32zM34,218h33v1h-33zM85,218h32v1h-32zM186,218h54v1h-54zM286,218h42v1h-42zM420,218h42v1h-42zM480,218h32v1h-32zM34,219h33v1h-33zM85,219h32v1h-32zM185,219h56v1h-56zM286,219h41v1h-41zM421,219h42v1h-42zM480,219h32v1h-32zM33,220h33v1h-33zM85,220h32v1h-32zM184,220h58v1h-58zM285,220h41v1h-41zM422,220h42v1h-42zM480,220h32v1h-32zM33,221h33v1h-33zM85,221h32v1h-32zM183,221h60v1h-60zM284,221h42v1h-42zM423,221h42v1h-42zM480,221h32v1h-32zM33,222h33v1h-33zM85,222h32v1h-32zM182,222h62v1h-62zM283,222h42v1h-42zM423,222h43v1h-43zM480,222h32v1h-32zM33,223h33v1h-33zM85,223h32v1h-32zM181,223h64v1h-64zM282,223h42v1h-42zM424,223h42v1h-42zM480,223h32v1h-32zM32,224h33v1h-33zM85,224h32v1h-32zM180,224h66v1h-66zM281,224h42v1h-42zM425,224h42v1h-42zM480,224h32v1h-32zM32,225h33v1h-33zM85,225h32v1h-32zM179,225h68v1h-68zM281,225h41v1h-41zM426,225h42v1h-42zM480,225h32v1h-32zM32,226h33v1h-33zM85,226h32v1h-32zM178,226h70v1h-70zM280,226h41v1h-41zM427,226h42v1h-42zM480,226h32v1h-32zM32,227h33v1h-33zM85,227h32v1h-32zM177,227h72v1h-72zM279,227h42v1h-42zM428,227h42v1h-42zM480,227h32v1h-32zM31,228h33v1h-33zM85,228h32v1h-32zM176,228h74v1h-74zM278,228h42v1h-42zM429,228h42v1h-42zM480,228h32v1h-32zM31,229h33v1h-33zM85,229h32v1h-32zM175,229h76v1h-76zM277,229h42v1h-42zM429,229h43v1h-43zM480,229h32v1h-32zM31,230h33v1h-33zM85,230h32v1h-32zM174,230h78v1h-78zM276,230h42v1h-42zM430,230h42v1h-42zM480,230h32v1h-32zM31,231h33v1h-33zM85,231h32v1h-32zM173,231h80v1h-80zM276,231h41v1h-41zM431,231h42v1h-42zM480,231h32v1h-32zM30,232h33v1h-33zM85,232h32v1h-32zM172,232h82v1h-82zM275,232h41v1h-41zM432,232h42v1h-42zM480,232h32v1h-32zM30,233h33v1h-33zM85,233h32v1h-32zM171,233h84v1h-84zM274,233h42v1h-42zM433,233h42v1h-42zM480,233h32v1h-32zM30,234h33v1h-33zM85,234h32v1h-32zM170,234h86v1h-86zM273,234h42v1h-42zM434,234h42v1h-42zM480,234h32v1h-32zM30,235h33v1h-33zM85,235h32v1h-32zM169,235h88v1h-88zM272,235h42v1h-42zM435,235h42v1h-42zM480,235h32v1h-32zM29,236h33v1h-33zM85,236h32v1h-32zM168,236h90v1h-90zM271,236h42v1h-42zM435,236h43v1h-43zM480,236h32v1h-32zM29,237h33v1h-33zM85,237h32v1h-32zM167,237h92v1h-92zM271,237h41v1h-41zM436,237h42v1h-42zM480,237h32v1h-32zM29,238h33v1h-33zM85,238h32v1h-32zM166,238h47v1h-47zM214,238h46v1h-46zM270,238h41v1h-41zM437,238h42v1h-42zM480,238h32v1h-32zM28,239h34v1h-34zM85,239h32v1h-32zM165,239h46v1h-46zM216,239h45v1h-45zM269,239h42v1h-42zM438,239h74v1h-74zM28,240h33v1h-33zM85,240h32v1h-32zM164,240h45v1h-45zM217,240h45v1h-45zM268,240h42v1h-42zM439,240h73v1h-73zM28,241h33v1h-33zM85,241h32v1h-32zM163,241h45v1h-45zM218,241h45v1h-45zM267,241h42v1h-42zM440,241h72v1h-72zM28,242h33v1h-33zM85,242h32v1h-32zM162,242h45v1h-45zM219,242h45v1h-45zM266,242h42v1h-42zM441,242h71v1h-71zM27,243h33v1h-33zM85,243h32v1h-32zM161,243h45v1h-45zM220,243h87v1h-87zM441,243h71v1h-71zM27,244h33v1h-33zM85,244h32v1h-32zM160,244h45v1h-45zM221,244h85v1h-85zM442,244h70v1h-70zM27,245h33v1h-33zM85,245h32v1h-32zM159,245h45v1h-45zM222,245h84v1h-84zM443,245h69v1h-69zM27,246h33v1h-33zM85,246h32v1h-32zM158,246h45v1h-45zM223,246h82v1h-82zM444,246h68v1h-68zM26,247h33v1h-33zM85,247h32v1h-32zM157,247h45v1h-45zM224,247h80v1h-80zM445,247h67v1h-67zM26,248h33v1h-33zM85,248h32v1h-32zM156,248h45v1h-45zM225,248h78v1h-78zM446,248h66v1h-66zM26,249h33v1h-33zM85,249h32v1h-32zM155,249h45v1h-45zM226,249h76v1h-76zM447,249h65v1h-65zM26,250h33v1h-33zM85,250h32v1h-32zM154,250h45v1h-45zM227,250h74v1h-74zM447,250h65v1h-65zM25,251h33v1h-33zM85,251h32v1h-32zM153,251h45v1h-45zM228,251h73v1h-73zM448,251h64v1h-64zM25,252h33v1h-33zM85,252h32v1h-32zM152,252h45v1h-45zM229,252h71v1h-71zM449,252h63v1h-63zM25,253h33v1h-33zM85,253h32v1h-32zM151,253h45v1h-45zM230,253h69v1h-69zM450,253h62v1h-62zM25,254h33v1h-33zM85,254h32v1h-32zM150,254h45v1h-45zM231,254h67v1h-67zM451,254h61v1h-61zM24,255h33v1h-33zM85,255h32v1h-32zM149,255h45v1h-45zM232,255h65v1h-65zM452,255h60v1h-60zM24,256h33v1h-33zM85,256h32v1h-32zM148,256h45v1h-45zM233,256h63v1h-63zM453,256h59v1h-59zM24,257h33v1h-33zM85,257h32v1h-32zM147,257h45v1h-45zM234,257h62v1h-62zM453,257h59v1h-59zM24,258h33v1h-33zM85,258h32v1h-32zM146,258h45v1h-45zM235,258h60v1h-60zM454,258h58v1h-58zM23,259h33v1h-33zM85,259h32v1h-32zM145,259h45v1h-45zM236,259h58v1h-58zM455,259h57v1h-57zM23,260h33v1h-33zM85,260h32v1h-32zM144,260h45v1h-45zM237,260h56v1h-56zM456,260h56v1h-56zM23,261h33v1h-33zM85,261h32v1h-32zM143,261h45v1h-45zM238,261h54v1h-54zM457,261h55v1h-55zM22,262h34v1h-34zM85,262h32v1h-32zM142,262h45v1h-45zM239,262h52v1h-52zM458,262h54v1h-54zM22,263h33v1h-33zM85,263h32v1h-32zM141,263h45v1h-45zM240,263h51v1h-51zM459,263h53v1h-53zM22,264h33v1h-33zM85,264h32v1h-32zM140,264h45v1h-45zM241,264h49v1h-49zM459,264h53v1h-53zM22,265h33v1h-33zM85,265h32v1h-32zM139,265h45v1h-45zM242,265h47v1h-47zM460,265h52v1h-52zM21,266h33v1h-33zM85,266h32v1h-32zM138,266h45v1h-45zM243,266h45v1h-45zM461,266h51v1h-51zM21,267h33v1h-33zM85,267h32v1h-32zM137,267h45v1h-45zM244,267h43v1h-43zM462,267h50v1h-50zM21,268h33v1h-33zM85,268h32v1h-32zM136,268h45v1h-45zM245,268h41v1h-41zM463,268h49v1h-49zM21,269h33v1h-33zM85,269h32v1h-32zM135,269h45v1h-45zM246,269h40v1h-40zM464,269h48v1h-48zM20,270h33v1h-33zM85,270h32v1h-32zM134,270h45v1h-45zM247,270h38v1h-38zM465,270h47v1h-47zM20,271h33v1h-33zM85,271h32v1h-32zM133,271h45v1h-45zM248,271h36v1h-36zM465,271h47v1h-47zM20,272h33v1h-33zM85,272h32v1h-32zM132,272h45v1h-45zM249,272h34v1h-34zM466,272h46v1h-46zM20,273h33v1h-33zM85,273h32v1h-32zM131,273h45v1h-45zM250,273h32v1h-32zM467,273h45v1h-45zM19,274h33v1h-33zM85,274h32v1h-32zM130,274h45v1h-45zM251,274h31v1h-31zM468,274h44v1h-44zM19,275h33v1h-33zM85,275h32v1h-32zM129,275h45v1h-45zM252,275h29v1h-29zM469,275h43v1h-43zM19,276h33v1h-33zM85,276h32v1h-32zM128,276h45v1h-45zM253,276h27v1h-27zM470,276h42v1h-42zM19,277h33v1h-33zM85,277h32v1h-32zM127,277h45v1h-45zM254,277h25v1h-25zM471,277h41v1h-41zM18,278h33v1h-33zM85,278h32v1h-32zM126,278h45v1h-45zM255,278h23v1h-23zM471,278h41v1h-41zM18,279h33v1h-33zM85,279h32v1h-32zM125,279h45v1h-45zM256,279h21v1h-21zM472,279h40v1h-40zM18,280h33v1h-33zM85,280h32v1h-32zM124,280h45v1h-45zM258,280h18v1h-18zM473,280h39v1h-39zM18,281h33v1h-33zM85,281h32v1h-32zM123,281h45v1h-45zM259,281h15v1h-15zM474,281h38v1h-38zM17,282h33v1h-33zM85,282h32v1h-32zM122,282h45v1h-45zM262,282h10v1h-10zM475,282h37v1h-37zM17,283h33v1h-33zM85,283h32v1h-32zM121,283h45v1h-45zM476,283h36v1h-36zM17,284h33v1h-33zM85,284h32v1h-32zM120,284h45v1h-45zM477,284h35v1h-35zM16,285h34v1h-34zM85,285h32v1h-32zM119,285h45v1h-45zM477,285h35v1h-35zM16,286h33v1h-33zM85,286h32v1h-32zM118,286h45v1h-45zM478,286h34v1h-34zM16,287h33v1h-33zM85,287h77v1h-77zM479,287h33v1h-33zM16,288h33v1h-33zM85,288h76v1h-76zM480,288h32v1h-32zM15,289h33v1h-33zM85,289h75v1h-75zM480,289h32v1h-32zM15,290h33v1h-33zM85,290h74v1h-74zM480,290h32v1h-32zM15,291h33v1h-33zM85,291h73v1h-73zM480,291h32v1h-32zM15,292h33v1h-33zM85,292h72v1h-72zM480,292h32v1h-32zM14,293h33v1h-33zM85,293h71v1h-71zM480,293h32v1h-32zM14,294h33v1h-33zM85,294h70v1h-70zM480,294h32v1h-32zM14,295h33v1h-33zM85,295h69v1h-69zM480,295h32v1h-32zM14,296h33v1h-33zM85,296h68v1h-68zM480,296h32v1h-32zM13,297h33v1h-33zM85,297h67v1h-67zM480,297h32v1h-32zM13,298h33v1h-33zM85,298h66v1h-66zM480,298h32v1h-32zM13,299h33v1h-33zM85,299h65v1h-65zM480,299h32v1h-32zM13,300h33v1h-33zM85,300h64v1h-64zM480,300h32v1h-32zM12,301h33v1h-33zM85,301h63v1h-63zM480,301h32v1h-32zM12,302h33v1h-33zM85,302h62v1h-62zM480,302h32v1h-32zM12,303h33v1h-33zM85,303h61v1h-61zM480,303h32v1h-32zM12,304h33v1h-33zM85,304h60v1h-60zM480,304h32v1h-32zM11,305h33v1h-33zM85,305h59v1h-59zM480,305h32v1h-32zM11,306h33v1h-33zM85,306h58v1h-58zM480,306h32v1h-32zM11,307h33v1h-33zM85,307h57v1h-57zM480,307h32v1h-32zM10,308h34v1h-34zM85,308h56v1h-56zM480,308h32v1h-32zM10,309h33v1h-33zM85,309h55v1h-55zM480,309h32v1h-32zM10,310h33v1h-33zM85,310h54v1h-54zM480,310h32v1h-32zM10,311h33v1h-33zM85,311h53v1h-53zM480,311h32v1h-32zM9,312h33v1h-33zM85,312h52v1h-52zM480,312h32v1h-32zM9,313h33v1h-33zM85,313h51v1h-51zM480,313h32v1h-32zM9,314h33v1h-33zM85,314h50v1h-50zM480,314h32v1h-32zM9,315h33v1h-33zM85,315h49v1h-49zM480,315h32v1h-32zM8,316h33v1h-33zM85,316h48v1h-48zM480,316h32v1h-32zM8,317h33v1h-33zM85,317h47v1h-47zM480,317h32v1h-32zM8,318h33v1h-33zM85,318h46v1h-46zM480,318h32v1h-32zM8,319h33v1h-33zM86,319h44v1h-44zM479,319h33v1h-33zM7,320h33v1h-33zM86,320h43v1h-43zM479,320h33v1h-33zM7,321h33v1h-33zM86,321h42v1h-42zM479,321h33v1h-33zM7,322h33v1h-33zM86,322h41v1h-41zM478,322h33v1h-33zM7,323h33v1h-33zM86,323h40v1h-40zM478,323h33v1h-33zM6,324h33v1h-33zM86,324h39v1h-39zM477,324h34v1h-34zM6,325h33v1h-33zM86,325h38v1h-38zM476,325h35v1h-35zM6,326h33v1h-33zM86,326h37v1h-37zM475,326h36v1h-36zM6,327h33v1h-33zM86,327h37v1h-37zM474,327h36v1h-36zM5,328h33v1h-33zM86,328h38v1h-38zM473,328h37v1h-37zM5,329h33v1h-33zM86,329h40v1h-40zM471,329h39v1h-39zM5,330h33v1h-33zM87,330h41v1h-41zM469,330h40v1h-40zM4,331h34v1h-34zM87,331h422v1h-422zM4,332h33v1h-33zM87,332h422v1h-422zM4,333h33v1h-33zM88,333h420v1h-420zM4,334h33v1h-33zM89,334h419v1h-419zM3,335h33v1h-33zM89,335h418v1h-418zM3,336h33v1h-33zM90,336h417v1h-417zM3,337h33v1h-33zM91,337h416v1h-416zM3,338h33v1h-33zM91,338h415v1h-415zM2,339h33v1h-33zM92,339h413v1h-413zM2,340h33v1h-33zM93,340h412v1h-412zM2,341h33v1h-33zM93,341h411v1h-411zM2,342h33v1h-33zM94,342h410v1h-410zM1,343h33v1h-33zM95,343h408v1h-408zM1,344h33v1h-33zM95,344h407v1h-407zM1,345h33v1h-33zM96,345h405v1h-405zM1,346h33v1h-33zM97,346h403v1h-403zM1,347h32v1h-32zM98,347h402v1h-402zM0,348h33v1h-33zM99,348h400v1h-400zM0,349h33v1h-33zM100,349h398v1h-398zM0,350h33v1h-33zM101,350h396v1h-396zM0,351h32v1h-32zM102,351h394v1h-394zM0,352h32v1h-32zM103,352h391v1h-391zM0,353h32v1h-32zM104,353h389v1h-389zM0,354h32v1h-32zM106,354h386v1h-386zM0,355h32v1h-32zM107,355h383v1h-383zM0,356h32v1h-32zM109,356h380v1h-380zM0,357h32v1h-32zM110,357h377v1h-377zM0,358h32v1h-32zM112,358h373v1h-373zM0,359h33v1h-33zM115,359h368v1h-368zM0,360h33v1h-33zM117,360h363v1h-363zM0,361h34v1h-34zM120,361h357v1h-357zM1,362h33v1h-33zM125,362h348v1h-348zM1,363h34v1h-34zM1,364h34v1h-34zM1,365h35v1h-35zM1,366h36v1h-36zM2,367h36v1h-36zM2,368h37v1h-37zM2,369h39v1h-39zM3,370h41v1h-41zM3,371h45v1h-45zM3,372h48v1h-48zM4,373h51v1h-51zM4,374h55v1h-55zM5,375h58v1h-58zM5,376h61v1h-61zM6,377h64v1h-64zM6,378h68v1h-68zM7,379h71v1h-71zM8,380h73v1h-73zM8,381h77v1h-77zM9,382h80v1h-80zM10,383h83v1h-83zM10,384h86v1h-86zM11,385h89v1h-89zM12,386h92v1h-92zM13,387h94v1h-94zM14,388h97v1h-97zM15,389h100v1h-100zM16,390h103v1h-103zM416,390h8v1h-8zM17,391h105v1h-105zM413,391h14v1h-14zM18,392h108v1h-108zM411,392h17v1h-17zM19,393h111v1h-111zM410,393h20v1h-20zM21,394h112v1h-112zM409,394h22v1h-22zM22,395h115v1h-115zM408,395h24v1h-24zM24,396h117v1h-117zM407,396h26v1h-26zM26,397h119v1h-119zM406,397h27v1h-27zM28,398h121v1h-121zM406,398h28v1h-28zM30,399h122v1h-122zM405,399h29v1h-29zM33,400h123v1h-123zM405,400h30v1h-30zM36,401h124v1h-124zM405,401h30v1h-30zM40,402h123v1h-123zM404,402h31v1h-31zM43,403h124v1h-124zM404,403h32v1h-32zM47,404h124v1h-124zM404,404h32v1h-32zM51,405h124v1h-124zM403,405h33v1h-33zM55,406h123v1h-123zM403,406h33v1h-33zM58,407h124v1h-124zM403,407h33v1h-33zM62,408h124v1h-124zM403,408h33v1h-33zM66,409h123v1h-123zM403,409h32v1h-32zM70,410h123v1h-123zM402,410h33v1h-33zM73,411h124v1h-124zM402,411h33v1h-33zM77,412h124v1h-124zM402,412h33v1h-33zM81,413h124v1h-124zM402,413h32v1h-32zM85,414h123v1h-123zM401,414h33v1h-33zM88,415h124v1h-124zM401,415h33v1h-33zM92,416h124v1h-124zM401,416h33v1h-33zM96,417h123v1h-123zM401,417h32v1h-32zM99,418h124v1h-124zM400,418h33v1h-33zM103,419h124v1h-124zM400,419h33v1h-33zM107,420h124v1h-124zM400,420h33v1h-33zM111,421h123v1h-123zM400,421h33v1h-33zM114,422h124v1h-124zM399,422h33v1h-33zM118,423h124v1h-124zM399,423h33v1h-33zM122,424h124v1h-124zM399,424h33v1h-33zM126,425h123v1h-123zM399,425h33v1h-33zM129,426h124v1h-124zM398,426h33v1h-33zM133,427h124v1h-124zM398,427h33v1h-33zM137,428h124v1h-124zM398,428h33v1h-33zM141,429h123v1h-123zM398,429h33v1h-33zM144,430h124v1h-124zM397,430h33v1h-33zM148,431h124v1h-124zM397,431h33v1h-33zM152,432h123v1h-123zM397,432h33v1h-33zM155,433h124v1h-124zM397,433h33v1h-33zM159,434h124v1h-124zM396,434h33v1h-33zM163,435h124v1h-124zM396,435h33v1h-33zM167,436h123v1h-123zM396,436h33v1h-33zM170,437h124v1h-124zM396,437h33v1h-33zM174,438h124v1h-124zM395,438h33v1h-33zM178,439h124v1h-124zM395,439h33v1h-33zM182,440h123v1h-123zM395,440h33v1h-33zM185,441h124v1h-124zM395,441h33v1h-33zM189,442h124v1h-124zM394,442h33v1h-33zM193,443h124v1h-124zM394,443h33v1h-33zM197,444h123v1h-123zM394,444h33v1h-33zM200,445h124v1h-124zM394,445h33v1h-33zM204,446h124v1h-124zM393,446h33v1h-33zM208,447h123v1h-123zM393,447h33v1h-33zM212,448h123v1h-123zM393,448h33v1h-33zM215,449h124v1h-124zM392,449h34v1h-34zM219,450h124v1h-124zM392,450h33v1h-33zM223,451h123v1h-123zM391,451h34v1h-34zM226,452h124v1h-124zM391,452h34v1h-34zM230,453h124v1h-124zM390,453h35v1h-35zM234,454h124v1h-124zM389,454h35v1h-35zM238,455h123v1h-123zM388,455h36v1h-36zM241,456h124v1h-124zM387,456h37v1h-37zM245,457h124v1h-124zM385,457h38v1h-38zM249,458h123v1h-123zM383,458h40v1h-40zM252,459h171v1h-171zM256,460h166v1h-166zM260,461h162v1h-162zM264,462h158v1h-158zM267,463h154v1h-154zM271,464h150v1h-150zM275,465h145v1h-145zM279,466h141v1h-141zM282,467h137v1h-137zM286,468h132v1h-132zM290,469h128v1h-128zM294,470h123v1h-123zM297,471h119v1h-119zM301,472h115v1h-115zM305,473h110v1h-110zM309,474h105v1h-105zM312,475h101v1h-101zM316,476h96v1h-96zM320,477h91v1h-91zM324,478h86v1h-86zM327,479h82v1h-82zM331,480h77v1h-77zM335,481h72v1h-72zM338,482h67v1h-67zM342,483h62v1h-62zM346,484h56v1h-56zM350,485h50v1h-50zM353,486h46v1h-46zM357,487h39v1h-39zM361,488h33v1h-33zM364,489h27v1h-27zM369,490h17v1h-17z" fill="#000"/>
</svg>