<?xml version="1.0" encoding="UTF-8"?>
<svg xmlns="http://www.w3.org/2000/svg" width="512" height="512" viewBox="0 0 512 512">
<path d="M102,42h69v1h-69zM98,43h78v1h-78zM95,44h84v1h-84zM92,45h90v1h-90zM90,46h94v1h-94zM89,47h98v1h-98zM87,48h101v1h-101zM85,49h105v1h-105zM84,50h108v1h-108zM83,51h111v1h-111zM81,52h114v1h-114zM80,53h117v1h-117zM79,54h119v1h-119zM78,55h121v1h-121zM77,56h123v1h-123zM76,57h125v1h-125zM75,58h127v1h-127zM75,59h128v1h-128zM74,60h130v1h-130zM73,61h132v1h-132zM72,62h134v1h-134zM72,63h135v1h-135zM71,64h137v1h-137zM71,65h137v1h-137zM70,66h139v1h-139zM70,67h140v1h-140zM69,68h142v1h-142zM69,69h142v1h-142zM69,70h36v1h-36zM169,70h43v1h-43zM68,71h35v1h-35zM172,71h41v1h-41zM68,72h33v1h-33zM174,72h40v1h-40zM67,73h33v1h-33zM176,73h38v1h-38zM67,74h31v1h-31zM178,74h37v1h-37zM67,75h30v1h-30zM179,75h37v1h-37zM66,76h31v1h-31zM181,76h35v1h-35zM66,77h30v1h-30zM182,77h35v1h-35zM66,78h29v1h-29zM183,78h35v1h-35zM65,79h30v1h-30zM184,79h35v1h-35zM65,80h30v1h-30zM185,80h34v1h-34zM65,81h29v1h-29zM186,81h34v1h-34zM64,82h30v1h-30zM186,82h35v1h-35zM63,83h30v1h-30zM187,83h35v1h-35zM63,84h30v1h-30zM188,84h36v1h-36zM62,85h31v1h-31zM189,85h36v1h-36zM61,86h31v1h-31zM189,86h38v1h-38zM60,87h32v1h-32zM190,87h38v1h-38zM58,88h34v1h-34zM191,88h40v1h-40zM56,89h35v1h-35zM192,89h41v1h-41zM54,90h37v1h-37zM192,90h45v1h-45zM29,91h62v1h-62zM193,91h211v1h-211zM24,92h66v1h-66zM194,92h215v1h-215zM22,93h68v1h-68zM194,93h217v1h-217zM19,94h70v1h-70zM195,94h219v1h-219zM17,95h72v1h-72zM196,95h219v1h-219zM16,96h72v1h-72zM197,96h220v1h-220zM14,97h74v1h-74zM197,97h222v1h-222zM13,98h74v1h-74zM198,98h222v1h-222zM12,99h74v1h-74zM199,99h222v1h-222zM11,100h75v1h-75zM200,100h222v1h-222zM10,101h75v1h-75zM201,101h222v1h-222zM9,102h75v1h-75zM202,102h222v1h-222zM8,103h75v1h-75zM203,103h222v1h-222zM7,104h75v1h-75zM204,104h222v1h-222zM6,105h75v1h-75zM205,105h222v1h-222zM6,106h74v1h-74zM207,106h220v1h-220zM5,107h74v1h-74zM208,107h220v1h-220zM4,108h74v1h-74zM209,108h219v1h-219zM4,109h73v1h-73zM211,109h218v1h-218zM3,110h72v1h-72zM213,110h216v1h-216zM3,111h71v1h-71zM214,111h216v1h-216zM2,112h70v1h-70zM216,112h214v1h-214zM2,113h69v1h-69zM218,113h213v1h-213zM2,114h67v1h-67zM221,114h210v1h-210zM1,115h65v1h-65zM223,115h208v1h-208zM1,116h63v1h-63zM226,116h206v1h-206zM1,117h60v1h-60zM230,117h202v1h-202zM1,118h54v1h-54zM235,118h197v1h-197zM1,119h31v1h-31zM401,119h31v1h-31zM0,120h30v1h-30zM403,120h30v1h-30zM0,121h29v1h-29zM404,121h29v1h-29zM0,122h28v1h-28zM404,122h29v1h-29zM0,123h28v1h-28zM405,123h28v1h-28zM0,124h28v1h-28zM405,124h28v1h-28zM0,125h28v1h-28zM405,125h28v1h-28zM0,126h28v1h-28zM405,126h28v1h-28zM0,127h28v1h-28zM405,127h28v1h-28zM0,128h28v1h-28zM405,128h28v1h-28zM0,129h28v1h-28zM405,129h28v1h-28zM0,130h28v1h-28zM405,130h28v1h-28zM0,131h28v1h-28zM405,131h28v1h-28zM0,132h28v1h-28zM405,132h28v1h-28zM0,133h28v1h-28zM405,133h28v1h-28zM0,134h28v1h-28zM405,134h28v1h-28zM0,135h28v1h-28zM405,135h28v1h-28zM0,136h28v1h-28zM405,136h28v1h-28zM0,137h28v1h-28zM405,137h28v1h-28zM0,138h28v1h-28zM405,138h28v1h-28zM0,139h28v1h-28zM405,139h28v1h-28zM0,140h28v1h-28zM405,140h28v1h-28zM0,141h28v1h-28zM405,141h28v1h-28zM0,142h28v1h-28zM405,142h28v1h-28zM0,143h28v1h-28zM405,143h28v1h-28zM0,144h28v1h-28zM405,144h28v1h-28zM0,145h28v1h-28zM405,145h28v1h-28zM0,146h28v1h-28zM405,146h28v1h-28zM0,147h28v1h-28zM405,147h28v1h-28zM0,148h28v1h-28zM405,148h28v1h-28zM0,149h28v1h-28zM405,149h28v1h-28zM0,150h28v1h-28zM405,150h28v1h-28zM0,151h28v1h-28zM405,151h28v1h-28zM0,152h28v1h-28zM405,152h28v1h-28zM0,153h28v1h-28zM405,153h28v1h-28zM0,154h28v1h-28zM405,154h28v1h-28zM0,155h28v1h-28zM405,155h28v1h-28zM0,156h28v1h-28zM405,156h28v1h-28zM0,157h28v1h-28zM405,157h28v1h-28zM0,158h28v1h-28zM405,158h28v1h-28zM0,159h28v1h-28zM405,159h28v1h-28zM0,160h28v1h-28zM405,160h28v1h-28zM0,161h28v1h-28zM405,161h28v1h-28zM0,162h28v1h-28zM405,162h28v1h-28zM0,163h28v1h-28zM405,163h28v1h-28zM0,164h28v1h-28zM405,164h28v1h-28zM0,165h28v1h-28zM405,165h28v1h-28zM0,166h28v1h-28zM405,166h28v1h-28zM0,167h28v1h-28zM405,167h28v1h-28zM0,168h28v1h-28zM405,168h28v1h-28zM0,169h28v1h-28zM405,169h28v1h-28zM0,170h28v1h-28zM405,170h28v1h-28zM0,171h28v1h-28zM405,171h28v1h-28zM0,172h28v1h-28zM405,172h28v1h-28zM0,173h28v1h-28zM405,173h28v1h-28zM0,174h28v1h-28zM126,174h354v1h-354zM0,175h28v1h-28zM119,175h368v1h-368zM0,176h28v1h-28zM115,176h376v1h-376zM0,177h28v1h-28zM112,177h381v1h-381zM0,178h28v1h-28zM109,178h386v1h-386zM0,179h28v1h-28zM107,179h390v1h-390zM0,180h28v1h-28zM105,180h394v1h-394zM0,181h28v1h-28zM103,181h397v1h-397zM0,182h28v1h-28zM101,182h400v1h-400zM0,183h28v1h-28zM100,183h402v1h-402zM0,184h28v1h-28zM98,184h405v1h-405zM0,185h28v1h-28zM97,185h407v1h-407zM0,186h28v1h-28zM96,186h409v1h-409zM0,187h28v1h-28zM95,187h411v1h-411zM0,188h28v1h-28zM93,188h414v1h-414zM0,189h28v1h-28zM92,189h415v1h-415zM0,190h28v1h-28zM91,190h417v1h-417zM0,191h28v1h-28zM90,191h418v1h-418zM0,192h28v1h-28zM89,192h420v1h-420zM0,193h28v1h-28zM88,193h421v1h-421zM0,194h28v1h-28zM87,194h423v1h-423zM0,195h28v1h-28zM87,195h423v1h-423zM0,196h28v1h-28zM86,196h424v1h-424zM0,197h28v1h-28zM85,197h426v1h-426zM0,198h28v1h-28zM84,198h427v1h-427zM0,199h28v1h-28zM84,199h427v1h-427zM0,200h28v1h-28zM83,200h428v1h-428zM0,201h28v1h-28zM82,201h430v1h-430zM0,202h28v1h-28zM82,202h43v1h-43zM481,202h31v1h-31zM0,203h28v1h-28zM81,203h41v1h-41zM483,203h29v1h-29zM0,204h28v1h-28zM81,204h38v1h-38zM484,204h28v1h-28zM0,205h28v1h-28zM80,205h37v1h-37zM484,205h28v1h-28zM0,206h28v1h-28zM80,206h36v1h-36zM484,206h28v1h-28zM0,207h28v1h-28zM79,207h35v1h-35zM484,207h28v1h-28zM0,208h28v1h-28zM79,208h34v1h-34zM484,208h28v1h-28zM0,209h28v1h-28zM79,209h33v1h-33zM484,209h28v1h-28zM0,210h28v1h-28zM78,210h33v1h-33zM483,210h29v1h-29zM0,211h28v1h-28zM78,211h32v1h-32zM483,211h29v1h-29zM0,212h28v1h-28zM78,212h31v1h-31zM483,212h28v1h-28zM0,213h28v1h-28zM77,213h31v1h-31zM482,213h29v1h-29zM0,214h28v1h-28zM77,214h30v1h-30zM482,214h29v1h-29zM0,215h28v1h-28zM76,215h30v1h-30zM482,215h29v1h-29zM0,216h28v1h-28zM76,216h30v1h-30zM481,216h30v1h-30zM0,217h28v1h-28zM76,217h29v1h-29zM481,217h29v1h-29zM0,218h28v1h-28zM75,218h30v1h-30zM481,218h29v1h-29zM0,219h28v1h-28zM75,219h30v1h-30zM480,219h30v1h-30zM0,220h28v1h-28zM75,220h29v1h-29zM480,220h29v1h-29zM0,221h28v1h-28zM74,221h30v1h-30zM479,221h30v1h-30zM0,222h28v1h-28zM74,222h30v1h-30zM479,222h30v1h-30zM0,223h28v1h-28zM74,223h29v1h-29zM479,223h29v1h-29zM0,224h28v1h-28zM73,224h30v1h-30zM478,224h30v1h-30zM0,225h28v1h-28zM73,225h29v1h-29zM478,225h30v1h-30zM0,226h28v1h-28zM73,226h29v1h-29zM478,226h29v1h-29zM0,227h28v1h-28zM72,227h30v1h-30zM477,227h30v1h-30zM0,228h28v1h-28zM72,228h29v1h-29zM477,228h29v1h-29zM0,229h28v1h-28zM72,229h29v1h-29zM477,229h29v1h-29zM0,230h28v1h-28zM71,230h30v1h-30zM476,230h30v1h-30zM0,231h28v1h-28zM71,231h29v1h-29zM476,231h29v1h-29zM0,232h28v1h-28zM71,232h29v1h-29zM476,232h29v1h-29zM0,233h28v1h-28zM70,233h30v1h-30zM475,233h30v1h-30zM0,234h28v1h-28zM70,234h29v1h-29zM475,234h29v1h-29zM0,235h28v1h-28zM69,235h30v1h-30zM475,235h29v1h-29zM0,236h28v1h-28zM69,236h30v1h-30zM474,236h30v1h-30zM0,237h28v1h-28zM69,237h29v1h-29zM474,237h29v1h-29zM0,238h28v1h-28zM68,238h30v1h-30zM474,238h29v1h-29zM0,239h28v1h-28zM68,239h30v1h-30zM473,239h30v1h-30zM0,240h28v1h-28zM68,240h29v1h-29zM473,240h29v1h-29zM0,241h28v1h-28zM67,241h30v1h-30zM472,241h30v1h-30zM0,242h28v1h-28zM67,242h30v1h-30zM472,242h30v1h-30zM0,243h28v1h-28zM67,243h29v1h-29zM472,243h29v1h-29zM0,244h28v1h-28zM66,244h30v1h-30zM471,244h30v1h-30zM0,245h28v1h-28zM66,245h29v1h-29zM471,245h30v1h-30zM0,246h28v1h-28zM66,246h29v1h-29zM471,246h29v1h-29zM0,247h28v1h-28zM65,247h30v1h-30zM470,247h30v1h-30zM0,248h28v1h-28zM65,248h29v1h-29zM470,248h29v1h-29zM0,249h28v1h-28zM65,249h29v1h-29zM470,249h29v1h-29zM0,250h28v1h-28zM64,250h30v1h-30zM469,250h30v1h-30zM0,251h28v1h-28zM64,251h29v1h-29zM469,251h29v1h-29zM0,252h28v1h-28zM64,252h29v1h-29zM469,252h29v1h-29zM0,253h28v1h-28zM63,253h30v1h-30zM468,253h30v1h-30zM0,254h28v1h-28zM63,254h29v1h-29zM468,254h29v1h-29zM0,255h28v1h-28zM62,255h30v1h-30zM468,255h29v1h-29zM0,256h28v1h-28zM62,256h30v1h-30zM467,256h30v1h-30zM0,257h28v1h-28zM62,257h29v1h-29zM467,257h29v1h-29zM0,258h28v1h-28zM61,258h30v1h-30zM467,258h29v1h-29zM0,259h28v1h-28zM61,259h30v1h-30zM466,259h30v1h-30zM0,260h28v1h-28zM61,260h29v1h-29zM466,260h29v1h-29zM0,261h28v1h-28zM60,261h30v1h-30zM465,261h30v1h-30zM0,262h28v1h-28zM60,262h29v1h-29zM465,262h30v1h-30zM0,263h28v1h-28zM60,263h29v1h-29zM465,263h29v1h-29zM0,264h28v1h-28zM59,264h30v1h-30zM464,264h30v1h-30zM0,265h28v1h-28zM59,265h29v1h-29zM464,265h30v1h-30zM0,266h28v1h-28zM59,266h29v1h-29zM464,266h29v1h-29zM0,267h28v1h-28zM58,267h30v1h-30zM463,267h30v1h-30zM0,268h28v1h-28zM58,268h29v1h-29zM463,268h29v1h-29zM0,269h28v1h-28zM58,269h29v1h-29zM463,269h29v1h-29zM0,270h28v1h-28zM57,270h30v1h-30zM462,270h30v1h-30zM0,271h28v1h-28zM57,271h29v1h-29zM462,271h29v1h-29zM0,272h28v1h-28zM57,272h29v1h-29zM462,272h29v1h-29zM0,273h28v1h-28zM56,273h30v1h-30zM461,273h30v1h-30zM0,274h28v1h-28zM56,274h29v1h-29zM461,274h29v1h-29zM0,275h28v1h-28zM55,275h30v1h-30zM461,275h29v1h-29zM0,276h28v1h-28zM55,276h30v1h-30zM460,276h30v1h-30zM0,277h28v1h-28zM55,277h29v1h-29zM460,277h29v1h-29zM0,278h28v1h-28zM54,278h30v1h-30zM460,278h29v1h-29zM0,279h28v1h-28zM54,279h30v1h-30zM459,279h30v1h-30zM0,280h28v1h-28zM54,280h29v1h-29zM459,280h29v1h-29zM0,281h28v1h-28zM53,281h30v1h-30zM458,281h30v1h-30zM0,282h28v1h-28zM53,282h29v1h-29zM458,282h30v1h-30zM0,283h28v1h-28zM53,283h29v1h-29zM458,283h29v1h-29zM0,284h28v1h-28zM52,284h30v1h-30zM457,284h30v1h-30zM0,285h28v1h-28zM52,285h29v1h-29zM457,285h30v1h-30zM0,286h28v1h-28zM52,286h29v1h-29zM457,286h29v1h-29zM0,287h28v1h-28zM51,287h30v1h-30zM456,287h30v1h-30zM0,288h28v1h-28zM51,288h29v1h-29zM456,288h29v1h-29zM0,289h28v1h-28zM51,289h29v1h-29zM456,289h29v1h-29zM0,290h28v1h-28zM50,290h30v1h-30zM455,290h30v1h-30zM0,291h28v1h-28zM50,291h29v1h-29zM455,291h29v1h-29zM0,292h28v1h-28zM50,292h29v1h-29zM455,292h29v1h-29zM0,293h28v1h-28zM49,293h30v1h-30zM454,293h30v1h-30zM0,294h28v1h-28zM49,294h29v1h-29zM454,294h29v1h-29zM0,295h28v1h-28zM48,295h30v1h-30zM454,295h29v1h-29zM0,296h28v1h-28zM48,296h30v1h-30zM453,296h30v1h-30zM0,297h28v1h-28zM48,297h29v1h-29zM453,297h29v1h-29zM0,298h28v1h-28zM47,298h30v1h-30zM453,298h29v1h-29zM0,299h28v1h-28zM47,299h30v1h-30zM452,299h30v1h-30zM0,300h28v1h-28zM47,300h29v1h-29zM452,300h29v1h-29zM0,301h28v1h-28zM46,301h30v1h-30zM451,301h30v1h-30zM0,302h28v1h-28zM46,302h29v1h-29zM451,302h30v1h-30zM0,303h28v1h-28zM46,303h29v1h-29zM451,303h29v1h-29zM0,304h28v1h-28zM45,304h30v1h-30zM450,304h30v1h-30zM0,305h28v1h-28zM45,305h29v1h-29zM450,305h30v1h-30zM0,306h28v1h-28zM45,306h29v1h-29zM450,306h29v1h-29zM0,307h28v1h-28zM44,307h30v1h-30zM449,307h30v1h-30zM0,308h28v1h-28zM44,308h29v1h-29zM449,308h29v1h-29zM0,309h28v1h-28zM44,309h29v1h-29zM449,309h29v1h-29zM0,310h28v1h-28zM43,310h30v1h-30zM448,310h30v1h-30zM0,311h28v1h-28zM43,311h29v1h-29zM448,311h29v1h-29zM0,312h28v1h-28zM43,312h29v1h-29zM448,312h29v1h-29zM0,313h28v1h-28zM42,313h30v1h-30zM447,313h30v1h-30zM0,314h28v1h-28zM42,314h29v1h-29zM447,314h29v1h-29zM0,315h28v1h-28zM41,315h30v1h-30zM447,315h29v1h-29zM0,316h28v1h-28zM41,316h30v1h-30zM446,316h30v1h-30zM0,317h28v1h-28zM41,317h29v1h-29zM446,317h29v1h-29zM0,318h28v1h-28zM40,318h30v1h-30zM446,318h29v1h-29zM0,319h28v1h-28zM40,319h30v1h-30zM445,319h30v1h-30zM0,320h28v1h-28zM40,320h29v1h-29zM445,320h29v1h-29zM0,321h28v1h-28zM39,321h30v1h-30zM444,321h30v1h-30zM0,322h28v1h-28zM39,322h29v1h-29zM444,322h30v1h-30zM0,323h28v1h-28zM39,323h29v1h-29zM444,323h29v1h-29zM0,324h28v1h-28zM38,324h30v1h-30zM443,324h30v1h-30zM0,325h28v1h-28zM38,325h29v1h-29zM443,325h30v1h-30zM0,326h28v1h-28zM38,326h29v1h-29zM443,326h29v1h-29zM0,327h28v1h-28zM37,327h30v1h-30zM442,327h30v1h-30zM0,328h28v1h-28zM37,328h29v1h-29zM442,328h29v1h-29zM0,329h28v1h-28zM37,329h29v1h-29zM442,329h29v1h-29zM0,330h28v1h-28zM36,330h30v1h-30zM441,330h30v1h-30zM0,331h28v1h-28zM36,331h29v1h-29zM441,331h29v1h-29zM0,332h28v1h-28zM36,332h29v1h-29zM441,332h29v1h-29zM0,333h28v1h-28zM35,333h30v1h-30zM440,333h30v1h-30zM0,334h28v1h-28zM35,334h29v1h-29zM440,334h29v1h-29zM0,335h28v1h-28zM34,335h30v1h-30zM440,335h29v1h-29zM0,336h28v1h-28zM34,336h30v1h-30zM439,336h30v1h-30zM0,337h28v1h-28zM34,337h29v1h-29zM439,337h29v1h-29zM0,338h28v1h-28zM33,338h30v1h-30zM438,338h30v1h-30zM0,339h28v1h-28zM33,339h30v1h-30zM438,339h30v1h-30zM0,340h28v1h-28zM33,340h29v1h-29zM438,340h29v1h-29zM0,341h28v1h-28zM32,341h30v1h-30zM437,341h30v1h-30zM0,342h28v1h-28zM32,342h29v1h-29zM437,342h30v1h-30zM0,343h28v1h-28zM32,343h29v1h-29zM437,343h29v1h-29zM0,344h28v1h-28zM31,344h30v1h-30zM436,344h30v1h-30zM0,345h28v1h-28zM31,345h29v1h-29zM436,345h30v1h-30zM0,346h28v1h-28zM31,346h29v1h-29zM436,346h29v1h-29zM0,347h28v1h-28zM30,347h30v1h-30zM435,347h30v1h-30zM0,348h28v1h-28zM30,348h29v1h-29zM435,348h29v1h-29zM0,349h28v1h-28zM30,349h29v1h-29zM435,349h29v1h-29zM0,350h28v1h-28zM29,350h30v1h-30zM434,350h30v1h-30zM0,351h28v1h-28zM29,351h29v1h-29zM434,351h29v1h-29zM0,352h28v1h-28zM29,352h29v1h-29zM434,352h29v1h-29zM0,353h58v1h-58zM433,353h30v1h-30zM0,354h57v1h-57zM433,354h29v1h-29zM0,355h57v1h-57zM433,355h29v1h-29zM0,356h57v1h-57zM432,356h30v1h-30zM0,357h56v1h-56zM432,357h29v1h-29zM0,358h56v1h-56zM431,358h30v1h-30zM0,359h56v1h-56zM431,359h30v1h-30zM0,360h55v1h-55zM431,360h29v1h-29zM0,361h55v1h-55zM430,361h30v1h-30zM0,362h54v1h-54zM430,362h30v1h-30zM0,363h54v1h-54zM430,363h29v1h-29zM0,364h54v1h-54zM429,364h30v1h-30zM0,365h53v1h-53zM429,365h30v1h-30zM0,366h53v1h-53zM429,366h29v1h-29zM0,367h53v1h-53zM428,367h30v1h-30zM0,368h52v1h-52zM428,368h29v1h-29zM0,369h52v1h-52zM428,369h29v1h-29zM0,370h52v1h-52zM427,370h30v1h-30zM0,371h51v1h-51zM427,371h29v1h-29zM0,372h51v1h-51zM427,372h29v1h-29zM0,373h51v1h-51zM426,373h30v1h-30zM0,374h50v1h-50zM426,374h29v1h-29zM0,375h50v1h-50zM426,375h29v1h-29zM0,376h50v1h-50zM425,376h30v1h-30zM0,377h49v1h-49zM425,377h29v1h-29zM0,378h49v1h-49zM424,378h30v1h-30zM0,379h49v1h-49zM424,379h30v1h-30zM0,380h48v1h-48zM424,380h29v1h-29zM0,381h48v1h-48zM423,381h30v1h-30zM0,382h47v1h-47zM423,382h30v1h-30zM0,383h47v1h-47zM423,383h29v1h-29zM0,384h47v1h-47zM422,384h30v1h-30zM0,385h46v1h-46zM422,385h30v1h-30zM0,386h46v1h-46zM422,386h29v1h-29zM0,387h46v1h-46zM421,387h30v1h-30zM0,388h45v1h-45zM421,388h29v1h-29zM0,389h45v1h-45zM421,389h29v1h-29zM0,390h45v1h-45zM420,390h30v1h-30zM0,391h44v1h-44zM420,391h29v1h-29zM0,392h44v1h-44zM420,392h29v1h-29zM0,393h44v1h-44zM419,393h30v1h-30zM0,394h43v1h-43zM419,394h29v1h-29zM0,395h43v1h-43zM419,395h29v1h-29zM0,396h43v1h-43zM418,396h30v1h-30zM0,397h42v1h-42zM418,397h29v1h-29zM0,398h42v1h-42zM417,398h30v1h-30zM0,399h42v1h-42zM417,399h30v1h-30zM0,400h41v1h-41zM417,400h29v1h-29zM0,401h41v1h-41zM416,401h30v1h-30zM0,402h40v1h-40zM416,402h30v1h-30zM0,403h40v1h-40zM416,403h29v1h-29zM0,404h40v1h-40zM415,404h30v1h-30zM0,405h39v1h-39zM415,405h30v1h-30zM0,406h39v1h-39zM415,406h29v1h-29zM0,407h39v1h-39zM414,407h30v1h-30zM0,408h38v1h-38zM414,408h29v1h-29zM0,409h38v1h-38zM414,409h29v1h-29zM0,410h38v1h-38zM413,410h30v1h-30zM0,411h37v1h-37zM413,411h29v1h-29zM0,412h37v1h-37zM413,412h29v1h-29zM0,413h37v1h-37zM412,413h30v1h-30zM0,414h36v1h-36zM412,414h29v1h-29zM0,415h36v1h-36zM412,415h29v1h-29zM0,416h36v1h-36zM411,416h30v1h-30zM0,417h35v1h-35zM411,417h29v1h-29zM0,418h35v1h-35zM410,418h30v1h-30zM0,419h35v1h-35zM410,419h30v1h-30zM0,420h34v1h-34zM410,420h29v1h-29zM0,421h34v1h-34zM409,421h30v1h-30zM0,422h33v1h-33zM409,422h30v1h-30zM0,423h33v1h-33zM409,423h29v1h-29zM0,424h33v1h-33zM408,424h30v1h-30zM0,425h32v1h-32zM408,425h30v1h-30zM0,426h32v1h-32zM408,426h29v1h-29zM0,427h32v1h-32zM407,427h30v1h-30zM0,428h31v1h-31zM407,428h29v1h-29zM0,429h31v1h-31zM406,429h30v1h-30zM0,430h31v1h-31zM405,430h31v1h-31zM0,431h30v1h-30zM405,431h30v1h-30zM0,432h30v1h-30zM404,432h31v1h-31zM0,433h30v1h-30zM403,433h32v1h-32zM0,434h29v1h-29zM402,434h32v1h-32zM0,435h29v1h-29zM401,435h33v1h-33zM0,436h29v1h-29zM399,436h35v1h-35zM0,437h29v1h-29zM398,437h35v1h-35zM0,438h29v1h-29zM396,438h37v1h-37zM1,439h28v1h-28zM395,439h37v1h-37zM1,440h28v1h-28zM392,440h40v1h-40zM1,441h30v1h-30zM390,441h41v1h-41zM1,442h430v1h-430zM1,443h429v1h-429zM1,444h428v1h-428zM2,445h427v1h-427zM2,446h426v1h-426zM2,447h425v1h-425zM2,448h425v1h-425zM3,449h423v1h-423zM3,450h422v1h-422zM4,451h420v1h-420zM4,452h419v1h-419zM5,453h417v1h-417zM5,454h416v1h-416zM6,455h414v1h-414zM6,456h413v1h-413zM7,457h411v1h-411zM8,458h408v1h-408zM9,459h406v1h-406zM10,460h404v1h-404zM11,461h401v1h-401zM12,462h398v1h-398zM13,463h396v1h-396zM15,464h392v1h-392zM17,465h388v1h-388zM18,466h384v1h-384zM21,467h378v1h-378zM24,468h372v1h-372zM28,469h363v1h-363z" fill="#000"/>
</svg>