<?xml version="1.0" encoding="UTF-8"?>
<svg xmlns="http://www.w3.org/2000/svg" width="512" height="512" viewBox="0 0 512 512">
<path d="M52,0h369v1h-369zM47,1h375v1h-375zM43,2h380v1h-380zM40,3h384v1h-384zM37,4h388v1h-388zM35,5h391v1h-391zM33,6h394v1h-394zM31,7h397v1h-397zM29,8h400v1h-400zM28,9h402v1h-402zM26,10h405v1h-405zM25,11h407v1h-407zM23,12h410v1h-410zM22,13h412v1h-412zM21,14h414v1h-414zM20,15h416v1h-416zM19,16h418v1h-418zM18,17h420v1h-420zM17,18h422v1h-422zM16,19h424v1h-424zM15,20h426v1h-426zM14,21h428v1h-428zM13,22h430v1h-430zM12,23h432v1h-432zM12,24h433v1h-433zM11,25h435v1h-435zM10,26h437v1h-437zM10,27h438v1h-438zM9,28h440v1h-440zM8,29h442v1h-442zM8,30h443v1h-443zM7,31h445v1h-445zM7,32h446v1h-446zM6,33h448v1h-448zM6,34h449v1h-449zM5,35h451v1h-451zM5,36h452v1h-452zM4,37h454v1h-454zM4,38h455v1h-455zM4,39h456v1h-456zM3,40h53v1h-53zM117,40h40v1h-40zM276,40h40v1h-40zM356,40h40v1h-40zM404,40h57v1h-57zM3,41h49v1h-49zM117,41h40v1h-40zM276,41h40v1h-40zM356,41h40v1h-40zM405,41h57v1h-57zM3,42h47v1h-47zM117,42h40v1h-40zM276,42h40v1h-40zM356,42h40v1h-40zM406,42h57v1h-57zM2,43h47v1h-47zM117,43h40v1h-40zM276,43h40v1h-40zM356,43h40v1h-40zM407,43h57v1h-57zM2,44h45v1h-45zM117,44h40v1h-40zM276,44h40v1h-40zM356,44h40v1h-40zM408,44h57v1h-57zM2,45h44v1h-44zM117,45h40v1h-40zM276,45h40v1h-40zM356,45h40v1h-40zM409,45h57v1h-57zM2,46h43v1h-43zM117,46h40v1h-40zM276,46h40v1h-40zM356,46h40v1h-40zM410,46h57v1h-57zM1,47h43v1h-43zM117,47h40v1h-40zM276,47h40v1h-40zM356,47h40v1h-40zM411,47h57v1h-57zM1,48h43v1h-43zM117,48h40v1h-40zM276,48h40v1h-40zM356,48h40v1h-40zM412,48h57v1h-57zM1,49h42v1h-42zM117,49h40v1h-40zM276,49h40v1h-40zM356,49h40v1h-40zM413,49h57v1h-57zM1,50h41v1h-41zM117,50h40v1h-40zM276,50h40v1h-40zM356,50h40v1h-40zM414,50h57v1h-57zM1,51h41v1h-41zM117,51h40v1h-40zM276,51h40v1h-40zM356,51h40v1h-40zM415,51h57v1h-57zM0,52h41v1h-41zM117,52h40v1h-40zM276,52h40v1h-40zM356,52h40v1h-40zM416,52h57v1h-57zM0,53h41v1h-41zM117,53h40v1h-40zM276,53h40v1h-40zM356,53h40v1h-40zM417,53h57v1h-57zM0,54h41v1h-41zM117,54h40v1h-40zM276,54h40v1h-40zM356,54h40v1h-40zM418,54h57v1h-57zM0,55h41v1h-41zM117,55h40v1h-40zM276,55h40v1h-40zM356,55h40v1h-40zM419,55h57v1h-57zM0,56h40v1h-40zM117,56h40v1h-40zM276,56h40v1h-40zM356,56h40v1h-40zM420,56h57v1h-57zM0,57h40v1h-40zM117,57h40v1h-40zM276,57h40v1h-40zM356,57h40v1h-40zM421,57h57v1h-57zM0,58h40v1h-40zM117,58h40v1h-40zM276,58h40v1h-40zM356,58h40v1h-40zM422,58h57v1h-57zM0,59h40v1h-40zM117,59h40v1h-40zM276,59h40v1h-40zM356,59h40v1h-40zM423,59h57v1h-57zM0,60h40v1h-40zM117,60h40v1h-40zM276,60h40v1h-40zM356,60h40v1h-40zM424,60h57v1h-57zM0,61h40v1h-40zM117,61h40v1h-40zM276,61h40v1h-40zM356,61h40v1h-40zM425,61h57v1h-57zM0,62h40v1h-40zM117,62h40v1h-40zM276,62h40v1h-40zM356,62h40v1h-40zM426,62h57v1h-57zM0,63h40v1h-40zM117,63h40v1h-40zM276,63h40v1h-40zM356,63h40v1h-40zM427,63h57v1h-57zM0,64h40v1h-40zM117,64h40v1h-40zM276,64h40v1h-40zM356,64h40v1h-40zM428,64h57v1h-57zM0,65h40v1h-40zM117,65h40v1h-40zM276,65h40v1h-40zM356,65h40v1h-40zM429,65h57v1h-57zM0,66h40v1h-40zM117,66h40v1h-40zM276,66h40v1h-40zM356,66h40v1h-40zM430,66h57v1h-57zM0,67h40v1h-40zM117,67h40v1h-40zM276,67h40v1h-40zM356,67h40v1h-40zM431,67h57v1h-57zM0,68h40v1h-40zM117,68h40v1h-40zM276,68h40v1h-40zM356,68h40v1h-40zM432,68h57v1h-57zM0,69h40v1h-40zM117,69h40v1h-40zM276,69h40v1h-40zM356,69h40v1h-40zM433,69h57v1h-57zM0,70h40v1h-40zM117,70h40v1h-40zM276,70h40v1h-40zM356,70h40v1h-40zM434,70h57v1h-57zM0,71h40v1h-40zM117,71h40v1h-40zM276,71h40v1h-40zM356,71h40v1h-40zM435,71h57v1h-57zM0,72h40v1h-40zM117,72h40v1h-40zM276,72h40v1h-40zM356,72h40v1h-40zM436,72h57v1h-57zM0,73h40v1h-40zM117,73h40v1h-40zM276,73h40v1h-40zM356,73h40v1h-40zM437,73h57v1h-57zM0,74h40v1h-40zM117,74h40v1h-40zM276,74h40v1h-40zM356,74h40v1h-40zM438,74h57v1h-57zM0,75h40v1h-40zM117,75h40v1h-40zM276,75h40v1h-40zM356,75h40v1h-40zM439,75h57v1h-57zM0,76h40v1h-40zM117,76h40v1h-40zM276,76h40v1h-40zM356,76h40v1h-40zM440,76h57v1h-57zM0,77h40v1h-40zM117,77h40v1h-40zM276,77h40v1h-40zM356,77h40v1h-40zM441,77h57v1h-57zM0,78h40v1h-40zM117,78h40v1h-40zM276,78h40v1h-40zM356,78h40v1h-40zM442,78h57v1h-57zM0,79h40v1h-40zM117,79h40v1h-40zM276,79h40v1h-40zM356,79h40v1h-40zM443,79h57v1h-57zM0,80h40v1h-40zM117,80h40v1h-40zM276,80h40v1h-40zM356,80h40v1h-40zM444,80h57v1h-57zM0,81h40v1h-40zM117,81h40v1h-40zM276,81h40v1h-40zM356,81h40v1h-40zM445,81h57v1h-57zM0,82h40v1h-40zM117,82h40v1h-40zM276,82h40v1h-40zM356,82h40v1h-40zM446,82h57v1h-57zM0,83h40v1h-40zM117,83h40v1h-40zM276,83h40v1h-40zM356,83h40v1h-40zM447,83h57v1h-57zM0,84h40v1h-40zM117,84h40v1h-40zM276,84h40v1h-40zM356,84h40v1h-40zM448,84h57v1h-57zM0,85h40v1h-40zM117,85h40v1h-40zM276,85h40v1h-40zM356,85h40v1h-40zM449,85h57v1h-57zM0,86h40v1h-40zM117,86h40v1h-40zM276,86h40v1h-40zM356,86h40v1h-40zM450,86h57v1h-57zM0,87h40v1h-40zM117,87h40v1h-40zM276,87h40v1h-40zM356,87h40v1h-40zM451,87h57v1h-57zM0,88h40v1h-40zM117,88h40v1h-40zM276,88h40v1h-40zM356,88h40v1h-40zM452,88h57v1h-57zM0,89h40v1h-40zM117,89h40v1h-40zM276,89h40v1h-40zM356,89h40v1h-40zM453,89h57v1h-57zM0,90h40v1h-40zM117,90h40v1h-40zM276,90h40v1h-40zM356,90h40v1h-40zM454,90h57v1h-57zM0,91h40v1h-40zM117,91h40v1h-40zM276,91h40v1h-40zM356,91h40v1h-40zM455,91h57v1h-57zM0,92h40v1h-40zM117,92h40v1h-40zM276,92h40v1h-40zM356,92h40v1h-40zM456,92h56v1h-56zM0,93h40v1h-40zM117,93h40v1h-40zM276,93h40v1h-40zM356,93h40v1h-40zM457,93h55v1h-55zM0,94h40v1h-40zM117,94h40v1h-40zM276,94h40v1h-40zM356,94h40v1h-40zM458,94h54v1h-54zM0,95h40v1h-40zM117,95h40v1h-40zM276,95h40v1h-40zM356,95h40v1h-40zM459,95h53v1h-53zM0,96h40v1h-40zM117,96h40v1h-40zM276,96h40v1h-40zM356,96h40v1h-40zM460,96h52v1h-52zM0,97h40v1h-40zM117,97h40v1h-40zM276,97h40v1h-40zM356,97h40v1h-40zM461,97h51v1h-51zM0,98h40v1h-40zM117,98h40v1h-40zM276,98h40v1h-40zM356,98h40v1h-40zM462,98h50v1h-50zM0,99h40v1h-40zM117,99h40v1h-40zM276,99h40v1h-40zM356,99h40v1h-40zM463,99h49v1h-49zM0,100h40v1h-40zM117,100h40v1h-40zM276,100h40v1h-40zM356,100h40v1h-40zM464,100h48v1h-48zM0,101h40v1h-40zM117,101h40v1h-40zM276,101h40v1h-40zM356,101h40v1h-40zM465,101h47v1h-47zM0,102h40v1h-40zM117,102h40v1h-40zM276,102h40v1h-40zM356,102h40v1h-40zM466,102h46v1h-46zM0,103h40v1h-40zM117,103h40v1h-40zM276,103h40v1h-40zM356,103h40v1h-40zM467,103h45v1h-45zM0,104h40v1h-40zM117,104h40v1h-40zM276,104h40v1h-40zM356,104h40v1h-40zM468,104h44v1h-44zM0,105h40v1h-40zM117,105h40v1h-40zM276,105h40v1h-40zM356,105h40v1h-40zM469,105h43v1h-43zM0,106h40v1h-40zM117,106h40v1h-40zM276,106h40v1h-40zM356,106h40v1h-40zM470,106h42v1h-42zM0,107h40v1h-40zM117,107h40v1h-40zM276,107h40v1h-40zM356,107h40v1h-40zM471,107h41v1h-41zM0,108h40v1h-40zM117,108h40v1h-40zM276,108h40v1h-40zM356,108h40v1h-40zM472,108h40v1h-40zM0,109h40v1h-40zM117,109h40v1h-40zM276,109h40v1h-40zM356,109h40v1h-40zM472,109h40v1h-40zM0,110h40v1h-40zM117,110h40v1h-40zM276,110h40v1h-40zM356,110h40v1h-40zM472,110h40v1h-40zM0,111h40v1h-40zM117,111h40v1h-40zM276,111h40v1h-40zM356,111h40v1h-40zM472,111h40v1h-40zM0,112h40v1h-40zM117,112h40v1h-40zM276,112h40v1h-40zM356,112h40v1h-40zM472,112h40v1h-40zM0,113h40v1h-40zM117,113h40v1h-40zM276,113h40v1h-40zM356,113h40v1h-40zM472,113h40v1h-40zM0,114h40v1h-40zM117,114h40v1h-40zM276,114h40v1h-40zM356,114h40v1h-40zM472,114h40v1h-40zM0,115h40v1h-40zM117,115h40v1h-40zM276,115h40v1h-40zM356,115h40v1h-40zM472,115h40v1h-40zM0,116h40v1h-40zM117,116h40v1h-40zM356,116h40v1h-40zM472,116h40v1h-40zM0,117h40v1h-40zM117,117h40v1h-40zM356,117h40v1h-40zM472,117h40v1h-40zM0,118h40v1h-40zM117,118h40v1h-40zM356,118h40v1h-40zM472,118h40v1h-40zM0,119h40v1h-40zM117,119h40v1h-40zM356,119h40v1h-40zM472,119h40v1h-40zM0,120h40v1h-40zM117,120h40v1h-40zM356,120h40v1h-40zM472,120h40v1h-40zM0,121h40v1h-40zM117,121h40v1h-40zM356,121h40v1h-40zM472,121h40v1h-40zM0,122h40v1h-40zM117,122h40v1h-40zM356,122h40v1h-40zM472,122h40v1h-40zM0,123h40v1h-40zM117,123h40v1h-40zM356,123h40v1h-40zM472,123h40v1h-40zM0,124h40v1h-40zM117,124h40v1h-40zM356,124h40v1h-40zM472,124h40v1h-40zM0,125h40v1h-40zM117,125h40v1h-40zM356,125h40v1h-40zM472,125h40v1h-40zM0,126h40v1h-40zM117,126h40v1h-40zM356,126h40v1h-40zM472,126h40v1h-40zM0,127h40v1h-40zM117,127h40v1h-40zM356,127h40v1h-40zM472,127h40v1h-40zM0,128h40v1h-40zM117,128h40v1h-40zM356,128h40v1h-40zM472,128h40v1h-40zM0,129h40v1h-40zM117,129h40v1h-40zM356,129h40v1h-40zM472,129h40v1h-40zM0,130h40v1h-40zM117,130h40v1h-40zM356,130h40v1h-40zM472,130h40v1h-40zM0,131h40v1h-40zM117,131h40v1h-40zM356,131h40v1h-40zM472,131h40v1h-40zM0,132h40v1h-40zM117,132h40v1h-40zM356,132h40v1h-40zM472,132h40v1h-40zM0,133h40v1h-40zM117,133h40v1h-40zM356,133h40v1h-40zM472,133h40v1h-40zM0,134h40v1h-40zM117,134h40v1h-40zM356,134h40v1h-40zM472,134h40v1h-40zM0,135h40v1h-40zM117,135h40v1h-40zM356,135h40v1h-40zM472,135h40v1h-40zM0,136h40v1h-40zM117,136h40v1h-40zM356,136h40v1h-40zM472,136h40v1h-40zM0,137h40v1h-40zM117,137h40v1h-40zM356,137h40v1h-40zM472,137h40v1h-40zM0,138h40v1h-40zM117,138h40v1h-40zM356,138h40v1h-40zM472,138h40v1h-40zM0,139h40v1h-40zM117,139h40v1h-40zM356,139h40v1h-40zM472,139h40v1h-40zM0,140h40v1h-40zM117,140h41v1h-41zM355,140h41v1h-41zM472,140h40v1h-40zM0,141h40v1h-40zM117,141h41v1h-41zM355,141h41v1h-41zM472,141h40v1h-40zM0,142h40v1h-40zM117,142h41v1h-41zM355,142h41v1h-41zM472,142h40v1h-40zM0,143h40v1h-40zM117,143h41v1h-41zM355,143h41v1h-41zM472,143h40v1h-40zM0,144h40v1h-40zM118,144h41v1h-41zM354,144h41v1h-41zM472,144h40v1h-40zM0,145h40v1h-40zM118,145h41v1h-41zM354,145h41v1h-41zM472,145h40v1h-40zM0,146h40v1h-40zM118,146h42v1h-42zM353,146h42v1h-42zM472,146h40v1h-40zM0,147h40v1h-40zM118,147h43v1h-43zM352,147h43v1h-43zM472,147h40v1h-40zM0,148h40v1h-40zM118,148h43v1h-43zM352,148h43v1h-43zM472,148h40v1h-40zM0,149h40v1h-40zM119,149h43v1h-43zM351,149h43v1h-43zM472,149h40v1h-40zM0,150h40v1h-40zM119,150h44v1h-44zM350,150h44v1h-44zM472,150h40v1h-40zM0,151h40v1h-40zM119,151h45v1h-45zM349,151h45v1h-45zM472,151h40v1h-40zM0,152h40v1h-40zM119,152h47v1h-47zM347,152h47v1h-47zM472,152h40v1h-40zM0,153h40v1h-40zM120,153h47v1h-47zM346,153h47v1h-47zM472,153h40v1h-40zM0,154h40v1h-40zM120,154h49v1h-49zM344,154h49v1h-49zM472,154h40v1h-40zM0,155h40v1h-40zM120,155h53v1h-53zM340,155h53v1h-53zM472,155h40v1h-40zM0,156h40v1h-40zM121,156h271v1h-271zM472,156h40v1h-40zM0,157h40v1h-40zM121,157h271v1h-271zM472,157h40v1h-40zM0,158h40v1h-40zM121,158h271v1h-271zM472,158h40v1h-40zM0,159h40v1h-40zM122,159h269v1h-269zM472,159h40v1h-40zM0,160h40v1h-40zM122,160h269v1h-269zM472,160h40v1h-40zM0,161h40v1h-40zM123,161h267v1h-267zM472,161h40v1h-40zM0,162h40v1h-40zM123,162h267v1h-267zM472,162h40v1h-40zM0,163h40v1h-40zM124,163h265v1h-265zM472,163h40v1h-40zM0,164h40v1h-40zM124,164h265v1h-265zM472,164h40v1h-40zM0,165h40v1h-40zM125,165h263v1h-263zM472,165h40v1h-40zM0,166h40v1h-40zM125,166h263v1h-263zM472,166h40v1h-40zM0,167h40v1h-40zM126,167h261v1h-261zM472,167h40v1h-40zM0,168h40v1h-40zM127,168h259v1h-259zM472,168h40v1h-40zM0,169h40v1h-40zM127,169h259v1h-259zM472,169h40v1h-40zM0,170h40v1h-40zM128,170h257v1h-257zM472,170h40v1h-40zM0,171h40v1h-40zM129,171h255v1h-255zM472,171h40v1h-40zM0,172h40v1h-40zM129,172h255v1h-255zM472,172h40v1h-40zM0,173h40v1h-40zM130,173h253v1h-253zM472,173h40v1h-40zM0,174h40v1h-40zM131,174h251v1h-251zM472,174h40v1h-40zM0,175h40v1h-40zM132,175h249v1h-249zM472,175h40v1h-40zM0,176h40v1h-40zM133,176h247v1h-247zM472,176h40v1h-40zM0,177h40v1h-40zM134,177h245v1h-245zM472,177h40v1h-40zM0,178h40v1h-40zM135,178h243v1h-243zM472,178h40v1h-40zM0,179h40v1h-40zM136,179h241v1h-241zM472,179h40v1h-40zM0,180h40v1h-40zM137,180h239v1h-239zM472,180h40v1h-40zM0,181h40v1h-40zM138,181h237v1h-237zM472,181h40v1h-40zM0,182h40v1h-40zM139,182h235v1h-235zM472,182h40v1h-40zM0,183h40v1h-40zM140,183h233v1h-233zM472,183h40v1h-40zM0,184h40v1h-40zM142,184h229v1h-229zM472,184h40v1h-40zM0,185h40v1h-40zM143,185h227v1h-227zM472,185h40v1h-40zM0,186h40v1h-40zM145,186h223v1h-223zM472,186h40v1h-40zM0,187h40v1h-40zM146,187h221v1h-221zM472,187h40v1h-40zM0,188h40v1h-40zM148,188h217v1h-217zM472,188h40v1h-40zM0,189h40v1h-40zM150,189h213v1h-213zM472,189h40v1h-40zM0,190h40v1h-40zM152,190h209v1h-209zM472,190h40v1h-40zM0,191h40v1h-40zM154,191h205v1h-205zM472,191h40v1h-40zM0,192h40v1h-40zM157,192h199v1h-199zM472,192h40v1h-40zM0,193h40v1h-40zM160,193h193v1h-193zM472,193h40v1h-40zM0,194h40v1h-40zM164,194h185v1h-185zM472,194h40v1h-40zM0,195h40v1h-40zM169,195h175v1h-175zM472,195h40v1h-40zM0,196h40v1h-40zM472,196h40v1h-40zM0,197h40v1h-40zM472,197h40v1h-40zM0,198h40v1h-40zM472,198h40v1h-40zM0,199h40v1h-40zM472,199h40v1h-40zM0,200h40v1h-40zM472,200h40v1h-40zM0,201h40v1h-40zM472,201h40v1h-40zM0,202h40v1h-40zM472,202h40v1h-40zM0,203h40v1h-40zM472,203h40v1h-40zM0,204h40v1h-40zM472,204h40v1h-40zM0,205h40v1h-40zM472,205h40v1h-40zM0,206h40v1h-40zM472,206h40v1h-40zM0,207h40v1h-40zM472,207h40v1h-40zM0,208h40v1h-40zM472,208h40v1h-40zM0,209h40v1h-40zM472,209h40v1h-40zM0,210h40v1h-40zM472,210h40v1h-40zM0,211h40v1h-40zM472,211h40v1h-40zM0,212h40v1h-40zM472,212h40v1h-40zM0,213h40v1h-40zM472,213h40v1h-40zM0,214h40v1h-40zM472,214h40v1h-40zM0,215h40v1h-40zM472,215h40v1h-40zM0,216h40v1h-40zM472,216h40v1h-40zM0,217h40v1h-40zM472,217h40v1h-40zM0,218h40v1h-40zM472,218h40v1h-40zM0,219h40v1h-40zM472,219h40v1h-40zM0,220h40v1h-40zM472,220h40v1h-40zM0,221h40v1h-40zM472,221h40v1h-40zM0,222h40v1h-40zM472,222h40v1h-40zM0,223h40v1h-40zM472,223h40v1h-40zM0,224h40v1h-40zM472,224h40v1h-40zM0,225h40v1h-40zM472,225h40v1h-40zM0,226h40v1h-40zM472,226h40v1h-40zM0,227h40v1h-40zM472,227h40v1h-40zM0,228h40v1h-40zM472,228h40v1h-40zM0,229h40v1h-40zM472,229h40v1h-40zM0,230h40v1h-40zM472,230h40v1h-40zM0,231h40v1h-40zM472,231h40v1h-40zM0,232h40v1h-40zM472,232h40v1h-40zM0,233h40v1h-40zM472,233h40v1h-40zM0,234h40v1h-40zM472,234h40v1h-40zM0,235h40v1h-40zM472,235h40v1h-40zM0,236h40v1h-40zM129,236h255v1h-255zM472,236h40v1h-40zM0,237h40v1h-40zM124,237h265v1h-265zM472,237h40v1h-40zM0,238h40v1h-40zM120,238h273v1h-273zM472,238h40v1h-40zM0,239h40v1h-40zM117,239h279v1h-279zM472,239h40v1h-40zM0,240h40v1h-40zM114,240h285v1h-285zM472,240h40v1h-40zM0,241h40v1h-40zM112,241h289v1h-289zM472,241h40v1h-40zM0,242h40v1h-40zM110,242h293v1h-293zM472,242h40v1h-40zM0,243h40v1h-40zM108,243h297v1h-297zM472,243h40v1h-40zM0,244h40v1h-40zM106,244h301v1h-301zM472,244h40v1h-40zM0,245h40v1h-40zM105,245h303v1h-303zM472,245h40v1h-40zM0,246h40v1h-40zM103,246h307v1h-307zM472,246h40v1h-40zM0,247h40v1h-40zM102,247h309v1h-309zM472,247h40v1h-40zM0,248h40v1h-40zM100,248h313v1h-313zM472,248h40v1h-40zM0,249h40v1h-40zM99,249h315v1h-315zM472,249h40v1h-40zM0,250h40v1h-40zM98,250h317v1h-317zM472,250h40v1h-40zM0,251h40v1h-40zM97,251h319v1h-319zM472,251h40v1h-40zM0,252h40v1h-40zM96,252h321v1h-321zM472,252h40v1h-40zM0,253h40v1h-40zM95,253h323v1h-323zM472,253h40v1h-40zM0,254h40v1h-40zM94,254h325v1h-325zM472,254h40v1h-40zM0,255h40v1h-40zM93,255h327v1h-327zM472,255h40v1h-40zM0,256h40v1h-40zM92,256h329v1h-329zM472,256h40v1h-40zM0,257h40v1h-40zM91,257h331v1h-331zM472,257h40v1h-40zM0,258h40v1h-40zM90,258h333v1h-333zM472,258h40v1h-40zM0,259h40v1h-40zM89,259h335v1h-335zM472,259h40v1h-40zM0,260h40v1h-40zM89,260h335v1h-335zM472,260h40v1h-40zM0,261h40v1h-40zM88,261h337v1h-337zM472,261h40v1h-40zM0,262h40v1h-40zM87,262h339v1h-339zM472,262h40v1h-40zM0,263h40v1h-40zM87,263h339v1h-339zM472,263h40v1h-40zM0,264h40v1h-40zM86,264h341v1h-341zM472,264h40v1h-40zM0,265h40v1h-40zM85,265h343v1h-343zM472,265h40v1h-40zM0,266h40v1h-40zM85,266h343v1h-343zM472,266h40v1h-40zM0,267h40v1h-40zM84,267h345v1h-345zM472,267h40v1h-40zM0,268h40v1h-40zM84,268h345v1h-345zM472,268h40v1h-40zM0,269h40v1h-40zM83,269h347v1h-347zM472,269h40v1h-40zM0,270h40v1h-40zM83,270h347v1h-347zM472,270h40v1h-40zM0,271h40v1h-40zM82,271h349v1h-349zM472,271h40v1h-40zM0,272h40v1h-40zM82,272h349v1h-349zM472,272h40v1h-40zM0,273h40v1h-40zM81,273h351v1h-351zM472,273h40v1h-40zM0,274h40v1h-40zM81,274h351v1h-351zM472,274h40v1h-40zM0,275h40v1h-40zM81,275h351v1h-351zM472,275h40v1h-40zM0,276h40v1h-40zM80,276h53v1h-53zM380,276h53v1h-53zM472,276h40v1h-40zM0,277h40v1h-40zM80,277h49v1h-49zM384,277h49v1h-49zM472,277h40v1h-40zM0,278h40v1h-40zM80,278h47v1h-47zM386,278h47v1h-47zM472,278h40v1h-40zM0,279h40v1h-40zM79,279h47v1h-47zM387,279h47v1h-47zM472,279h40v1h-40zM0,280h40v1h-40zM79,280h45v1h-45zM389,280h45v1h-45zM472,280h40v1h-40zM0,281h40v1h-40zM79,281h44v1h-44zM390,281h44v1h-44zM472,281h40v1h-40zM0,282h40v1h-40zM79,282h43v1h-43zM391,282h43v1h-43zM472,282h40v1h-40zM0,283h40v1h-40zM78,283h43v1h-43zM392,283h43v1h-43zM472,283h40v1h-40zM0,284h40v1h-40zM78,284h43v1h-43zM392,284h43v1h-43zM472,284h40v1h-40zM0,285h40v1h-40zM78,285h42v1h-42zM393,285h42v1h-42zM472,285h40v1h-40zM0,286h40v1h-40zM78,286h41v1h-41zM394,286h41v1h-41zM472,286h40v1h-40zM0,287h40v1h-40zM78,287h41v1h-41zM394,287h41v1h-41zM472,287h40v1h-40zM0,288h40v1h-40zM77,288h41v1h-41zM395,288h41v1h-41zM472,288h40v1h-40zM0,289h40v1h-40zM77,289h41v1h-41zM395,289h41v1h-41zM472,289h40v1h-40zM0,290h40v1h-40zM77,290h41v1h-41zM395,290h41v1h-41zM472,290h40v1h-40zM0,291h40v1h-40zM77,291h41v1h-41zM395,291h41v1h-41zM472,291h40v1h-40zM0,292h40v1h-40zM77,292h40v1h-40zM396,292h40v1h-40zM472,292h40v1h-40zM0,293h40v1h-40zM77,293h40v1h-40zM396,293h40v1h-40zM472,293h40v1h-40zM0,294h40v1h-40zM77,294h40v1h-40zM396,294h40v1h-40zM472,294h40v1h-40zM0,295h40v1h-40zM77,295h40v1h-40zM396,295h40v1h-40zM472,295h40v1h-40zM0,296h40v1h-40zM77,296h40v1h-40zM396,296h40v1h-40zM472,296h40v1h-40zM0,297h40v1h-40zM77,297h40v1h-40zM396,297h40v1h-40zM472,297h40v1h-40zM0,298h40v1h-40zM77,298h40v1h-40zM396,298h40v1h-40zM472,298h40v1h-40zM0,299h40v1h-40zM77,299h40v1h-40zM396,299h40v1h-40zM472,299h40v1h-40zM0,300h40v1h-40zM77,300h40v1h-40zM396,300h40v1h-40zM472,300h40v1h-40zM0,301h40v1h-40zM77,301h40v1h-40zM396,301h40v1h-40zM472,301h40v1h-40zM0,302h40v1h-40zM77,302h40v1h-40zM396,302h40v1h-40zM472,302h40v1h-40zM0,303h40v1h-40zM77,303h40v1h-40zM396,303h40v1h-40zM472,303h40v1h-40zM0,304h40v1h-40zM77,304h40v1h-40zM396,304h40v1h-40zM472,304h40v1h-40zM0,305h40v1h-40zM77,305h40v1h-40zM396,305h40v1h-40zM472,305h40v1h-40zM0,306h40v1h-40zM77,306h40v1h-40zM396,306h40v1h-40zM472,306h40v1h-40zM0,307h40v1h-40zM77,307h40v1h-40zM396,307h40v1h-40zM472,307h40v1h-40zM0,308h40v1h-40zM77,308h40v1h-40zM396,308h40v1h-40zM472,308h40v1h-40zM0,309h40v1h-40zM77,309h40v1h-40zM396,309h40v1h-40zM472,309h40v1h-40zM0,310h40v1h-40zM77,310h40v1h-40zM396,310h40v1h-40zM472,310h40v1h-40zM0,311h40v1h-40zM77,311h40v1h-40zM396,311h40v1h-40zM472,311h40v1h-40zM0,312h40v1h-40zM77,312h40v1h-40zM396,312h40v1h-40zM472,312h40v1h-40zM0,313h40v1h-40zM77,313h40v1h-40zM396,313h40v1h-40zM472,313h40v1h-40zM0,314h40v1h-40zM77,314h40v1h-40zM396,314h40v1h-40zM472,314h40v1h-40zM0,315h40v1h-40zM77,315h40v1h-40zM396,315h40v1h-40zM472,315h40v1h-40zM0,316h40v1h-40zM77,316h40v1h-40zM396,316h40v1h-40zM472,316h40v1h-40zM0,317h40v1h-40zM77,317h40v1h-40zM396,317h40v1h-40zM472,317h40v1h-40zM0,318h40v1h-40zM77,318h40v1h-40zM396,318h40v1h-40zM472,318h40v1h-40zM0,319h40v1h-40zM77,319h40v1h-40zM396,319h40v1h-40zM472,319h40v1h-40zM0,320h40v1h-40zM77,320h40v1h-40zM396,320h40v1h-40zM472,320h40v1h-40zM0,321h40v1h-40zM77,321h40v1h-40zM396,321h40v1h-40zM472,321h40v1h-40zM0,322h40v1h-40zM77,322h40v1h-40zM396,322h40v1h-40zM472,322h40v1h-40zM0,323h40v1h-40zM77,323h40v1h-40zM396,323h40v1h-40zM472,323h40v1h-40zM0,324h40v1h-40zM77,324h40v1h-40zM396,324h40v1h-40zM472,324h40v1h-40zM0,325h40v1h-40zM77,325h40v1h-40zM396,325h40v1h-40zM472,325h40v1h-40zM0,326h40v1h-40zM77,326h40v1h-40zM396,326h40v1h-40zM472,326h40v1h-40zM0,327h40v1h-40zM77,327h40v1h-40zM396,327h40v1h-40zM472,327h40v1h-40zM0,328h40v1h-40zM77,328h40v1h-40zM396,328h40v1h-40zM472,328h40v1h-40zM0,329h40v1h-40zM77,329h40v1h-40zM396,329h40v1h-40zM472,329h40v1h-40zM0,330h40v1h-40zM77,330h40v1h-40zM396,330h40v1h-40zM472,330h40v1h-40zM0,331h40v1h-40zM77,331h40v1h-40zM396,331h40v1h-40zM472,331h40v1h-40zM0,332h40v1h-40zM77,332h40v1h-40zM396,332h40v1h-40zM472,332h40v1h-40zM0,333h40v1h-40zM77,333h40v1h-40zM396,333h40v1h-40zM472,333h40v1h-40zM0,334h40v1h-40zM77,334h40v1h-40zM396,334h40v1h-40zM472,334h40v1h-40zM0,335h40v1h-40zM77,335h40v1h-40zM396,335h40v1h-40zM472,335h40v1h-40zM0,336h40v1h-40zM77,336h40v1h-40zM396,336h40v1h-40zM472,336h40v1h-40zM0,337h40v1h-40zM77,337h40v1h-40zM396,337h40v1h-40zM472,337h40v1h-40zM0,338h40v1h-40zM77,338h40v1h-40zM396,338h40v1h-40zM472,338h40v1h-40zM0,339h40v1h-40zM77,339h40v1h-40zM396,339h40v1h-40zM472,339h40v1h-40zM0,340h40v1h-40zM77,340h40v1h-40zM396,340h40v1h-40zM472,340h40v1h-40zM0,341h40v1h-40zM77,341h40v1h-40zM396,341h40v1h-40zM472,341h40v1h-40zM0,342h40v1h-40zM77,342h40v1h-40zM396,342h40v1h-40zM472,342h40v1h-40zM0,343h40v1h-40zM77,343h40v1h-40zM396,343h40v1h-40zM472,343h40v1h-40zM0,344h40v1h-40zM77,344h40v1h-40zM396,344h40v1h-40zM472,344h40v1h-40zM0,345h40v1h-40zM77,345h40v1h-40zM396,345h40v1h-40zM472,345h40v1h-40zM0,346h40v1h-40zM77,346h40v1h-40zM396,346h40v1h-40zM472,346h40v1h-40zM0,347h40v1h-40zM77,347h40v1h-40zM396,347h40v1h-40zM472,347h40v1h-40zM0,348h40v1h-40zM77,348h40v1h-40zM396,348h40v1h-40zM472,348h40v1h-40zM0,349h40v1h-40zM77,349h40v1h-40zM396,349h40v1h-40zM472,349h40v1h-40zM0,350h40v1h-40zM77,350h40v1h-40zM396,350h40v1h-40zM472,350h40v1h-40zM0,351h40v1h-40zM77,351h40v1h-40zM396,351h40v1h-40zM472,351h40v1h-40zM0,352h40v1h-40zM77,352h40v1h-40zM396,352h40v1h-40zM472,352h40v1h-40zM0,353h40v1h-40zM77,353h40v1h-40zM396,353h40v1h-40zM472,353h40v1h-40zM0,354h40v1h-40zM77,354h40v1h-40zM396,354h40v1h-40zM472,354h40v1h-40zM0,355h40v1h-40zM77,355h40v1h-40zM396,355h40v1h-40zM472,355h40v1h-40zM0,356h40v1h-40zM77,356h40v1h-40zM396,356h40v1h-40zM472,356h40v1h-40zM0,357h40v1h-40zM77,357h40v1h-40zM396,357h40v1h-40zM472,357h40v1h-40zM0,358h40v1h-40zM77,358h40v1h-40zM396,358h40v1h-40zM472,358h40v1h-40zM0,359h40v1h-40zM77,359h40v1h-40zM396,359h40v1h-40zM472,359h40v1h-40zM0,360h40v1h-40zM77,360h40v1h-40zM396,360h40v1h-40zM472,360h40v1h-40zM0,361h40v1h-40zM77,361h40v1h-40zM396,361h40v1h-40zM472,361h40v1h-40zM0,362h40v1h-40zM77,362h40v1h-40zM396,362h40v1h-40zM472,362h40v1h-40zM0,363h40v1h-40zM77,363h40v1h-40zM396,363h40v1h-40zM472,363h40v1h-40zM0,364h40v1h-40zM77,364h40v1h-40zM396,364h40v1h-40zM472,364h40v1h-40zM0,365h40v1h-40zM77,365h40v1h-40zM396,365h40v1h-40zM472,365h40v1h-40zM0,366h40v1h-40zM77,366h40v1h-40zM396,366h40v1h-40zM472,366h40v1h-40zM0,367h40v1h-40zM77,367h40v1h-40zM396,367h40v1h-40zM472,367h40v1h-40zM0,368h40v1h-40zM77,368h40v1h-40zM396,368h40v1h-40zM472,368h40v1h-40zM0,369h40v1h-40zM77,369h40v1h-40zM396,369h40v1h-40zM472,369h40v1h-40zM0,370h40v1h-40zM77,370h40v1h-40zM396,370h40v1h-40zM472,370h40v1h-40zM0,371h40v1h-40zM77,371h40v1h-40zM396,371h40v1h-40zM472,371h40v1h-40zM0,372h40v1h-40zM77,372h40v1h-40zM396,372h40v1h-40zM472,372h40v1h-40zM0,373h40v1h-40zM77,373h40v1h-40zM396,373h40v1h-40zM472,373h40v1h-40zM0,374h40v1h-40zM77,374h40v1h-40zM396,374h40v1h-40zM472,374h40v1h-40zM0,375h40v1h-40zM77,375h40v1h-40zM396,375h40v1h-40zM472,375h40v1h-40zM0,376h40v1h-40zM77,376h40v1h-40zM396,376h40v1h-40zM472,376h40v1h-40zM0,377h40v1h-40zM77,377h40v1h-40zM396,377h40v1h-40zM472,377h40v1h-40zM0,378h40v1h-40zM77,378h40v1h-40zM396,378h40v1h-40zM472,378h40v1h-40zM0,379h40v1h-40zM77,379h40v1h-40zM396,379h40v1h-40zM472,379h40v1h-40zM0,380h40v1h-40zM77,380h40v1h-40zM396,380h40v1h-40zM472,380h40v1h-40zM0,381h40v1h-40zM77,381h40v1h-40zM396,381h40v1h-40zM472,381h40v1h-40zM0,382h40v1h-40zM77,382h40v1h-40zM396,382h40v1h-40zM472,382h40v1h-40zM0,383h40v1h-40zM77,383h40v1h-40zM396,383h40v1h-40zM472,383h40v1h-40zM0,384h40v1h-40zM77,384h40v1h-40zM396,384h40v1h-40zM472,384h40v1h-40zM0,385h40v1h-40zM77,385h40v1h-40zM396,385h40v1h-40zM472,385h40v1h-40zM0,386h40v1h-40zM77,386h40v1h-40zM396,386h40v1h-40zM472,386h40v1h-40zM0,387h40v1h-40zM77,387h40v1h-40zM396,387h40v1h-40zM472,387h40v1h-40zM0,388h40v1h-40zM77,388h40v1h-40zM396,388h40v1h-40zM472,388h40v1h-40zM0,389h40v1h-40zM77,389h40v1h-40zM396,389h40v1h-40zM472,389h40v1h-40zM0,390h40v1h-40zM77,390h40v1h-40zM396,390h40v1h-40zM472,390h40v1h-40zM0,391h40v1h-40zM77,391h40v1h-40zM396,391h40v1h-40zM472,391h40v1h-40zM0,392h40v1h-40zM77,392h40v1h-40zM396,392h40v1h-40zM472,392h40v1h-40zM0,393h40v1h-40zM77,393h40v1h-40zM396,393h40v1h-40zM472,393h40v1h-40zM0,394h40v1h-40zM77,394h40v1h-40zM396,394h40v1h-40zM472,394h40v1h-40zM0,395h40v1h-40zM77,395h40v1h-40zM396,395h40v1h-40zM472,395h40v1h-40zM0,396h40v1h-40zM77,396h40v1h-40zM396,396h40v1h-40zM472,396h40v1h-40zM0,397h40v1h-40zM77,397h40v1h-40zM396,397h40v1h-40zM472,397h40v1h-40zM0,398h40v1h-40zM77,398h40v1h-40zM396,398h40v1h-40zM472,398h40v1h-40zM0,399h40v1h-40zM77,399h40v1h-40zM396,399h40v1h-40zM472,399h40v1h-40zM0,400h40v1h-40zM77,400h40v1h-40zM396,400h40v1h-40zM472,400h40v1h-40zM0,401h40v1h-40zM77,401h40v1h-40zM396,401h40v1h-40zM472,401h40v1h-40zM0,402h40v1h-40zM77,402h40v1h-40zM396,402h40v1h-40zM472,402h40v1h-40zM0,403h40v1h-40zM77,403h40v1h-40zM396,403h40v1h-40zM472,403h40v1h-40zM0,404h40v1h-40zM77,404h40v1h-40zM396,404h40v1h-40zM472,404h40v1h-40zM0,405h40v1h-40zM77,405h40v1h-40zM396,405h40v1h-40zM472,405h40v1h-40zM0,406h40v1h-40zM77,406h40v1h-40zM396,406h40v1h-40zM472,406h40v1h-40zM0,407h40v1h-40zM77,407h40v1h-40zM396,407h40v1h-40zM472,407h40v1h-40zM0,408h40v1h-40zM77,408h40v1h-40zM396,408h40v1h-40zM472,408h40v1h-40zM0,409h40v1h-40zM77,409h40v1h-40zM396,409h40v1h-40zM472,409h40v1h-40zM0,410h40v1h-40zM77,410h40v1h-40zM396,410h40v1h-40zM472,410h40v1h-40zM0,411h40v1h-40zM77,411h40v1h-40zM396,411h40v1h-40zM472,411h40v1h-40zM0,412h40v1h-40zM77,412h40v1h-40zM396,412h40v1h-40zM472,412h40v1h-40zM0,413h40v1h-40zM77,413h40v1h-40zM396,413h40v1h-40zM472,413h40v1h-40zM0,414h40v1h-40zM77,414h40v1h-40zM396,414h40v1h-40zM472,414h40v1h-40zM0,415h40v1h-40zM77,415h40v1h-40zM396,415h40v1h-40zM472,415h40v1h-40zM0,416h40v1h-40zM77,416h40v1h-40zM396,416h40v1h-40zM472,416h40v1h-40zM0,417h40v1h-40zM77,417h40v1h-40zM396,417h40v1h-40zM472,417h40v1h-40zM0,418h40v1h-40zM77,418h40v1h-40zM396,418h40v1h-40zM472,418h40v1h-40zM0,419h40v1h-40zM77,419h40v1h-40zM396,419h40v1h-40zM472,419h40v1h-40zM0,420h40v1h-40zM77,420h40v1h-40zM396,420h40v1h-40zM472,420h40v1h-40zM0,421h40v1h-40zM77,421h40v1h-40zM396,421h40v1h-40zM472,421h40v1h-40zM0,422h40v1h-40zM77,422h40v1h-40zM396,422h40v1h-40zM472,422h40v1h-40zM0,423h40v1h-40zM77,423h40v1h-40zM396,423h40v1h-40zM472,423h40v1h-40zM0,424h40v1h-40zM77,424h40v1h-40zM396,424h40v1h-40zM472,424h40v1h-40zM0,425h40v1h-40zM77,425h40v1h-40zM396,425h40v1h-40zM472,425h40v1h-40zM0,426h40v1h-40zM77,426h40v1h-40zM396,426h40v1h-40zM472,426h40v1h-40zM0,427h40v1h-40zM77,427h40v1h-40zM396,427h40v1h-40zM472,427h40v1h-40zM0,428h40v1h-40zM77,428h40v1h-40zM396,428h40v1h-40zM472,428h40v1h-40zM0,429h40v1h-40zM77,429h40v1h-40zM396,429h40v1h-40zM472,429h40v1h-40zM0,430h40v1h-40zM77,430h40v1h-40zM396,430h40v1h-40zM472,430h40v1h-40zM0,431h40v1h-40zM77,431h40v1h-40zM396,431h40v1h-40zM472,431h40v1h-40zM0,432h40v1h-40zM77,432h40v1h-40zM396,432h40v1h-40zM472,432h40v1h-40zM0,433h40v1h-40zM77,433h40v1h-40zM396,433h40v1h-40zM472,433h40v1h-40zM0,434h40v1h-40zM77,434h40v1h-40zM396,434h40v1h-40zM472,434h40v1h-40zM0,435h40v1h-40zM77,435h40v1h-40zM396,435h40v1h-40zM472,435h40v1h-40zM0,436h40v1h-40zM77,436h40v1h-40zM396,436h40v1h-40zM472,436h40v1h-40zM0,437h40v1h-40zM77,437h40v1h-40zM396,437h40v1h-40zM472,437h40v1h-40zM0,438h40v1h-40zM77,438h40v1h-40zM396,438h40v1h-40zM472,438h40v1h-40zM0,439h40v1h-40zM77,439h40v1h-40zM396,439h40v1h-40zM472,439h40v1h-40zM0,440h40v1h-40zM77,440h40v1h-40zM396,440h40v1h-40zM472,440h40v1h-40zM0,441h40v1h-40zM77,441h40v1h-40zM396,441h40v1h-40zM472,441h40v1h-40zM0,442h40v1h-40zM77,442h40v1h-40zM396,442h40v1h-40zM472,442h40v1h-40zM0,443h40v1h-40zM77,443h40v1h-40zM396,443h40v1h-40zM472,443h40v1h-40zM0,444h40v1h-40zM77,444h40v1h-40zM396,444h40v1h-40zM472,444h40v1h-40zM0,445h40v1h-40zM77,445h40v1h-40zM396,445h40v1h-40zM472,445h40v1h-40zM0,446h40v1h-40zM77,446h40v1h-40zM396,446h40v1h-40zM472,446h40v1h-40zM0,447h40v1h-40zM77,447h40v1h-40zM396,447h40v1h-40zM472,447h40v1h-40zM0,448h40v1h-40zM77,448h40v1h-40zM396,448h40v1h-40zM472,448h40v1h-40zM0,449h40v1h-40zM77,449h40v1h-40zM396,449h40v1h-40zM472,449h40v1h-40zM0,450h40v1h-40zM77,450h40v1h-40zM396,450h40v1h-40zM472,450h40v1h-40zM0,451h40v1h-40zM77,451h40v1h-40zM396,451h40v1h-40zM472,451h40v1h-40zM0,452h40v1h-40zM77,452h40v1h-40zM396,452h40v1h-40zM472,452h40v1h-40zM0,453h40v1h-40zM77,453h40v1h-40zM396,453h40v1h-40zM472,453h40v1h-40zM0,454h40v1h-40zM77,454h40v1h-40zM396,454h40v1h-40zM472,454h40v1h-40zM0,455h40v1h-40zM77,455h40v1h-40zM396,455h40v1h-40zM472,455h40v1h-40zM0,456h41v1h-41zM77,456h40v1h-40zM396,456h40v1h-40zM471,456h41v1h-41zM0,457h41v1h-41zM77,457h40v1h-40zM396,457h40v1h-40zM471,457h41v1h-41zM0,458h41v1h-41zM77,458h40v1h-40zM396,458h40v1h-40zM471,458h41v1h-41zM0,459h41v1h-41zM77,459h40v1h-40zM396,459h40v1h-40zM471,459h41v1h-41zM1,460h41v1h-41zM77,460h40v1h-40zM396,460h40v1h-40zM470,460h41v1h-41zM1,461h41v1h-41zM77,461h40v1h-40zM396,461h40v1h-40zM470,461h41v1h-41zM1,462h42v1h-42zM77,462h40v1h-40zM396,462h40v1h-40zM469,462h42v1h-42zM1,463h43v1h-43zM77,463h40v1h-40zM396,463h40v1h-40zM468,463h43v1h-43zM1,464h43v1h-43zM77,464h40v1h-40zM396,464h40v1h-40zM468,464h43v1h-43zM2,465h43v1h-43zM77,465h40v1h-40zM396,465h40v1h-40zM467,465h43v1h-43zM2,466h44v1h-44zM77,466h40v1h-40zM396,466h40v1h-40zM466,466h44v1h-44zM2,467h45v1h-45zM77,467h40v1h-40zM396,467h40v1h-40zM465,467h45v1h-45zM2,468h47v1h-47zM77,468h40v1h-40zM396,468h40v1h-40zM463,468h47v1h-47zM3,469h47v1h-47zM77,469h40v1h-40zM396,469h40v1h-40zM462,469h47v1h-47zM3,470h49v1h-49zM77,470h40v1h-40zM396,470h40v1h-40zM460,470h49v1h-49zM3,471h53v1h-53zM77,471h40v1h-40zM396,471h40v1h-40zM456,471h53v1h-53zM4,472h504v1h-504zM4,473h504v1h-504zM4,474h504v1h-504zM5,475h502v1h-502zM5,476h502v1h-502zM6,477h500v1h-500zM6,478h500v1h-500zM7,479h498v1h-498zM7,480h498v1h-498zM8,481h496v1h-496zM8,482h496v1h-496zM9,483h494v1h-494zM10,484h492v1h-492zM10,485h492v1h-492zM11,486h490v1h-490zM12,487h488v1h-488zM12,488h488v1h-488zM13,489h486v1h-486zM14,490h484v1h-484zM15,491h482v1h-482zM16,492h480v1h-480zM17,493h478v1h-478zM18,494h476v1h-476zM19,495h474v1h-474zM20,496h472v1h-472zM21,497h470v1h-470zM22,498h468v1h-468zM23,499h466v1h-466zM25,500h462v1h-462zM26,501h460v1h-460zM28,502h456v1h-456zM29,503h454v1h-454zM31,504h450v1h-450zM33,505h446v1h-446zM35,506h442v1h-442zM37,507h438v1h-438zM40,508h432v1h-432zM43,509h426v1h-426zM47,510h418v1h-418zM52,511h408v1h-408z" fill="#000"/>
</svg>