<?xml version="1.0" encoding="UTF-8"?>
<svg xmlns="http://www.w3.org/2000/svg" width="1024" height="1024" viewBox="0 0 1024 1024">
<path d="M604,85h8v1h-8zM599,86h17v1h-17zM597,87h22v1h-22zM594,88h27v1h-27zM593,89h30v1h-30zM591,90h33v1h-33zM590,91h36v1h-36zM588,92h39v1h-39zM587,93h41v1h-41zM586,94h43v1h-43zM585,95h45v1h-45zM584,96h47v1h-47zM583,97h48v1h-48zM582,98h50v1h-50zM581,99h52v1h-52zM580,100h53v1h-53zM579,101h55v1h-55zM578,102h56v1h-56zM576,103h59v1h-59zM575,104h60v1h-60zM574,105h61v1h-61zM573,106h63v1h-63zM572,107h64v1h-64zM571,108h65v1h-65zM570,109h66v1h-66zM569,110h67v1h-67zM568,111h69v1h-69zM567,112h70v1h-70zM566,113h71v1h-71zM564,114h73v1h-73zM563,115h74v1h-74zM562,116h75v1h-75zM561,117h76v1h-76zM560,118h77v1h-77zM559,119h77v1h-77zM558,120h78v1h-78zM557,121h79v1h-79zM556,122h80v1h-80zM555,123h80v1h-80zM553,124h82v1h-82zM552,125h83v1h-83zM551,126h83v1h-83zM550,127h84v1h-84zM549,128h84v1h-84zM548,129h85v1h-85zM547,130h85v1h-85zM546,131h86v1h-86zM545,132h86v1h-86zM544,133h86v1h-86zM542,134h87v1h-87zM541,135h87v1h-87zM540,136h87v1h-87zM539,137h87v1h-87zM538,138h87v1h-87zM537,139h87v1h-87zM536,140h87v1h-87zM535,141h87v1h-87zM534,142h87v1h-87zM533,143h87v1h-87zM532,144h87v1h-87zM531,145h86v1h-86zM529,146h87v1h-87zM528,147h87v1h-87zM527,148h87v1h-87zM526,149h87v1h-87zM525,150h87v1h-87zM524,151h87v1h-87zM523,152h87v1h-87zM522,153h87v1h-87zM521,154h87v1h-87zM519,155h87v1h-87zM518,156h87v1h-87zM517,157h87v1h-87zM516,158h87v1h-87zM515,159h87v1h-87zM514,160h87v1h-87zM513,161h88v1h-88zM512,162h94v1h-94zM511,163h99v1h-99zM510,164h104v1h-104zM508,165h109v1h-109zM507,166h114v1h-114zM506,167h119v1h-119zM506,168h122v1h-122zM505,169h126v1h-126zM504,170h130v1h-130zM504,171h133v1h-133zM503,172h137v1h-137zM503,173h140v1h-140zM378,174h15v1h-15zM502,174h144v1h-144zM375,175h21v1h-21zM502,175h147v1h-147zM373,176h25v1h-25zM501,176h150v1h-150zM370,177h30v1h-30zM501,177h153v1h-153zM368,178h34v1h-34zM501,178h155v1h-155zM365,179h38v1h-38zM500,179h159v1h-159zM363,180h41v1h-41zM500,180h161v1h-161zM360,181h45v1h-45zM500,181h164v1h-164zM358,182h48v1h-48zM500,182h166v1h-166zM356,183h51v1h-51zM500,183h168v1h-168zM353,184h55v1h-55zM499,184h172v1h-172zM351,185h58v1h-58zM499,185h174v1h-174zM349,186h60v1h-60zM499,186h176v1h-176zM347,187h63v1h-63zM499,187h178v1h-178zM344,188h67v1h-67zM499,188h181v1h-181zM342,189h69v1h-69zM500,189h182v1h-182zM340,190h72v1h-72zM500,190h184v1h-184zM338,191h74v1h-74zM500,191h186v1h-186zM337,192h75v1h-75zM500,192h188v1h-188zM335,193h78v1h-78zM500,193h190v1h-190zM333,194h80v1h-80zM500,194h192v1h-192zM331,195h82v1h-82zM501,195h193v1h-193zM329,196h85v1h-85zM501,196h194v1h-194zM327,197h87v1h-87zM501,197h196v1h-196zM325,198h89v1h-89zM502,198h197v1h-197zM323,199h91v1h-91zM502,199h199v1h-199zM321,200h93v1h-93zM503,200h200v1h-200zM319,201h95v1h-95zM503,201h202v1h-202zM318,202h96v1h-96zM504,202h202v1h-202zM316,203h98v1h-98zM505,203h203v1h-203zM314,204h100v1h-100zM505,204h205v1h-205zM312,205h102v1h-102zM506,205h206v1h-206zM311,206h103v1h-103zM507,206h206v1h-206zM309,207h105v1h-105zM508,207h207v1h-207zM308,208h106v1h-106zM509,208h208v1h-208zM306,209h108v1h-108zM510,209h208v1h-208zM304,210h109v1h-109zM511,210h209v1h-209zM303,211h110v1h-110zM512,211h209v1h-209zM301,212h112v1h-112zM513,212h210v1h-210zM300,213h112v1h-112zM514,213h210v1h-210zM298,214h114v1h-114zM514,214h212v1h-212zM296,215h116v1h-116zM515,215h213v1h-213zM295,216h116v1h-116zM516,216h213v1h-213zM293,217h118v1h-118zM517,217h214v1h-214zM292,218h118v1h-118zM518,218h214v1h-214zM290,219h119v1h-119zM519,219h215v1h-215zM289,220h120v1h-120zM520,220h215v1h-215zM288,221h120v1h-120zM521,221h216v1h-216zM286,222h121v1h-121zM522,222h80v1h-80zM606,222h132v1h-132zM285,223h121v1h-121zM523,223h80v1h-80zM609,223h130v1h-130zM283,224h122v1h-122zM524,224h80v1h-80zM612,224h129v1h-129zM282,225h122v1h-122zM524,225h81v1h-81zM615,225h127v1h-127zM281,226h122v1h-122zM525,226h81v1h-81zM618,226h125v1h-125zM279,227h122v1h-122zM526,227h81v1h-81zM621,227h124v1h-124zM278,228h121v1h-121zM527,228h81v1h-81zM624,228h122v1h-122zM277,229h120v1h-120zM528,229h81v1h-81zM627,229h120v1h-120zM275,230h120v1h-120zM529,230h80v1h-80zM630,230h119v1h-119zM274,231h118v1h-118zM530,231h80v1h-80zM632,231h118v1h-118zM273,232h117v1h-117zM531,232h80v1h-80zM635,232h116v1h-116zM271,233h116v1h-116zM532,233h80v1h-80zM637,233h116v1h-116zM270,234h115v1h-115zM533,234h80v1h-80zM640,234h114v1h-114zM269,235h113v1h-113zM534,235h80v1h-80zM642,235h113v1h-113zM268,236h112v1h-112zM535,236h80v1h-80zM645,236h112v1h-112zM266,237h111v1h-111zM536,237h80v1h-80zM647,237h111v1h-111zM265,238h110v1h-110zM537,238h80v1h-80zM649,238h110v1h-110zM264,239h109v1h-109zM537,239h81v1h-81zM651,239h109v1h-109zM263,240h108v1h-108zM538,240h81v1h-81zM653,240h109v1h-109zM261,241h108v1h-108zM539,241h81v1h-81zM655,241h108v1h-108zM260,242h107v1h-107zM540,242h81v1h-81zM658,242h106v1h-106zM259,243h106v1h-106zM541,243h81v1h-81zM660,243h105v1h-105zM258,244h105v1h-105zM542,244h81v1h-81zM661,244h105v1h-105zM257,245h104v1h-104zM543,245h80v1h-80zM663,245h104v1h-104zM256,246h103v1h-103zM544,246h80v1h-80zM665,246h104v1h-104zM254,247h103v1h-103zM545,247h80v1h-80zM667,247h103v1h-103zM253,248h102v1h-102zM546,248h80v1h-80zM669,248h102v1h-102zM252,249h101v1h-101zM547,249h79v1h-79zM671,249h101v1h-101zM251,250h100v1h-100zM548,250h79v1h-79zM673,250h100v1h-100zM250,251h99v1h-99zM549,251h78v1h-78zM675,251h99v1h-99zM249,252h99v1h-99zM549,252h79v1h-79zM676,252h99v1h-99zM248,253h98v1h-98zM550,253h78v1h-78zM678,253h98v1h-98zM247,254h97v1h-97zM551,254h77v1h-77zM680,254h97v1h-97zM245,255h98v1h-98zM552,255h77v1h-77zM681,255h98v1h-98zM244,256h97v1h-97zM553,256h76v1h-76zM683,256h97v1h-97zM243,257h96v1h-96zM554,257h75v1h-75zM685,257h96v1h-96zM242,258h96v1h-96zM555,258h74v1h-74zM686,258h96v1h-96zM241,259h95v1h-95zM556,259h73v1h-73zM688,259h95v1h-95zM240,260h94v1h-94zM557,260h73v1h-73zM690,260h94v1h-94zM239,261h94v1h-94zM558,261h72v1h-72zM691,261h94v1h-94zM238,262h93v1h-93zM559,262h71v1h-71zM693,262h93v1h-93zM237,263h93v1h-93zM560,263h70v1h-70zM694,263h93v1h-93zM236,264h92v1h-92zM561,264h69v1h-69zM696,264h92v1h-92zM235,265h92v1h-92zM562,265h68v1h-68zM697,265h92v1h-92zM234,266h91v1h-91zM562,266h68v1h-68zM699,266h91v1h-91zM233,267h91v1h-91zM563,267h67v1h-67zM700,267h91v1h-91zM232,268h90v1h-90zM564,268h65v1h-65zM702,268h90v1h-90zM231,269h90v1h-90zM565,269h64v1h-64zM703,269h90v1h-90zM230,270h90v1h-90zM566,270h63v1h-63zM705,270h89v1h-89zM229,271h89v1h-89zM567,271h62v1h-62zM706,271h89v1h-89zM228,272h89v1h-89zM568,272h61v1h-61zM707,272h89v1h-89zM227,273h88v1h-88zM569,273h59v1h-59zM709,273h88v1h-88zM226,274h88v1h-88zM570,274h58v1h-58zM710,274h88v1h-88zM225,275h88v1h-88zM571,275h57v1h-57zM711,275h88v1h-88zM224,276h87v1h-87zM572,276h55v1h-55zM713,276h87v1h-87zM223,277h87v1h-87zM573,277h54v1h-54zM714,277h87v1h-87zM223,278h86v1h-86zM574,278h52v1h-52zM715,278h87v1h-87zM222,279h86v1h-86zM575,279h51v1h-51zM717,279h85v1h-85zM221,280h85v1h-85zM575,280h50v1h-50zM718,280h85v1h-85zM220,281h85v1h-85zM576,281h48v1h-48zM719,281h85v1h-85zM219,282h85v1h-85zM577,282h47v1h-47zM720,282h85v1h-85zM218,283h84v1h-84zM578,283h45v1h-45zM722,283h84v1h-84zM217,284h84v1h-84zM579,284h43v1h-43zM723,284h84v1h-84zM216,285h84v1h-84zM580,285h41v1h-41zM724,285h84v1h-84zM215,286h84v1h-84zM581,286h39v1h-39zM725,286h84v1h-84zM215,287h83v1h-83zM582,287h37v1h-37zM727,287h83v1h-83zM214,288h82v1h-82zM584,288h33v1h-33zM728,288h82v1h-82zM213,289h82v1h-82zM585,289h31v1h-31zM729,289h82v1h-82zM212,290h82v1h-82zM587,290h27v1h-27zM730,290h82v1h-82zM211,291h82v1h-82zM589,291h23v1h-23zM731,291h82v1h-82zM210,292h82v1h-82zM592,292h17v1h-17zM732,292h82v1h-82zM209,293h82v1h-82zM597,293h8v1h-8zM733,293h82v1h-82zM209,294h81v1h-81zM734,294h81v1h-81zM208,295h80v1h-80zM736,295h80v1h-80zM207,296h80v1h-80zM737,296h80v1h-80zM206,297h80v1h-80zM738,297h80v1h-80zM205,298h80v1h-80zM739,298h80v1h-80zM205,299h79v1h-79zM740,299h80v1h-80zM204,300h79v1h-79zM741,300h79v1h-79zM203,301h79v1h-79zM742,301h79v1h-79zM202,302h79v1h-79zM743,302h79v1h-79zM201,303h79v1h-79zM744,303h79v1h-79zM201,304h78v1h-78zM745,304h78v1h-78zM200,305h78v1h-78zM746,305h78v1h-78zM199,306h78v1h-78zM747,306h78v1h-78zM198,307h78v1h-78zM748,307h78v1h-78zM198,308h77v1h-77zM749,308h77v1h-77zM197,309h77v1h-77zM750,309h77v1h-77zM196,310h77v1h-77zM751,310h77v1h-77zM195,311h77v1h-77zM752,311h77v1h-77zM195,312h76v1h-76zM753,312h77v1h-77zM194,313h76v1h-76zM754,313h76v1h-76zM193,314h76v1h-76zM755,314h76v1h-76zM192,315h76v1h-76zM756,315h76v1h-76zM192,316h75v1h-75zM757,316h75v1h-75zM191,317h75v1h-75zM758,317h75v1h-75zM190,318h75v1h-75zM759,318h75v1h-75zM190,319h74v1h-74zM760,319h75v1h-75zM189,320h75v1h-75zM760,320h75v1h-75zM188,321h75v1h-75zM761,321h75v1h-75zM188,322h74v1h-74zM762,322h75v1h-75zM187,323h74v1h-74zM763,323h74v1h-74zM186,324h74v1h-74zM764,324h74v1h-74zM185,325h74v1h-74zM765,325h74v1h-74zM185,326h73v1h-73zM766,326h73v1h-73zM184,327h73v1h-73zM767,327h73v1h-73zM183,328h74v1h-74zM767,328h74v1h-74zM183,329h73v1h-73zM768,329h73v1h-73zM182,330h73v1h-73zM769,330h73v1h-73zM181,331h73v1h-73zM770,331h73v1h-73zM181,332h72v1h-72zM771,332h72v1h-72zM180,333h72v1h-72zM772,333h72v1h-72zM180,334h72v1h-72zM772,334h73v1h-73zM179,335h72v1h-72zM773,335h72v1h-72zM178,336h72v1h-72zM774,336h72v1h-72zM178,337h71v1h-71zM775,337h71v1h-71zM177,338h72v1h-72zM776,338h71v1h-71zM177,339h71v1h-71zM776,339h72v1h-72zM176,340h71v1h-71zM777,340h71v1h-71zM175,341h71v1h-71zM778,341h71v1h-71zM175,342h70v1h-70zM384,342h9v1h-9zM779,342h71v1h-71zM174,343h71v1h-71zM379,343h18v1h-18zM779,343h71v1h-71zM173,344h71v1h-71zM377,344h23v1h-23zM780,344h71v1h-71zM173,345h70v1h-70zM375,345h27v1h-27zM781,345h70v1h-70zM172,346h70v1h-70zM373,346h31v1h-31zM782,346h70v1h-70zM172,347h70v1h-70zM371,347h34v1h-34zM782,347h70v1h-70zM171,348h70v1h-70zM370,348h37v1h-37zM783,348h70v1h-70zM170,349h70v1h-70zM369,349h39v1h-39zM784,349h70v1h-70zM170,350h69v1h-69zM367,350h42v1h-42zM785,350h69v1h-69zM169,351h70v1h-70zM366,351h44v1h-44zM785,351h70v1h-70zM169,352h69v1h-69zM365,352h46v1h-46zM786,352h69v1h-69zM168,353h69v1h-69zM363,353h49v1h-49zM787,353h69v1h-69zM168,354h69v1h-69zM362,354h51v1h-51zM787,354h69v1h-69zM167,355h69v1h-69zM361,355h52v1h-52zM788,355h69v1h-69zM167,356h68v1h-68zM359,356h55v1h-55zM597,356h14v1h-14zM789,356h68v1h-68zM166,357h69v1h-69zM358,357h56v1h-56zM588,357h32v1h-32zM789,357h69v1h-69zM165,358h69v1h-69zM357,358h58v1h-58zM583,358h43v1h-43zM790,358h69v1h-69zM165,359h68v1h-68zM355,359h61v1h-61zM578,359h52v1h-52zM791,359h68v1h-68zM164,360h68v1h-68zM354,360h62v1h-62zM574,360h60v1h-60zM791,360h69v1h-69zM164,361h68v1h-68zM352,361h64v1h-64zM571,361h66v1h-66zM792,361h68v1h-68zM163,362h68v1h-68zM351,362h66v1h-66zM568,362h72v1h-72zM793,362h68v1h-68zM163,363h68v1h-68zM350,363h67v1h-67zM565,363h78v1h-78zM793,363h68v1h-68zM162,364h68v1h-68zM348,364h69v1h-69zM563,364h82v1h-82zM794,364h68v1h-68zM162,365h67v1h-67zM347,365h71v1h-71zM561,365h86v1h-86zM795,365h67v1h-67zM161,366h68v1h-68zM346,366h72v1h-72zM558,366h91v1h-91zM795,366h68v1h-68zM161,367h67v1h-67zM344,367h74v1h-74zM556,367h95v1h-95zM796,367h67v1h-67zM160,368h67v1h-67zM343,368h75v1h-75zM555,368h98v1h-98zM797,368h67v1h-67zM160,369h67v1h-67zM342,369h76v1h-76zM553,369h102v1h-102zM797,369h67v1h-67zM159,370h67v1h-67zM340,370h78v1h-78zM551,370h106v1h-106zM798,370h67v1h-67zM159,371h67v1h-67zM339,371h80v1h-80zM549,371h109v1h-109zM798,371h67v1h-67zM158,372h67v1h-67zM338,372h81v1h-81zM548,372h112v1h-112zM799,372h67v1h-67zM158,373h66v1h-66zM336,373h83v1h-83zM546,373h115v1h-115zM800,373h66v1h-66zM157,374h67v1h-67zM335,374h84v1h-84zM545,374h118v1h-118zM800,374h67v1h-67zM157,375h66v1h-66zM334,375h85v1h-85zM543,375h121v1h-121zM801,375h66v1h-66zM156,376h67v1h-67zM332,376h87v1h-87zM542,376h124v1h-124zM802,376h66v1h-66zM156,377h66v1h-66zM331,377h88v1h-88zM541,377h126v1h-126zM802,377h66v1h-66zM155,378h66v1h-66zM330,378h89v1h-89zM539,378h129v1h-129zM803,378h66v1h-66zM155,379h66v1h-66zM328,379h91v1h-91zM538,379h132v1h-132zM803,379h66v1h-66zM154,380h66v1h-66zM327,380h92v1h-92zM537,380h134v1h-134zM804,380h66v1h-66zM154,381h66v1h-66zM325,381h94v1h-94zM536,381h136v1h-136zM804,381h66v1h-66zM153,382h66v1h-66zM324,382h95v1h-95zM535,382h138v1h-138zM805,382h66v1h-66zM153,383h65v1h-65zM323,383h96v1h-96zM534,383h140v1h-140zM806,383h65v1h-65zM152,384h66v1h-66zM322,384h97v1h-97zM533,384h142v1h-142zM806,384h66v1h-66zM152,385h65v1h-65zM320,385h99v1h-99zM532,385h144v1h-144zM807,385h65v1h-65zM152,386h65v1h-65zM319,386h100v1h-100zM531,386h146v1h-146zM807,386h66v1h-66zM151,387h65v1h-65zM317,387h102v1h-102zM530,387h148v1h-148zM808,387h65v1h-65zM151,388h65v1h-65zM316,388h103v1h-103zM529,388h150v1h-150zM808,388h65v1h-65zM150,389h65v1h-65zM315,389h104v1h-104zM528,389h152v1h-152zM809,389h65v1h-65zM150,390h65v1h-65zM314,390h105v1h-105zM527,390h154v1h-154zM809,390h65v1h-65zM149,391h65v1h-65zM312,391h107v1h-107zM526,391h156v1h-156zM810,391h65v1h-65zM149,392h65v1h-65zM311,392h108v1h-108zM525,392h158v1h-158zM810,392h65v1h-65zM148,393h65v1h-65zM309,393h110v1h-110zM524,393h160v1h-160zM811,393h65v1h-65zM148,394h65v1h-65zM308,394h111v1h-111zM523,394h161v1h-161zM811,394h65v1h-65zM148,395h64v1h-64zM307,395h112v1h-112zM523,395h162v1h-162zM812,395h65v1h-65zM147,396h65v1h-65zM305,396h114v1h-114zM522,396h164v1h-164zM812,396h65v1h-65zM147,397h64v1h-64zM304,397h115v1h-115zM521,397h166v1h-166zM813,397h64v1h-64zM146,398h65v1h-65zM303,398h116v1h-116zM520,398h167v1h-167zM813,398h65v1h-65zM146,399h64v1h-64zM302,399h117v1h-117zM520,399h168v1h-168zM814,399h64v1h-64zM146,400h64v1h-64zM301,400h118v1h-118zM519,400h170v1h-170zM814,400h65v1h-65zM145,401h64v1h-64zM300,401h119v1h-119zM518,401h171v1h-171zM815,401h64v1h-64zM145,402h64v1h-64zM299,402h120v1h-120zM518,402h172v1h-172zM815,402h64v1h-64zM144,403h64v1h-64zM299,403h120v1h-120zM517,403h174v1h-174zM816,403h64v1h-64zM144,404h64v1h-64zM298,404h121v1h-121zM516,404h175v1h-175zM816,404h64v1h-64zM143,405h64v1h-64zM297,405h122v1h-122zM516,405h176v1h-176zM817,405h64v1h-64zM143,406h64v1h-64zM297,406h122v1h-122zM515,406h178v1h-178zM817,406h64v1h-64zM143,407h63v1h-63zM296,407h123v1h-123zM515,407h178v1h-178zM818,407h63v1h-63zM142,408h64v1h-64zM296,408h123v1h-123zM514,408h180v1h-180zM818,408h64v1h-64zM142,409h63v1h-63zM295,409h124v1h-124zM513,409h181v1h-181zM819,409h63v1h-63zM142,410h63v1h-63zM295,410h124v1h-124zM513,410h182v1h-182zM819,410h64v1h-64zM141,411h63v1h-63zM295,411h124v1h-124zM512,411h183v1h-183zM820,411h63v1h-63zM141,412h63v1h-63zM294,412h125v1h-125zM512,412h184v1h-184zM820,412h63v1h-63zM140,413h64v1h-64zM294,413h125v1h-125zM511,413h185v1h-185zM820,413h64v1h-64zM140,414h63v1h-63zM294,414h125v1h-125zM511,414h186v1h-186zM821,414h63v1h-63zM140,415h63v1h-63zM294,415h125v1h-125zM510,415h85v1h-85zM613,415h84v1h-84zM821,415h63v1h-63zM139,416h63v1h-63zM293,416h126v1h-126zM510,416h81v1h-81zM617,416h81v1h-81zM822,416h63v1h-63zM139,417h63v1h-63zM293,417h126v1h-126zM509,417h79v1h-79zM620,417h78v1h-78zM822,417h63v1h-63zM139,418h62v1h-62zM293,418h126v1h-126zM509,418h76v1h-76zM622,418h77v1h-77zM823,418h62v1h-62zM138,419h63v1h-63zM293,419h126v1h-126zM509,419h74v1h-74zM624,419h75v1h-75zM823,419h63v1h-63zM138,420h63v1h-63zM293,420h126v1h-126zM508,420h74v1h-74zM626,420h73v1h-73zM823,420h63v1h-63zM138,421h62v1h-62zM293,421h126v1h-126zM508,421h72v1h-72zM628,421h72v1h-72zM824,421h62v1h-62zM137,422h63v1h-63zM293,422h126v1h-126zM507,422h71v1h-71zM629,422h71v1h-71zM824,422h63v1h-63zM137,423h62v1h-62zM293,423h126v1h-126zM507,423h70v1h-70zM631,423h70v1h-70zM825,423h62v1h-62zM137,424h62v1h-62zM293,424h126v1h-126zM507,424h69v1h-69zM632,424h69v1h-69zM825,424h62v1h-62zM136,425h63v1h-63zM294,425h125v1h-125zM506,425h69v1h-69zM633,425h68v1h-68zM825,425h63v1h-63zM136,426h62v1h-62zM294,426h125v1h-125zM506,426h67v1h-67zM634,426h68v1h-68zM826,426h62v1h-62zM136,427h62v1h-62zM294,427h125v1h-125zM506,427h66v1h-66zM635,427h67v1h-67zM826,427h62v1h-62zM135,428h62v1h-62zM294,428h125v1h-125zM505,428h66v1h-66zM636,428h66v1h-66zM827,428h62v1h-62zM135,429h62v1h-62zM295,429h124v1h-124zM505,429h65v1h-65zM637,429h66v1h-66zM827,429h62v1h-62zM135,430h62v1h-62zM295,430h63v1h-63zM359,430h60v1h-60zM505,430h65v1h-65zM638,430h65v1h-65zM827,430h62v1h-62zM134,431h62v1h-62zM295,431h62v1h-62zM359,431h60v1h-60zM504,431h65v1h-65zM639,431h64v1h-64zM828,431h62v1h-62zM134,432h62v1h-62zM296,432h60v1h-60zM359,432h60v1h-60zM504,432h64v1h-64zM639,432h64v1h-64zM828,432h62v1h-62zM134,433h62v1h-62zM296,433h58v1h-58zM359,433h60v1h-60zM504,433h63v1h-63zM640,433h64v1h-64zM828,433h62v1h-62zM134,434h61v1h-61zM297,434h56v1h-56zM359,434h60v1h-60zM504,434h63v1h-63zM641,434h63v1h-63zM829,434h62v1h-62zM133,435h62v1h-62zM297,435h55v1h-55zM359,435h60v1h-60zM503,435h63v1h-63zM641,435h63v1h-63zM829,435h62v1h-62zM133,436h62v1h-62zM298,436h52v1h-52zM359,436h60v1h-60zM503,436h63v1h-63zM642,436h62v1h-62zM829,436h62v1h-62zM133,437h61v1h-61zM299,437h50v1h-50zM359,437h60v1h-60zM503,437h62v1h-62zM642,437h63v1h-63zM830,437h62v1h-62zM132,438h62v1h-62zM299,438h49v1h-49zM359,438h60v1h-60zM503,438h62v1h-62zM643,438h62v1h-62zM830,438h62v1h-62zM132,439h62v1h-62zM300,439h46v1h-46zM359,439h60v1h-60zM503,439h61v1h-61zM644,439h61v1h-61zM831,439h61v1h-61zM132,440h61v1h-61zM301,440h44v1h-44zM359,440h60v1h-60zM502,440h62v1h-62zM644,440h61v1h-61zM831,440h61v1h-61zM131,441h62v1h-62zM302,441h42v1h-42zM359,441h60v1h-60zM502,441h61v1h-61zM644,441h61v1h-61zM831,441h62v1h-62zM131,442h62v1h-62zM303,442h39v1h-39zM359,442h60v1h-60zM502,442h61v1h-61zM645,442h61v1h-61zM832,442h61v1h-61zM131,443h61v1h-61zM305,443h36v1h-36zM359,443h60v1h-60zM502,443h60v1h-60zM645,443h61v1h-61zM832,443h61v1h-61zM131,444h61v1h-61zM306,444h34v1h-34zM359,444h60v1h-60zM502,444h60v1h-60zM646,444h60v1h-60zM832,444h61v1h-61zM130,445h62v1h-62zM307,445h31v1h-31zM359,445h60v1h-60zM502,445h60v1h-60zM646,445h60v1h-60zM833,445h61v1h-61zM130,446h61v1h-61zM309,446h27v1h-27zM359,446h60v1h-60zM502,446h59v1h-59zM646,446h60v1h-60zM833,446h61v1h-61zM130,447h61v1h-61zM311,447h23v1h-23zM359,447h60v1h-60zM501,447h60v1h-60zM646,447h60v1h-60zM833,447h61v1h-61zM130,448h61v1h-61zM314,448h18v1h-18zM359,448h60v1h-60zM501,448h60v1h-60zM647,448h59v1h-59zM833,448h61v1h-61zM129,449h61v1h-61zM317,449h11v1h-11zM359,449h60v1h-60zM501,449h60v1h-60zM647,449h60v1h-60zM834,449h61v1h-61zM129,450h61v1h-61zM359,450h60v1h-60zM501,450h59v1h-59zM647,450h60v1h-60zM834,450h61v1h-61zM129,451h61v1h-61zM359,451h60v1h-60zM501,451h59v1h-59zM647,451h60v1h-60zM834,451h61v1h-61zM129,452h60v1h-60zM359,452h60v1h-60zM501,452h59v1h-59zM647,452h60v1h-60zM835,452h60v1h-60zM128,453h61v1h-61zM359,453h60v1h-60zM501,453h59v1h-59zM647,453h60v1h-60zM835,453h61v1h-61zM128,454h61v1h-61zM359,454h60v1h-60zM501,454h59v1h-59zM648,454h59v1h-59zM835,454h61v1h-61zM128,455h61v1h-61zM359,455h60v1h-60zM501,455h59v1h-59zM648,455h59v1h-59zM836,455h60v1h-60zM128,456h60v1h-60zM359,456h60v1h-60zM501,456h59v1h-59zM648,456h59v1h-59zM836,456h60v1h-60zM127,457h61v1h-61zM359,457h60v1h-60zM501,457h59v1h-59zM648,457h59v1h-59zM836,457h61v1h-61zM127,458h61v1h-61zM359,458h60v1h-60zM501,458h59v1h-59zM648,458h59v1h-59zM836,458h61v1h-61zM127,459h60v1h-60zM359,459h60v1h-60zM501,459h59v1h-59zM648,459h59v1h-59zM837,459h60v1h-60zM127,460h60v1h-60zM359,460h60v1h-60zM501,460h59v1h-59zM648,460h59v1h-59zM837,460h60v1h-60zM126,461h61v1h-61zM359,461h60v1h-60zM501,461h59v1h-59zM648,461h59v1h-59zM837,461h61v1h-61zM126,462h61v1h-61zM359,462h60v1h-60zM501,462h59v1h-59zM648,462h59v1h-59zM837,462h61v1h-61zM126,463h60v1h-60zM359,463h60v1h-60zM501,463h59v1h-59zM648,463h59v1h-59zM838,463h60v1h-60zM126,464h60v1h-60zM359,464h60v1h-60zM501,464h59v1h-59zM648,464h59v1h-59zM838,464h60v1h-60zM126,465h60v1h-60zM359,465h60v1h-60zM501,465h59v1h-59zM648,465h59v1h-59zM838,465h60v1h-60zM125,466h61v1h-61zM359,466h60v1h-60zM501,466h59v1h-59zM648,466h59v1h-59zM838,466h61v1h-61zM125,467h60v1h-60zM359,467h60v1h-60zM501,467h59v1h-59zM648,467h59v1h-59zM839,467h60v1h-60zM125,468h60v1h-60zM359,468h60v1h-60zM501,468h59v1h-59zM648,468h59v1h-59zM839,468h60v1h-60zM125,469h60v1h-60zM359,469h60v1h-60zM501,469h59v1h-59zM648,469h59v1h-59zM839,469h60v1h-60zM125,470h60v1h-60zM359,470h60v1h-60zM501,470h59v1h-59zM648,470h59v1h-59zM839,470h60v1h-60zM124,471h60v1h-60zM359,471h60v1h-60zM501,471h59v1h-59zM648,471h59v1h-59zM840,471h60v1h-60zM124,472h60v1h-60zM359,472h60v1h-60zM501,472h59v1h-59zM648,472h59v1h-59zM840,472h60v1h-60zM124,473h60v1h-60zM359,473h60v1h-60zM501,473h59v1h-59zM648,473h59v1h-59zM840,473h60v1h-60zM124,474h60v1h-60zM359,474h60v1h-60zM501,474h59v1h-59zM648,474h59v1h-59zM840,474h60v1h-60zM124,475h59v1h-59zM359,475h60v1h-60zM501,475h59v1h-59zM648,475h59v1h-59zM840,475h60v1h-60zM123,476h60v1h-60zM359,476h60v1h-60zM501,476h59v1h-59zM648,476h59v1h-59zM841,476h60v1h-60zM123,477h60v1h-60zM359,477h60v1h-60zM501,477h59v1h-59zM648,477h59v1h-59zM841,477h60v1h-60zM123,478h60v1h-60zM359,478h60v1h-60zM501,478h59v1h-59zM648,478h59v1h-59zM841,478h60v1h-60zM123,479h60v1h-60zM359,479h60v1h-60zM501,479h59v1h-59zM648,479h59v1h-59zM841,479h60v1h-60zM123,480h59v1h-59zM359,480h60v1h-60zM501,480h59v1h-59zM648,480h59v1h-59zM841,480h60v1h-60zM123,481h59v1h-59zM359,481h60v1h-60zM501,481h59v1h-59zM648,481h59v1h-59zM842,481h59v1h-59zM122,482h60v1h-60zM359,482h60v1h-60zM501,482h59v1h-59zM648,482h59v1h-59zM842,482h60v1h-60zM122,483h60v1h-60zM359,483h60v1h-60zM501,483h59v1h-59zM648,483h59v1h-59zM842,483h60v1h-60zM122,484h60v1h-60zM359,484h60v1h-60zM501,484h59v1h-59zM648,484h59v1h-59zM842,484h60v1h-60zM122,485h60v1h-60zM359,485h60v1h-60zM501,485h59v1h-59zM648,485h59v1h-59zM842,485h60v1h-60zM122,486h59v1h-59zM359,486h60v1h-60zM501,486h59v1h-59zM648,486h59v1h-59zM843,486h59v1h-59zM122,487h59v1h-59zM359,487h60v1h-60zM501,487h59v1h-59zM648,487h59v1h-59zM843,487h59v1h-59zM121,488h60v1h-60zM359,488h60v1h-60zM501,488h59v1h-59zM648,488h59v1h-59zM843,488h60v1h-60zM121,489h60v1h-60zM359,489h60v1h-60zM501,489h59v1h-59zM648,489h59v1h-59zM843,489h60v1h-60zM121,490h60v1h-60zM359,490h60v1h-60zM501,490h59v1h-59zM648,490h59v1h-59zM843,490h60v1h-60zM121,491h60v1h-60zM359,491h60v1h-60zM501,491h59v1h-59zM648,491h59v1h-59zM844,491h59v1h-59zM121,492h59v1h-59zM359,492h60v1h-60zM501,492h59v1h-59zM648,492h59v1h-59zM844,492h59v1h-59zM121,493h59v1h-59zM359,493h60v1h-60zM501,493h59v1h-59zM648,493h59v1h-59zM844,493h59v1h-59zM121,494h59v1h-59zM359,494h60v1h-60zM501,494h59v1h-59zM648,494h59v1h-59zM844,494h59v1h-59zM120,495h60v1h-60zM359,495h60v1h-60zM501,495h59v1h-59zM648,495h59v1h-59zM844,495h59v1h-59zM120,496h60v1h-60zM359,496h60v1h-60zM501,496h59v1h-59zM648,496h59v1h-59zM844,496h60v1h-60zM120,497h60v1h-60zM359,497h60v1h-60zM501,497h59v1h-59zM648,497h59v1h-59zM844,497h60v1h-60zM120,498h59v1h-59zM359,498h60v1h-60zM501,498h59v1h-59zM648,498h59v1h-59zM845,498h59v1h-59zM120,499h59v1h-59zM359,499h60v1h-60zM501,499h59v1h-59zM648,499h59v1h-59zM845,499h59v1h-59zM120,500h59v1h-59zM359,500h60v1h-60zM501,500h59v1h-59zM648,500h59v1h-59zM845,500h59v1h-59zM120,501h59v1h-59zM359,501h60v1h-60zM501,501h59v1h-59zM648,501h59v1h-59zM845,501h59v1h-59zM120,502h59v1h-59zM359,502h60v1h-60zM501,502h59v1h-59zM648,502h59v1h-59zM845,502h59v1h-59zM120,503h59v1h-59zM359,503h60v1h-60zM501,503h59v1h-59zM648,503h59v1h-59zM845,503h60v1h-60zM119,504h60v1h-60zM359,504h60v1h-60zM501,504h59v1h-59zM648,504h59v1h-59zM845,504h60v1h-60zM119,505h59v1h-59zM359,505h60v1h-60zM501,505h59v1h-59zM648,505h59v1h-59zM846,505h59v1h-59zM119,506h59v1h-59zM359,506h60v1h-60zM501,506h59v1h-59zM648,506h59v1h-59zM846,506h59v1h-59zM119,507h59v1h-59zM359,507h60v1h-60zM501,507h59v1h-59zM648,507h59v1h-59zM846,507h59v1h-59zM119,508h59v1h-59zM359,508h60v1h-60zM501,508h59v1h-59zM648,508h59v1h-59zM846,508h59v1h-59zM119,509h59v1h-59zM359,509h60v1h-60zM501,509h59v1h-59zM648,509h59v1h-59zM846,509h59v1h-59zM119,510h59v1h-59zM359,510h60v1h-60zM501,510h59v1h-59zM648,510h59v1h-59zM846,510h59v1h-59zM119,511h59v1h-59zM359,511h60v1h-60zM501,511h59v1h-59zM648,511h59v1h-59zM846,511h59v1h-59zM119,512h59v1h-59zM359,512h60v1h-60zM501,512h59v1h-59zM648,512h59v1h-59zM846,512h59v1h-59zM119,513h59v1h-59zM359,513h60v1h-60zM501,513h59v1h-59zM648,513h59v1h-59zM846,513h59v1h-59zM119,514h59v1h-59zM359,514h60v1h-60zM501,514h59v1h-59zM648,514h59v1h-59zM847,514h59v1h-59zM118,515h59v1h-59zM359,515h60v1h-60zM501,515h59v1h-59zM648,515h59v1h-59zM847,515h59v1h-59zM118,516h59v1h-59zM359,516h60v1h-60zM501,516h59v1h-59zM648,516h59v1h-59zM847,516h59v1h-59zM118,517h59v1h-59zM359,517h60v1h-60zM501,517h59v1h-59zM648,517h59v1h-59zM847,517h59v1h-59zM118,518h59v1h-59zM359,518h60v1h-60zM501,518h59v1h-59zM648,518h59v1h-59zM847,518h59v1h-59zM118,519h59v1h-59zM359,519h60v1h-60zM501,519h59v1h-59zM648,519h59v1h-59zM847,519h59v1h-59zM118,520h59v1h-59zM359,520h60v1h-60zM501,520h59v1h-59zM648,520h59v1h-59zM847,520h59v1h-59zM118,521h59v1h-59zM359,521h60v1h-60zM501,521h59v1h-59zM648,521h59v1h-59zM847,521h59v1h-59zM118,522h59v1h-59zM359,522h60v1h-60zM501,522h59v1h-59zM648,522h59v1h-59zM847,522h59v1h-59zM118,523h59v1h-59zM359,523h60v1h-60zM501,523h59v1h-59zM648,523h59v1h-59zM847,523h59v1h-59zM118,524h59v1h-59zM359,524h60v1h-60zM501,524h59v1h-59zM648,524h59v1h-59zM847,524h59v1h-59zM118,525h59v1h-59zM359,525h60v1h-60zM501,525h59v1h-59zM648,525h59v1h-59zM847,525h59v1h-59zM118,526h59v1h-59zM359,526h60v1h-60zM501,526h59v1h-59zM648,526h59v1h-59zM847,526h59v1h-59zM118,527h59v1h-59zM359,527h60v1h-60zM501,527h59v1h-59zM648,527h59v1h-59zM847,527h59v1h-59zM118,528h58v1h-58zM359,528h60v1h-60zM501,528h59v1h-59zM648,528h59v1h-59zM848,528h58v1h-58zM118,529h58v1h-58zM359,529h60v1h-60zM501,529h59v1h-59zM648,529h59v1h-59zM848,529h58v1h-58zM118,530h58v1h-58zM359,530h60v1h-60zM501,530h59v1h-59zM648,530h59v1h-59zM848,530h59v1h-59zM118,531h58v1h-58zM359,531h60v1h-60zM501,531h59v1h-59zM648,531h59v1h-59zM848,531h59v1h-59zM117,532h59v1h-59zM359,532h60v1h-60zM501,532h59v1h-59zM648,532h59v1h-59zM848,532h59v1h-59zM117,533h59v1h-59zM359,533h60v1h-60zM501,533h59v1h-59zM648,533h59v1h-59zM848,533h59v1h-59zM117,534h59v1h-59zM359,534h60v1h-60zM501,534h59v1h-59zM648,534h59v1h-59zM848,534h59v1h-59zM117,535h59v1h-59zM359,535h60v1h-60zM501,535h59v1h-59zM648,535h59v1h-59zM848,535h59v1h-59zM117,536h59v1h-59zM359,536h60v1h-60zM501,536h59v1h-59zM648,536h59v1h-59zM848,536h59v1h-59zM117,537h59v1h-59zM359,537h60v1h-60zM501,537h59v1h-59zM648,537h59v1h-59zM848,537h59v1h-59zM117,538h59v1h-59zM359,538h60v1h-60zM501,538h59v1h-59zM648,538h59v1h-59zM848,538h59v1h-59zM117,539h59v1h-59zM359,539h60v1h-60zM501,539h59v1h-59zM648,539h59v1h-59zM848,539h59v1h-59zM117,540h59v1h-59zM359,540h60v1h-60zM501,540h59v1h-59zM648,540h59v1h-59zM848,540h59v1h-59zM117,541h59v1h-59zM359,541h60v1h-60zM501,541h59v1h-59zM648,541h59v1h-59zM848,541h59v1h-59zM117,542h59v1h-59zM359,542h60v1h-60zM501,542h59v1h-59zM648,542h59v1h-59zM848,542h59v1h-59zM117,543h59v1h-59zM359,543h60v1h-60zM501,543h59v1h-59zM648,543h59v1h-59zM848,543h59v1h-59zM117,544h59v1h-59zM359,544h60v1h-60zM501,544h59v1h-59zM648,544h59v1h-59zM848,544h59v1h-59zM117,545h59v1h-59zM359,545h60v1h-60zM501,545h59v1h-59zM648,545h59v1h-59zM848,545h59v1h-59zM117,546h59v1h-59zM359,546h60v1h-60zM501,546h59v1h-59zM648,546h59v1h-59zM848,546h59v1h-59zM117,547h59v1h-59zM359,547h60v1h-60zM501,547h59v1h-59zM648,547h59v1h-59zM848,547h59v1h-59zM117,548h59v1h-59zM359,548h60v1h-60zM501,548h59v1h-59zM648,548h59v1h-59zM848,548h59v1h-59zM117,549h59v1h-59zM359,549h60v1h-60zM501,549h59v1h-59zM648,549h59v1h-59zM848,549h59v1h-59zM117,550h59v1h-59zM359,550h60v1h-60zM501,550h59v1h-59zM648,550h59v1h-59zM848,550h59v1h-59zM117,551h59v1h-59zM359,551h60v1h-60zM501,551h59v1h-59zM648,551h59v1h-59zM848,551h59v1h-59zM117,552h59v1h-59zM359,552h60v1h-60zM501,552h59v1h-59zM648,552h59v1h-59zM848,552h59v1h-59zM117,553h59v1h-59zM359,553h60v1h-60zM501,553h59v1h-59zM648,553h59v1h-59zM848,553h59v1h-59zM117,554h59v1h-59zM359,554h60v1h-60zM501,554h59v1h-59zM648,554h59v1h-59zM848,554h59v1h-59zM117,555h59v1h-59zM359,555h60v1h-60zM501,555h59v1h-59zM648,555h59v1h-59zM848,555h59v1h-59zM118,556h58v1h-58zM359,556h60v1h-60zM501,556h59v1h-59zM648,556h59v1h-59zM848,556h59v1h-59zM118,557h58v1h-58zM359,557h60v1h-60zM501,557h59v1h-59zM648,557h59v1h-59zM848,557h59v1h-59zM118,558h58v1h-58zM359,558h60v1h-60zM501,558h59v1h-59zM648,558h59v1h-59zM848,558h59v1h-59zM118,559h58v1h-58zM359,559h60v1h-60zM501,559h59v1h-59zM648,559h59v1h-59zM848,559h58v1h-58zM118,560h59v1h-59zM359,560h60v1h-60zM501,560h59v1h-59zM648,560h59v1h-59zM848,560h58v1h-58zM118,561h59v1h-59zM359,561h60v1h-60zM501,561h59v1h-59zM648,561h59v1h-59zM848,561h58v1h-58zM118,562h59v1h-59zM359,562h60v1h-60zM501,562h59v1h-59zM648,562h59v1h-59zM847,562h59v1h-59zM118,563h59v1h-59zM359,563h60v1h-60zM501,563h59v1h-59zM648,563h59v1h-59zM847,563h59v1h-59zM118,564h59v1h-59zM359,564h60v1h-60zM501,564h59v1h-59zM648,564h59v1h-59zM847,564h59v1h-59zM118,565h59v1h-59zM359,565h60v1h-60zM501,565h59v1h-59zM648,565h59v1h-59zM847,565h59v1h-59zM118,566h59v1h-59zM359,566h60v1h-60zM501,566h59v1h-59zM648,566h59v1h-59zM847,566h59v1h-59zM118,567h59v1h-59zM359,567h60v1h-60zM501,567h59v1h-59zM648,567h59v1h-59zM847,567h59v1h-59zM118,568h59v1h-59zM359,568h60v1h-60zM501,568h59v1h-59zM648,568h59v1h-59zM847,568h59v1h-59zM118,569h59v1h-59zM359,569h60v1h-60zM501,569h59v1h-59zM648,569h59v1h-59zM847,569h59v1h-59zM118,570h59v1h-59zM359,570h60v1h-60zM501,570h59v1h-59zM648,570h59v1h-59zM847,570h59v1h-59zM118,571h59v1h-59zM359,571h60v1h-60zM501,571h59v1h-59zM648,571h59v1h-59zM847,571h59v1h-59zM118,572h59v1h-59zM359,572h60v1h-60zM501,572h59v1h-59zM648,572h59v1h-59zM847,572h59v1h-59zM118,573h59v1h-59zM359,573h60v1h-60zM501,573h59v1h-59zM648,573h59v1h-59zM847,573h59v1h-59zM119,574h59v1h-59zM359,574h60v1h-60zM501,574h59v1h-59zM648,574h59v1h-59zM847,574h59v1h-59zM119,575h59v1h-59zM359,575h60v1h-60zM501,575h59v1h-59zM648,575h59v1h-59zM846,575h59v1h-59zM119,576h59v1h-59zM359,576h60v1h-60zM501,576h59v1h-59zM648,576h59v1h-59zM846,576h59v1h-59zM119,577h59v1h-59zM359,577h60v1h-60zM501,577h59v1h-59zM648,577h59v1h-59zM846,577h59v1h-59zM119,578h59v1h-59zM359,578h60v1h-60zM501,578h59v1h-59zM648,578h59v1h-59zM846,578h59v1h-59zM119,579h59v1h-59zM359,579h60v1h-60zM501,579h59v1h-59zM648,579h59v1h-59zM846,579h59v1h-59zM119,580h59v1h-59zM359,580h60v1h-60zM501,580h59v1h-59zM648,580h59v1h-59zM846,580h59v1h-59zM119,581h59v1h-59zM359,581h60v1h-60zM501,581h59v1h-59zM648,581h59v1h-59zM846,581h59v1h-59zM119,582h59v1h-59zM359,582h60v1h-60zM501,582h59v1h-59zM648,582h59v1h-59zM846,582h59v1h-59zM119,583h60v1h-60zM359,583h60v1h-60zM501,583h59v1h-59zM648,583h59v1h-59zM846,583h59v1h-59zM120,584h59v1h-59zM359,584h60v1h-60zM501,584h59v1h-59zM648,584h59v1h-59zM845,584h60v1h-60zM120,585h59v1h-59zM359,585h60v1h-60zM501,585h59v1h-59zM648,585h59v1h-59zM845,585h59v1h-59zM120,586h59v1h-59zM359,586h60v1h-60zM501,586h59v1h-59zM648,586h59v1h-59zM845,586h59v1h-59zM120,587h59v1h-59zM359,587h60v1h-60zM501,587h59v1h-59zM648,587h59v1h-59zM845,587h59v1h-59zM120,588h59v1h-59zM359,588h60v1h-60zM501,588h59v1h-59zM648,588h59v1h-59zM845,588h59v1h-59zM120,589h59v1h-59zM359,589h60v1h-60zM501,589h59v1h-59zM648,589h59v1h-59zM845,589h59v1h-59zM120,590h60v1h-60zM359,590h60v1h-60zM501,590h59v1h-59zM648,590h59v1h-59zM844,590h60v1h-60zM120,591h60v1h-60zM359,591h60v1h-60zM501,591h59v1h-59zM648,591h59v1h-59zM844,591h60v1h-60zM120,592h60v1h-60zM359,592h60v1h-60zM501,592h59v1h-59zM648,592h59v1h-59zM844,592h60v1h-60zM121,593h59v1h-59zM359,593h60v1h-60zM501,593h59v1h-59zM648,593h59v1h-59zM844,593h59v1h-59zM121,594h59v1h-59zM359,594h60v1h-60zM501,594h59v1h-59zM648,594h59v1h-59zM844,594h59v1h-59zM121,595h59v1h-59zM359,595h60v1h-60zM501,595h59v1h-59zM648,595h59v1h-59zM844,595h59v1h-59zM121,596h59v1h-59zM359,596h60v1h-60zM501,596h59v1h-59zM648,596h59v1h-59zM844,596h59v1h-59zM121,597h60v1h-60zM359,597h60v1h-60zM501,597h59v1h-59zM648,597h59v1h-59zM843,597h60v1h-60zM121,598h60v1h-60zM359,598h60v1h-60zM501,598h59v1h-59zM648,598h59v1h-59zM843,598h60v1h-60zM121,599h60v1h-60zM359,599h60v1h-60zM501,599h59v1h-59zM648,599h59v1h-59zM843,599h60v1h-60zM122,600h59v1h-59zM359,600h60v1h-60zM501,600h59v1h-59zM648,600h59v1h-59zM843,600h59v1h-59zM122,601h59v1h-59zM359,601h60v1h-60zM501,601h59v1h-59zM648,601h59v1h-59zM843,601h59v1h-59zM122,602h59v1h-59zM359,602h60v1h-60zM501,602h59v1h-59zM648,602h59v1h-59zM842,602h60v1h-60zM122,603h60v1h-60zM359,603h60v1h-60zM501,603h59v1h-59zM648,603h59v1h-59zM842,603h60v1h-60zM122,604h60v1h-60zM359,604h60v1h-60zM501,604h59v1h-59zM648,604h59v1h-59zM842,604h60v1h-60zM122,605h60v1h-60zM359,605h60v1h-60zM501,605h59v1h-59zM648,605h59v1h-59zM842,605h60v1h-60zM123,606h59v1h-59zM359,606h60v1h-60zM501,606h59v1h-59zM648,606h59v1h-59zM842,606h60v1h-60zM123,607h59v1h-59zM359,607h60v1h-60zM501,607h59v1h-59zM648,607h59v1h-59zM842,607h59v1h-59zM123,608h60v1h-60zM359,608h60v1h-60zM501,608h59v1h-59zM648,608h59v1h-59zM841,608h60v1h-60zM123,609h60v1h-60zM359,609h60v1h-60zM501,609h59v1h-59zM648,609h59v1h-59zM841,609h60v1h-60zM123,610h60v1h-60zM359,610h60v1h-60zM501,610h59v1h-59zM648,610h59v1h-59zM841,610h60v1h-60zM123,611h60v1h-60zM359,611h60v1h-60zM501,611h59v1h-59zM648,611h59v1h-59zM841,611h60v1h-60zM124,612h59v1h-59zM359,612h60v1h-60zM501,612h59v1h-59zM648,612h59v1h-59zM840,612h60v1h-60zM124,613h60v1h-60zM359,613h60v1h-60zM501,613h59v1h-59zM648,613h59v1h-59zM840,613h60v1h-60zM124,614h60v1h-60zM359,614h60v1h-60zM501,614h59v1h-59zM648,614h59v1h-59zM840,614h60v1h-60zM124,615h60v1h-60zM359,615h60v1h-60zM501,615h59v1h-59zM648,615h59v1h-59zM840,615h60v1h-60zM124,616h60v1h-60zM359,616h60v1h-60zM501,616h59v1h-59zM648,616h59v1h-59zM840,616h60v1h-60zM125,617h60v1h-60zM359,617h60v1h-60zM501,617h59v1h-59zM648,617h59v1h-59zM839,617h61v1h-61zM125,618h60v1h-60zM359,618h60v1h-60zM501,618h59v1h-59zM648,618h59v1h-59zM839,618h60v1h-60zM125,619h60v1h-60zM359,619h60v1h-60zM501,619h59v1h-59zM648,619h59v1h-59zM839,619h60v1h-60zM125,620h60v1h-60zM359,620h60v1h-60zM501,620h59v1h-59zM648,620h59v1h-59zM839,620h60v1h-60zM125,621h61v1h-61zM359,621h60v1h-60zM501,621h59v1h-59zM648,621h59v1h-59zM838,621h61v1h-61zM126,622h60v1h-60zM359,622h60v1h-60zM501,622h59v1h-59zM648,622h59v1h-59zM838,622h61v1h-61zM126,623h60v1h-60zM359,623h60v1h-60zM501,623h59v1h-59zM648,623h59v1h-59zM838,623h60v1h-60zM126,624h60v1h-60zM359,624h60v1h-60zM501,624h59v1h-59zM648,624h59v1h-59zM838,624h60v1h-60zM126,625h61v1h-61zM359,625h60v1h-60zM501,625h59v1h-59zM648,625h59v1h-59zM837,625h61v1h-61zM126,626h61v1h-61zM359,626h60v1h-60zM501,626h59v1h-59zM648,626h59v1h-59zM837,626h61v1h-61zM127,627h60v1h-60zM359,627h60v1h-60zM501,627h59v1h-59zM648,627h59v1h-59zM837,627h60v1h-60zM127,628h60v1h-60zM359,628h60v1h-60zM501,628h59v1h-59zM648,628h59v1h-59zM837,628h60v1h-60zM127,629h61v1h-61zM359,629h60v1h-60zM501,629h59v1h-59zM648,629h59v1h-59zM836,629h61v1h-61zM127,630h61v1h-61zM359,630h60v1h-60zM501,630h59v1h-59zM648,630h59v1h-59zM836,630h61v1h-61zM128,631h60v1h-60zM359,631h60v1h-60zM501,631h59v1h-59zM648,631h59v1h-59zM836,631h61v1h-61zM128,632h61v1h-61zM359,632h60v1h-60zM501,632h59v1h-59zM648,632h59v1h-59zM835,632h61v1h-61zM128,633h61v1h-61zM359,633h60v1h-60zM501,633h59v1h-59zM648,633h59v1h-59zM835,633h61v1h-61zM128,634h61v1h-61zM359,634h60v1h-60zM501,634h59v1h-59zM648,634h59v1h-59zM835,634h61v1h-61zM129,635h60v1h-60zM359,635h60v1h-60zM501,635h59v1h-59zM648,635h59v1h-59zM835,635h60v1h-60zM129,636h61v1h-61zM359,636h60v1h-60zM501,636h59v1h-59zM648,636h59v1h-59zM834,636h61v1h-61zM129,637h61v1h-61zM359,637h60v1h-60zM501,637h59v1h-59zM648,637h59v1h-59zM834,637h61v1h-61zM129,638h61v1h-61zM359,638h60v1h-60zM501,638h59v1h-59zM648,638h59v1h-59zM834,638h61v1h-61zM130,639h61v1h-61zM359,639h60v1h-60zM501,639h59v1h-59zM647,639h60v1h-60zM833,639h61v1h-61zM130,640h61v1h-61zM359,640h60v1h-60zM501,640h59v1h-59zM647,640h60v1h-60zM833,640h61v1h-61zM130,641h61v1h-61zM359,641h60v1h-60zM501,641h59v1h-59zM647,641h60v1h-60zM833,641h61v1h-61zM130,642h62v1h-62zM359,642h60v1h-60zM501,642h60v1h-60zM647,642h60v1h-60zM833,642h61v1h-61zM131,643h61v1h-61zM359,643h60v1h-60zM501,643h60v1h-60zM647,643h59v1h-59zM832,643h61v1h-61zM131,644h61v1h-61zM359,644h60v1h-60zM501,644h60v1h-60zM647,644h59v1h-59zM832,644h61v1h-61zM131,645h62v1h-62zM359,645h60v1h-60zM501,645h60v1h-60zM646,645h60v1h-60zM831,645h62v1h-62zM131,646h62v1h-62zM359,646h60v1h-60zM502,646h59v1h-59zM646,646h60v1h-60zM831,646h62v1h-62zM132,647h61v1h-61zM359,647h60v1h-60zM502,647h60v1h-60zM646,647h60v1h-60zM831,647h61v1h-61zM132,648h62v1h-62zM359,648h60v1h-60zM502,648h60v1h-60zM645,648h61v1h-61zM830,648h62v1h-62zM132,649h62v1h-62zM359,649h60v1h-60zM502,649h60v1h-60zM645,649h61v1h-61zM830,649h62v1h-62zM133,650h61v1h-61zM359,650h60v1h-60zM502,650h61v1h-61zM645,650h61v1h-61zM830,650h61v1h-61zM133,651h62v1h-62zM359,651h60v1h-60zM502,651h61v1h-61zM644,651h61v1h-61zM829,651h62v1h-62zM133,652h62v1h-62zM359,652h60v1h-60zM502,652h62v1h-62zM644,652h61v1h-61zM829,652h62v1h-62zM133,653h62v1h-62zM359,653h60v1h-60zM503,653h61v1h-61zM643,653h62v1h-62zM829,653h62v1h-62zM134,654h62v1h-62zM359,654h60v1h-60zM503,654h62v1h-62zM643,654h62v1h-62zM828,654h62v1h-62zM134,655h62v1h-62zM359,655h60v1h-60zM503,655h62v1h-62zM643,655h62v1h-62zM828,655h62v1h-62zM134,656h62v1h-62zM359,656h60v1h-60zM503,656h63v1h-63zM642,656h62v1h-62zM828,656h62v1h-62zM135,657h62v1h-62zM359,657h60v1h-60zM504,657h62v1h-62zM641,657h63v1h-63zM827,657h62v1h-62zM135,658h62v1h-62zM359,658h60v1h-60zM504,658h63v1h-63zM641,658h63v1h-63zM827,658h62v1h-62zM135,659h62v1h-62zM359,659h60v1h-60zM504,659h64v1h-64zM640,659h64v1h-64zM827,659h62v1h-62zM136,660h62v1h-62zM359,660h60v1h-60zM504,660h64v1h-64zM639,660h64v1h-64zM826,660h62v1h-62zM136,661h62v1h-62zM359,661h60v1h-60zM505,661h64v1h-64zM639,661h64v1h-64zM826,661h62v1h-62zM136,662h63v1h-63zM359,662h60v1h-60zM505,662h65v1h-65zM638,662h65v1h-65zM825,662h63v1h-63zM137,663h62v1h-62zM359,663h60v1h-60zM505,663h66v1h-66zM637,663h66v1h-66zM825,663h62v1h-62zM137,664h62v1h-62zM359,664h60v1h-60zM505,664h67v1h-67zM636,664h66v1h-66zM825,664h62v1h-62zM137,665h63v1h-63zM359,665h60v1h-60zM506,665h67v1h-67zM635,665h67v1h-67zM824,665h63v1h-63zM138,666h62v1h-62zM359,666h60v1h-60zM506,666h68v1h-68zM634,666h68v1h-68zM824,666h62v1h-62zM138,667h63v1h-63zM359,667h60v1h-60zM506,667h69v1h-69zM633,667h68v1h-68zM823,667h63v1h-63zM138,668h63v1h-63zM359,668h60v1h-60zM507,668h69v1h-69zM632,668h69v1h-69zM823,668h63v1h-63zM139,669h62v1h-62zM359,669h60v1h-60zM507,669h70v1h-70zM630,669h71v1h-71zM823,669h62v1h-62zM139,670h63v1h-63zM359,670h60v1h-60zM507,670h72v1h-72zM629,670h71v1h-71zM822,670h63v1h-63zM139,671h63v1h-63zM359,671h60v1h-60zM508,671h72v1h-72zM628,671h72v1h-72zM822,671h63v1h-63zM140,672h63v1h-63zM359,672h60v1h-60zM508,672h74v1h-74zM626,672h73v1h-73zM821,672h63v1h-63zM140,673h63v1h-63zM359,673h60v1h-60zM509,673h75v1h-75zM624,673h75v1h-75zM821,673h63v1h-63zM140,674h64v1h-64zM359,674h60v1h-60zM509,674h77v1h-77zM622,674h77v1h-77zM821,674h63v1h-63zM141,675h63v1h-63zM359,675h60v1h-60zM509,675h79v1h-79zM620,675h78v1h-78zM820,675h63v1h-63zM141,676h63v1h-63zM359,676h60v1h-60zM510,676h81v1h-81zM617,676h81v1h-81zM820,676h63v1h-63zM141,677h64v1h-64zM359,677h60v1h-60zM510,677h85v1h-85zM613,677h84v1h-84zM819,677h64v1h-64zM142,678h63v1h-63zM359,678h60v1h-60zM511,678h186v1h-186zM819,678h63v1h-63zM142,679h64v1h-64zM359,679h60v1h-60zM511,679h185v1h-185zM818,679h64v1h-64zM143,680h63v1h-63zM359,680h60v1h-60zM512,680h184v1h-184zM818,680h63v1h-63zM143,681h64v1h-64zM359,681h60v1h-60zM512,681h183v1h-183zM817,681h64v1h-64zM143,682h64v1h-64zM359,682h60v1h-60zM513,682h182v1h-182zM817,682h64v1h-64zM144,683h64v1h-64zM359,683h60v1h-60zM514,683h180v1h-180zM816,683h64v1h-64zM144,684h64v1h-64zM359,684h60v1h-60zM514,684h180v1h-180zM816,684h64v1h-64zM145,685h64v1h-64zM359,685h60v1h-60zM515,685h178v1h-178zM816,685h63v1h-63zM145,686h64v1h-64zM359,686h60v1h-60zM515,686h178v1h-178zM815,686h64v1h-64zM145,687h65v1h-65zM359,687h60v1h-60zM516,687h176v1h-176zM815,687h64v1h-64zM146,688h64v1h-64zM359,688h60v1h-60zM516,688h175v1h-175zM814,688h64v1h-64zM146,689h65v1h-65zM359,689h60v1h-60zM517,689h174v1h-174zM814,689h64v1h-64zM147,690h64v1h-64zM359,690h60v1h-60zM518,690h172v1h-172zM813,690h64v1h-64zM147,691h64v1h-64zM359,691h60v1h-60zM518,691h171v1h-171zM813,691h64v1h-64zM147,692h65v1h-65zM359,692h60v1h-60zM519,692h170v1h-170zM812,692h65v1h-65zM148,693h64v1h-64zM359,693h60v1h-60zM520,693h168v1h-168zM812,693h64v1h-64zM148,694h65v1h-65zM359,694h60v1h-60zM520,694h167v1h-167zM811,694h65v1h-65zM149,695h64v1h-64zM359,695h60v1h-60zM521,695h165v1h-165zM811,695h64v1h-64zM149,696h65v1h-65zM359,696h60v1h-60zM522,696h164v1h-164zM810,696h65v1h-65zM149,697h66v1h-66zM359,697h60v1h-60zM523,697h162v1h-162zM809,697h66v1h-66zM150,698h65v1h-65zM359,698h60v1h-60zM524,698h160v1h-160zM809,698h65v1h-65zM150,699h66v1h-66zM359,699h60v1h-60zM524,699h159v1h-159zM808,699h66v1h-66zM151,700h65v1h-65zM359,700h60v1h-60zM525,700h157v1h-157zM808,700h65v1h-65zM151,701h66v1h-66zM359,701h60v1h-60zM526,701h156v1h-156zM807,701h66v1h-66zM152,702h65v1h-65zM359,702h60v1h-60zM527,702h154v1h-154zM807,702h65v1h-65zM152,703h66v1h-66zM359,703h60v1h-60zM528,703h152v1h-152zM806,703h66v1h-66zM153,704h65v1h-65zM359,704h60v1h-60zM529,704h150v1h-150zM806,704h65v1h-65zM153,705h66v1h-66zM359,705h60v1h-60zM530,705h148v1h-148zM805,705h66v1h-66zM154,706h65v1h-65zM359,706h60v1h-60zM531,706h146v1h-146zM805,706h66v1h-66zM154,707h66v1h-66zM359,707h59v1h-59zM532,707h144v1h-144zM804,707h66v1h-66zM154,708h67v1h-67zM359,708h59v1h-59zM533,708h142v1h-142zM804,708h66v1h-66zM155,709h66v1h-66zM359,709h59v1h-59zM534,709h140v1h-140zM803,709h66v1h-66zM155,710h67v1h-67zM360,710h58v1h-58zM535,710h138v1h-138zM802,710h67v1h-67zM156,711h66v1h-66zM360,711h58v1h-58zM536,711h135v1h-135zM802,711h66v1h-66zM156,712h67v1h-67zM360,712h58v1h-58zM537,712h133v1h-133zM801,712h67v1h-67zM157,713h67v1h-67zM360,713h58v1h-58zM539,713h130v1h-130zM801,713h66v1h-66zM157,714h67v1h-67zM360,714h58v1h-58zM540,714h128v1h-128zM800,714h67v1h-67zM158,715h67v1h-67zM360,715h57v1h-57zM541,715h126v1h-126zM799,715h67v1h-67zM158,716h67v1h-67zM361,716h56v1h-56zM542,716h123v1h-123zM799,716h67v1h-67zM159,717h67v1h-67zM361,717h56v1h-56zM544,717h120v1h-120zM798,717h67v1h-67zM159,718h68v1h-68zM361,718h55v1h-55zM545,718h118v1h-118zM797,718h68v1h-68zM160,719h67v1h-67zM362,719h54v1h-54zM547,719h114v1h-114zM797,719h67v1h-67zM160,720h68v1h-68zM362,720h54v1h-54zM548,720h112v1h-112zM796,720h68v1h-68zM161,721h67v1h-67zM363,721h52v1h-52zM550,721h108v1h-108zM796,721h67v1h-67zM161,722h68v1h-68zM363,722h51v1h-51zM551,722h105v1h-105zM795,722h68v1h-68zM162,723h68v1h-68zM364,723h50v1h-50zM553,723h102v1h-102zM794,723h68v1h-68zM162,724h68v1h-68zM365,724h48v1h-48zM555,724h98v1h-98zM794,724h68v1h-68zM163,725h68v1h-68zM365,725h47v1h-47zM557,725h94v1h-94zM793,725h68v1h-68zM163,726h69v1h-69zM366,726h46v1h-46zM559,726h90v1h-90zM792,726h68v1h-68zM164,727h68v1h-68zM367,727h44v1h-44zM561,727h86v1h-86zM792,727h68v1h-68zM165,728h68v1h-68zM368,728h42v1h-42zM563,728h82v1h-82zM791,728h68v1h-68zM165,729h69v1h-69zM369,729h40v1h-40zM566,729h76v1h-76zM790,729h69v1h-69zM166,730h68v1h-68zM370,730h38v1h-38zM568,730h72v1h-72zM790,730h68v1h-68zM166,731h69v1h-69zM372,731h34v1h-34zM571,731h66v1h-66zM789,731h69v1h-69zM167,732h69v1h-69zM373,732h32v1h-32zM574,732h60v1h-60zM788,732h69v1h-69zM167,733h69v1h-69zM375,733h28v1h-28zM578,733h52v1h-52zM788,733h69v1h-69zM168,734h69v1h-69zM377,734h24v1h-24zM582,734h44v1h-44zM787,734h69v1h-69zM168,735h70v1h-70zM379,735h19v1h-19zM587,735h34v1h-34zM786,735h70v1h-70zM169,736h70v1h-70zM383,736h12v1h-12zM594,736h20v1h-20zM786,736h69v1h-69zM170,737h69v1h-69zM785,737h70v1h-70zM170,738h70v1h-70zM784,738h70v1h-70zM171,739h70v1h-70zM783,739h70v1h-70zM171,740h70v1h-70zM783,740h70v1h-70zM172,741h70v1h-70zM782,741h70v1h-70zM173,742h70v1h-70zM781,742h71v1h-71zM173,743h71v1h-71zM780,743h71v1h-71zM174,744h70v1h-70zM780,744h70v1h-70zM174,745h71v1h-71zM779,745h71v1h-71zM175,746h71v1h-71zM778,746h71v1h-71zM176,747h71v1h-71zM777,747h72v1h-72zM176,748h72v1h-72zM776,748h72v1h-72zM177,749h71v1h-71zM776,749h71v1h-71zM178,750h71v1h-71zM775,750h72v1h-72zM178,751h72v1h-72zM774,751h72v1h-72zM179,752h72v1h-72zM773,752h72v1h-72zM179,753h73v1h-73zM773,753h72v1h-72zM180,754h72v1h-72zM772,754h72v1h-72zM181,755h72v1h-72zM771,755h72v1h-72zM181,756h73v1h-73zM770,756h73v1h-73zM182,757h73v1h-73zM769,757h73v1h-73zM183,758h73v1h-73zM768,758h73v1h-73zM183,759h74v1h-74zM768,759h73v1h-73zM184,760h73v1h-73zM767,760h73v1h-73zM185,761h73v1h-73zM766,761h73v1h-73zM185,762h74v1h-74zM765,762h74v1h-74zM186,763h74v1h-74zM764,763h74v1h-74zM187,764h74v1h-74zM763,764h74v1h-74zM187,765h75v1h-75zM762,765h75v1h-75zM188,766h75v1h-75zM761,766h75v1h-75zM189,767h75v1h-75zM761,767h74v1h-74zM189,768h75v1h-75zM760,768h75v1h-75zM190,769h75v1h-75zM759,769h75v1h-75zM191,770h75v1h-75zM758,770h75v1h-75zM192,771h75v1h-75zM757,771h75v1h-75zM192,772h76v1h-76zM756,772h76v1h-76zM193,773h76v1h-76zM755,773h76v1h-76zM194,774h76v1h-76zM754,774h76v1h-76zM195,775h76v1h-76zM753,775h77v1h-77zM195,776h77v1h-77zM752,776h77v1h-77zM196,777h77v1h-77zM751,777h77v1h-77zM197,778h77v1h-77zM750,778h77v1h-77zM198,779h77v1h-77zM749,779h78v1h-78zM198,780h78v1h-78zM748,780h78v1h-78zM199,781h78v1h-78zM747,781h78v1h-78zM200,782h78v1h-78zM746,782h78v1h-78zM201,783h78v1h-78zM745,783h78v1h-78zM201,784h79v1h-79zM744,784h79v1h-79zM202,785h79v1h-79zM743,785h79v1h-79zM203,786h79v1h-79zM742,786h79v1h-79zM204,787h79v1h-79zM741,787h79v1h-79zM205,788h79v1h-79zM740,788h79v1h-79zM205,789h80v1h-80zM739,789h80v1h-80zM206,790h80v1h-80zM738,790h80v1h-80zM207,791h80v1h-80zM737,791h80v1h-80zM208,792h81v1h-81zM736,792h80v1h-80zM209,793h81v1h-81zM734,793h81v1h-81zM210,794h81v1h-81zM733,794h82v1h-82zM210,795h82v1h-82zM732,795h82v1h-82zM211,796h82v1h-82zM731,796h82v1h-82zM212,797h82v1h-82zM730,797h82v1h-82zM213,798h82v1h-82zM729,798h82v1h-82zM214,799h83v1h-83zM728,799h82v1h-82zM215,800h83v1h-83zM726,800h83v1h-83zM216,801h83v1h-83zM725,801h84v1h-84zM216,802h84v1h-84zM724,802h84v1h-84zM217,803h84v1h-84zM723,803h84v1h-84zM218,804h85v1h-85zM722,804h84v1h-84zM219,805h85v1h-85zM720,805h85v1h-85zM220,806h85v1h-85zM719,806h85v1h-85zM221,807h85v1h-85zM718,807h85v1h-85zM222,808h86v1h-86zM716,808h86v1h-86zM223,809h86v1h-86zM715,809h86v1h-86zM224,810h86v1h-86zM714,810h87v1h-87zM225,811h86v1h-86zM713,811h87v1h-87zM226,812h87v1h-87zM711,812h88v1h-88zM227,813h87v1h-87zM710,813h88v1h-88zM227,814h88v1h-88zM709,814h88v1h-88zM228,815h89v1h-89zM707,815h89v1h-89zM229,816h89v1h-89zM706,816h89v1h-89zM230,817h90v1h-90zM705,817h89v1h-89zM231,818h90v1h-90zM703,818h90v1h-90zM232,819h90v1h-90zM702,819h90v1h-90zM233,820h91v1h-91zM700,820h91v1h-91zM234,821h91v1h-91zM699,821h91v1h-91zM235,822h92v1h-92zM697,822h92v1h-92zM236,823h92v1h-92zM696,823h92v1h-92zM237,824h93v1h-93zM694,824h93v1h-93zM238,825h94v1h-94zM693,825h93v1h-93zM239,826h94v1h-94zM691,826h94v1h-94zM240,827h95v1h-95zM689,827h95v1h-95zM242,828h94v1h-94zM688,828h95v1h-95zM243,829h95v1h-95zM686,829h96v1h-96zM244,830h96v1h-96zM685,830h96v1h-96zM245,831h96v1h-96zM683,831h97v1h-97zM246,832h97v1h-97zM681,832h97v1h-97zM247,833h97v1h-97zM680,833h97v1h-97zM248,834h98v1h-98zM678,834h98v1h-98zM249,835h99v1h-99zM676,835h99v1h-99zM250,836h100v1h-100zM675,836h99v1h-99zM251,837h100v1h-100zM673,837h100v1h-100zM252,838h101v1h-101zM671,838h101v1h-101zM253,839h102v1h-102zM669,839h102v1h-102zM255,840h102v1h-102zM667,840h103v1h-103zM256,841h103v1h-103zM665,841h103v1h-103zM257,842h104v1h-104zM663,842h104v1h-104zM258,843h105v1h-105zM661,843h105v1h-105zM259,844h106v1h-106zM660,844h105v1h-105zM261,845h106v1h-106zM658,845h106v1h-106zM262,846h107v1h-107zM655,846h107v1h-107zM263,847h108v1h-108zM653,847h108v1h-108zM264,848h109v1h-109zM651,848h109v1h-109zM265,849h110v1h-110zM649,849h110v1h-110zM267,850h110v1h-110zM647,850h111v1h-111zM268,851h111v1h-111zM645,851h111v1h-111zM269,852h113v1h-113zM643,852h112v1h-112zM270,853h114v1h-114zM640,853h114v1h-114zM272,854h114v1h-114zM638,854h114v1h-114zM273,855h116v1h-116zM636,855h115v1h-115zM274,856h117v1h-117zM633,856h117v1h-117zM276,857h118v1h-118zM630,857h119v1h-119zM277,858h120v1h-120zM628,858h119v1h-119zM278,859h121v1h-121zM625,859h121v1h-121zM279,860h123v1h-123zM622,860h123v1h-123zM281,861h124v1h-124zM619,861h124v1h-124zM282,862h126v1h-126zM617,862h125v1h-125zM284,863h127v1h-127zM614,863h127v1h-127zM285,864h129v1h-129zM611,864h128v1h-128zM286,865h131v1h-131zM607,865h131v1h-131zM288,866h132v1h-132zM604,866h132v1h-132zM289,867h134v1h-134zM601,867h134v1h-134zM291,868h136v1h-136zM597,868h137v1h-137zM292,869h139v1h-139zM593,869h139v1h-139zM293,870h142v1h-142zM589,870h142v1h-142zM295,871h145v1h-145zM585,871h144v1h-144zM296,872h148v1h-148zM581,872h147v1h-147zM298,873h151v1h-151zM576,873h150v1h-150zM299,874h155v1h-155zM571,874h154v1h-154zM301,875h159v1h-159zM565,875h158v1h-158zM303,876h164v1h-164zM559,876h162v1h-162zM304,877h170v1h-170zM551,877h169v1h-169zM306,878h177v1h-177zM542,878h176v1h-176zM307,879h190v1h-190zM529,879h188v1h-188zM309,880h406v1h-406zM311,881h402v1h-402zM312,882h400v1h-400zM314,883h396v1h-396zM315,884h393v1h-393zM317,885h390v1h-390zM319,886h386v1h-386zM321,887h382v1h-382zM322,888h379v1h-379zM324,889h376v1h-376zM326,890h372v1h-372zM328,891h368v1h-368zM330,892h364v1h-364zM332,893h360v1h-360zM334,894h356v1h-356zM336,895h352v1h-352zM338,896h349v1h-349zM340,897h345v1h-345zM341,898h342v1h-342zM344,899h337v1h-337zM346,900h333v1h-333zM348,901h328v1h-328zM350,902h324v1h-324zM352,903h320v1h-320zM354,904h316v1h-316zM356,905h312v1h-312zM359,906h306v1h-306zM361,907h302v1h-302zM363,908h298v1h-298zM366,909h292v1h-292zM368,910h288v1h-288zM371,911h283v1h-283zM373,912h278v1h-278zM376,913h272v1h-272zM378,914h268v1h-268zM381,915h262v1h-262zM384,916h257v1h-257zM387,917h251v1h-251zM390,918h245v1h-245zM392,919h240v1h-240zM396,920h233v1h-233zM399,921h226v1h-226zM402,922h220v1h-220zM406,923h213v1h-213zM409,924h206v1h-206zM413,925h199v1h-199zM416,926h192v1h-192zM420,927h184v1h-184zM425,928h175v1h-175zM429,929h166v1h-166zM434,930h157v1h-157zM439,931h147v1h-147zM444,932h137v1h-137zM450,933h125v1h-125zM456,934h113v1h-113zM463,935h99v1h-99zM473,936h80v1h-80zM484,937h58v1h-58zM502,938h21v1h-21z" fill="#000"/>
</svg>