<?xml version="1.0" encoding="UTF-8"?>
<svg xmlns="http://www.w3.org/2000/svg" width="1024" height="1024" viewBox="0 0 1024 1024">
<path d="M457,82h1v1h-1zM459,82h1v1h-1zM452,83h13v1h-13zM450,84h16v1h-16zM448,85h20v1h-20zM445,86h25v1h-25zM443,87h30v1h-30zM441,88h34v1h-34zM440,89h37v1h-37zM438,90h40v1h-40zM437,91h42v1h-42zM436,92h44v1h-44zM435,93h46v1h-46zM434,94h48v1h-48zM434,95h49v1h-49zM433,96h51v1h-51zM432,97h53v1h-53zM432,98h54v1h-54zM432,99h55v1h-55zM431,100h57v1h-57zM431,101h58v1h-58zM431,102h59v1h-59zM431,103h60v1h-60zM430,104h62v1h-62zM430,105h64v1h-64zM429,106h66v1h-66zM429,107h67v1h-67zM429,108h68v1h-68zM428,109h69v1h-69zM428,110h70v1h-70zM428,111h71v1h-71zM428,112h73v1h-73zM428,113h74v1h-74zM428,114h75v1h-75zM428,115h75v1h-75zM428,116h76v1h-76zM429,117h76v1h-76zM429,118h77v1h-77zM429,119h78v1h-78zM430,120h79v1h-79zM430,121h80v1h-80zM430,122h81v1h-81zM431,123h81v1h-81zM431,124h81v1h-81zM431,125h82v1h-82zM432,126h82v1h-82zM432,127h83v1h-83zM432,128h85v1h-85zM432,129h86v1h-86zM433,130h86v1h-86zM433,131h86v1h-86zM434,132h86v1h-86zM435,133h86v1h-86zM436,134h86v1h-86zM437,135h86v1h-86zM439,136h86v1h-86zM440,137h86v1h-86zM441,138h86v1h-86zM442,139h86v1h-86zM442,140h87v1h-87zM443,141h87v1h-87zM444,142h87v1h-87zM445,143h87v1h-87zM446,144h87v1h-87zM447,145h87v1h-87zM448,146h87v1h-87zM449,147h87v1h-87zM450,148h86v1h-86zM451,149h86v1h-86zM451,150h87v1h-87zM452,151h87v1h-87zM452,152h88v1h-88zM453,153h89v1h-89zM453,154h90v1h-90zM453,155h91v1h-91zM452,156h93v1h-93zM451,157h94v1h-94zM441,158h105v1h-105zM435,159h112v1h-112zM428,160h120v1h-120zM424,161h126v1h-126zM420,162h130v1h-130zM418,163h133v1h-133zM415,164h137v1h-137zM413,165h140v1h-140zM409,166h145v1h-145zM403,167h152v1h-152zM398,168h158v1h-158zM394,169h163v1h-163zM391,170h167v1h-167zM390,171h169v1h-169zM388,172h171v1h-171zM386,173h174v1h-174zM384,174h176v1h-176zM380,175h180v1h-180zM376,176h184v1h-184zM373,177h187v1h-187zM371,178h190v1h-190zM369,179h192v1h-192zM368,180h193v1h-193zM366,181h195v1h-195zM364,182h197v1h-197zM360,183h202v1h-202zM356,184h206v1h-206zM352,185h210v1h-210zM350,186h212v1h-212zM349,187h213v1h-213zM348,188h214v1h-214zM347,189h215v1h-215zM345,190h217v1h-217zM343,191h218v1h-218zM340,192h221v1h-221zM337,193h224v1h-224zM335,194h226v1h-226zM334,195h227v1h-227zM333,196h228v1h-228zM331,197h229v1h-229zM330,198h230v1h-230zM327,199h233v1h-233zM324,200h236v1h-236zM321,201h239v1h-239zM320,202h239v1h-239zM319,203h240v1h-240zM317,204h241v1h-241zM316,205h241v1h-241zM315,206h241v1h-241zM312,207h243v1h-243zM310,208h244v1h-244zM308,209h245v1h-245zM307,210h246v1h-246zM306,211h246v1h-246zM305,212h246v1h-246zM304,213h246v1h-246zM302,214h247v1h-247zM300,215h247v1h-247zM298,216h248v1h-248zM296,217h153v1h-153zM454,217h91v1h-91zM295,218h152v1h-152zM455,218h89v1h-89zM294,219h151v1h-151zM455,219h88v1h-88zM293,220h149v1h-149zM455,220h88v1h-88zM291,221h147v1h-147zM455,221h87v1h-87zM290,222h144v1h-144zM454,222h87v1h-87zM288,223h140v1h-140zM453,223h87v1h-87zM286,224h136v1h-136zM452,224h86v1h-86zM723,224h20v1h-20zM284,225h134v1h-134zM451,225h86v1h-86zM721,225h25v1h-25zM283,226h133v1h-133zM450,226h87v1h-87zM719,226h29v1h-29zM282,227h132v1h-132zM449,227h87v1h-87zM718,227h31v1h-31zM281,228h131v1h-131zM448,228h87v1h-87zM716,228h34v1h-34zM280,229h130v1h-130zM447,229h87v1h-87zM715,229h36v1h-36zM278,230h130v1h-130zM447,230h86v1h-86zM714,230h38v1h-38zM277,231h128v1h-128zM446,231h86v1h-86zM713,231h41v1h-41zM275,232h124v1h-124zM444,232h87v1h-87zM712,232h43v1h-43zM274,233h121v1h-121zM443,233h87v1h-87zM711,233h46v1h-46zM273,234h120v1h-120zM442,234h87v1h-87zM710,234h48v1h-48zM272,235h119v1h-119zM441,235h87v1h-87zM709,235h50v1h-50zM271,236h118v1h-118zM441,236h86v1h-86zM709,236h51v1h-51zM270,237h118v1h-118zM440,237h86v1h-86zM708,237h53v1h-53zM268,238h118v1h-118zM439,238h86v1h-86zM707,238h55v1h-55zM267,239h115v1h-115zM438,239h86v1h-86zM706,239h58v1h-58zM265,240h113v1h-113zM437,240h85v1h-85zM705,240h61v1h-61zM264,241h112v1h-112zM436,241h85v1h-85zM705,241h62v1h-62zM263,242h111v1h-111zM435,242h85v1h-85zM704,242h64v1h-64zM262,243h111v1h-111zM434,243h86v1h-86zM704,243h65v1h-65zM261,244h111v1h-111zM433,244h86v1h-86zM704,244h66v1h-66zM260,245h111v1h-111zM433,245h85v1h-85zM704,245h67v1h-67zM259,246h110v1h-110zM432,246h85v1h-85zM704,246h68v1h-68zM257,247h109v1h-109zM432,247h83v1h-83zM704,247h70v1h-70zM256,248h107v1h-107zM431,248h83v1h-83zM704,248h71v1h-71zM255,249h105v1h-105zM431,249h82v1h-82zM703,249h74v1h-74zM254,250h104v1h-104zM431,250h81v1h-81zM703,250h75v1h-75zM253,251h104v1h-104zM430,251h82v1h-82zM703,251h76v1h-76zM252,252h104v1h-104zM430,252h81v1h-81zM704,252h76v1h-76zM251,253h103v1h-103zM430,253h80v1h-80zM704,253h77v1h-77zM250,254h103v1h-103zM429,254h80v1h-80zM704,254h78v1h-78zM249,255h101v1h-101zM429,255h79v1h-79zM704,255h79v1h-79zM247,256h101v1h-101zM429,256h78v1h-78zM704,256h80v1h-80zM246,257h100v1h-100zM428,257h78v1h-78zM704,257h81v1h-81zM245,258h99v1h-99zM428,258h77v1h-77zM704,258h82v1h-82zM244,259h99v1h-99zM428,259h76v1h-76zM704,259h83v1h-83zM243,260h99v1h-99zM428,260h75v1h-75zM704,260h84v1h-84zM242,261h99v1h-99zM428,261h74v1h-74zM704,261h85v1h-85zM241,262h98v1h-98zM428,262h73v1h-73zM704,262h86v1h-86zM240,263h97v1h-97zM428,263h72v1h-72zM704,263h87v1h-87zM238,264h97v1h-97zM429,264h70v1h-70zM705,264h87v1h-87zM237,265h96v1h-96zM429,265h68v1h-68zM705,265h88v1h-88zM236,266h96v1h-96zM429,266h67v1h-67zM705,266h89v1h-89zM235,267h96v1h-96zM429,267h67v1h-67zM706,267h89v1h-89zM234,268h96v1h-96zM430,268h65v1h-65zM707,268h89v1h-89zM233,269h96v1h-96zM430,269h64v1h-64zM708,269h89v1h-89zM232,270h95v1h-95zM430,270h63v1h-63zM709,270h89v1h-89zM232,271h94v1h-94zM430,271h62v1h-62zM710,271h89v1h-89zM231,272h93v1h-93zM430,272h60v1h-60zM710,272h90v1h-90zM230,273h92v1h-92zM431,273h58v1h-58zM711,273h90v1h-90zM229,274h91v1h-91zM431,274h58v1h-58zM712,274h90v1h-90zM228,275h91v1h-91zM431,275h57v1h-57zM713,275h90v1h-90zM227,276h91v1h-91zM432,276h55v1h-55zM713,276h91v1h-91zM226,277h91v1h-91zM432,277h54v1h-54zM714,277h91v1h-91zM225,278h91v1h-91zM433,278h52v1h-52zM715,278h91v1h-91zM224,279h90v1h-90zM434,279h49v1h-49zM717,279h90v1h-90zM224,280h88v1h-88zM435,280h47v1h-47zM719,280h89v1h-89zM223,281h88v1h-88zM436,281h45v1h-45zM720,281h89v1h-89zM222,282h88v1h-88zM437,282h43v1h-43zM721,282h88v1h-88zM221,283h88v1h-88zM438,283h41v1h-41zM722,283h88v1h-88zM220,284h88v1h-88zM439,284h40v1h-40zM723,284h88v1h-88zM219,285h88v1h-88zM440,285h38v1h-38zM724,285h88v1h-88zM218,286h88v1h-88zM441,286h35v1h-35zM725,286h88v1h-88zM217,287h87v1h-87zM442,287h33v1h-33zM726,287h88v1h-88zM217,288h85v1h-85zM443,288h29v1h-29zM728,288h87v1h-87zM216,289h85v1h-85zM447,289h22v1h-22zM729,289h86v1h-86zM215,290h85v1h-85zM450,290h16v1h-16zM731,290h85v1h-85zM214,291h85v1h-85zM454,291h9v1h-9zM732,291h85v1h-85zM213,292h85v1h-85zM733,292h85v1h-85zM212,293h85v1h-85zM734,293h84v1h-84zM211,294h85v1h-85zM735,294h85v1h-85zM210,295h84v1h-84zM737,295h84v1h-84zM209,296h84v1h-84zM738,296h84v1h-84zM209,297h83v1h-83zM740,297h83v1h-83zM208,298h83v1h-83zM741,298h83v1h-83zM207,299h83v1h-83zM742,299h82v1h-82zM207,300h82v1h-82zM743,300h82v1h-82zM206,301h82v1h-82zM744,301h82v1h-82zM205,302h82v1h-82zM745,302h81v1h-81zM204,303h82v1h-82zM746,303h81v1h-81zM203,304h82v1h-82zM747,304h81v1h-81zM202,305h81v1h-81zM748,305h81v1h-81zM201,306h81v1h-81zM749,306h81v1h-81zM201,307h80v1h-80zM750,307h81v1h-81zM200,308h81v1h-81zM751,308h80v1h-80zM200,309h80v1h-80zM752,309h80v1h-80zM199,310h80v1h-80zM753,310h79v1h-79zM198,311h80v1h-80zM754,311h79v1h-79zM198,312h79v1h-79zM755,312h78v1h-78zM197,313h78v1h-78zM756,313h78v1h-78zM196,314h78v1h-78zM757,314h78v1h-78zM195,315h78v1h-78zM758,315h78v1h-78zM194,316h79v1h-79zM759,316h78v1h-78zM193,317h79v1h-79zM759,317h79v1h-79zM193,318h78v1h-78zM760,318h78v1h-78zM192,319h78v1h-78zM761,319h78v1h-78zM191,320h78v1h-78zM762,320h78v1h-78zM191,321h77v1h-77zM763,321h77v1h-77zM190,322h77v1h-77zM764,322h77v1h-77zM190,323h76v1h-76zM765,323h76v1h-76zM189,324h76v1h-76zM766,324h76v1h-76zM188,325h76v1h-76zM767,325h76v1h-76zM187,326h77v1h-77zM768,326h76v1h-76zM186,327h77v1h-77zM768,327h77v1h-77zM185,328h77v1h-77zM769,328h77v1h-77zM185,329h76v1h-76zM770,329h77v1h-77zM184,330h76v1h-76zM771,330h76v1h-76zM184,331h75v1h-75zM772,331h76v1h-76zM184,332h74v1h-74zM773,332h75v1h-75zM183,333h74v1h-74zM774,333h75v1h-75zM183,334h73v1h-73zM775,334h74v1h-74zM182,335h74v1h-74zM775,335h75v1h-75zM181,336h74v1h-74zM776,336h74v1h-74zM181,337h74v1h-74zM776,337h75v1h-75zM180,338h74v1h-74zM777,338h74v1h-74zM179,339h74v1h-74zM778,339h74v1h-74zM178,340h75v1h-75zM779,340h74v1h-74zM178,341h74v1h-74zM780,341h74v1h-74zM177,342h74v1h-74zM780,342h74v1h-74zM177,343h73v1h-73zM781,343h74v1h-74zM176,344h73v1h-73zM782,344h73v1h-73zM176,345h73v1h-73zM783,345h73v1h-73zM176,346h72v1h-72zM783,346h73v1h-73zM175,347h72v1h-72zM784,347h72v1h-72zM175,348h72v1h-72zM785,348h72v1h-72zM174,349h72v1h-72zM785,349h72v1h-72zM173,350h72v1h-72zM786,350h72v1h-72zM172,351h72v1h-72zM787,351h71v1h-71zM172,352h71v1h-71zM788,352h71v1h-71zM171,353h71v1h-71zM789,353h71v1h-71zM170,354h71v1h-71zM624,354h15v1h-15zM790,354h71v1h-71zM169,355h72v1h-72zM387,355h16v1h-16zM617,355h28v1h-28zM790,355h72v1h-72zM169,356h71v1h-71zM383,356h25v1h-25zM613,356h37v1h-37zM791,356h71v1h-71zM168,357h72v1h-72zM378,357h35v1h-35zM609,357h45v1h-45zM792,357h71v1h-71zM168,358h71v1h-71zM374,358h43v1h-43zM607,358h51v1h-51zM792,358h71v1h-71zM168,359h70v1h-70zM369,359h52v1h-52zM605,359h56v1h-56zM793,359h71v1h-71zM168,360h70v1h-70zM363,360h63v1h-63zM600,360h67v1h-67zM793,360h71v1h-71zM167,361h70v1h-70zM360,361h68v1h-68zM596,361h75v1h-75zM794,361h70v1h-70zM167,362h69v1h-69zM358,362h72v1h-72zM593,362h80v1h-80zM795,362h70v1h-70zM166,363h69v1h-69zM356,363h76v1h-76zM591,363h84v1h-84zM796,363h69v1h-69zM165,364h69v1h-69zM354,364h80v1h-80zM589,364h87v1h-87zM796,364h70v1h-70zM165,365h69v1h-69zM352,365h84v1h-84zM588,365h90v1h-90zM797,365h70v1h-70zM164,366h69v1h-69zM349,366h89v1h-89zM586,366h94v1h-94zM798,366h69v1h-69zM163,367h70v1h-70zM347,367h93v1h-93zM584,367h98v1h-98zM799,367h69v1h-69zM162,368h71v1h-71zM345,368h98v1h-98zM581,368h104v1h-104zM799,368h70v1h-70zM162,369h70v1h-70zM344,369h100v1h-100zM579,369h107v1h-107zM800,369h69v1h-69zM161,370h71v1h-71zM342,370h104v1h-104zM578,370h110v1h-110zM800,370h70v1h-70zM161,371h70v1h-70zM341,371h106v1h-106zM576,371h113v1h-113zM800,371h70v1h-70zM161,372h70v1h-70zM340,372h109v1h-109zM575,372h115v1h-115zM801,372h70v1h-70zM160,373h70v1h-70zM338,373h112v1h-112zM574,373h117v1h-117zM801,373h70v1h-70zM160,374h69v1h-69zM336,374h116v1h-116zM573,374h120v1h-120zM802,374h70v1h-70zM159,375h69v1h-69zM334,375h119v1h-119zM572,375h122v1h-122zM802,375h70v1h-70zM159,376h68v1h-68zM333,376h122v1h-122zM570,376h125v1h-125zM803,376h69v1h-69zM159,377h68v1h-68zM332,377h124v1h-124zM568,377h129v1h-129zM804,377h68v1h-68zM159,378h67v1h-67zM330,378h127v1h-127zM567,378h131v1h-131zM805,378h68v1h-68zM158,379h67v1h-67zM329,379h129v1h-129zM566,379h133v1h-133zM806,379h67v1h-67zM158,380h67v1h-67zM328,380h131v1h-131zM565,380h135v1h-135zM806,380h68v1h-68zM157,381h67v1h-67zM326,381h135v1h-135zM564,381h137v1h-137zM807,381h67v1h-67zM156,382h68v1h-68zM325,382h137v1h-137zM563,382h140v1h-140zM807,382h68v1h-68zM156,383h68v1h-68zM324,383h139v1h-139zM562,383h142v1h-142zM808,383h67v1h-67zM155,384h68v1h-68zM323,384h141v1h-141zM560,384h145v1h-145zM808,384h68v1h-68zM154,385h69v1h-69zM322,385h143v1h-143zM559,385h147v1h-147zM808,385h68v1h-68zM154,386h68v1h-68zM321,386h145v1h-145zM558,386h149v1h-149zM809,386h68v1h-68zM153,387h69v1h-69zM320,387h147v1h-147zM558,387h150v1h-150zM809,387h69v1h-69zM153,388h68v1h-68zM319,388h149v1h-149zM557,388h152v1h-152zM810,388h68v1h-68zM153,389h67v1h-67zM318,389h150v1h-150zM556,389h153v1h-153zM810,389h69v1h-69zM152,390h68v1h-68zM317,390h152v1h-152zM555,390h155v1h-155zM811,390h68v1h-68zM152,391h67v1h-67zM317,391h153v1h-153zM555,391h156v1h-156zM812,391h67v1h-67zM152,392h66v1h-66zM316,392h155v1h-155zM554,392h158v1h-158zM813,392h67v1h-67zM152,393h66v1h-66zM315,393h157v1h-157zM552,393h161v1h-161zM813,393h67v1h-67zM152,394h65v1h-65zM314,394h159v1h-159zM551,394h163v1h-163zM814,394h66v1h-66zM151,395h66v1h-66zM313,395h161v1h-161zM550,395h165v1h-165zM814,395h66v1h-66zM151,396h65v1h-65zM312,396h162v1h-162zM549,396h166v1h-166zM815,396h66v1h-66zM151,397h65v1h-65zM312,397h163v1h-163zM549,397h167v1h-167zM815,397h66v1h-66zM150,398h66v1h-66zM311,398h165v1h-165zM548,398h168v1h-168zM816,398h65v1h-65zM150,399h65v1h-65zM310,399h166v1h-166zM548,399h169v1h-169zM816,399h65v1h-65zM149,400h66v1h-66zM310,400h167v1h-167zM547,400h170v1h-170zM816,400h66v1h-66zM149,401h66v1h-66zM309,401h168v1h-168zM547,401h171v1h-171zM816,401h66v1h-66zM148,402h67v1h-67zM308,402h170v1h-170zM546,402h173v1h-173zM817,402h66v1h-66zM147,403h67v1h-67zM308,403h170v1h-170zM545,403h174v1h-174zM817,403h66v1h-66zM147,404h66v1h-66zM307,404h172v1h-172zM545,404h175v1h-175zM818,404h66v1h-66zM146,405h66v1h-66zM306,405h173v1h-173zM544,405h177v1h-177zM818,405h67v1h-67zM145,406h67v1h-67zM305,406h175v1h-175zM543,406h179v1h-179zM819,406h66v1h-66zM145,407h66v1h-66zM305,407h175v1h-175zM543,407h179v1h-179zM819,407h67v1h-67zM145,408h65v1h-65zM304,408h177v1h-177zM542,408h181v1h-181zM820,408h66v1h-66zM144,409h66v1h-66zM304,409h177v1h-177zM542,409h181v1h-181zM821,409h66v1h-66zM144,410h65v1h-65zM304,410h178v1h-178zM541,410h183v1h-183zM821,410h66v1h-66zM144,411h65v1h-65zM303,411h179v1h-179zM541,411h183v1h-183zM822,411h65v1h-65zM144,412h65v1h-65zM303,412h180v1h-180zM541,412h183v1h-183zM823,412h65v1h-65zM144,413h64v1h-64zM302,413h181v1h-181zM540,413h185v1h-185zM823,413h65v1h-65zM143,414h65v1h-65zM302,414h182v1h-182zM540,414h185v1h-185zM823,414h65v1h-65zM143,415h65v1h-65zM301,415h89v1h-89zM395,415h89v1h-89zM540,415h186v1h-186zM824,415h64v1h-64zM143,416h65v1h-65zM301,416h79v1h-79zM403,416h82v1h-82zM539,416h83v1h-83zM643,416h83v1h-83zM824,416h65v1h-65zM142,417h66v1h-66zM300,417h77v1h-77zM406,417h80v1h-80zM539,417h79v1h-79zM648,417h79v1h-79zM824,417h65v1h-65zM142,418h65v1h-65zM299,418h76v1h-76zM408,418h78v1h-78zM538,418h78v1h-78zM650,418h78v1h-78zM824,418h65v1h-65zM142,419h65v1h-65zM299,419h74v1h-74zM410,419h76v1h-76zM538,419h76v1h-76zM652,419h76v1h-76zM824,419h65v1h-65zM141,420h66v1h-66zM298,420h74v1h-74zM412,420h75v1h-75zM537,420h76v1h-76zM653,420h76v1h-76zM825,420h65v1h-65zM141,421h66v1h-66zM298,421h72v1h-72zM413,421h74v1h-74zM537,421h74v1h-74zM655,421h74v1h-74zM825,421h65v1h-65zM141,422h65v1h-65zM298,422h71v1h-71zM415,422h72v1h-72zM536,422h74v1h-74zM656,422h74v1h-74zM825,422h65v1h-65zM140,423h66v1h-66zM297,423h71v1h-71zM417,423h71v1h-71zM536,423h72v1h-72zM658,423h72v1h-72zM825,423h66v1h-66zM140,424h65v1h-65zM297,424h70v1h-70zM418,424h70v1h-70zM535,424h71v1h-71zM659,424h71v1h-71zM826,424h65v1h-65zM139,425h65v1h-65zM297,425h68v1h-68zM420,425h68v1h-68zM535,425h70v1h-70zM660,425h71v1h-71zM826,425h66v1h-66zM139,426h65v1h-65zM296,426h68v1h-68zM421,426h68v1h-68zM535,426h69v1h-69zM661,426h70v1h-70zM827,426h65v1h-65zM138,427h65v1h-65zM296,427h68v1h-68zM422,427h67v1h-67zM534,427h69v1h-69zM662,427h69v1h-69zM827,427h65v1h-65zM138,428h64v1h-64zM296,428h67v1h-67zM423,428h66v1h-66zM534,428h68v1h-68zM663,428h68v1h-68zM828,428h65v1h-65zM138,429h64v1h-64zM296,429h66v1h-66zM423,429h67v1h-67zM534,429h67v1h-67zM664,429h67v1h-67zM829,429h64v1h-64zM137,430h64v1h-64zM296,430h65v1h-65zM424,430h66v1h-66zM533,430h67v1h-67zM665,430h67v1h-67zM829,430h65v1h-65zM137,431h64v1h-64zM295,431h65v1h-65zM425,431h65v1h-65zM533,431h66v1h-66zM666,431h66v1h-66zM830,431h64v1h-64zM137,432h64v1h-64zM295,432h64v1h-64zM425,432h65v1h-65zM533,432h65v1h-65zM666,432h66v1h-66zM830,432h64v1h-64zM137,433h63v1h-63zM295,433h64v1h-64zM426,433h65v1h-65zM533,433h65v1h-65zM667,433h65v1h-65zM831,433h64v1h-64zM137,434h63v1h-63zM295,434h63v1h-63zM426,434h65v1h-65zM533,434h64v1h-64zM668,434h65v1h-65zM831,434h64v1h-64zM136,435h64v1h-64zM295,435h62v1h-62zM427,435h64v1h-64zM533,435h64v1h-64zM668,435h65v1h-65zM831,435h64v1h-64zM136,436h64v1h-64zM294,436h63v1h-63zM427,436h64v1h-64zM533,436h63v1h-63zM669,436h64v1h-64zM832,436h63v1h-63zM136,437h64v1h-64zM294,437h62v1h-62zM428,437h63v1h-63zM532,437h64v1h-64zM669,437h64v1h-64zM832,437h63v1h-63zM136,438h63v1h-63zM294,438h61v1h-61zM428,438h63v1h-63zM532,438h63v1h-63zM670,438h64v1h-64zM832,438h64v1h-64zM136,439h63v1h-63zM294,439h61v1h-61zM429,439h63v1h-63zM532,439h63v1h-63zM670,439h64v1h-64zM832,439h64v1h-64zM135,440h64v1h-64zM294,440h60v1h-60zM429,440h63v1h-63zM532,440h63v1h-63zM671,440h63v1h-63zM833,440h63v1h-63zM135,441h64v1h-64zM293,441h61v1h-61zM430,441h62v1h-62zM532,441h62v1h-62zM671,441h63v1h-63zM833,441h63v1h-63zM135,442h63v1h-63zM293,442h60v1h-60zM430,442h62v1h-62zM532,442h62v1h-62zM672,442h62v1h-62zM833,442h63v1h-63zM135,443h63v1h-63zM293,443h60v1h-60zM431,443h61v1h-61zM532,443h62v1h-62zM673,443h61v1h-61zM833,443h63v1h-63zM135,444h63v1h-63zM293,444h60v1h-60zM431,444h61v1h-61zM532,444h61v1h-61zM673,444h61v1h-61zM834,444h63v1h-63zM134,445h63v1h-63zM292,445h61v1h-61zM431,445h61v1h-61zM531,445h62v1h-62zM674,445h60v1h-60zM834,445h63v1h-63zM134,446h63v1h-63zM292,446h60v1h-60zM432,446h60v1h-60zM531,446h61v1h-61zM674,446h61v1h-61zM834,446h63v1h-63zM133,447h63v1h-63zM292,447h60v1h-60zM432,447h61v1h-61zM531,447h61v1h-61zM674,447h61v1h-61zM834,447h63v1h-63zM133,448h63v1h-63zM292,448h60v1h-60zM432,448h61v1h-61zM531,448h60v1h-60zM674,448h61v1h-61zM835,448h62v1h-62zM132,449h63v1h-63zM292,449h60v1h-60zM432,449h61v1h-61zM531,449h60v1h-60zM674,449h61v1h-61zM835,449h63v1h-63zM132,450h63v1h-63zM292,450h60v1h-60zM432,450h61v1h-61zM531,450h60v1h-60zM675,450h60v1h-60zM836,450h62v1h-62zM132,451h63v1h-63zM292,451h60v1h-60zM432,451h61v1h-61zM531,451h60v1h-60zM675,451h60v1h-60zM836,451h62v1h-62zM131,452h63v1h-63zM292,452h59v1h-59zM432,452h61v1h-61zM530,452h60v1h-60zM675,452h60v1h-60zM837,452h62v1h-62zM131,453h63v1h-63zM292,453h59v1h-59zM433,453h60v1h-60zM530,453h60v1h-60zM675,453h61v1h-61zM837,453h62v1h-62zM131,454h63v1h-63zM292,454h59v1h-59zM433,454h60v1h-60zM530,454h60v1h-60zM675,454h61v1h-61zM838,454h62v1h-62zM131,455h62v1h-62zM292,455h59v1h-59zM433,455h60v1h-60zM530,455h60v1h-60zM675,455h61v1h-61zM838,455h62v1h-62zM130,456h63v1h-63zM292,456h59v1h-59zM433,456h60v1h-60zM530,456h60v1h-60zM675,456h61v1h-61zM838,456h63v1h-63zM130,457h63v1h-63zM293,457h58v1h-58zM433,457h60v1h-60zM530,457h60v1h-60zM675,457h61v1h-61zM838,457h63v1h-63zM130,458h63v1h-63zM293,458h57v1h-57zM433,458h60v1h-60zM530,458h60v1h-60zM675,458h61v1h-61zM839,458h62v1h-62zM130,459h63v1h-63zM293,459h57v1h-57zM433,459h60v1h-60zM530,459h60v1h-60zM675,459h61v1h-61zM839,459h62v1h-62zM130,460h62v1h-62zM294,460h56v1h-56zM433,460h60v1h-60zM530,460h60v1h-60zM675,460h61v1h-61zM839,460h63v1h-63zM130,461h62v1h-62zM294,461h55v1h-55zM433,461h60v1h-60zM530,461h60v1h-60zM675,461h61v1h-61zM839,461h63v1h-63zM129,462h63v1h-63zM294,462h54v1h-54zM433,462h60v1h-60zM530,462h60v1h-60zM675,462h61v1h-61zM839,462h63v1h-63zM129,463h63v1h-63zM295,463h53v1h-53zM433,463h60v1h-60zM530,463h60v1h-60zM675,463h61v1h-61zM840,463h62v1h-62zM129,464h63v1h-63zM295,464h52v1h-52zM433,464h60v1h-60zM530,464h60v1h-60zM675,464h61v1h-61zM840,464h63v1h-63zM129,465h63v1h-63zM296,465h51v1h-51zM433,465h60v1h-60zM530,465h60v1h-60zM675,465h61v1h-61zM840,465h63v1h-63zM129,466h63v1h-63zM296,466h50v1h-50zM433,466h60v1h-60zM530,466h60v1h-60zM675,466h61v1h-61zM840,466h63v1h-63zM129,467h62v1h-62zM297,467h48v1h-48zM433,467h60v1h-60zM530,467h60v1h-60zM675,467h61v1h-61zM840,467h63v1h-63zM129,468h62v1h-62zM297,468h47v1h-47zM433,468h60v1h-60zM530,468h60v1h-60zM675,468h61v1h-61zM840,468h63v1h-63zM128,469h63v1h-63zM298,469h45v1h-45zM433,469h60v1h-60zM530,469h60v1h-60zM675,469h61v1h-61zM840,469h63v1h-63zM128,470h63v1h-63zM299,470h44v1h-44zM432,470h61v1h-61zM530,470h60v1h-60zM675,470h61v1h-61zM841,470h62v1h-62zM128,471h63v1h-63zM300,471h42v1h-42zM432,471h61v1h-61zM530,471h60v1h-60zM675,471h61v1h-61zM841,471h63v1h-63zM128,472h62v1h-62zM302,472h38v1h-38zM432,472h61v1h-61zM530,472h60v1h-60zM675,472h61v1h-61zM841,472h63v1h-63zM128,473h62v1h-62zM303,473h36v1h-36zM432,473h61v1h-61zM530,473h60v1h-60zM675,473h61v1h-61zM841,473h63v1h-63zM128,474h62v1h-62zM305,474h32v1h-32zM432,474h61v1h-61zM530,474h60v1h-60zM675,474h61v1h-61zM841,474h63v1h-63zM127,475h62v1h-62zM306,475h29v1h-29zM432,475h60v1h-60zM530,475h60v1h-60zM675,475h61v1h-61zM842,475h62v1h-62zM127,476h62v1h-62zM307,476h27v1h-27zM431,476h61v1h-61zM530,476h60v1h-60zM675,476h61v1h-61zM842,476h62v1h-62zM127,477h62v1h-62zM309,477h24v1h-24zM431,477h61v1h-61zM530,477h60v1h-60zM675,477h61v1h-61zM842,477h62v1h-62zM127,478h61v1h-61zM310,478h21v1h-21zM431,478h61v1h-61zM530,478h60v1h-60zM675,478h61v1h-61zM842,478h62v1h-62zM127,479h61v1h-61zM313,479h14v1h-14zM431,479h60v1h-60zM529,479h61v1h-61zM675,479h61v1h-61zM843,479h61v1h-61zM127,480h61v1h-61zM430,480h61v1h-61zM530,480h60v1h-60zM675,480h61v1h-61zM843,480h61v1h-61zM126,481h62v1h-62zM430,481h61v1h-61zM530,481h60v1h-60zM675,481h61v1h-61zM843,481h62v1h-62zM126,482h61v1h-61zM430,482h61v1h-61zM530,482h60v1h-60zM675,482h61v1h-61zM843,482h62v1h-62zM126,483h61v1h-61zM429,483h62v1h-62zM530,483h60v1h-60zM675,483h61v1h-61zM844,483h61v1h-61zM126,484h61v1h-61zM429,484h61v1h-61zM530,484h60v1h-60zM675,484h61v1h-61zM844,484h61v1h-61zM126,485h61v1h-61zM429,485h61v1h-61zM530,485h60v1h-60zM675,485h61v1h-61zM844,485h61v1h-61zM125,486h61v1h-61zM428,486h62v1h-62zM530,486h60v1h-60zM675,486h61v1h-61zM844,486h61v1h-61zM125,487h61v1h-61zM428,487h62v1h-62zM530,487h60v1h-60zM675,487h61v1h-61zM845,487h61v1h-61zM125,488h61v1h-61zM427,488h62v1h-62zM530,488h60v1h-60zM676,488h60v1h-60zM845,488h61v1h-61zM125,489h61v1h-61zM426,489h63v1h-63zM530,489h60v1h-60zM675,489h61v1h-61zM845,489h61v1h-61zM125,490h60v1h-60zM426,490h63v1h-63zM529,490h61v1h-61zM676,490h60v1h-60zM846,490h60v1h-60zM125,491h60v1h-60zM426,491h63v1h-63zM530,491h60v1h-60zM676,491h60v1h-60zM846,491h60v1h-60zM124,492h61v1h-61zM425,492h63v1h-63zM530,492h60v1h-60zM676,492h60v1h-60zM846,492h61v1h-61zM124,493h61v1h-61zM425,493h63v1h-63zM530,493h60v1h-60zM676,493h60v1h-60zM846,493h61v1h-61zM124,494h61v1h-61zM425,494h63v1h-63zM530,494h60v1h-60zM676,494h60v1h-60zM846,494h61v1h-61zM124,495h61v1h-61zM424,495h64v1h-64zM529,495h61v1h-61zM676,495h60v1h-60zM847,495h60v1h-60zM124,496h61v1h-61zM423,496h64v1h-64zM530,496h60v1h-60zM676,496h60v1h-60zM847,496h60v1h-60zM124,497h60v1h-60zM423,497h64v1h-64zM530,497h60v1h-60zM676,497h60v1h-60zM847,497h61v1h-61zM124,498h60v1h-60zM422,498h65v1h-65zM530,498h60v1h-60zM676,498h60v1h-60zM847,498h61v1h-61zM123,499h61v1h-61zM421,499h65v1h-65zM529,499h61v1h-61zM676,499h60v1h-60zM847,499h61v1h-61zM123,500h61v1h-61zM420,500h66v1h-66zM530,500h60v1h-60zM676,500h60v1h-60zM847,500h61v1h-61zM123,501h61v1h-61zM419,501h67v1h-67zM529,501h61v1h-61zM676,501h60v1h-60zM847,501h61v1h-61zM123,502h61v1h-61zM418,502h67v1h-67zM529,502h61v1h-61zM676,502h60v1h-60zM848,502h60v1h-60zM123,503h61v1h-61zM417,503h68v1h-68zM530,503h60v1h-60zM676,503h60v1h-60zM848,503h60v1h-60zM123,504h61v1h-61zM415,504h69v1h-69zM530,504h60v1h-60zM676,504h60v1h-60zM848,504h60v1h-60zM122,505h62v1h-62zM413,505h71v1h-71zM530,505h60v1h-60zM676,505h60v1h-60zM848,505h60v1h-60zM122,506h62v1h-62zM411,506h72v1h-72zM530,506h60v1h-60zM676,506h60v1h-60zM848,506h61v1h-61zM122,507h62v1h-62zM410,507h73v1h-73zM530,507h60v1h-60zM676,507h60v1h-60zM848,507h61v1h-61zM122,508h62v1h-62zM409,508h73v1h-73zM530,508h60v1h-60zM676,508h60v1h-60zM848,508h61v1h-61zM122,509h62v1h-62zM407,509h74v1h-74zM529,509h61v1h-61zM676,509h60v1h-60zM848,509h61v1h-61zM122,510h62v1h-62zM405,510h76v1h-76zM529,510h61v1h-61zM676,510h60v1h-60zM848,510h61v1h-61zM121,511h63v1h-63zM402,511h78v1h-78zM529,511h61v1h-61zM676,511h60v1h-60zM848,511h61v1h-61zM121,512h63v1h-63zM391,512h89v1h-89zM529,512h61v1h-61zM676,512h60v1h-60zM848,512h61v1h-61zM121,513h62v1h-62zM386,513h93v1h-93zM530,513h60v1h-60zM676,513h60v1h-60zM848,513h61v1h-61zM121,514h62v1h-62zM383,514h96v1h-96zM530,514h60v1h-60zM676,514h60v1h-60zM848,514h62v1h-62zM121,515h62v1h-62zM381,515h98v1h-98zM530,515h60v1h-60zM676,515h60v1h-60zM848,515h62v1h-62zM121,516h62v1h-62zM380,516h98v1h-98zM530,516h60v1h-60zM676,516h60v1h-60zM848,516h62v1h-62zM121,517h62v1h-62zM379,517h99v1h-99zM529,517h61v1h-61zM676,517h60v1h-60zM848,517h62v1h-62zM121,518h62v1h-62zM378,518h99v1h-99zM529,518h61v1h-61zM676,518h60v1h-60zM848,518h62v1h-62zM121,519h62v1h-62zM376,519h100v1h-100zM529,519h61v1h-61zM676,519h60v1h-60zM849,519h61v1h-61zM121,520h62v1h-62zM375,520h100v1h-100zM529,520h61v1h-61zM676,520h60v1h-60zM849,520h61v1h-61zM121,521h62v1h-62zM373,521h102v1h-102zM530,521h60v1h-60zM676,521h60v1h-60zM849,521h61v1h-61zM121,522h62v1h-62zM372,522h102v1h-102zM530,522h60v1h-60zM676,522h60v1h-60zM849,522h61v1h-61zM121,523h62v1h-62zM372,523h101v1h-101zM530,523h60v1h-60zM676,523h60v1h-60zM849,523h62v1h-62zM121,524h62v1h-62zM371,524h101v1h-101zM529,524h61v1h-61zM676,524h60v1h-60zM849,524h62v1h-62zM121,525h62v1h-62zM370,525h102v1h-102zM529,525h61v1h-61zM676,525h60v1h-60zM849,525h62v1h-62zM121,526h61v1h-61zM370,526h101v1h-101zM530,526h60v1h-60zM676,526h60v1h-60zM849,526h62v1h-62zM121,527h61v1h-61zM369,527h101v1h-101zM529,527h61v1h-61zM676,527h60v1h-60zM849,527h62v1h-62zM121,528h61v1h-61zM369,528h99v1h-99zM529,528h61v1h-61zM676,528h60v1h-60zM849,528h62v1h-62zM121,529h61v1h-61zM368,529h99v1h-99zM529,529h61v1h-61zM676,529h60v1h-60zM849,529h62v1h-62zM121,530h61v1h-61zM368,530h98v1h-98zM530,530h60v1h-60zM676,530h60v1h-60zM849,530h62v1h-62zM121,531h61v1h-61zM368,531h97v1h-97zM530,531h60v1h-60zM676,531h60v1h-60zM849,531h62v1h-62zM121,532h61v1h-61zM368,532h96v1h-96zM529,532h61v1h-61zM676,532h60v1h-60zM849,532h62v1h-62zM120,533h62v1h-62zM367,533h96v1h-96zM529,533h61v1h-61zM676,533h60v1h-60zM849,533h62v1h-62zM120,534h62v1h-62zM367,534h95v1h-95zM529,534h61v1h-61zM676,534h60v1h-60zM849,534h62v1h-62zM120,535h62v1h-62zM367,535h94v1h-94zM529,535h61v1h-61zM676,535h60v1h-60zM849,535h62v1h-62zM120,536h62v1h-62zM367,536h93v1h-93zM529,536h61v1h-61zM676,536h60v1h-60zM849,536h62v1h-62zM121,537h61v1h-61zM367,537h93v1h-93zM529,537h61v1h-61zM676,537h60v1h-60zM849,537h62v1h-62zM120,538h62v1h-62zM366,538h93v1h-93zM529,538h61v1h-61zM676,538h60v1h-60zM849,538h62v1h-62zM120,539h62v1h-62zM366,539h93v1h-93zM529,539h61v1h-61zM676,539h60v1h-60zM849,539h62v1h-62zM120,540h62v1h-62zM366,540h93v1h-93zM529,540h61v1h-61zM676,540h60v1h-60zM849,540h62v1h-62zM120,541h62v1h-62zM366,541h93v1h-93zM529,541h61v1h-61zM675,541h61v1h-61zM849,541h62v1h-62zM120,542h62v1h-62zM366,542h94v1h-94zM529,542h61v1h-61zM675,542h61v1h-61zM849,542h62v1h-62zM120,543h62v1h-62zM366,543h94v1h-94zM529,543h61v1h-61zM675,543h61v1h-61zM849,543h62v1h-62zM120,544h62v1h-62zM366,544h95v1h-95zM529,544h61v1h-61zM676,544h60v1h-60zM849,544h62v1h-62zM120,545h62v1h-62zM366,545h96v1h-96zM529,545h61v1h-61zM676,545h60v1h-60zM849,545h62v1h-62zM120,546h62v1h-62zM366,546h98v1h-98zM529,546h61v1h-61zM676,546h60v1h-60zM849,546h62v1h-62zM120,547h62v1h-62zM367,547h98v1h-98zM529,547h61v1h-61zM676,547h60v1h-60zM849,547h62v1h-62zM120,548h62v1h-62zM367,548h99v1h-99zM529,548h61v1h-61zM676,548h60v1h-60zM849,548h62v1h-62zM120,549h62v1h-62zM367,549h100v1h-100zM529,549h61v1h-61zM676,549h60v1h-60zM849,549h62v1h-62zM120,550h62v1h-62zM367,550h101v1h-101zM529,550h61v1h-61zM676,550h60v1h-60zM849,550h62v1h-62zM120,551h62v1h-62zM367,551h102v1h-102zM529,551h61v1h-61zM676,551h60v1h-60zM849,551h62v1h-62zM120,552h62v1h-62zM368,552h103v1h-103zM529,552h61v1h-61zM676,552h60v1h-60zM849,552h62v1h-62zM120,553h62v1h-62zM368,553h104v1h-104zM529,553h61v1h-61zM676,553h60v1h-60zM849,553h62v1h-62zM120,554h62v1h-62zM368,554h105v1h-105zM529,554h61v1h-61zM676,554h60v1h-60zM849,554h62v1h-62zM120,555h62v1h-62zM369,555h105v1h-105zM529,555h61v1h-61zM676,555h60v1h-60zM849,555h62v1h-62zM120,556h62v1h-62zM369,556h105v1h-105zM529,556h61v1h-61zM676,556h60v1h-60zM849,556h62v1h-62zM120,557h62v1h-62zM369,557h106v1h-106zM529,557h61v1h-61zM676,557h60v1h-60zM849,557h62v1h-62zM120,558h62v1h-62zM370,558h106v1h-106zM529,558h61v1h-61zM676,558h60v1h-60zM849,558h62v1h-62zM120,559h62v1h-62zM371,559h106v1h-106zM529,559h61v1h-61zM676,559h60v1h-60zM849,559h62v1h-62zM121,560h61v1h-61zM372,560h106v1h-106zM529,560h61v1h-61zM676,560h60v1h-60zM849,560h62v1h-62zM121,561h61v1h-61zM373,561h106v1h-106zM529,561h61v1h-61zM676,561h60v1h-60zM849,561h62v1h-62zM120,562h62v1h-62zM374,562h105v1h-105zM529,562h61v1h-61zM676,562h60v1h-60zM849,562h62v1h-62zM121,563h61v1h-61zM375,563h105v1h-105zM529,563h61v1h-61zM676,563h60v1h-60zM849,563h62v1h-62zM121,564h62v1h-62zM376,564h105v1h-105zM529,564h61v1h-61zM676,564h60v1h-60zM849,564h62v1h-62zM121,565h62v1h-62zM377,565h104v1h-104zM529,565h61v1h-61zM676,565h60v1h-60zM849,565h62v1h-62zM121,566h62v1h-62zM378,566h104v1h-104zM529,566h61v1h-61zM676,566h60v1h-60zM849,566h62v1h-62zM121,567h62v1h-62zM379,567h104v1h-104zM529,567h61v1h-61zM676,567h60v1h-60zM849,567h62v1h-62zM121,568h62v1h-62zM382,568h101v1h-101zM529,568h61v1h-61zM676,568h60v1h-60zM849,568h61v1h-61zM121,569h62v1h-62zM384,569h100v1h-100zM529,569h61v1h-61zM676,569h60v1h-60zM849,569h61v1h-61zM121,570h62v1h-62zM387,570h97v1h-97zM529,570h61v1h-61zM676,570h60v1h-60zM849,570h61v1h-61zM121,571h62v1h-62zM391,571h94v1h-94zM529,571h61v1h-61zM676,571h60v1h-60zM848,571h62v1h-62zM121,572h62v1h-62zM400,572h86v1h-86zM529,572h61v1h-61zM676,572h60v1h-60zM848,572h62v1h-62zM121,573h62v1h-62zM404,573h82v1h-82zM529,573h61v1h-61zM676,573h60v1h-60zM848,573h62v1h-62zM121,574h62v1h-62zM408,574h79v1h-79zM529,574h61v1h-61zM676,574h60v1h-60zM848,574h62v1h-62zM121,575h62v1h-62zM411,575h76v1h-76zM529,575h61v1h-61zM676,575h60v1h-60zM848,575h62v1h-62zM121,576h62v1h-62zM414,576h73v1h-73zM529,576h61v1h-61zM676,576h60v1h-60zM848,576h62v1h-62zM121,577h62v1h-62zM415,577h73v1h-73zM529,577h61v1h-61zM676,577h60v1h-60zM848,577h62v1h-62zM121,578h62v1h-62zM417,578h71v1h-71zM529,578h61v1h-61zM676,578h60v1h-60zM848,578h61v1h-61zM121,579h62v1h-62zM418,579h70v1h-70zM529,579h61v1h-61zM676,579h60v1h-60zM848,579h61v1h-61zM121,580h62v1h-62zM419,580h70v1h-70zM529,580h61v1h-61zM676,580h60v1h-60zM848,580h61v1h-61zM122,581h62v1h-62zM420,581h69v1h-69zM529,581h61v1h-61zM676,581h60v1h-60zM848,581h61v1h-61zM122,582h62v1h-62zM421,582h68v1h-68zM529,582h61v1h-61zM676,582h60v1h-60zM848,582h61v1h-61zM122,583h62v1h-62zM422,583h68v1h-68zM529,583h61v1h-61zM676,583h60v1h-60zM848,583h61v1h-61zM122,584h62v1h-62zM423,584h67v1h-67zM529,584h61v1h-61zM676,584h60v1h-60zM848,584h61v1h-61zM122,585h62v1h-62zM424,585h67v1h-67zM529,585h61v1h-61zM676,585h60v1h-60zM848,585h61v1h-61zM122,586h62v1h-62zM425,586h66v1h-66zM529,586h61v1h-61zM676,586h60v1h-60zM848,586h61v1h-61zM122,587h62v1h-62zM426,587h66v1h-66zM529,587h61v1h-61zM676,587h60v1h-60zM847,587h62v1h-62zM122,588h62v1h-62zM427,588h65v1h-65zM529,588h61v1h-61zM676,588h60v1h-60zM847,588h61v1h-61zM123,589h61v1h-61zM427,589h65v1h-65zM529,589h61v1h-61zM676,589h60v1h-60zM847,589h61v1h-61zM123,590h61v1h-61zM428,590h65v1h-65zM529,590h61v1h-61zM676,590h60v1h-60zM847,590h61v1h-61zM123,591h61v1h-61zM429,591h64v1h-64zM529,591h61v1h-61zM676,591h60v1h-60zM847,591h61v1h-61zM123,592h61v1h-61zM430,592h63v1h-63zM529,592h61v1h-61zM676,592h60v1h-60zM847,592h61v1h-61zM123,593h61v1h-61zM430,593h64v1h-64zM529,593h61v1h-61zM676,593h60v1h-60zM847,593h61v1h-61zM123,594h61v1h-61zM431,594h63v1h-63zM529,594h61v1h-61zM676,594h60v1h-60zM847,594h61v1h-61zM123,595h62v1h-62zM431,595h63v1h-63zM529,595h61v1h-61zM676,595h60v1h-60zM847,595h60v1h-60zM124,596h61v1h-61zM432,596h63v1h-63zM529,596h61v1h-61zM676,596h60v1h-60zM847,596h60v1h-60zM124,597h61v1h-61zM432,597h63v1h-63zM529,597h61v1h-61zM676,597h60v1h-60zM846,597h61v1h-61zM124,598h61v1h-61zM432,598h63v1h-63zM529,598h61v1h-61zM676,598h60v1h-60zM846,598h61v1h-61zM124,599h61v1h-61zM432,599h63v1h-63zM529,599h61v1h-61zM676,599h60v1h-60zM846,599h61v1h-61zM125,600h60v1h-60zM433,600h63v1h-63zM529,600h61v1h-61zM676,600h60v1h-60zM846,600h60v1h-60zM125,601h60v1h-60zM433,601h63v1h-63zM529,601h61v1h-61zM676,601h60v1h-60zM846,601h60v1h-60zM125,602h61v1h-61zM433,602h63v1h-63zM529,602h61v1h-61zM676,602h60v1h-60zM845,602h61v1h-61zM125,603h61v1h-61zM433,603h63v1h-63zM529,603h61v1h-61zM676,603h60v1h-60zM845,603h61v1h-61zM126,604h60v1h-60zM434,604h62v1h-62zM529,604h61v1h-61zM676,604h60v1h-60zM845,604h61v1h-61zM126,605h60v1h-60zM434,605h62v1h-62zM529,605h61v1h-61zM676,605h60v1h-60zM844,605h61v1h-61zM126,606h61v1h-61zM434,606h62v1h-62zM529,606h61v1h-61zM676,606h60v1h-60zM844,606h61v1h-61zM126,607h61v1h-61zM434,607h62v1h-62zM529,607h61v1h-61zM676,607h60v1h-60zM844,607h61v1h-61zM126,608h61v1h-61zM435,608h61v1h-61zM529,608h61v1h-61zM676,608h60v1h-60zM843,608h62v1h-62zM127,609h60v1h-60zM435,609h61v1h-61zM529,609h61v1h-61zM675,609h61v1h-61zM843,609h62v1h-62zM127,610h61v1h-61zM435,610h61v1h-61zM529,610h61v1h-61zM675,610h61v1h-61zM843,610h62v1h-62zM127,611h61v1h-61zM318,611h5v1h-5zM435,611h62v1h-62zM529,611h61v1h-61zM675,611h61v1h-61zM843,611h61v1h-61zM127,612h61v1h-61zM314,612h13v1h-13zM436,612h61v1h-61zM529,612h61v1h-61zM676,612h60v1h-60zM842,612h62v1h-62zM127,613h62v1h-62zM310,613h19v1h-19zM436,613h61v1h-61zM529,613h61v1h-61zM676,613h60v1h-60zM842,613h62v1h-62zM127,614h62v1h-62zM308,614h24v1h-24zM436,614h61v1h-61zM529,614h61v1h-61zM676,614h60v1h-60zM842,614h62v1h-62zM127,615h62v1h-62zM306,615h28v1h-28zM436,615h61v1h-61zM530,615h60v1h-60zM675,615h61v1h-61zM842,615h62v1h-62zM128,616h62v1h-62zM304,616h31v1h-31zM437,616h60v1h-60zM530,616h60v1h-60zM675,616h61v1h-61zM842,616h62v1h-62zM128,617h62v1h-62zM303,617h34v1h-34zM437,617h60v1h-60zM529,617h61v1h-61zM675,617h61v1h-61zM841,617h63v1h-63zM128,618h62v1h-62zM301,618h38v1h-38zM437,618h60v1h-60zM529,618h61v1h-61zM675,618h61v1h-61zM841,618h63v1h-63zM128,619h62v1h-62zM300,619h40v1h-40zM437,619h60v1h-60zM530,619h60v1h-60zM675,619h61v1h-61zM841,619h63v1h-63zM128,620h63v1h-63zM298,620h43v1h-43zM437,620h60v1h-60zM530,620h60v1h-60zM675,620h61v1h-61zM841,620h63v1h-63zM128,621h63v1h-63zM298,621h44v1h-44zM437,621h60v1h-60zM530,621h60v1h-60zM675,621h61v1h-61zM841,621h63v1h-63zM128,622h63v1h-63zM297,622h46v1h-46zM437,622h60v1h-60zM530,622h60v1h-60zM675,622h61v1h-61zM841,622h62v1h-62zM128,623h63v1h-63zM296,623h48v1h-48zM437,623h60v1h-60zM530,623h60v1h-60zM675,623h61v1h-61zM840,623h63v1h-63zM128,624h63v1h-63zM296,624h48v1h-48zM437,624h60v1h-60zM530,624h60v1h-60zM675,624h61v1h-61zM840,624h63v1h-63zM128,625h63v1h-63zM295,625h50v1h-50zM437,625h60v1h-60zM530,625h60v1h-60zM675,625h61v1h-61zM840,625h63v1h-63zM129,626h63v1h-63zM295,626h51v1h-51zM437,626h60v1h-60zM530,626h60v1h-60zM675,626h61v1h-61zM840,626h63v1h-63zM129,627h63v1h-63zM294,627h53v1h-53zM437,627h61v1h-61zM530,627h60v1h-60zM675,627h61v1h-61zM840,627h63v1h-63zM129,628h63v1h-63zM294,628h54v1h-54zM437,628h60v1h-60zM530,628h60v1h-60zM675,628h61v1h-61zM840,628h63v1h-63zM129,629h63v1h-63zM293,629h55v1h-55zM437,629h61v1h-61zM530,629h60v1h-60zM675,629h61v1h-61zM839,629h63v1h-63zM129,630h63v1h-63zM292,630h57v1h-57zM437,630h61v1h-61zM530,630h60v1h-60zM675,630h61v1h-61zM839,630h63v1h-63zM129,631h63v1h-63zM292,631h57v1h-57zM437,631h61v1h-61zM530,631h60v1h-60zM675,631h61v1h-61zM839,631h63v1h-63zM130,632h63v1h-63zM292,632h57v1h-57zM437,632h60v1h-60zM530,632h60v1h-60zM675,632h61v1h-61zM839,632h62v1h-62zM130,633h63v1h-63zM291,633h58v1h-58zM437,633h60v1h-60zM530,633h60v1h-60zM675,633h61v1h-61zM839,633h62v1h-62zM130,634h63v1h-63zM291,634h59v1h-59zM437,634h60v1h-60zM530,634h60v1h-60zM675,634h61v1h-61zM838,634h63v1h-63zM130,635h63v1h-63zM291,635h59v1h-59zM437,635h60v1h-60zM530,635h60v1h-60zM675,635h61v1h-61zM838,635h62v1h-62zM131,636h62v1h-62zM291,636h59v1h-59zM437,636h60v1h-60zM530,636h60v1h-60zM675,636h61v1h-61zM838,636h62v1h-62zM131,637h62v1h-62zM291,637h59v1h-59zM437,637h60v1h-60zM530,637h60v1h-60zM675,637h61v1h-61zM838,637h62v1h-62zM131,638h63v1h-63zM291,638h59v1h-59zM437,638h60v1h-60zM530,638h60v1h-60zM675,638h61v1h-61zM837,638h62v1h-62zM132,639h62v1h-62zM291,639h60v1h-60zM436,639h61v1h-61zM530,639h60v1h-60zM675,639h61v1h-61zM837,639h62v1h-62zM132,640h62v1h-62zM291,640h60v1h-60zM436,640h61v1h-61zM530,640h61v1h-61zM675,640h61v1h-61zM837,640h61v1h-61zM133,641h62v1h-62zM291,641h60v1h-60zM436,641h61v1h-61zM530,641h61v1h-61zM675,641h61v1h-61zM836,641h62v1h-62zM133,642h62v1h-62zM291,642h60v1h-60zM436,642h61v1h-61zM530,642h61v1h-61zM674,642h61v1h-61zM836,642h62v1h-62zM133,643h63v1h-63zM291,643h60v1h-60zM435,643h62v1h-62zM530,643h61v1h-61zM674,643h61v1h-61zM835,643h62v1h-62zM134,644h62v1h-62zM291,644h60v1h-60zM435,644h62v1h-62zM530,644h61v1h-61zM674,644h61v1h-61zM835,644h62v1h-62zM134,645h63v1h-63zM291,645h61v1h-61zM435,645h62v1h-62zM531,645h61v1h-61zM674,645h61v1h-61zM834,645h63v1h-63zM134,646h63v1h-63zM291,646h61v1h-61zM434,646h62v1h-62zM531,646h61v1h-61zM673,646h62v1h-62zM834,646h63v1h-63zM135,647h63v1h-63zM291,647h61v1h-61zM434,647h62v1h-62zM531,647h61v1h-61zM673,647h62v1h-62zM833,647h63v1h-63zM135,648h63v1h-63zM292,648h60v1h-60zM434,648h62v1h-62zM531,648h62v1h-62zM673,648h61v1h-61zM833,648h63v1h-63zM135,649h64v1h-64zM292,649h61v1h-61zM433,649h63v1h-63zM531,649h62v1h-62zM672,649h62v1h-62zM833,649h63v1h-63zM135,650h64v1h-64zM292,650h61v1h-61zM433,650h63v1h-63zM531,650h63v1h-63zM672,650h62v1h-62zM833,650h63v1h-63zM136,651h63v1h-63zM292,651h62v1h-62zM433,651h63v1h-63zM531,651h63v1h-63zM671,651h63v1h-63zM832,651h64v1h-64zM136,652h64v1h-64zM293,652h61v1h-61zM433,652h63v1h-63zM531,652h63v1h-63zM671,652h63v1h-63zM832,652h64v1h-64zM136,653h64v1h-64zM293,653h62v1h-62zM432,653h64v1h-64zM531,653h64v1h-64zM670,653h63v1h-63zM832,653h63v1h-63zM136,654h64v1h-64zM293,654h62v1h-62zM432,654h64v1h-64zM531,654h64v1h-64zM670,654h63v1h-63zM832,654h63v1h-63zM136,655h64v1h-64zM293,655h63v1h-63zM432,655h64v1h-64zM532,655h64v1h-64zM669,655h64v1h-64zM831,655h64v1h-64zM136,656h64v1h-64zM294,656h62v1h-62zM431,656h64v1h-64zM532,656h64v1h-64zM668,656h65v1h-65zM831,656h64v1h-64zM136,657h64v1h-64zM294,657h63v1h-63zM430,657h65v1h-65zM532,657h64v1h-64zM668,657h65v1h-65zM831,657h64v1h-64zM137,658h64v1h-64zM294,658h63v1h-63zM430,658h65v1h-65zM532,658h65v1h-65zM668,658h65v1h-65zM831,658h63v1h-63zM137,659h64v1h-64zM294,659h64v1h-64zM429,659h66v1h-66zM532,659h65v1h-65zM667,659h66v1h-66zM830,659h64v1h-64zM137,660h64v1h-64zM294,660h64v1h-64zM429,660h66v1h-66zM532,660h66v1h-66zM666,660h66v1h-66zM830,660h64v1h-64zM137,661h64v1h-64zM295,661h64v1h-64zM428,661h66v1h-66zM533,661h66v1h-66zM666,661h66v1h-66zM829,661h65v1h-65zM138,662h64v1h-64zM295,662h65v1h-65zM427,662h67v1h-67zM533,662h66v1h-66zM665,662h67v1h-67zM829,662h64v1h-64zM138,663h64v1h-64zM295,663h66v1h-66zM426,663h68v1h-68zM533,663h67v1h-67zM664,663h68v1h-68zM828,663h65v1h-65zM138,664h64v1h-64zM295,664h67v1h-67zM425,664h69v1h-69zM533,664h68v1h-68zM662,664h70v1h-70zM828,664h64v1h-64zM139,665h64v1h-64zM295,665h68v1h-68zM424,665h69v1h-69zM533,665h69v1h-69zM661,665h71v1h-71zM827,665h65v1h-65zM140,666h64v1h-64zM296,666h68v1h-68zM423,666h70v1h-70zM534,666h69v1h-69zM660,666h71v1h-71zM827,666h64v1h-64zM140,667h64v1h-64zM296,667h70v1h-70zM422,667h71v1h-71zM534,667h70v1h-70zM659,667h72v1h-72zM826,667h65v1h-65zM141,668h64v1h-64zM296,668h70v1h-70zM421,668h71v1h-71zM534,668h71v1h-71zM658,668h73v1h-73zM826,668h64v1h-64zM141,669h64v1h-64zM296,669h71v1h-71zM420,669h72v1h-72zM535,669h71v1h-71zM657,669h73v1h-73zM826,669h64v1h-64zM142,670h64v1h-64zM297,670h72v1h-72zM419,670h72v1h-72zM535,670h72v1h-72zM656,670h74v1h-74zM825,670h65v1h-65zM142,671h64v1h-64zM297,671h73v1h-73zM418,671h73v1h-73zM536,671h73v1h-73zM654,671h75v1h-75zM825,671h64v1h-64zM142,672h65v1h-65zM297,672h75v1h-75zM415,672h75v1h-75zM536,672h74v1h-74zM652,672h77v1h-77zM825,672h64v1h-64zM142,673h65v1h-65zM298,673h76v1h-76zM412,673h78v1h-78zM537,673h76v1h-76zM650,673h78v1h-78zM824,673h65v1h-65zM143,674h64v1h-64zM298,674h79v1h-79zM409,674h80v1h-80zM537,674h79v1h-79zM647,674h81v1h-81zM824,674h65v1h-65zM143,675h65v1h-65zM299,675h81v1h-81zM407,675h82v1h-82zM538,675h81v1h-81zM644,675h83v1h-83zM824,675h64v1h-64zM143,676h65v1h-65zM299,676h84v1h-84zM404,676h84v1h-84zM538,676h86v1h-86zM641,676h86v1h-86zM824,676h64v1h-64zM143,677h65v1h-65zM300,677h87v1h-87zM401,677h87v1h-87zM539,677h90v1h-90zM634,677h92v1h-92zM823,677h65v1h-65zM144,678h64v1h-64zM300,678h187v1h-187zM539,678h187v1h-187zM823,678h65v1h-65zM144,679h65v1h-65zM301,679h186v1h-186zM540,679h185v1h-185zM823,679h65v1h-65zM144,680h65v1h-65zM301,680h186v1h-186zM540,680h185v1h-185zM822,680h65v1h-65zM144,681h65v1h-65zM302,681h184v1h-184zM541,681h184v1h-184zM822,681h65v1h-65zM145,682h65v1h-65zM302,682h184v1h-184zM541,682h183v1h-183zM821,682h66v1h-66zM145,683h65v1h-65zM303,683h182v1h-182zM541,683h183v1h-183zM821,683h65v1h-65zM145,684h66v1h-66zM304,684h181v1h-181zM542,684h181v1h-181zM820,684h66v1h-66zM145,685h67v1h-67zM304,685h181v1h-181zM542,685h181v1h-181zM819,685h66v1h-66zM146,686h67v1h-67zM305,686h179v1h-179zM543,686h179v1h-179zM818,686h67v1h-67zM146,687h67v1h-67zM305,687h178v1h-178zM544,687h177v1h-177zM818,687h67v1h-67zM146,688h68v1h-68zM306,688h176v1h-176zM544,688h177v1h-177zM817,688h67v1h-67zM147,689h67v1h-67zM307,689h175v1h-175zM545,689h175v1h-175zM817,689h67v1h-67zM147,690h68v1h-68zM307,690h174v1h-174zM546,690h173v1h-173zM816,690h67v1h-67zM148,691h67v1h-67zM308,691h172v1h-172zM546,691h173v1h-173zM816,691h66v1h-66zM149,692h66v1h-66zM309,692h171v1h-171zM547,692h171v1h-171zM816,692h66v1h-66zM149,693h67v1h-67zM309,693h170v1h-170zM547,693h170v1h-170zM816,693h65v1h-65zM150,694h66v1h-66zM310,694h169v1h-169zM548,694h169v1h-169zM815,694h66v1h-66zM151,695h65v1h-65zM311,695h167v1h-167zM548,695h168v1h-168zM815,695h66v1h-66zM151,696h66v1h-66zM311,696h166v1h-166zM549,696h167v1h-167zM814,696h66v1h-66zM151,697h66v1h-66zM312,697h164v1h-164zM549,697h166v1h-166zM814,697h66v1h-66zM152,698h66v1h-66zM313,698h162v1h-162zM550,698h164v1h-164zM813,698h67v1h-67zM152,699h66v1h-66zM313,699h161v1h-161zM551,699h162v1h-162zM812,699h68v1h-68zM152,700h67v1h-67zM314,700h160v1h-160zM552,700h161v1h-161zM812,700h67v1h-67zM152,701h68v1h-68zM315,701h158v1h-158zM552,701h160v1h-160zM811,701h68v1h-68zM153,702h68v1h-68zM316,702h156v1h-156zM553,702h158v1h-158zM810,702h68v1h-68zM153,703h69v1h-69zM317,703h154v1h-154zM555,703h155v1h-155zM810,703h68v1h-68zM153,704h69v1h-69zM318,704h152v1h-152zM556,704h153v1h-153zM809,704h69v1h-69zM154,705h69v1h-69zM319,705h150v1h-150zM557,705h151v1h-151zM809,705h68v1h-68zM154,706h69v1h-69zM319,706h149v1h-149zM557,706h150v1h-150zM809,706h67v1h-67zM155,707h68v1h-68zM320,707h147v1h-147zM558,707h148v1h-148zM808,707h67v1h-67zM156,708h68v1h-68zM321,708h146v1h-146zM559,708h146v1h-146zM808,708h67v1h-67zM156,709h68v1h-68zM322,709h144v1h-144zM560,709h144v1h-144zM807,709h67v1h-67zM157,710h67v1h-67zM323,710h142v1h-142zM561,710h143v1h-143zM807,710h67v1h-67zM158,711h67v1h-67zM324,711h139v1h-139zM562,711h140v1h-140zM807,711h66v1h-66zM158,712h67v1h-67zM326,712h136v1h-136zM564,712h137v1h-137zM806,712h67v1h-67zM159,713h67v1h-67zM327,713h134v1h-134zM565,713h135v1h-135zM805,713h68v1h-68zM159,714h67v1h-67zM328,714h132v1h-132zM566,714h133v1h-133zM805,714h67v1h-67zM159,715h68v1h-68zM329,715h130v1h-130zM567,715h131v1h-131zM804,715h68v1h-68zM160,716h68v1h-68zM330,716h128v1h-128zM568,716h129v1h-129zM803,716h69v1h-69zM160,717h69v1h-69zM331,717h126v1h-126zM569,717h127v1h-127zM802,717h69v1h-69zM160,718h70v1h-70zM333,718h122v1h-122zM571,718h123v1h-123zM802,718h69v1h-69zM160,719h70v1h-70zM334,719h120v1h-120zM572,719h120v1h-120zM801,719h70v1h-70zM161,720h70v1h-70zM336,720h116v1h-116zM574,720h116v1h-116zM801,720h70v1h-70zM161,721h70v1h-70zM338,721h112v1h-112zM575,721h113v1h-113zM800,721h70v1h-70zM161,722h71v1h-71zM340,722h109v1h-109zM576,722h111v1h-111zM800,722h70v1h-70zM162,723h70v1h-70zM342,723h105v1h-105zM578,723h107v1h-107zM799,723h70v1h-70zM163,724h70v1h-70zM343,724h103v1h-103zM579,724h105v1h-105zM798,724h70v1h-70zM164,725h69v1h-69zM345,725h100v1h-100zM581,725h102v1h-102zM798,725h69v1h-69zM165,726h69v1h-69zM346,726h97v1h-97zM582,726h99v1h-99zM797,726h70v1h-70zM165,727h70v1h-70zM348,727h92v1h-92zM585,727h93v1h-93zM796,727h70v1h-70zM166,728h70v1h-70zM351,728h87v1h-87zM588,728h87v1h-87zM795,728h71v1h-71zM166,729h71v1h-71zM354,729h82v1h-82zM590,729h83v1h-83zM794,729h71v1h-71zM167,730h71v1h-71zM356,730h77v1h-77zM592,730h79v1h-79zM793,730h72v1h-72zM167,731h72v1h-72zM358,731h73v1h-73zM594,731h75v1h-75zM793,731h71v1h-71zM168,732h71v1h-71zM360,732h69v1h-69zM596,732h71v1h-71zM792,732h72v1h-72zM168,733h72v1h-72zM362,733h65v1h-65zM598,733h67v1h-67zM792,733h71v1h-71zM168,734h72v1h-72zM366,734h57v1h-57zM603,734h59v1h-59zM791,734h72v1h-72zM169,735h72v1h-72zM373,735h44v1h-44zM610,735h46v1h-46zM791,735h72v1h-72zM169,736h72v1h-72zM380,736h29v1h-29zM616,736h31v1h-31zM790,736h72v1h-72zM169,737h73v1h-73zM389,737h5v1h-5zM631,737h1v1h-1zM790,737h71v1h-71zM170,738h72v1h-72zM789,738h72v1h-72zM171,739h72v1h-72zM788,739h72v1h-72zM172,740h72v1h-72zM787,740h72v1h-72zM173,741h72v1h-72zM786,741h72v1h-72zM173,742h73v1h-73zM786,742h71v1h-71zM174,743h72v1h-72zM785,743h72v1h-72zM175,744h72v1h-72zM785,744h71v1h-71zM175,745h73v1h-73zM784,745h72v1h-72zM176,746h72v1h-72zM784,746h72v1h-72zM176,747h73v1h-73zM783,747h72v1h-72zM176,748h73v1h-73zM782,748h73v1h-73zM177,749h73v1h-73zM781,749h73v1h-73zM177,750h74v1h-74zM780,750h74v1h-74zM178,751h74v1h-74zM780,751h73v1h-73zM179,752h74v1h-74zM779,752h73v1h-73zM179,753h75v1h-75zM778,753h73v1h-73zM180,754h75v1h-75zM777,754h73v1h-73zM181,755h74v1h-74zM776,755h74v1h-74zM182,756h74v1h-74zM775,756h74v1h-74zM182,757h75v1h-75zM775,757h74v1h-74zM183,758h75v1h-75zM774,758h74v1h-74zM184,759h75v1h-75zM773,759h75v1h-75zM184,760h76v1h-76zM772,760h75v1h-75zM184,761h77v1h-77zM771,761h76v1h-76zM185,762h77v1h-77zM770,762h76v1h-76zM185,763h78v1h-78zM769,763h76v1h-76zM186,764h77v1h-77zM768,764h77v1h-77zM187,765h77v1h-77zM767,765h77v1h-77zM188,766h77v1h-77zM767,766h76v1h-76zM189,767h77v1h-77zM766,767h76v1h-76zM190,768h76v1h-76zM765,768h77v1h-77zM190,769h77v1h-77zM764,769h77v1h-77zM191,770h77v1h-77zM763,770h78v1h-78zM192,771h77v1h-77zM762,771h78v1h-78zM192,772h78v1h-78zM761,772h78v1h-78zM193,773h78v1h-78zM760,773h79v1h-79zM193,774h79v1h-79zM759,774h79v1h-79zM194,775h79v1h-79zM758,775h79v1h-79zM195,776h79v1h-79zM757,776h79v1h-79zM195,777h80v1h-80zM756,777h79v1h-79zM196,778h80v1h-80zM755,778h79v1h-79zM197,779h80v1h-80zM754,779h80v1h-80zM198,780h80v1h-80zM753,780h80v1h-80zM199,781h80v1h-80zM752,781h80v1h-80zM199,782h81v1h-81zM752,782h80v1h-80zM200,783h81v1h-81zM750,783h81v1h-81zM200,784h81v1h-81zM749,784h81v1h-81zM201,785h81v1h-81zM748,785h82v1h-82zM202,786h82v1h-82zM747,786h82v1h-82zM203,787h82v1h-82zM746,787h82v1h-82zM204,788h82v1h-82zM745,788h82v1h-82zM205,789h82v1h-82zM745,789h81v1h-81zM206,790h82v1h-82zM744,790h81v1h-81zM206,791h83v1h-83zM743,791h82v1h-82zM207,792h83v1h-83zM741,792h83v1h-83zM208,793h84v1h-84zM740,793h83v1h-83zM208,794h85v1h-85zM739,794h84v1h-84zM209,795h85v1h-85zM738,795h84v1h-84zM210,796h85v1h-85zM737,796h84v1h-84zM211,797h85v1h-85zM736,797h84v1h-84zM212,798h85v1h-85zM735,798h84v1h-84zM213,799h85v1h-85zM734,799h84v1h-84zM214,800h85v1h-85zM732,800h85v1h-85zM214,801h87v1h-87zM731,801h86v1h-86zM215,802h87v1h-87zM729,802h87v1h-87zM216,803h87v1h-87zM728,803h87v1h-87zM216,804h88v1h-88zM727,804h87v1h-87zM217,805h88v1h-88zM726,805h87v1h-87zM218,806h88v1h-88zM725,806h87v1h-87zM219,807h88v1h-88zM724,807h87v1h-87zM220,808h88v1h-88zM722,808h88v1h-88zM221,809h89v1h-89zM721,809h88v1h-88zM222,810h89v1h-89zM720,810h88v1h-88zM223,811h89v1h-89zM719,811h89v1h-89zM224,812h90v1h-90zM718,812h89v1h-89zM225,813h90v1h-90zM717,813h89v1h-89zM226,814h90v1h-90zM716,814h89v1h-89zM227,815h90v1h-90zM714,815h90v1h-90zM228,816h92v1h-92zM713,816h90v1h-90zM229,817h93v1h-93zM711,817h91v1h-91zM230,818h93v1h-93zM709,818h92v1h-92zM231,819h93v1h-93zM708,819h92v1h-92zM232,820h93v1h-93zM707,820h93v1h-93zM233,821h93v1h-93zM706,821h93v1h-93zM233,822h95v1h-95zM705,822h93v1h-93zM235,823h95v1h-95zM702,823h94v1h-94zM236,824h95v1h-95zM700,824h95v1h-95zM237,825h96v1h-96zM698,825h96v1h-96zM238,826h96v1h-96zM697,826h96v1h-96zM239,827h97v1h-97zM696,827h96v1h-96zM240,828h97v1h-97zM694,828h97v1h-97zM241,829h97v1h-97zM693,829h97v1h-97zM242,830h97v1h-97zM692,830h97v1h-97zM243,831h98v1h-98zM690,831h98v1h-98zM244,832h100v1h-100zM687,832h100v1h-100zM245,833h101v1h-101zM685,833h101v1h-101zM246,834h102v1h-102zM684,834h101v1h-101zM247,835h102v1h-102zM683,835h101v1h-101zM248,836h102v1h-102zM681,836h102v1h-102zM249,837h102v1h-102zM680,837h103v1h-103zM250,838h103v1h-103zM679,838h103v1h-103zM251,839h104v1h-104zM677,839h103v1h-103zM252,840h106v1h-106zM674,840h105v1h-105zM254,841h107v1h-107zM671,841h106v1h-106zM255,842h107v1h-107zM669,842h107v1h-107zM256,843h107v1h-107zM668,843h107v1h-107zM257,844h108v1h-108zM667,844h107v1h-107zM258,845h108v1h-108zM665,845h108v1h-108zM259,846h108v1h-108zM664,846h108v1h-108zM260,847h110v1h-110zM660,847h111v1h-111zM262,848h112v1h-112zM656,848h114v1h-114zM263,849h114v1h-114zM654,849h114v1h-114zM264,850h114v1h-114zM652,850h115v1h-115zM265,851h115v1h-115zM651,851h115v1h-115zM266,852h115v1h-115zM649,852h116v1h-116zM267,853h116v1h-116zM648,853h116v1h-116zM268,854h117v1h-117zM646,854h117v1h-117zM270,855h119v1h-119zM643,855h118v1h-118zM272,856h121v1h-121zM639,856h120v1h-120zM273,857h124v1h-124zM635,857h123v1h-123zM275,858h124v1h-124zM632,858h124v1h-124zM276,859h125v1h-125zM631,859h124v1h-124zM277,860h125v1h-125zM629,860h125v1h-125zM278,861h126v1h-126zM627,861h126v1h-126zM279,862h127v1h-127zM625,862h127v1h-127zM281,863h129v1h-129zM622,863h128v1h-128zM282,864h132v1h-132zM617,864h131v1h-131zM284,865h135v1h-135zM613,865h134v1h-134zM285,866h137v1h-137zM609,866h137v1h-137zM286,867h139v1h-139zM607,867h138v1h-138zM288,868h139v1h-139zM604,868h140v1h-140zM289,869h141v1h-141zM601,869h142v1h-142zM290,870h143v1h-143zM597,870h144v1h-144zM292,871h146v1h-146zM592,871h148v1h-148zM293,872h154v1h-154zM585,872h153v1h-153zM295,873h158v1h-158zM580,873h156v1h-156zM296,874h161v1h-161zM575,874h160v1h-160zM298,875h163v1h-163zM570,875h163v1h-163zM299,876h164v1h-164zM566,876h166v1h-166zM300,877h167v1h-167zM562,877h169v1h-169zM301,878h175v1h-175zM556,878h174v1h-174zM303,879h186v1h-186zM541,879h187v1h-187zM305,880h421v1h-421zM307,881h416v1h-416zM309,882h413v1h-413zM311,883h409v1h-409zM312,884h407v1h-407zM313,885h405v1h-405zM315,886h401v1h-401zM317,887h397v1h-397zM320,888h391v1h-391zM322,889h387v1h-387zM324,890h383v1h-383zM325,891h381v1h-381zM326,892h379v1h-379zM327,893h377v1h-377zM329,894h373v1h-373zM331,895h369v1h-369zM333,896h365v1h-365zM336,897h359v1h-359zM338,898h355v1h-355zM339,899h353v1h-353zM341,900h350v1h-350zM342,901h347v1h-347zM344,902h343v1h-343zM346,903h338v1h-338zM350,904h330v1h-330zM354,905h323v1h-323zM356,906h319v1h-319zM357,907h317v1h-317zM359,908h314v1h-314zM360,909h311v1h-311zM362,910h307v1h-307zM366,911h300v1h-300zM370,912h292v1h-292zM373,913h286v1h-286zM376,914h281v1h-281zM377,915h278v1h-278zM379,916h274v1h-274zM380,917h272v1h-272zM382,918h268v1h-268zM385,919h261v1h-261zM389,920h252v1h-252zM394,921h243v1h-243zM397,922h237v1h-237zM399,923h232v1h-232zM402,924h227v1h-227zM405,925h221v1h-221zM408,926h215v1h-215zM413,927h205v1h-205zM419,928h193v1h-193zM423,929h185v1h-185zM427,930h178v1h-178zM429,931h173v1h-173zM432,932h168v1h-168zM435,933h162v1h-162zM441,934h151v1h-151zM448,935h134v1h-134zM456,936h117v1h-117zM467,937h98v1h-98zM477,938h78v1h-78zM486,939h59v1h-59zM491,940h46v1h-46z" fill="#000"/>
</svg>