<?xml version="1.0" encoding="UTF-8"?>
<svg xmlns="http://www.w3.org/2000/svg" width="512" height="512" viewBox="0 0 512 512">
<path d="M177,106h9v1h-9zM174,107h15v1h-15zM172,108h20v1h-20zM170,109h23v1h-23zM169,110h26v1h-26zM167,111h29v1h-29zM166,112h31v1h-31zM165,113h33v1h-33zM165,114h34v1h-34zM164,115h37v1h-37zM163,116h39v1h-39zM163,117h40v1h-40zM162,118h42v1h-42zM162,119h43v1h-43zM161,120h45v1h-45zM161,121h47v1h-47zM161,122h48v1h-48zM161,123h49v1h-49zM161,124h50v1h-50zM160,125h52v1h-52zM160,126h53v1h-53zM160,127h55v1h-55zM160,128h56v1h-56zM160,129h57v1h-57zM161,130h57v1h-57zM161,131h58v1h-58zM161,132h59v1h-59zM161,133h61v1h-61zM162,134h61v1h-61zM162,135h62v1h-62zM162,136h63v1h-63zM163,137h63v1h-63zM163,138h64v1h-64zM164,139h65v1h-65zM165,140h65v1h-65zM166,141h65v1h-65zM167,142h65v1h-65zM168,143h65v1h-65zM169,144h65v1h-65zM170,145h66v1h-66zM171,146h66v1h-66zM172,147h66v1h-66zM173,148h66v1h-66zM175,149h65v1h-65zM176,150h65v1h-65zM177,151h66v1h-66zM178,152h66v1h-66zM179,153h66v1h-66zM180,154h66v1h-66zM182,155h65v1h-65zM183,156h65v1h-65zM184,157h66v1h-66zM185,158h66v1h-66zM186,159h66v1h-66zM188,160h65v1h-65zM189,161h65v1h-65zM190,162h65v1h-65zM191,163h66v1h-66zM192,164h66v1h-66zM193,165h66v1h-66zM195,166h65v1h-65zM196,167h65v1h-65zM197,168h65v1h-65zM198,169h66v1h-66zM199,170h66v1h-66zM200,171h66v1h-66zM202,172h65v1h-65zM203,173h65v1h-65zM204,174h65v1h-65zM205,175h66v1h-66zM206,176h66v1h-66zM207,177h66v1h-66zM209,178h65v1h-65zM210,179h65v1h-65zM211,180h65v1h-65zM212,181h66v1h-66zM213,182h66v1h-66zM214,183h66v1h-66zM216,184h65v1h-65zM217,185h65v1h-65zM218,186h65v1h-65zM219,187h66v1h-66zM220,188h66v1h-66zM221,189h66v1h-66zM223,190h65v1h-65zM224,191h65v1h-65zM225,192h65v1h-65zM226,193h66v1h-66zM227,194h66v1h-66zM228,195h66v1h-66zM230,196h65v1h-65zM231,197h65v1h-65zM232,198h66v1h-66zM233,199h66v1h-66zM234,200h66v1h-66zM235,201h66v1h-66zM237,202h65v1h-65zM238,203h65v1h-65zM239,204h66v1h-66zM240,205h66v1h-66zM241,206h66v1h-66zM242,207h66v1h-66zM244,208h65v1h-65zM245,209h65v1h-65zM246,210h66v1h-66zM247,211h66v1h-66zM248,212h66v1h-66zM249,213h66v1h-66zM251,214h65v1h-65zM252,215h65v1h-65zM253,216h66v1h-66zM254,217h66v1h-66zM255,218h66v1h-66zM256,219h66v1h-66zM258,220h65v1h-65zM259,221h65v1h-65zM260,222h66v1h-66zM261,223h66v1h-66zM262,224h66v1h-66zM263,225h66v1h-66zM265,226h65v1h-65zM266,227h65v1h-65zM267,228h66v1h-66zM268,229h66v1h-66zM269,230h66v1h-66zM270,231h66v1h-66zM272,232h65v1h-65zM273,233h65v1h-65zM274,234h66v1h-66zM275,235h66v1h-66zM276,236h66v1h-66zM277,237h66v1h-66zM279,238h65v1h-65zM280,239h65v1h-65zM281,240h65v1h-65zM282,241h65v1h-65zM283,242h65v1h-65zM284,243h65v1h-65zM286,244h64v1h-64zM287,245h63v1h-63zM288,246h63v1h-63zM289,247h62v1h-62zM290,248h61v1h-61zM291,249h61v1h-61zM293,250h59v1h-59zM294,251h58v1h-58zM295,252h57v1h-57zM296,253h57v1h-57zM297,254h56v1h-56zM298,255h55v1h-55zM298,256h55v1h-55zM296,257h57v1h-57zM295,258h57v1h-57zM294,259h58v1h-58zM293,260h59v1h-59zM292,261h60v1h-60zM291,262h61v1h-61zM289,263h62v1h-62zM288,264h63v1h-63zM287,265h63v1h-63zM286,266h64v1h-64zM285,267h64v1h-64zM284,268h64v1h-64zM282,269h66v1h-66zM281,270h66v1h-66zM280,271h66v1h-66zM279,272h66v1h-66zM278,273h65v1h-65zM277,274h65v1h-65zM275,275h66v1h-66zM274,276h66v1h-66zM273,277h66v1h-66zM272,278h66v1h-66zM271,279h65v1h-65zM270,280h65v1h-65zM268,281h66v1h-66zM267,282h66v1h-66zM266,283h66v1h-66zM265,284h65v1h-65zM264,285h65v1h-65zM263,286h65v1h-65zM261,287h66v1h-66zM260,288h66v1h-66zM259,289h66v1h-66zM258,290h65v1h-65zM257,291h65v1h-65zM256,292h65v1h-65zM254,293h66v1h-66zM253,294h66v1h-66zM252,295h66v1h-66zM251,296h65v1h-65zM250,297h65v1h-65zM249,298h65v1h-65zM247,299h66v1h-66zM246,300h66v1h-66zM245,301h66v1h-66zM244,302h65v1h-65zM243,303h65v1h-65zM242,304h65v1h-65zM240,305h66v1h-66zM239,306h66v1h-66zM238,307h66v1h-66zM237,308h65v1h-65zM236,309h65v1h-65zM235,310h65v1h-65zM233,311h66v1h-66zM232,312h66v1h-66zM231,313h66v1h-66zM230,314h65v1h-65zM229,315h65v1h-65zM228,316h65v1h-65zM226,317h66v1h-66zM225,318h66v1h-66zM224,319h66v1h-66zM223,320h65v1h-65zM222,321h65v1h-65zM221,322h65v1h-65zM219,323h66v1h-66zM218,324h66v1h-66zM217,325h66v1h-66zM216,326h65v1h-65zM215,327h65v1h-65zM214,328h65v1h-65zM212,329h66v1h-66zM211,330h66v1h-66zM210,331h66v1h-66zM209,332h65v1h-65zM208,333h65v1h-65zM206,334h66v1h-66zM205,335h66v1h-66zM204,336h66v1h-66zM203,337h66v1h-66zM202,338h65v1h-65zM201,339h65v1h-65zM199,340h66v1h-66zM198,341h66v1h-66zM197,342h66v1h-66zM196,343h66v1h-66zM195,344h65v1h-65zM194,345h65v1h-65zM192,346h66v1h-66zM191,347h66v1h-66zM190,348h66v1h-66zM189,349h66v1h-66zM188,350h65v1h-65zM187,351h65v1h-65zM185,352h66v1h-66zM184,353h66v1h-66zM183,354h66v1h-66zM182,355h66v1h-66zM181,356h65v1h-65zM180,357h65v1h-65zM178,358h66v1h-66zM177,359h66v1h-66zM176,360h66v1h-66zM175,361h65v1h-65zM174,362h65v1h-65zM173,363h65v1h-65zM171,364h66v1h-66zM170,365h66v1h-66zM169,366h66v1h-66zM168,367h65v1h-65zM167,368h65v1h-65zM166,369h65v1h-65zM165,370h65v1h-65zM164,371h65v1h-65zM163,372h65v1h-65zM162,373h64v1h-64zM162,374h63v1h-63zM161,375h63v1h-63zM161,376h62v1h-62zM161,377h61v1h-61zM160,378h61v1h-61zM160,379h59v1h-59zM160,380h58v1h-58zM160,381h57v1h-57zM159,382h57v1h-57zM159,383h56v1h-56zM159,384h55v1h-55zM159,385h53v1h-53zM159,386h52v1h-52zM160,387h50v1h-50zM160,388h49v1h-49zM160,389h48v1h-48zM160,390h47v1h-47zM160,391h45v1h-45zM161,392h43v1h-43zM161,393h42v1h-42zM162,394h40v1h-40zM162,395h39v1h-39zM163,396h37v1h-37zM164,397h34v1h-34zM164,398h33v1h-33zM165,399h31v1h-31zM166,400h29v1h-29zM168,401h26v1h-26zM169,402h23v1h-23zM171,403h20v1h-20zM173,404h15v1h-15zM176,405h9v1h-9z" fill="#000"/>
</svg>