<?xml version="1.0" encoding="UTF-8"?>
<svg xmlns="http://www.w3.org/2000/svg" width="512" height="512" viewBox="0 0 512 512">
<path d="M122,171h12v1h-12zM119,172h18v1h-18zM378,172h10v1h-10zM117,173h22v1h-22zM375,173h16v1h-16zM116,174h24v1h-24zM373,174h20v1h-20zM114,175h28v1h-28zM371,175h24v1h-24zM113,176h30v1h-30zM370,176h26v1h-26zM112,177h32v1h-32zM368,177h29v1h-29zM111,178h34v1h-34zM367,178h31v1h-31zM111,179h35v1h-35zM366,179h33v1h-33zM110,180h37v1h-37zM365,180h35v1h-35zM109,181h39v1h-39zM364,181h37v1h-37zM109,182h40v1h-40zM363,182h38v1h-38zM108,183h42v1h-42zM362,183h40v1h-40zM108,184h43v1h-43zM361,184h41v1h-41zM108,185h44v1h-44zM360,185h43v1h-43zM107,186h46v1h-46zM359,186h44v1h-44zM107,187h47v1h-47zM358,187h45v1h-45zM107,188h48v1h-48zM357,188h47v1h-47zM107,189h49v1h-49zM356,189h48v1h-48zM107,190h50v1h-50zM355,190h49v1h-49zM107,191h51v1h-51zM354,191h50v1h-50zM107,192h52v1h-52zM353,192h51v1h-51zM107,193h53v1h-53zM352,193h52v1h-52zM107,194h54v1h-54zM351,194h53v1h-53zM107,195h55v1h-55zM350,195h54v1h-54zM107,196h56v1h-56zM349,196h55v1h-55zM107,197h57v1h-57zM348,197h56v1h-56zM108,198h57v1h-57zM347,198h56v1h-56zM108,199h58v1h-58zM346,199h57v1h-57zM108,200h59v1h-59zM345,200h58v1h-58zM109,201h59v1h-59zM344,201h58v1h-58zM109,202h60v1h-60zM343,202h59v1h-59zM110,203h60v1h-60zM342,203h59v1h-59zM111,204h60v1h-60zM341,204h60v1h-60zM111,205h61v1h-61zM340,205h60v1h-60zM112,206h61v1h-61zM339,206h60v1h-60zM113,207h61v1h-61zM338,207h61v1h-61zM114,208h61v1h-61zM337,208h61v1h-61zM115,209h61v1h-61zM336,209h61v1h-61zM116,210h61v1h-61zM335,210h61v1h-61zM117,211h61v1h-61zM334,211h61v1h-61zM118,212h61v1h-61zM333,212h61v1h-61zM119,213h61v1h-61zM332,213h61v1h-61zM120,214h61v1h-61zM331,214h61v1h-61zM121,215h61v1h-61zM330,215h61v1h-61zM122,216h61v1h-61zM329,216h61v1h-61zM123,217h61v1h-61zM328,217h61v1h-61zM124,218h61v1h-61zM327,218h61v1h-61zM125,219h61v1h-61zM326,219h61v1h-61zM126,220h61v1h-61zM325,220h61v1h-61zM127,221h61v1h-61zM324,221h61v1h-61zM128,222h61v1h-61zM323,222h61v1h-61zM129,223h61v1h-61zM322,223h61v1h-61zM130,224h61v1h-61zM321,224h61v1h-61zM131,225h61v1h-61zM320,225h61v1h-61zM132,226h61v1h-61zM319,226h61v1h-61zM133,227h61v1h-61zM318,227h61v1h-61zM134,228h61v1h-61zM317,228h61v1h-61zM135,229h61v1h-61zM316,229h61v1h-61zM136,230h61v1h-61zM315,230h61v1h-61zM137,231h61v1h-61zM314,231h61v1h-61zM138,232h61v1h-61zM313,232h61v1h-61zM139,233h61v1h-61zM312,233h61v1h-61zM140,234h61v1h-61zM311,234h61v1h-61zM141,235h61v1h-61zM310,235h61v1h-61zM142,236h61v1h-61zM309,236h61v1h-61zM143,237h61v1h-61zM308,237h61v1h-61zM144,238h61v1h-61zM307,238h61v1h-61zM145,239h61v1h-61zM306,239h61v1h-61zM146,240h61v1h-61zM305,240h61v1h-61zM147,241h61v1h-61zM304,241h61v1h-61zM148,242h61v1h-61zM303,242h61v1h-61zM149,243h61v1h-61zM302,243h61v1h-61zM150,244h61v1h-61zM301,244h61v1h-61zM151,245h61v1h-61zM300,245h61v1h-61zM152,246h61v1h-61zM299,246h61v1h-61zM153,247h61v1h-61zM298,247h61v1h-61zM154,248h61v1h-61zM297,248h61v1h-61zM155,249h61v1h-61zM296,249h61v1h-61zM156,250h61v1h-61zM295,250h61v1h-61zM157,251h61v1h-61zM294,251h61v1h-61zM158,252h61v1h-61zM293,252h61v1h-61zM159,253h61v1h-61zM292,253h61v1h-61zM160,254h61v1h-61zM291,254h61v1h-61zM161,255h61v1h-61zM290,255h61v1h-61zM162,256h61v1h-61zM289,256h61v1h-61zM163,257h61v1h-61zM288,257h61v1h-61zM164,258h61v1h-61zM287,258h61v1h-61zM165,259h61v1h-61zM286,259h61v1h-61zM166,260h61v1h-61zM285,260h61v1h-61zM167,261h61v1h-61zM284,261h61v1h-61zM168,262h61v1h-61zM283,262h61v1h-61zM169,263h61v1h-61zM282,263h61v1h-61zM170,264h61v1h-61zM281,264h61v1h-61zM171,265h61v1h-61zM280,265h61v1h-61zM172,266h61v1h-61zM279,266h61v1h-61zM173,267h61v1h-61zM278,267h61v1h-61zM174,268h61v1h-61zM277,268h61v1h-61zM175,269h61v1h-61zM276,269h61v1h-61zM176,270h61v1h-61zM275,270h61v1h-61zM177,271h61v1h-61zM274,271h61v1h-61zM178,272h61v1h-61zM273,272h61v1h-61zM179,273h61v1h-61zM272,273h61v1h-61zM180,274h61v1h-61zM271,274h61v1h-61zM181,275h61v1h-61zM270,275h61v1h-61zM182,276h61v1h-61zM269,276h61v1h-61zM183,277h61v1h-61zM268,277h61v1h-61zM184,278h61v1h-61zM267,278h61v1h-61zM185,279h61v1h-61zM266,279h61v1h-61zM186,280h61v1h-61zM265,280h61v1h-61zM187,281h61v1h-61zM264,281h61v1h-61zM188,282h61v1h-61zM263,282h61v1h-61zM189,283h61v1h-61zM262,283h61v1h-61zM190,284h61v1h-61zM261,284h61v1h-61zM191,285h61v1h-61zM260,285h61v1h-61zM192,286h61v1h-61zM259,286h61v1h-61zM193,287h61v1h-61zM258,287h61v1h-61zM194,288h61v1h-61zM257,288h61v1h-61zM195,289h122v1h-122zM196,290h120v1h-120zM197,291h118v1h-118zM198,292h116v1h-116zM199,293h114v1h-114zM200,294h112v1h-112zM201,295h110v1h-110zM202,296h108v1h-108zM203,297h106v1h-106zM204,298h104v1h-104zM205,299h102v1h-102zM206,300h100v1h-100zM207,301h98v1h-98zM208,302h96v1h-96zM209,303h94v1h-94zM210,304h92v1h-92zM211,305h90v1h-90zM212,306h88v1h-88zM213,307h86v1h-86zM214,308h84v1h-84zM215,309h82v1h-82zM216,310h80v1h-80zM217,311h78v1h-78zM218,312h76v1h-76zM219,313h74v1h-74zM220,314h72v1h-72zM221,315h70v1h-70zM222,316h68v1h-68zM223,317h66v1h-66zM224,318h64v1h-64zM225,319h62v1h-62zM226,320h60v1h-60zM227,321h58v1h-58zM228,322h56v1h-56zM229,323h54v1h-54zM230,324h52v1h-52zM231,325h50v1h-50zM232,326h48v1h-48zM233,327h46v1h-46zM234,328h44v1h-44zM235,329h42v1h-42zM236,330h40v1h-40zM237,331h38v1h-38zM238,332h36v1h-36zM239,333h34v1h-34zM240,334h32v1h-32zM241,335h30v1h-30zM242,336h27v1h-27zM244,337h24v1h-24zM245,338h21v1h-21zM247,339h18v1h-18zM250,340h12v1h-12z" fill="#000"/>
</svg>