<?xml version="1.0" encoding="UTF-8"?>
<svg xmlns="http://www.w3.org/2000/svg" width="992" height="1072" viewBox="0 0 992 1072">
<path d="M299,45h400v1h-400zM293,46h409v1h-409zM290,47h414v1h-414zM284,48h422v1h-422zM283,49h424v1h-424zM281,50h427v1h-427zM278,51h431v1h-431zM276,52h434v1h-434zM274,53h437v1h-437zM272,54h440v1h-440zM270,55h443v1h-443zM269,56h445v1h-445zM267,57h448v1h-448zM265,58h451v1h-451zM264,59h453v1h-453zM263,60h455v1h-455zM262,61h457v1h-457zM260,62h460v1h-460zM259,63h462v1h-462zM257,64h465v1h-465zM256,65h467v1h-467zM255,66h469v1h-469zM254,67h470v1h-470zM253,68h473v1h-473zM253,69h473v1h-473zM251,70h476v1h-476zM251,71h478v1h-478zM250,72h479v1h-479zM249,73h481v1h-481zM249,74h482v1h-482zM248,75h484v1h-484zM247,76h486v1h-486zM246,77h488v1h-488zM245,78h490v1h-490zM244,79h492v1h-492zM244,80h493v1h-493zM243,81h495v1h-495zM243,82h496v1h-496zM242,83h498v1h-498zM242,84h60v1h-60zM659,84h82v1h-82zM241,85h57v1h-57zM660,85h82v1h-82zM241,86h53v1h-53zM660,86h83v1h-83zM240,87h53v1h-53zM660,87h84v1h-84zM239,88h52v1h-52zM660,88h85v1h-85zM239,89h50v1h-50zM660,89h86v1h-86zM238,90h50v1h-50zM660,90h87v1h-87zM238,91h48v1h-48zM660,91h88v1h-88zM238,92h47v1h-47zM660,92h89v1h-89zM237,93h47v1h-47zM660,93h90v1h-90zM237,94h46v1h-46zM660,94h91v1h-91zM237,95h45v1h-45zM660,95h92v1h-92zM236,96h45v1h-45zM660,96h93v1h-93zM236,97h44v1h-44zM660,97h94v1h-94zM235,98h44v1h-44zM660,98h94v1h-94zM235,99h43v1h-43zM660,99h95v1h-95zM234,100h43v1h-43zM660,100h40v1h-40zM702,100h54v1h-54zM234,101h43v1h-43zM660,101h39v1h-39zM703,101h54v1h-54zM234,102h42v1h-42zM660,102h39v1h-39zM704,102h54v1h-54zM234,103h41v1h-41zM660,103h39v1h-39zM705,103h54v1h-54zM234,104h41v1h-41zM660,104h39v1h-39zM706,104h54v1h-54zM233,105h41v1h-41zM660,105h39v1h-39zM707,105h54v1h-54zM233,106h41v1h-41zM660,106h39v1h-39zM708,106h54v1h-54zM233,107h40v1h-40zM660,107h39v1h-39zM709,107h54v1h-54zM233,108h40v1h-40zM660,108h39v1h-39zM710,108h54v1h-54zM232,109h41v1h-41zM660,109h39v1h-39zM711,109h54v1h-54zM232,110h40v1h-40zM660,110h39v1h-39zM712,110h54v1h-54zM232,111h40v1h-40zM660,111h39v1h-39zM713,111h54v1h-54zM232,112h40v1h-40zM660,112h39v1h-39zM714,112h54v1h-54zM232,113h39v1h-39zM660,113h39v1h-39zM715,113h54v1h-54zM232,114h39v1h-39zM660,114h39v1h-39zM715,114h55v1h-55zM232,115h39v1h-39zM660,115h39v1h-39zM716,115h55v1h-55zM232,116h39v1h-39zM660,116h39v1h-39zM717,116h55v1h-55zM232,117h38v1h-38zM660,117h39v1h-39zM718,117h54v1h-54zM232,118h38v1h-38zM660,118h39v1h-39zM719,118h54v1h-54zM232,119h38v1h-38zM660,119h39v1h-39zM720,119h54v1h-54zM232,120h38v1h-38zM660,120h39v1h-39zM721,120h54v1h-54zM231,121h39v1h-39zM660,121h39v1h-39zM722,121h54v1h-54zM231,122h39v1h-39zM660,122h39v1h-39zM723,122h54v1h-54zM231,123h39v1h-39zM660,123h39v1h-39zM724,123h54v1h-54zM231,124h39v1h-39zM660,124h39v1h-39zM725,124h54v1h-54zM231,125h39v1h-39zM660,125h39v1h-39zM726,125h54v1h-54zM231,126h39v1h-39zM660,126h39v1h-39zM727,126h54v1h-54zM231,127h39v1h-39zM660,127h39v1h-39zM728,127h54v1h-54zM231,128h39v1h-39zM660,128h39v1h-39zM729,128h54v1h-54zM231,129h39v1h-39zM660,129h39v1h-39zM730,129h54v1h-54zM231,130h39v1h-39zM660,130h39v1h-39zM731,130h54v1h-54zM231,131h39v1h-39zM660,131h39v1h-39zM732,131h54v1h-54zM231,132h39v1h-39zM660,132h39v1h-39zM733,132h54v1h-54zM231,133h39v1h-39zM660,133h39v1h-39zM734,133h54v1h-54zM231,134h39v1h-39zM660,134h39v1h-39zM735,134h54v1h-54zM231,135h39v1h-39zM660,135h39v1h-39zM736,135h54v1h-54zM231,136h39v1h-39zM660,136h39v1h-39zM737,136h54v1h-54zM231,137h39v1h-39zM660,137h39v1h-39zM738,137h54v1h-54zM231,138h39v1h-39zM660,138h39v1h-39zM739,138h54v1h-54zM231,139h39v1h-39zM660,139h39v1h-39zM740,139h54v1h-54zM231,140h39v1h-39zM660,140h39v1h-39zM741,140h54v1h-54zM231,141h39v1h-39zM660,141h39v1h-39zM742,141h54v1h-54zM231,142h39v1h-39zM660,142h39v1h-39zM743,142h54v1h-54zM231,143h39v1h-39zM660,143h39v1h-39zM744,143h54v1h-54zM231,144h39v1h-39zM660,144h39v1h-39zM745,144h54v1h-54zM231,145h39v1h-39zM660,145h39v1h-39zM745,145h55v1h-55zM231,146h39v1h-39zM660,146h39v1h-39zM746,146h55v1h-55zM231,147h39v1h-39zM660,147h39v1h-39zM747,147h55v1h-55zM231,148h39v1h-39zM660,148h39v1h-39zM748,148h55v1h-55zM231,149h39v1h-39zM660,149h39v1h-39zM749,149h54v1h-54zM231,150h39v1h-39zM660,150h39v1h-39zM750,150h54v1h-54zM231,151h39v1h-39zM660,151h39v1h-39zM751,151h54v1h-54zM231,152h39v1h-39zM660,152h39v1h-39zM752,152h54v1h-54zM231,153h39v1h-39zM660,153h39v1h-39zM753,153h55v1h-55zM231,154h39v1h-39zM660,154h39v1h-39zM754,154h54v1h-54zM231,155h39v1h-39zM660,155h39v1h-39zM755,155h54v1h-54zM231,156h39v1h-39zM660,156h39v1h-39zM756,156h54v1h-54zM231,157h39v1h-39zM660,157h39v1h-39zM757,157h54v1h-54zM231,158h39v1h-39zM660,158h39v1h-39zM758,158h54v1h-54zM231,159h39v1h-39zM660,159h39v1h-39zM759,159h54v1h-54zM231,160h39v1h-39zM660,160h39v1h-39zM760,160h54v1h-54zM231,161h39v1h-39zM660,161h39v1h-39zM761,161h54v1h-54zM231,162h39v1h-39zM660,162h39v1h-39zM762,162h54v1h-54zM231,163h39v1h-39zM660,163h39v1h-39zM763,163h54v1h-54zM231,164h39v1h-39zM660,164h39v1h-39zM764,164h54v1h-54zM231,165h39v1h-39zM660,165h39v1h-39zM765,165h54v1h-54zM231,166h39v1h-39zM660,166h39v1h-39zM766,166h54v1h-54zM231,167h39v1h-39zM660,167h39v1h-39zM767,167h54v1h-54zM231,168h39v1h-39zM660,168h39v1h-39zM768,168h54v1h-54zM231,169h39v1h-39zM660,169h39v1h-39zM769,169h54v1h-54zM231,170h39v1h-39zM660,170h39v1h-39zM770,170h54v1h-54zM231,171h39v1h-39zM660,171h39v1h-39zM771,171h54v1h-54zM231,172h39v1h-39zM660,172h39v1h-39zM771,172h55v1h-55zM231,173h39v1h-39zM660,173h39v1h-39zM772,173h55v1h-55zM231,174h39v1h-39zM660,174h39v1h-39zM773,174h55v1h-55zM231,175h39v1h-39zM660,175h39v1h-39zM774,175h55v1h-55zM231,176h39v1h-39zM660,176h39v1h-39zM775,176h55v1h-55zM231,177h39v1h-39zM660,177h39v1h-39zM776,177h55v1h-55zM231,178h39v1h-39zM660,178h39v1h-39zM777,178h55v1h-55zM231,179h39v1h-39zM660,179h39v1h-39zM778,179h54v1h-54zM231,180h39v1h-39zM660,180h39v1h-39zM779,180h54v1h-54zM231,181h39v1h-39zM660,181h39v1h-39zM780,181h54v1h-54zM231,182h39v1h-39zM660,182h39v1h-39zM781,182h54v1h-54zM231,183h39v1h-39zM660,183h39v1h-39zM782,183h54v1h-54zM231,184h39v1h-39zM660,184h39v1h-39zM783,184h54v1h-54zM231,185h39v1h-39zM660,185h39v1h-39zM784,185h54v1h-54zM231,186h39v1h-39zM660,186h39v1h-39zM785,186h54v1h-54zM231,187h39v1h-39zM660,187h39v1h-39zM786,187h54v1h-54zM231,188h39v1h-39zM660,188h39v1h-39zM787,188h54v1h-54zM231,189h39v1h-39zM660,189h39v1h-39zM788,189h54v1h-54zM231,190h39v1h-39zM660,190h39v1h-39zM789,190h54v1h-54zM231,191h39v1h-39zM660,191h39v1h-39zM790,191h54v1h-54zM231,192h39v1h-39zM660,192h39v1h-39zM791,192h54v1h-54zM231,193h39v1h-39zM660,193h39v1h-39zM792,193h54v1h-54zM231,194h39v1h-39zM660,194h39v1h-39zM793,194h54v1h-54zM231,195h39v1h-39zM660,195h39v1h-39zM794,195h54v1h-54zM231,196h39v1h-39zM660,196h39v1h-39zM795,196h54v1h-54zM231,197h39v1h-39zM660,197h39v1h-39zM795,197h55v1h-55zM231,198h39v1h-39zM660,198h39v1h-39zM796,198h55v1h-55zM231,199h39v1h-39zM660,199h39v1h-39zM797,199h55v1h-55zM231,200h39v1h-39zM660,200h39v1h-39zM798,200h55v1h-55zM231,201h39v1h-39zM660,201h39v1h-39zM799,201h54v1h-54zM231,202h39v1h-39zM660,202h39v1h-39zM800,202h54v1h-54zM231,203h39v1h-39zM660,203h39v1h-39zM801,203h55v1h-55zM231,204h39v1h-39zM660,204h39v1h-39zM802,204h54v1h-54zM231,205h39v1h-39zM660,205h39v1h-39zM803,205h54v1h-54zM231,206h39v1h-39zM660,206h39v1h-39zM804,206h54v1h-54zM231,207h39v1h-39zM660,207h39v1h-39zM805,207h54v1h-54zM231,208h39v1h-39zM660,208h39v1h-39zM806,208h54v1h-54zM231,209h39v1h-39zM660,209h39v1h-39zM807,209h54v1h-54zM231,210h39v1h-39zM660,210h39v1h-39zM808,210h54v1h-54zM231,211h39v1h-39zM660,211h39v1h-39zM809,211h54v1h-54zM231,212h39v1h-39zM660,212h39v1h-39zM810,212h54v1h-54zM231,213h39v1h-39zM660,213h39v1h-39zM811,213h54v1h-54zM231,214h39v1h-39zM660,214h39v1h-39zM812,214h54v1h-54zM231,215h39v1h-39zM660,215h39v1h-39zM813,215h54v1h-54zM231,216h39v1h-39zM660,216h39v1h-39zM814,216h54v1h-54zM231,217h39v1h-39zM660,217h39v1h-39zM815,217h54v1h-54zM231,218h39v1h-39zM660,218h39v1h-39zM816,218h54v1h-54zM231,219h39v1h-39zM660,219h39v1h-39zM817,219h54v1h-54zM231,220h39v1h-39zM660,220h39v1h-39zM818,220h54v1h-54zM231,221h39v1h-39zM660,221h39v1h-39zM819,221h54v1h-54zM231,222h39v1h-39zM660,222h39v1h-39zM820,222h54v1h-54zM231,223h39v1h-39zM660,223h39v1h-39zM820,223h55v1h-55zM231,224h39v1h-39zM660,224h39v1h-39zM821,224h55v1h-55zM231,225h39v1h-39zM660,225h39v1h-39zM823,225h54v1h-54zM231,226h39v1h-39zM660,226h39v1h-39zM824,226h54v1h-54zM231,227h39v1h-39zM660,227h39v1h-39zM825,227h54v1h-54zM231,228h39v1h-39zM660,228h39v1h-39zM826,228h54v1h-54zM231,229h39v1h-39zM660,229h39v1h-39zM827,229h54v1h-54zM231,230h39v1h-39zM660,230h39v1h-39zM827,230h54v1h-54zM231,231h39v1h-39zM660,231h39v1h-39zM828,231h54v1h-54zM231,232h39v1h-39zM660,232h39v1h-39zM829,232h54v1h-54zM231,233h39v1h-39zM660,233h39v1h-39zM830,233h54v1h-54zM231,234h39v1h-39zM660,234h39v1h-39zM831,234h54v1h-54zM231,235h39v1h-39zM660,235h39v1h-39zM832,235h54v1h-54zM231,236h39v1h-39zM660,236h39v1h-39zM833,236h54v1h-54zM231,237h39v1h-39zM660,237h39v1h-39zM834,237h54v1h-54zM231,238h39v1h-39zM660,238h39v1h-39zM835,238h54v1h-54zM231,239h39v1h-39zM660,239h39v1h-39zM836,239h54v1h-54zM231,240h39v1h-39zM660,240h39v1h-39zM837,240h54v1h-54zM231,241h39v1h-39zM660,241h39v1h-39zM838,241h54v1h-54zM231,242h39v1h-39zM660,242h39v1h-39zM839,242h54v1h-54zM231,243h39v1h-39zM660,243h39v1h-39zM840,243h54v1h-54zM231,244h39v1h-39zM660,244h39v1h-39zM841,244h54v1h-54zM231,245h39v1h-39zM660,245h39v1h-39zM842,245h54v1h-54zM231,246h39v1h-39zM660,246h39v1h-39zM843,246h54v1h-54zM231,247h39v1h-39zM660,247h39v1h-39zM844,247h54v1h-54zM231,248h39v1h-39zM660,248h39v1h-39zM844,248h55v1h-55zM231,249h39v1h-39zM660,249h39v1h-39zM846,249h54v1h-54zM231,250h39v1h-39zM660,250h39v1h-39zM846,250h55v1h-55zM231,251h39v1h-39zM660,251h39v1h-39zM848,251h54v1h-54zM231,252h39v1h-39zM660,252h39v1h-39zM849,252h54v1h-54zM231,253h39v1h-39zM660,253h39v1h-39zM850,253h54v1h-54zM231,254h39v1h-39zM660,254h39v1h-39zM850,254h55v1h-55zM231,255h39v1h-39zM660,255h39v1h-39zM851,255h55v1h-55zM231,256h39v1h-39zM660,256h39v1h-39zM852,256h54v1h-54zM231,257h39v1h-39zM660,257h39v1h-39zM853,257h55v1h-55zM231,258h39v1h-39zM660,258h39v1h-39zM854,258h54v1h-54zM231,259h39v1h-39zM660,259h39v1h-39zM855,259h54v1h-54zM231,260h39v1h-39zM660,260h39v1h-39zM856,260h54v1h-54zM231,261h39v1h-39zM660,261h39v1h-39zM857,261h54v1h-54zM231,262h39v1h-39zM660,262h39v1h-39zM858,262h54v1h-54zM231,263h39v1h-39zM660,263h39v1h-39zM859,263h54v1h-54zM231,264h39v1h-39zM660,264h39v1h-39zM860,264h54v1h-54zM231,265h39v1h-39zM660,265h39v1h-39zM861,265h54v1h-54zM231,266h39v1h-39zM660,266h39v1h-39zM862,266h54v1h-54zM231,267h39v1h-39zM660,267h39v1h-39zM863,267h54v1h-54zM231,268h39v1h-39zM660,268h39v1h-39zM864,268h54v1h-54zM231,269h39v1h-39zM660,269h39v1h-39zM865,269h54v1h-54zM231,270h39v1h-39zM660,270h39v1h-39zM866,270h54v1h-54zM231,271h39v1h-39zM660,271h39v1h-39zM867,271h54v1h-54zM231,272h39v1h-39zM660,272h39v1h-39zM868,272h54v1h-54zM231,273h39v1h-39zM660,273h39v1h-39zM869,273h54v1h-54zM231,274h39v1h-39zM660,274h39v1h-39zM870,274h54v1h-54zM231,275h39v1h-39zM660,275h39v1h-39zM870,275h55v1h-55zM231,276h39v1h-39zM660,276h39v1h-39zM871,276h55v1h-55zM231,277h39v1h-39zM660,277h39v1h-39zM872,277h54v1h-54zM231,278h39v1h-39zM660,278h39v1h-39zM873,278h54v1h-54zM231,279h39v1h-39zM660,279h39v1h-39zM874,279h54v1h-54zM231,280h39v1h-39zM660,280h39v1h-39zM875,280h54v1h-54zM231,281h39v1h-39zM660,281h39v1h-39zM876,281h54v1h-54zM231,282h39v1h-39zM660,282h39v1h-39zM877,282h54v1h-54zM231,283h39v1h-39zM660,283h39v1h-39zM878,283h54v1h-54zM231,284h39v1h-39zM660,284h39v1h-39zM879,284h54v1h-54zM231,285h39v1h-39zM660,285h39v1h-39zM880,285h54v1h-54zM231,286h39v1h-39zM660,286h39v1h-39zM881,286h54v1h-54zM231,287h39v1h-39zM660,287h39v1h-39zM882,287h54v1h-54zM231,288h39v1h-39zM660,288h39v1h-39zM883,288h54v1h-54zM231,289h39v1h-39zM660,289h39v1h-39zM884,289h54v1h-54zM231,290h39v1h-39zM660,290h39v1h-39zM885,290h54v1h-54zM231,291h39v1h-39zM660,291h39v1h-39zM886,291h54v1h-54zM231,292h39v1h-39zM660,292h39v1h-39zM887,292h54v1h-54zM231,293h39v1h-39zM660,293h39v1h-39zM888,293h54v1h-54zM231,294h39v1h-39zM660,294h39v1h-39zM889,294h54v1h-54zM231,295h39v1h-39zM660,295h39v1h-39zM890,295h54v1h-54zM231,296h39v1h-39zM660,296h39v1h-39zM891,296h54v1h-54zM231,297h39v1h-39zM660,297h39v1h-39zM891,297h55v1h-55zM231,298h39v1h-39zM660,298h39v1h-39zM893,298h54v1h-54zM231,299h39v1h-39zM660,299h39v1h-39zM894,299h54v1h-54zM231,300h39v1h-39zM660,300h39v1h-39zM895,300h54v1h-54zM231,301h39v1h-39zM660,301h39v1h-39zM896,301h54v1h-54zM231,302h39v1h-39zM660,302h39v1h-39zM897,302h54v1h-54zM231,303h39v1h-39zM660,303h39v1h-39zM898,303h54v1h-54zM231,304h39v1h-39zM660,304h39v1h-39zM898,304h55v1h-55zM231,305h39v1h-39zM660,305h39v1h-39zM900,305h54v1h-54zM231,306h39v1h-39zM660,306h39v1h-39zM901,306h54v1h-54zM231,307h39v1h-39zM660,307h39v1h-39zM901,307h55v1h-55zM231,308h39v1h-39zM660,308h39v1h-39zM903,308h53v1h-53zM231,309h39v1h-39zM660,309h39v1h-39zM904,309h53v1h-53zM231,310h39v1h-39zM660,310h39v1h-39zM904,310h54v1h-54zM231,311h39v1h-39zM660,311h39v1h-39zM905,311h54v1h-54zM231,312h39v1h-39zM660,312h39v1h-39zM906,312h54v1h-54zM231,313h39v1h-39zM660,313h39v1h-39zM907,313h54v1h-54zM231,314h39v1h-39zM660,314h39v1h-39zM909,314h53v1h-53zM231,315h39v1h-39zM660,315h39v1h-39zM909,315h54v1h-54zM231,316h39v1h-39zM660,316h40v1h-40zM909,316h55v1h-55zM231,317h39v1h-39zM660,317h43v1h-43zM706,317h88v1h-88zM796,317h3v1h-3zM800,317h1v1h-1zM802,317h1v1h-1zM804,317h1v1h-1zM806,317h4v1h-4zM813,317h1v1h-1zM815,317h73v1h-73zM889,317h6v1h-6zM896,317h69v1h-69zM231,318h39v1h-39zM660,318h306v1h-306zM231,319h39v1h-39zM660,319h307v1h-307zM231,320h39v1h-39zM660,320h307v1h-307zM231,321h39v1h-39zM660,321h308v1h-308zM231,322h39v1h-39zM660,322h309v1h-309zM231,323h39v1h-39zM660,323h310v1h-310zM231,324h39v1h-39zM660,324h310v1h-310zM231,325h39v1h-39zM660,325h311v1h-311zM231,326h39v1h-39zM660,326h311v1h-311zM231,327h39v1h-39zM660,327h312v1h-312zM231,328h39v1h-39zM660,328h312v1h-312zM231,329h39v1h-39zM660,329h312v1h-312zM231,330h39v1h-39zM660,330h312v1h-312zM231,331h39v1h-39zM660,331h312v1h-312zM231,332h39v1h-39zM660,332h312v1h-312zM231,333h39v1h-39zM660,333h312v1h-312zM231,334h39v1h-39zM660,334h312v1h-312zM231,335h39v1h-39zM660,335h312v1h-312zM231,336h39v1h-39zM660,336h312v1h-312zM231,337h39v1h-39zM660,337h312v1h-312zM231,338h39v1h-39zM660,338h312v1h-312zM231,339h39v1h-39zM660,339h312v1h-312zM231,340h39v1h-39zM661,340h311v1h-311zM231,341h39v1h-39zM661,341h311v1h-311zM231,342h39v1h-39zM661,342h311v1h-311zM231,343h39v1h-39zM661,343h311v1h-311zM231,344h39v1h-39zM662,344h310v1h-310zM231,345h39v1h-39zM662,345h310v1h-310zM231,346h39v1h-39zM662,346h310v1h-310zM231,347h39v1h-39zM663,347h309v1h-309zM231,348h39v1h-39zM664,348h308v1h-308zM231,349h39v1h-39zM665,349h307v1h-307zM231,350h39v1h-39zM666,350h306v1h-306zM231,351h39v1h-39zM667,351h305v1h-305zM231,352h39v1h-39zM668,352h304v1h-304zM231,353h39v1h-39zM669,353h303v1h-303zM231,354h39v1h-39zM671,354h301v1h-301zM231,355h39v1h-39zM675,355h297v1h-297zM231,356h39v1h-39zM679,356h293v1h-293zM231,357h39v1h-39zM932,357h40v1h-40zM231,358h39v1h-39zM933,358h39v1h-39zM231,359h39v1h-39zM933,359h39v1h-39zM231,360h39v1h-39zM933,360h39v1h-39zM231,361h39v1h-39zM933,361h39v1h-39zM231,362h39v1h-39zM933,362h39v1h-39zM231,363h39v1h-39zM933,363h39v1h-39zM231,364h39v1h-39zM933,364h39v1h-39zM231,365h39v1h-39zM933,365h39v1h-39zM231,366h39v1h-39zM933,366h40v1h-40zM231,367h39v1h-39zM933,367h39v1h-39zM231,368h39v1h-39zM933,368h39v1h-39zM231,369h39v1h-39zM933,369h39v1h-39zM231,370h39v1h-39zM933,370h39v1h-39zM231,371h39v1h-39zM933,371h39v1h-39zM231,372h39v1h-39zM933,372h39v1h-39zM231,373h39v1h-39zM933,373h39v1h-39zM231,374h39v1h-39zM933,374h39v1h-39zM231,375h39v1h-39zM933,375h39v1h-39zM231,376h39v1h-39zM933,376h39v1h-39zM231,377h39v1h-39zM933,377h39v1h-39zM231,378h39v1h-39zM933,378h40v1h-40zM231,379h39v1h-39zM933,379h40v1h-40zM231,380h39v1h-39zM933,380h40v1h-40zM231,381h39v1h-39zM933,381h39v1h-39zM231,382h39v1h-39zM933,382h40v1h-40zM231,383h39v1h-39zM933,383h40v1h-40zM231,384h39v1h-39zM933,384h40v1h-40zM231,385h39v1h-39zM933,385h39v1h-39zM231,386h39v1h-39zM933,386h40v1h-40zM231,387h39v1h-39zM933,387h40v1h-40zM231,388h39v1h-39zM933,388h40v1h-40zM231,389h39v1h-39zM933,389h40v1h-40zM231,390h39v1h-39zM933,390h39v1h-39zM231,391h39v1h-39zM933,391h39v1h-39zM231,392h39v1h-39zM933,392h40v1h-40zM231,393h39v1h-39zM933,393h40v1h-40zM231,394h39v1h-39zM933,394h40v1h-40zM230,395h41v1h-41zM933,395h40v1h-40zM66,396h545v1h-545zM933,396h39v1h-39zM60,397h556v1h-556zM933,397h39v1h-39zM59,398h559v1h-559zM933,398h39v1h-39zM57,399h564v1h-564zM933,399h39v1h-39zM52,400h573v1h-573zM933,400h39v1h-39zM51,401h576v1h-576zM933,401h40v1h-40zM48,402h581v1h-581zM933,402h39v1h-39zM46,403h584v1h-584zM933,403h39v1h-39zM45,404h587v1h-587zM933,404h40v1h-40zM43,405h590v1h-590zM933,405h39v1h-39zM42,406h593v1h-593zM933,406h39v1h-39zM40,407h596v1h-596zM933,407h40v1h-40zM39,408h598v1h-598zM933,408h39v1h-39zM38,409h601v1h-601zM933,409h40v1h-40zM37,410h603v1h-603zM933,410h39v1h-39zM35,411h606v1h-606zM933,411h39v1h-39zM34,412h609v1h-609zM933,412h39v1h-39zM33,413h610v1h-610zM933,413h39v1h-39zM32,414h612v1h-612zM933,414h39v1h-39zM31,415h614v1h-614zM933,415h39v1h-39zM31,416h615v1h-615zM933,416h40v1h-40zM30,417h617v1h-617zM933,417h39v1h-39zM29,418h619v1h-619zM933,418h39v1h-39zM28,419h621v1h-621zM933,419h39v1h-39zM28,420h621v1h-621zM933,420h39v1h-39zM27,421h623v1h-623zM933,421h39v1h-39zM26,422h624v1h-624zM933,422h40v1h-40zM26,423h625v1h-625zM933,423h40v1h-40zM25,424h627v1h-627zM933,424h40v1h-40zM25,425h627v1h-627zM933,425h39v1h-39zM24,426h629v1h-629zM933,426h39v1h-39zM23,427h630v1h-630zM933,427h39v1h-39zM23,428h631v1h-631zM933,428h39v1h-39zM22,429h633v1h-633zM933,429h39v1h-39zM22,430h633v1h-633zM933,430h40v1h-40zM22,431h634v1h-634zM933,431h39v1h-39zM21,432h635v1h-635zM933,432h39v1h-39zM21,433h635v1h-635zM933,433h39v1h-39zM20,434h315v1h-315zM336,434h3v1h-3zM341,434h1v1h-1zM343,434h2v1h-2zM346,434h310v1h-310zM933,434h39v1h-39zM20,435h51v1h-51zM606,435h50v1h-50zM933,435h39v1h-39zM20,436h49v1h-49zM608,436h49v1h-49zM933,436h39v1h-39zM19,437h47v1h-47zM610,437h47v1h-47zM933,437h39v1h-39zM19,438h45v1h-45zM612,438h46v1h-46zM933,438h39v1h-39zM19,439h44v1h-44zM614,439h44v1h-44zM933,439h39v1h-39zM18,440h44v1h-44zM615,440h44v1h-44zM933,440h39v1h-39zM18,441h43v1h-43zM616,441h43v1h-43zM933,441h39v1h-39zM18,442h42v1h-42zM617,442h42v1h-42zM933,442h40v1h-40zM18,443h41v1h-41zM617,443h42v1h-42zM933,443h39v1h-39zM18,444h41v1h-41zM618,444h41v1h-41zM933,444h39v1h-39zM17,445h41v1h-41zM618,445h41v1h-41zM933,445h40v1h-40zM17,446h40v1h-40zM619,446h41v1h-41zM933,446h40v1h-40zM17,447h40v1h-40zM620,447h40v1h-40zM933,447h40v1h-40zM17,448h40v1h-40zM620,448h40v1h-40zM933,448h40v1h-40zM17,449h40v1h-40zM620,449h40v1h-40zM933,449h40v1h-40zM17,450h40v1h-40zM621,450h39v1h-39zM933,450h40v1h-40zM17,451h39v1h-39zM621,451h39v1h-39zM933,451h40v1h-40zM17,452h39v1h-39zM621,452h39v1h-39zM933,452h39v1h-39zM17,453h39v1h-39zM621,453h39v1h-39zM933,453h40v1h-40zM16,454h40v1h-40zM621,454h39v1h-39zM933,454h39v1h-39zM16,455h40v1h-40zM621,455h39v1h-39zM933,455h39v1h-39zM16,456h40v1h-40zM621,456h39v1h-39zM933,456h40v1h-40zM16,457h40v1h-40zM621,457h39v1h-39zM933,457h40v1h-40zM16,458h39v1h-39zM621,458h39v1h-39zM933,458h40v1h-40zM16,459h40v1h-40zM621,459h39v1h-39zM933,459h40v1h-40zM16,460h40v1h-40zM621,460h39v1h-39zM933,460h39v1h-39zM16,461h40v1h-40zM621,461h39v1h-39zM933,461h40v1h-40zM16,462h40v1h-40zM621,462h39v1h-39zM933,462h39v1h-39zM16,463h40v1h-40zM621,463h39v1h-39zM933,463h39v1h-39zM16,464h40v1h-40zM621,464h39v1h-39zM933,464h39v1h-39zM16,465h40v1h-40zM621,465h39v1h-39zM933,465h39v1h-39zM16,466h40v1h-40zM621,466h39v1h-39zM933,466h39v1h-39zM16,467h40v1h-40zM621,467h39v1h-39zM933,467h39v1h-39zM16,468h40v1h-40zM621,468h39v1h-39zM933,468h39v1h-39zM16,469h40v1h-40zM621,469h39v1h-39zM933,469h39v1h-39zM16,470h40v1h-40zM621,470h39v1h-39zM933,470h39v1h-39zM16,471h40v1h-40zM621,471h39v1h-39zM933,471h39v1h-39zM16,472h40v1h-40zM621,472h39v1h-39zM933,472h39v1h-39zM16,473h40v1h-40zM621,473h39v1h-39zM933,473h39v1h-39zM16,474h40v1h-40zM621,474h39v1h-39zM933,474h39v1h-39zM16,475h40v1h-40zM621,475h39v1h-39zM933,475h39v1h-39zM16,476h40v1h-40zM621,476h39v1h-39zM933,476h39v1h-39zM16,477h40v1h-40zM621,477h39v1h-39zM933,477h39v1h-39zM16,478h40v1h-40zM621,478h39v1h-39zM933,478h39v1h-39zM16,479h40v1h-40zM621,479h39v1h-39zM933,479h39v1h-39zM16,480h40v1h-40zM621,480h39v1h-39zM933,480h39v1h-39zM16,481h40v1h-40zM621,481h39v1h-39zM933,481h39v1h-39zM16,482h40v1h-40zM621,482h39v1h-39zM933,482h39v1h-39zM16,483h40v1h-40zM621,483h39v1h-39zM933,483h39v1h-39zM16,484h40v1h-40zM621,484h39v1h-39zM933,484h39v1h-39zM16,485h40v1h-40zM621,485h39v1h-39zM933,485h39v1h-39zM16,486h40v1h-40zM621,486h39v1h-39zM933,486h39v1h-39zM16,487h40v1h-40zM621,487h39v1h-39zM933,487h39v1h-39zM16,488h40v1h-40zM621,488h39v1h-39zM933,488h40v1h-40zM16,489h40v1h-40zM621,489h39v1h-39zM933,489h39v1h-39zM16,490h40v1h-40zM621,490h39v1h-39zM933,490h39v1h-39zM16,491h40v1h-40zM621,491h39v1h-39zM933,491h39v1h-39zM16,492h40v1h-40zM621,492h39v1h-39zM933,492h39v1h-39zM16,493h40v1h-40zM621,493h39v1h-39zM933,493h39v1h-39zM16,494h40v1h-40zM621,494h39v1h-39zM933,494h39v1h-39zM16,495h40v1h-40zM621,495h39v1h-39zM933,495h39v1h-39zM16,496h40v1h-40zM621,496h39v1h-39zM933,496h39v1h-39zM16,497h40v1h-40zM621,497h39v1h-39zM933,497h39v1h-39zM16,498h40v1h-40zM621,498h39v1h-39zM933,498h39v1h-39zM16,499h40v1h-40zM621,499h39v1h-39zM933,499h39v1h-39zM16,500h40v1h-40zM621,500h39v1h-39zM933,500h39v1h-39zM16,501h40v1h-40zM621,501h39v1h-39zM933,501h39v1h-39zM16,502h40v1h-40zM621,502h39v1h-39zM933,502h39v1h-39zM16,503h40v1h-40zM621,503h39v1h-39zM933,503h39v1h-39zM16,504h40v1h-40zM621,504h39v1h-39zM933,504h39v1h-39zM16,505h40v1h-40zM621,505h39v1h-39zM933,505h39v1h-39zM16,506h40v1h-40zM621,506h39v1h-39zM933,506h40v1h-40zM16,507h40v1h-40zM621,507h39v1h-39zM933,507h39v1h-39zM16,508h40v1h-40zM621,508h39v1h-39zM933,508h39v1h-39zM16,509h40v1h-40zM621,509h39v1h-39zM933,509h39v1h-39zM16,510h40v1h-40zM621,510h39v1h-39zM933,510h39v1h-39zM16,511h40v1h-40zM621,511h39v1h-39zM933,511h39v1h-39zM16,512h40v1h-40zM621,512h39v1h-39zM933,512h39v1h-39zM16,513h40v1h-40zM621,513h39v1h-39zM933,513h39v1h-39zM16,514h40v1h-40zM621,514h39v1h-39zM933,514h39v1h-39zM16,515h40v1h-40zM621,515h39v1h-39zM933,515h39v1h-39zM16,516h40v1h-40zM621,516h39v1h-39zM933,516h39v1h-39zM16,517h40v1h-40zM621,517h39v1h-39zM933,517h40v1h-40zM16,518h40v1h-40zM621,518h39v1h-39zM933,518h39v1h-39zM16,519h40v1h-40zM621,519h39v1h-39zM933,519h39v1h-39zM16,520h40v1h-40zM235,520h3v1h-3zM371,520h3v1h-3zM394,520h6v1h-6zM562,520h11v1h-11zM621,520h39v1h-39zM933,520h39v1h-39zM16,521h40v1h-40zM102,521h138v1h-138zM264,521h35v1h-35zM369,521h33v1h-33zM436,521h34v1h-34zM540,521h34v1h-34zM621,521h39v1h-39zM933,521h39v1h-39zM16,522h40v1h-40zM102,522h138v1h-138zM263,522h37v1h-37zM368,522h35v1h-35zM436,522h35v1h-35zM539,522h35v1h-35zM621,522h39v1h-39zM933,522h39v1h-39zM16,523h40v1h-40zM102,523h139v1h-139zM263,523h38v1h-38zM368,523h35v1h-35zM436,523h35v1h-35zM539,523h36v1h-36zM621,523h39v1h-39zM933,523h39v1h-39zM16,524h40v1h-40zM102,524h139v1h-139zM263,524h39v1h-39zM368,524h35v1h-35zM436,524h35v1h-35zM539,524h36v1h-36zM621,524h39v1h-39zM933,524h39v1h-39zM16,525h40v1h-40zM102,525h139v1h-139zM263,525h39v1h-39zM368,525h35v1h-35zM436,525h35v1h-35zM539,525h36v1h-36zM621,525h39v1h-39zM933,525h39v1h-39zM16,526h40v1h-40zM102,526h139v1h-139zM263,526h40v1h-40zM368,526h35v1h-35zM436,526h35v1h-35zM539,526h36v1h-36zM621,526h39v1h-39zM933,526h39v1h-39zM16,527h40v1h-40zM102,527h139v1h-139zM263,527h41v1h-41zM368,527h35v1h-35zM436,527h35v1h-35zM539,527h36v1h-36zM621,527h39v1h-39zM933,527h39v1h-39zM16,528h40v1h-40zM102,528h139v1h-139zM263,528h41v1h-41zM368,528h35v1h-35zM436,528h35v1h-35zM539,528h36v1h-36zM621,528h39v1h-39zM933,528h39v1h-39zM16,529h40v1h-40zM102,529h139v1h-139zM263,529h42v1h-42zM368,529h35v1h-35zM436,529h35v1h-35zM539,529h36v1h-36zM621,529h39v1h-39zM933,529h39v1h-39zM16,530h40v1h-40zM102,530h139v1h-139zM263,530h42v1h-42zM368,530h35v1h-35zM436,530h35v1h-35zM539,530h36v1h-36zM621,530h39v1h-39zM933,530h39v1h-39zM16,531h40v1h-40zM102,531h139v1h-139zM263,531h43v1h-43zM368,531h35v1h-35zM436,531h35v1h-35zM539,531h36v1h-36zM621,531h39v1h-39zM933,531h39v1h-39zM16,532h40v1h-40zM102,532h139v1h-139zM263,532h44v1h-44zM368,532h35v1h-35zM436,532h35v1h-35zM539,532h36v1h-36zM621,532h39v1h-39zM933,532h39v1h-39zM16,533h40v1h-40zM102,533h139v1h-139zM263,533h44v1h-44zM368,533h35v1h-35zM436,533h35v1h-35zM539,533h36v1h-36zM621,533h39v1h-39zM933,533h39v1h-39zM16,534h40v1h-40zM102,534h139v1h-139zM263,534h45v1h-45zM368,534h35v1h-35zM436,534h35v1h-35zM539,534h36v1h-36zM621,534h39v1h-39zM933,534h39v1h-39zM16,535h40v1h-40zM102,535h139v1h-139zM263,535h45v1h-45zM368,535h35v1h-35zM436,535h35v1h-35zM539,535h36v1h-36zM621,535h39v1h-39zM933,535h39v1h-39zM16,536h40v1h-40zM102,536h139v1h-139zM263,536h46v1h-46zM368,536h35v1h-35zM436,536h35v1h-35zM539,536h36v1h-36zM621,536h39v1h-39zM933,536h39v1h-39zM16,537h40v1h-40zM102,537h139v1h-139zM263,537h47v1h-47zM368,537h35v1h-35zM436,537h35v1h-35zM539,537h36v1h-36zM621,537h39v1h-39zM933,537h39v1h-39zM16,538h40v1h-40zM102,538h139v1h-139zM263,538h47v1h-47zM368,538h35v1h-35zM436,538h35v1h-35zM539,538h36v1h-36zM621,538h39v1h-39zM933,538h39v1h-39zM16,539h40v1h-40zM102,539h139v1h-139zM263,539h48v1h-48zM368,539h35v1h-35zM436,539h35v1h-35zM539,539h36v1h-36zM621,539h39v1h-39zM933,539h39v1h-39zM16,540h40v1h-40zM102,540h139v1h-139zM263,540h48v1h-48zM368,540h35v1h-35zM436,540h35v1h-35zM539,540h36v1h-36zM621,540h39v1h-39zM933,540h39v1h-39zM16,541h40v1h-40zM102,541h139v1h-139zM263,541h49v1h-49zM368,541h35v1h-35zM436,541h35v1h-35zM539,541h36v1h-36zM621,541h39v1h-39zM933,541h39v1h-39zM16,542h40v1h-40zM102,542h139v1h-139zM263,542h50v1h-50zM368,542h35v1h-35zM436,542h35v1h-35zM539,542h36v1h-36zM621,542h39v1h-39zM933,542h39v1h-39zM16,543h40v1h-40zM102,543h139v1h-139zM263,543h51v1h-51zM368,543h35v1h-35zM436,543h35v1h-35zM539,543h36v1h-36zM621,543h39v1h-39zM933,543h39v1h-39zM16,544h40v1h-40zM102,544h139v1h-139zM263,544h51v1h-51zM368,544h35v1h-35zM436,544h35v1h-35zM539,544h36v1h-36zM621,544h39v1h-39zM933,544h39v1h-39zM16,545h40v1h-40zM102,545h139v1h-139zM263,545h52v1h-52zM368,545h35v1h-35zM436,545h35v1h-35zM539,545h36v1h-36zM621,545h39v1h-39zM933,545h39v1h-39zM16,546h40v1h-40zM102,546h139v1h-139zM263,546h52v1h-52zM368,546h35v1h-35zM436,546h35v1h-35zM539,546h36v1h-36zM621,546h39v1h-39zM933,546h39v1h-39zM16,547h40v1h-40zM102,547h139v1h-139zM263,547h53v1h-53zM368,547h35v1h-35zM436,547h35v1h-35zM539,547h36v1h-36zM621,547h39v1h-39zM933,547h39v1h-39zM16,548h40v1h-40zM102,548h138v1h-138zM263,548h54v1h-54zM368,548h35v1h-35zM436,548h35v1h-35zM539,548h36v1h-36zM621,548h39v1h-39zM933,548h39v1h-39zM16,549h40v1h-40zM116,549h5v1h-5zM122,549h5v1h-5zM131,549h9v1h-9zM152,549h38v1h-38zM201,549h3v1h-3zM205,549h2v1h-2zM208,549h15v1h-15zM263,549h54v1h-54zM368,549h35v1h-35zM436,549h35v1h-35zM539,549h36v1h-36zM621,549h39v1h-39zM933,549h39v1h-39zM16,550h40v1h-40zM153,550h36v1h-36zM263,550h55v1h-55zM368,550h35v1h-35zM436,550h35v1h-35zM539,550h36v1h-36zM621,550h39v1h-39zM933,550h39v1h-39zM16,551h40v1h-40zM154,551h35v1h-35zM263,551h55v1h-55zM368,551h35v1h-35zM436,551h35v1h-35zM539,551h36v1h-36zM621,551h39v1h-39zM933,551h39v1h-39zM16,552h40v1h-40zM154,552h35v1h-35zM263,552h56v1h-56zM368,552h35v1h-35zM436,552h35v1h-35zM539,552h36v1h-36zM621,552h39v1h-39zM933,552h39v1h-39zM16,553h40v1h-40zM154,553h35v1h-35zM263,553h57v1h-57zM368,553h35v1h-35zM436,553h35v1h-35zM539,553h36v1h-36zM621,553h39v1h-39zM933,553h39v1h-39zM16,554h40v1h-40zM154,554h35v1h-35zM263,554h57v1h-57zM368,554h35v1h-35zM436,554h35v1h-35zM539,554h36v1h-36zM621,554h39v1h-39zM933,554h39v1h-39zM16,555h40v1h-40zM154,555h35v1h-35zM263,555h58v1h-58zM368,555h35v1h-35zM436,555h35v1h-35zM539,555h36v1h-36zM621,555h39v1h-39zM933,555h39v1h-39zM16,556h40v1h-40zM154,556h35v1h-35zM263,556h59v1h-59zM368,556h35v1h-35zM436,556h35v1h-35zM539,556h36v1h-36zM621,556h39v1h-39zM933,556h39v1h-39zM16,557h40v1h-40zM154,557h35v1h-35zM263,557h59v1h-59zM368,557h35v1h-35zM436,557h35v1h-35zM539,557h36v1h-36zM621,557h39v1h-39zM933,557h39v1h-39zM16,558h40v1h-40zM154,558h35v1h-35zM263,558h60v1h-60zM368,558h35v1h-35zM436,558h35v1h-35zM539,558h36v1h-36zM621,558h39v1h-39zM933,558h39v1h-39zM16,559h40v1h-40zM154,559h35v1h-35zM263,559h61v1h-61zM368,559h35v1h-35zM436,559h35v1h-35zM539,559h36v1h-36zM621,559h39v1h-39zM933,559h39v1h-39zM16,560h40v1h-40zM154,560h35v1h-35zM263,560h61v1h-61zM368,560h35v1h-35zM436,560h35v1h-35zM539,560h36v1h-36zM621,560h39v1h-39zM933,560h39v1h-39zM16,561h40v1h-40zM154,561h35v1h-35zM263,561h62v1h-62zM368,561h35v1h-35zM436,561h35v1h-35zM539,561h36v1h-36zM621,561h39v1h-39zM933,561h39v1h-39zM16,562h40v1h-40zM154,562h35v1h-35zM263,562h62v1h-62zM368,562h35v1h-35zM436,562h35v1h-35zM539,562h36v1h-36zM621,562h39v1h-39zM933,562h39v1h-39zM16,563h40v1h-40zM154,563h35v1h-35zM263,563h63v1h-63zM368,563h35v1h-35zM436,563h35v1h-35zM539,563h36v1h-36zM621,563h39v1h-39zM933,563h39v1h-39zM16,564h40v1h-40zM154,564h35v1h-35zM263,564h64v1h-64zM368,564h35v1h-35zM436,564h35v1h-35zM539,564h36v1h-36zM621,564h39v1h-39zM933,564h39v1h-39zM16,565h40v1h-40zM154,565h35v1h-35zM263,565h64v1h-64zM368,565h35v1h-35zM436,565h35v1h-35zM539,565h36v1h-36zM621,565h39v1h-39zM933,565h39v1h-39zM16,566h40v1h-40zM154,566h35v1h-35zM263,566h65v1h-65zM368,566h35v1h-35zM436,566h35v1h-35zM539,566h36v1h-36zM621,566h39v1h-39zM933,566h39v1h-39zM16,567h40v1h-40zM154,567h35v1h-35zM263,567h65v1h-65zM368,567h35v1h-35zM436,567h35v1h-35zM539,567h36v1h-36zM621,567h39v1h-39zM933,567h39v1h-39zM16,568h40v1h-40zM154,568h35v1h-35zM263,568h66v1h-66zM368,568h35v1h-35zM436,568h35v1h-35zM539,568h36v1h-36zM621,568h39v1h-39zM933,568h40v1h-40zM16,569h40v1h-40zM154,569h35v1h-35zM263,569h67v1h-67zM368,569h35v1h-35zM436,569h35v1h-35zM539,569h36v1h-36zM621,569h39v1h-39zM933,569h39v1h-39zM16,570h40v1h-40zM154,570h35v1h-35zM263,570h67v1h-67zM368,570h35v1h-35zM436,570h35v1h-35zM539,570h36v1h-36zM621,570h39v1h-39zM933,570h39v1h-39zM16,571h40v1h-40zM154,571h35v1h-35zM263,571h68v1h-68zM368,571h35v1h-35zM436,571h35v1h-35zM539,571h36v1h-36zM621,571h39v1h-39zM933,571h39v1h-39zM16,572h40v1h-40zM154,572h35v1h-35zM263,572h69v1h-69zM368,572h35v1h-35zM436,572h35v1h-35zM539,572h36v1h-36zM621,572h39v1h-39zM933,572h39v1h-39zM16,573h40v1h-40zM154,573h35v1h-35zM263,573h69v1h-69zM368,573h35v1h-35zM436,573h35v1h-35zM539,573h36v1h-36zM621,573h39v1h-39zM933,573h40v1h-40zM16,574h40v1h-40zM154,574h35v1h-35zM263,574h70v1h-70zM368,574h35v1h-35zM436,574h35v1h-35zM539,574h36v1h-36zM621,574h39v1h-39zM933,574h39v1h-39zM16,575h40v1h-40zM154,575h35v1h-35zM263,575h70v1h-70zM368,575h35v1h-35zM436,575h35v1h-35zM539,575h36v1h-36zM621,575h39v1h-39zM933,575h39v1h-39zM16,576h40v1h-40zM154,576h35v1h-35zM263,576h71v1h-71zM368,576h35v1h-35zM436,576h35v1h-35zM539,576h36v1h-36zM621,576h39v1h-39zM933,576h39v1h-39zM16,577h40v1h-40zM154,577h35v1h-35zM263,577h72v1h-72zM368,577h35v1h-35zM436,577h35v1h-35zM539,577h36v1h-36zM621,577h39v1h-39zM933,577h39v1h-39zM16,578h40v1h-40zM154,578h35v1h-35zM263,578h72v1h-72zM368,578h35v1h-35zM436,578h35v1h-35zM539,578h36v1h-36zM621,578h39v1h-39zM933,578h39v1h-39zM16,579h40v1h-40zM154,579h35v1h-35zM263,579h73v1h-73zM368,579h35v1h-35zM436,579h35v1h-35zM539,579h36v1h-36zM621,579h39v1h-39zM933,579h39v1h-39zM16,580h40v1h-40zM154,580h35v1h-35zM263,580h74v1h-74zM368,580h35v1h-35zM436,580h35v1h-35zM539,580h36v1h-36zM621,580h39v1h-39zM933,580h39v1h-39zM16,581h40v1h-40zM154,581h35v1h-35zM263,581h35v1h-35zM301,581h37v1h-37zM368,581h35v1h-35zM436,581h35v1h-35zM539,581h36v1h-36zM621,581h39v1h-39zM933,581h39v1h-39zM16,582h40v1h-40zM154,582h35v1h-35zM263,582h35v1h-35zM301,582h37v1h-37zM368,582h35v1h-35zM436,582h35v1h-35zM539,582h36v1h-36zM621,582h39v1h-39zM933,582h39v1h-39zM16,583h40v1h-40zM154,583h35v1h-35zM263,583h35v1h-35zM302,583h37v1h-37zM368,583h35v1h-35zM436,583h35v1h-35zM539,583h36v1h-36zM621,583h39v1h-39zM933,583h39v1h-39zM16,584h40v1h-40zM154,584h35v1h-35zM263,584h35v1h-35zM302,584h37v1h-37zM368,584h35v1h-35zM436,584h35v1h-35zM539,584h36v1h-36zM621,584h39v1h-39zM933,584h39v1h-39zM16,585h40v1h-40zM154,585h35v1h-35zM263,585h35v1h-35zM303,585h37v1h-37zM368,585h35v1h-35zM436,585h36v1h-36zM539,585h36v1h-36zM621,585h39v1h-39zM933,585h39v1h-39zM16,586h40v1h-40zM154,586h35v1h-35zM263,586h35v1h-35zM303,586h38v1h-38zM368,586h35v1h-35zM436,586h37v1h-37zM479,586h55v1h-55zM537,586h38v1h-38zM621,586h39v1h-39zM933,586h39v1h-39zM16,587h40v1h-40zM154,587h35v1h-35zM263,587h35v1h-35zM304,587h37v1h-37zM368,587h35v1h-35zM436,587h139v1h-139zM621,587h39v1h-39zM933,587h39v1h-39zM16,588h40v1h-40zM154,588h35v1h-35zM263,588h35v1h-35zM305,588h37v1h-37zM368,588h35v1h-35zM436,588h139v1h-139zM621,588h39v1h-39zM933,588h39v1h-39zM16,589h40v1h-40zM154,589h35v1h-35zM263,589h35v1h-35zM305,589h38v1h-38zM368,589h35v1h-35zM436,589h139v1h-139zM621,589h39v1h-39zM933,589h39v1h-39zM16,590h40v1h-40zM154,590h35v1h-35zM263,590h35v1h-35zM306,590h37v1h-37zM368,590h35v1h-35zM436,590h139v1h-139zM621,590h39v1h-39zM933,590h39v1h-39zM16,591h40v1h-40zM154,591h35v1h-35zM263,591h35v1h-35zM307,591h37v1h-37zM368,591h35v1h-35zM436,591h139v1h-139zM621,591h39v1h-39zM933,591h39v1h-39zM16,592h40v1h-40zM154,592h35v1h-35zM263,592h35v1h-35zM307,592h37v1h-37zM368,592h35v1h-35zM436,592h139v1h-139zM621,592h39v1h-39zM933,592h39v1h-39zM16,593h40v1h-40zM154,593h35v1h-35zM263,593h35v1h-35zM308,593h37v1h-37zM368,593h35v1h-35zM436,593h139v1h-139zM621,593h39v1h-39zM933,593h39v1h-39zM16,594h40v1h-40zM154,594h35v1h-35zM263,594h35v1h-35zM308,594h37v1h-37zM368,594h35v1h-35zM436,594h139v1h-139zM621,594h39v1h-39zM933,594h39v1h-39zM16,595h40v1h-40zM154,595h35v1h-35zM263,595h35v1h-35zM309,595h37v1h-37zM368,595h35v1h-35zM436,595h139v1h-139zM621,595h39v1h-39zM933,595h39v1h-39zM16,596h40v1h-40zM154,596h35v1h-35zM263,596h35v1h-35zM310,596h37v1h-37zM368,596h35v1h-35zM436,596h139v1h-139zM621,596h39v1h-39zM933,596h39v1h-39zM16,597h40v1h-40zM154,597h35v1h-35zM263,597h35v1h-35zM310,597h38v1h-38zM368,597h35v1h-35zM436,597h139v1h-139zM621,597h39v1h-39zM933,597h39v1h-39zM16,598h40v1h-40zM154,598h35v1h-35zM263,598h35v1h-35zM311,598h37v1h-37zM368,598h35v1h-35zM436,598h139v1h-139zM621,598h39v1h-39zM933,598h39v1h-39zM16,599h40v1h-40zM154,599h35v1h-35zM263,599h35v1h-35zM312,599h37v1h-37zM368,599h35v1h-35zM436,599h139v1h-139zM621,599h39v1h-39zM933,599h39v1h-39zM16,600h40v1h-40zM154,600h35v1h-35zM263,600h35v1h-35zM312,600h37v1h-37zM368,600h35v1h-35zM436,600h139v1h-139zM621,600h39v1h-39zM933,600h39v1h-39zM16,601h40v1h-40zM154,601h35v1h-35zM263,601h35v1h-35zM313,601h37v1h-37zM368,601h35v1h-35zM436,601h139v1h-139zM621,601h39v1h-39zM933,601h39v1h-39zM16,602h40v1h-40zM154,602h35v1h-35zM263,602h35v1h-35zM313,602h38v1h-38zM368,602h35v1h-35zM436,602h139v1h-139zM621,602h39v1h-39zM933,602h39v1h-39zM16,603h40v1h-40zM154,603h35v1h-35zM263,603h35v1h-35zM314,603h37v1h-37zM368,603h35v1h-35zM436,603h139v1h-139zM621,603h39v1h-39zM933,603h39v1h-39zM16,604h40v1h-40zM154,604h35v1h-35zM263,604h35v1h-35zM315,604h37v1h-37zM368,604h35v1h-35zM436,604h139v1h-139zM621,604h39v1h-39zM933,604h39v1h-39zM16,605h40v1h-40zM154,605h35v1h-35zM263,605h35v1h-35zM315,605h37v1h-37zM368,605h35v1h-35zM436,605h139v1h-139zM621,605h39v1h-39zM933,605h39v1h-39zM16,606h40v1h-40zM154,606h35v1h-35zM263,606h35v1h-35zM316,606h37v1h-37zM368,606h35v1h-35zM436,606h139v1h-139zM621,606h39v1h-39zM933,606h39v1h-39zM16,607h40v1h-40zM154,607h35v1h-35zM263,607h35v1h-35zM316,607h38v1h-38zM368,607h35v1h-35zM436,607h139v1h-139zM621,607h39v1h-39zM933,607h39v1h-39zM16,608h40v1h-40zM154,608h35v1h-35zM263,608h35v1h-35zM317,608h37v1h-37zM368,608h35v1h-35zM436,608h139v1h-139zM621,608h39v1h-39zM933,608h39v1h-39zM16,609h40v1h-40zM154,609h35v1h-35zM263,609h35v1h-35zM318,609h37v1h-37zM368,609h35v1h-35zM436,609h139v1h-139zM621,609h39v1h-39zM933,609h39v1h-39zM16,610h40v1h-40zM154,610h35v1h-35zM263,610h35v1h-35zM318,610h37v1h-37zM368,610h35v1h-35zM436,610h139v1h-139zM621,610h39v1h-39zM933,610h39v1h-39zM16,611h40v1h-40zM154,611h35v1h-35zM263,611h35v1h-35zM319,611h37v1h-37zM368,611h35v1h-35zM436,611h139v1h-139zM621,611h39v1h-39zM933,611h39v1h-39zM16,612h40v1h-40zM154,612h35v1h-35zM263,612h35v1h-35zM319,612h38v1h-38zM368,612h35v1h-35zM436,612h139v1h-139zM621,612h39v1h-39zM933,612h39v1h-39zM16,613h40v1h-40zM154,613h35v1h-35zM263,613h35v1h-35zM320,613h37v1h-37zM368,613h35v1h-35zM436,613h139v1h-139zM621,613h39v1h-39zM933,613h39v1h-39zM16,614h40v1h-40zM154,614h35v1h-35zM263,614h35v1h-35zM321,614h37v1h-37zM368,614h35v1h-35zM436,614h139v1h-139zM621,614h39v1h-39zM933,614h39v1h-39zM16,615h40v1h-40zM154,615h35v1h-35zM263,615h35v1h-35zM322,615h37v1h-37zM368,615h35v1h-35zM436,615h139v1h-139zM621,615h39v1h-39zM933,615h39v1h-39zM16,616h40v1h-40zM154,616h35v1h-35zM263,616h35v1h-35zM322,616h37v1h-37zM368,616h35v1h-35zM436,616h36v1h-36zM538,616h37v1h-37zM621,616h39v1h-39zM933,616h39v1h-39zM16,617h40v1h-40zM154,617h35v1h-35zM263,617h35v1h-35zM323,617h37v1h-37zM368,617h35v1h-35zM436,617h35v1h-35zM539,617h36v1h-36zM621,617h39v1h-39zM933,617h39v1h-39zM16,618h40v1h-40zM154,618h35v1h-35zM263,618h35v1h-35zM323,618h37v1h-37zM368,618h35v1h-35zM436,618h35v1h-35zM539,618h36v1h-36zM621,618h39v1h-39zM933,618h39v1h-39zM16,619h40v1h-40zM154,619h35v1h-35zM263,619h35v1h-35zM324,619h37v1h-37zM368,619h35v1h-35zM436,619h35v1h-35zM539,619h36v1h-36zM621,619h39v1h-39zM933,619h39v1h-39zM16,620h40v1h-40zM154,620h35v1h-35zM263,620h35v1h-35zM325,620h37v1h-37zM368,620h35v1h-35zM436,620h35v1h-35zM539,620h36v1h-36zM621,620h39v1h-39zM933,620h39v1h-39zM16,621h40v1h-40zM154,621h35v1h-35zM263,621h35v1h-35zM325,621h37v1h-37zM368,621h35v1h-35zM436,621h35v1h-35zM539,621h36v1h-36zM621,621h39v1h-39zM933,621h39v1h-39zM16,622h40v1h-40zM154,622h35v1h-35zM263,622h35v1h-35zM326,622h37v1h-37zM368,622h35v1h-35zM436,622h35v1h-35zM539,622h36v1h-36zM621,622h39v1h-39zM933,622h39v1h-39zM16,623h39v1h-39zM154,623h35v1h-35zM263,623h35v1h-35zM326,623h38v1h-38zM368,623h35v1h-35zM436,623h35v1h-35zM539,623h36v1h-36zM621,623h39v1h-39zM933,623h39v1h-39zM16,624h40v1h-40zM154,624h35v1h-35zM263,624h35v1h-35zM327,624h37v1h-37zM368,624h35v1h-35zM436,624h35v1h-35zM539,624h36v1h-36zM621,624h39v1h-39zM933,624h39v1h-39zM16,625h40v1h-40zM154,625h35v1h-35zM263,625h35v1h-35zM328,625h37v1h-37zM368,625h35v1h-35zM436,625h35v1h-35zM539,625h36v1h-36zM621,625h39v1h-39zM933,625h39v1h-39zM16,626h40v1h-40zM154,626h35v1h-35zM263,626h35v1h-35zM328,626h38v1h-38zM368,626h35v1h-35zM436,626h35v1h-35zM539,626h36v1h-36zM621,626h39v1h-39zM933,626h39v1h-39zM16,627h40v1h-40zM154,627h35v1h-35zM263,627h35v1h-35zM329,627h74v1h-74zM436,627h35v1h-35zM539,627h36v1h-36zM621,627h39v1h-39zM933,627h39v1h-39zM16,628h40v1h-40zM154,628h35v1h-35zM263,628h35v1h-35zM330,628h73v1h-73zM436,628h35v1h-35zM539,628h36v1h-36zM621,628h39v1h-39zM933,628h39v1h-39zM16,629h40v1h-40zM154,629h35v1h-35zM263,629h35v1h-35zM330,629h73v1h-73zM436,629h35v1h-35zM539,629h36v1h-36zM621,629h39v1h-39zM933,629h39v1h-39zM16,630h40v1h-40zM154,630h35v1h-35zM263,630h35v1h-35zM331,630h72v1h-72zM436,630h35v1h-35zM539,630h36v1h-36zM621,630h39v1h-39zM933,630h39v1h-39zM16,631h40v1h-40zM154,631h35v1h-35zM263,631h35v1h-35zM331,631h72v1h-72zM436,631h35v1h-35zM539,631h36v1h-36zM621,631h39v1h-39zM933,631h39v1h-39zM16,632h40v1h-40zM154,632h35v1h-35zM263,632h35v1h-35zM332,632h71v1h-71zM436,632h35v1h-35zM539,632h36v1h-36zM621,632h39v1h-39zM933,632h39v1h-39zM16,633h40v1h-40zM154,633h35v1h-35zM263,633h35v1h-35zM333,633h70v1h-70zM436,633h35v1h-35zM539,633h36v1h-36zM621,633h39v1h-39zM933,633h39v1h-39zM16,634h40v1h-40zM154,634h35v1h-35zM263,634h35v1h-35zM333,634h70v1h-70zM436,634h35v1h-35zM539,634h36v1h-36zM621,634h39v1h-39zM933,634h39v1h-39zM16,635h40v1h-40zM154,635h35v1h-35zM263,635h36v1h-36zM334,635h69v1h-69zM436,635h35v1h-35zM539,635h36v1h-36zM621,635h39v1h-39zM933,635h39v1h-39zM16,636h40v1h-40zM154,636h35v1h-35zM263,636h36v1h-36zM335,636h68v1h-68zM436,636h35v1h-35zM539,636h36v1h-36zM621,636h39v1h-39zM933,636h39v1h-39zM16,637h40v1h-40zM154,637h35v1h-35zM263,637h36v1h-36zM335,637h68v1h-68zM436,637h35v1h-35zM539,637h36v1h-36zM621,637h39v1h-39zM933,637h39v1h-39zM16,638h40v1h-40zM154,638h35v1h-35zM263,638h36v1h-36zM336,638h67v1h-67zM436,638h35v1h-35zM539,638h36v1h-36zM621,638h39v1h-39zM933,638h39v1h-39zM16,639h40v1h-40zM154,639h35v1h-35zM263,639h36v1h-36zM337,639h66v1h-66zM436,639h35v1h-35zM539,639h36v1h-36zM621,639h39v1h-39zM933,639h39v1h-39zM16,640h40v1h-40zM154,640h35v1h-35zM263,640h36v1h-36zM337,640h66v1h-66zM436,640h35v1h-35zM539,640h36v1h-36zM621,640h39v1h-39zM933,640h39v1h-39zM16,641h40v1h-40zM154,641h35v1h-35zM263,641h36v1h-36zM338,641h65v1h-65zM436,641h35v1h-35zM539,641h36v1h-36zM621,641h39v1h-39zM933,641h39v1h-39zM16,642h40v1h-40zM154,642h35v1h-35zM263,642h36v1h-36zM338,642h65v1h-65zM436,642h35v1h-35zM539,642h36v1h-36zM621,642h39v1h-39zM933,642h39v1h-39zM16,643h40v1h-40zM154,643h35v1h-35zM263,643h36v1h-36zM339,643h64v1h-64zM436,643h35v1h-35zM539,643h36v1h-36zM621,643h39v1h-39zM933,643h39v1h-39zM16,644h40v1h-40zM154,644h35v1h-35zM263,644h36v1h-36zM340,644h63v1h-63zM436,644h35v1h-35zM539,644h36v1h-36zM621,644h39v1h-39zM933,644h39v1h-39zM16,645h40v1h-40zM154,645h35v1h-35zM263,645h36v1h-36zM340,645h63v1h-63zM436,645h35v1h-35zM539,645h36v1h-36zM621,645h39v1h-39zM933,645h39v1h-39zM16,646h40v1h-40zM154,646h35v1h-35zM263,646h36v1h-36zM341,646h62v1h-62zM436,646h35v1h-35zM539,646h36v1h-36zM621,646h39v1h-39zM933,646h39v1h-39zM16,647h40v1h-40zM154,647h35v1h-35zM263,647h36v1h-36zM342,647h61v1h-61zM436,647h35v1h-35zM539,647h36v1h-36zM621,647h39v1h-39zM933,647h39v1h-39zM16,648h40v1h-40zM154,648h35v1h-35zM263,648h36v1h-36zM342,648h61v1h-61zM436,648h35v1h-35zM539,648h36v1h-36zM621,648h39v1h-39zM933,648h39v1h-39zM16,649h40v1h-40zM154,649h35v1h-35zM263,649h35v1h-35zM343,649h60v1h-60zM436,649h35v1h-35zM539,649h36v1h-36zM621,649h39v1h-39zM933,649h39v1h-39zM16,650h40v1h-40zM154,650h35v1h-35zM263,650h36v1h-36zM343,650h60v1h-60zM436,650h35v1h-35zM539,650h36v1h-36zM621,650h39v1h-39zM933,650h39v1h-39zM16,651h40v1h-40zM154,651h35v1h-35zM263,651h36v1h-36zM344,651h59v1h-59zM436,651h35v1h-35zM539,651h36v1h-36zM621,651h39v1h-39zM933,651h39v1h-39zM16,652h40v1h-40zM154,652h35v1h-35zM263,652h36v1h-36zM345,652h58v1h-58zM436,652h35v1h-35zM539,652h36v1h-36zM621,652h39v1h-39zM933,652h39v1h-39zM16,653h40v1h-40zM154,653h35v1h-35zM263,653h36v1h-36zM345,653h58v1h-58zM436,653h35v1h-35zM539,653h36v1h-36zM621,653h39v1h-39zM933,653h39v1h-39zM16,654h40v1h-40zM154,654h35v1h-35zM263,654h36v1h-36zM346,654h57v1h-57zM436,654h35v1h-35zM539,654h36v1h-36zM621,654h39v1h-39zM933,654h39v1h-39zM16,655h40v1h-40zM154,655h35v1h-35zM263,655h36v1h-36zM347,655h56v1h-56zM436,655h35v1h-35zM539,655h36v1h-36zM621,655h39v1h-39zM933,655h39v1h-39zM16,656h40v1h-40zM154,656h35v1h-35zM263,656h36v1h-36zM347,656h56v1h-56zM436,656h35v1h-35zM539,656h36v1h-36zM621,656h39v1h-39zM933,656h39v1h-39zM16,657h40v1h-40zM154,657h35v1h-35zM263,657h36v1h-36zM348,657h55v1h-55zM436,657h35v1h-35zM539,657h36v1h-36zM621,657h39v1h-39zM933,657h39v1h-39zM16,658h40v1h-40zM154,658h35v1h-35zM263,658h36v1h-36zM348,658h55v1h-55zM436,658h35v1h-35zM539,658h36v1h-36zM621,658h39v1h-39zM933,658h39v1h-39zM16,659h40v1h-40zM154,659h35v1h-35zM263,659h36v1h-36zM349,659h54v1h-54zM436,659h35v1h-35zM539,659h36v1h-36zM621,659h39v1h-39zM933,659h39v1h-39zM16,660h40v1h-40zM154,660h35v1h-35zM263,660h36v1h-36zM350,660h53v1h-53zM436,660h35v1h-35zM539,660h35v1h-35zM621,660h39v1h-39zM933,660h39v1h-39zM16,661h40v1h-40zM154,661h35v1h-35zM263,661h36v1h-36zM350,661h53v1h-53zM436,661h35v1h-35zM539,661h36v1h-36zM621,661h39v1h-39zM933,661h39v1h-39zM16,662h40v1h-40zM154,662h35v1h-35zM263,662h36v1h-36zM351,662h52v1h-52zM436,662h35v1h-35zM539,662h36v1h-36zM621,662h39v1h-39zM933,662h39v1h-39zM16,663h40v1h-40zM154,663h35v1h-35zM263,663h36v1h-36zM352,663h51v1h-51zM436,663h35v1h-35zM539,663h36v1h-36zM621,663h39v1h-39zM933,663h39v1h-39zM16,664h40v1h-40zM154,664h35v1h-35zM263,664h36v1h-36zM353,664h50v1h-50zM436,664h35v1h-35zM539,664h35v1h-35zM621,664h39v1h-39zM933,664h39v1h-39zM16,665h40v1h-40zM154,665h35v1h-35zM263,665h36v1h-36zM353,665h50v1h-50zM436,665h35v1h-35zM539,665h35v1h-35zM621,665h39v1h-39zM933,665h39v1h-39zM16,666h40v1h-40zM154,666h35v1h-35zM263,666h36v1h-36zM353,666h50v1h-50zM436,666h35v1h-35zM539,666h36v1h-36zM621,666h39v1h-39zM933,666h39v1h-39zM16,667h40v1h-40zM154,667h35v1h-35zM263,667h36v1h-36zM354,667h49v1h-49zM436,667h35v1h-35zM539,667h35v1h-35zM621,667h39v1h-39zM933,667h39v1h-39zM16,668h40v1h-40zM154,668h35v1h-35zM263,668h36v1h-36zM355,668h48v1h-48zM436,668h35v1h-35zM539,668h35v1h-35zM621,668h39v1h-39zM933,668h39v1h-39zM16,669h40v1h-40zM154,669h35v1h-35zM263,669h36v1h-36zM355,669h48v1h-48zM436,669h35v1h-35zM539,669h35v1h-35zM621,669h39v1h-39zM933,669h39v1h-39zM16,670h40v1h-40zM154,670h35v1h-35zM263,670h36v1h-36zM356,670h47v1h-47zM435,670h36v1h-36zM539,670h35v1h-35zM621,670h39v1h-39zM933,670h39v1h-39zM16,671h40v1h-40zM154,671h35v1h-35zM263,671h36v1h-36zM357,671h46v1h-46zM435,671h36v1h-36zM539,671h35v1h-35zM621,671h39v1h-39zM933,671h39v1h-39zM16,672h40v1h-40zM154,672h35v1h-35zM263,672h36v1h-36zM357,672h46v1h-46zM435,672h36v1h-36zM539,672h36v1h-36zM621,672h39v1h-39zM933,672h39v1h-39zM16,673h40v1h-40zM154,673h35v1h-35zM263,673h36v1h-36zM358,673h45v1h-45zM435,673h36v1h-36zM539,673h36v1h-36zM621,673h39v1h-39zM933,673h39v1h-39zM16,674h40v1h-40zM154,674h35v1h-35zM263,674h36v1h-36zM359,674h44v1h-44zM435,674h36v1h-36zM539,674h35v1h-35zM621,674h39v1h-39zM933,674h39v1h-39zM16,675h40v1h-40zM154,675h35v1h-35zM263,675h36v1h-36zM359,675h44v1h-44zM435,675h36v1h-36zM539,675h35v1h-35zM621,675h39v1h-39zM933,675h39v1h-39zM16,676h40v1h-40zM154,676h35v1h-35zM263,676h36v1h-36zM360,676h43v1h-43zM435,676h36v1h-36zM539,676h35v1h-35zM621,676h39v1h-39zM933,676h39v1h-39zM16,677h40v1h-40zM154,677h35v1h-35zM263,677h36v1h-36zM361,677h42v1h-42zM435,677h36v1h-36zM539,677h35v1h-35zM621,677h39v1h-39zM933,677h39v1h-39zM16,678h40v1h-40zM154,678h35v1h-35zM263,678h36v1h-36zM361,678h42v1h-42zM435,678h36v1h-36zM539,678h36v1h-36zM621,678h39v1h-39zM933,678h39v1h-39zM16,679h40v1h-40zM154,679h35v1h-35zM263,679h36v1h-36zM362,679h41v1h-41zM435,679h36v1h-36zM539,679h36v1h-36zM621,679h39v1h-39zM933,679h39v1h-39zM16,680h40v1h-40zM153,680h36v1h-36zM263,680h36v1h-36zM363,680h40v1h-40zM435,680h36v1h-36zM539,680h36v1h-36zM621,680h39v1h-39zM933,680h39v1h-39zM16,681h40v1h-40zM153,681h36v1h-36zM263,681h36v1h-36zM363,681h40v1h-40zM435,681h36v1h-36zM539,681h36v1h-36zM621,681h39v1h-39zM933,681h39v1h-39zM16,682h40v1h-40zM153,682h36v1h-36zM263,682h36v1h-36zM364,682h39v1h-39zM435,682h36v1h-36zM539,682h36v1h-36zM621,682h39v1h-39zM933,682h39v1h-39zM16,683h40v1h-40zM153,683h36v1h-36zM263,683h36v1h-36zM364,683h39v1h-39zM435,683h36v1h-36zM539,683h36v1h-36zM621,683h39v1h-39zM933,683h39v1h-39zM16,684h40v1h-40zM153,684h36v1h-36zM263,684h36v1h-36zM365,684h38v1h-38zM435,684h36v1h-36zM539,684h36v1h-36zM621,684h39v1h-39zM933,684h39v1h-39zM16,685h40v1h-40zM153,685h36v1h-36zM263,685h36v1h-36zM366,685h37v1h-37zM435,685h36v1h-36zM539,685h36v1h-36zM621,685h39v1h-39zM933,685h39v1h-39zM16,686h40v1h-40zM154,686h35v1h-35zM263,686h36v1h-36zM366,686h37v1h-37zM436,686h35v1h-35zM539,686h35v1h-35zM621,686h39v1h-39zM933,686h39v1h-39zM16,687h40v1h-40zM154,687h34v1h-34zM264,687h34v1h-34zM367,687h35v1h-35zM436,687h35v1h-35zM540,687h34v1h-34zM621,687h39v1h-39zM933,687h39v1h-39zM16,688h40v1h-40zM621,688h39v1h-39zM933,688h39v1h-39zM16,689h40v1h-40zM621,689h39v1h-39zM933,689h39v1h-39zM16,690h40v1h-40zM621,690h39v1h-39zM933,690h39v1h-39zM16,691h40v1h-40zM621,691h39v1h-39zM933,691h39v1h-39zM16,692h40v1h-40zM621,692h39v1h-39zM933,692h39v1h-39zM16,693h40v1h-40zM621,693h39v1h-39zM933,693h39v1h-39zM16,694h40v1h-40zM621,694h39v1h-39zM933,694h39v1h-39zM16,695h40v1h-40zM621,695h39v1h-39zM933,695h39v1h-39zM16,696h40v1h-40zM621,696h39v1h-39zM933,696h39v1h-39zM16,697h40v1h-40zM621,697h39v1h-39zM933,697h39v1h-39zM16,698h40v1h-40zM621,698h39v1h-39zM933,698h39v1h-39zM16,699h40v1h-40zM621,699h39v1h-39zM933,699h39v1h-39zM16,700h40v1h-40zM621,700h39v1h-39zM933,700h39v1h-39zM16,701h40v1h-40zM621,701h39v1h-39zM933,701h39v1h-39zM16,702h40v1h-40zM621,702h39v1h-39zM933,702h39v1h-39zM16,703h40v1h-40zM621,703h39v1h-39zM933,703h39v1h-39zM16,704h40v1h-40zM621,704h39v1h-39zM933,704h39v1h-39zM16,705h40v1h-40zM621,705h39v1h-39zM933,705h39v1h-39zM16,706h40v1h-40zM621,706h39v1h-39zM933,706h39v1h-39zM16,707h40v1h-40zM621,707h39v1h-39zM933,707h39v1h-39zM16,708h40v1h-40zM621,708h39v1h-39zM933,708h39v1h-39zM16,709h40v1h-40zM621,709h39v1h-39zM933,709h39v1h-39zM16,710h40v1h-40zM621,710h39v1h-39zM933,710h39v1h-39zM16,711h39v1h-39zM621,711h39v1h-39zM933,711h39v1h-39zM16,712h40v1h-40zM621,712h39v1h-39zM933,712h40v1h-40zM16,713h40v1h-40zM621,713h39v1h-39zM933,713h39v1h-39zM16,714h40v1h-40zM621,714h39v1h-39zM933,714h39v1h-39zM16,715h40v1h-40zM621,715h39v1h-39zM933,715h39v1h-39zM16,716h40v1h-40zM621,716h39v1h-39zM933,716h39v1h-39zM16,717h40v1h-40zM621,717h39v1h-39zM933,717h39v1h-39zM16,718h40v1h-40zM621,718h39v1h-39zM933,718h39v1h-39zM16,719h40v1h-40zM621,719h39v1h-39zM933,719h39v1h-39zM16,720h40v1h-40zM621,720h39v1h-39zM933,720h39v1h-39zM16,721h40v1h-40zM621,721h39v1h-39zM933,721h39v1h-39zM16,722h40v1h-40zM621,722h39v1h-39zM933,722h39v1h-39zM16,723h40v1h-40zM621,723h39v1h-39zM933,723h39v1h-39zM16,724h40v1h-40zM621,724h39v1h-39zM933,724h39v1h-39zM16,725h40v1h-40zM621,725h39v1h-39zM933,725h39v1h-39zM16,726h40v1h-40zM621,726h39v1h-39zM933,726h39v1h-39zM16,727h40v1h-40zM621,727h39v1h-39zM933,727h39v1h-39zM16,728h40v1h-40zM621,728h39v1h-39zM933,728h39v1h-39zM16,729h40v1h-40zM621,729h39v1h-39zM933,729h39v1h-39zM16,730h40v1h-40zM621,730h39v1h-39zM933,730h39v1h-39zM16,731h40v1h-40zM621,731h39v1h-39zM933,731h39v1h-39zM16,732h39v1h-39zM621,732h39v1h-39zM933,732h39v1h-39zM16,733h40v1h-40zM621,733h39v1h-39zM933,733h39v1h-39zM16,734h40v1h-40zM621,734h39v1h-39zM933,734h39v1h-39zM16,735h40v1h-40zM621,735h39v1h-39zM933,735h39v1h-39zM16,736h40v1h-40zM621,736h39v1h-39zM933,736h39v1h-39zM16,737h39v1h-39zM621,737h39v1h-39zM933,737h39v1h-39zM16,738h39v1h-39zM621,738h39v1h-39zM933,738h39v1h-39zM16,739h39v1h-39zM621,739h39v1h-39zM933,739h39v1h-39zM16,740h40v1h-40zM621,740h39v1h-39zM933,740h39v1h-39zM16,741h40v1h-40zM621,741h39v1h-39zM933,741h39v1h-39zM16,742h39v1h-39zM621,742h39v1h-39zM933,742h39v1h-39zM16,743h39v1h-39zM621,743h39v1h-39zM933,743h39v1h-39zM16,744h40v1h-40zM621,744h39v1h-39zM933,744h39v1h-39zM16,745h40v1h-40zM621,745h39v1h-39zM933,745h39v1h-39zM16,746h40v1h-40zM621,746h39v1h-39zM933,746h39v1h-39zM17,747h39v1h-39zM621,747h39v1h-39zM933,747h39v1h-39zM17,748h39v1h-39zM621,748h39v1h-39zM933,748h39v1h-39zM17,749h39v1h-39zM621,749h39v1h-39zM933,749h39v1h-39zM17,750h40v1h-40zM621,750h39v1h-39zM933,750h39v1h-39zM17,751h40v1h-40zM620,751h40v1h-40zM933,751h39v1h-39zM17,752h40v1h-40zM620,752h40v1h-40zM933,752h39v1h-39zM17,753h40v1h-40zM620,753h40v1h-40zM933,753h39v1h-39zM17,754h40v1h-40zM619,754h41v1h-41zM933,754h39v1h-39zM17,755h41v1h-41zM619,755h41v1h-41zM933,755h39v1h-39zM17,756h41v1h-41zM618,756h41v1h-41zM933,756h39v1h-39zM18,757h41v1h-41zM618,757h41v1h-41zM933,757h40v1h-40zM18,758h42v1h-42zM617,758h42v1h-42zM933,758h40v1h-40zM18,759h42v1h-42zM616,759h43v1h-43zM933,759h40v1h-40zM18,760h43v1h-43zM615,760h44v1h-44zM933,760h40v1h-40zM19,761h44v1h-44zM614,761h45v1h-45zM933,761h40v1h-40zM19,762h45v1h-45zM613,762h45v1h-45zM933,762h40v1h-40zM19,763h46v1h-46zM612,763h45v1h-45zM933,763h39v1h-39zM20,764h47v1h-47zM610,764h47v1h-47zM933,764h40v1h-40zM20,765h50v1h-50zM606,765h50v1h-50zM933,765h39v1h-39zM20,766h636v1h-636zM933,766h39v1h-39zM21,767h635v1h-635zM933,767h39v1h-39zM21,768h635v1h-635zM933,768h39v1h-39zM21,769h635v1h-635zM933,769h39v1h-39zM22,770h633v1h-633zM933,770h39v1h-39zM22,771h633v1h-633zM933,771h39v1h-39zM22,772h632v1h-632zM933,772h39v1h-39zM23,773h630v1h-630zM933,773h39v1h-39zM24,774h629v1h-629zM933,774h39v1h-39zM25,775h628v1h-628zM933,775h39v1h-39zM25,776h627v1h-627zM933,776h39v1h-39zM25,777h626v1h-626zM933,777h39v1h-39zM26,778h624v1h-624zM933,778h39v1h-39zM27,779h623v1h-623zM933,779h39v1h-39zM28,780h621v1h-621zM933,780h39v1h-39zM28,781h621v1h-621zM933,781h39v1h-39zM29,782h619v1h-619zM933,782h39v1h-39zM30,783h617v1h-617zM933,783h39v1h-39zM31,784h615v1h-615zM933,784h39v1h-39zM32,785h614v1h-614zM933,785h39v1h-39zM32,786h613v1h-613zM933,786h39v1h-39zM33,787h611v1h-611zM933,787h39v1h-39zM34,788h609v1h-609zM933,788h39v1h-39zM35,789h607v1h-607zM933,789h39v1h-39zM36,790h604v1h-604zM933,790h39v1h-39zM38,791h601v1h-601zM933,791h39v1h-39zM39,792h599v1h-599zM933,792h39v1h-39zM41,793h596v1h-596zM933,793h39v1h-39zM41,794h594v1h-594zM933,794h39v1h-39zM43,795h591v1h-591zM933,795h39v1h-39zM45,796h587v1h-587zM933,796h39v1h-39zM46,797h585v1h-585zM933,797h39v1h-39zM48,798h580v1h-580zM933,798h39v1h-39zM50,799h576v1h-576zM933,799h39v1h-39zM52,800h573v1h-573zM933,800h39v1h-39zM53,801h571v1h-571zM933,801h39v1h-39zM57,802h563v1h-563zM933,802h39v1h-39zM61,803h555v1h-555zM933,803h39v1h-39zM64,804h549v1h-549zM933,804h39v1h-39zM80,805h11v1h-11zM96,805h2v1h-2zM100,805h6v1h-6zM118,805h5v1h-5zM124,805h1v1h-1zM126,805h1v1h-1zM128,805h2v1h-2zM131,805h1v1h-1zM134,805h5v1h-5zM148,805h3v1h-3zM152,805h6v1h-6zM159,805h1v1h-1zM161,805h12v1h-12zM176,805h1v1h-1zM213,805h1v1h-1zM215,805h1v1h-1zM217,805h1v1h-1zM219,805h1v1h-1zM229,805h43v1h-43zM288,805h1v1h-1zM291,805h11v1h-11zM303,805h1v1h-1zM305,805h5v1h-5zM311,805h5v1h-5zM328,805h2v1h-2zM336,805h3v1h-3zM340,805h7v1h-7zM364,805h2v1h-2zM367,805h1v1h-1zM371,805h2v1h-2zM374,805h3v1h-3zM425,805h1v1h-1zM933,805h39v1h-39zM231,806h39v1h-39zM933,806h39v1h-39zM231,807h39v1h-39zM933,807h39v1h-39zM231,808h39v1h-39zM933,808h39v1h-39zM231,809h39v1h-39zM933,809h39v1h-39zM231,810h39v1h-39zM933,810h39v1h-39zM231,811h39v1h-39zM933,811h39v1h-39zM231,812h39v1h-39zM933,812h39v1h-39zM231,813h39v1h-39zM933,813h39v1h-39zM231,814h39v1h-39zM933,814h39v1h-39zM231,815h39v1h-39zM933,815h39v1h-39zM231,816h39v1h-39zM933,816h39v1h-39zM231,817h39v1h-39zM933,817h39v1h-39zM231,818h39v1h-39zM933,818h39v1h-39zM231,819h39v1h-39zM933,819h39v1h-39zM231,820h39v1h-39zM933,820h39v1h-39zM231,821h39v1h-39zM933,821h39v1h-39zM231,822h39v1h-39zM933,822h39v1h-39zM231,823h39v1h-39zM933,823h39v1h-39zM231,824h39v1h-39zM933,824h39v1h-39zM231,825h39v1h-39zM933,825h39v1h-39zM231,826h39v1h-39zM933,826h39v1h-39zM231,827h39v1h-39zM933,827h39v1h-39zM231,828h39v1h-39zM933,828h39v1h-39zM231,829h39v1h-39zM933,829h39v1h-39zM231,830h39v1h-39zM933,830h39v1h-39zM231,831h39v1h-39zM933,831h39v1h-39zM231,832h39v1h-39zM933,832h39v1h-39zM231,833h39v1h-39zM933,833h39v1h-39zM231,834h39v1h-39zM933,834h39v1h-39zM231,835h39v1h-39zM933,835h39v1h-39zM231,836h39v1h-39zM933,836h39v1h-39zM231,837h39v1h-39zM933,837h39v1h-39zM231,838h39v1h-39zM933,838h39v1h-39zM231,839h39v1h-39zM933,839h39v1h-39zM231,840h39v1h-39zM933,840h39v1h-39zM231,841h39v1h-39zM933,841h39v1h-39zM231,842h39v1h-39zM933,842h39v1h-39zM231,843h39v1h-39zM933,843h39v1h-39zM231,844h39v1h-39zM933,844h39v1h-39zM231,845h39v1h-39zM933,845h39v1h-39zM231,846h39v1h-39zM933,846h39v1h-39zM231,847h39v1h-39zM933,847h39v1h-39zM231,848h39v1h-39zM933,848h39v1h-39zM231,849h39v1h-39zM933,849h39v1h-39zM231,850h39v1h-39zM933,850h39v1h-39zM231,851h39v1h-39zM933,851h39v1h-39zM231,852h39v1h-39zM933,852h39v1h-39zM231,853h39v1h-39zM933,853h39v1h-39zM231,854h39v1h-39zM933,854h39v1h-39zM231,855h39v1h-39zM933,855h39v1h-39zM231,856h39v1h-39zM933,856h39v1h-39zM231,857h39v1h-39zM933,857h39v1h-39zM231,858h39v1h-39zM933,858h39v1h-39zM231,859h39v1h-39zM933,859h39v1h-39zM231,860h39v1h-39zM933,860h39v1h-39zM231,861h39v1h-39zM933,861h39v1h-39zM231,862h39v1h-39zM933,862h39v1h-39zM231,863h39v1h-39zM933,863h39v1h-39zM231,864h39v1h-39zM933,864h39v1h-39zM231,865h39v1h-39zM933,865h39v1h-39zM231,866h39v1h-39zM933,866h39v1h-39zM231,867h39v1h-39zM933,867h39v1h-39zM231,868h39v1h-39zM933,868h39v1h-39zM231,869h39v1h-39zM933,869h39v1h-39zM231,870h39v1h-39zM933,870h39v1h-39zM231,871h39v1h-39zM933,871h39v1h-39zM231,872h39v1h-39zM933,872h39v1h-39zM231,873h39v1h-39zM933,873h39v1h-39zM231,874h39v1h-39zM933,874h39v1h-39zM231,875h39v1h-39zM933,875h39v1h-39zM231,876h39v1h-39zM933,876h39v1h-39zM231,877h39v1h-39zM933,877h39v1h-39zM231,878h39v1h-39zM933,878h39v1h-39zM231,879h39v1h-39zM933,879h39v1h-39zM231,880h39v1h-39zM933,880h39v1h-39zM231,881h39v1h-39zM933,881h39v1h-39zM231,882h39v1h-39zM933,882h39v1h-39zM231,883h39v1h-39zM933,883h39v1h-39zM231,884h39v1h-39zM933,884h39v1h-39zM231,885h39v1h-39zM933,885h39v1h-39zM231,886h39v1h-39zM933,886h39v1h-39zM231,887h39v1h-39zM933,887h39v1h-39zM231,888h39v1h-39zM933,888h39v1h-39zM231,889h39v1h-39zM933,889h39v1h-39zM231,890h39v1h-39zM933,890h39v1h-39zM231,891h39v1h-39zM933,891h39v1h-39zM231,892h39v1h-39zM933,892h39v1h-39zM231,893h39v1h-39zM933,893h39v1h-39zM231,894h39v1h-39zM933,894h39v1h-39zM231,895h39v1h-39zM933,895h39v1h-39zM231,896h39v1h-39zM933,896h39v1h-39zM231,897h39v1h-39zM933,897h39v1h-39zM231,898h39v1h-39zM933,898h39v1h-39zM231,899h39v1h-39zM933,899h39v1h-39zM231,900h39v1h-39zM933,900h39v1h-39zM231,901h39v1h-39zM933,901h39v1h-39zM231,902h39v1h-39zM933,902h39v1h-39zM231,903h39v1h-39zM933,903h39v1h-39zM231,904h39v1h-39zM933,904h39v1h-39zM231,905h39v1h-39zM933,905h39v1h-39zM231,906h39v1h-39zM933,906h39v1h-39zM231,907h39v1h-39zM933,907h39v1h-39zM231,908h39v1h-39zM933,908h39v1h-39zM231,909h39v1h-39zM933,909h39v1h-39zM231,910h39v1h-39zM933,910h39v1h-39zM231,911h39v1h-39zM933,911h39v1h-39zM231,912h39v1h-39zM933,912h39v1h-39zM231,913h39v1h-39zM933,913h39v1h-39zM231,914h39v1h-39zM933,914h39v1h-39zM231,915h39v1h-39zM933,915h39v1h-39zM231,916h39v1h-39zM933,916h39v1h-39zM231,917h39v1h-39zM933,917h39v1h-39zM231,918h39v1h-39zM933,918h39v1h-39zM231,919h39v1h-39zM933,919h39v1h-39zM231,920h39v1h-39zM933,920h39v1h-39zM231,921h39v1h-39zM933,921h39v1h-39zM231,922h39v1h-39zM933,922h39v1h-39zM231,923h39v1h-39zM933,923h39v1h-39zM231,924h39v1h-39zM933,924h39v1h-39zM231,925h39v1h-39zM933,925h39v1h-39zM231,926h39v1h-39zM933,926h39v1h-39zM231,927h39v1h-39zM933,927h39v1h-39zM231,928h39v1h-39zM933,928h39v1h-39zM231,929h39v1h-39zM933,929h39v1h-39zM231,930h39v1h-39zM933,930h39v1h-39zM231,931h39v1h-39zM933,931h39v1h-39zM231,932h39v1h-39zM933,932h39v1h-39zM231,933h39v1h-39zM933,933h39v1h-39zM231,934h39v1h-39zM933,934h39v1h-39zM231,935h39v1h-39zM933,935h39v1h-39zM231,936h39v1h-39zM933,936h39v1h-39zM231,937h39v1h-39zM933,937h39v1h-39zM231,938h39v1h-39zM933,938h39v1h-39zM231,939h39v1h-39zM933,939h39v1h-39zM231,940h39v1h-39zM933,940h39v1h-39zM231,941h39v1h-39zM933,941h39v1h-39zM231,942h39v1h-39zM933,942h39v1h-39zM231,943h39v1h-39zM933,943h39v1h-39zM231,944h39v1h-39zM933,944h39v1h-39zM231,945h39v1h-39zM933,945h39v1h-39zM231,946h39v1h-39zM933,946h39v1h-39zM231,947h39v1h-39zM933,947h39v1h-39zM231,948h39v1h-39zM933,948h39v1h-39zM231,949h39v1h-39zM933,949h39v1h-39zM231,950h39v1h-39zM933,950h39v1h-39zM231,951h39v1h-39zM933,951h39v1h-39zM231,952h39v1h-39zM933,952h39v1h-39zM231,953h39v1h-39zM933,953h39v1h-39zM231,954h39v1h-39zM933,954h39v1h-39zM231,955h39v1h-39zM933,955h39v1h-39zM231,956h39v1h-39zM933,956h39v1h-39zM231,957h39v1h-39zM933,957h39v1h-39zM231,958h39v1h-39zM933,958h39v1h-39zM231,959h39v1h-39zM933,959h39v1h-39zM231,960h39v1h-39zM933,960h39v1h-39zM231,961h39v1h-39zM933,961h39v1h-39zM231,962h39v1h-39zM933,962h39v1h-39zM231,963h39v1h-39zM933,963h39v1h-39zM231,964h39v1h-39zM933,964h39v1h-39zM231,965h39v1h-39zM933,965h39v1h-39zM231,966h39v1h-39zM933,966h39v1h-39zM231,967h39v1h-39zM933,967h39v1h-39zM231,968h39v1h-39zM933,968h39v1h-39zM231,969h39v1h-39zM933,969h39v1h-39zM231,970h39v1h-39zM933,970h39v1h-39zM231,971h39v1h-39zM933,971h39v1h-39zM231,972h39v1h-39zM933,972h39v1h-39zM231,973h39v1h-39zM933,973h39v1h-39zM231,974h39v1h-39zM933,974h39v1h-39zM231,975h39v1h-39zM933,975h39v1h-39zM231,976h39v1h-39zM933,976h39v1h-39zM231,977h39v1h-39zM933,977h39v1h-39zM231,978h39v1h-39zM933,978h39v1h-39zM231,979h39v1h-39zM933,979h39v1h-39zM231,980h39v1h-39zM933,980h39v1h-39zM231,981h39v1h-39zM933,981h39v1h-39zM231,982h39v1h-39zM933,982h39v1h-39zM231,983h39v1h-39zM933,983h39v1h-39zM232,984h38v1h-38zM933,984h39v1h-39zM232,985h38v1h-38zM933,985h39v1h-39zM232,986h38v1h-38zM932,986h40v1h-40zM232,987h38v1h-38zM932,987h40v1h-40zM232,988h39v1h-39zM932,988h40v1h-40zM232,989h39v1h-39zM932,989h39v1h-39zM232,990h39v1h-39zM932,990h39v1h-39zM232,991h40v1h-40zM932,991h39v1h-39zM232,992h40v1h-40zM931,992h40v1h-40zM232,993h40v1h-40zM931,993h40v1h-40zM232,994h41v1h-41zM931,994h40v1h-40zM233,995h40v1h-40zM930,995h41v1h-41zM233,996h40v1h-40zM930,996h7v1h-7zM938,996h32v1h-32zM233,997h41v1h-41zM929,997h8v1h-8zM938,997h32v1h-32zM233,998h41v1h-41zM929,998h8v1h-8zM939,998h31v1h-31zM233,999h42v1h-42zM928,999h42v1h-42zM234,1000h41v1h-41zM928,1000h5v1h-5zM934,1000h36v1h-36zM234,1001h42v1h-42zM927,1001h42v1h-42zM234,1002h43v1h-43zM926,1002h43v1h-43zM234,1003h43v1h-43zM926,1003h5v1h-5zM933,1003h36v1h-36zM235,1004h43v1h-43zM925,1004h6v1h-6zM932,1004h36v1h-36zM235,1005h44v1h-44zM924,1005h7v1h-7zM932,1005h36v1h-36zM236,1006h44v1h-44zM923,1006h5v1h-5zM930,1006h1v1h-1zM932,1006h35v1h-35zM236,1007h45v1h-45zM923,1007h44v1h-44zM237,1008h45v1h-45zM922,1008h45v1h-45zM237,1009h46v1h-46zM921,1009h7v1h-7zM929,1009h38v1h-38zM237,1010h47v1h-47zM920,1010h7v1h-7zM929,1010h38v1h-38zM238,1011h47v1h-47zM918,1011h4v1h-4zM923,1011h4v1h-4zM929,1011h12v1h-12zM942,1011h24v1h-24zM238,1012h49v1h-49zM917,1012h3v1h-3zM921,1012h45v1h-45zM238,1013h50v1h-50zM915,1013h3v1h-3zM919,1013h46v1h-46zM239,1014h50v1h-50zM918,1014h21v1h-21zM940,1014h24v1h-24zM240,1015h52v1h-52zM911,1015h1v1h-1zM917,1015h40v1h-40zM958,1015h5v1h-5zM240,1016h53v1h-53zM910,1016h3v1h-3zM919,1016h1v1h-1zM922,1016h35v1h-35zM958,1016h5v1h-5zM241,1017h54v1h-54zM908,1017h8v1h-8zM917,1017h26v1h-26zM944,1017h19v1h-19zM241,1018h58v1h-58zM905,1018h57v1h-57zM242,1019h62v1h-62zM900,1019h62v1h-62zM242,1020h696v1h-696zM939,1020h22v1h-22zM243,1021h717v1h-717zM243,1022h717v1h-717zM244,1023h716v1h-716zM244,1024h715v1h-715zM245,1025h692v1h-692zM938,1025h20v1h-20zM246,1026h711v1h-711zM247,1027h709v1h-709zM247,1028h709v1h-709zM248,1029h707v1h-707zM249,1030h705v1h-705zM250,1031h703v1h-703zM251,1032h701v1h-701zM252,1033h700v1h-700zM253,1034h698v1h-698zM254,1035h696v1h-696zM255,1036h694v1h-694zM256,1037h692v1h-692zM257,1038h690v1h-690zM258,1039h688v1h-688zM259,1040h685v1h-685zM260,1041h683v1h-683zM261,1042h681v1h-681zM263,1043h677v1h-677zM264,1044h675v1h-675zM266,1045h672v1h-672zM268,1046h668v1h-668zM269,1047h665v1h-665zM270,1048h662v1h-662zM273,1049h658v1h-658zM275,1050h654v1h-654zM276,1051h651v1h-651zM279,1052h645v1h-645zM282,1053h640v1h-640zM284,1054h636v1h-636zM286,1055h631v1h-631zM290,1056h623v1h-623zM294,1057h615v1h-615zM301,1058h601v1h-601z" fill="#000"/>
</svg>