<?xml version="1.0" encoding="UTF-8"?>
<svg xmlns="http://www.w3.org/2000/svg" width="512" height="512" viewBox="0 0 512 512">
<path d="M82,0h348v1h-348zM75,1h362v1h-362zM70,2h372v1h-372zM67,3h379v1h-379zM63,4h386v1h-386zM60,5h392v1h-392zM58,6h396v1h-396zM55,7h402v1h-402zM53,8h406v1h-406zM51,9h410v1h-410zM49,10h414v1h-414zM47,11h418v1h-418zM45,12h422v1h-422zM44,13h424v1h-424zM42,14h428v1h-428zM41,15h430v1h-430zM39,16h434v1h-434zM38,17h436v1h-436zM36,18h440v1h-440zM35,19h442v1h-442zM34,20h444v1h-444zM33,21h446v1h-446zM32,22h449v1h-449zM30,23h452v1h-452zM29,24h454v1h-454zM28,25h456v1h-456zM27,26h458v1h-458zM26,27h460v1h-460zM25,28h462v1h-462zM24,29h464v1h-464zM23,30h61v1h-61zM428,30h61v1h-61zM23,31h55v1h-55zM434,31h55v1h-55zM22,32h52v1h-52zM438,32h52v1h-52zM21,33h50v1h-50zM441,33h50v1h-50zM20,34h49v1h-49zM443,34h49v1h-49zM19,35h47v1h-47zM446,35h47v1h-47zM18,36h46v1h-46zM448,36h46v1h-46zM18,37h44v1h-44zM450,37h44v1h-44zM17,38h44v1h-44zM451,38h44v1h-44zM16,39h43v1h-43zM453,39h43v1h-43zM16,40h41v1h-41zM455,40h41v1h-41zM15,41h41v1h-41zM456,41h41v1h-41zM14,42h41v1h-41zM457,42h41v1h-41zM14,43h39v1h-39zM459,43h39v1h-39zM13,44h39v1h-39zM460,44h39v1h-39zM12,45h39v1h-39zM461,45h39v1h-39zM12,46h38v1h-38zM462,46h38v1h-38zM11,47h38v1h-38zM463,47h38v1h-38zM11,48h37v1h-37zM464,48h37v1h-37zM10,49h37v1h-37zM465,49h37v1h-37zM10,50h36v1h-36zM466,50h36v1h-36zM9,51h36v1h-36zM467,51h36v1h-36zM9,52h35v1h-35zM468,52h35v1h-35zM8,53h35v1h-35zM469,53h35v1h-35zM8,54h35v1h-35zM469,54h35v1h-35zM7,55h35v1h-35zM470,55h35v1h-35zM7,56h34v1h-34zM471,56h34v1h-34zM7,57h33v1h-33zM472,57h33v1h-33zM6,58h34v1h-34zM472,58h34v1h-34zM6,59h33v1h-33zM473,59h33v1h-33zM5,60h34v1h-34zM473,60h34v1h-34zM5,61h33v1h-33zM474,61h33v1h-33zM5,62h32v1h-32zM475,62h32v1h-32zM4,63h33v1h-33zM475,63h33v1h-33zM4,64h32v1h-32zM476,64h32v1h-32zM4,65h32v1h-32zM476,65h32v1h-32zM4,66h31v1h-31zM477,66h31v1h-31zM3,67h32v1h-32zM477,67h32v1h-32zM3,68h32v1h-32zM477,68h32v1h-32zM3,69h31v1h-31zM478,69h31v1h-31zM2,70h32v1h-32zM478,70h32v1h-32zM2,71h31v1h-31zM479,71h31v1h-31zM2,72h31v1h-31zM479,72h31v1h-31zM2,73h31v1h-31zM479,73h31v1h-31zM2,74h30v1h-30zM480,74h30v1h-30zM1,75h31v1h-31zM480,75h31v1h-31zM1,76h31v1h-31zM480,76h31v1h-31zM1,77h31v1h-31zM480,77h31v1h-31zM1,78h30v1h-30zM481,78h30v1h-30zM1,79h30v1h-30zM481,79h30v1h-30zM1,80h30v1h-30zM156,80h8v1h-8zM481,80h30v1h-30zM1,81h30v1h-30zM149,81h21v1h-21zM481,81h30v1h-30zM0,82h31v1h-31zM146,82h28v1h-28zM481,82h31v1h-31zM0,83h31v1h-31zM143,83h34v1h-34zM481,83h31v1h-31zM0,84h30v1h-30zM140,84h39v1h-39zM482,84h30v1h-30zM0,85h30v1h-30zM138,85h43v1h-43zM482,85h30v1h-30zM0,86h30v1h-30zM136,86h47v1h-47zM482,86h30v1h-30zM0,87h30v1h-30zM135,87h50v1h-50zM482,87h30v1h-30zM0,88h30v1h-30zM133,88h53v1h-53zM482,88h30v1h-30zM0,89h30v1h-30zM132,89h55v1h-55zM482,89h30v1h-30zM0,90h30v1h-30zM130,90h59v1h-59zM482,90h30v1h-30zM0,91h30v1h-30zM129,91h61v1h-61zM482,91h30v1h-30zM0,92h30v1h-30zM128,92h63v1h-63zM482,92h30v1h-30zM0,93h30v1h-30zM127,93h65v1h-65zM482,93h30v1h-30zM0,94h30v1h-30zM126,94h67v1h-67zM482,94h30v1h-30zM0,95h30v1h-30zM125,95h69v1h-69zM482,95h30v1h-30zM0,96h30v1h-30zM124,96h71v1h-71zM482,96h30v1h-30zM0,97h30v1h-30zM123,97h73v1h-73zM482,97h30v1h-30zM0,98h30v1h-30zM122,98h75v1h-75zM482,98h30v1h-30zM0,99h30v1h-30zM122,99h75v1h-75zM482,99h30v1h-30zM0,100h30v1h-30zM121,100h77v1h-77zM482,100h30v1h-30zM0,101h30v1h-30zM120,101h79v1h-79zM482,101h30v1h-30zM0,102h30v1h-30zM120,102h80v1h-80zM482,102h30v1h-30zM0,103h30v1h-30zM119,103h81v1h-81zM482,103h30v1h-30zM0,104h30v1h-30zM118,104h83v1h-83zM482,104h30v1h-30zM0,105h30v1h-30zM118,105h83v1h-83zM482,105h30v1h-30zM0,106h30v1h-30zM117,106h85v1h-85zM482,106h30v1h-30zM0,107h30v1h-30zM117,107h85v1h-85zM482,107h30v1h-30zM0,108h30v1h-30zM116,108h87v1h-87zM482,108h30v1h-30zM0,109h30v1h-30zM116,109h87v1h-87zM482,109h30v1h-30zM0,110h30v1h-30zM116,110h41v1h-41zM162,110h42v1h-42zM482,110h30v1h-30zM0,111h30v1h-30zM115,111h38v1h-38zM166,111h38v1h-38zM482,111h30v1h-30zM0,112h30v1h-30zM79,112h72v1h-72zM168,112h265v1h-265zM482,112h30v1h-30zM0,113h30v1h-30zM74,113h76v1h-76zM169,113h269v1h-269zM482,113h30v1h-30zM0,114h30v1h-30zM72,114h76v1h-76zM171,114h269v1h-269zM482,114h30v1h-30zM0,115h30v1h-30zM70,115h77v1h-77zM172,115h270v1h-270zM482,115h30v1h-30zM0,116h30v1h-30zM69,116h77v1h-77zM173,116h270v1h-270zM482,116h30v1h-30zM0,117h30v1h-30zM68,117h78v1h-78zM174,117h270v1h-270zM482,117h30v1h-30zM0,118h30v1h-30zM67,118h78v1h-78zM174,118h271v1h-271zM482,118h30v1h-30zM0,119h30v1h-30zM67,119h77v1h-77zM175,119h270v1h-270zM482,119h30v1h-30zM0,120h30v1h-30zM66,120h78v1h-78zM175,120h271v1h-271zM482,120h30v1h-30zM0,121h30v1h-30zM66,121h78v1h-78zM176,121h270v1h-270zM482,121h30v1h-30zM0,122h30v1h-30zM65,122h78v1h-78zM176,122h271v1h-271zM482,122h30v1h-30zM0,123h30v1h-30zM65,123h78v1h-78zM176,123h271v1h-271zM482,123h30v1h-30zM0,124h30v1h-30zM65,124h78v1h-78zM176,124h271v1h-271zM482,124h30v1h-30zM0,125h30v1h-30zM64,125h79v1h-79zM177,125h271v1h-271zM482,125h30v1h-30zM0,126h30v1h-30zM64,126h79v1h-79zM177,126h271v1h-271zM482,126h30v1h-30zM0,127h30v1h-30zM64,127h78v1h-78zM177,127h271v1h-271zM482,127h30v1h-30zM0,128h30v1h-30zM64,128h79v1h-79zM177,128h271v1h-271zM482,128h30v1h-30zM0,129h30v1h-30zM64,129h79v1h-79zM177,129h271v1h-271zM482,129h30v1h-30zM0,130h30v1h-30zM65,130h78v1h-78zM176,130h271v1h-271zM482,130h30v1h-30zM0,131h30v1h-30zM65,131h78v1h-78zM176,131h271v1h-271zM482,131h30v1h-30zM0,132h30v1h-30zM65,132h78v1h-78zM176,132h271v1h-271zM482,132h30v1h-30zM0,133h30v1h-30zM66,133h78v1h-78zM176,133h270v1h-270zM482,133h30v1h-30zM0,134h30v1h-30zM66,134h78v1h-78zM175,134h271v1h-271zM482,134h30v1h-30zM0,135h30v1h-30zM67,135h77v1h-77zM175,135h270v1h-270zM482,135h30v1h-30zM0,136h30v1h-30zM67,136h78v1h-78zM174,136h271v1h-271zM482,136h30v1h-30zM0,137h30v1h-30zM68,137h78v1h-78zM173,137h271v1h-271zM482,137h30v1h-30zM0,138h30v1h-30zM69,138h78v1h-78zM173,138h270v1h-270zM482,138h30v1h-30zM0,139h30v1h-30zM70,139h77v1h-77zM172,139h270v1h-270zM482,139h30v1h-30zM0,140h30v1h-30zM72,140h77v1h-77zM171,140h269v1h-269zM482,140h30v1h-30zM0,141h30v1h-30zM74,141h76v1h-76zM169,141h269v1h-269zM482,141h30v1h-30zM0,142h30v1h-30zM115,142h36v1h-36zM168,142h37v1h-37zM482,142h30v1h-30zM0,143h30v1h-30zM115,143h39v1h-39zM166,143h38v1h-38zM482,143h30v1h-30zM0,144h30v1h-30zM116,144h42v1h-42zM161,144h42v1h-42zM482,144h30v1h-30zM0,145h30v1h-30zM116,145h87v1h-87zM482,145h30v1h-30zM0,146h30v1h-30zM117,146h86v1h-86zM482,146h30v1h-30zM0,147h30v1h-30zM117,147h85v1h-85zM482,147h30v1h-30zM0,148h30v1h-30zM117,148h85v1h-85zM482,148h30v1h-30zM0,149h30v1h-30zM118,149h83v1h-83zM482,149h30v1h-30zM0,150h30v1h-30zM119,150h82v1h-82zM482,150h30v1h-30zM0,151h30v1h-30zM119,151h81v1h-81zM482,151h30v1h-30zM0,152h30v1h-30zM120,152h79v1h-79zM482,152h30v1h-30zM0,153h30v1h-30zM120,153h79v1h-79zM482,153h30v1h-30zM0,154h30v1h-30zM121,154h77v1h-77zM482,154h30v1h-30zM0,155h30v1h-30zM122,155h75v1h-75zM482,155h30v1h-30zM0,156h30v1h-30zM123,156h74v1h-74zM482,156h30v1h-30zM0,157h30v1h-30zM123,157h73v1h-73zM482,157h30v1h-30zM0,158h30v1h-30zM124,158h71v1h-71zM482,158h30v1h-30zM0,159h30v1h-30zM125,159h69v1h-69zM482,159h30v1h-30zM0,160h30v1h-30zM126,160h67v1h-67zM482,160h30v1h-30zM0,161h30v1h-30zM127,161h65v1h-65zM482,161h30v1h-30zM0,162h30v1h-30zM128,162h63v1h-63zM482,162h30v1h-30zM0,163h30v1h-30zM129,163h61v1h-61zM482,163h30v1h-30zM0,164h30v1h-30zM131,164h58v1h-58zM482,164h30v1h-30zM0,165h30v1h-30zM132,165h55v1h-55zM482,165h30v1h-30zM0,166h30v1h-30zM133,166h53v1h-53zM482,166h30v1h-30zM0,167h30v1h-30zM135,167h49v1h-49zM482,167h30v1h-30zM0,168h30v1h-30zM137,168h46v1h-46zM482,168h30v1h-30zM0,169h30v1h-30zM138,169h43v1h-43zM482,169h30v1h-30zM0,170h30v1h-30zM140,170h39v1h-39zM482,170h30v1h-30zM0,171h30v1h-30zM143,171h33v1h-33zM482,171h30v1h-30zM0,172h30v1h-30zM146,172h27v1h-27zM482,172h30v1h-30zM0,173h30v1h-30zM150,173h20v1h-20zM482,173h30v1h-30zM0,174h30v1h-30zM157,174h5v1h-5zM482,174h30v1h-30zM0,175h30v1h-30zM482,175h30v1h-30zM0,176h30v1h-30zM482,176h30v1h-30zM0,177h30v1h-30zM482,177h30v1h-30zM0,178h30v1h-30zM482,178h30v1h-30zM0,179h30v1h-30zM482,179h30v1h-30zM0,180h30v1h-30zM482,180h30v1h-30zM0,181h30v1h-30zM482,181h30v1h-30zM0,182h30v1h-30zM482,182h30v1h-30zM0,183h30v1h-30zM482,183h30v1h-30zM0,184h30v1h-30zM482,184h30v1h-30zM0,185h30v1h-30zM482,185h30v1h-30zM0,186h30v1h-30zM482,186h30v1h-30zM0,187h30v1h-30zM482,187h30v1h-30zM0,188h30v1h-30zM482,188h30v1h-30zM0,189h30v1h-30zM482,189h30v1h-30zM0,190h30v1h-30zM482,190h30v1h-30zM0,191h30v1h-30zM482,191h30v1h-30zM0,192h30v1h-30zM482,192h30v1h-30zM0,193h30v1h-30zM482,193h30v1h-30zM0,194h30v1h-30zM482,194h30v1h-30zM0,195h30v1h-30zM482,195h30v1h-30zM0,196h30v1h-30zM482,196h30v1h-30zM0,197h30v1h-30zM482,197h30v1h-30zM0,198h30v1h-30zM482,198h30v1h-30zM0,199h30v1h-30zM482,199h30v1h-30zM0,200h30v1h-30zM482,200h30v1h-30zM0,201h30v1h-30zM482,201h30v1h-30zM0,202h30v1h-30zM482,202h30v1h-30zM0,203h30v1h-30zM482,203h30v1h-30zM0,204h30v1h-30zM482,204h30v1h-30zM0,205h30v1h-30zM482,205h30v1h-30zM0,206h30v1h-30zM482,206h30v1h-30zM0,207h30v1h-30zM482,207h30v1h-30zM0,208h30v1h-30zM482,208h30v1h-30zM0,209h30v1h-30zM345,209h15v1h-15zM482,209h30v1h-30zM0,210h30v1h-30zM340,210h25v1h-25zM482,210h30v1h-30zM0,211h30v1h-30zM337,211h31v1h-31zM482,211h30v1h-30zM0,212h30v1h-30zM334,212h37v1h-37zM482,212h30v1h-30zM0,213h30v1h-30zM332,213h41v1h-41zM482,213h30v1h-30zM0,214h30v1h-30zM330,214h45v1h-45zM482,214h30v1h-30zM0,215h30v1h-30zM328,215h48v1h-48zM482,215h30v1h-30zM0,216h30v1h-30zM327,216h51v1h-51zM482,216h30v1h-30zM0,217h30v1h-30zM325,217h55v1h-55zM482,217h30v1h-30zM0,218h30v1h-30zM324,218h57v1h-57zM482,218h30v1h-30zM0,219h30v1h-30zM323,219h59v1h-59zM482,219h30v1h-30zM0,220h30v1h-30zM321,220h62v1h-62zM482,220h30v1h-30zM0,221h30v1h-30zM320,221h64v1h-64zM482,221h30v1h-30zM0,222h30v1h-30zM319,222h66v1h-66zM482,222h30v1h-30zM0,223h30v1h-30zM318,223h68v1h-68zM482,223h30v1h-30zM0,224h30v1h-30zM317,224h70v1h-70zM482,224h30v1h-30zM0,225h30v1h-30zM317,225h71v1h-71zM482,225h30v1h-30zM0,226h30v1h-30zM316,226h73v1h-73zM482,226h30v1h-30zM0,227h30v1h-30zM315,227h75v1h-75zM482,227h30v1h-30zM0,228h30v1h-30zM314,228h77v1h-77zM482,228h30v1h-30zM0,229h30v1h-30zM313,229h78v1h-78zM482,229h30v1h-30zM0,230h30v1h-30zM313,230h79v1h-79zM482,230h30v1h-30zM0,231h30v1h-30zM312,231h81v1h-81zM482,231h30v1h-30zM0,232h30v1h-30zM312,232h81v1h-81zM482,232h30v1h-30zM0,233h30v1h-30zM311,233h83v1h-83zM482,233h30v1h-30zM0,234h30v1h-30zM310,234h84v1h-84zM482,234h30v1h-30zM0,235h30v1h-30zM310,235h85v1h-85zM482,235h30v1h-30zM0,236h30v1h-30zM310,236h85v1h-85zM482,236h30v1h-30zM0,237h30v1h-30zM309,237h87v1h-87zM482,237h30v1h-30zM0,238h30v1h-30zM309,238h87v1h-87zM482,238h30v1h-30zM0,239h30v1h-30zM308,239h40v1h-40zM357,239h39v1h-39zM482,239h30v1h-30zM0,240h30v1h-30zM308,240h37v1h-37zM360,240h37v1h-37zM482,240h30v1h-30zM0,241h30v1h-30zM76,241h267v1h-267zM361,241h75v1h-75zM482,241h30v1h-30zM0,242h30v1h-30zM73,242h269v1h-269zM363,242h76v1h-76zM482,242h30v1h-30zM0,243h30v1h-30zM71,243h270v1h-270zM364,243h77v1h-77zM482,243h30v1h-30zM0,244h30v1h-30zM70,244h270v1h-270zM365,244h77v1h-77zM482,244h30v1h-30zM0,245h30v1h-30zM69,245h270v1h-270zM366,245h77v1h-77zM482,245h30v1h-30zM0,246h30v1h-30zM68,246h270v1h-270zM367,246h77v1h-77zM482,246h30v1h-30zM0,247h30v1h-30zM67,247h271v1h-271zM367,247h78v1h-78zM482,247h30v1h-30zM0,248h30v1h-30zM66,248h271v1h-271zM368,248h78v1h-78zM482,248h30v1h-30zM0,249h30v1h-30zM66,249h271v1h-271zM368,249h78v1h-78zM482,249h30v1h-30zM0,250h30v1h-30zM65,250h271v1h-271zM369,250h78v1h-78zM482,250h30v1h-30zM0,251h30v1h-30zM65,251h271v1h-271zM369,251h78v1h-78zM482,251h30v1h-30zM0,252h30v1h-30zM65,252h271v1h-271zM369,252h78v1h-78zM482,252h30v1h-30zM0,253h30v1h-30zM64,253h271v1h-271zM369,253h79v1h-79zM482,253h30v1h-30zM0,254h30v1h-30zM64,254h271v1h-271zM369,254h79v1h-79zM482,254h30v1h-30zM0,255h30v1h-30zM64,255h271v1h-271zM370,255h78v1h-78zM482,255h30v1h-30zM0,256h30v1h-30zM64,256h271v1h-271zM370,256h78v1h-78zM482,256h30v1h-30zM0,257h30v1h-30zM64,257h271v1h-271zM369,257h79v1h-79zM482,257h30v1h-30zM0,258h30v1h-30zM64,258h271v1h-271zM369,258h79v1h-79zM482,258h30v1h-30zM0,259h30v1h-30zM65,259h271v1h-271zM369,259h78v1h-78zM482,259h30v1h-30zM0,260h30v1h-30zM65,260h271v1h-271zM369,260h78v1h-78zM482,260h30v1h-30zM0,261h30v1h-30zM65,261h271v1h-271zM369,261h78v1h-78zM482,261h30v1h-30zM0,262h30v1h-30zM66,262h271v1h-271zM368,262h78v1h-78zM482,262h30v1h-30zM0,263h30v1h-30zM66,263h271v1h-271zM368,263h78v1h-78zM482,263h30v1h-30zM0,264h30v1h-30zM67,264h271v1h-271zM367,264h78v1h-78zM482,264h30v1h-30zM0,265h30v1h-30zM68,265h270v1h-270zM367,265h77v1h-77zM482,265h30v1h-30zM0,266h30v1h-30zM69,266h270v1h-270zM366,266h77v1h-77zM482,266h30v1h-30zM0,267h30v1h-30zM70,267h270v1h-270zM365,267h77v1h-77zM482,267h30v1h-30zM0,268h30v1h-30zM71,268h270v1h-270zM364,268h77v1h-77zM482,268h30v1h-30zM0,269h30v1h-30zM73,269h269v1h-269zM363,269h76v1h-76zM482,269h30v1h-30zM0,270h30v1h-30zM76,270h267v1h-267zM361,270h75v1h-75zM482,270h30v1h-30zM0,271h30v1h-30zM308,271h37v1h-37zM360,271h37v1h-37zM482,271h30v1h-30zM0,272h30v1h-30zM308,272h40v1h-40zM357,272h39v1h-39zM482,272h30v1h-30zM0,273h30v1h-30zM309,273h87v1h-87zM482,273h30v1h-30zM0,274h30v1h-30zM309,274h87v1h-87zM482,274h30v1h-30zM0,275h30v1h-30zM310,275h85v1h-85zM482,275h30v1h-30zM0,276h30v1h-30zM310,276h85v1h-85zM482,276h30v1h-30zM0,277h30v1h-30zM310,277h84v1h-84zM482,277h30v1h-30zM0,278h30v1h-30zM311,278h83v1h-83zM482,278h30v1h-30zM0,279h30v1h-30zM312,279h81v1h-81zM482,279h30v1h-30zM0,280h30v1h-30zM312,280h81v1h-81zM482,280h30v1h-30zM0,281h30v1h-30zM313,281h79v1h-79zM482,281h30v1h-30zM0,282h30v1h-30zM313,282h78v1h-78zM482,282h30v1h-30zM0,283h30v1h-30zM314,283h77v1h-77zM482,283h30v1h-30zM0,284h30v1h-30zM315,284h75v1h-75zM482,284h30v1h-30zM0,285h30v1h-30zM316,285h73v1h-73zM482,285h30v1h-30zM0,286h30v1h-30zM317,286h71v1h-71zM482,286h30v1h-30zM0,287h30v1h-30zM317,287h70v1h-70zM482,287h30v1h-30zM0,288h30v1h-30zM318,288h68v1h-68zM482,288h30v1h-30zM0,289h30v1h-30zM319,289h66v1h-66zM482,289h30v1h-30zM0,290h30v1h-30zM320,290h64v1h-64zM482,290h30v1h-30zM0,291h30v1h-30zM321,291h62v1h-62zM482,291h30v1h-30zM0,292h30v1h-30zM323,292h59v1h-59zM482,292h30v1h-30zM0,293h30v1h-30zM324,293h57v1h-57zM482,293h30v1h-30zM0,294h30v1h-30zM325,294h55v1h-55zM482,294h30v1h-30zM0,295h30v1h-30zM327,295h51v1h-51zM482,295h30v1h-30zM0,296h30v1h-30zM328,296h48v1h-48zM482,296h30v1h-30zM0,297h30v1h-30zM330,297h45v1h-45zM482,297h30v1h-30zM0,298h30v1h-30zM332,298h41v1h-41zM482,298h30v1h-30zM0,299h30v1h-30zM334,299h36v1h-36zM482,299h30v1h-30zM0,300h30v1h-30zM337,300h31v1h-31zM482,300h30v1h-30zM0,301h30v1h-30zM340,301h25v1h-25zM482,301h30v1h-30zM0,302h30v1h-30zM345,302h15v1h-15zM482,302h30v1h-30zM0,303h30v1h-30zM482,303h30v1h-30zM0,304h30v1h-30zM482,304h30v1h-30zM0,305h30v1h-30zM482,305h30v1h-30zM0,306h30v1h-30zM482,306h30v1h-30zM0,307h30v1h-30zM482,307h30v1h-30zM0,308h30v1h-30zM482,308h30v1h-30zM0,309h30v1h-30zM482,309h30v1h-30zM0,310h30v1h-30zM482,310h30v1h-30zM0,311h30v1h-30zM482,311h30v1h-30zM0,312h30v1h-30zM482,312h30v1h-30zM0,313h30v1h-30zM482,313h30v1h-30zM0,314h30v1h-30zM482,314h30v1h-30zM0,315h30v1h-30zM482,315h30v1h-30zM0,316h30v1h-30zM482,316h30v1h-30zM0,317h30v1h-30zM482,317h30v1h-30zM0,318h30v1h-30zM482,318h30v1h-30zM0,319h30v1h-30zM482,319h30v1h-30zM0,320h30v1h-30zM482,320h30v1h-30zM0,321h30v1h-30zM482,321h30v1h-30zM0,322h30v1h-30zM482,322h30v1h-30zM0,323h30v1h-30zM482,323h30v1h-30zM0,324h30v1h-30zM482,324h30v1h-30zM0,325h30v1h-30zM482,325h30v1h-30zM0,326h30v1h-30zM482,326h30v1h-30zM0,327h30v1h-30zM482,327h30v1h-30zM0,328h30v1h-30zM482,328h30v1h-30zM0,329h30v1h-30zM482,329h30v1h-30zM0,330h30v1h-30zM482,330h30v1h-30zM0,331h30v1h-30zM482,331h30v1h-30zM0,332h30v1h-30zM482,332h30v1h-30zM0,333h30v1h-30zM482,333h30v1h-30zM0,334h30v1h-30zM482,334h30v1h-30zM0,335h30v1h-30zM482,335h30v1h-30zM0,336h30v1h-30zM482,336h30v1h-30zM0,337h30v1h-30zM221,337h5v1h-5zM482,337h30v1h-30zM0,338h30v1h-30zM214,338h20v1h-20zM482,338h30v1h-30zM0,339h30v1h-30zM210,339h28v1h-28zM482,339h30v1h-30zM0,340h30v1h-30zM207,340h34v1h-34zM482,340h30v1h-30zM0,341h30v1h-30zM205,341h38v1h-38zM482,341h30v1h-30zM0,342h30v1h-30zM203,342h42v1h-42zM482,342h30v1h-30zM0,343h30v1h-30zM201,343h46v1h-46zM482,343h30v1h-30zM0,344h30v1h-30zM199,344h50v1h-50zM482,344h30v1h-30zM0,345h30v1h-30zM198,345h52v1h-52zM482,345h30v1h-30zM0,346h30v1h-30zM196,346h56v1h-56zM482,346h30v1h-30zM0,347h30v1h-30zM195,347h58v1h-58zM482,347h30v1h-30zM0,348h30v1h-30zM194,348h60v1h-60zM482,348h30v1h-30zM0,349h30v1h-30zM192,349h63v1h-63zM482,349h30v1h-30zM0,350h30v1h-30zM191,350h65v1h-65zM482,350h30v1h-30zM0,351h30v1h-30zM190,351h67v1h-67zM482,351h30v1h-30zM0,352h30v1h-30zM189,352h69v1h-69zM482,352h30v1h-30zM0,353h30v1h-30zM188,353h71v1h-71zM482,353h30v1h-30zM0,354h30v1h-30zM188,354h72v1h-72zM482,354h30v1h-30zM0,355h30v1h-30zM187,355h74v1h-74zM482,355h30v1h-30zM0,356h30v1h-30zM186,356h76v1h-76zM482,356h30v1h-30zM0,357h30v1h-30zM185,357h77v1h-77zM482,357h30v1h-30zM0,358h30v1h-30zM185,358h78v1h-78zM482,358h30v1h-30zM0,359h30v1h-30zM184,359h80v1h-80zM482,359h30v1h-30zM0,360h30v1h-30zM183,360h81v1h-81zM482,360h30v1h-30zM0,361h30v1h-30zM183,361h82v1h-82zM482,361h30v1h-30zM0,362h30v1h-30zM182,362h83v1h-83zM482,362h30v1h-30zM0,363h30v1h-30zM182,363h84v1h-84zM482,363h30v1h-30zM0,364h30v1h-30zM181,364h85v1h-85zM482,364h30v1h-30zM0,365h30v1h-30zM181,365h86v1h-86zM482,365h30v1h-30zM0,366h30v1h-30zM180,366h87v1h-87zM482,366h30v1h-30zM0,367h30v1h-30zM180,367h42v1h-42zM226,367h42v1h-42zM482,367h30v1h-30zM0,368h30v1h-30zM180,368h38v1h-38zM230,368h38v1h-38zM482,368h30v1h-30zM0,369h30v1h-30zM179,369h37v1h-37zM232,369h37v1h-37zM482,369h30v1h-30zM0,370h30v1h-30zM74,370h140v1h-140zM234,370h204v1h-204zM482,370h30v1h-30zM0,371h30v1h-30zM72,371h141v1h-141zM235,371h205v1h-205zM482,371h30v1h-30zM0,372h30v1h-30zM70,372h142v1h-142zM236,372h206v1h-206zM482,372h30v1h-30zM0,373h30v1h-30zM69,373h142v1h-142zM237,373h206v1h-206zM482,373h30v1h-30zM0,374h30v1h-30zM68,374h142v1h-142zM238,374h206v1h-206zM482,374h30v1h-30zM0,375h30v1h-30zM67,375h142v1h-142zM238,375h207v1h-207zM482,375h30v1h-30zM0,376h30v1h-30zM67,376h142v1h-142zM239,376h206v1h-206zM482,376h30v1h-30zM0,377h30v1h-30zM66,377h142v1h-142zM239,377h207v1h-207zM482,377h30v1h-30zM0,378h30v1h-30zM66,378h142v1h-142zM240,378h206v1h-206zM482,378h30v1h-30zM0,379h30v1h-30zM65,379h142v1h-142zM240,379h207v1h-207zM482,379h30v1h-30zM0,380h30v1h-30zM65,380h142v1h-142zM240,380h207v1h-207zM482,380h30v1h-30zM0,381h30v1h-30zM65,381h142v1h-142zM241,381h206v1h-206zM482,381h30v1h-30zM0,382h30v1h-30zM64,382h143v1h-143zM241,382h207v1h-207zM482,382h30v1h-30zM0,383h30v1h-30zM64,383h143v1h-143zM241,383h207v1h-207zM482,383h30v1h-30zM0,384h30v1h-30zM64,384h143v1h-143zM241,384h207v1h-207zM482,384h30v1h-30zM0,385h30v1h-30zM64,385h143v1h-143zM241,385h207v1h-207zM482,385h30v1h-30zM0,386h30v1h-30zM64,386h143v1h-143zM241,386h207v1h-207zM482,386h30v1h-30zM0,387h30v1h-30zM65,387h142v1h-142zM241,387h206v1h-206zM482,387h30v1h-30zM0,388h30v1h-30zM65,388h142v1h-142zM241,388h206v1h-206zM482,388h30v1h-30zM0,389h30v1h-30zM65,389h142v1h-142zM240,389h207v1h-207zM482,389h30v1h-30zM0,390h30v1h-30zM66,390h142v1h-142zM240,390h206v1h-206zM482,390h30v1h-30zM0,391h30v1h-30zM66,391h142v1h-142zM239,391h207v1h-207zM482,391h30v1h-30zM0,392h30v1h-30zM67,392h142v1h-142zM239,392h206v1h-206zM482,392h30v1h-30zM0,393h30v1h-30zM67,393h142v1h-142zM238,393h207v1h-207zM482,393h30v1h-30zM0,394h30v1h-30zM68,394h142v1h-142zM238,394h206v1h-206zM482,394h30v1h-30zM0,395h30v1h-30zM69,395h142v1h-142zM237,395h206v1h-206zM482,395h30v1h-30zM0,396h30v1h-30zM70,396h142v1h-142zM236,396h206v1h-206zM482,396h30v1h-30zM0,397h30v1h-30zM72,397h141v1h-141zM235,397h205v1h-205zM482,397h30v1h-30zM0,398h30v1h-30zM74,398h140v1h-140zM234,398h204v1h-204zM482,398h30v1h-30zM0,399h30v1h-30zM79,399h137v1h-137zM232,399h201v1h-201zM482,399h30v1h-30zM0,400h30v1h-30zM180,400h38v1h-38zM230,400h38v1h-38zM482,400h30v1h-30zM0,401h30v1h-30zM180,401h42v1h-42zM226,401h42v1h-42zM482,401h30v1h-30zM0,402h30v1h-30zM180,402h87v1h-87zM482,402h30v1h-30zM0,403h30v1h-30zM181,403h86v1h-86zM482,403h30v1h-30zM0,404h30v1h-30zM181,404h85v1h-85zM482,404h30v1h-30zM0,405h30v1h-30zM182,405h84v1h-84zM482,405h30v1h-30zM0,406h30v1h-30zM182,406h84v1h-84zM482,406h30v1h-30zM0,407h30v1h-30zM183,407h82v1h-82zM482,407h30v1h-30zM0,408h30v1h-30zM183,408h81v1h-81zM482,408h30v1h-30zM0,409h30v1h-30zM184,409h80v1h-80zM482,409h30v1h-30zM0,410h30v1h-30zM185,410h78v1h-78zM482,410h30v1h-30zM0,411h30v1h-30zM185,411h77v1h-77zM482,411h30v1h-30zM0,412h30v1h-30zM186,412h76v1h-76zM482,412h30v1h-30zM0,413h30v1h-30zM187,413h74v1h-74zM482,413h30v1h-30zM0,414h30v1h-30zM188,414h72v1h-72zM482,414h30v1h-30zM0,415h30v1h-30zM188,415h71v1h-71zM482,415h30v1h-30zM0,416h30v1h-30zM189,416h69v1h-69zM482,416h30v1h-30zM0,417h30v1h-30zM190,417h67v1h-67zM482,417h30v1h-30zM0,418h30v1h-30zM191,418h65v1h-65zM482,418h30v1h-30zM0,419h30v1h-30zM192,419h63v1h-63zM482,419h30v1h-30zM0,420h30v1h-30zM193,420h61v1h-61zM482,420h30v1h-30zM0,421h30v1h-30zM195,421h58v1h-58zM482,421h30v1h-30zM0,422h30v1h-30zM196,422h56v1h-56zM482,422h30v1h-30zM0,423h30v1h-30zM198,423h52v1h-52zM482,423h30v1h-30zM0,424h30v1h-30zM199,424h50v1h-50zM482,424h30v1h-30zM0,425h30v1h-30zM201,425h46v1h-46zM482,425h30v1h-30zM0,426h30v1h-30zM202,426h43v1h-43zM482,426h30v1h-30zM0,427h30v1h-30zM205,427h38v1h-38zM482,427h30v1h-30zM0,428h31v1h-31zM207,428h34v1h-34zM481,428h31v1h-31zM0,429h31v1h-31zM210,429h28v1h-28zM481,429h31v1h-31zM1,430h30v1h-30zM214,430h20v1h-20zM481,430h30v1h-30zM1,431h30v1h-30zM220,431h8v1h-8zM481,431h30v1h-30zM1,432h30v1h-30zM481,432h30v1h-30zM1,433h30v1h-30zM481,433h30v1h-30zM1,434h31v1h-31zM480,434h31v1h-31zM1,435h31v1h-31zM480,435h31v1h-31zM1,436h31v1h-31zM480,436h31v1h-31zM2,437h30v1h-30zM480,437h30v1h-30zM2,438h31v1h-31zM479,438h31v1h-31zM2,439h31v1h-31zM479,439h31v1h-31zM2,440h31v1h-31zM479,440h31v1h-31zM2,441h32v1h-32zM478,441h32v1h-32zM3,442h31v1h-31zM478,442h31v1h-31zM3,443h32v1h-32zM477,443h32v1h-32zM3,444h32v1h-32zM477,444h32v1h-32zM4,445h31v1h-31zM477,445h31v1h-31zM4,446h32v1h-32zM476,446h32v1h-32zM4,447h32v1h-32zM476,447h32v1h-32zM4,448h33v1h-33zM475,448h33v1h-33zM5,449h32v1h-32zM475,449h32v1h-32zM5,450h33v1h-33zM474,450h33v1h-33zM5,451h34v1h-34zM473,451h34v1h-34zM6,452h33v1h-33zM473,452h33v1h-33zM6,453h34v1h-34zM472,453h34v1h-34zM7,454h33v1h-33zM472,454h33v1h-33zM7,455h34v1h-34zM471,455h34v1h-34zM7,456h35v1h-35zM470,456h35v1h-35zM8,457h35v1h-35zM469,457h35v1h-35zM8,458h35v1h-35zM469,458h35v1h-35zM9,459h35v1h-35zM468,459h35v1h-35zM9,460h36v1h-36zM467,460h36v1h-36zM10,461h36v1h-36zM466,461h36v1h-36zM10,462h37v1h-37zM465,462h37v1h-37zM11,463h37v1h-37zM464,463h37v1h-37zM11,464h38v1h-38zM463,464h38v1h-38zM12,465h38v1h-38zM462,465h38v1h-38zM12,466h39v1h-39zM461,466h38v1h-38zM13,467h39v1h-39zM460,467h39v1h-39zM14,468h39v1h-39zM459,468h39v1h-39zM14,469h41v1h-41zM457,469h41v1h-41zM15,470h41v1h-41zM456,470h41v1h-41zM16,471h41v1h-41zM455,471h41v1h-41zM16,472h43v1h-43zM453,472h43v1h-43zM17,473h44v1h-44zM451,473h44v1h-44zM18,474h44v1h-44zM450,474h44v1h-44zM18,475h46v1h-46zM448,475h46v1h-46zM19,476h47v1h-47zM446,476h47v1h-47zM20,477h49v1h-49zM443,477h49v1h-49zM21,478h50v1h-50zM441,478h50v1h-50zM22,479h52v1h-52zM438,479h52v1h-52zM23,480h55v1h-55zM434,480h55v1h-55zM23,481h61v1h-61zM428,481h61v1h-61zM24,482h464v1h-464zM25,483h462v1h-462zM26,484h460v1h-460zM27,485h458v1h-458zM28,486h456v1h-456zM29,487h454v1h-454zM30,488h452v1h-452zM32,489h448v1h-448zM33,490h446v1h-446zM34,491h444v1h-444zM35,492h442v1h-442zM36,493h440v1h-440zM38,494h436v1h-436zM39,495h434v1h-434zM41,496h430v1h-430zM42,497h428v1h-428zM44,498h424v1h-424zM46,499h421v1h-421zM47,500h418v1h-418zM49,501h414v1h-414zM51,502h410v1h-410zM53,503h406v1h-406zM55,504h402v1h-402zM58,505h396v1h-396zM60,506h392v1h-392zM63,507h386v1h-386zM67,508h379v1h-379zM70,509h372v1h-372zM75,510h362v1h-362zM82,511h348v1h-348z" fill="#000"/>
</svg>